<svg version="1.1" xmlns="http://www.w3.org/2000/svg" xmlns:xlink="http://www.w3.org/1999/xlink">
	<defs>
		<symbol id="arrow-ball-down-outline" viewBox="0 0 72 72">
<path d="M36 9.86548C30.8348 9.86548 25.7856 11.3977 21.4906 14.2686C17.1956 17.1394 13.8477 21.2198 11.8702 25.9941C9.89264 30.7684 9.37421 36.0222 10.3804 41.0912C11.3867 46.1603 13.8724 50.817 17.5233 54.4728C21.1743 58.1286 25.8265 60.6192 30.892 61.6299C35.9575 62.6406 41.2087 62.1259 45.9818 60.1509C50.755 58.1759 54.8358 54.8293 57.7083 50.5341C60.5808 46.2389 62.116 41.1881 62.12 36.02C62.1174 29.0877 59.3652 22.4397 54.4679 17.536C49.5706 12.6322 42.9285 9.87343 36 9.86548ZM36 58.1323C31.6242 58.1323 27.3468 56.8338 23.7087 54.4009C20.0707 51.9681 17.2355 48.5103 15.5619 44.465C13.8883 40.4197 13.4514 35.9686 14.3065 31.6748C15.1616 27.381 17.2703 23.4375 20.3659 20.343C23.4614 17.2486 27.4047 15.1422 31.6969 14.2905C35.9891 13.4388 40.4373 13.88 44.4788 15.5582C48.5204 17.2364 51.9737 20.0762 54.4018 23.7185C56.83 27.3608 58.124 31.6418 58.12 36.02C58.1094 41.8848 55.7749 47.506 51.6283 51.6511C47.4817 55.7963 41.8615 58.127 36 58.1323Z"/>
<path d="M43.32 31.4975L36 37.6309L28.68 31.4975C28.1721 31.0702 27.5154 30.8624 26.8543 30.9196C26.1933 30.9768 25.582 31.2945 25.155 31.8026C24.728 32.3108 24.5203 32.9679 24.5774 33.6293C24.6346 34.2908 24.9521 34.9024 25.46 35.3296L33.74 42.2735C34.3736 42.8043 35.1736 43.0953 36 43.0953C36.8264 43.0953 37.6264 42.8043 38.26 42.2735L46.54 35.3296C46.7915 35.1181 46.9989 34.859 47.1503 34.5673C47.3017 34.2756 47.3942 33.9568 47.4226 33.6293C47.4509 33.3018 47.4144 32.9719 47.3153 32.6585C47.2163 32.3451 47.0564 32.0543 46.845 31.8026C46.6336 31.551 46.3747 31.3435 46.0831 31.192C45.7915 31.0405 45.473 30.9479 45.1457 30.9196C44.8183 30.8913 44.4886 30.9277 44.1754 31.0269C43.8621 31.126 43.5715 31.2859 43.32 31.4975Z"/>
</symbol>
		<symbol id="arrow-ball-down-solid" viewBox="0 0 72 72">
<path d="M35.9999 9.86548C30.8347 9.86548 25.7855 11.3977 21.4905 14.2686C17.1955 17.1394 13.8476 21.2198 11.8701 25.9941C9.89253 30.7684 9.3741 36.0222 10.3803 41.0912C11.3865 46.1603 13.8723 50.817 17.5232 54.4728C21.1741 58.1286 25.8264 60.6192 30.8919 61.6299C35.9573 62.6406 41.2086 62.1259 45.9817 60.1509C50.7549 58.1759 54.8356 54.8293 57.7082 50.5341C60.5807 46.2389 62.1159 41.1881 62.1199 36.02C62.1172 29.0877 59.3651 22.4397 54.4678 17.536C49.5705 12.6322 42.9284 9.87343 35.9999 9.86548ZM46.5399 35.3296L38.2599 42.2735C37.624 42.8002 36.8254 43.0901 35.9999 43.0939C35.1723 43.0924 34.3718 42.7982 33.7399 42.2635L25.4599 35.3296C25.2084 35.1181 25.001 34.859 24.8496 34.5673C24.6982 34.2756 24.6057 33.9569 24.5773 33.6293C24.549 33.3018 24.5854 32.972 24.6845 32.6585C24.7836 32.3451 24.9435 32.0543 25.1549 31.8027C25.3663 31.551 25.6252 31.3436 25.9168 31.192C26.2084 31.0405 26.5269 30.948 26.8542 30.9196C27.1815 30.8913 27.5112 30.9277 27.8245 31.0269C28.1377 31.126 28.4284 31.2859 28.6799 31.4975L35.9999 37.6409L43.3299 31.4975C43.5796 31.2737 43.8717 31.1025 44.1889 30.9939C44.5061 30.8854 44.8419 30.8418 45.1762 30.8657C45.5106 30.8897 45.8367 30.9806 46.1352 31.1332C46.4338 31.2858 46.6986 31.4969 46.9139 31.754C47.1292 32.0111 47.2907 32.3088 47.3887 32.6296C47.4867 32.9503 47.5192 33.2875 47.4843 33.6211C47.4494 33.9547 47.3478 34.2779 47.1856 34.5714C47.0233 34.8649 46.8037 35.1227 46.5399 35.3296Z"/>
</symbol>
		<symbol id="arrow-ball-left-outline" viewBox="0 0 72 72">
<path d="M36.02 9.88001C30.8502 9.87606 25.7954 11.4046 21.495 14.2723C17.1946 17.14 13.8417 21.218 11.8606 25.9905C9.87947 30.7629 9.35907 36.0154 10.3652 41.0835C11.3714 46.1516 13.8588 50.8076 17.513 54.4626C21.1672 58.1175 25.8239 60.6072 30.894 61.6166C35.9642 62.6261 41.22 62.11 45.9966 60.1337C50.7732 58.1573 54.8561 54.8094 57.7287 50.5136C60.6012 46.2177 62.1345 41.1669 62.1345 36C62.1266 29.0785 59.3733 22.4424 54.4782 17.5462C49.5831 12.65 42.9454 9.89324 36.02 9.88001ZM36.02 58.12C31.6418 58.124 27.3608 56.83 23.7185 54.4018C20.0763 51.9737 17.2364 48.5204 15.5582 44.4788C13.88 40.4373 13.4388 35.9891 14.2905 31.6969C15.1423 27.4047 17.2486 23.4614 20.343 20.3659C23.4375 17.2704 27.3811 15.1616 31.6748 14.3065C35.9686 13.4514 40.4197 13.8883 44.465 15.5619C48.5103 17.2355 51.9681 20.0707 54.4009 23.7087C56.8338 27.3468 58.1323 31.6242 58.1323 36C58.127 41.8615 55.7963 47.4817 51.6511 51.6283C47.506 55.7749 41.8848 58.1094 36.02 58.12Z"/>
<path d="M40.1923 25.15C39.684 24.7247 39.0275 24.5184 38.3672 24.5765C37.7068 24.6347 37.0965 24.9524 36.6704 25.46L29.7265 33.74C29.1956 34.3736 28.9047 35.1736 28.9047 36C28.9047 36.8264 29.1956 37.6264 29.7265 38.26L36.6704 46.54C36.8819 46.7915 37.141 46.9989 37.4327 47.1503C37.7244 47.3017 38.0431 47.3942 38.3706 47.4225C38.6982 47.4509 39.028 47.4144 39.3415 47.3153C39.6549 47.2163 39.9457 47.0564 40.1973 46.845C40.449 46.6336 40.6564 46.3747 40.808 46.0831C40.9595 45.7915 41.052 45.473 41.0804 45.1457C41.1087 44.8183 41.0723 44.4886 40.9731 44.1754C40.874 43.8621 40.714 43.5715 40.5025 43.32L34.3591 36L40.5025 28.68C40.9286 28.1703 41.1353 27.5126 41.0771 26.851C41.019 26.1893 40.7008 25.5776 40.1923 25.15Z"/>
</symbol>
		<symbol id="arrow-ball-left-solid" viewBox="0 0 72 72">
<path d="M36.02 9.88001C30.8503 9.87606 25.7954 11.4046 21.495 14.2723C17.1946 17.14 13.8417 21.218 11.8606 25.9905C9.87948 30.7629 9.35908 36.0154 10.3652 41.0835C11.3714 46.1516 13.8589 50.8076 17.513 54.4626C21.1672 58.1175 25.8239 60.6072 30.8941 61.6166C35.9642 62.6261 41.22 62.11 45.9966 60.1337C50.7733 58.1573 54.8561 54.8094 57.7287 50.5136C60.6013 46.2177 62.1345 41.1669 62.1345 36C62.1266 29.0785 59.3733 22.4424 54.4782 17.5462C49.5831 12.65 42.9454 9.89324 36.02 9.88001ZM40.5225 43.33C40.7345 43.581 40.8947 43.8714 40.9939 44.1846C41.0931 44.4977 41.1293 44.8273 41.1005 45.1545C41.0716 45.4817 40.9783 45.8 40.8259 46.091C40.6735 46.3819 40.465 46.6399 40.2123 46.85C39.7648 47.2275 39.1971 47.4332 38.6115 47.43C38.2455 47.4318 37.8836 47.353 37.5516 47.1991C37.2196 47.0453 36.9255 46.8203 36.6904 46.54L29.7465 38.26C29.2175 37.6256 28.9278 36.8259 28.9278 36C28.9278 35.1742 29.2175 34.3744 29.7465 33.74L36.6904 25.46C36.8973 25.1962 37.1551 24.9766 37.4486 24.8143C37.7422 24.6521 38.0653 24.5505 38.3989 24.5156C38.7325 24.4807 39.0697 24.5132 39.3904 24.6112C39.7112 24.7092 40.009 24.8707 40.266 25.086C40.5231 25.3013 40.7342 25.5661 40.8868 25.8647C41.0394 26.1632 41.1303 26.4893 41.1543 26.8237C41.1782 27.158 41.1346 27.4938 41.0261 27.811C40.9175 28.1282 40.7463 28.4203 40.5225 28.67L34.3591 36L40.5225 43.33Z"/>
</symbol>
		<symbol id="arrow-ball-right-outline" viewBox="0 0 72 72">
<path d="M36.02 9.88001C30.8503 9.87606 25.7954 11.4046 21.495 14.2723C17.1946 17.14 13.8417 21.218 11.8606 25.9905C9.87948 30.7629 9.35908 36.0154 10.3652 41.0835C11.3714 46.1516 13.8589 50.8076 17.513 54.4626C21.1672 58.1175 25.8239 60.6072 30.8941 61.6166C35.9642 62.6261 41.22 62.11 45.9966 60.1337C50.7733 58.1573 54.8561 54.8094 57.7287 50.5136C60.6013 46.2177 62.1345 41.1669 62.1345 36C62.1266 29.0785 59.3733 22.4424 54.4782 17.5462C49.5831 12.65 42.9454 9.89324 36.02 9.88001ZM36.02 58.12C31.6418 58.124 27.3608 56.83 23.7185 54.4018C20.0763 51.9737 17.2364 48.5204 15.5582 44.4788C13.88 40.4373 13.4388 35.9891 14.2905 31.6969C15.1423 27.4047 17.2486 23.4614 20.343 20.3659C23.4375 17.2704 27.3811 15.1616 31.6749 14.3065C35.9686 13.4514 40.4197 13.8883 44.465 15.5619C48.5104 17.2355 51.9681 20.0707 54.4009 23.7087C56.8338 27.3468 58.1323 31.6242 58.1323 36C58.127 41.8615 55.7963 47.4817 51.6511 51.6283C47.506 55.7749 41.8848 58.1094 36.02 58.12Z"/>
<path d="M35.3296 25.46C35.1181 25.2085 34.8591 25.0011 34.5673 24.8497C34.2756 24.6983 33.9569 24.6058 33.6294 24.5774C33.3019 24.5491 32.972 24.5855 32.6585 24.6846C32.3451 24.7837 32.0543 24.9436 31.8027 25.155C31.5511 25.3664 31.3436 25.6253 31.1921 25.9169C31.0405 26.2084 30.948 26.527 30.9196 26.8543C30.8913 27.1816 30.9277 27.5113 31.0269 27.8246C31.126 28.1378 31.286 28.4285 31.4975 28.68L37.6309 36L31.4975 43.32C31.0703 43.8279 30.8624 44.4846 30.9196 45.1456C30.9769 45.8067 31.2945 46.418 31.8027 46.845C32.3108 47.272 32.9679 47.4797 33.6294 47.4225C34.2908 47.3653 34.9024 47.0479 35.3296 46.54L42.2635 38.26C42.7944 37.6264 43.0853 36.8264 43.0853 36C43.0853 35.1736 42.7944 34.3735 42.2635 33.74L35.3296 25.46Z"/>
</symbol>
		<symbol id="arrow-ball-right-solid" viewBox="0 0 72 72">
<path d="M36.02 9.88001C30.8503 9.87606 25.7954 11.4046 21.495 14.2723C17.1946 17.14 13.8417 21.218 11.8606 25.9905C9.87948 30.7629 9.35908 36.0154 10.3652 41.0835C11.3714 46.1516 13.8589 50.8076 17.513 54.4626C21.1672 58.1175 25.8239 60.6072 30.8941 61.6166C35.9642 62.6261 41.22 62.11 45.9966 60.1337C50.7733 58.1573 54.8561 54.8094 57.7287 50.5136C60.6013 46.2177 62.1345 41.1669 62.1345 36C62.1266 29.0785 59.3733 22.4424 54.4782 17.5462C49.5831 12.65 42.9454 9.89324 36.02 9.88001ZM42.2935 38.26L35.3497 46.54C35.1136 46.8192 34.8194 47.0435 34.4876 47.1973C34.1557 47.351 33.7943 47.4304 33.4286 47.43C32.8429 47.4332 32.2753 47.2275 31.8277 46.85C31.5751 46.6399 31.3666 46.3819 31.2142 46.091C31.0617 45.8 30.9684 45.4817 30.9396 45.1545C30.9108 44.8273 30.947 44.4977 31.0462 44.1846C31.1454 43.8714 31.3055 43.581 31.5175 43.33L37.6309 36L31.4975 28.67C31.0971 28.1593 30.911 27.5131 30.9786 26.8678C31.0461 26.2225 31.3621 25.6287 31.8596 25.2119C32.3572 24.7952 32.9973 24.5881 33.6448 24.6344C34.2924 24.6806 34.8965 24.9767 35.3296 25.46L42.2735 33.74C42.8025 34.3744 43.0923 35.1742 43.0923 36C43.0923 36.8259 42.8025 37.6256 42.2735 38.26H42.2935Z"/>
</symbol>
		<symbol id="arrow-ball-up-outline" viewBox="0 0 72 72">
<path d="M36 9.86548C30.8348 9.86548 25.7856 11.3977 21.4906 14.2686C17.1956 17.1394 13.8477 21.2198 11.8702 25.9941C9.89263 30.7684 9.3742 36.0222 10.3804 41.0912C11.3867 46.1603 13.8724 50.817 17.5233 54.4728C21.1743 58.1286 25.8265 60.6192 30.892 61.6299C35.9575 62.6406 41.2087 62.1259 45.9818 60.1509C50.755 58.1759 54.8358 54.8293 57.7083 50.5341C60.5808 46.2389 62.116 41.1881 62.12 36.02C62.1173 29.0877 59.3652 22.4397 54.4679 17.536C49.5706 12.6322 42.9285 9.87343 36 9.86548ZM36 58.1323C31.6242 58.1323 27.3468 56.8338 23.7087 54.4009C20.0707 51.9681 17.2355 48.5103 15.5619 44.465C13.8883 40.4197 13.4514 35.9686 14.3065 31.6748C15.1616 27.381 17.2703 23.4375 20.3659 20.343C23.4614 17.2486 27.4047 15.1422 31.6969 14.2905C35.989 13.4388 40.4373 13.88 44.4788 15.5582C48.5204 17.2364 51.9737 20.0762 54.4018 23.7185C56.83 27.3608 58.1239 31.6418 58.12 36.02C58.1094 41.8848 55.7749 47.506 51.6283 51.6511C47.4817 55.7963 41.8615 58.127 36 58.1323Z"/>
<path d="M38.25 29.7265C37.6172 29.1982 36.8192 28.9089 35.995 28.9089C35.1709 28.9089 34.3728 29.1982 33.74 29.7265L25.46 36.6703C25.2085 36.8819 25.0011 37.1409 24.8497 37.4327C24.6983 37.7244 24.6058 38.0431 24.5774 38.3706C24.5203 39.032 24.728 39.6891 25.155 40.1973C25.582 40.7055 26.1933 41.0231 26.8543 41.0803C27.5154 41.1376 28.1721 40.9297 28.68 40.5025L36 34.3591L43.32 40.5025C43.769 40.8853 44.3401 41.0947 44.93 41.0928C45.4445 41.0946 45.947 40.9376 46.3689 40.6432C46.7909 40.3487 47.1118 39.9312 47.2879 39.4475C47.464 38.9639 47.4867 38.4376 47.3528 37.9406C47.219 37.4436 46.9351 37 46.54 36.6703L38.25 29.7265Z"/>
</symbol>
		<symbol id="arrow-ball-up-solid" viewBox="0 0 72 72">
<path d="M35.9999 9.86548C30.8347 9.86548 25.7855 11.3977 21.4905 14.2686C17.1955 17.1394 13.8476 21.2198 11.8701 25.9941C9.89253 30.7684 9.3741 36.0222 10.3803 41.0912C11.3865 46.1603 13.8723 50.817 17.5232 54.4728C21.1741 58.1286 25.8264 60.6192 30.8919 61.6299C35.9573 62.6406 41.2086 62.1259 45.9817 60.1509C50.7549 58.1759 54.8356 54.8293 57.7082 50.5341C60.5807 46.2389 62.1159 41.1881 62.1199 36.02C62.1172 29.0877 59.3651 22.4397 54.4678 17.536C49.5705 12.6322 42.9284 9.87343 35.9999 9.86548ZM46.8499 40.1923C46.6398 40.4449 46.3818 40.6534 46.0908 40.8059C45.7998 40.9583 45.4816 41.0516 45.1544 41.0804C44.8272 41.1093 44.4976 41.073 44.1844 40.9738C43.8713 40.8747 43.5809 40.7145 43.3299 40.5025L35.9999 34.3591L28.6699 40.5025C28.2258 40.887 27.6571 41.0968 27.0699 41.0928C26.5554 41.0947 26.0529 40.9376 25.631 40.6432C25.209 40.3488 24.8881 39.9312 24.712 39.4476C24.5359 38.9639 24.5132 38.4377 24.6471 37.9407C24.7809 37.4436 25.0648 37 25.4599 36.6704L33.7399 29.7265C34.3743 29.1975 35.174 28.9078 35.9999 28.9078C36.8258 28.9078 37.6255 29.1975 38.2599 29.7265L46.5399 36.6704C47.0452 37.098 47.3612 37.7079 47.4193 38.3675C47.4773 39.0271 47.2727 39.6829 46.8499 40.1923Z"/>
</symbol>
		<symbol id="arrow-down-outline" viewBox="0 0 72 72">
<path d="M36 47.39C34.8211 47.3886 33.6807 46.9706 32.78 46.21L12.28 29C11.7967 28.5671 11.5006 27.9633 11.4543 27.3161C11.4081 26.669 11.6152 26.0292 12.0319 25.5319C12.4487 25.0346 13.0425 24.7189 13.6878 24.6513C14.333 24.5838 14.9793 24.7698 15.49 25.17L36 42.38L56.51 25.2C56.7529 24.9485 57.0458 24.7508 57.3699 24.6195C57.694 24.4883 58.042 24.4265 58.3914 24.4382C58.7409 24.4498 59.084 24.5346 59.3986 24.6871C59.7133 24.8396 59.9924 25.0564 60.218 25.3235C60.4436 25.5906 60.6107 25.902 60.7085 26.2377C60.8063 26.5734 60.8325 26.9259 60.7856 27.2724C60.7387 27.6188 60.6196 27.9516 60.436 28.2492C60.2525 28.5468 60.0086 28.8025 59.72 29L39.22 46.21C38.3193 46.9706 37.1789 47.3886 36 47.39Z"/>
</symbol>
		<symbol id="arrow-left-outline" viewBox="0 0 72 72">
<path d="M43.88 60.61C43.5208 60.6073 43.1664 60.5262 42.8417 60.3725C42.517 60.2188 42.2298 59.9961 42 59.72L24.79 39.22C24.0312 38.3186 23.6151 37.1782 23.6151 36C23.6151 34.8217 24.0312 33.6814 24.79 32.78L42 12.28C42.4329 11.7967 43.0367 11.5006 43.6839 11.4543C44.331 11.408 44.9708 11.6151 45.4681 12.0319C45.9654 12.4487 46.2811 13.0424 46.3486 13.6877C46.4162 14.333 46.2302 14.9793 45.83 15.49L28.62 36L45.8 56.51C46.1083 56.8737 46.3057 57.3183 46.3687 57.7909C46.4318 58.2635 46.3578 58.7443 46.1556 59.1761C45.9534 59.6078 45.6315 59.9725 45.2281 60.2267C44.8247 60.4809 44.3568 60.6139 43.88 60.61Z"/>
</symbol>
		<symbol id="arrow-right-outline" viewBox="0 0 72 72">
<path d="M27.12 60.61C26.6432 60.614 26.1753 60.4809 25.7719 60.2268C25.3686 59.9726 25.0466 59.6079 24.8444 59.1761C24.6422 58.7443 24.5682 58.2635 24.6313 57.7909C24.6943 57.3183 24.8917 56.8737 25.2 56.51L42.38 36L25.2 15.49C24.8503 14.979 24.7027 14.3563 24.7859 13.7427C24.869 13.129 25.1769 12.5681 25.6499 12.1684C26.123 11.7688 26.7275 11.559 27.3464 11.5796C27.9654 11.6002 28.5546 11.8498 29 12.28L46.18 32.78C46.9388 33.6814 47.3549 34.8218 47.3549 36C47.3549 37.1783 46.9388 38.3186 46.18 39.22L29 59.72C28.7702 59.9962 28.483 60.2189 28.1583 60.3726C27.8336 60.5263 27.4792 60.6073 27.12 60.61Z"/>
</symbol>
		<symbol id="arrow-up-outline" viewBox="0 0 72 72">
<path d="M58.11 47.38C57.5253 47.3798 56.9591 47.1745 56.51 46.8L36 29.62L15.49 46.8C14.979 47.1497 14.3563 47.2973 13.7427 47.2142C13.129 47.131 12.5681 46.8231 12.1684 46.3501C11.7688 45.877 11.559 45.2725 11.5796 44.6536C11.6002 44.0347 11.8498 43.4454 12.28 43L32.78 25.82C33.6814 25.0612 34.8218 24.6451 36 24.6451C37.1783 24.6451 38.3186 25.0612 39.22 25.82L59.72 43C60.1113 43.3304 60.3916 43.773 60.5231 44.268C60.6547 44.7629 60.631 45.2863 60.4554 45.7674C60.2798 46.2484 59.9606 46.6639 59.5412 46.9577C59.1217 47.2515 58.6221 47.4094 58.11 47.41V47.38Z"/>
</symbol>
		<symbol id="blip-ideas" viewBox="0 0 72 72">
<path d="M62.5 33H59.79C59.2596 33 58.7509 32.7893 58.3758 32.4142C58.0008 32.0391 57.79 31.5304 57.79 31C57.79 30.4696 58.0008 29.9609 58.3758 29.5858C58.7509 29.2107 59.2596 29 59.79 29H62.5C63.0305 29 63.5392 29.2107 63.9143 29.5858C64.2893 29.9609 64.5 30.4696 64.5 31C64.5 31.5304 64.2893 32.0391 63.9143 32.4142C63.5392 32.7893 63.0305 33 62.5 33Z"/>
<path d="M57.8601 24.77C57.4279 24.771 57.0071 24.6321 56.6605 24.3739C56.3139 24.1158 56.0603 23.7523 55.9376 23.338C55.8148 22.9236 55.8296 22.4807 55.9797 22.0754C56.1298 21.6702 56.4071 21.3245 56.7701 21.09L59.0001 19.61C59.2227 19.4636 59.4719 19.3624 59.7336 19.3123C59.9953 19.2622 60.2643 19.2641 60.5252 19.318C60.7861 19.3719 61.0339 19.4766 61.2543 19.6262C61.4748 19.7758 61.6636 19.9674 61.8101 20.19C61.9565 20.4126 62.0576 20.6618 62.1077 20.9235C62.1578 21.1852 62.1559 21.4542 62.102 21.7151C62.0482 21.976 61.9434 22.2238 61.7938 22.4443C61.6442 22.6647 61.4527 22.8536 61.2301 23L59.0001 24.44C58.6622 24.6628 58.2647 24.7779 57.8601 24.77Z"/>
<path d="M59.72 42.72C59.366 42.7103 59.0209 42.6067 58.72 42.42L56.36 41C55.9336 40.7104 55.6354 40.2673 55.5278 39.7633C55.4201 39.2592 55.5112 38.733 55.7821 38.2945C56.0529 37.8559 56.4826 37.5389 56.9816 37.4095C57.4805 37.2801 58.0101 37.3483 58.46 37.6L60.77 39C61.1394 39.2289 61.4242 39.572 61.5813 39.9772C61.7383 40.3825 61.7591 40.8279 61.6404 41.246C61.5218 41.6641 61.2702 42.0322 60.9236 42.2945C60.5771 42.5569 60.1546 42.6992 59.72 42.7V42.72Z"/>
<path d="M12.21 33H9.5C8.96957 33 8.46086 32.7893 8.08579 32.4142C7.71071 32.0391 7.5 31.5304 7.5 31C7.5 30.4696 7.71071 29.9609 8.08579 29.5858C8.46086 29.2107 8.96957 29 9.5 29H12.21C12.7404 29 13.2491 29.2107 13.6242 29.5858C13.9993 29.9609 14.21 30.4696 14.21 31C14.21 31.5304 13.9993 32.0391 13.6242 32.4142C13.2491 32.7893 12.7404 33 12.21 33Z"/>
<path d="M14.1401 24.77C13.749 24.7699 13.3666 24.6552 13.0401 24.44L10.7701 23C10.5475 22.8536 10.3559 22.6647 10.2063 22.4443C10.0567 22.2238 9.95194 21.976 9.89809 21.7151C9.84423 21.4542 9.84229 21.1852 9.89239 20.9235C9.94248 20.6618 10.0436 20.4126 10.1901 20.19C10.3365 19.9674 10.5253 19.7758 10.7458 19.6262C10.9662 19.4766 11.214 19.3719 11.4749 19.318C12.0019 19.2092 12.5505 19.3143 13.0001 19.61L15.2601 21.09C15.6231 21.3245 15.9003 21.6702 16.0504 22.0754C16.2005 22.4807 16.2153 22.9236 16.0925 23.338C15.9698 23.7523 15.7162 24.1158 15.3696 24.3739C15.0231 24.6321 14.6022 24.771 14.1701 24.77H14.1401Z"/>
<path d="M12.2801 42.72C11.8497 42.7087 11.4344 42.5588 11.096 42.2927C10.7576 42.0265 10.5141 41.6582 10.4018 41.2425C10.2895 40.8269 10.3143 40.3861 10.4725 39.9857C10.6307 39.5853 10.9139 39.2466 11.2801 39.02L13.5901 37.6C13.8134 37.4484 14.0651 37.3435 14.33 37.2917C14.5949 37.2399 14.8676 37.2423 15.1315 37.2986C15.3955 37.355 15.6454 37.4643 15.866 37.6198C16.0866 37.7753 16.2735 37.9739 16.4153 38.2035C16.5572 38.4332 16.6511 38.6892 16.6914 38.9561C16.7316 39.223 16.7175 39.4953 16.6497 39.7566C16.5819 40.0179 16.462 40.2628 16.297 40.4765C16.1321 40.6902 15.9257 40.8683 15.6901 41L13.3801 42.42C13.0503 42.6246 12.6681 42.7289 12.2801 42.72Z"/>
<path d="M35.44 27C34.4574 27.1093 33.5306 27.5127 32.781 28.1575C32.0314 28.8022 31.4939 29.6582 31.2389 30.6135C30.9839 31.5688 31.0232 32.5788 31.3517 33.5113C31.6802 34.4439 32.2826 35.2555 33.08 35.84C33.4217 36.0952 33.7002 36.4253 33.8944 36.8049C34.0886 37.1846 34.1931 37.6037 34.2 38.03H37.8C37.7985 37.6106 37.8954 37.1967 38.0829 36.8215C38.2705 36.4463 38.5435 36.1204 38.88 35.87C39.4769 35.4406 39.9696 34.8825 40.3219 34.2371C40.6742 33.5916 40.8771 32.8753 40.9155 32.141C40.9539 31.4067 40.8268 30.6731 40.5438 29.9945C40.2607 29.3158 39.8288 28.7094 39.28 28.22C38.7644 27.7539 38.1548 27.4038 37.4924 27.1934C36.83 26.9829 36.1301 26.917 35.44 27Z"/>
<path d="M54 27.2C53.4971 24.4831 52.1727 21.986 50.2056 20.0457C48.2385 18.1055 45.7234 16.8155 43 16.35C40.5402 15.8593 38.0382 15.6115 35.53 15.61C32.18 15.61 27.45 16.06 23.98 18.21C19.58 20.94 17.27 26.21 17.48 32.92C17.59 36.77 18.53 42.2 22.29 46.12C25.13 49.12 30.29 50.63 34.62 50.99V53.42C34.62 54.2156 34.936 54.9787 35.4986 55.5413C36.0612 56.1039 36.8243 56.42 37.62 56.42C37.6963 56.4295 37.7736 56.4295 37.85 56.42C38.4626 56.3723 39.044 56.1306 39.51 55.73C41.18 54.3 43.36 52.41 45.51 50.42L46.44 49.57C48.2035 48.0658 49.7964 46.3723 51.19 44.52C54.22 40.11 55.28 33.65 54 27.2ZM40.06 37.53C39.9757 37.5941 39.9081 37.6775 39.8628 37.7732C39.8176 37.869 39.796 37.9742 39.8 38.08V39.08C39.801 39.3303 39.7081 39.5719 39.5396 39.7571C39.3711 39.9422 39.1393 40.0575 38.89 40.08V41.4C38.89 41.6449 38.7934 41.88 38.6211 42.0541C38.4489 42.2282 38.2149 42.3274 37.97 42.33H34C33.7533 42.33 33.5168 42.232 33.3423 42.0576C33.1679 41.8832 33.07 41.6466 33.07 41.4V40.05C32.8206 40.0275 32.5888 39.9122 32.4203 39.7271C32.2519 39.5419 32.1589 39.3003 32.16 39.05V38.05C32.1603 37.9296 32.1325 37.8108 32.0787 37.7031C32.0248 37.5955 31.9465 37.5019 31.85 37.43C30.6719 36.5684 29.7964 35.3564 29.3486 33.9673C28.9009 32.5782 28.9038 31.083 29.357 29.6957C29.8102 28.3083 30.6904 27.0997 31.8719 26.2428C33.0533 25.3858 34.4754 24.9244 35.935 24.9244C37.3945 24.9244 38.8166 25.3858 39.998 26.2428C41.1795 27.0997 42.0597 28.3083 42.5129 29.6957C42.9661 31.083 42.969 32.5782 42.5213 33.9673C42.0735 35.3564 41.198 36.5684 40.02 37.43L40.06 37.53Z"/>
</symbol>
		<symbol id="checkball-outline" viewBox="0 0 72 72">
<path d="M36 9.88C30.834 9.88 25.7839 11.4119 21.4885 14.282C17.1931 17.1521 13.8452 21.2315 11.8683 26.0043C9.89132 30.7771 9.37406 36.029 10.3819 41.0958C11.3898 46.1625 13.8774 50.8167 17.5304 54.4696C21.1833 58.1226 25.8375 60.6103 30.9043 61.6181C35.971 62.626 41.2229 62.1087 45.9957 60.1317C50.7685 58.1548 54.8479 54.8069 57.718 50.5115C60.5881 46.2161 62.12 41.1661 62.12 36C62.1121 29.075 59.3576 22.4359 54.4609 17.5391C49.5641 12.6424 42.925 9.88794 36 9.88ZM36 58.12C31.6251 58.12 27.3484 56.8227 23.7108 54.3921C20.0732 51.9615 17.238 48.5069 15.5638 44.465C13.8896 40.4231 13.4515 35.9755 14.305 31.6846C15.1586 27.3937 17.2653 23.4523 20.3588 20.3588C23.4524 17.2653 27.3938 15.1585 31.6846 14.305C35.9755 13.4515 40.4231 13.8896 44.465 15.5638C48.5069 17.238 51.9615 20.0732 54.3921 23.7108C56.8227 27.3484 58.12 31.6251 58.12 36C58.1147 41.865 55.7825 47.4882 51.6354 51.6354C47.4882 55.7825 41.865 58.1147 36 58.12Z"/>
<path d="M46.23 28.49L31.83 42L25.59 36.22C25.1033 35.7691 24.4575 35.53 23.7945 35.5553C23.1316 35.5807 22.5059 35.8683 22.055 36.355C21.6041 36.8416 21.3651 37.4875 21.3904 38.1504C21.4157 38.8134 21.7033 39.4391 22.19 39.89L28.7 45.89C29.5569 46.6799 30.6796 47.1184 31.845 47.1184C33.0104 47.1184 34.1331 46.6799 34.99 45.89L49.65 32.13C50.0976 31.6684 50.3502 31.0522 50.3552 30.4093C50.3603 29.7664 50.1175 29.1462 49.6773 28.6777C49.2371 28.2091 48.6332 27.9282 47.9912 27.8932C47.3493 27.8583 46.7185 28.072 46.23 28.49Z"/>
</symbol>
		<symbol id="email-outline" viewBox="0 0 72 72">
<path d="M57 15.51H15C13.5616 15.5127 12.183 16.0859 11.1668 17.104C10.1507 18.122 9.57995 19.5016 9.57996 20.94V51.06C9.57995 52.4984 10.1507 53.878 11.1668 54.8961C12.183 55.9141 13.5616 56.4874 15 56.49H57C58.4393 56.4874 59.8189 55.9144 60.8366 54.8967C61.8544 53.8789 62.4273 52.4993 62.43 51.06V20.94C62.4273 19.5007 61.8544 18.1211 60.8366 17.1033C59.8189 16.0856 58.4393 15.5127 57 15.51ZM51.81 20.51L37.73 33C37.1397 33.4939 36.3946 33.7646 35.625 33.7646C34.8553 33.7646 34.1102 33.4939 33.52 33L19.47 20.51H51.81ZM57 51.51H15C14.9439 51.51 14.8885 51.4988 14.8369 51.4771C14.7853 51.4554 14.7385 51.4235 14.6994 51.3835C14.6602 51.3434 14.6295 51.2959 14.609 51.2438C14.5885 51.1917 14.5786 51.136 14.58 51.08V22.88L30.19 36.76C31.6963 38.0686 33.6246 38.7891 35.62 38.7891C37.6153 38.7891 39.5436 38.0686 41.05 36.76L57.39 22.2V51.06C57.3904 51.1675 57.3507 51.2712 57.2785 51.3508C57.2063 51.4303 57.1069 51.48 57 51.49V51.51Z"/>
</symbol>
		<symbol id="operator" viewBox="0 0 72 72">
<path d="M57.5599 26.3199H56.6599C55.4474 21.7665 52.7645 17.7412 49.0283 14.8698C45.2922 11.9984 40.7121 10.4417 35.9999 10.4417C31.2878 10.4417 26.7077 11.9984 22.9716 14.8698C19.2354 17.7412 16.5525 21.7665 15.3399 26.3199H14.4399C13.3791 26.3199 12.3617 26.7414 11.6115 27.4915C10.8614 28.2417 10.4399 29.2591 10.4399 30.3199V37.7899C10.4399 38.8508 10.8614 39.8682 11.6115 40.6184C12.3617 41.3685 13.3791 41.7899 14.4399 41.7899H14.5799V50.5599C14.5799 54.1799 16.9899 59.5599 23.5799 59.5599H29.2799C29.6643 60.1706 30.1968 60.6741 30.828 61.0238C31.4591 61.3735 32.1684 61.5579 32.8899 61.5599H38.7099C39.2914 61.588 39.8725 61.4977 40.418 61.2945C40.9636 61.0914 41.4622 60.7795 41.8836 60.3779C42.305 59.9763 42.6406 59.4934 42.8698 58.9583C43.099 58.4232 43.2172 57.8471 43.2172 57.2649C43.2172 56.6828 43.099 56.1067 42.8698 55.5716C42.6406 55.0365 42.305 54.5535 41.8836 54.152C41.4622 53.7504 40.9636 53.4385 40.418 53.2354C39.8725 53.0322 39.2914 52.9419 38.7099 52.9699H32.9099C32.0763 52.9777 31.2629 53.2275 30.5687 53.6891C29.8745 54.1507 29.3295 54.8042 28.9999 55.5699H23.5999C18.8899 55.5699 18.5999 51.3899 18.5999 50.5699V39.8199V31.8499C18.5999 27.2325 20.4342 22.8042 23.6992 19.5392C26.9642 16.2742 31.3925 14.4399 36.0099 14.4399C40.6274 14.4399 45.0557 16.2742 48.3207 19.5392C51.5857 22.8042 53.4199 27.2325 53.4199 31.8499V39.7899C53.4199 40.3204 53.6307 40.8291 54.0057 41.2042C54.3808 41.5792 54.8895 41.7899 55.4199 41.7899H57.5699C58.6308 41.7899 59.6482 41.3685 60.3984 40.6184C61.1485 39.8682 61.5699 38.8508 61.5699 37.7899V30.3199C61.5699 29.7938 61.4662 29.2729 61.2645 28.7869C61.0629 28.3009 60.7673 27.8595 60.3948 27.488C60.0223 27.1164 59.5802 26.822 59.0937 26.6215C58.6073 26.4211 58.0861 26.3186 57.5599 26.3199Z"/>
<path d="M36 19.22C33.065 19.22 30.1958 20.0903 27.7554 21.721C25.315 23.3516 23.4129 25.6693 22.2897 28.3809C21.1665 31.0926 20.8726 34.0764 21.4452 36.9551C22.0178 39.8338 23.4312 42.478 25.5066 44.5534C27.582 46.6288 30.2262 48.0422 33.1049 48.6148C35.9836 49.1874 38.9674 48.8935 41.6791 47.7703C44.3907 46.6471 46.7084 44.7451 48.339 42.3046C49.9697 39.8642 50.84 36.995 50.84 34.06C50.8374 30.125 49.273 26.3519 46.4906 23.5694C43.7081 20.787 39.935 19.2226 36 19.22ZM45.34 38.52C44.6643 40.3042 43.439 41.8276 41.8411 42.8701C40.2432 43.9126 38.3553 44.4203 36.45 44.32H35.94C34.0348 44.4203 32.1469 43.9126 30.549 42.8701C28.951 41.8276 27.7258 40.3042 27.05 38.52C26.63 37.17 26.67 36.52 27.05 36.52C30.0284 36.9729 33.0375 37.1936 36.05 37.18H36.39C39.4026 37.193 42.4116 36.9724 45.39 36.52C45.71 36.52 45.75 37.17 45.34 38.52Z"/>
</symbol>
		<symbol id="forum" viewBox="0 0 72 72">
<path d="M44.15 27.52C43.6858 25.0205 42.4621 22.7249 40.6457 20.9461C38.8294 19.1673 36.5087 17.9919 34 17.58C31.6432 17.1038 29.2444 16.8659 26.84 16.87C23.66 16.87 19.19 17.29 15.97 19.28C11.97 21.78 9.80997 26.63 9.96997 32.94C10.08 36.57 10.97 41.67 14.46 45.32C17.27 48.25 22.66 49.7 26.84 49.88V53.14C26.84 53.6705 27.0507 54.1792 27.4258 54.5543C27.8008 54.9293 28.3095 55.14 28.84 55.14H29.02C29.4284 55.1041 29.8159 54.9435 30.13 54.68C31.75 53.28 33.89 51.43 35.98 49.48L36.9 48.64C38.5814 47.2041 40.1034 45.5915 41.44 43.83C44.37 39.71 45.36 33.62 44.15 27.52ZM29.1 38H18.38C18.0458 38 17.7253 37.8673 17.489 37.631C17.2527 37.3947 17.12 37.0742 17.12 36.74C17.12 36.4059 17.2527 36.0854 17.489 35.8491C17.7253 35.6128 18.0458 35.48 18.38 35.48H29.1C29.4341 35.48 29.7546 35.6128 29.9909 35.8491C30.2272 36.0854 30.36 36.4059 30.36 36.74C30.36 37.0742 30.2272 37.3947 29.9909 37.631C29.7546 37.8673 29.4341 38 29.1 38ZM35.4 32.5H18.4C18.0839 32.4719 17.7898 32.3265 17.5756 32.0923C17.3613 31.8582 17.2425 31.5524 17.2425 31.235C17.2425 30.9177 17.3613 30.6119 17.5756 30.3777C17.7898 30.1436 18.0839 29.9982 18.4 29.97H35.4C35.7161 29.9982 36.0102 30.1436 36.2244 30.3777C36.4386 30.6119 36.5574 30.9177 36.5574 31.235C36.5574 31.5524 36.4386 31.8582 36.2244 32.0923C36.0102 32.3265 35.7161 32.4719 35.4 32.5Z"/>
<path opacity="0.3" d="M61.4599 27.52C60.9982 25.026 59.7805 22.7344 57.9719 20.9562C56.1633 19.178 53.8514 17.9993 51.3499 17.58C48.9932 17.1032 46.5944 16.8654 44.1899 16.87C42.6841 16.8664 41.1801 16.9733 39.6899 17.19C40.5199 17.29 41.3299 17.42 42.0899 17.58C44.5914 17.9993 46.9033 19.178 48.7119 20.9562C50.5205 22.7344 51.7382 25.026 52.1999 27.52C53.4099 33.62 52.4199 39.71 49.5499 43.81C48.2103 45.5719 46.6848 47.1846 44.9999 48.62L44.0799 49.46L43.6699 49.84H44.2199V53.1C44.2199 53.6304 44.4307 54.1391 44.8057 54.5142C45.1808 54.8892 45.6895 55.1 46.2199 55.1H46.3999C46.8083 55.064 47.1958 54.9034 47.5099 54.64C49.1399 53.24 51.2699 51.39 53.3599 49.44L54.2799 48.6C55.9613 47.164 57.4834 45.5514 58.8199 43.79C61.6799 39.71 62.6699 33.62 61.4599 27.52Z"/>
<path opacity="0.5" d="M52.2 27.5201C51.7383 25.0261 50.5205 22.7345 48.7119 20.9563C46.9033 19.1781 44.5914 17.9994 42.09 17.5801C39.7333 17.1033 37.3345 16.8655 34.93 16.8701C33.6166 16.8693 32.3043 16.9461 31 17.1001C32.0274 17.2084 33.0487 17.3686 34.06 17.5801C36.5614 17.9994 38.8733 19.1781 40.6819 20.9563C42.4905 22.7345 43.7083 25.0261 44.17 27.5201C45.38 33.6201 44.39 39.7101 41.52 43.8101C40.1897 45.5705 38.6744 47.183 37 48.6201L36.08 49.4601L35.01 50.4601V53.1501C35.01 53.6805 35.2207 54.1892 35.5958 54.5643C35.9709 54.9393 36.4796 55.1501 37.01 55.1501H37.19C37.5984 55.1141 37.9859 54.9535 38.3 54.6901C39.93 53.2901 42.06 51.4401 44.15 49.4901L45.07 48.6501C46.7514 47.2141 48.2735 45.6015 49.61 43.8401C52.42 39.7101 53.41 33.6201 52.2 27.5201Z"/>
</symbol>
		<symbol id="search" viewBox="0 0 72 72">
<path d="M60.64 57.79L51.25 48.4C55.149 43.9379 57.1895 38.1511 56.9515 32.2304C56.7135 26.3096 54.2151 20.7052 49.9705 16.5706C45.7259 12.4359 40.0579 10.0854 34.1329 10.0029C28.208 9.92028 22.4767 12.1118 18.1185 16.1266C13.7603 20.1414 11.1067 25.6739 10.7038 31.5857C10.3008 37.4976 12.1792 43.339 15.9523 47.908C19.7255 52.4769 25.1064 55.4259 30.9878 56.148C36.8692 56.8701 42.8036 55.3105 47.57 51.79L57.1 61.32C57.3318 61.5538 57.6074 61.7395 57.9112 61.8665C58.2149 61.9935 58.5408 62.0592 58.87 62.06C59.1979 62.0601 59.5225 61.9947 59.8247 61.8677C60.127 61.7406 60.4008 61.5544 60.63 61.32C61.0985 60.8527 61.3626 60.2187 61.3645 59.557C61.3663 58.8953 61.1058 58.2599 60.64 57.79ZM15.64 33.13C15.64 29.5319 16.7071 26.0146 18.7063 23.0231C20.7054 20.0315 23.5469 17.7001 26.8713 16.3236C30.1957 14.9472 33.8536 14.5875 37.3824 15.2902C40.9112 15.9929 44.1523 17.7263 46.6958 20.2712C49.2393 22.8161 50.971 26.0582 51.6717 29.5874C52.3724 33.1166 52.0108 36.7743 50.6325 40.0979C49.2542 43.4215 46.9212 46.2617 43.9285 48.2593C40.9359 50.2568 37.4181 51.3219 33.82 51.32C28.9981 51.312 24.3761 49.393 20.9665 45.9835C17.5569 42.5739 15.6379 37.9518 15.63 33.13H15.64Z"/>
</symbol>
		<symbol id="tutorials" viewBox="0 0 72 72">
<path d="M58.7901 24.8599C57.3701 17.6899 52.2901 12.6899 44.8601 11.1299C41.7489 10.505 38.5834 10.1901 35.4101 10.1899C31.1601 10.1899 25.1801 10.7699 20.7901 13.4799C15.2201 16.9299 12.2901 23.5399 12.5501 32.0999C12.7001 36.9799 13.8801 43.8399 18.6501 48.8099C22.2401 52.5499 28.8201 54.5199 34.2601 54.9699V58.0499C34.2601 59.0437 34.6535 59.9971 35.3543 60.7016C36.0551 61.4062 37.0064 61.8047 38.0001 61.8099C38.0965 61.8193 38.1937 61.8193 38.2901 61.8099C39.0641 61.7475 39.7987 61.4431 40.3901 60.9399C42.5401 59.0999 45.3001 56.6999 48.0001 54.1899L49.1701 53.1099C51.3949 51.2065 53.4067 49.0673 55.1701 46.7299C59.0601 41.1999 60.4101 32.9999 58.7901 24.8599ZM41.9301 35.0499L36.1901 41.8899C36.0273 42.0876 35.8226 42.2466 35.5909 42.3555C35.3592 42.4645 35.1062 42.5206 34.8501 42.5199C34.6416 42.5224 34.4346 42.4851 34.2401 42.4099C33.9004 42.2891 33.6069 42.0651 33.4007 41.7692C33.1945 41.4734 33.0859 41.1205 33.0901 40.7599V27.0799C33.1022 26.725 33.2214 26.3821 33.4319 26.0961C33.6425 25.8102 33.9347 25.5946 34.2701 25.4778C34.6054 25.3609 34.9683 25.3483 35.311 25.4415C35.6536 25.5347 35.9601 25.7294 36.1901 25.9999L41.9301 32.8399C42.1791 33.1544 42.3146 33.5438 42.3146 33.9449C42.3146 34.3461 42.1791 34.7355 41.9301 35.0499Z"/>
</symbol>
		<symbol id="txt-file" viewBox="0 0 72 72">
<path d="M57.64 25.19C57.6446 25.1468 57.6446 25.1032 57.64 25.06C57.612 24.8962 57.5685 24.7355 57.51 24.58C57.4423 24.4375 57.3584 24.3033 57.26 24.18C57.26 24.18 57.26 24.18 57.26 24.13L46.75 11.84C46.6292 11.6993 46.4875 11.5779 46.33 11.48H46.27C46.129 11.3996 45.9776 11.3391 45.82 11.3C45.7869 11.2942 45.7531 11.2942 45.72 11.3C45.5734 11.2597 45.422 11.2395 45.27 11.24H20C18.5121 11.24 17.0852 11.831 16.0331 12.8831C14.9811 13.9352 14.39 15.3621 14.39 16.85V55.35C14.4162 56.8205 15.0188 58.2218 16.0681 59.2524C17.1173 60.2829 18.5293 60.8602 20 60.86H52.1C53.5879 60.86 55.0148 60.2689 56.0669 59.2169C57.119 58.1648 57.71 56.7379 57.71 55.25V25.37C57.692 25.3081 57.6686 25.2478 57.64 25.19ZM48.07 23.19C47.8931 23.1874 47.7242 23.116 47.5991 22.9909C47.474 22.8658 47.4026 22.6969 47.4 22.52L47.33 18.67L51.24 23.26L48.07 23.19ZM53.66 55.19C53.66 55.617 53.4904 56.0265 53.1885 56.3284C52.8865 56.6304 52.477 56.8 52.05 56.8H20C19.573 56.8 19.1635 56.6304 18.8616 56.3284C18.5596 56.0265 18.39 55.617 18.39 55.19V16.75C18.39 16.323 18.5596 15.9135 18.8616 15.6116C19.1635 15.3096 19.573 15.14 20 15.14H43.26L43.4 22.62C43.4232 23.8309 43.9159 24.9854 44.7742 25.8399C45.6324 26.6944 46.7891 27.1821 48 27.2L53.68 27.33L53.66 55.19Z"/>
<path d="M24.59 31H35.38C35.9105 31 36.4192 30.7893 36.7942 30.4142C37.1693 30.0391 37.38 29.5304 37.38 29C37.38 28.4696 37.1693 27.9609 36.7942 27.5858C36.4192 27.2107 35.9105 27 35.38 27H24.59C24.0596 27 23.5509 27.2107 23.1758 27.5858C22.8007 27.9609 22.59 28.4696 22.59 29C22.59 29.5304 22.8007 30.0391 23.1758 30.4142C23.5509 30.7893 24.0596 31 24.59 31Z"/>
<path d="M46.31 36.3H24.59C24.0596 36.3 23.5509 36.5108 23.1758 36.8858C22.8007 37.2609 22.59 37.7696 22.59 38.3C22.59 38.8305 22.8007 39.3392 23.1758 39.7143C23.5509 40.0893 24.0596 40.3 24.59 40.3H46.31C46.8405 40.3 47.3492 40.0893 47.7242 39.7143C48.0993 39.3392 48.31 38.8305 48.31 38.3C48.31 37.7696 48.0993 37.2609 47.7242 36.8858C47.3492 36.5108 46.8405 36.3 46.31 36.3Z"/>
<path d="M46.31 45.5699H24.59C24.0596 45.5699 23.5509 45.7807 23.1758 46.1557C22.8007 46.5308 22.59 47.0395 22.59 47.5699C22.59 48.1004 22.8007 48.6091 23.1758 48.9842C23.5509 49.3592 24.0596 49.5699 24.59 49.5699H46.31C46.8405 49.5699 47.3492 49.3592 47.7242 48.9842C48.0993 48.6091 48.31 48.1004 48.31 47.5699C48.31 47.0395 48.0993 46.5308 47.7242 46.1557C47.3492 45.7807 46.8405 45.5699 46.31 45.5699Z"/>
</symbol>
		<symbol id="sms-icon" viewBox="0 0 72 72">
<path d="M50.29 44.4601C49.7596 44.4601 49.2509 44.6708 48.8758 45.0458C48.5007 45.4209 48.29 45.9296 48.29 46.4601V49.9401H15.64V22.1801H22.39C22.9204 22.1801 23.4292 21.9693 23.8042 21.5943C24.1793 21.2192 24.39 20.7105 24.39 20.1801C24.39 19.6496 24.1793 19.1409 23.8042 18.7658C23.4292 18.3908 22.9204 18.1801 22.39 18.1801H15.64C14.5791 18.1801 13.5617 18.6015 12.8116 19.3516C12.0614 20.1018 11.64 21.1192 11.64 22.1801V62.7901C11.64 63.8509 12.0614 64.8683 12.8116 65.6185C13.5617 66.3686 14.5791 66.7901 15.64 66.7901H48.29C49.3509 66.7901 50.3683 66.3686 51.1184 65.6185C51.8686 64.8683 52.29 63.8509 52.29 62.7901V46.4601C52.29 45.9296 52.0793 45.4209 51.7042 45.0458C51.3292 44.6708 50.8204 44.4601 50.29 44.4601ZM15.64 62.7901V53.9401H48.29V62.7901H15.64Z"/>
<path d="M31.96 60.18C32.9099 60.18 33.68 59.4099 33.68 58.46C33.68 57.5101 32.9099 56.74 31.96 56.74C31.0101 56.74 30.24 57.5101 30.24 58.46C30.24 59.4099 31.0101 60.18 31.96 60.18Z"/>
<path d="M59.9 15.34C59.4635 12.9634 58.3062 10.7788 56.5851 9.08283C54.8641 7.38682 52.6627 6.2616 50.28 5.85998C48.1407 5.42549 45.963 5.20773 43.78 5.20998C40.85 5.20998 36.73 5.60998 33.71 7.47998C29.86 9.85998 27.84 14.42 28 20.32C28.1 23.69 28.92 28.42 32.21 31.84C34.67 34.41 39.21 35.77 42.9 36.09V38.09C42.9 38.7911 43.1779 39.4636 43.6727 39.9603C44.1675 40.457 44.8389 40.7373 45.54 40.74H45.77C46.3169 40.6966 46.8355 40.4793 47.25 40.12C48.7 38.89 50.59 37.24 52.45 35.51L53.25 34.77C54.7908 33.4602 56.1825 31.9846 57.4 30.37C60.09 26.59 61 21 59.9 15.34ZM54.14 28.11C53.0825 29.4767 51.8861 30.73 50.57 31.85L49.74 32.61C48.74 33.5 47.82 34.37 46.92 35.16V34.48C46.92 33.8647 46.6756 33.2746 46.2405 32.8395C45.8054 32.4044 45.2153 32.16 44.6 32.16C41.44 32.16 37.04 31.08 35.11 29.08C32.7 26.57 32.11 22.86 32.02 20.2C31.93 17.54 32.33 13.04 35.81 10.88C37.55 9.80998 40.38 9.20998 43.81 9.20998C45.7173 9.20705 47.6201 9.39465 49.49 9.76998C51.0981 10.0226 52.588 10.7682 53.7541 11.9039C54.9202 13.0395 55.705 14.5092 56 16.11C56.68 19.65 56.56 24.65 54.14 28.11Z"/>
<path d="M51.65 16.42H38C37.5359 16.42 37.0908 16.6044 36.7626 16.9326C36.4344 17.2608 36.25 17.7059 36.25 18.17C36.25 18.6342 36.4344 19.0793 36.7626 19.4075C37.0908 19.7357 37.5359 19.92 38 19.92H51.65C52.1141 19.92 52.5592 19.7357 52.8874 19.4075C53.2156 19.0793 53.4 18.6342 53.4 18.17C53.4 17.7059 53.2156 17.2608 52.8874 16.9326C52.5592 16.6044 52.1141 16.42 51.65 16.42Z"/>
<path d="M44.83 22.17H38C37.5359 22.17 37.0908 22.3544 36.7626 22.6826C36.4344 23.0108 36.25 23.4559 36.25 23.92C36.25 24.3842 36.4344 24.8293 36.7626 25.1575C37.0908 25.4857 37.5359 25.67 38 25.67H44.83C45.2941 25.67 45.7392 25.4857 46.0674 25.1575C46.3956 24.8293 46.58 24.3842 46.58 23.92C46.58 23.4559 46.3956 23.0108 46.0674 22.6826C45.7392 22.3544 45.2941 22.17 44.83 22.17Z"/>
</symbol>
		<symbol id="chart-line" viewBox="0 0 72 72">
<path d="M60.08 62.38H11.92C11.3895 62.38 10.8808 62.1693 10.5058 61.7942C10.1307 61.4191 9.91998 60.9104 9.91998 60.38V11.62C9.91998 11.0896 10.1307 10.5809 10.5058 10.2058C10.8808 9.83071 11.3895 9.62 11.92 9.62C12.4504 9.62 12.9591 9.83071 13.3342 10.2058C13.7093 10.5809 13.92 11.0896 13.92 11.62V58.38H60.08C60.6104 58.38 61.1191 58.5907 61.4942 58.9658C61.8693 59.3409 62.08 59.8496 62.08 60.38C62.08 60.9104 61.8693 61.4191 61.4942 61.7942C61.1191 62.1693 60.6104 62.38 60.08 62.38Z"/>
<path opacity="0.5" d="M33 49.4201C31.7928 49.4529 30.6061 49.1029 29.61 48.4201C20.37 41.1601 14.82 47.7301 14.61 48.0201C14.1795 48.4982 13.5813 48.792 12.9397 48.8403C12.2981 48.8886 11.6626 48.6877 11.1654 48.2794C10.6682 47.871 10.3475 47.2867 10.2702 46.648C10.1928 46.0093 10.3647 45.3653 10.75 44.8501C10.84 44.7401 19.63 34.3001 32.59 44.3801C33.25 44.6901 35.47 44.3801 38.46 39.1801C44.02 29.5401 54.4 23.3601 54.84 23.1001C55.4115 22.7632 56.0935 22.6672 56.7358 22.8332C57.3781 22.9992 57.9282 23.4135 58.265 23.9851C58.6018 24.5566 58.6978 25.2385 58.5318 25.8808C58.3659 26.5232 57.9515 27.0732 57.38 27.4101C57.28 27.4601 47.68 33.2101 42.79 41.6801C40.21 46.1501 37.38 48.6801 34.37 49.3301C33.9172 49.403 33.4585 49.4332 33 49.4201ZM32.58 44.3601L32.66 44.4201L32.58 44.3601Z"/>
<path opacity="0.8" d="M12.6 48.89C12.1479 48.8885 11.7046 48.7645 11.3173 48.5311C10.9301 48.2976 10.6134 47.9636 10.401 47.5644C10.1886 47.1652 10.0884 46.7159 10.1111 46.2644C10.1339 45.8128 10.2786 45.3758 10.53 45C11.62 43.38 21.42 29.35 31 29.35H31.11C33.52 29.35 36.98 30.35 39.81 34.71C42.12 38.29 44.58 40.2 47.12 40.36C50.91 40.59 54.12 37 54.12 36.97C54.3266 36.7027 54.5852 36.4801 54.8802 36.3155C55.1753 36.1509 55.5006 36.0479 55.8365 36.0126C56.1725 35.9772 56.5121 36.0103 56.8349 36.1099C57.1577 36.2095 57.457 36.3734 57.7147 36.5919C57.9724 36.8103 58.1831 37.0788 58.3342 37.3809C58.4852 37.6831 58.5735 38.0127 58.5936 38.3499C58.6137 38.6871 58.5653 39.0249 58.4512 39.3429C58.3372 39.6609 58.1599 39.9524 57.93 40.2C57.74 40.43 53.14 45.76 46.8 45.35C42.6 45.07 38.8 42.41 35.62 37.42C34.3 35.42 32.81 34.42 31.07 34.35H31C25.76 34.35 18.2 42.58 14.66 47.8C14.4316 48.1359 14.1245 48.4109 13.7654 48.6009C13.4064 48.7909 13.0063 48.8901 12.6 48.89Z"/>
</symbol>
		<symbol id="ia" viewBox="0 0 72 72">
<path d="M62.1701 50.47C61.6996 50.0939 61.1733 49.7936 60.6101 49.58V45.58C60.6101 45.0496 60.3993 44.5409 60.0243 44.1658C59.6492 43.7907 59.1405 43.58 58.6101 43.58H52.0001C52.7873 41.9828 53.3461 40.2828 53.6601 38.53H59.5001C60.0305 38.53 60.5392 38.3193 60.9143 37.9442C61.2893 37.5692 61.5001 37.0605 61.5001 36.53C61.5001 35.9996 61.2893 35.4909 60.9143 35.1158C60.5392 34.7407 60.0305 34.53 59.5001 34.53H54.0001C54.0444 32.6756 53.8902 30.8217 53.5401 29C53.4801 28.68 53.4001 28.36 53.3201 28.05H58.6101C59.1405 28.05 59.6492 27.8393 60.0243 27.4642C60.3993 27.0892 60.6101 26.5805 60.6101 26.05V22C61.1745 21.7846 61.701 21.4808 62.1701 21.1C63.0276 20.3967 63.6575 19.455 63.98 18.3939C64.3026 17.3328 64.3034 16.1999 63.9824 15.1383C63.6613 14.0767 63.0328 13.1341 62.1763 12.4296C61.3198 11.7251 60.2736 11.2902 59.1701 11.18C57.6956 11.0373 56.2243 11.4825 55.0764 12.4189C53.9284 13.3552 53.1966 14.7069 53.0401 16.18C52.9119 17.4077 53.1923 18.6435 53.8377 19.6957C54.4832 20.7479 55.4576 21.5578 56.6101 22V24H51.4901C49.8375 21.6263 47.4303 19.8816 44.6601 19.05V15.74C44.6601 15.2096 44.4493 14.7009 44.0743 14.3258C43.6992 13.9507 43.1905 13.74 42.6601 13.74C42.1296 13.74 41.6209 13.9507 41.2458 14.3258C40.8708 14.7009 40.6601 15.2096 40.6601 15.74V18.28C39.7901 18.16 38.9001 18.07 38.0001 18.02V12.65C38.0001 12.1196 37.7893 11.6109 37.4143 11.2358C37.0392 10.8607 36.5305 10.65 36.0001 10.65C35.4696 10.65 34.9609 10.8607 34.5858 11.2358C34.2108 11.6109 34.0001 12.1196 34.0001 12.65V18C33.1501 18 32.2501 18.14 31.3401 18.27V15.74C31.3401 15.2096 31.1293 14.7009 30.7543 14.3258C30.3792 13.9507 29.8705 13.74 29.3401 13.74C28.8096 13.74 28.3009 13.9507 27.9258 14.3258C27.5508 14.7009 27.3401 15.2096 27.3401 15.74V19.26C26.4672 19.5634 25.6291 19.959 24.8401 20.44C23.0627 21.5634 21.6138 23.1365 20.6401 25H15.3901V23C16.303 22.663 17.1103 22.0903 17.7301 21.34C18.4331 20.482 18.8659 19.4347 18.9739 18.3307C19.0819 17.2267 18.8601 16.1155 18.3367 15.1375C17.8132 14.1595 17.0116 13.3586 16.0331 12.8361C15.0546 12.3135 13.9432 12.0928 12.8393 12.2018C11.7354 12.3108 10.6886 12.7446 9.83117 13.4484C8.97375 14.1522 8.34423 15.0944 8.02217 16.1559C7.70011 17.2174 7.69996 18.3505 8.02175 19.4121C8.34354 20.4737 8.97283 21.416 9.83006 22.12C10.3018 22.4968 10.8277 22.8002 11.3901 23.02V27.02C11.3901 27.5505 11.6008 28.0592 11.9758 28.4342C12.3509 28.8093 12.8596 29.02 13.3901 29.02H19.1601C18.755 30.8206 18.5803 32.6654 18.6401 34.51C18.6401 34.83 18.6401 35.15 18.6901 35.51H12.5301C11.9996 35.51 11.4909 35.7207 11.1158 36.0958C10.7408 36.4709 10.5301 36.9796 10.5301 37.51C10.5301 38.0405 10.7408 38.5492 11.1158 38.9242C11.4909 39.2993 11.9996 39.51 12.5301 39.51H19.2801C19.6971 41.266 20.371 42.9508 21.2801 44.51H13.3901C12.8596 44.51 12.3509 44.7207 11.9758 45.0958C11.6008 45.4709 11.3901 45.9796 11.3901 46.51V50.51C10.2137 50.9665 9.22522 51.8056 8.58373 52.8922C7.94224 53.9788 7.68509 55.2497 7.85367 56.5002C8.02225 57.7507 8.60676 58.9081 9.51309 59.786C10.4194 60.6639 11.5948 61.2113 12.8501 61.34H13.4101C14.4715 61.3371 15.5104 61.033 16.4059 60.4632C17.3015 59.8934 18.017 59.0812 18.4694 58.1209C18.9218 57.1607 19.0924 56.0918 18.9616 55.0384C18.8307 53.985 18.4037 52.9904 17.7301 52.17C17.1103 51.4198 16.303 50.847 15.3901 50.51V48.51H24.5001C24.6296 48.5253 24.7605 48.5253 24.8901 48.51C27.984 50.4507 31.5148 51.5852 35.1601 51.81V54.29C35.1601 55.007 35.4442 55.6948 35.9503 56.2028C36.4563 56.7107 37.1431 56.9974 37.8601 57H38.1101C38.6658 56.9487 39.1926 56.7289 39.6201 56.37C41.2201 55 43.3201 53.18 45.3801 51.26L46.2601 50.45C47.2601 49.55 48.2601 48.62 49.1601 47.63H56.6101V49.63C55.468 50.0609 54.4976 50.8525 53.8461 51.8848C53.1946 52.9171 52.8976 54.1337 53.0001 55.35C53.1364 56.7364 53.7827 58.0227 54.8138 58.9595C55.8448 59.8963 57.187 60.4168 58.5801 60.42C58.7633 60.43 58.9469 60.43 59.1301 60.42C60.2336 60.3098 61.2798 59.875 62.1363 59.1704C62.9928 58.4659 63.6213 57.5233 63.9424 56.4617C64.2634 55.4002 64.2626 54.2672 63.94 53.2061C63.6175 52.145 62.9876 51.2033 62.1301 50.5L62.1701 50.47ZM58.7601 15.2C58.9711 15.2197 59.1761 15.2811 59.3633 15.3806C59.5504 15.4802 59.7158 15.616 59.8501 15.78C59.9913 15.9473 60.0963 16.1422 60.1583 16.3522C60.2202 16.5622 60.2379 16.7828 60.2101 17C60.1763 17.3852 60.0034 17.7449 59.7236 18.0118C59.4438 18.2787 59.0764 18.4345 58.6901 18.45H58.4501C58.0244 18.4089 57.6325 18.2004 57.3605 17.8703C57.0886 17.5403 56.959 17.1157 57.0001 16.69C57.0412 16.2644 57.2497 15.8724 57.5798 15.6005C57.9098 15.3286 58.3344 15.1989 58.7601 15.24V15.2ZM12.1501 16.71C12.2843 16.546 12.4497 16.4102 12.6369 16.3106C12.824 16.2111 13.029 16.1497 13.2401 16.13H13.4001C13.7659 16.1354 14.1188 16.266 14.4001 16.5C14.7349 16.7666 14.9506 17.1549 15.0001 17.58C15.0404 18.0054 14.911 18.4296 14.6401 18.76C14.5074 18.9258 14.3423 19.0627 14.1549 19.1625C13.9675 19.2622 13.7616 19.3226 13.5501 19.34C13.5501 19.34 13.5501 19.34 13.4901 19.34H13.3101C12.9654 19.3279 12.6346 19.2013 12.3701 18.98C12.2071 18.847 12.072 18.6831 11.9725 18.4978C11.873 18.3125 11.811 18.1093 11.7901 17.9C11.7514 17.4717 11.8804 17.0451 12.1501 16.71ZM15.0001 55.9C14.9689 56.2057 14.851 56.4962 14.6601 56.737C14.4693 56.9778 14.2135 57.159 13.9229 57.2592C13.6324 57.3593 13.3193 57.3742 13.0206 57.3021C12.7219 57.23 12.45 57.0739 12.2372 56.8523C12.0243 56.6306 11.8793 56.3527 11.8193 56.0513C11.7593 55.75 11.7868 55.4377 11.8986 55.1515C12.0104 54.8652 12.2017 54.6169 12.45 54.4359C12.6984 54.2549 12.9933 54.1488 13.3001 54.13H13.5501C13.9758 54.1755 14.3665 54.3867 14.6378 54.7178C14.9091 55.049 15.0393 55.4737 15.0001 55.9ZM43.5601 47.42L42.6501 48.25C41.4601 49.36 40.2601 50.43 39.1601 51.4V50.17C39.1601 49.8601 39.099 49.5532 38.9804 49.2669C38.8618 48.9806 38.688 48.7204 38.4688 48.5013C38.2497 48.2821 37.9895 48.1083 37.7032 47.9897C37.4169 47.8711 37.11 47.81 36.8001 47.81C33.2501 47.81 28.3001 46.59 26.1301 44.33C23.4101 41.5 22.7301 37.33 22.6401 34.33C22.5501 31.33 23.0001 26.28 27.0001 23.84C29.0001 22.62 32.1301 21.96 35.9401 21.96C38.0687 21.9558 40.1925 22.1635 42.2801 22.58C44.1069 22.8604 45.8008 23.7038 47.1255 24.9926C48.4502 26.2815 49.3397 27.9516 49.6701 29.77C50.4501 33.77 50.3201 39.35 47.6001 43.23C46.4031 44.7637 45.0491 46.168 43.5601 47.42ZM59.8501 55.83C59.6504 56.0762 59.3825 56.258 59.08 56.3526C58.7774 56.4472 58.4537 56.4504 58.1493 56.3618C57.845 56.2732 57.5736 56.0966 57.3691 55.8544C57.1647 55.6122 57.0363 55.3149 57.0001 55C56.9794 54.7892 57.0005 54.5764 57.0622 54.3737C57.1239 54.1711 57.2251 53.9826 57.3598 53.8191C57.4945 53.6556 57.6601 53.5203 57.8472 53.4209C58.0343 53.3215 58.2392 53.2601 58.4501 53.24H58.6901C59.0335 53.2579 59.3626 53.3839 59.6301 53.6C59.7941 53.7342 59.9299 53.8997 60.0294 54.0868C60.129 54.2739 60.1904 54.479 60.2101 54.69C60.244 55.1025 60.1147 55.5118 59.8501 55.83Z"/>
<path d="M39.15 29.1799H33.53C32.5699 29.1799 31.6492 29.5613 30.9703 30.2402C30.2914 30.9191 29.91 31.8398 29.91 32.7999V38.4199C29.9206 39.3731 30.3066 40.2836 30.9843 40.9538C31.6621 41.6241 32.5768 42 33.53 41.9999H39.15C40.1101 41.9999 41.0309 41.6185 41.7098 40.9397C42.3886 40.2608 42.77 39.34 42.77 38.3799V32.7999C42.77 31.8398 42.3886 30.9191 41.7098 30.2402C41.0309 29.5613 40.1101 29.1799 39.15 29.1799ZM39.27 38.4199C39.27 38.4518 39.2574 38.4823 39.2349 38.5048C39.2124 38.5273 39.1819 38.5399 39.15 38.5399H33.53C33.4982 38.5399 33.4677 38.5273 33.4452 38.5048C33.4227 38.4823 33.41 38.4518 33.41 38.4199V32.7999C33.41 32.7681 33.4227 32.7376 33.4452 32.7151C33.4677 32.6926 33.4982 32.6799 33.53 32.6799H39.15C39.1819 32.6799 39.2124 32.6926 39.2349 32.7151C39.2574 32.7376 39.27 32.7681 39.27 32.7999V38.4199Z"/>
<path d="M36.34 34C36.1226 33.9827 35.904 34.0105 35.6979 34.0818C35.4918 34.1531 35.3027 34.2663 35.1425 34.4142C34.9823 34.5622 34.8544 34.7417 34.767 34.9414C34.6795 35.1412 34.6344 35.3569 34.6344 35.575C34.6344 35.7931 34.6795 36.0088 34.767 36.2086C34.8544 36.4083 34.9823 36.5878 35.1425 36.7358C35.3027 36.8837 35.4918 36.9969 35.6979 37.0682C35.904 37.1395 36.1226 37.1673 36.34 37.15C36.736 37.1184 37.1056 36.9388 37.3752 36.6469C37.6447 36.355 37.7944 35.9723 37.7944 35.575C37.7944 35.1777 37.6447 34.795 37.3752 34.5031C37.1056 34.2112 36.736 34.0316 36.34 34Z"/>
</symbol>
		<symbol id="integration-solid" viewBox="0 0 72 72">
<path opacity="0.3" d="M56.2201 41.11L54.7501 40.65L40.6101 46C38.4487 46.8076 36.0746 46.843 33.8901 46.1L17.2601 40.4L15.6701 40.94C14.7841 41.2392 14.0143 41.8088 13.469 42.5685C12.9237 43.3283 12.6304 44.2399 12.6304 45.175C12.6304 46.1102 12.9237 47.0218 13.469 47.7815C14.0143 48.5412 14.7841 49.1108 15.6701 49.41L33.8901 55.63C34.9227 55.9872 36.0075 56.1697 37.1001 56.17C38.2988 56.1669 39.4874 55.9502 40.6101 55.53L56.4601 49.53C57.3313 49.2023 58.0784 48.6108 58.5972 47.838C59.116 47.0652 59.3807 46.1498 59.3543 45.2194C59.3279 44.289 59.0117 43.3901 58.4498 42.648C57.8879 41.906 57.1085 41.3578 56.2201 41.08V41.11Z"/>
<path d="M56.2201 22L37.9001 16.29C35.8878 15.6559 33.7252 15.6839 31.7301 16.37L15.6701 21.83C14.7841 22.1292 14.0143 22.6988 13.469 23.4585C12.9237 24.2183 12.6304 25.1299 12.6304 26.065C12.6304 27.0002 12.9237 27.9118 13.469 28.6715C14.0143 29.4312 14.7841 30.0008 15.6701 30.3L33.8901 36.52C34.9227 36.8772 36.0075 37.0597 37.1001 37.06C38.2988 37.0569 39.4874 36.8402 40.6101 36.42L56.4601 30.42C57.3206 30.0862 58.0567 29.4941 58.5672 28.7251C59.0778 27.9561 59.3377 27.048 59.3114 26.1253C59.2851 25.2027 58.9739 24.3108 58.4203 23.5722C57.8668 22.8335 57.0982 22.2843 56.2201 22Z"/>
<path opacity="0.6" d="M56.2201 31.55L54.7601 31.09L40.6101 36.42C39.4874 36.8401 38.2988 37.0568 37.1001 37.06C36.0075 37.0596 34.9227 36.8771 33.8901 36.52L17.2601 30.85L15.6701 31.39C14.7841 31.6892 14.0143 32.2588 13.469 33.0185C12.9237 33.7782 12.6304 34.6898 12.6304 35.625C12.6304 36.5601 12.9237 37.4717 13.469 38.2315C14.0143 38.9912 14.7841 39.5608 15.6701 39.86L33.8901 46.08C36.0746 46.8229 38.4487 46.7876 40.6101 45.98L56.4601 39.98C57.3349 39.6543 58.0857 39.063 58.6074 38.289C59.1291 37.515 59.3954 36.5971 59.3689 35.6641C59.3424 34.731 59.0245 33.8297 58.4598 33.0865C57.8951 32.3433 57.1119 31.7955 56.2201 31.52V31.55Z"/>
</symbol>
		<symbol id="publish-bot" viewBox="0 0 72 72">
<path d="M55.06 45.05C53.7684 40.8169 51.5747 36.914 48.63 33.61C48.49 20.36 42.63 12.85 39.05 9.53997C38.2225 8.75133 37.1232 8.3114 35.98 8.3114C34.8369 8.3114 33.7376 8.75133 32.91 9.53997C29.37 12.85 23.46 20.38 23.33 33.65C20.4045 36.9459 18.2248 40.8344 16.94 45.05C16.6989 45.814 16.6411 46.6241 16.7714 47.4146C16.9017 48.2051 17.2164 48.9538 17.69 49.6C18.1561 50.2512 18.7718 50.781 19.4853 51.1447C20.1988 51.5084 20.9892 51.6954 21.79 51.69H30.33C29.6177 52.7702 29.2387 54.036 29.24 55.33C29.2157 56.3708 29.4493 57.4014 29.92 58.33C30.9077 59.8371 32.1181 61.1857 33.51 62.33C33.76 62.55 33.98 62.75 34.14 62.91C34.6335 63.3836 35.291 63.6481 35.975 63.6481C36.659 63.6481 37.3165 63.3836 37.81 62.91L38.45 62.33C39.8419 61.1857 41.0523 59.8371 42.04 58.33C42.5107 57.4014 42.7443 56.3708 42.72 55.33C42.7197 54.0377 42.3445 52.7733 41.64 51.69H50.21C51.0108 51.6954 51.8013 51.5084 52.5148 51.1447C53.2283 50.781 53.8439 50.2512 54.31 49.6C54.7836 48.9538 55.0983 48.2051 55.2286 47.4146C55.359 46.6241 55.3012 45.814 55.06 45.05ZM38.52 56.45C37.8044 57.4704 36.9571 58.3917 36 59.19C35.0359 58.393 34.1818 57.4716 33.46 56.45C33.3006 56.0993 33.2318 55.7142 33.26 55.33C33.26 54.6033 33.5487 53.9064 34.0625 53.3925C34.5764 52.8787 35.2733 52.59 36 52.59C36.7267 52.59 37.4236 52.8787 37.9375 53.3925C38.4513 53.9064 38.74 54.6033 38.74 55.33C38.762 55.7159 38.6863 56.1011 38.52 56.45ZM35.64 12.45C35.6846 12.4052 35.7376 12.3697 35.796 12.3455C35.8543 12.3213 35.9168 12.3088 35.98 12.3088C36.0432 12.3088 36.1058 12.3213 36.1641 12.3455C36.2224 12.3697 36.2754 12.4052 36.32 12.45C38.82 14.79 44.63 21.56 44.64 34.02C44.47 36.89 43.81 44.68 42.72 47.68H29.25C29.18 47.5 29.12 47.3 29.05 47.09C29.0352 47.059 29.0185 47.0289 29 47C28.95 46.82 28.91 46.64 28.86 46.45V46.31C28.86 46.09 28.76 45.87 28.71 45.63C28.1189 42.402 27.7082 39.1436 27.48 35.87C27.48 35.37 27.4 34.87 27.37 34.39C27.37 34.3 27.37 34.21 27.37 34.13C27.33 21.57 33.14 14.8 35.64 12.46V12.45ZM21.79 47.69C21.6198 47.6888 21.4523 47.6475 21.3011 47.5693C21.1499 47.4911 21.0193 47.3782 20.92 47.24C20.8135 47.0992 20.7425 46.9348 20.7129 46.7607C20.6833 46.5867 20.696 46.4081 20.75 46.24C21.4669 43.9251 22.475 41.7107 23.75 39.65C23.85 40.56 23.96 41.51 24.09 42.47C24.09 42.59 24.09 42.71 24.14 42.83L24.23 43.45C24.23 43.63 24.28 43.8 24.31 43.98L24.4 44.53C24.4 44.72 24.47 44.91 24.5 45.1L24.59 45.59L24.71 46.18L24.8 46.62C24.85 46.82 24.89 47.02 24.94 47.21L25.03 47.59C25.03 47.59 25.03 47.59 25.03 47.67L21.79 47.69ZM51.08 47.24C50.9807 47.3782 50.8502 47.4911 50.699 47.5693C50.5478 47.6475 50.3802 47.6888 50.21 47.69H46.93C47.5407 45.0552 47.975 42.3826 48.23 39.69C49.5051 41.7507 50.5131 43.9651 51.23 46.28C51.2802 46.4408 51.2928 46.611 51.2668 46.7774C51.2408 46.9439 51.1769 47.1021 51.08 47.24Z"/>
<path d="M36.0001 35.92C37.1701 35.9161 38.3127 35.5655 39.2836 34.9126C40.2545 34.2597 41.0101 33.3338 41.4551 32.2517C41.9002 31.1696 42.0145 29.9799 41.7839 28.8329C41.5532 27.6859 40.9878 26.6329 40.1591 25.807C39.3303 24.981 38.2755 24.4192 37.1277 24.1924C35.9798 23.9656 34.7906 24.084 33.71 24.5326C32.6294 24.9813 31.706 25.7401 31.0564 26.7132C30.4068 27.6863 30.0601 28.83 30.0601 30C30.0614 30.7788 30.2161 31.5496 30.5153 32.2686C30.8145 32.9876 31.2524 33.6405 31.804 34.1903C32.3556 34.74 33.01 35.1757 33.73 35.4725C34.4499 35.7693 35.2213 35.9214 36.0001 35.92ZM36.0001 27.59C36.4782 27.594 36.9445 27.7395 37.3401 28.0083C37.7356 28.277 38.0427 28.6569 38.2225 29.1001C38.4023 29.5432 38.4468 30.0296 38.3503 30.498C38.2539 30.9664 38.0208 31.3957 37.6806 31.7317C37.3404 32.0678 36.9082 32.2955 36.4387 32.3861C35.9692 32.4767 35.4833 32.4262 35.0425 32.241C34.6016 32.0557 34.2255 31.744 33.9617 31.3451C33.6979 30.9463 33.5581 30.4782 33.5601 30C33.5614 29.6814 33.6256 29.3661 33.749 29.0724C33.8725 28.7786 34.0528 28.5121 34.2795 28.2882C34.5062 28.0643 34.7749 27.8873 35.0701 27.7675C35.3654 27.6477 35.6814 27.5874 36.0001 27.59Z"/>
</symbol>
		<symbol id="robot" viewBox="0 0 72 72">
<path d="M60.11 30V29C60.1166 27.3591 59.7992 25.733 59.1761 24.2149C58.553 22.6969 57.6364 21.3167 56.4789 20.1536C55.3213 18.9905 53.9456 18.0673 52.4306 17.4369C50.9155 16.8065 49.291 16.4813 47.65 16.48H43.56C43.56 16.42 43.56 16.36 43.56 16.29C43.56 14.4096 42.813 12.6063 41.4834 11.2766C40.1538 9.94699 38.3504 9.20001 36.47 9.20001C34.5896 9.20001 32.7863 9.94699 31.4566 11.2766C30.127 12.6063 29.38 14.4096 29.38 16.29C29.38 16.36 29.38 16.42 29.38 16.48H24.38C21.0753 16.4827 17.9066 17.7959 15.5688 20.1318C13.2311 22.4676 11.9153 25.6353 11.91 28.94V29.94C10.6578 30.2161 9.53758 30.9121 8.73541 31.9126C7.93324 32.913 7.49732 34.1577 7.50001 35.44V43.83C7.50005 45.1094 7.93737 46.3503 8.73947 47.347C9.54157 48.3437 10.6603 49.0364 11.91 49.31V50.31C11.91 53.6182 13.2235 56.791 15.5618 59.1312C17.9001 61.4713 21.0718 62.7874 24.38 62.79H47.65C50.9538 62.7874 54.1215 61.4738 56.4576 59.1376C58.7938 56.8015 60.1074 53.6338 60.11 50.33V49.33C61.3553 49.0544 62.4691 48.3621 63.2674 47.3674C64.0657 46.3727 64.5005 45.1354 64.5 43.86V35.44C64.4919 34.1703 64.0533 32.9408 63.2559 31.9527C62.4585 30.9645 61.3494 30.2761 60.11 30ZM47.65 58.79H24.38C22.1354 58.79 19.9825 57.899 18.3944 56.3127C16.8062 54.7265 15.9127 52.5747 15.91 50.33V28.94C15.9127 26.6954 16.8062 24.5436 18.3944 22.9573C19.9825 21.371 22.1354 20.48 24.38 20.48H47.65C49.8929 20.4827 52.0432 21.3748 53.6292 22.9608C55.2152 24.5468 56.1074 26.6971 56.11 28.94V50.33C56.1074 52.5729 55.2152 54.7232 53.6292 56.3092C52.0432 57.8952 49.8929 58.7874 47.65 58.79ZM33.39 16.29C33.39 15.4705 33.7156 14.6845 34.2951 14.1051C34.8745 13.5256 35.6605 13.2 36.48 13.2C37.2995 13.2 38.0855 13.5256 38.665 14.1051C39.2445 14.6845 39.57 15.4705 39.57 16.29C39.57 16.36 39.57 16.42 39.57 16.48H33.38C33.38 16.42 33.39 16.36 33.39 16.29ZM10.5 43.83V35.44C10.5025 34.9631 10.6352 34.4959 10.8837 34.0889C11.1321 33.6818 11.487 33.3503 11.91 33.13V46.13C11.4885 45.9106 11.1346 45.5806 10.8862 45.1754C10.6379 44.7703 10.5043 44.3052 10.5 43.83ZM61.5 43.83C61.4991 44.3022 61.3691 44.7651 61.1241 45.1687C60.8791 45.5723 60.5284 45.9013 60.11 46.12V33.12C60.5277 33.3396 60.8778 33.6688 61.1226 34.0722C61.3675 34.4756 61.498 34.9381 61.5 35.41V43.83Z"/>
<path d="M36.48 29.79C34.5319 29.79 32.6275 30.3677 31.0076 31.45C29.3878 32.5323 28.1253 34.0707 27.3798 35.8705C26.6343 37.6704 26.4392 39.6509 26.8193 41.5616C27.1993 43.4723 28.1375 45.2274 29.515 46.605C30.8926 47.9825 32.6477 48.9206 34.5584 49.3007C36.4691 49.6808 38.4496 49.4857 40.2494 48.7402C42.0493 47.9947 43.5877 46.7322 44.67 45.1123C45.7523 43.4925 46.33 41.5881 46.33 39.64C46.3274 37.0284 45.2887 34.5246 43.4421 32.6779C41.5954 30.8312 39.0916 29.7926 36.48 29.79ZM36.48 46.49C35.1252 46.49 33.8008 46.0882 32.6744 45.3355C31.5479 44.5829 30.6699 43.513 30.1514 42.2614C29.633 41.0097 29.4973 39.6324 29.7616 38.3036C30.0259 36.9748 30.6783 35.7543 31.6363 34.7963C32.5943 33.8383 33.8149 33.1859 35.1436 32.9216C36.4724 32.6573 37.8497 32.7929 39.1014 33.3114C40.3531 33.8299 41.4229 34.7078 42.1756 35.8343C42.9283 36.9608 43.33 38.2852 43.33 39.64C43.3274 41.4559 42.6048 43.1967 41.3208 44.4807C40.0367 45.7648 38.2959 46.4873 36.48 46.49Z"/>
<path d="M36.48 36.77C35.9128 36.772 35.3589 36.942 34.8882 37.2585C34.4176 37.5751 34.0513 38.024 33.8356 38.5486C33.6199 39.0732 33.5645 39.6499 33.6764 40.206C33.7882 40.7621 34.0624 41.2725 34.4641 41.6729C34.8659 42.0733 35.3773 42.3456 35.9338 42.4555C36.4902 42.5655 37.0668 42.5081 37.5906 42.2905C38.1144 42.073 38.5621 41.7052 38.877 41.2334C39.1919 40.7617 39.36 40.2072 39.36 39.64C39.36 39.2622 39.2854 38.8882 39.1406 38.5394C38.9957 38.1905 38.7834 37.8737 38.5159 37.607C38.2483 37.3404 37.9307 37.1292 37.5814 36.9856C37.232 36.8419 36.8577 36.7687 36.48 36.77ZM37.29 39.31C37.1318 39.31 36.9771 39.2631 36.8455 39.1752C36.714 39.0872 36.6114 38.9623 36.5509 38.8161C36.4903 38.6699 36.4745 38.5091 36.5054 38.3539C36.5362 38.1987 36.6124 38.0562 36.7243 37.9443C36.8362 37.8324 36.9787 37.7562 37.1339 37.7253C37.2891 37.6945 37.45 37.7103 37.5961 37.7709C37.7423 37.8314 37.8673 37.934 37.9552 38.0655C38.0431 38.1971 38.09 38.3517 38.09 38.51C38.09 38.7221 38.0057 38.9256 37.8557 39.0757C37.7057 39.2257 37.5022 39.31 37.29 39.31Z"/>
</symbol>
	</defs>
</svg>
