<svg version="1.1" xmlns="http://www.w3.org/2000/svg" xmlns:xlink="http://www.w3.org/1999/xlink">
	<defs>
		<symbol id="arrow-ball-down-outline" viewBox="0 0 72 72">
<path d="M36 9.86548C30.8348 9.86548 25.7856 11.3977 21.4906 14.2686C17.1956 17.1394 13.8477 21.2198 11.8702 25.9941C9.89264 30.7684 9.37421 36.0222 10.3804 41.0912C11.3867 46.1603 13.8724 50.817 17.5233 54.4728C21.1743 58.1286 25.8265 60.6192 30.892 61.6299C35.9575 62.6406 41.2087 62.1259 45.9818 60.1509C50.755 58.1759 54.8358 54.8293 57.7083 50.5341C60.5808 46.2389 62.116 41.1881 62.12 36.02C62.1174 29.0877 59.3652 22.4397 54.4679 17.536C49.5706 12.6322 42.9285 9.87343 36 9.86548ZM36 58.1323C31.6242 58.1323 27.3468 56.8338 23.7087 54.4009C20.0707 51.9681 17.2355 48.5103 15.5619 44.465C13.8883 40.4197 13.4514 35.9686 14.3065 31.6748C15.1616 27.381 17.2703 23.4375 20.3659 20.343C23.4614 17.2486 27.4047 15.1422 31.6969 14.2905C35.9891 13.4388 40.4373 13.88 44.4788 15.5582C48.5204 17.2364 51.9737 20.0762 54.4018 23.7185C56.83 27.3608 58.124 31.6418 58.12 36.02C58.1094 41.8848 55.7749 47.506 51.6283 51.6511C47.4817 55.7963 41.8615 58.127 36 58.1323Z"/>
<path d="M43.32 31.4975L36 37.6309L28.68 31.4975C28.1721 31.0702 27.5154 30.8624 26.8543 30.9196C26.1933 30.9768 25.582 31.2945 25.155 31.8026C24.728 32.3108 24.5203 32.9679 24.5774 33.6293C24.6346 34.2908 24.9521 34.9024 25.46 35.3296L33.74 42.2735C34.3736 42.8043 35.1736 43.0953 36 43.0953C36.8264 43.0953 37.6264 42.8043 38.26 42.2735L46.54 35.3296C46.7915 35.1181 46.9989 34.859 47.1503 34.5673C47.3017 34.2756 47.3942 33.9568 47.4226 33.6293C47.4509 33.3018 47.4144 32.9719 47.3153 32.6585C47.2163 32.3451 47.0564 32.0543 46.845 31.8026C46.6336 31.551 46.3747 31.3435 46.0831 31.192C45.7915 31.0405 45.473 30.9479 45.1457 30.9196C44.8183 30.8913 44.4886 30.9277 44.1754 31.0269C43.8621 31.126 43.5715 31.2859 43.32 31.4975Z"/>
</symbol>
		<symbol id="arrow-ball-down-solid" viewBox="0 0 72 72">
<path d="M35.9999 9.86548C30.8347 9.86548 25.7855 11.3977 21.4905 14.2686C17.1955 17.1394 13.8476 21.2198 11.8701 25.9941C9.89253 30.7684 9.3741 36.0222 10.3803 41.0912C11.3865 46.1603 13.8723 50.817 17.5232 54.4728C21.1741 58.1286 25.8264 60.6192 30.8919 61.6299C35.9573 62.6406 41.2086 62.1259 45.9817 60.1509C50.7549 58.1759 54.8356 54.8293 57.7082 50.5341C60.5807 46.2389 62.1159 41.1881 62.1199 36.02C62.1172 29.0877 59.3651 22.4397 54.4678 17.536C49.5705 12.6322 42.9284 9.87343 35.9999 9.86548ZM46.5399 35.3296L38.2599 42.2735C37.624 42.8002 36.8254 43.0901 35.9999 43.0939C35.1723 43.0924 34.3718 42.7982 33.7399 42.2635L25.4599 35.3296C25.2084 35.1181 25.001 34.859 24.8496 34.5673C24.6982 34.2756 24.6057 33.9569 24.5773 33.6293C24.549 33.3018 24.5854 32.972 24.6845 32.6585C24.7836 32.3451 24.9435 32.0543 25.1549 31.8027C25.3663 31.551 25.6252 31.3436 25.9168 31.192C26.2084 31.0405 26.5269 30.948 26.8542 30.9196C27.1815 30.8913 27.5112 30.9277 27.8245 31.0269C28.1377 31.126 28.4284 31.2859 28.6799 31.4975L35.9999 37.6409L43.3299 31.4975C43.5796 31.2737 43.8717 31.1025 44.1889 30.9939C44.5061 30.8854 44.8419 30.8418 45.1762 30.8657C45.5106 30.8897 45.8367 30.9806 46.1352 31.1332C46.4338 31.2858 46.6986 31.4969 46.9139 31.754C47.1292 32.0111 47.2907 32.3088 47.3887 32.6296C47.4867 32.9503 47.5192 33.2875 47.4843 33.6211C47.4494 33.9547 47.3478 34.2779 47.1856 34.5714C47.0233 34.8649 46.8037 35.1227 46.5399 35.3296Z"/>
</symbol>
		<symbol id="arrow-ball-left-outline" viewBox="0 0 72 72">
<path d="M36.02 9.88001C30.8502 9.87606 25.7954 11.4046 21.495 14.2723C17.1946 17.14 13.8417 21.218 11.8606 25.9905C9.87947 30.7629 9.35907 36.0154 10.3652 41.0835C11.3714 46.1516 13.8588 50.8076 17.513 54.4626C21.1672 58.1175 25.8239 60.6072 30.894 61.6166C35.9642 62.6261 41.22 62.11 45.9966 60.1337C50.7732 58.1573 54.8561 54.8094 57.7287 50.5136C60.6012 46.2177 62.1345 41.1669 62.1345 36C62.1266 29.0785 59.3733 22.4424 54.4782 17.5462C49.5831 12.65 42.9454 9.89324 36.02 9.88001ZM36.02 58.12C31.6418 58.124 27.3608 56.83 23.7185 54.4018C20.0763 51.9737 17.2364 48.5204 15.5582 44.4788C13.88 40.4373 13.4388 35.9891 14.2905 31.6969C15.1423 27.4047 17.2486 23.4614 20.343 20.3659C23.4375 17.2704 27.3811 15.1616 31.6748 14.3065C35.9686 13.4514 40.4197 13.8883 44.465 15.5619C48.5103 17.2355 51.9681 20.0707 54.4009 23.7087C56.8338 27.3468 58.1323 31.6242 58.1323 36C58.127 41.8615 55.7963 47.4817 51.6511 51.6283C47.506 55.7749 41.8848 58.1094 36.02 58.12Z"/>
<path d="M40.1923 25.15C39.684 24.7247 39.0275 24.5184 38.3672 24.5765C37.7068 24.6347 37.0965 24.9524 36.6704 25.46L29.7265 33.74C29.1956 34.3736 28.9047 35.1736 28.9047 36C28.9047 36.8264 29.1956 37.6264 29.7265 38.26L36.6704 46.54C36.8819 46.7915 37.141 46.9989 37.4327 47.1503C37.7244 47.3017 38.0431 47.3942 38.3706 47.4225C38.6982 47.4509 39.028 47.4144 39.3415 47.3153C39.6549 47.2163 39.9457 47.0564 40.1973 46.845C40.449 46.6336 40.6564 46.3747 40.808 46.0831C40.9595 45.7915 41.052 45.473 41.0804 45.1457C41.1087 44.8183 41.0723 44.4886 40.9731 44.1754C40.874 43.8621 40.714 43.5715 40.5025 43.32L34.3591 36L40.5025 28.68C40.9286 28.1703 41.1353 27.5126 41.0771 26.851C41.019 26.1893 40.7008 25.5776 40.1923 25.15Z"/>
</symbol>
		<symbol id="arrow-ball-left-solid" viewBox="0 0 72 72">
<path d="M36.02 9.88001C30.8503 9.87606 25.7954 11.4046 21.495 14.2723C17.1946 17.14 13.8417 21.218 11.8606 25.9905C9.87948 30.7629 9.35908 36.0154 10.3652 41.0835C11.3714 46.1516 13.8589 50.8076 17.513 54.4626C21.1672 58.1175 25.8239 60.6072 30.8941 61.6166C35.9642 62.6261 41.22 62.11 45.9966 60.1337C50.7733 58.1573 54.8561 54.8094 57.7287 50.5136C60.6013 46.2177 62.1345 41.1669 62.1345 36C62.1266 29.0785 59.3733 22.4424 54.4782 17.5462C49.5831 12.65 42.9454 9.89324 36.02 9.88001ZM40.5225 43.33C40.7345 43.581 40.8947 43.8714 40.9939 44.1846C41.0931 44.4977 41.1293 44.8273 41.1005 45.1545C41.0716 45.4817 40.9783 45.8 40.8259 46.091C40.6735 46.3819 40.465 46.6399 40.2123 46.85C39.7648 47.2275 39.1971 47.4332 38.6115 47.43C38.2455 47.4318 37.8836 47.353 37.5516 47.1991C37.2196 47.0453 36.9255 46.8203 36.6904 46.54L29.7465 38.26C29.2175 37.6256 28.9278 36.8259 28.9278 36C28.9278 35.1742 29.2175 34.3744 29.7465 33.74L36.6904 25.46C36.8973 25.1962 37.1551 24.9766 37.4486 24.8143C37.7422 24.6521 38.0653 24.5505 38.3989 24.5156C38.7325 24.4807 39.0697 24.5132 39.3904 24.6112C39.7112 24.7092 40.009 24.8707 40.266 25.086C40.5231 25.3013 40.7342 25.5661 40.8868 25.8647C41.0394 26.1632 41.1303 26.4893 41.1543 26.8237C41.1782 27.158 41.1346 27.4938 41.0261 27.811C40.9175 28.1282 40.7463 28.4203 40.5225 28.67L34.3591 36L40.5225 43.33Z"/>
</symbol>
		<symbol id="arrow-ball-right-outline" viewBox="0 0 72 72">
<path d="M36.02 9.88001C30.8503 9.87606 25.7954 11.4046 21.495 14.2723C17.1946 17.14 13.8417 21.218 11.8606 25.9905C9.87948 30.7629 9.35908 36.0154 10.3652 41.0835C11.3714 46.1516 13.8589 50.8076 17.513 54.4626C21.1672 58.1175 25.8239 60.6072 30.8941 61.6166C35.9642 62.6261 41.22 62.11 45.9966 60.1337C50.7733 58.1573 54.8561 54.8094 57.7287 50.5136C60.6013 46.2177 62.1345 41.1669 62.1345 36C62.1266 29.0785 59.3733 22.4424 54.4782 17.5462C49.5831 12.65 42.9454 9.89324 36.02 9.88001ZM36.02 58.12C31.6418 58.124 27.3608 56.83 23.7185 54.4018C20.0763 51.9737 17.2364 48.5204 15.5582 44.4788C13.88 40.4373 13.4388 35.9891 14.2905 31.6969C15.1423 27.4047 17.2486 23.4614 20.343 20.3659C23.4375 17.2704 27.3811 15.1616 31.6749 14.3065C35.9686 13.4514 40.4197 13.8883 44.465 15.5619C48.5104 17.2355 51.9681 20.0707 54.4009 23.7087C56.8338 27.3468 58.1323 31.6242 58.1323 36C58.127 41.8615 55.7963 47.4817 51.6511 51.6283C47.506 55.7749 41.8848 58.1094 36.02 58.12Z"/>
<path d="M35.3296 25.46C35.1181 25.2085 34.8591 25.0011 34.5673 24.8497C34.2756 24.6983 33.9569 24.6058 33.6294 24.5774C33.3019 24.5491 32.972 24.5855 32.6585 24.6846C32.3451 24.7837 32.0543 24.9436 31.8027 25.155C31.5511 25.3664 31.3436 25.6253 31.1921 25.9169C31.0405 26.2084 30.948 26.527 30.9196 26.8543C30.8913 27.1816 30.9277 27.5113 31.0269 27.8246C31.126 28.1378 31.286 28.4285 31.4975 28.68L37.6309 36L31.4975 43.32C31.0703 43.8279 30.8624 44.4846 30.9196 45.1456C30.9769 45.8067 31.2945 46.418 31.8027 46.845C32.3108 47.272 32.9679 47.4797 33.6294 47.4225C34.2908 47.3653 34.9024 47.0479 35.3296 46.54L42.2635 38.26C42.7944 37.6264 43.0853 36.8264 43.0853 36C43.0853 35.1736 42.7944 34.3735 42.2635 33.74L35.3296 25.46Z"/>
</symbol>
		<symbol id="arrow-ball-right-solid" viewBox="0 0 72 72">
<path d="M36.02 9.88001C30.8503 9.87606 25.7954 11.4046 21.495 14.2723C17.1946 17.14 13.8417 21.218 11.8606 25.9905C9.87948 30.7629 9.35908 36.0154 10.3652 41.0835C11.3714 46.1516 13.8589 50.8076 17.513 54.4626C21.1672 58.1175 25.8239 60.6072 30.8941 61.6166C35.9642 62.6261 41.22 62.11 45.9966 60.1337C50.7733 58.1573 54.8561 54.8094 57.7287 50.5136C60.6013 46.2177 62.1345 41.1669 62.1345 36C62.1266 29.0785 59.3733 22.4424 54.4782 17.5462C49.5831 12.65 42.9454 9.89324 36.02 9.88001ZM42.2935 38.26L35.3497 46.54C35.1136 46.8192 34.8194 47.0435 34.4876 47.1973C34.1557 47.351 33.7943 47.4304 33.4286 47.43C32.8429 47.4332 32.2753 47.2275 31.8277 46.85C31.5751 46.6399 31.3666 46.3819 31.2142 46.091C31.0617 45.8 30.9684 45.4817 30.9396 45.1545C30.9108 44.8273 30.947 44.4977 31.0462 44.1846C31.1454 43.8714 31.3055 43.581 31.5175 43.33L37.6309 36L31.4975 28.67C31.0971 28.1593 30.911 27.5131 30.9786 26.8678C31.0461 26.2225 31.3621 25.6287 31.8596 25.2119C32.3572 24.7952 32.9973 24.5881 33.6448 24.6344C34.2924 24.6806 34.8965 24.9767 35.3296 25.46L42.2735 33.74C42.8025 34.3744 43.0923 35.1742 43.0923 36C43.0923 36.8259 42.8025 37.6256 42.2735 38.26H42.2935Z"/>
</symbol>
		<symbol id="arrow-ball-up-outline" viewBox="0 0 72 72">
<path d="M36 9.86548C30.8348 9.86548 25.7856 11.3977 21.4906 14.2686C17.1956 17.1394 13.8477 21.2198 11.8702 25.9941C9.89263 30.7684 9.3742 36.0222 10.3804 41.0912C11.3867 46.1603 13.8724 50.817 17.5233 54.4728C21.1743 58.1286 25.8265 60.6192 30.892 61.6299C35.9575 62.6406 41.2087 62.1259 45.9818 60.1509C50.755 58.1759 54.8358 54.8293 57.7083 50.5341C60.5808 46.2389 62.116 41.1881 62.12 36.02C62.1173 29.0877 59.3652 22.4397 54.4679 17.536C49.5706 12.6322 42.9285 9.87343 36 9.86548ZM36 58.1323C31.6242 58.1323 27.3468 56.8338 23.7087 54.4009C20.0707 51.9681 17.2355 48.5103 15.5619 44.465C13.8883 40.4197 13.4514 35.9686 14.3065 31.6748C15.1616 27.381 17.2703 23.4375 20.3659 20.343C23.4614 17.2486 27.4047 15.1422 31.6969 14.2905C35.989 13.4388 40.4373 13.88 44.4788 15.5582C48.5204 17.2364 51.9737 20.0762 54.4018 23.7185C56.83 27.3608 58.1239 31.6418 58.12 36.02C58.1094 41.8848 55.7749 47.506 51.6283 51.6511C47.4817 55.7963 41.8615 58.127 36 58.1323Z"/>
<path d="M38.25 29.7265C37.6172 29.1982 36.8192 28.9089 35.995 28.9089C35.1709 28.9089 34.3728 29.1982 33.74 29.7265L25.46 36.6703C25.2085 36.8819 25.0011 37.1409 24.8497 37.4327C24.6983 37.7244 24.6058 38.0431 24.5774 38.3706C24.5203 39.032 24.728 39.6891 25.155 40.1973C25.582 40.7055 26.1933 41.0231 26.8543 41.0803C27.5154 41.1376 28.1721 40.9297 28.68 40.5025L36 34.3591L43.32 40.5025C43.769 40.8853 44.3401 41.0947 44.93 41.0928C45.4445 41.0946 45.947 40.9376 46.3689 40.6432C46.7909 40.3487 47.1118 39.9312 47.2879 39.4475C47.464 38.9639 47.4867 38.4376 47.3528 37.9406C47.219 37.4436 46.9351 37 46.54 36.6703L38.25 29.7265Z"/>
</symbol>
		<symbol id="arrow-ball-up-solid" viewBox="0 0 72 72">
<path d="M35.9999 9.86548C30.8347 9.86548 25.7855 11.3977 21.4905 14.2686C17.1955 17.1394 13.8476 21.2198 11.8701 25.9941C9.89253 30.7684 9.3741 36.0222 10.3803 41.0912C11.3865 46.1603 13.8723 50.817 17.5232 54.4728C21.1741 58.1286 25.8264 60.6192 30.8919 61.6299C35.9573 62.6406 41.2086 62.1259 45.9817 60.1509C50.7549 58.1759 54.8356 54.8293 57.7082 50.5341C60.5807 46.2389 62.1159 41.1881 62.1199 36.02C62.1172 29.0877 59.3651 22.4397 54.4678 17.536C49.5705 12.6322 42.9284 9.87343 35.9999 9.86548ZM46.8499 40.1923C46.6398 40.4449 46.3818 40.6534 46.0908 40.8059C45.7998 40.9583 45.4816 41.0516 45.1544 41.0804C44.8272 41.1093 44.4976 41.073 44.1844 40.9738C43.8713 40.8747 43.5809 40.7145 43.3299 40.5025L35.9999 34.3591L28.6699 40.5025C28.2258 40.887 27.6571 41.0968 27.0699 41.0928C26.5554 41.0947 26.0529 40.9376 25.631 40.6432C25.209 40.3488 24.8881 39.9312 24.712 39.4476C24.5359 38.9639 24.5132 38.4377 24.6471 37.9407C24.7809 37.4436 25.0648 37 25.4599 36.6704L33.7399 29.7265C34.3743 29.1975 35.174 28.9078 35.9999 28.9078C36.8258 28.9078 37.6255 29.1975 38.2599 29.7265L46.5399 36.6704C47.0452 37.098 47.3612 37.7079 47.4193 38.3675C47.4773 39.0271 47.2727 39.6829 46.8499 40.1923Z"/>
</symbol>
		<symbol id="arrow-down-outline" viewBox="0 0 72 72">
<path d="M36 47.39C34.8211 47.3886 33.6807 46.9706 32.78 46.21L12.28 29C11.7967 28.5671 11.5006 27.9633 11.4543 27.3161C11.4081 26.669 11.6152 26.0292 12.0319 25.5319C12.4487 25.0346 13.0425 24.7189 13.6878 24.6513C14.333 24.5838 14.9793 24.7698 15.49 25.17L36 42.38L56.51 25.2C56.7529 24.9485 57.0458 24.7508 57.3699 24.6195C57.694 24.4883 58.042 24.4265 58.3914 24.4382C58.7409 24.4498 59.084 24.5346 59.3986 24.6871C59.7133 24.8396 59.9924 25.0564 60.218 25.3235C60.4436 25.5906 60.6107 25.902 60.7085 26.2377C60.8063 26.5734 60.8325 26.9259 60.7856 27.2724C60.7387 27.6188 60.6196 27.9516 60.436 28.2492C60.2525 28.5468 60.0086 28.8025 59.72 29L39.22 46.21C38.3193 46.9706 37.1789 47.3886 36 47.39Z"/>
</symbol>
		<symbol id="arrow-left-outline" viewBox="0 0 72 72">
<path d="M43.88 60.61C43.5208 60.6073 43.1664 60.5262 42.8417 60.3725C42.517 60.2188 42.2298 59.9961 42 59.72L24.79 39.22C24.0312 38.3186 23.6151 37.1782 23.6151 36C23.6151 34.8217 24.0312 33.6814 24.79 32.78L42 12.28C42.4329 11.7967 43.0367 11.5006 43.6839 11.4543C44.331 11.408 44.9708 11.6151 45.4681 12.0319C45.9654 12.4487 46.2811 13.0424 46.3486 13.6877C46.4162 14.333 46.2302 14.9793 45.83 15.49L28.62 36L45.8 56.51C46.1083 56.8737 46.3057 57.3183 46.3687 57.7909C46.4318 58.2635 46.3578 58.7443 46.1556 59.1761C45.9534 59.6078 45.6315 59.9725 45.2281 60.2267C44.8247 60.4809 44.3568 60.6139 43.88 60.61Z"/>
</symbol>
		<symbol id="arrow-right-outline" viewBox="0 0 72 72">
<path d="M27.12 60.61C26.6432 60.614 26.1753 60.4809 25.7719 60.2268C25.3686 59.9726 25.0466 59.6079 24.8444 59.1761C24.6422 58.7443 24.5682 58.2635 24.6313 57.7909C24.6943 57.3183 24.8917 56.8737 25.2 56.51L42.38 36L25.2 15.49C24.8503 14.979 24.7027 14.3563 24.7859 13.7427C24.869 13.129 25.1769 12.5681 25.6499 12.1684C26.123 11.7688 26.7275 11.559 27.3464 11.5796C27.9654 11.6002 28.5546 11.8498 29 12.28L46.18 32.78C46.9388 33.6814 47.3549 34.8218 47.3549 36C47.3549 37.1783 46.9388 38.3186 46.18 39.22L29 59.72C28.7702 59.9962 28.483 60.2189 28.1583 60.3726C27.8336 60.5263 27.4792 60.6073 27.12 60.61Z"/>
</symbol>
		<symbol id="arrow-up-outline" viewBox="0 0 72 72">
<path d="M58.11 47.38C57.5253 47.3798 56.9591 47.1745 56.51 46.8L36 29.62L15.49 46.8C14.979 47.1497 14.3563 47.2973 13.7427 47.2142C13.129 47.131 12.5681 46.8231 12.1684 46.3501C11.7688 45.877 11.559 45.2725 11.5796 44.6536C11.6002 44.0347 11.8498 43.4454 12.28 43L32.78 25.82C33.6814 25.0612 34.8218 24.6451 36 24.6451C37.1783 24.6451 38.3186 25.0612 39.22 25.82L59.72 43C60.1113 43.3304 60.3916 43.773 60.5231 44.268C60.6547 44.7629 60.631 45.2863 60.4554 45.7674C60.2798 46.2484 59.9606 46.6639 59.5412 46.9577C59.1217 47.2515 58.6221 47.4094 58.11 47.41V47.38Z"/>
</symbol>
		<symbol id="blip-ideas" viewBox="0 0 72 72">
<path d="M62.5 33H59.79C59.2596 33 58.7509 32.7893 58.3758 32.4142C58.0008 32.0391 57.79 31.5304 57.79 31C57.79 30.4696 58.0008 29.9609 58.3758 29.5858C58.7509 29.2107 59.2596 29 59.79 29H62.5C63.0305 29 63.5392 29.2107 63.9143 29.5858C64.2893 29.9609 64.5 30.4696 64.5 31C64.5 31.5304 64.2893 32.0391 63.9143 32.4142C63.5392 32.7893 63.0305 33 62.5 33Z"/>
<path d="M57.8601 24.77C57.4279 24.771 57.0071 24.6321 56.6605 24.3739C56.3139 24.1158 56.0603 23.7523 55.9376 23.338C55.8148 22.9236 55.8296 22.4807 55.9797 22.0754C56.1298 21.6702 56.4071 21.3245 56.7701 21.09L59.0001 19.61C59.2227 19.4636 59.4719 19.3624 59.7336 19.3123C59.9953 19.2622 60.2643 19.2641 60.5252 19.318C60.7861 19.3719 61.0339 19.4766 61.2543 19.6262C61.4748 19.7758 61.6636 19.9674 61.8101 20.19C61.9565 20.4126 62.0576 20.6618 62.1077 20.9235C62.1578 21.1852 62.1559 21.4542 62.102 21.7151C62.0482 21.976 61.9434 22.2238 61.7938 22.4443C61.6442 22.6647 61.4527 22.8536 61.2301 23L59.0001 24.44C58.6622 24.6628 58.2647 24.7779 57.8601 24.77Z"/>
<path d="M59.72 42.72C59.366 42.7103 59.0209 42.6067 58.72 42.42L56.36 41C55.9336 40.7104 55.6354 40.2673 55.5278 39.7633C55.4201 39.2592 55.5112 38.733 55.7821 38.2945C56.0529 37.8559 56.4826 37.5389 56.9816 37.4095C57.4805 37.2801 58.0101 37.3483 58.46 37.6L60.77 39C61.1394 39.2289 61.4242 39.572 61.5813 39.9772C61.7383 40.3825 61.7591 40.8279 61.6404 41.246C61.5218 41.6641 61.2702 42.0322 60.9236 42.2945C60.5771 42.5569 60.1546 42.6992 59.72 42.7V42.72Z"/>
<path d="M12.21 33H9.5C8.96957 33 8.46086 32.7893 8.08579 32.4142C7.71071 32.0391 7.5 31.5304 7.5 31C7.5 30.4696 7.71071 29.9609 8.08579 29.5858C8.46086 29.2107 8.96957 29 9.5 29H12.21C12.7404 29 13.2491 29.2107 13.6242 29.5858C13.9993 29.9609 14.21 30.4696 14.21 31C14.21 31.5304 13.9993 32.0391 13.6242 32.4142C13.2491 32.7893 12.7404 33 12.21 33Z"/>
<path d="M14.1401 24.77C13.749 24.7699 13.3666 24.6552 13.0401 24.44L10.7701 23C10.5475 22.8536 10.3559 22.6647 10.2063 22.4443C10.0567 22.2238 9.95194 21.976 9.89809 21.7151C9.84423 21.4542 9.84229 21.1852 9.89239 20.9235C9.94248 20.6618 10.0436 20.4126 10.1901 20.19C10.3365 19.9674 10.5253 19.7758 10.7458 19.6262C10.9662 19.4766 11.214 19.3719 11.4749 19.318C12.0019 19.2092 12.5505 19.3143 13.0001 19.61L15.2601 21.09C15.6231 21.3245 15.9003 21.6702 16.0504 22.0754C16.2005 22.4807 16.2153 22.9236 16.0925 23.338C15.9698 23.7523 15.7162 24.1158 15.3696 24.3739C15.0231 24.6321 14.6022 24.771 14.1701 24.77H14.1401Z"/>
<path d="M12.2801 42.72C11.8497 42.7087 11.4344 42.5588 11.096 42.2927C10.7576 42.0265 10.5141 41.6582 10.4018 41.2425C10.2895 40.8269 10.3143 40.3861 10.4725 39.9857C10.6307 39.5853 10.9139 39.2466 11.2801 39.02L13.5901 37.6C13.8134 37.4484 14.0651 37.3435 14.33 37.2917C14.5949 37.2399 14.8676 37.2423 15.1315 37.2986C15.3955 37.355 15.6454 37.4643 15.866 37.6198C16.0866 37.7753 16.2735 37.9739 16.4153 38.2035C16.5572 38.4332 16.6511 38.6892 16.6914 38.9561C16.7316 39.223 16.7175 39.4953 16.6497 39.7566C16.5819 40.0179 16.462 40.2628 16.297 40.4765C16.1321 40.6902 15.9257 40.8683 15.6901 41L13.3801 42.42C13.0503 42.6246 12.6681 42.7289 12.2801 42.72Z"/>
<path d="M35.44 27C34.4574 27.1093 33.5306 27.5127 32.781 28.1575C32.0314 28.8022 31.4939 29.6582 31.2389 30.6135C30.9839 31.5688 31.0232 32.5788 31.3517 33.5113C31.6802 34.4439 32.2826 35.2555 33.08 35.84C33.4217 36.0952 33.7002 36.4253 33.8944 36.8049C34.0886 37.1846 34.1931 37.6037 34.2 38.03H37.8C37.7985 37.6106 37.8954 37.1967 38.0829 36.8215C38.2705 36.4463 38.5435 36.1204 38.88 35.87C39.4769 35.4406 39.9696 34.8825 40.3219 34.2371C40.6742 33.5916 40.8771 32.8753 40.9155 32.141C40.9539 31.4067 40.8268 30.6731 40.5438 29.9945C40.2607 29.3158 39.8288 28.7094 39.28 28.22C38.7644 27.7539 38.1548 27.4038 37.4924 27.1934C36.83 26.9829 36.1301 26.917 35.44 27Z"/>
<path d="M54 27.2C53.4971 24.4831 52.1727 21.986 50.2056 20.0457C48.2385 18.1055 45.7234 16.8155 43 16.35C40.5402 15.8593 38.0382 15.6115 35.53 15.61C32.18 15.61 27.45 16.06 23.98 18.21C19.58 20.94 17.27 26.21 17.48 32.92C17.59 36.77 18.53 42.2 22.29 46.12C25.13 49.12 30.29 50.63 34.62 50.99V53.42C34.62 54.2156 34.936 54.9787 35.4986 55.5413C36.0612 56.1039 36.8243 56.42 37.62 56.42C37.6963 56.4295 37.7736 56.4295 37.85 56.42C38.4626 56.3723 39.044 56.1306 39.51 55.73C41.18 54.3 43.36 52.41 45.51 50.42L46.44 49.57C48.2035 48.0658 49.7964 46.3723 51.19 44.52C54.22 40.11 55.28 33.65 54 27.2ZM40.06 37.53C39.9757 37.5941 39.9081 37.6775 39.8628 37.7732C39.8176 37.869 39.796 37.9742 39.8 38.08V39.08C39.801 39.3303 39.7081 39.5719 39.5396 39.7571C39.3711 39.9422 39.1393 40.0575 38.89 40.08V41.4C38.89 41.6449 38.7934 41.88 38.6211 42.0541C38.4489 42.2282 38.2149 42.3274 37.97 42.33H34C33.7533 42.33 33.5168 42.232 33.3423 42.0576C33.1679 41.8832 33.07 41.6466 33.07 41.4V40.05C32.8206 40.0275 32.5888 39.9122 32.4203 39.7271C32.2519 39.5419 32.1589 39.3003 32.16 39.05V38.05C32.1603 37.9296 32.1325 37.8108 32.0787 37.7031C32.0248 37.5955 31.9465 37.5019 31.85 37.43C30.6719 36.5684 29.7964 35.3564 29.3486 33.9673C28.9009 32.5782 28.9038 31.083 29.357 29.6957C29.8102 28.3083 30.6904 27.0997 31.8719 26.2428C33.0533 25.3858 34.4754 24.9244 35.935 24.9244C37.3945 24.9244 38.8166 25.3858 39.998 26.2428C41.1795 27.0997 42.0597 28.3083 42.5129 29.6957C42.9661 31.083 42.969 32.5782 42.5213 33.9673C42.0735 35.3564 41.198 36.5684 40.02 37.43L40.06 37.53Z"/>
</symbol>
		<symbol id="checkball-outline" viewBox="0 0 72 72">
<path d="M36 9.88C30.834 9.88 25.7839 11.4119 21.4885 14.282C17.1931 17.1521 13.8452 21.2315 11.8683 26.0043C9.89132 30.7771 9.37406 36.029 10.3819 41.0958C11.3898 46.1625 13.8774 50.8167 17.5304 54.4696C21.1833 58.1226 25.8375 60.6103 30.9043 61.6181C35.971 62.626 41.2229 62.1087 45.9957 60.1317C50.7685 58.1548 54.8479 54.8069 57.718 50.5115C60.5881 46.2161 62.12 41.1661 62.12 36C62.1121 29.075 59.3576 22.4359 54.4609 17.5391C49.5641 12.6424 42.925 9.88794 36 9.88ZM36 58.12C31.6251 58.12 27.3484 56.8227 23.7108 54.3921C20.0732 51.9615 17.238 48.5069 15.5638 44.465C13.8896 40.4231 13.4515 35.9755 14.305 31.6846C15.1586 27.3937 17.2653 23.4523 20.3588 20.3588C23.4524 17.2653 27.3938 15.1585 31.6846 14.305C35.9755 13.4515 40.4231 13.8896 44.465 15.5638C48.5069 17.238 51.9615 20.0732 54.3921 23.7108C56.8227 27.3484 58.12 31.6251 58.12 36C58.1147 41.865 55.7825 47.4882 51.6354 51.6354C47.4882 55.7825 41.865 58.1147 36 58.12Z"/>
<path d="M46.23 28.49L31.83 42L25.59 36.22C25.1033 35.7691 24.4575 35.53 23.7945 35.5553C23.1316 35.5807 22.5059 35.8683 22.055 36.355C21.6041 36.8416 21.3651 37.4875 21.3904 38.1504C21.4157 38.8134 21.7033 39.4391 22.19 39.89L28.7 45.89C29.5569 46.6799 30.6796 47.1184 31.845 47.1184C33.0104 47.1184 34.1331 46.6799 34.99 45.89L49.65 32.13C50.0976 31.6684 50.3502 31.0522 50.3552 30.4093C50.3603 29.7664 50.1175 29.1462 49.6773 28.6777C49.2371 28.2091 48.6332 27.9282 47.9912 27.8932C47.3493 27.8583 46.7185 28.072 46.23 28.49Z"/>
</symbol>
		<symbol id="email-outline" viewBox="0 0 72 72">
<path d="M57 15.51H15C13.5616 15.5127 12.183 16.0859 11.1668 17.104C10.1507 18.122 9.57995 19.5016 9.57996 20.94V51.06C9.57995 52.4984 10.1507 53.878 11.1668 54.8961C12.183 55.9141 13.5616 56.4874 15 56.49H57C58.4393 56.4874 59.8189 55.9144 60.8366 54.8967C61.8544 53.8789 62.4273 52.4993 62.43 51.06V20.94C62.4273 19.5007 61.8544 18.1211 60.8366 17.1033C59.8189 16.0856 58.4393 15.5127 57 15.51ZM51.81 20.51L37.73 33C37.1397 33.4939 36.3946 33.7646 35.625 33.7646C34.8553 33.7646 34.1102 33.4939 33.52 33L19.47 20.51H51.81ZM57 51.51H15C14.9439 51.51 14.8885 51.4988 14.8369 51.4771C14.7853 51.4554 14.7385 51.4235 14.6994 51.3835C14.6602 51.3434 14.6295 51.2959 14.609 51.2438C14.5885 51.1917 14.5786 51.136 14.58 51.08V22.88L30.19 36.76C31.6963 38.0686 33.6246 38.7891 35.62 38.7891C37.6153 38.7891 39.5436 38.0686 41.05 36.76L57.39 22.2V51.06C57.3904 51.1675 57.3507 51.2712 57.2785 51.3508C57.2063 51.4303 57.1069 51.48 57 51.49V51.51Z"/>
</symbol>
		<symbol id="forum" viewBox="0 0 72 72">
<path d="M44.15 27.52C43.6858 25.0205 42.4621 22.7249 40.6457 20.9461C38.8294 19.1673 36.5087 17.9919 34 17.58C31.6432 17.1038 29.2444 16.8659 26.84 16.87C23.66 16.87 19.19 17.29 15.97 19.28C11.97 21.78 9.80997 26.63 9.96997 32.94C10.08 36.57 10.97 41.67 14.46 45.32C17.27 48.25 22.66 49.7 26.84 49.88V53.14C26.84 53.6705 27.0507 54.1792 27.4258 54.5543C27.8008 54.9293 28.3095 55.14 28.84 55.14H29.02C29.4284 55.1041 29.8159 54.9435 30.13 54.68C31.75 53.28 33.89 51.43 35.98 49.48L36.9 48.64C38.5814 47.2041 40.1034 45.5915 41.44 43.83C44.37 39.71 45.36 33.62 44.15 27.52ZM29.1 38H18.38C18.0458 38 17.7253 37.8673 17.489 37.631C17.2527 37.3947 17.12 37.0742 17.12 36.74C17.12 36.4059 17.2527 36.0854 17.489 35.8491C17.7253 35.6128 18.0458 35.48 18.38 35.48H29.1C29.4341 35.48 29.7546 35.6128 29.9909 35.8491C30.2272 36.0854 30.36 36.4059 30.36 36.74C30.36 37.0742 30.2272 37.3947 29.9909 37.631C29.7546 37.8673 29.4341 38 29.1 38ZM35.4 32.5H18.4C18.0839 32.4719 17.7898 32.3265 17.5756 32.0923C17.3613 31.8582 17.2425 31.5524 17.2425 31.235C17.2425 30.9177 17.3613 30.6119 17.5756 30.3777C17.7898 30.1436 18.0839 29.9982 18.4 29.97H35.4C35.7161 29.9982 36.0102 30.1436 36.2244 30.3777C36.4386 30.6119 36.5574 30.9177 36.5574 31.235C36.5574 31.5524 36.4386 31.8582 36.2244 32.0923C36.0102 32.3265 35.7161 32.4719 35.4 32.5Z"/>
<path opacity="0.3" d="M61.4599 27.52C60.9982 25.026 59.7805 22.7344 57.9719 20.9562C56.1633 19.178 53.8514 17.9993 51.3499 17.58C48.9932 17.1032 46.5944 16.8654 44.1899 16.87C42.6841 16.8664 41.1801 16.9733 39.6899 17.19C40.5199 17.29 41.3299 17.42 42.0899 17.58C44.5914 17.9993 46.9033 19.178 48.7119 20.9562C50.5205 22.7344 51.7382 25.026 52.1999 27.52C53.4099 33.62 52.4199 39.71 49.5499 43.81C48.2103 45.5719 46.6848 47.1846 44.9999 48.62L44.0799 49.46L43.6699 49.84H44.2199V53.1C44.2199 53.6304 44.4307 54.1391 44.8057 54.5142C45.1808 54.8892 45.6895 55.1 46.2199 55.1H46.3999C46.8083 55.064 47.1958 54.9034 47.5099 54.64C49.1399 53.24 51.2699 51.39 53.3599 49.44L54.2799 48.6C55.9613 47.164 57.4834 45.5514 58.8199 43.79C61.6799 39.71 62.6699 33.62 61.4599 27.52Z"/>
<path opacity="0.5" d="M52.2 27.5201C51.7383 25.0261 50.5205 22.7345 48.7119 20.9563C46.9033 19.1781 44.5914 17.9994 42.09 17.5801C39.7333 17.1033 37.3345 16.8655 34.93 16.8701C33.6166 16.8693 32.3043 16.9461 31 17.1001C32.0274 17.2084 33.0487 17.3686 34.06 17.5801C36.5614 17.9994 38.8733 19.1781 40.6819 20.9563C42.4905 22.7345 43.7083 25.0261 44.17 27.5201C45.38 33.6201 44.39 39.7101 41.52 43.8101C40.1897 45.5705 38.6744 47.183 37 48.6201L36.08 49.4601L35.01 50.4601V53.1501C35.01 53.6805 35.2207 54.1892 35.5958 54.5643C35.9709 54.9393 36.4796 55.1501 37.01 55.1501H37.19C37.5984 55.1141 37.9859 54.9535 38.3 54.6901C39.93 53.2901 42.06 51.4401 44.15 49.4901L45.07 48.6501C46.7514 47.2141 48.2735 45.6015 49.61 43.8401C52.42 39.7101 53.41 33.6201 52.2 27.5201Z"/>
</symbol>
		<symbol id="search" viewBox="0 0 72 72">
<path d="M60.64 57.79L51.25 48.4C55.149 43.9379 57.1895 38.1511 56.9515 32.2304C56.7135 26.3096 54.2151 20.7052 49.9705 16.5706C45.7259 12.4359 40.0579 10.0854 34.1329 10.0029C28.208 9.92028 22.4767 12.1118 18.1185 16.1266C13.7603 20.1414 11.1067 25.6739 10.7038 31.5857C10.3008 37.4976 12.1792 43.339 15.9523 47.908C19.7255 52.4769 25.1064 55.4259 30.9878 56.148C36.8692 56.8701 42.8036 55.3105 47.57 51.79L57.1 61.32C57.3318 61.5538 57.6074 61.7395 57.9112 61.8665C58.2149 61.9935 58.5408 62.0592 58.87 62.06C59.1979 62.0601 59.5225 61.9947 59.8247 61.8677C60.127 61.7406 60.4008 61.5544 60.63 61.32C61.0985 60.8527 61.3626 60.2187 61.3645 59.557C61.3663 58.8953 61.1058 58.2599 60.64 57.79ZM15.64 33.13C15.64 29.5319 16.7071 26.0146 18.7063 23.0231C20.7054 20.0315 23.5469 17.7001 26.8713 16.3236C30.1957 14.9472 33.8536 14.5875 37.3824 15.2902C40.9112 15.9929 44.1523 17.7263 46.6958 20.2712C49.2393 22.8161 50.971 26.0582 51.6717 29.5874C52.3724 33.1166 52.0108 36.7743 50.6325 40.0979C49.2542 43.4215 46.9212 46.2617 43.9285 48.2593C40.9359 50.2568 37.4181 51.3219 33.82 51.32C28.9981 51.312 24.3761 49.393 20.9665 45.9835C17.5569 42.5739 15.6379 37.9518 15.63 33.13H15.64Z"/>
</symbol>
		<symbol id="tutorials" viewBox="0 0 72 72">
<path d="M58.7901 24.8599C57.3701 17.6899 52.2901 12.6899 44.8601 11.1299C41.7489 10.505 38.5834 10.1901 35.4101 10.1899C31.1601 10.1899 25.1801 10.7699 20.7901 13.4799C15.2201 16.9299 12.2901 23.5399 12.5501 32.0999C12.7001 36.9799 13.8801 43.8399 18.6501 48.8099C22.2401 52.5499 28.8201 54.5199 34.2601 54.9699V58.0499C34.2601 59.0437 34.6535 59.9971 35.3543 60.7016C36.0551 61.4062 37.0064 61.8047 38.0001 61.8099C38.0965 61.8193 38.1937 61.8193 38.2901 61.8099C39.0641 61.7475 39.7987 61.4431 40.3901 60.9399C42.5401 59.0999 45.3001 56.6999 48.0001 54.1899L49.1701 53.1099C51.3949 51.2065 53.4067 49.0673 55.1701 46.7299C59.0601 41.1999 60.4101 32.9999 58.7901 24.8599ZM41.9301 35.0499L36.1901 41.8899C36.0273 42.0876 35.8226 42.2466 35.5909 42.3555C35.3592 42.4645 35.1062 42.5206 34.8501 42.5199C34.6416 42.5224 34.4346 42.4851 34.2401 42.4099C33.9004 42.2891 33.6069 42.0651 33.4007 41.7692C33.1945 41.4734 33.0859 41.1205 33.0901 40.7599V27.0799C33.1022 26.725 33.2214 26.3821 33.4319 26.0961C33.6425 25.8102 33.9347 25.5946 34.2701 25.4778C34.6054 25.3609 34.9683 25.3483 35.311 25.4415C35.6536 25.5347 35.9601 25.7294 36.1901 25.9999L41.9301 32.8399C42.1791 33.1544 42.3146 33.5438 42.3146 33.9449C42.3146 34.3461 42.1791 34.7355 41.9301 35.0499Z"/>
</symbol>
		<symbol id="txt-file" viewBox="0 0 72 72">
<path d="M57.64 25.19C57.6446 25.1468 57.6446 25.1032 57.64 25.06C57.612 24.8962 57.5685 24.7355 57.51 24.58C57.4423 24.4375 57.3584 24.3033 57.26 24.18C57.26 24.18 57.26 24.18 57.26 24.13L46.75 11.84C46.6292 11.6993 46.4875 11.5779 46.33 11.48H46.27C46.129 11.3996 45.9776 11.3391 45.82 11.3C45.7869 11.2942 45.7531 11.2942 45.72 11.3C45.5734 11.2597 45.422 11.2395 45.27 11.24H20C18.5121 11.24 17.0852 11.831 16.0331 12.8831C14.9811 13.9352 14.39 15.3621 14.39 16.85V55.35C14.4162 56.8205 15.0188 58.2218 16.0681 59.2524C17.1173 60.2829 18.5293 60.8602 20 60.86H52.1C53.5879 60.86 55.0148 60.2689 56.0669 59.2169C57.119 58.1648 57.71 56.7379 57.71 55.25V25.37C57.692 25.3081 57.6686 25.2478 57.64 25.19ZM48.07 23.19C47.8931 23.1874 47.7242 23.116 47.5991 22.9909C47.474 22.8658 47.4026 22.6969 47.4 22.52L47.33 18.67L51.24 23.26L48.07 23.19ZM53.66 55.19C53.66 55.617 53.4904 56.0265 53.1885 56.3284C52.8865 56.6304 52.477 56.8 52.05 56.8H20C19.573 56.8 19.1635 56.6304 18.8616 56.3284C18.5596 56.0265 18.39 55.617 18.39 55.19V16.75C18.39 16.323 18.5596 15.9135 18.8616 15.6116C19.1635 15.3096 19.573 15.14 20 15.14H43.26L43.4 22.62C43.4232 23.8309 43.9159 24.9854 44.7742 25.8399C45.6324 26.6944 46.7891 27.1821 48 27.2L53.68 27.33L53.66 55.19Z"/>
<path d="M24.59 31H35.38C35.9105 31 36.4192 30.7893 36.7942 30.4142C37.1693 30.0391 37.38 29.5304 37.38 29C37.38 28.4696 37.1693 27.9609 36.7942 27.5858C36.4192 27.2107 35.9105 27 35.38 27H24.59C24.0596 27 23.5509 27.2107 23.1758 27.5858C22.8007 27.9609 22.59 28.4696 22.59 29C22.59 29.5304 22.8007 30.0391 23.1758 30.4142C23.5509 30.7893 24.0596 31 24.59 31Z"/>
<path d="M46.31 36.3H24.59C24.0596 36.3 23.5509 36.5108 23.1758 36.8858C22.8007 37.2609 22.59 37.7696 22.59 38.3C22.59 38.8305 22.8007 39.3392 23.1758 39.7143C23.5509 40.0893 24.0596 40.3 24.59 40.3H46.31C46.8405 40.3 47.3492 40.0893 47.7242 39.7143C48.0993 39.3392 48.31 38.8305 48.31 38.3C48.31 37.7696 48.0993 37.2609 47.7242 36.8858C47.3492 36.5108 46.8405 36.3 46.31 36.3Z"/>
<path d="M46.31 45.5699H24.59C24.0596 45.5699 23.5509 45.7807 23.1758 46.1557C22.8007 46.5308 22.59 47.0395 22.59 47.5699C22.59 48.1004 22.8007 48.6091 23.1758 48.9842C23.5509 49.3592 24.0596 49.5699 24.59 49.5699H46.31C46.8405 49.5699 47.3492 49.3592 47.7242 48.9842C48.0993 48.6091 48.31 48.1004 48.31 47.5699C48.31 47.0395 48.0993 46.5308 47.7242 46.1557C47.3492 45.7807 46.8405 45.5699 46.31 45.5699Z"/>
</symbol>
	</defs>
</svg>
