<svg version="1.1" xmlns="http://www.w3.org/2000/svg" xmlns:xlink="http://www.w3.org/1999/xlink">
	<defs>
		<symbol id="ab" viewBox="0 0 72 72"><path d="M6.934 9.493c1.158 0 2.015.284 2.57.852.568.557.85 1.4.85 2.557v4.078c0 .3-.1.54-.273.72-.182.167-.43.25-.75.25a1.04 1.04 0 0 1-.732-.267c-.182-.178-.272-.412-.272-.702v-.368a2.18 2.18 0 0 1-.92 1.02c-.4.245-.885.368-1.43.368-.556 0-1.06-.1-1.516-.334a2.68 2.68 0 0 1-1.073-.919A2.29 2.29 0 0 1 3 15.443c0-.602.153-1.075.46-1.42.318-.345.83-.596 1.533-.752s1.674-.234 2.912-.234h.426v-.384c0-.546-.12-.94-.358-1.187-.238-.256-.624-.384-1.158-.384-.33 0-.664.05-1.005.15-.34.1-.744.223-1.2.4-.295.145-.5.217-.647.217a.67.67 0 0 1-.511-.217c-.125-.145-.187-.334-.187-.568 0-.2.045-.35.136-.485.102-.145.267-.28.494-.4.397-.212.868-.38 1.413-.5.556-.123 1.1-.184 1.635-.184zm-.528 7.003c.568 0 1.027-.184 1.38-.55.363-.38.545-.864.545-1.454v-.35h-.307c-.76 0-1.35.033-1.77.1s-.72.184-.903.35-.272.396-.272.685a1.16 1.16 0 0 0 .375.886c.26.223.58.334.954.334zm10.9-7.003c.727 0 1.368.173 1.924.518s.988.836 1.294 1.47c.318.635.477 1.376.477 2.223s-.16 1.6-.477 2.256a3.5 3.5 0 0 1-1.311 1.504c-.556.357-1.192.535-1.907.535-.602 0-1.14-.128-1.618-.384-.465-.256-.823-.613-1.073-1.07v.418c0 .3-.097.54-.3.72s-.448.267-.766.267-.573-.1-.766-.267c-.182-.178-.272-.418-.272-.72V6.97a.91.91 0 0 1 .29-.702c.204-.178.465-.267.783-.267s.573.084.766.25.3.396.3.685v3.944a2.47 2.47 0 0 1 1.073-1.02c.465-.245.993-.368 1.584-.368zm-.562 6.886c.67 0 1.192-.234 1.567-.702s.562-1.125.562-1.972c0-.836-.187-1.476-.562-1.922-.363-.446-.886-.668-1.567-.668s-1.2.228-1.584.685c-.363.446-.545 1.092-.545 1.94s.182 1.5.545 1.955c.375.457.902.685 1.584.685z"/></symbol>
		<symbol id="add" viewBox="0 0 72 72">
<path d="M13.6599 13.2955L21.3522 13.2551C21.7166 13.2551 22 13.0121 22 12.6478V11.4332C22 11.0688 21.7571 10.8259 21.3927 10.8259L13.6599 10.7854C13.417 10.7854 13.2551 10.6235 13.2551 10.3806V2.60729C13.2551 2.2834 13.0121 2 12.6478 2H11.3927C11.0688 2 10.7854 2.2834 10.7854 2.60729V10.3401C10.7854 10.583 10.6235 10.7449 10.3806 10.7449H2.60729C2.24291 10.7449 2 11.0283 2 11.3927V12.6073C2 12.9717 2.24291 13.2146 2.60729 13.2146L10.3401 13.2551C10.583 13.2551 10.7449 13.417 10.7449 13.6599V21.3927C10.7449 21.7571 11.0283 22 11.3927 22H12.6073C12.9717 22 13.2551 21.7571 13.2551 21.3927V13.7004C13.2551 13.4575 13.417 13.2955 13.6599 13.2955Z"/>
</symbol>
		<symbol id="attach" viewBox="0 0 72 72"><path d="M9.012 22c-1.66 0-3.404-.627-4.53-2.006-1.75-2.148-1.96-4.724-.575-7.068.604-1.02 4.63-5.105 8.5-8.964l.896-.9c.877-.92 3.538-1.877 5.708.075 1.948 1.95 1.625 4.432.315 5.89-.37.4-3.833 4.008-7.173 7.474l-.903.938c-.4.428-1.218.907-2.095.902-.66-.014-1.263-.307-1.742-.848-1.29-1.496-.34-3.14.344-3.8l7.42-7.278a.75.75 0 0 1 1.078.023.79.79 0 0 1-.022 1.103L8.8 14.823c-.15.15-.866.93-.26 1.632.192.216.396.323.635.328.4.001.812-.265.975-.435l.906-.94 7.136-7.435c.566-.63 1.246-2.21-.23-3.7-1.59-1.43-3.38-.336-3.578-.128a121.93 121.93 0 0 1-.92.925c-1.896 1.896-7.667 7.666-8.252 8.656-1.043 1.764-.887 3.632.44 5.26 1.382 1.695 4.31 1.833 5.737.756a.55.55 0 0 1 .049-.034c1.132-.722 5.544-5.46 8.233-8.466a.75.75 0 0 1 1.078-.049c.31.29.333.784.048 1.102-.696.778-6.817 7.6-8.526 8.72-.854.634-2.036.976-3.263.976z"/></symbol>
		<symbol id="attention-outline" viewBox="0 0 72 72">
<path d="M63.62 54.9201L39.46 13.0801C39.1084 12.4739 38.6037 11.9708 37.9965 11.621C37.3892 11.2713 36.7008 11.0872 36 11.0872C35.2993 11.0872 34.6108 11.2713 34.0036 11.621C33.3963 11.9708 32.8916 12.4739 32.54 13.0801L8.38002 54.9201C8.02869 55.5286 7.84386 56.2189 7.84412 56.9215C7.84437 57.6242 8.02972 58.3144 8.38149 58.9226C8.73326 59.5309 9.23905 60.0357 9.84795 60.3864C10.4568 60.737 11.1474 60.9211 11.85 60.9201H60.15C60.8527 60.9211 61.5432 60.737 62.1521 60.3864C62.761 60.0357 63.2668 59.5309 63.6185 58.9226C63.9703 58.3144 64.1557 57.6242 64.1559 56.9215C64.1562 56.2189 63.9713 55.5286 63.62 54.9201ZM11.85 56.9201L36 15.0801L60.15 56.9201H11.85Z"/>
<path d="M36 45.78C35.6781 45.7712 35.3579 45.8299 35.06 45.9521C34.762 46.0744 34.493 46.2576 34.27 46.49C34.0438 46.7182 33.8667 46.9903 33.7497 47.2896C33.6327 47.5888 33.5784 47.9089 33.59 48.23C33.5766 48.5558 33.63 48.881 33.747 49.1854C33.8639 49.4898 34.0419 49.767 34.27 50C34.7343 50.4485 35.3545 50.6992 36 50.6992C36.6455 50.6992 37.2658 50.4485 37.73 50C37.9556 49.7693 38.1322 49.4954 38.2491 49.1946C38.3659 48.8938 38.4207 48.5725 38.41 48.25C38.4217 47.9289 38.3673 47.6088 38.2504 47.3096C38.1334 47.0103 37.9563 46.7382 37.73 46.51C37.5088 46.274 37.2406 46.0871 36.9426 45.9613C36.6445 45.8356 36.3234 45.7738 36 45.78Z"/>
<path d="M34.22 27.93C33.9886 28.1275 33.8052 28.3751 33.6839 28.6541C33.5626 28.9331 33.5066 29.2361 33.52 29.54V29.87L34.73 42.56C34.7467 42.913 34.8926 43.2476 35.14 43.5C35.3645 43.7117 35.6615 43.8295 35.97 43.8295C36.2786 43.8295 36.5755 43.7117 36.8 43.5C37.0474 43.2476 37.1933 42.913 37.21 42.56L38.45 29.9V29.54C38.4635 29.2361 38.4074 28.9331 38.2861 28.6541C38.1648 28.3751 37.9815 28.1275 37.75 27.93C37.2411 27.5343 36.6147 27.3195 35.97 27.3195C35.3253 27.3195 34.699 27.5343 34.19 27.93H34.22Z"/>
</symbol>
		<symbol id="avatar-deafult" viewBox="0 0 72 72">
<path d="M36 9.88C30.834 9.88 25.7839 11.4119 21.4885 14.282C17.1931 17.1521 13.8452 21.2315 11.8683 26.0043C9.89131 30.7771 9.37404 36.029 10.3819 41.0958C11.3897 46.1625 13.8774 50.8167 17.5304 54.4696C21.1833 58.1226 25.8375 60.6103 30.9042 61.6181C35.971 62.626 41.2229 62.1087 45.9957 60.1317C50.7685 58.1548 54.8479 54.8069 57.718 50.5115C60.5881 46.2161 62.12 41.1661 62.12 36C62.1121 29.075 59.3576 22.4359 54.4609 17.5391C49.5641 12.6424 42.925 9.88794 36 9.88ZM36 58.12C31.6251 58.12 27.3484 56.8227 23.7108 54.3921C20.0732 51.9615 17.238 48.5069 15.5638 44.465C13.8896 40.4231 13.4515 35.9755 14.305 31.6846C15.1585 27.3937 17.2653 23.4523 20.3588 20.3588C23.4523 17.2653 27.3937 15.1585 31.6846 14.305C35.9755 13.4515 40.4231 13.8896 44.465 15.5638C48.5069 17.238 51.9615 20.0732 54.3921 23.7108C56.8227 27.3484 58.12 31.6251 58.12 36C58.1147 41.865 55.7825 47.4882 51.6354 51.6354C47.4882 55.7825 41.865 58.1147 36 58.12Z"/>
<path d="M40.62 24C38.9963 23.6791 37.3451 23.5183 35.69 23.52C33.48 23.52 30.36 23.81 28.07 25.23C25.16 27.03 23.63 30.49 23.77 34.95C23.84 37.5 24.46 41.08 26.95 43.67C28.82 45.67 32.23 46.67 35.06 46.89V48.46C35.06 48.9905 35.2707 49.4992 35.6458 49.8742C36.0209 50.2493 36.5296 50.46 37.06 50.46H37.23C37.6349 50.4221 38.0186 50.2616 38.33 50C39.43 49.06 40.87 47.81 42.27 46.5L42.88 45.94C44.0378 44.9428 45.0839 43.823 46 42.6C48 39.72 48.72 35.45 47.88 31.2C47.5513 29.4016 46.6791 27.7471 45.3809 26.4597C44.0828 25.1723 42.4211 24.3138 40.62 24Z"/>
</symbol>
		<symbol id="clock" viewBox="0 0 72 72">
<path d="M12 3C7.05 3 3 7.05 3 12C3 16.95 7.05 21 12 21C16.95 21 21 16.95 21 12C21 7.05 16.95 3 12 3ZM12 19.2C8.04 19.2 4.8 15.96 4.8 12C4.8 8.04 8.04 4.8 12 4.8C15.96 4.8 19.2 8.04 19.2 12C19.2 15.96 15.96 19.2 12 19.2Z"/>
<path d="M12.45 7.5H11.1V12.9L15.78 15.78L16.5 14.61L12.45 12.18V7.5Z"/>
</symbol>
		<symbol id="cookie" viewBox="0 0 72 72">
<path d="M62 32.2301C61.9473 31.864 61.7942 31.5198 61.5576 31.2356C61.321 30.9514 61.0103 30.7383 60.66 30.6201C60.3161 30.5089 59.9486 30.493 59.5965 30.574C59.2443 30.655 58.9207 30.8299 58.66 31.0801C58.2672 31.4741 57.7993 31.7852 57.2839 31.9948C56.7685 32.2044 56.2163 32.3082 55.66 32.3001C54.9454 32.297 54.2435 32.1118 53.6206 31.7618C52.9976 31.4118 52.4742 30.9087 52.1 30.3001C51.8769 29.9626 51.5568 29.7008 51.1819 29.549C50.807 29.3973 50.3949 29.3628 50 29.4501C49.5072 29.5587 49.0045 29.6157 48.5 29.6201C46.7221 29.6201 45.0169 28.9145 43.7588 27.6583C42.5007 26.4021 41.7926 24.6979 41.79 22.9201C41.7971 22.5614 41.8306 22.2038 41.89 21.8501C41.9357 21.5012 41.8886 21.1465 41.7534 20.8217C41.6182 20.4968 41.3997 20.2134 41.12 20.0001C40.6397 19.6128 40.2501 19.125 39.9788 18.5709C39.7074 18.0168 39.5608 17.4099 39.5494 16.7931C39.538 16.1762 39.6619 15.5643 39.9125 15.0006C40.1632 14.4368 40.5344 13.9348 41 13.5301C41.3016 13.2832 41.5246 12.9536 41.6414 12.5818C41.7583 12.21 41.7639 11.8121 41.6577 11.4371C41.5515 11.0621 41.338 10.7263 41.0435 10.471C40.7489 10.2157 40.3863 10.052 40 10.0001C34.6997 9.18317 29.2763 10.0087 24.4591 12.3656C19.6419 14.7225 15.6618 18.4978 13.054 23.1839C10.4461 27.87 9.3355 33.2422 9.8715 38.5782C10.4075 43.9142 12.5644 48.9582 16.0522 53.032C19.54 57.1058 24.1914 60.0141 29.3812 61.3658C34.5709 62.7175 40.0501 62.4479 45.082 60.5931C50.114 58.7384 54.4574 55.3875 57.5283 50.9909C60.5993 46.5943 62.2505 41.3629 62.26 36.0001C62.2671 34.7387 62.1802 33.4785 62 32.2301ZM58.26 36.0001C58.26 40.4027 56.9544 44.7064 54.5085 48.367C52.0625 52.0277 48.586 54.8808 44.5185 56.5656C40.451 58.2504 35.9753 58.6912 31.6573 57.8323C27.3392 56.9734 23.3729 54.8534 20.2598 51.7402C17.1467 48.6271 15.0266 44.6608 14.1677 40.3428C13.3088 36.0247 13.7496 31.549 15.4344 27.4815C17.1192 23.414 19.9723 19.9375 23.633 17.4915C27.2936 15.0456 31.5974 13.7401 36 13.7401H36.11C35.5562 15.1799 35.4173 16.7462 35.709 18.2611C36.0006 19.776 36.7112 21.1787 37.76 22.3101C37.76 22.5201 37.76 22.7201 37.76 22.9201C37.7595 24.4157 38.0725 25.8949 38.679 27.2622C39.2854 28.6294 40.1718 29.8543 41.2808 30.8578C42.3899 31.8613 43.697 32.6212 45.1179 33.0884C46.5388 33.5555 48.0418 33.7196 49.53 33.5701C50.298 34.4306 51.2395 35.1188 52.2926 35.5893C53.3457 36.0599 54.4865 36.3021 55.64 36.3001C56.53 36.2987 57.4142 36.157 58.26 35.8801V36.0001Z"/>
<path d="M29.78 20.44C29.1621 20.438 28.5575 20.6195 28.0429 20.9616C27.5283 21.3037 27.1268 21.7908 26.8894 22.3614C26.6521 22.9319 26.5894 23.56 26.7095 24.1662C26.8296 24.7723 27.1269 25.3292 27.5639 25.7661C28.0008 26.2031 28.5576 26.5004 29.1638 26.6205C29.7699 26.7405 30.3981 26.6779 30.9686 26.4405C31.5391 26.2031 32.0263 25.8017 32.3684 25.2871C32.7104 24.7725 32.892 24.1679 32.89 23.55C32.89 22.7251 32.5623 21.9341 31.9791 21.3509C31.3959 20.7676 30.6048 20.44 29.78 20.44Z"/>
<path d="M37.61 39.11C38.0451 39.11 38.4704 38.9809 38.8322 38.7392C39.194 38.4975 39.476 38.1539 39.6425 37.7519C39.809 37.3499 39.8526 36.9075 39.7677 36.4808C39.6828 36.054 39.4733 35.662 39.1656 35.3543C38.8579 35.0467 38.4659 34.8371 38.0392 34.7522C37.6124 34.6673 37.1701 34.7109 36.7681 34.8774C36.3661 35.0439 36.0225 35.3259 35.7807 35.6877C35.539 36.0495 35.41 36.4748 35.41 36.91C35.41 37.4934 35.6418 38.053 36.0543 38.4656C36.4669 38.8782 37.0265 39.11 37.61 39.11Z"/>
<path d="M25.75 46.25C25.3149 46.25 24.8895 46.379 24.5277 46.6208C24.1659 46.8625 23.884 47.2061 23.7175 47.6081C23.5509 48.0101 23.5074 48.4524 23.5923 48.8792C23.6771 49.306 23.8867 49.698 24.1944 50.0056C24.502 50.3133 24.894 50.5228 25.3208 50.6077C25.7475 50.6926 26.1899 50.649 26.5919 50.4825C26.9939 50.316 27.3375 50.034 27.5792 49.6723C27.821 49.3105 27.95 48.8851 27.95 48.45C27.95 47.8665 27.7182 47.3069 27.3056 46.8944C26.893 46.4818 26.3335 46.25 25.75 46.25Z"/>
<path d="M52.2 39.3799C51.7649 39.3799 51.3395 39.5089 50.9777 39.7506C50.616 39.9924 50.334 40.336 50.1675 40.738C50.001 41.14 49.9574 41.5823 50.0423 42.0091C50.1272 42.4358 50.3367 42.8278 50.6444 43.1355C50.952 43.4432 51.344 43.6527 51.7708 43.7376C52.1976 43.8225 52.6399 43.7789 53.0419 43.6124C53.4439 43.4459 53.7875 43.1639 54.0292 42.8021C54.271 42.4403 54.4 42.015 54.4 41.5799C54.4 40.9964 54.1682 40.4368 53.7556 40.0242C53.3431 39.6117 52.7835 39.3799 52.2 39.3799Z"/>
<path d="M22.86 39.8099C24.9642 39.8099 26.67 38.1041 26.67 35.9999C26.67 33.8957 24.9642 32.1899 22.86 32.1899C20.7558 32.1899 19.05 33.8957 19.05 35.9999C19.05 38.1041 20.7558 39.8099 22.86 39.8099Z"/>
<path d="M39.81 44.6399C39.056 44.6379 38.3184 44.8597 37.6906 45.2771C37.0627 45.6946 36.5728 46.2889 36.2829 46.9849C35.993 47.681 35.9161 48.4473 36.062 49.1871C36.2079 49.9268 36.5699 50.6066 37.1024 51.1404C37.6348 51.6743 38.3137 52.0381 39.053 52.1859C39.7924 52.3338 40.5589 52.2589 41.2557 51.9708C41.9525 51.6828 42.5481 51.1944 42.9672 50.5677C43.3863 49.9409 43.61 49.2039 43.61 48.4499C43.6113 47.95 43.514 47.4548 43.3236 46.9926C43.1332 46.5304 42.8535 46.1104 42.5005 45.7564C42.1475 45.4025 41.7282 45.1217 41.2665 44.9301C40.8048 44.7385 40.3099 44.6399 39.81 44.6399Z"/>
</symbol>
		<symbol id="copy" viewBox="0 0 72 72">
<path d="M19.5755 14.2627C19.5755 14.3937 19.4663 14.5053 19.3381 14.5053H9.97491C9.84671 14.5053 9.7375 14.3937 9.7375 14.2627V4.69766C9.7375 4.5667 9.84671 4.45513 9.97491 4.45513H19.3381C19.4663 4.45513 19.5755 4.5667 19.5755 4.69766V14.2627ZM14.2578 19.4187C14.2578 19.4867 14.2008 19.5449 14.1391 19.5449H4.54322C4.47674 19.5449 4.42451 19.4867 4.42451 19.4187V9.62085C4.42451 9.55294 4.48149 9.49474 4.54322 9.49474H8.3132V14.2627C8.3132 15.194 9.05865 15.9604 9.97503 15.9604H14.2578V19.4187ZM19.3382 3H9.97494C9.05856 3 8.31311 3.76152 8.31311 4.69766V8.03961H4.54313C3.69322 8.03961 3 8.74778 3 9.62086V19.4188C3 20.2918 3.69322 21 4.54313 21H14.139C14.9889 21 15.6821 20.2918 15.6821 19.4188V15.9604H19.3382C20.2545 15.9604 21 15.194 21 14.2627V4.69766C21 3.76152 20.2545 3 19.3382 3Z"/>
</symbol>
		<symbol id="data-security" viewBox="0 0 72 72">
<path d="M36 24.06C33.6377 24.0561 31.3272 24.753 29.3611 26.0625C27.3949 27.3721 25.8615 29.2355 24.9547 31.4169C24.0479 33.5983 23.8086 35.9997 24.267 38.3171C24.7255 40.6346 25.8611 42.7639 27.5301 44.4358C29.1992 46.1076 31.3266 47.2468 33.6433 47.7091C35.96 48.1714 38.3617 47.9362 40.5447 47.033C42.7276 46.1299 44.5935 44.5996 45.9064 42.6356C47.2193 40.6716 47.92 38.3624 47.92 36C47.9174 32.8376 46.6613 29.8052 44.4271 27.5671C42.1928 25.3291 39.1624 24.068 36 24.06ZM44 34.28L35.83 42C35.2417 42.5469 34.4683 42.8508 33.665 42.8508C32.8618 42.8508 32.0884 42.5469 31.5 42L27.87 38.63C27.6678 38.4541 27.503 38.2392 27.3854 37.9983C27.2678 37.7574 27.1998 37.4953 27.1855 37.2276C27.1712 36.9599 27.2109 36.6921 27.3022 36.44C27.3935 36.188 27.5345 35.9568 27.7169 35.7603C27.8993 35.5639 28.1193 35.4061 28.3639 35.2963C28.6085 35.1866 28.8727 35.1271 29.1407 35.1215C29.4087 35.1159 29.6751 35.1642 29.9241 35.2636C30.1731 35.3629 30.3996 35.5114 30.59 35.7L33.65 38.54L41.26 31.37C41.6499 31.0306 42.1561 30.8553 42.6724 30.8809C43.1887 30.9065 43.675 31.131 44.0294 31.5074C44.3838 31.8838 44.5787 32.3827 44.5732 32.8996C44.5677 33.4165 44.3623 33.9112 44 34.28Z"/>
<path d="M59.7201 24.52V24.41C59.7201 23.96 59.7201 23.47 59.7201 22.94C59.6832 20.9737 58.9058 19.0937 57.5433 17.6755C56.1808 16.2574 54.3334 15.4055 52.3701 15.29C47.7237 15.2209 43.2841 13.3576 39.9801 10.09L39.8401 9.99999C38.7911 9.02509 37.4121 8.48322 35.9801 8.48322C34.5481 8.48322 33.1691 9.02509 32.1201 9.99999L32.0001 10.1C28.6946 13.364 24.2551 15.2236 19.6101 15.29C17.6469 15.4055 15.7994 16.2574 14.4369 17.6755C13.0744 19.0937 12.297 20.9737 12.2601 22.94C12.2601 23.47 12.2601 23.94 12.2601 24.48V24.58C12.1501 30.65 12.0001 38.2 14.6101 45.26C16.0181 49.159 18.2878 52.6901 21.2501 55.59C24.8908 59.0191 29.2447 61.6008 34.0001 63.15C34.2637 63.2477 34.5345 63.3246 34.8101 63.38C35.6021 63.54 36.4181 63.54 37.2101 63.38C37.4883 63.322 37.7623 63.2451 38.0301 63.15C42.7737 61.5944 47.1165 59.0133 50.7501 55.59C53.7126 52.6863 55.9822 49.152 57.3901 45.25C60.0001 38.17 59.8301 30.6 59.7201 24.52ZM36.0001 50.94C33.0444 50.9439 30.1539 50.0711 27.6944 48.4319C25.2349 46.7927 23.3169 44.4607 22.1831 41.7312C21.0493 39.0016 20.7505 35.997 21.3247 33.0976C21.8989 30.1982 23.3203 27.5343 25.4089 25.4429C27.4975 23.3515 30.1595 21.9266 33.0581 21.3485C35.9567 20.7705 38.9617 21.0651 41.6928 22.1953C44.4239 23.3255 46.7584 25.2404 48.4009 27.6977C50.0434 30.155 50.9201 33.0443 50.9201 36C50.9043 39.954 49.328 43.7419 46.5339 46.5397C43.7399 49.3375 39.9541 50.9189 36.0001 50.94Z"/>
</symbol>
		<symbol id="download" viewBox="0 0 72 72">
<path d="M34.45 44.35L34.34 44.27L23.85 34.93C23.5857 34.7178 23.3672 34.454 23.208 34.1547C23.0487 33.8554 22.952 33.5269 22.9238 33.189C22.8955 32.8512 22.9362 32.5111 23.0434 32.1895C23.1507 31.8679 23.3222 31.5715 23.5476 31.3183C23.773 31.065 24.0476 30.8603 24.3546 30.7165C24.6616 30.5727 24.9946 30.4928 25.3334 30.4818C25.6723 30.4707 26.0098 30.5287 26.3256 30.6521C26.6413 30.7756 26.9286 30.962 27.17 31.2L33.5 36.83V17.23C33.5 16.5669 33.7634 15.9311 34.2323 15.4622C34.7011 14.9934 35.337 14.73 36 14.73C36.6631 14.73 37.299 14.9934 37.7678 15.4622C38.2366 15.9311 38.5 16.5669 38.5 17.23V36.83L44.83 31.2C45.3247 30.7584 45.9745 30.5314 46.6365 30.5689C47.2985 30.6064 47.9185 30.9054 48.36 31.4C48.8016 31.8946 49.0286 32.5444 48.9911 33.2064C48.9536 33.8684 48.6547 34.4884 48.16 34.93L37.66 44.27L37.55 44.35C37.5125 44.3831 37.4724 44.4132 37.43 44.44L37.34 44.5C37.2668 44.5492 37.1899 44.5926 37.11 44.63L36.99 44.69H36.93L36.64 44.77H36.57H36.47C36.3137 44.7852 36.1563 44.7852 36 44.77C35.8437 44.7852 35.6863 44.7852 35.53 44.77H35.43H35.36L35.07 44.69H35.01L34.89 44.63C34.8101 44.5926 34.7332 44.5492 34.66 44.5L34.57 44.44C34.5277 44.4132 34.4876 44.3831 34.45 44.35ZM56.8358 41.2458C57.2109 40.8707 57.7196 40.66 58.25 40.66C58.7804 40.66 59.2891 40.8707 59.6642 41.2458C60.0393 41.6208 60.25 42.1295 60.25 42.66V54.77C60.25 55.3004 60.0393 55.8091 59.6642 56.1842C59.2891 56.5593 58.7804 56.77 58.25 56.77H13.75C13.2196 56.77 12.7109 56.5593 12.3358 56.1842C11.9607 55.8091 11.75 55.3004 11.75 54.77V42.66C11.75 42.1295 11.9607 41.6208 12.3358 41.2458C12.7109 40.8707 13.2196 40.66 13.75 40.66C14.2804 40.66 14.7891 40.8707 15.1642 41.2458C15.5393 41.6208 15.75 42.1295 15.75 42.66V52.77H56.25V42.66C56.25 42.1295 56.4607 41.6208 56.8358 41.2458Z"/>
</symbol>
		<symbol id="faq-outline" viewBox="0 0 72 72">
<path d="M39.42 24.26C38.4364 23.8458 37.3771 23.6414 36.31 23.66C35.2608 23.6613 34.2182 23.8267 33.22 24.15C32.235 24.459 31.3064 24.925 30.47 25.53C30.206 25.7226 29.9847 25.9677 29.82 26.25C29.6779 26.5424 29.6093 26.865 29.62 27.19C29.6023 27.7012 29.7691 28.2017 30.09 28.6C30.2215 28.7759 30.3919 28.9189 30.588 29.0178C30.7841 29.1167 31.0004 29.1688 31.22 29.17C31.7457 29.1215 32.2526 28.9503 32.7 28.67L33.34 28.34C33.7733 28.0902 34.2245 27.873 34.69 27.69C35.0795 27.5406 35.4928 27.4627 35.91 27.46C36.3319 27.4377 36.7485 27.5613 37.09 27.81C37.2301 27.9222 37.3419 28.0657 37.4166 28.2289C37.4912 28.3922 37.5267 28.5706 37.52 28.75C37.5201 29.1288 37.4126 29.4999 37.21 29.82C36.9347 30.2368 36.6271 30.6314 36.29 31C35.7883 31.5085 35.3547 32.0799 35 32.7C34.6558 33.3451 34.4869 34.0692 34.51 34.8C34.4805 35.2598 34.6191 35.7147 34.9 36.08C35.0344 36.235 35.2025 36.357 35.3915 36.4368C35.5805 36.5165 35.7852 36.5518 35.99 36.54C36.3498 36.5488 36.7022 36.4361 36.99 36.22C37.2693 35.9908 37.4544 35.6669 37.51 35.31C37.6158 34.9022 37.822 34.5274 38.11 34.22C38.5056 33.7819 38.9334 33.3741 39.39 33C40.02 32.44 40.53 32 40.92 31.58C41.3289 31.1646 41.6667 30.6849 41.92 30.16C42.2487 29.4901 42.3889 28.7435 42.3254 28C42.262 27.2566 41.9974 26.5445 41.56 25.94C41.0077 25.2007 40.2693 24.621 39.42 24.26Z"/>
<path d="M36 37.74C35.66 37.734 35.3223 37.7974 35.0077 37.9264C34.693 38.0553 34.408 38.2471 34.17 38.49C33.6944 38.9885 33.429 39.651 33.429 40.34C33.429 41.029 33.6944 41.6915 34.17 42.19C34.4065 42.4348 34.6913 42.6279 35.0063 42.757C35.3213 42.8861 35.6597 42.9484 36 42.94C36.3451 42.9508 36.6886 42.8897 37.0088 42.7606C37.3291 42.6314 37.6189 42.4371 37.86 42.19C38.229 41.8257 38.4806 41.3595 38.5826 40.8511C38.6845 40.3427 38.6322 39.8155 38.4322 39.3371C38.2323 38.8587 37.8938 38.4511 37.4604 38.1665C37.027 37.8819 36.5184 37.7334 36 37.74Z"/>
<path d="M59.56 24.19C58.11 16.89 52.93 11.79 45.34 10.19C42.0486 9.52242 38.6984 9.1874 35.34 9.19002C30.89 9.19002 24.64 9.78002 20.12 12.58C14.44 16.1 11.46 22.9 11.73 31.74C11.91 36.84 13.12 44 18 49.1C21.9 53.16 29.29 55.19 35.11 55.49V59.78C35.11 60.5757 35.4261 61.3387 35.9887 61.9013C36.5513 62.464 37.3144 62.78 38.11 62.78C38.1964 62.7899 38.2836 62.7899 38.37 62.78C38.989 62.7263 39.576 62.4817 40.05 62.08C42.32 60.14 45.28 57.57 48.18 54.87L49.45 53.69C51.8177 51.6998 53.9604 49.4565 55.84 47C59.86 41.24 61.25 32.72 59.56 24.19ZM52.56 44.68C50.851 46.8756 48.9172 48.8866 46.79 50.68L45.5 51.88C43.3 53.88 41.07 55.88 39.14 57.56V54C39.14 53.337 38.8766 52.7011 38.4078 52.2323C37.9389 51.7634 37.303 51.5 36.64 51.5C31.31 51.5 24.19 49.71 20.91 46.3C16.91 42.09 15.91 35.99 15.74 31.61C15.57 27.23 16.28 19.66 22.24 15.97C25.14 14.17 29.8 13.18 35.35 13.18C38.4256 13.1758 41.494 13.4773 44.51 14.08C50.51 15.35 54.51 19.2 55.62 24.93C57.12 32.45 56 39.82 52.57 44.68H52.56Z"/>
</symbol>
		<symbol id="folder-solid" viewBox="0 0 72 72">
<path d="M55.8901 20.21H38.3101V18C38.3101 16.5201 37.7222 15.1008 36.6758 14.0543C35.6293 13.0079 34.21 12.42 32.7301 12.42H18.1101C15.8566 12.4226 13.6961 13.319 12.1026 14.9125C10.5091 16.506 9.61275 18.6665 9.61011 20.92V51.59C9.61275 53.3131 10.2984 54.9648 11.5168 56.1833C12.7352 57.4017 14.387 58.0873 16.1101 58.09H55.8901C57.6132 58.0873 59.265 57.4017 60.4834 56.1833C61.7018 54.9648 62.3875 53.3131 62.3901 51.59V26.71C62.3875 24.9869 61.7018 23.3351 60.4834 22.1167C59.265 20.8983 57.6132 20.2126 55.8901 20.21Z"/>
</symbol>
		<symbol id="git-hub-logo" viewBox="0 0 72 72">
<path d="M35.9421 6.10754C19.4001 6.10754 5.99023 19.5174 5.99023 36.0594C5.99023 52.6014 19.4001 66.0112 35.9421 66.0112C52.484 66.0112 65.8939 52.6014 65.8939 36.0594C65.8939 19.5174 52.484 6.10754 35.9421 6.10754ZM53.7292 53.8465C51.4172 56.1583 48.7267 57.9727 45.7318 59.2394C44.971 59.5612 44.1985 59.8436 43.4151 60.0872V55.5983C43.4151 53.2388 42.6059 51.5033 40.9873 50.3918C42.0015 50.2944 42.9324 50.1578 43.7807 49.9823C44.6289 49.8068 45.5261 49.5533 46.4717 49.2218C47.4175 48.8904 48.2658 48.4955 49.0164 48.0372C49.7673 47.5789 50.4887 46.9842 51.1809 46.253C51.8733 45.5217 52.4533 44.693 52.9213 43.7667C53.3893 42.8404 53.7599 41.729 54.0328 40.4322C54.3058 39.1355 54.4423 37.7071 54.4423 36.1471C54.4423 33.1247 53.4576 30.5507 51.488 28.4252C52.3852 26.0852 52.2876 23.5405 51.1955 20.791L50.4643 20.7032C49.9574 20.6447 49.0457 20.8592 47.7294 21.3467C46.4132 21.8343 44.9361 22.6337 43.2981 23.7452C40.9777 23.1017 38.5694 22.78 36.0735 22.78C33.558 22.78 31.1595 23.1017 28.878 23.7452C27.8446 23.0432 26.8647 22.4631 25.9384 22.0048C25.0121 21.5466 24.2712 21.2346 23.7154 21.0688C23.1597 20.9031 22.6429 20.8007 22.1652 20.7617C21.6875 20.7228 21.3803 20.7129 21.2438 20.7325C21.1073 20.752 21.0098 20.7714 20.9513 20.791C19.8593 23.56 19.7618 26.1047 20.6588 28.4252C18.6894 30.5507 17.7046 33.1247 17.7046 36.1471C17.7046 37.7071 17.8411 39.1355 18.1141 40.4322C18.387 41.729 18.7576 42.8404 19.2256 43.7667C19.6936 44.693 20.2736 45.5217 20.9659 46.253C21.6582 46.9842 22.3796 47.5789 23.1304 48.0372C23.8812 48.4955 24.7294 48.8904 25.6752 49.2218C26.6209 49.5533 27.5179 49.8068 28.3661 49.9823C29.2144 50.1578 30.1455 50.2944 31.1595 50.3918C29.5605 51.4838 28.761 53.2193 28.761 55.5983V60.1747C27.8778 59.9118 27.0072 59.6012 26.1519 59.2394C23.1571 57.9727 20.4665 56.1583 18.1547 53.8465C15.843 51.5348 14.0284 48.844 12.7618 45.8491C11.4516 42.7512 10.7872 39.4574 10.7872 36.0594C10.7872 32.6614 11.4517 29.3676 12.762 26.2695C14.0288 23.2746 15.8432 20.584 18.1549 18.2722C20.4666 15.9604 23.1573 14.146 26.1522 12.8794C29.2503 11.569 32.5441 10.9045 35.9421 10.9045C39.3401 10.9045 42.6339 11.569 45.7321 12.8794C48.7271 14.1461 51.4176 15.9605 53.7295 18.2722C56.0412 20.5839 57.8556 23.2746 59.1222 26.2695C60.4324 29.3676 61.097 32.6614 61.097 36.0594C61.097 39.4574 60.4324 42.7512 59.1221 45.8493C57.8555 48.844 56.0408 51.5349 53.7292 53.8465Z"/>
</symbol>
		<symbol id="image" viewBox="0 0 72 72">
<path d="M19 4H5C3.3 4 2 5.3 2 7V17C2 18.7 3.3 20 5 20H19C20.7 20 22 18.7 22 17V7C22 5.3 20.7 4 19 4ZM6.9 6.4C7.2 6.2 7.7 6.1 8.1 6.1C8.4 6.1 8.7 6.1 8.9 6.2C9.5 6.3 9.9 6.7 10 7.3C10.1 7.9 10.1 8.6 9.7 9.1C9.5 9.4 9.3 9.6 9.1 9.8C8.9 10 8.6 10.2 8.4 10.4C8.4 10.4 8.4 10.4 8.3 10.4C8.2 10.4 8.2 10.4 8.2 10.3V9.8C7.7 9.8 7.1 9.7 6.7 9.3C6.4 8.9 6.3 8.4 6.3 7.9C6.2 7.3 6.4 6.7 6.9 6.4ZM21 16.9C21 18 20.1 18.9 19 18.9H5C3.9 18.9 3 18 3 16.9L7.3 14C8.1 13.5 9.2 13.6 9.9 14.3L10.8 15.2L15 10.7C15.8 9.9 17.1 9.9 17.9 10.7L21 14V16.9Z"/>
</symbol>
		<symbol id="jason-file" viewBox="0 0 72 72">
<path d="M57.64 25.19C57.6446 25.1468 57.6446 25.1032 57.64 25.06C57.612 24.8962 57.5685 24.7355 57.51 24.58C57.4423 24.4375 57.3584 24.3033 57.26 24.18C57.26 24.18 57.26 24.18 57.26 24.13L46.75 11.84C46.6304 11.7018 46.4925 11.5807 46.34 11.48H46.27C46.1317 11.4013 45.9838 11.3408 45.83 11.3C45.7935 11.2955 45.7565 11.2955 45.72 11.3C45.5734 11.2597 45.422 11.2395 45.27 11.24H20C18.5121 11.24 17.0852 11.831 16.0331 12.8831C14.9811 13.9352 14.39 15.3621 14.39 16.85V55.35C14.4188 56.8196 15.0222 58.2195 16.0709 59.2495C17.1196 60.2795 18.5301 60.8577 20 60.86H52.1C53.5871 60.8574 55.0124 60.2654 56.0639 59.2139C57.1155 58.1624 57.7074 56.737 57.71 55.25V25.37C57.692 25.3081 57.6686 25.2478 57.64 25.19ZM48.07 23.19C47.8931 23.1874 47.7242 23.116 47.5991 22.9909C47.474 22.8658 47.4026 22.6969 47.4 22.52L47.33 18.67L51.24 23.26L48.07 23.19ZM53.66 55.19C53.66 55.617 53.4904 56.0265 53.1884 56.3284C52.8865 56.6304 52.477 56.8 52.05 56.8H20C19.573 56.8 19.1635 56.6304 18.8616 56.3284C18.5596 56.0265 18.39 55.617 18.39 55.19V16.75C18.39 16.323 18.5596 15.9135 18.8616 15.6116C19.1635 15.3096 19.573 15.14 20 15.14H43.26L43.4 22.62C43.4232 23.8309 43.9159 24.9854 44.7742 25.8399C45.6324 26.6944 46.789 27.1821 48 27.2L53.68 27.33L53.66 55.19Z"/>
<path d="M30.2 37.13V34.49C30.2 34.31 30.82 33.75 31.96 33.75C32.3578 33.75 32.7394 33.592 33.0207 33.3107C33.302 33.0294 33.46 32.6478 33.46 32.25C33.46 31.8522 33.302 31.4706 33.0207 31.1893C32.7394 30.908 32.3578 30.75 31.96 30.75C29.29 30.75 27.2 32.39 27.2 34.49V37.13C27.2 37.32 26.57 37.87 25.44 37.87C25.0422 37.87 24.6606 38.028 24.3793 38.3093C24.098 38.5906 23.94 38.9722 23.94 39.37C23.94 39.7678 24.098 40.1494 24.3793 40.4307C24.6606 40.712 25.0422 40.87 25.44 40.87C26.57 40.87 27.2 41.42 27.2 41.6V44.25C27.2 46.34 29.29 48 32 48C32.3978 48 32.7794 47.842 33.0607 47.5607C33.342 47.2794 33.5 46.8978 33.5 46.5C33.5 46.1022 33.342 45.7206 33.0607 45.4393C32.7794 45.158 32.3978 45 32 45C30.86 45 30.24 44.45 30.24 44.27V41.6C30.2234 40.7638 29.887 39.9658 29.3 39.37C29.8747 38.7655 30.1967 37.9641 30.2 37.13Z"/>
<path d="M46.56 37.87C45.43 37.87 44.8 37.32 44.8 37.13V34.49C44.8 32.39 42.71 30.75 40.04 30.75C39.6422 30.75 39.2607 30.908 38.9793 31.1893C38.698 31.4706 38.54 31.8522 38.54 32.25C38.54 32.6478 38.698 33.0294 38.9793 33.3107C39.2607 33.592 39.6422 33.75 40.04 33.75C41.18 33.75 41.8 34.31 41.8 34.49V37.13C41.8141 37.9697 42.1507 38.7717 42.74 39.37C42.153 39.9658 41.8166 40.7638 41.8 41.6V44.25C41.8 44.43 41.18 44.98 40.04 44.98C39.6422 44.98 39.2607 45.138 38.9793 45.4193C38.698 45.7006 38.54 46.0822 38.54 46.48C38.54 46.8778 38.698 47.2594 38.9793 47.5407C39.2607 47.822 39.6422 47.98 40.04 47.98C42.71 47.98 44.8 46.34 44.8 44.25V41.6C44.8 41.42 45.43 40.87 46.56 40.87C46.9578 40.87 47.3394 40.712 47.6207 40.4307C47.902 40.1494 48.06 39.7678 48.06 39.37C48.06 38.9722 47.902 38.5906 47.6207 38.3093C47.3394 38.028 46.9578 37.87 46.56 37.87Z"/>
</symbol>
		<symbol id="library" viewBox="0 0 72 72">
<path opacity="0.5" d="M56.5099 19.87V43.58C56.5098 43.8664 56.4481 44.1495 56.329 44.41C56.21 44.6705 56.0364 44.9024 55.8199 45.09C55.6028 45.2788 55.3474 45.4186 55.0713 45.4997C54.7951 45.5808 54.5048 45.6014 54.2199 45.56C49.2699 44.82 44.9099 45.56 39.8199 51.37C43.6999 49.56 50.5499 48.2 60.7499 52.53V23.65C59.5216 22.1967 58.0942 20.9241 56.5099 19.87Z"/>
<path d="M62.32 22.42C60.6786 20.4602 58.7135 18.7962 56.51 17.5V17.38C56.5092 16.9823 56.3899 16.5939 56.1672 16.2644C55.9446 15.9348 55.6287 15.6792 55.26 15.53C54.87 15.37 46 11.92 36 20C31.84 16.56 27.47 15 23 15.3C15 15.9 9.82003 22.41 9.61003 22.69C9.29797 23.0549 9.1276 23.5199 9.13003 24V52.84C9.1303 53.1701 9.21227 53.4951 9.36864 53.7858C9.525 54.0765 9.7509 54.324 10.0262 54.5062C10.3014 54.6884 10.6175 54.7996 10.9462 54.8299C11.275 54.8603 11.6061 54.8088 11.91 54.68C27.34 48.13 34.16 55.36 34.44 55.68L34.49 55.73C34.5552 55.7985 34.6254 55.862 34.7 55.92L34.79 55.99C34.8808 56.0562 34.978 56.1132 35.08 56.16H35.13L35.46 56.27C35.608 56.3015 35.7588 56.3182 35.91 56.32C36.0723 56.3163 36.2335 56.2928 36.39 56.25H36.5C36.5365 56.2558 36.5736 56.2558 36.61 56.25L36.75 56.18L37.05 56.01L37.23 55.86C37.3142 55.7876 37.3912 55.7072 37.46 55.62C37.5124 55.554 37.5592 55.4838 37.6 55.41C37.632 55.3813 37.6591 55.3476 37.68 55.31L39.61 51.61L37.86 54.96C39.6 53.46 46.55 48.72 59.94 54.41C60.244 54.5388 60.5751 54.5903 60.9038 54.5599C61.2325 54.5296 61.5486 54.4184 61.8239 54.2362C62.0992 54.054 62.3251 53.8065 62.4814 53.5158C62.6378 53.2251 62.7198 52.9001 62.72 52.57V23.66C62.7288 23.2136 62.588 22.7771 62.32 22.42ZM23.82 47.94C20.1691 47.9964 16.5543 48.6726 13.13 49.94V24.71C14.36 23.37 18.13 19.71 23.25 19.33C26.84 19.06 30.43 20.48 33.94 23.57V50.38C30.8274 48.7237 27.3455 47.8842 23.82 47.94ZM37.94 47.51V23.58C44.34 18.11 50.06 18.41 52.51 18.9V41.35C48.17 41.09 43.23 42.06 37.94 47.51ZM58.75 49.61C52.21 47.32 47.06 47.3 43.22 48.13C42.6072 48.5981 42.0228 49.1023 41.47 49.64C45.87 45.41 49.81 44.9 54.22 45.56C54.5048 45.6014 54.7952 45.5809 55.0714 45.4998C55.3475 45.4186 55.6029 45.2789 55.82 45.09C56.0365 44.9024 56.2101 44.6705 56.3291 44.41C56.4482 44.1495 56.5098 43.8665 56.51 43.58V22.35C57.305 22.9605 58.0538 23.629 58.75 24.35V49.61Z"/>
</symbol>
		<symbol id="like-outline" viewBox="0 0 72 72">
<path d="M60.42 27.2801C59.7696 26.5114 58.9593 25.894 58.0456 25.4708C57.1319 25.0476 56.1369 24.829 55.13 24.8301H48C49.81 17.7701 49.67 13.2101 47.6 10.6101C46.9727 9.83056 46.1564 9.22466 45.2286 8.85006C44.3008 8.47545 43.2926 8.34463 42.3 8.47005C40.886 8.53375 39.5438 9.11146 38.5256 10.0947C37.5073 11.078 36.8831 12.3991 36.77 13.8101C34.77 22.3301 31.33 27.3501 29.12 29.8701C28.8498 29.2722 28.4125 28.7652 27.8606 28.4103C27.3088 28.0555 26.6661 27.8678 26.01 27.8701H13.32C12.4173 27.8727 11.5526 28.2331 10.9152 28.8724C10.2779 29.5116 9.91999 30.3774 9.92 31.2801V54.0601C9.92 54.5065 10.0079 54.9487 10.1788 55.3612C10.3497 55.7737 10.6001 56.1485 10.9158 56.4642C11.2316 56.7799 11.6064 57.0304 12.0189 57.2012C12.4314 57.3721 12.8735 57.4601 13.32 57.4601H26C26.7395 57.4611 27.4594 57.2218 28.051 56.7781C28.6426 56.3343 29.074 55.7103 29.28 55.0001L29.7 55.2501C32.2674 56.7905 35.2059 57.6029 38.2 57.6001H51.47C53.2897 57.5998 55.0493 56.9483 56.4304 55.7634C57.8115 54.5786 58.723 52.9386 59 51.1401L62 32.9001C62.162 31.9048 62.1046 30.8861 61.8316 29.9153C61.5587 28.9445 61.0769 28.0451 60.42 27.2801ZM25.42 53.4601H13.92V31.8301H25.41L25.42 53.4601ZM57.05 32.1001L54.05 50.3301C53.952 50.9509 53.6349 51.5162 53.1561 51.9234C52.6774 52.3307 52.0685 52.553 51.44 52.5501H38.2C36.1086 52.5474 34.0565 51.9809 32.26 50.9101L29.41 49.2001V36.3101C31.41 35.1501 38.41 28.8501 41.69 14.7501C41.7205 14.605 41.7405 14.458 41.75 14.3101C41.82 13.5101 42.31 13.4801 42.64 13.4601C43.4 13.4101 43.57 13.6201 43.64 13.7201C43.71 13.8201 45.35 16.2801 42.36 26.2901C42.1831 26.6704 42.1052 27.0893 42.1334 27.5079C42.1617 27.9264 42.2953 28.331 42.5217 28.6842C42.7481 29.0373 43.0601 29.3275 43.4287 29.5278C43.7973 29.7282 44.2105 29.8321 44.63 29.8301H55.13C55.4102 29.8387 55.6855 29.9061 55.9379 30.028C56.1904 30.1499 56.4144 30.3235 56.5955 30.5375C56.7765 30.7516 56.9105 31.0013 56.9888 31.2705C57.0671 31.5397 57.088 31.8223 57.05 32.1001Z"/>
</symbol>
		<symbol id="line-arrow-down" viewBox="0 0 72 72"><path d="M11 16.64L2.4 9.097a1.12 1.12 0 0 1 0-1.737c.547-.48 1.434-.48 1.98 0L12 14.034l7.61-6.674c.547-.48 1.434-.48 1.98 0a1.12 1.12 0 0 1 0 1.737L13 16.64c-.274.24-.632.36-1 .36s-.717-.12-1-.36z"/></symbol>
		<symbol id="line-arrow-left" viewBox="0 0 72 72"><path d="M7.36 11l7.543-8.6a1.12 1.12 0 0 1 1.737 0c.48.547.48 1.434 0 1.98L9.966 12l6.674 7.61c.48.547.48 1.434 0 1.98a1.12 1.12 0 0 1-1.737 0L7.36 13c-.24-.274-.36-.632-.36-1s.12-.717.36-1z"/></symbol>
		<symbol id="line-arrow-right" viewBox="0 0 72 72"><path d="M16.64 11L9.097 2.4a1.12 1.12 0 0 0-1.737 0c-.48.547-.48 1.434 0 1.98L14.034 12 7.36 19.61c-.48.547-.48 1.434 0 1.98a1.12 1.12 0 0 0 1.737 0L16.64 13c.24-.274.36-.632.36-1s-.12-.717-.36-1z"/></symbol>
		<symbol id="line-arrow-up" viewBox="0 0 72 72"><path d="M13 7.36l8.6 7.543a1.12 1.12 0 0 1 0 1.737c-.547.48-1.434.48-1.98 0L12 9.966 4.39 16.64c-.547.48-1.434.48-1.98 0a1.12 1.12 0 0 1 0-1.737L11 7.36c.274-.24.632-.36 1-.36s.717.12 1 .36z"/></symbol>
		<symbol id="localization-outline" viewBox="0 0 72 72">
<path d="M36 24.83C34.2887 24.83 32.616 25.3375 31.1933 26.2884C29.7706 27.2394 28.6619 28.5909 28.0075 30.1721C27.3531 31.7532 27.1823 33.493 27.5169 35.1712C27.8515 36.8494 28.6763 38.3906 29.887 39.6C31.0978 40.8093 32.64 41.6323 34.3186 41.965C35.9972 42.2976 37.7367 42.1249 39.3171 41.4686C40.8975 40.8124 42.2478 39.7022 43.197 38.2784C44.1463 36.8546 44.652 35.1812 44.65 33.47C44.6447 31.1784 43.7313 28.9823 42.11 27.3629C40.4887 25.7434 38.2916 24.8326 36 24.83ZM36 38.12C35.0803 38.12 34.1813 37.8472 33.4166 37.3363C32.6519 36.8253 32.0559 36.0991 31.7039 35.2494C31.352 34.3998 31.2599 33.4648 31.4393 32.5628C31.6187 31.6608 32.0616 30.8322 32.7119 30.1819C33.3622 29.5316 34.1908 29.0887 35.0928 28.9093C35.9948 28.7299 36.9298 28.822 37.7794 29.1739C38.6291 29.5259 39.3554 30.1219 39.8663 30.8866C40.3773 31.6512 40.65 32.5503 40.65 33.47C40.6473 34.7024 40.1566 35.8836 39.2851 36.7551C38.4136 37.6266 37.2324 38.1173 36 38.12Z"/>
<path d="M36 10.71C30.1946 10.7284 24.6319 13.0406 20.524 17.1429C16.4162 21.2451 14.0963 26.8046 14.07 32.61C13.9535 35.9568 14.6717 39.28 16.16 42.28C19 47.46 25.33 53.22 30 57.43C31.07 58.43 32 59.26 32.76 59.97C33.6424 60.8158 34.8176 61.2881 36.04 61.2881C37.2624 61.2881 38.4375 60.8158 39.32 59.97C40 59.26 41 58.39 42 57.42C46.64 53.22 53 47.42 55.8 42.28C57.2882 39.28 58.0064 35.9568 57.89 32.61C57.8637 26.8116 55.5493 21.258 51.4501 17.1569C47.3509 13.0558 41.7984 10.7389 36 10.71ZM52.32 40.37C49.83 44.95 43.53 50.67 39.32 54.46C38.22 55.46 37.25 56.35 36.48 57.08C36.4151 57.1469 36.3374 57.2001 36.2514 57.2361C36.1655 57.2722 36.0732 57.2905 35.98 57.29C35.8836 57.2921 35.7877 57.2746 35.6983 57.2385C35.6089 57.2024 35.5278 57.1484 35.46 57.08C34.69 56.35 33.72 55.46 32.62 54.46C28.45 50.68 22.14 44.95 19.62 40.36C18.4495 37.9499 17.8963 35.2868 18.01 32.61C18.01 27.8546 19.899 23.2941 23.2615 19.9315C26.6241 16.569 31.1846 14.68 35.94 14.68C40.6953 14.68 45.2558 16.569 48.6184 19.9315C51.9809 23.2941 53.87 27.8546 53.87 32.61C54.001 35.2849 53.4686 37.9507 52.32 40.37Z"/>
</symbol>
		<symbol id="lock-outline" viewBox="0 0 72 72">
<path d="M55.06 29.87H52.46V25.22C52.3554 21.0313 50.6181 17.0494 47.6186 14.1238C44.6191 11.1982 40.595 9.56073 36.405 9.56073C32.215 9.56073 28.1909 11.1982 25.1914 14.1238C22.1919 17.0494 20.4545 21.0313 20.35 25.22V29.87H17.74C17.0769 29.87 16.4411 30.1334 15.9722 30.6022C15.5034 31.0711 15.24 31.707 15.24 32.37V53.05C15.2453 55.5485 16.2408 57.9429 18.0084 59.7086C19.776 61.4744 22.1715 62.4674 24.67 62.47H48.14C50.6367 62.4647 53.0296 61.4706 54.7951 59.7051C56.5605 57.9397 57.5547 55.5467 57.56 53.05V32.37C57.56 31.707 57.2966 31.0711 56.8278 30.6022C56.3589 30.1334 55.723 29.87 55.06 29.87ZM25.35 25.22C25.4365 22.3456 26.6391 19.6179 28.7029 17.6152C30.7666 15.6126 33.5293 14.4925 36.405 14.4925C39.2807 14.4925 42.0433 15.6126 44.1071 17.6152C46.1709 19.6179 47.3735 22.3456 47.46 25.22V29.87H25.35V25.22ZM52.56 53.05C52.56 54.2223 52.0943 55.3465 51.2654 56.1754C50.4365 57.0043 49.3122 57.47 48.14 57.47H24.67C23.4968 57.47 22.3715 57.0047 21.541 56.176C20.7105 55.3474 20.2426 54.2232 20.24 53.05V34.87H52.56V53.05Z"/>
<path d="M36.4 50.39C37.2351 50.392 38.0519 50.1462 38.7472 49.6837C39.4425 49.2212 39.985 48.5628 40.3059 47.7919C40.6268 47.0209 40.7118 46.1721 40.5501 45.3529C40.3884 44.5336 39.9873 43.7807 39.3975 43.1896C38.8078 42.5984 38.0558 42.1955 37.237 42.0318C36.4181 41.8682 35.5691 41.9512 34.7974 42.2703C34.0257 42.5894 33.366 43.1303 32.9019 43.8245C32.4378 44.5187 32.19 45.3349 32.19 46.17C32.19 47.2875 32.6332 48.3593 33.4225 49.1505C34.2117 49.9416 35.2825 50.3874 36.4 50.39Z"/>
</symbol>
		<symbol id="log-out" viewBox="0 0 72 72">
<path d="M19.8011 10.8276L17.1688 8.17285C16.9056 7.90738 16 7.90738 16 8.46015V14.5384C16 15.0932 16.9056 15.0932 17.1688 14.8257L19.8011 12.1728C20.0663 11.9054 20.0663 11.0931 19.8011 10.8276Z"/>
<path d="M5.99999 4H12C13.1034 4 14 4.89454 14 6V16C14 17.1035 13.1034 18 12 18H9.99998V20L4 16V14.6875V6.93748V6V4H5.99999ZM9.99923 16H11.9992V6H6.99924L9.99923 8.00004V16Z"/>
</symbol>
		<symbol id="open-eye" viewBox="0 0 72 72">
<path d="M61.69 35.61V35.81C61.69 35.84 61.66 35.8675 61.63 35.895C61.6 35.9225 61.57 35.95 61.57 35.98V36.17V36.36C61.5757 36.4232 61.5757 36.4868 61.57 36.55C61.5545 36.6114 61.5345 36.6716 61.51 36.73L61.42 36.92V37C61 37.74 50.8 54.6 35.95 54.6C21.6665 54.6 11.0245 37.8088 10.5516 37.0625L10.55 37.06C10.5517 37.0234 10.5517 36.9867 10.55 36.95L10.45 36.75L10.39 36.57C10.3687 36.5114 10.352 36.4512 10.34 36.39C10.3351 36.3234 10.3351 36.2566 10.34 36.19C10.3133 36.0648 10.3133 35.9353 10.34 35.81C10.3351 35.7468 10.3351 35.6833 10.34 35.62C10.3507 35.5553 10.3674 35.4917 10.39 35.43L10.45 35.25L10.54 35.06C10.564 35.0221 10.5841 34.9819 10.6 34.94L10.6016 34.9375C11.0745 34.1913 21.7165 17.4 36 17.4C49.8926 17.4 59.732 32.2561 61.3329 34.6732C61.4375 34.8311 61.5069 34.9359 61.54 34.98C61.5454 35.0064 61.5454 35.0336 61.54 35.06L61.63 35.25C61.6545 35.3084 61.6745 35.3686 61.69 35.43C61.6945 35.4899 61.6945 35.5501 61.69 35.61ZM14.71 36C17.18 39.52 25.79 50.6 36 50.6C46.65 50.6 55 39.47 57.32 36C55 32.53 46.62 21.4 36 21.4C25.77 21.4 17.18 32.48 14.71 36ZM41.9623 34.1016C42.4119 33.766 42.7859 33.3396 43.06 32.85C43.164 32.6945 43.3096 32.5713 43.4801 32.4943C43.6507 32.4174 43.8394 32.3899 44.0248 32.4149C44.2103 32.4399 44.3849 32.5164 44.529 32.6358C44.6731 32.7551 44.7809 32.9125 44.84 33.09C45.2339 34.3535 45.3566 35.6859 45.2 37C44.8795 39.3927 43.6383 41.566 41.7403 43.0577C39.8423 44.5495 37.4373 45.242 35.0367 44.988C32.636 44.734 30.4291 43.5535 28.8853 41.6976C27.3415 39.8417 26.5826 37.4568 26.77 35.05C26.9433 33.4459 27.5252 31.9132 28.4602 30.5983C29.3951 29.2834 30.6518 28.2304 32.11 27.54C33.256 26.9716 34.5113 26.6577 35.79 26.62C35.9792 26.6194 36.1648 26.6724 36.325 26.773C36.4853 26.8736 36.6137 27.0176 36.6954 27.1883C36.7771 27.359 36.8087 27.5494 36.7865 27.7373C36.7643 27.9253 36.6892 28.103 36.57 28.25C36.1988 28.6708 35.9203 29.1649 35.7526 29.7003C35.5849 30.2357 35.5316 30.8004 35.5964 31.3578C35.6612 31.9151 35.8424 32.4526 36.1285 32.9353C36.4145 33.4179 36.7989 33.8351 37.2566 34.1595C37.7144 34.484 38.2353 34.7085 38.7854 34.8185C39.3356 34.9285 39.9028 34.9215 40.4501 34.798C40.9974 34.6745 41.5126 34.4372 41.9623 34.1016Z"/>
</symbol>
		<symbol id="restore" viewBox="0 0 72 72">
<path d="M34.94 23.88C34.277 23.88 33.6411 24.1434 33.1722 24.6122C32.7034 25.0811 32.44 25.717 32.44 26.38V37.48C32.4442 38.1424 32.706 38.7772 33.17 39.25L39.31 45.38C39.7821 45.8348 40.414 46.0859 41.0695 46.0793C41.725 46.0727 42.3517 45.8089 42.8146 45.3447C43.2775 44.8805 43.5395 44.2531 43.5443 43.5975C43.549 42.942 43.2961 42.3109 42.84 41.84L37.44 36.44V26.38C37.44 25.717 37.1766 25.0811 36.7078 24.6122C36.2389 24.1434 35.603 23.88 34.94 23.88Z"/>
<path d="M36 10.73C32.2441 10.7317 28.5359 11.571 25.1453 13.1867C21.7547 14.8025 18.7671 17.1539 16.4 20.07L15.77 16.65C15.734 16.3817 15.6439 16.1235 15.5052 15.891C15.3665 15.6585 15.1821 15.4566 14.963 15.2975C14.744 15.1385 14.4949 15.0255 14.231 14.9655C13.967 14.9055 13.6936 14.8997 13.4273 14.9485C13.161 14.9973 12.9074 15.0996 12.6819 15.2493C12.4563 15.399 12.2635 15.5929 12.1151 15.8193C11.9667 16.0457 11.8657 16.2999 11.8185 16.5664C11.7712 16.833 11.7785 17.1063 11.84 17.37L13.33 25.5C13.3343 25.5231 13.3343 25.5468 13.33 25.57C13.33 25.63 13.33 25.69 13.38 25.75C13.399 25.8116 13.4223 25.8717 13.45 25.93C13.4691 25.9818 13.4925 26.032 13.52 26.08L13.62 26.25L13.71 26.37C13.7514 26.4247 13.7983 26.4749 13.85 26.52C13.8814 26.5615 13.9185 26.5985 13.96 26.63C14.0063 26.6785 14.0604 26.7191 14.12 26.75C14.1565 26.7888 14.2008 26.8194 14.25 26.84C14.3032 26.8788 14.3602 26.9123 14.42 26.94L14.57 27C14.637 27.0291 14.7076 27.0493 14.78 27.06H14.91C15.0331 27.0703 15.1569 27.0703 15.28 27.06H15.41L23.65 26.53C24.1804 26.4955 24.6754 26.2517 25.0261 25.8523C25.3768 25.4528 25.5545 24.9304 25.52 24.4C25.4855 23.8695 25.2417 23.3745 24.8423 23.0238C24.4428 22.6732 23.9204 22.4955 23.39 22.53L19.25 22.8C22.3488 18.8406 26.7501 16.107 31.6728 15.0842C36.5955 14.0613 41.7214 14.8154 46.141 17.2127C50.5606 19.6099 53.9881 23.4952 55.8154 28.1793C57.6427 32.8633 57.7515 38.0433 56.1227 42.8C54.4939 47.5567 51.2327 51.5826 46.9178 54.1635C42.6028 56.7443 37.5131 57.7131 32.5518 56.8981C27.5904 56.083 23.0782 53.5368 19.8157 49.7111C16.5532 45.8855 14.7514 41.0278 14.73 36C14.73 35.4695 14.5193 34.9608 14.1442 34.5858C13.7691 34.2107 13.2604 34 12.73 34C12.1995 34 11.6908 34.2107 11.3158 34.5858C10.9407 34.9608 10.73 35.4695 10.73 36C10.73 40.9979 12.212 45.8836 14.9887 50.0392C17.7654 54.1949 21.7121 57.4338 26.3296 59.3464C30.9471 61.259 36.028 61.7595 40.9299 60.7844C45.8318 59.8094 50.3345 57.4026 53.8686 53.8686C57.4026 50.3345 59.8094 45.8318 60.7844 40.9299C61.7595 36.028 61.259 30.9471 59.3464 26.3296C57.4338 21.7121 54.1949 17.7654 50.0392 14.9887C45.8836 12.212 40.9979 10.73 36 10.73Z"/>
</symbol>
		<symbol id="send" viewBox="0 0 72 72"><path d="M4.66 3.12l15.493 7.547c1.128.55 1.128 2.118 0 2.667L4.66 20.88c-.763.372-1.66-.17-1.66-1l.66-5.512c.062-.514.478-.92 1.006-.98l8.17-.83a.56.56 0 0 0 0-1.112l-8.17-.83c-.528-.06-.944-.466-1.006-.98L3 4.12c0-.83.898-1.37 1.66-1z"/></symbol>
		<symbol id="smile" viewBox="0 0 72 72"><path d="M3 12a9.01 9.01 0 0 1 9-9 9.01 9.01 0 0 1 9 9 9.01 9.01 0 0 1-9 9 9.01 9.01 0 0 1-9-9zm1.125 0c0 4.34 3.526 7.875 7.875 7.875 4.34 0 7.875-3.526 7.875-7.875 0-4.34-3.526-7.875-7.875-7.875-4.34 0-7.875 3.526-7.875 7.875zm3.567 1.52a.5.5 0 0 1 .704.068L8 13.905l.386-.318.002.003.012.015.054.062.218.23c.2.194.468.452.807.7.7.524 1.582 1 2.512 1 .936 0 1.843-.463 2.548-.973a6.78 6.78 0 0 0 .827-.7l.224-.225.07-.074v-.003a.5.5 0 1 1 .753.658l-.377-.33.377.33-.001.001h-.002l-.006.006-.02.022-.07.075-.258.26a8.88 8.88 0 0 1-.933.779c-.772.558-1.9 1.163-3.134 1.163-1.25 0-2.357-.626-3.116-1.202-.386-.293-.698-.584-.914-.803l-.252-.268-.068-.078-.02-.022-.007-.01c-.001-.001-.001-.001.385-.32l-.386.318a.5.5 0 0 1 .068-.704zm7.683-3.5c0-.466-.378-.844-.844-.844s-.844.378-.844.844.378.844.844.844.844-.378.844-.844zm-5.062 0c0-.466-.378-.844-.844-.844s-.844.378-.844.844.378.844.844.844.844-.378.844-.844z"/></symbol>
		<symbol id="status" viewBox="0 0 72 72">
<path d="M36 9.5C30.7588 9.5 25.6353 11.0542 21.2774 13.9661C16.9195 16.8779 13.5229 21.0166 11.5172 25.8589C9.51148 30.7011 8.98669 36.0294 10.0092 41.1699C11.0317 46.3104 13.5556 51.0322 17.2617 54.7383C20.9678 58.4444 25.6896 60.9683 30.8301 61.9908C35.9706 63.0133 41.2989 62.4885 46.1411 60.4828C50.9834 58.4771 55.1221 55.0805 58.034 50.7226C60.9458 46.3647 62.5 41.2412 62.5 36C62.4921 28.9742 59.6976 22.2384 54.7296 17.2704C49.7616 12.3024 43.0258 9.50794 36 9.5ZM36 58.72C31.5064 58.72 27.1137 57.3875 23.3775 54.891C19.6412 52.3945 16.7291 48.8461 15.0095 44.6946C13.2898 40.543 12.8399 35.9748 13.7166 31.5675C14.5932 27.1603 16.7571 23.112 19.9345 19.9345C23.112 16.7571 27.1603 14.5932 31.5676 13.7166C35.9748 12.8399 40.543 13.2898 44.6946 15.0095C48.8461 16.7291 52.3945 19.6412 54.891 23.3774C57.3875 27.1137 58.72 31.5064 58.72 36C58.7147 42.0241 56.3193 47.7999 52.0596 52.0596C47.7999 56.3193 42.0241 58.7147 36 58.72Z"/>
<path d="M36 37.4799C36.6596 37.4799 37.2925 37.2193 37.7607 36.7548C38.229 36.2902 38.4947 35.6595 38.5 34.9999V24.9199C38.5 24.2569 38.2366 23.621 37.7678 23.1522C37.2989 22.6833 36.663 22.4199 36 22.4199C35.337 22.4199 34.7011 22.6833 34.2322 23.1522C33.7634 23.621 33.5 24.2569 33.5 24.9199V34.9999C33.5053 35.6595 33.771 36.2902 34.2393 36.7548C34.7075 37.2193 35.3404 37.4799 36 37.4799Z"/>
<path d="M41.07 27.6299C40.6222 28.1181 40.3865 28.7641 40.4146 29.426C40.4427 30.0878 40.7324 30.7115 41.22 31.1599C42.0135 31.8797 42.6469 32.7582 43.0793 33.7384C43.5117 34.7185 43.7334 35.7786 43.73 36.8499C43.73 38.9 42.9156 40.8662 41.466 42.3159C40.0163 43.7655 38.0501 44.5799 36 44.5799C33.9499 44.5799 31.9837 43.7655 30.5341 42.3159C29.0844 40.8662 28.27 38.9 28.27 36.8499C28.2667 35.7786 28.4883 34.7185 28.9207 33.7384C29.3531 32.7582 29.9866 31.8797 30.78 31.1599C31.0356 30.9418 31.2446 30.6745 31.3945 30.3738C31.5444 30.0731 31.6321 29.7453 31.6525 29.4099C31.6729 29.0746 31.6255 28.7386 31.5131 28.4219C31.4007 28.1053 31.2256 27.8146 30.9983 27.5672C30.7711 27.3197 30.4963 27.1206 30.1903 26.9818C29.8844 26.8429 29.5536 26.7672 29.2177 26.759C28.8818 26.7509 28.5478 26.8105 28.2355 26.9344C27.9232 27.0583 27.639 27.2438 27.4 27.4799C25.5088 29.2128 24.1852 31.4767 23.6026 33.9748C23.0201 36.4729 23.2058 39.0887 24.1355 41.4794C25.0652 43.8701 26.6954 45.9242 28.8125 47.3725C30.9296 48.8208 33.4349 49.5957 36 49.5957C38.5651 49.5957 41.0704 48.8208 43.1875 47.3725C45.3047 45.9242 46.9349 43.8701 47.8645 41.4794C48.7942 39.0887 48.9799 36.4729 48.3974 33.9748C47.8149 31.4767 46.4913 29.2128 44.6 27.4799C44.3589 27.257 44.0761 27.0839 43.7678 26.9707C43.4595 26.8575 43.1319 26.8064 42.8038 26.8204C42.4757 26.8343 42.1536 26.913 41.856 27.052C41.5585 27.1909 41.2914 27.3873 41.07 27.6299Z"/>
</symbol>
		<symbol id="tag" viewBox="0 0 72 72"><path d="M14.237 3h5.072c.93 0 1.69.76 1.69 1.69v5.072c0 .93-.538 2.23-1.196 2.886l-7.857 7.857c-.658.658-1.734.658-2.39 0l-6.063-6.063c-.658-.658-.658-1.734 0-2.39l7.857-7.857C12.008 3.538 13.307 3 14.237 3zm1.138 3.938a1.69 1.69 0 0 0 1.688 1.687 1.69 1.69 0 0 0 1.688-1.687 1.69 1.69 0 0 0-1.687-1.688 1.69 1.69 0 0 0-1.687 1.688z"/></symbol>
		<symbol id="talk" viewBox="0 0 72 72">
<path d="M59.56 24.19C58.12 16.89 52.93 11.79 45.34 10.19C42.0487 9.52163 38.6985 9.18661 35.34 9.18997C30.9 9.18997 24.65 9.77997 20.13 12.58C14.45 16.1 11.47 22.9 11.74 31.74C11.91 36.84 13.13 44 18 49.1C21.9 53.16 29.3 55.19 35.12 55.49V59.78C35.12 60.5756 35.4361 61.3387 35.9987 61.9013C36.5613 62.4639 37.3244 62.78 38.12 62.78H38.39C39.009 62.7262 39.596 62.4816 40.07 62.08C40.6766 61.5455 41.3333 60.9732 42.025 60.3703L42.0251 60.3701C43.9218 58.717 46.0824 56.8337 48.2 54.87L49.47 53.69C51.8317 51.6966 53.9708 49.4535 55.85 47C59.86 41.24 61.25 32.72 59.56 24.19ZM52.56 44.68C50.8577 46.8963 48.9271 48.9274 46.8 50.74C46.6844 50.8451 46.5687 50.9496 46.4534 51.0537L46.4531 51.054C46.1299 51.3459 45.8095 51.6352 45.5 51.93C43.32 53.93 41.07 55.93 39.15 57.61V54C39.1474 53.336 38.8818 52.7001 38.4113 52.2316C37.9409 51.763 37.304 51.5 36.64 51.5C31.31 51.5 24.2 49.71 20.92 46.3C16.92 42.1 15.92 35.99 15.74 31.61C15.56 27.23 16.3 19.69 22.25 16C25.16 14.2 29.81 13.21 35.36 13.21C38.4357 13.2048 41.5042 13.5063 44.52 14.11C50.52 15.38 54.52 19.23 55.64 24.96C57.12 32.45 56 39.82 52.57 44.68H52.56ZM47.81 25.9999H24.22C23.5569 25.9999 22.921 26.2633 22.4522 26.7322C21.9834 27.201 21.72 27.8369 21.72 28.4999C21.72 29.163 21.9834 29.7989 22.4522 30.2677C22.921 30.7365 23.5569 30.9999 24.22 30.9999H47.81C48.473 30.9999 49.1089 30.7365 49.5777 30.2677C50.0466 29.7989 50.31 29.163 50.31 28.4999C50.31 27.8369 50.0466 27.201 49.5777 26.7322C49.1089 26.2633 48.473 25.9999 47.81 25.9999ZM24.22 34.6799H39.09C39.753 34.6799 40.3889 34.9433 40.8577 35.4122C41.3266 35.881 41.59 36.5169 41.59 37.1799C41.59 37.843 41.3266 38.4789 40.8577 38.9477C40.3889 39.4165 39.753 39.6799 39.09 39.6799H24.22C23.5569 39.6799 22.921 39.4165 22.4522 38.9477C21.9834 38.4789 21.72 37.843 21.72 37.1799C21.72 36.5169 21.9834 35.881 22.4522 35.4122C22.921 34.9433 23.5569 34.6799 24.22 34.6799Z"/>
</symbol>
		<symbol id="test-bot" viewBox="0 0 72 72">
<path d="M57.67 54.7L47.22 36.6C46.469 35.1438 46.1629 33.4989 46.34 31.87C46.34 31.76 46.34 31.66 46.34 31.55V27.13H48.04C48.6456 27.13 49.2266 26.8901 49.6558 26.4628C50.0849 26.0355 50.3274 25.4556 50.33 24.85V14.49C50.3274 13.8835 50.0853 13.3025 49.6564 12.8736C49.2275 12.4448 48.6465 12.2026 48.04 12.2H23.94C23.3344 12.2027 22.7545 12.4451 22.3272 12.8743C21.8999 13.3034 21.66 13.8844 21.66 14.49V24.85C21.66 25.1494 21.719 25.4459 21.8336 25.7225C21.9481 25.9992 22.1161 26.2505 22.3278 26.4622C22.5395 26.6739 22.7909 26.8419 23.0675 26.9565C23.3441 27.071 23.6406 27.13 23.94 27.13H25.64V31.55C25.64 31.66 25.64 31.76 25.64 31.87C25.8171 33.4989 25.511 35.1438 24.76 36.6L14.33 54.7C14.0318 55.2165 13.8747 55.8024 13.8745 56.3989C13.8743 56.9953 14.031 57.5813 14.3289 58.0981C14.6268 58.6148 15.0553 59.0441 15.5716 59.3428C16.0878 59.6415 16.6736 59.7992 17.27 59.8H54.73C55.3264 59.7992 55.9122 59.6415 56.4284 59.3428C56.9447 59.0441 57.3732 58.6148 57.6711 58.0981C57.969 57.5813 58.1257 56.9953 58.1255 56.3989C58.1253 55.8024 57.9682 55.2165 57.67 54.7ZM26.22 16.77H45.78V22.57H26.22V16.77ZM19.3 55.23L28.73 38.88C29.97 36.5943 30.4861 33.9857 30.21 31.4V27.13H41.79V31.4C41.5139 33.9857 42.03 36.5943 43.27 38.88L52.7 55.23H19.3Z"/>
<path opacity="0.5" d="M53.83 53.6L49 44.24C49 44.24 43.68 47.69 36.73 41.92C29.78 36.15 25.65 39.66 25.65 39.66L17.65 54.66C17.5003 54.9611 17.4288 55.2951 17.4424 55.631C17.4559 55.967 17.5539 56.2942 17.7273 56.5823C17.9008 56.8703 18.144 57.11 18.4347 57.2792C18.7253 57.4483 19.0539 57.5415 19.39 57.55H51.39C51.8604 57.5642 52.3262 57.4542 52.7406 57.2312C53.155 57.0082 53.5034 56.68 53.7507 56.2797C53.9981 55.8793 54.1356 55.4208 54.1495 54.9505C54.1634 54.4801 54.0532 54.0143 53.83 53.6ZM30.59 51C29.9037 51 29.2328 50.7965 28.6622 50.4152C28.0915 50.0339 27.6468 49.492 27.3841 48.8579C27.1215 48.2239 27.0528 47.5262 27.1867 46.853C27.3206 46.1799 27.6511 45.5616 28.1363 45.0763C28.6216 44.5911 29.2399 44.2606 29.913 44.1267C30.5862 43.9928 31.2839 44.0615 31.9179 44.3241C32.552 44.5868 33.0939 45.0315 33.4752 45.6022C33.8565 46.1728 34.06 46.8437 34.06 47.53C34.06 48.4503 33.6944 49.3329 33.0437 49.9837C32.3929 50.6344 31.5103 51 30.59 51Z"/>
<path opacity="0.5" d="M34.06 37.76C35.264 37.76 36.24 36.784 36.24 35.58C36.24 34.376 35.264 33.4 34.06 33.4C32.856 33.4 31.88 34.376 31.88 35.58C31.88 36.784 32.856 37.76 34.06 37.76Z"/>
<path opacity="0.5" d="M38.71 32.53C39.4942 32.53 40.13 31.8942 40.13 31.11C40.13 30.3258 39.4942 29.69 38.71 29.69C37.9258 29.69 37.29 30.3258 37.29 31.11C37.29 31.8942 37.9258 32.53 38.71 32.53Z"/>
</symbol>
		<symbol id="triangle-arrow-down" viewBox="0 0 72 72"><path d="M2 8l10 9 10-9H2z"/></symbol>
		<symbol id="triangle-arrow-left" viewBox="0 0 72 72"><path d="M16.5 21.5l-9-10 9-10v20z"/></symbol>
		<symbol id="triangle-arrow-right" viewBox="0 0 72 72"><path d="M7.5 1.5l9 10-9 10v-20z"/></symbol>
		<symbol id="triangle-arrow-up" viewBox="0 0 72 72"><path d="M2 16l10-9 10 9H2z"/></symbol>
		<symbol id="true" viewBox="0 0 72 72">
<path d="M30.13 49.23C29.4985 49.2322 28.8902 48.9924 28.43 48.56L16.8 37.78C16.3133 37.3291 16.0257 36.7034 16.0004 36.0404C15.975 35.3775 16.2141 34.7317 16.665 34.245C17.1159 33.7583 17.7416 33.4707 18.4045 33.4454C19.0675 33.42 19.7133 33.6591 20.2 34.11L30.12 43.31L52 22.73C52.4827 22.2751 53.1263 22.0307 53.7892 22.0504C54.4522 22.0701 55.0801 22.3523 55.535 22.835C55.9898 23.3177 56.2343 23.9613 56.2146 24.6242C56.1949 25.2872 55.9127 25.9151 55.43 26.37L31.85 48.55C31.3841 48.9873 30.769 49.2305 30.13 49.23Z"/>
</symbol>
		<symbol id="txt-file" viewBox="0 0 72 72">
<path d="M57.64 25.19C57.6446 25.1468 57.6446 25.1032 57.64 25.06C57.612 24.8962 57.5685 24.7355 57.51 24.58C57.4423 24.4375 57.3584 24.3033 57.26 24.18C57.26 24.18 57.26 24.18 57.26 24.13L46.75 11.84C46.6292 11.6993 46.4875 11.5779 46.33 11.48H46.27C46.129 11.3996 45.9776 11.3391 45.82 11.3C45.7869 11.2942 45.7531 11.2942 45.72 11.3C45.5734 11.2597 45.422 11.2395 45.27 11.24H20C18.5121 11.24 17.0852 11.831 16.0331 12.8831C14.9811 13.9352 14.39 15.3621 14.39 16.85V55.35C14.4162 56.8205 15.0188 58.2218 16.0681 59.2524C17.1173 60.2829 18.5293 60.8602 20 60.86H52.1C53.5879 60.86 55.0148 60.2689 56.0669 59.2169C57.119 58.1648 57.71 56.7379 57.71 55.25V25.37C57.692 25.3081 57.6686 25.2478 57.64 25.19ZM48.07 23.19C47.8931 23.1874 47.7242 23.116 47.5991 22.9909C47.474 22.8658 47.4026 22.6969 47.4 22.52L47.33 18.67L51.24 23.26L48.07 23.19ZM53.66 55.19C53.66 55.617 53.4904 56.0265 53.1885 56.3284C52.8865 56.6304 52.477 56.8 52.05 56.8H20C19.573 56.8 19.1635 56.6304 18.8616 56.3284C18.5596 56.0265 18.39 55.617 18.39 55.19V16.75C18.39 16.323 18.5596 15.9135 18.8616 15.6116C19.1635 15.3096 19.573 15.14 20 15.14H43.26L43.4 22.62C43.4232 23.8309 43.9159 24.9854 44.7742 25.8399C45.6324 26.6944 46.7891 27.1821 48 27.2L53.68 27.33L53.66 55.19Z"/>
<path d="M24.59 31H35.38C35.9105 31 36.4192 30.7893 36.7942 30.4142C37.1693 30.0391 37.38 29.5304 37.38 29C37.38 28.4696 37.1693 27.9609 36.7942 27.5858C36.4192 27.2107 35.9105 27 35.38 27H24.59C24.0596 27 23.5509 27.2107 23.1758 27.5858C22.8007 27.9609 22.59 28.4696 22.59 29C22.59 29.5304 22.8007 30.0391 23.1758 30.4142C23.5509 30.7893 24.0596 31 24.59 31Z"/>
<path d="M46.31 36.3H24.59C24.0596 36.3 23.5509 36.5108 23.1758 36.8858C22.8007 37.2609 22.59 37.7696 22.59 38.3C22.59 38.8305 22.8007 39.3392 23.1758 39.7143C23.5509 40.0893 24.0596 40.3 24.59 40.3H46.31C46.8405 40.3 47.3492 40.0893 47.7242 39.7143C48.0993 39.3392 48.31 38.8305 48.31 38.3C48.31 37.7696 48.0993 37.2609 47.7242 36.8858C47.3492 36.5108 46.8405 36.3 46.31 36.3Z"/>
<path d="M46.31 45.5699H24.59C24.0596 45.5699 23.5509 45.7807 23.1758 46.1557C22.8007 46.5308 22.59 47.0395 22.59 47.5699C22.59 48.1004 22.8007 48.6091 23.1758 48.9842C23.5509 49.3592 24.0596 49.5699 24.59 49.5699H46.31C46.8405 49.5699 47.3492 49.3592 47.7242 48.9842C48.0993 48.6091 48.31 48.1004 48.31 47.5699C48.31 47.0395 48.0993 46.5308 47.7242 46.1557C47.3492 45.7807 46.8405 45.5699 46.31 45.5699Z"/>
</symbol>
		<symbol id="user-none" viewBox="0 0 72 72">
<path d="M36 9.88C30.402 9.87962 24.952 11.6777 20.4533 15.0093C15.9546 18.3408 12.6453 23.0295 11.0131 28.3843C9.38089 33.739 9.51222 39.4765 11.3877 44.7509C13.2632 50.0254 16.7836 54.5578 21.43 57.68C25.7381 60.5738 30.8102 62.1192 36 62.1192C41.1897 62.1192 46.2619 60.5738 50.57 57.68C55.2164 54.5578 58.7368 50.0254 60.6123 44.7509C62.4878 39.4765 62.6191 33.739 60.9869 28.3843C59.3547 23.0295 56.0454 18.3408 51.5467 15.0093C47.048 11.6777 41.598 9.87962 36 9.88ZM50.46 52.75L50.28 52.4C50.22 52.27 50.16 52.15 50.09 52.03C50.02 51.91 49.85 51.58 49.72 51.36C49.59 51.14 49.6 51.16 49.53 51.06C49.34 50.75 49.13 50.45 48.92 50.16C48.7 49.86 48.47 49.58 48.22 49.3C48.15 49.21 48.06 49.13 47.98 49.04L47.46 48.5L47.15 48.22L46.63 47.76L46.3 47.49C46.11 47.34 45.92 47.2 45.72 47.07L45.4 46.84L44.69 46.4L44.46 46.26C44.14 46.08 43.81 45.91 43.46 45.76L43.21 45.65C42.95 45.54 42.69 45.43 42.43 45.34L42.05 45.21L41.36 45L41 44.87C40.77 44.81 40.53 44.76 40.3 44.72L39.88 44.64C39.63 44.64 39.37 44.56 39.12 44.54H38.75C38.3713 44.5001 37.9908 44.48 37.61 44.48H34.44C34.0592 44.48 33.6787 44.5001 33.3 44.54H32.93C32.68 44.54 32.42 44.6 32.17 44.64L31.75 44.72C31.52 44.72 31.28 44.81 31.05 44.87L30.64 44.98L30 45.2L29.62 45.32L28.84 45.64L28.59 45.75C28.26 45.9 27.93 46.07 27.59 46.25L27.36 46.39L26.65 46.83L26.33 47.05L25.75 47.48L25.42 47.75L24.89 48.21L24.59 48.49L24 49C23.92 49.09 23.83 49.17 23.76 49.26C23.51 49.54 23.28 49.82 23.06 50.12C22.85 50.4 22.64 50.7 22.45 51.01C22.3809 51.1097 22.3174 51.2132 22.26 51.32C22.13 51.53 22.01 51.75 21.89 51.97C21.77 52.19 21.76 52.23 21.7 52.35L21.52 52.7C18.1052 49.7502 15.6743 45.8266 14.5534 41.4557C13.4324 37.0847 13.6751 32.4755 15.2488 28.2464C16.8225 24.0173 19.6519 20.3707 23.3575 17.7957C27.0631 15.2208 31.4676 13.8407 35.98 13.8407C40.4924 13.8407 44.8969 15.2208 48.6025 17.7957C52.3081 20.3707 55.1375 24.0173 56.7112 28.2464C58.2849 32.4755 58.5276 37.0847 57.4066 41.4557C56.2857 45.8266 53.8547 49.7502 50.44 52.7L50.46 52.75Z"/>
<path d="M36 22.41C33.9985 22.41 32.0419 23.0036 30.3776 24.1156C28.7134 25.2276 27.4163 26.8081 26.6503 28.6573C25.8844 30.5065 25.684 32.5413 26.0745 34.5043C26.4649 36.4674 27.4288 38.2706 28.8441 39.686C30.2594 41.1013 32.0626 42.0651 34.0257 42.4556C35.9888 42.8461 38.0236 42.6457 39.8728 41.8797C41.722 41.1137 43.3025 39.8166 44.4145 38.1524C45.5265 36.4882 46.12 34.5316 46.12 32.53C46.1174 29.8469 45.0503 27.2743 43.153 25.377C41.2557 23.4797 38.6832 22.4127 36 22.41Z"/>
</symbol>
		<symbol id="blip-logo-full" width="247" height="88">
<path d="M38.6321 4.3C44.1339 4.3 49.9358 4.9 54.8374 5.9C65.2408 8 72.143 14.7 74.1437 24.6C75.3441 30.6 75.5441 36.9 74.7439 42.7C73.8436 49.1 71.8429 54.6 68.7419 59C66.041 62.8 62.2398 66.3 58.5386 69.6C57.7383 70.3 56.9381 71 56.2378 71.7C52.8367 74.9 49.3356 78 46.0345 80.8V76C46.0345 73.2 43.7338 70.8 40.8328 70.8C31.7299 70.8 18.9257 67.6 13.2238 61.8C6.22155 54.5 4.42096 43.9 4.2209 36.2C4.12086 28.8 5.22122 15.5 15.5246 9.1C20.6262 6 28.8289 4.3 38.6321 4.3ZM38.6321 0C29.4291 0 19.826 1.5 13.3239 5.5C2.82044 12 -0.280569 24.7 0.0195285 36.4C0.319626 46.5 3.02051 57.4 10.2229 64.8C17.1251 71.9 31.2297 75.1 40.8328 75.1C41.233 75.1 41.7331 75.4 41.7331 76V86.2C41.7331 87.2 42.5334 88 43.5337 88C43.6337 88 43.6337 88 43.7338 88C44.1339 88 44.434 87.8 44.7341 87.6C49.6357 83.5 54.4373 79.2 59.1388 74.9C63.6403 70.7 68.7419 66.5 72.2431 61.5C79.6455 51 80.7458 36.1 78.3451 23.8C75.9443 11.9 67.5415 4.2 55.7377 1.8C50.8361 0.7 44.8341 0 38.6321 0Z" fill="#00BCD4"/>
<path d="M102.653 8.20001H117.858C120.659 8.20001 123.26 8.50001 125.56 9.00001C127.861 9.50001 129.862 10.3 131.562 11.4C133.263 12.5 134.563 13.9 135.464 15.6C136.364 17.3 136.864 19.4 136.864 21.8C136.864 24.6 136.064 27.1 134.463 29.3C132.863 31.5 130.462 33.1 127.161 33.9V34.2C131.262 34.8 134.363 36.2 136.664 38.4C138.965 40.6 140.065 43.6 140.065 47.4C140.065 50.1 139.565 52.5 138.565 54.5C137.564 56.5 136.164 58.2 134.263 59.6C132.463 61 130.262 62 127.661 62.6C125.06 63.3 122.259 63.6 119.158 63.6H102.653V8.20001ZM116.758 31.9C121.459 31.9 124.86 31.1 126.961 29.4C129.062 27.8 130.062 25.4 130.062 22.3C130.062 19.3 128.962 17.1 126.761 15.7C124.56 14.4 121.359 13.7 117.058 13.7H109.755V31.8H116.758V31.9ZM118.158 58.1C122.96 58.1 126.661 57.2 129.262 55.4C131.862 53.6 133.163 50.8 133.163 47.1C133.163 43.7 131.862 41.1 129.362 39.5C126.861 37.9 123.06 37.1 118.158 37.1H109.755V58.1H118.158Z" fill="#546E7A"/>
<path d="M148.868 8.20001H155.77V57.7H183.279V63.7H148.868V8.20001Z" fill="#546E7A"/>
<path d="M173.776 24.2H199.785V63.7H192.882V29.9H173.776V24.2Z" fill="#546E7A"/>
<path d="M194.883 17.7C193.483 17.7 192.282 17.3 191.382 16.4C190.482 15.6 189.981 14.4 189.981 13C189.981 11.6 190.482 10.4 191.382 9.50001C192.282 8.60001 193.483 8.20001 194.883 8.20001C196.283 8.20001 197.484 8.60001 198.384 9.50001C199.284 10.4 199.785 11.5 199.785 13C199.785 14.4 199.284 15.6 198.384 16.4C197.484 17.3 196.283 17.7 194.883 17.7Z" fill="#546E7A"/>
<path d="M209.488 8.20001H226.493C229.494 8.20001 232.295 8.50001 234.896 9.00001C237.397 9.60001 239.598 10.5 241.398 11.7C243.199 13 244.599 14.6 245.499 16.7C246.5 18.8 247 21.4 247 24.4C247 27.3 246.5 29.9 245.499 32C244.499 34.1 243.099 35.9 241.298 37.3C239.498 38.7 237.297 39.8 234.796 40.5C232.295 41.2 229.494 41.6 226.493 41.6H216.49V63.6H209.488V8.20001ZM225.493 36C230.395 36 233.996 35.1 236.397 33.3C238.697 31.5 239.898 28.6 239.898 24.6C239.898 20.6 238.697 17.8 236.296 16.3C233.896 14.8 230.295 14 225.493 14H216.49V36H225.493Z" fill="#546E7A"/>
</symbol>
		<symbol id="blip-logo-rounded" width="128" height="128">
<path d="M64 117.333C93.4551 117.333 117.333 93.4552 117.333 64C117.333 34.5448 93.4551 10.6667 64 10.6667C34.5448 10.6667 10.6666 34.5448 10.6666 64C10.6666 93.4552 34.5448 117.333 64 117.333Z" fill="url(#paint0_linear)"/>
<path fill-rule="evenodd" clip-rule="evenodd" d="M63.1124 31.3632C55.9103 31.3632 48.4461 32.5376 43.3597 35.7303C35.1095 40.9048 32.6957 51.0102 32.9773 60.315C33.2197 68.3619 35.3388 77.0027 40.9688 82.9479C46.3401 88.6161 57.3841 91.165 64.9138 91.165C65.2544 91.165 65.6147 91.4152 65.6147 91.879V99.9993C65.6147 100.8 66.2271 101.424 67.0132 101.424C67.059 101.424 67.1016 101.414 67.1442 101.411C67.4422 101.384 67.7042 101.27 67.9138 101.094C71.7098 97.7908 75.5025 94.4278 79.1641 90.9715C82.6751 87.6553 86.6512 84.249 89.3958 80.2789C95.1864 71.905 96.0445 60.0647 94.1252 50.2496C92.278 40.8047 85.6916 34.6561 76.4588 32.6977C72.6596 31.8937 67.9466 31.3632 63.1124 31.3632ZM63.1124 34.7628C67.4389 34.7628 71.9358 35.2099 75.7809 36.0239C83.9623 37.7587 89.314 43.0467 90.8533 50.9135C91.7933 55.721 91.9636 60.712 91.3479 65.346C90.6666 70.4537 89.0913 74.8175 86.6676 78.3205C84.5911 81.3265 81.5976 84.1056 78.7023 86.7946C78.0931 87.3584 77.4872 87.9222 76.8944 88.4794C74.2055 91.0216 71.4838 93.4703 68.9488 95.7056V91.879C68.9488 89.6103 67.1409 87.7687 64.9138 87.7687C57.7673 87.7687 47.7878 85.2499 43.3695 80.5892C37.8705 74.7808 36.4949 66.3001 36.3115 60.2115C36.1346 54.3198 37.0419 43.6839 45.1119 38.6228C49.0782 36.134 55.4714 34.7628 63.1124 34.7628Z" fill="white"/>
<defs>
<linearGradient id="paint0_linear" x1="48.1044" y1="19.6095" x2="105.617" y2="137.433" gradientUnits="userSpaceOnUse">
<stop stop-color="#25DDE0"/>
<stop offset="0.66204" stop-color="#22C6CA"/>
<stop offset="1" stop-color="#0AC8FF"/>
</linearGradient>
</defs>
</symbol>
		<symbol id="business-chat-logo-rounded" width="128" height="128">
<g clip-path="url(#clip0)">
<path d="M64 117.333C93.4552 117.333 117.333 93.4552 117.333 64C117.333 34.5448 93.4552 10.6667 64 10.6667C34.5448 10.6667 10.6667 34.5448 10.6667 64C10.6667 93.4552 34.5448 117.333 64 117.333Z" fill="url(#paint0_linear)"/>
<path fill-rule="evenodd" clip-rule="evenodd" d="M56.2201 85.9657C53.3198 87.4601 48.7154 89.0271 42.407 90.6666C45.325 88.1542 47.3641 85.6701 48.5244 83.2144C40.3449 79.0499 34.9095 71.6819 34.9095 63.2871C34.9095 50.2921 47.9339 39.7575 64.0004 39.7575C80.0669 39.7575 93.0913 50.2921 93.0913 63.2871C93.0913 76.2821 80.0669 86.8166 64.0004 86.8166C61.3057 86.8166 58.6966 86.5202 56.2201 85.9657Z" fill="white"/>
</g>
<defs>
<linearGradient id="paint0_linear" x1="64" y1="10.6667" x2="64" y2="117.333" gradientUnits="userSpaceOnUse">
<stop stop-color="#5CFF78"/>
<stop offset="1" stop-color="#00B705"/>
</linearGradient>
<clipPath id="clip0">
<rect width="106.667" height="106.667" fill="white" transform="translate(10.6667 10.6667)"/>
</clipPath>
</defs>
</symbol>
		<symbol id="dialogflow-logo" width="128" height="128">
<path d="M21.3659 37.0715C21.4961 36.2692 21.6914 35.5311 22.1145 34.8251C24.5879 35.6595 26.7033 37.1678 28.9489 38.4515C40.2746 44.8057 51.5353 51.2561 62.7959 57.7066C63.577 58.1559 64.0977 58.1559 64.8462 57.7387C67.4498 56.2304 70.1185 54.8183 72.7221 53.31C83.7224 47.0521 94.6901 40.7621 105.658 34.5042C106.406 35.5632 106.667 36.7185 106.667 38.0022C106.667 51.4166 106.667 64.831 106.667 78.2775C106.667 80.9411 105.463 83.0271 103.119 84.375C84.178 95.1578 65.2368 105.941 46.2955 116.724C45.9375 116.948 45.547 117.141 45.189 117.333C44.9611 117.333 44.7659 117.333 44.5381 117.333C43.0735 116.691 42.6179 115.568 42.6179 114.028C42.683 107.995 42.6179 101.961 42.683 95.9281C42.683 94.9011 42.3901 94.3235 41.4463 93.7779C36.0763 90.7933 30.7715 87.7125 25.4015 84.6959C23.0257 83.3801 21.6588 81.4867 21.3334 78.8552C21.3334 64.9273 21.3334 50.9994 21.3659 37.0715Z" fill="#F16C00"/>
<path d="M105.658 34.5363C94.6903 40.7942 83.69 47.0842 72.7223 53.3421C70.1187 54.8183 67.45 56.2625 64.8464 57.7708C64.1304 58.188 63.5771 58.188 62.796 57.7387C51.5354 51.2882 40.2748 44.8378 28.9491 38.4836C26.7035 37.1999 24.5881 35.6916 22.1146 34.8572C22.7004 33.4131 23.8395 32.4182 25.1739 31.6801C36.825 25.005 48.5087 18.362 60.1924 11.751C62.6333 10.3711 65.1718 10.2748 67.6127 11.6548C79.4917 18.362 91.3381 25.1333 103.185 31.9047C104.259 32.5145 105.235 33.2847 105.658 34.5363Z" fill="#FF9900"/>
</symbol>
		<symbol id="facebook-messenger-logo">
<!-- Generator: Adobe Illustrator 22.0.1, SVG Export Plug-In . SVG Version: 6.00 Build 0)  -->
<svg version="1.1" id="Layer_1" xmlns="http://www.w3.org/2000/svg" xmlns:xlink="http://www.w3.org/1999/xlink" x="0px" y="0px"
	 viewBox="0 0 1024 1024" style="enable-background:new 0 0 1024 1024;" xml:space="preserve">
<style type="text/css">
	.st0{fill-rule:evenodd;clip-rule:evenodd;fill:url(#Bubble_Solid_1_);}
	.st1{fill-rule:evenodd;clip-rule:evenodd;fill:#FFFFFF;}
</style>
<g id="Messenger_4_">
	<linearGradient id="Bubble_Solid_1_" gradientUnits="userSpaceOnUse" x1="512" y1="11.5" x2="512" y2="1005.4999">
		<stop  offset="0" style="stop-color:#00B2FF"/>
		<stop  offset="1" style="stop-color:#006AFF"/>
	</linearGradient>
	<path id="Bubble_Solid_3_" class="st0" d="M512,11.5c-280,0-497,205.1-497,482.1c0,144.9,59.4,270.1,156.1,356.6
		c8.1,7.3,13,17.4,13.4,28.3l2.7,88.4c0.9,28.2,30,46.5,55.8,35.2l98.6-43.5c8.4-3.7,17.7-4.4,26.5-2
		c45.3,12.5,93.6,19.1,143.9,19.1c280,0,497-205.1,497-482.1S792,11.5,512,11.5z"/>
	<path id="Bolt_4_" class="st1" d="M213.6,634.6l146-231.6c23.2-36.8,73-46,107.8-19.9l116.1,87.1c10.7,8,25.3,7.9,35.9-0.1
		l156.8-119c20.9-15.9,48.3,9.2,34.2,31.4L664.5,614c-23.2,36.8-73,46-107.8,19.9l-116.1-87.1c-10.7-8-25.3-7.9-35.9,0.1L247.8,666
		C226.9,681.9,199.5,656.8,213.6,634.6z"/>
</g>
</symbol>
		<symbol id="infobip-logo" width="128" height="128">
<path d="M64 117.333C93.4551 117.333 117.333 93.4552 117.333 64C117.333 34.5448 93.4551 10.6667 64 10.6667C34.5448 10.6667 10.6666 34.5448 10.6666 64C10.6666 93.4552 34.5448 117.333 64 117.333Z" fill="url(#paint0_linear)"/>
<path fill-rule="evenodd" clip-rule="evenodd" d="M78.8031 29.112C78.2994 32.6062 77.8387 36.1095 77.229 39.5863C77.1648 39.9522 76.2246 40.4017 75.6855 40.4091C71.0127 40.4743 66.3387 40.444 61.6654 40.4485C58.6848 40.4511 58.1405 40.9531 57.7613 43.9021C57.5014 45.9228 57.2158 47.9409 56.9024 49.9542C56.5683 52.0977 57.0042 52.6665 59.2471 52.6794C63.9743 52.7071 68.7015 52.69 73.4291 52.6913C74.0056 52.6916 74.5818 52.6913 75.3688 52.6913C74.9107 56.094 74.5047 59.2703 74.0523 62.4398C72.8235 71.0427 71.578 79.6433 70.3327 88.2439C69.9026 91.2171 69.4934 94.1945 68.9727 97.1522C68.8918 97.6126 68.2682 98.3287 67.888 98.3332C62.5721 98.3987 57.2545 98.3623 51.9372 98.3403C51.794 98.3397 51.6515 98.2204 51.2952 98.0604C51.6854 95.3065 52.0762 92.5065 52.4795 89.7087C54.1568 78.0763 55.8409 66.4454 57.5147 54.8126C57.7865 52.9209 57.3838 52.443 55.3356 52.4311C49.8565 52.3995 44.3771 52.4182 38.8976 52.4169C38.2611 52.4169 37.6246 52.4169 36.7408 52.4169C37.1852 49.2474 37.6008 46.2455 38.0286 43.2453C38.4014 40.629 38.4072 40.6297 41.0015 40.6297C46.4271 40.6294 51.8534 40.5849 57.2783 40.6561C58.8969 40.6774 59.6434 40.0383 59.8488 38.4877C60.2299 35.6142 60.6397 32.7429 61.1301 29.8865C61.2014 29.4731 61.7831 28.8321 62.1329 28.8292C67.5021 28.7834 72.8719 28.8257 78.2414 28.8544C78.3372 28.855 78.4326 28.9382 78.8031 29.112Z" fill="white"/>
<defs>
<linearGradient id="paint0_linear" x1="64" y1="117.333" x2="39.7685" y2="30.5419" gradientUnits="userSpaceOnUse">
<stop stop-color="#EB6405"/>
<stop offset="1" stop-color="#FF8D00"/>
</linearGradient>
</defs>
</symbol>
		<symbol id="mailgun-logo" width="128" height="128">
<g clip-path="url(#clip0)">
<path d="M64 117.333C93.4551 117.333 117.333 93.4552 117.333 64C117.333 34.5448 93.4551 10.6667 64 10.6667C34.5448 10.6667 10.6666 34.5448 10.6666 64C10.6666 93.4552 34.5448 117.333 64 117.333Z" fill="url(#paint0_linear)"/>
<path fill-rule="evenodd" clip-rule="evenodd" d="M44.8069 47.2483C40.8796 47.2483 37.6958 50.432 37.6958 54.3594V72.0487C37.6958 75.9761 40.8796 79.1598 44.8069 79.1598H83.1928C87.1201 79.1598 90.3039 75.9761 90.3039 72.0487V54.3594C90.3039 50.432 87.1201 47.2483 83.1928 47.2483H44.8069ZM32.9551 54.3594C32.9551 47.8138 38.2613 42.5075 44.8069 42.5075H83.1928C89.7384 42.5075 95.0446 47.8138 95.0446 54.3594V72.0487C95.0446 78.5943 89.7384 83.9006 83.1928 83.9006H44.8069C38.2613 83.9006 32.9551 78.5943 32.9551 72.0487V54.3594Z" fill="white"/>
<path fill-rule="evenodd" clip-rule="evenodd" d="M38.7391 50.4677C37.7287 50.4677 37.3548 51.8602 38.1935 52.4248L62.1067 68.9393C63.3192 69.7778 64.8753 69.7884 66.0879 68.9393L89.7868 52.446C90.9549 51.6967 89.7666 49.8563 88.6753 50.6757L64.9743 67.169C64.3135 67.6318 63.8831 67.6275 63.2162 67.169L39.311 50.6481C39.1393 50.5314 38.9453 50.4677 38.7391 50.4677Z" fill="white" stroke="white" stroke-width="0.5"/>
</g>
<defs>
<linearGradient id="paint0_linear" x1="114.883" y1="103.359" x2="32.2587" y2="21.9167" gradientUnits="userSpaceOnUse">
<stop stop-color="#18A1D6"/>
<stop offset="1" stop-color="#0AC1FF"/>
</linearGradient>
<clipPath id="clip0">
<rect width="106.667" height="106.667" fill="white" transform="translate(10.6666 10.6667)"/>
</clipPath>
</defs>
</symbol>
		<symbol id="skype-logo" width="128" height="128">
<rect x="34.4167" y="32.0205" width="56.9964" height="66.4518" fill="white"/>
<path fill-rule="evenodd" clip-rule="evenodd" d="M84.7763 84.8261C82.9048 87.4857 80.1635 89.5751 76.5534 91.0756C72.9457 92.5903 68.6684 93.3417 63.7214 93.3417C57.7884 93.3417 52.8983 92.3129 49.0406 90.2531C46.3123 88.7716 44.0888 86.7888 42.3786 84.3153C40.6731 81.8442 39.8186 79.4359 39.8186 77.0951C39.8186 75.7417 40.3294 74.579 41.3546 73.6154C42.3786 72.6424 43.6859 72.16 45.2693 72.16C46.554 72.16 47.6444 72.5346 48.5297 73.2931C49.421 74.048 50.1795 75.1609 50.8041 76.646C51.5721 78.4036 52.397 79.8756 53.2883 81.0537C54.1736 82.2353 55.4275 83.2119 57.0346 83.9763C58.65 84.7384 60.7703 85.126 63.3931 85.126C66.9997 85.126 69.933 84.358 72.1884 82.8077C74.4414 81.2682 75.5745 79.3351 75.5745 77.0229C75.5745 75.1906 74.9629 73.6972 73.7481 72.5606C72.5297 71.4146 70.9582 70.5423 69.0311 69.9402C67.104 69.3346 64.5285 68.6934 61.3001 68.0166C56.9813 67.0922 53.3665 65.9983 50.458 64.7574C47.5484 63.5117 45.2349 61.8181 43.5294 59.6706C41.8192 57.5183 40.9671 54.8492 40.9671 51.6623C40.9671 48.6187 41.8654 45.92 43.674 43.5603C45.4767 41.1971 48.0841 39.3802 51.5057 38.1108C54.9226 36.8415 58.9392 36.2098 63.5591 36.2098C67.2474 36.2098 70.4403 36.6329 73.1318 37.4697C75.8234 38.3123 78.0539 39.4323 79.8317 40.8261C81.6094 42.2223 82.9108 43.6836 83.7274 45.2172C84.5487 46.7437 84.9588 48.2477 84.9588 49.696C84.9588 51.027 84.448 52.2347 83.4216 53.299C82.3988 54.3669 81.1211 54.9049 79.5911 54.9049C78.1926 54.9049 77.133 54.5814 76.41 53.9402C75.6859 53.299 74.8977 52.2513 74.0539 50.7935C72.9588 48.71 71.6515 47.0815 70.1143 45.9165C68.5831 44.7443 66.1274 44.1624 62.7354 44.1624C59.597 44.1624 57.0595 44.7906 55.1324 46.0634C53.2041 47.3292 52.2406 48.8593 52.2406 50.643C52.2406 51.7429 52.5724 52.704 53.2266 53.5076C53.8773 54.3147 54.7828 54.9986 55.9336 55.5781C57.0773 56.1541 58.24 56.6069 59.4145 56.9387C60.5902 57.2646 62.5303 57.7399 65.242 58.368C68.6269 59.0969 71.693 59.904 74.4414 60.7799C77.1887 61.6617 79.5259 62.7295 81.453 63.9799C83.3801 65.2397 84.8853 66.8314 85.9638 68.755C87.0423 70.6726 87.5851 73.03 87.5851 75.8187C87.5851 79.1586 86.6441 82.1606 84.7763 84.8261ZM110.139 64.1197C110.139 37.8596 88.8497 16.5713 62.5884 16.5713C60.1327 16.5713 57.741 16.8083 55.3848 17.1698C50.6453 13.1236 44.506 10.6596 37.7825 10.6596C22.81 10.6596 10.6666 22.7983 10.6666 37.779C10.6666 43.8886 12.7158 49.51 16.1303 54.0445C15.4323 57.2966 15.04 60.659 15.04 64.1197C15.04 90.3858 36.3247 111.675 62.5884 111.675C65.9638 111.675 69.2539 111.307 72.429 110.637C77.1911 114.797 83.4062 117.326 90.2174 117.326C105.193 117.326 117.333 105.188 117.333 90.214C117.333 82.8077 114.363 76.1055 109.548 71.2166C109.899 68.8889 110.139 66.5351 110.139 64.1197Z" fill="#00AFF0"/>
</symbol>
		<symbol id="sms-logo" width="128" height="128">
<path fill-rule="evenodd" clip-rule="evenodd" d="M111.135 68.2994C109.04 79.7611 100.309 105.088 63.9112 117.333C63.9112 117.333 66.4625 113.666 67.7849 107.411C66.5359 107.51 65.2735 107.56 63.9997 107.56C37.5324 107.56 16 85.8271 16 59.1133C16 32.3996 37.5324 10.6667 63.9997 10.6667C90.4676 10.6667 112 32.3996 112 59.1133C112 62.2532 111.703 65.3243 111.135 68.2994Z" fill="url(#paint0_linear)"/>
<path d="M47.1602 53.997C46.7844 53.504 46.2489 53.0963 45.5538 52.7739C44.8774 52.4326 44.1916 52.2619 43.4965 52.2619C43.0832 52.2619 42.6698 52.3188 42.2565 52.4326C41.8431 52.5274 41.4674 52.6886 41.1292 52.9162C40.791 53.1247 40.5092 53.4092 40.2837 53.7695C40.0771 54.1108 39.9737 54.528 39.9737 55.021C39.9737 55.4762 40.0677 55.8649 40.2556 56.1873C40.4434 56.5096 40.6971 56.7846 41.0165 57.0122C41.3547 57.2397 41.7586 57.4388 42.2283 57.6095C42.698 57.7802 43.2147 57.9508 43.7783 58.1215C44.4171 58.3301 45.0747 58.5671 45.7511 58.8326C46.4462 59.0981 47.0756 59.4489 47.6392 59.885C48.2217 60.3212 48.6914 60.8711 49.0484 61.5348C49.4241 62.1985 49.612 63.0234 49.612 64.0095C49.612 65.0904 49.4147 66.0385 49.0202 66.8539C48.6256 67.6504 48.0996 68.3141 47.442 68.845C46.7844 69.376 46.0141 69.7742 45.1311 70.0397C44.248 70.3052 43.318 70.4379 42.341 70.4379C41.0447 70.4379 39.7765 70.2009 38.5365 69.7268C37.2964 69.2338 36.2819 68.5132 35.4928 67.565L38.0292 65.1757C38.5177 65.8584 39.1659 66.3988 39.9737 66.797C40.8004 67.1953 41.6083 67.3944 42.3974 67.3944C42.8107 67.3944 43.2335 67.347 43.6656 67.2522C44.0977 67.1384 44.4829 66.9582 44.821 66.7117C45.178 66.4652 45.4598 66.1618 45.6665 65.8015C45.892 65.4222 46.0047 64.9576 46.0047 64.4077C46.0047 63.8767 45.8826 63.4406 45.6383 63.0993C45.3941 62.739 45.0653 62.4356 44.652 62.189C44.2386 61.9236 43.7501 61.696 43.1865 61.5064C42.6229 61.3167 42.031 61.1176 41.411 60.909C40.8098 60.7194 40.2086 60.4919 39.6074 60.2264C39.0062 59.9609 38.4613 59.6101 37.9728 59.1739C37.5031 58.7378 37.118 58.2068 36.8174 57.581C36.5167 56.9363 36.3664 56.1399 36.3664 55.1917C36.3664 54.1677 36.5731 53.2859 36.9864 52.5464C37.4186 51.8068 37.9728 51.2 38.6492 50.7259C39.3443 50.2329 40.124 49.8726 40.9883 49.645C41.8713 49.3985 42.7638 49.2753 43.6656 49.2753C44.6801 49.2753 45.7041 49.4554 46.7374 49.8157C47.7896 50.176 48.7008 50.7165 49.4711 51.437L47.1602 53.997Z" fill="white"/>
<path d="M53.1691 49.7873H58.7209L63.9064 64.0948H63.991L69.1201 49.7873H74.7002V69.9259H71.1774V53.741H71.121L65.0619 69.9259H62.5819L56.6073 53.741H56.5509V69.9259H53.1691V49.7873Z" fill="white"/>
<path d="M89.2681 53.997C88.8923 53.504 88.3568 53.0963 87.6617 52.7739C86.9853 52.4326 86.2996 52.2619 85.6044 52.2619C85.1911 52.2619 84.7777 52.3188 84.3644 52.4326C83.9511 52.5274 83.5753 52.6886 83.2371 52.9162C82.8989 53.1247 82.6171 53.4092 82.3917 53.7695C82.185 54.1108 82.0816 54.528 82.0816 55.021C82.0816 55.4762 82.1756 55.8649 82.3635 56.1873C82.5513 56.5096 82.805 56.7846 83.1244 57.0122C83.4626 57.2397 83.8665 57.4388 84.3362 57.6095C84.8059 57.7802 85.3226 57.9508 85.8862 58.1215C86.525 58.3301 87.1826 58.5671 87.859 58.8326C88.5541 59.0981 89.1835 59.4489 89.7472 59.885C90.3296 60.3212 90.7993 60.8711 91.1563 61.5348C91.532 62.1985 91.7199 63.0234 91.7199 64.0095C91.7199 65.0904 91.5226 66.0385 91.1281 66.8539C90.7335 67.6504 90.2075 68.3141 89.5499 68.845C88.8923 69.376 88.122 69.7742 87.239 70.0397C86.3559 70.3052 85.4259 70.4379 84.4489 70.4379C83.1526 70.4379 81.8844 70.2009 80.6444 69.7268C79.4044 69.2338 78.3898 68.5132 77.6007 67.565L80.1371 65.1757C80.6256 65.8584 81.2738 66.3988 82.0816 66.797C82.9083 67.1953 83.7162 67.3944 84.5053 67.3944C84.9186 67.3944 85.3414 67.347 85.7735 67.2522C86.2056 67.1384 86.5908 66.9582 86.929 66.7117C87.2859 66.4652 87.5677 66.1618 87.7744 65.8015C87.9999 65.4222 88.1126 64.9576 88.1126 64.4077C88.1126 63.8767 87.9905 63.4406 87.7462 63.0993C87.502 62.739 87.1732 62.4356 86.7599 62.189C86.3465 61.9236 85.858 61.696 85.2944 61.5064C84.7308 61.3167 84.1389 61.1176 83.5189 60.909C82.9177 60.7194 82.3165 60.4919 81.7153 60.2264C81.1141 59.9609 80.5692 59.6101 80.0807 59.1739C79.611 58.7378 79.2259 58.2068 78.9253 57.581C78.6247 56.9363 78.4743 56.1399 78.4743 55.1917C78.4743 54.1677 78.681 53.2859 79.0944 52.5464C79.5265 51.8068 80.0807 51.2 80.7571 50.7259C81.4523 50.2329 82.2319 49.8726 83.0962 49.645C83.9792 49.3985 84.8717 49.2753 85.7735 49.2753C86.788 49.2753 87.812 49.4554 88.8453 49.8157C89.8975 50.176 90.8087 50.7165 91.579 51.437L89.2681 53.997Z" fill="white"/>
<defs>
<linearGradient id="paint0_linear" x1="38.635" y1="92.4705" x2="115.401" y2="41.9329" gradientUnits="userSpaceOnUse">
<stop stop-color="#4063B0"/>
<stop offset="1" stop-color="#3F7BE1"/>
</linearGradient>
</defs>
</symbol>
		<symbol id="telegram-logo" width="128" height="128">
<g clip-path="url(#clip0)">
<path d="M64.2067 116.92C93.5477 116.92 117.333 93.1343 117.333 63.7933C117.333 34.4523 93.5477 10.6667 64.2067 10.6667C34.8657 10.6667 11.0801 34.4523 11.0801 63.7933C11.0801 93.1343 34.8657 116.92 64.2067 116.92Z" fill="url(#paint0_linear)"/>
<path fill-rule="evenodd" clip-rule="evenodd" d="M48.2892 67.3074L53.6012 82.4847C53.6766 82.7002 53.9125 82.8137 54.128 82.7383C54.2625 82.6912 54.3633 82.5782 54.3947 82.4392L56.9714 71.0284L81.7776 47.049L51.1832 62.3462L48.2892 67.3074Z" fill="url(#paint1_linear)"/>
<path fill-rule="evenodd" clip-rule="evenodd" d="M54.9473 82.8333L67.3072 74.3359L63.1728 68.1343L56.9713 70.615L54.3098 82.4016C54.2595 82.6243 54.3993 82.8456 54.622 82.8959C54.7344 82.9213 54.8523 82.8986 54.9473 82.8333Z" fill="#A9C9DD"/>
<g filter="url(#filter0_f)">
<path fill-rule="evenodd" clip-rule="evenodd" d="M49.116 69.3747L77.2297 49.9431L71.855 49.1163L49.116 65.2403V69.3747Z" fill="#B8CEE1"/>
</g>
<path fill-rule="evenodd" clip-rule="evenodd" d="M38.7805 60.1202L83.897 43.1564C84.7519 42.835 85.7055 43.2674 86.0269 44.1223C86.1389 44.4202 86.1626 44.7441 86.0951 45.055L77.7726 83.4111C77.5789 84.3037 76.6983 84.8703 75.8058 84.6766C75.5768 84.6269 75.361 84.5292 75.1727 84.3898L57.3478 71.1994C56.9807 70.9278 56.9034 70.41 57.175 70.0429C57.2032 70.0048 57.2345 69.9693 57.2688 69.9366L76.4016 51.6734C76.732 51.3581 76.7441 50.8347 76.4288 50.5043C76.1487 50.2109 75.697 50.164 75.3626 50.3937L49.9157 67.8693C49.6762 68.0337 49.368 68.0605 49.1038 67.9397L38.675 63.1722C37.8443 62.7925 37.4788 61.8113 37.8585 60.9806C38.0401 60.5833 38.3716 60.274 38.7805 60.1202Z" fill="url(#paint2_linear)"/>
</g>
<defs>
<filter id="filter0_f" x="45.7175" y="45.7178" width="34.9106" height="27.0553" filterUnits="userSpaceOnUse" color-interpolation-filters="sRGB">
<feFlood flood-opacity="0" result="BackgroundImageFix"/>
<feBlend mode="normal" in="SourceGraphic" in2="BackgroundImageFix" result="shape"/>
<feGaussianBlur stdDeviation="1.69922" result="effect1_foregroundBlur"/>
</filter>
<linearGradient id="paint0_linear" x1="64.2067" y1="10.6667" x2="64.2067" y2="116.92" gradientUnits="userSpaceOnUse">
<stop stop-color="#39B0E3"/>
<stop offset="1" stop-color="#1C93D2"/>
</linearGradient>
<linearGradient id="paint1_linear" x1="62.1022" y1="54.6564" x2="65.3445" y2="60.6451" gradientUnits="userSpaceOnUse">
<stop stop-color="#C1D5E7"/>
<stop offset="1" stop-color="#C8DAEA"/>
</linearGradient>
<linearGradient id="paint2_linear" x1="86.1327" y1="43.0502" x2="32.866" y2="80.6594" gradientUnits="userSpaceOnUse">
<stop stop-color="#F8FCFE"/>
<stop offset="1" stop-color="#E3F1F9"/>
</linearGradient>
<clipPath id="clip0">
<rect width="106.667" height="106.667" fill="white" transform="translate(10.6666 10.6667)"/>
</clipPath>
</defs>
</symbol>
		<symbol id="whatsapp-logo" width="128" height="128">
<path fill-rule="evenodd" clip-rule="evenodd" d="M35.8849 103.638C23.8135 108.027 17.7778 110.222 17.7778 110.222C17.7778 110.222 20.1761 104.466 24.9725 92.9549C18.9631 84.8682 15.4075 74.8493 15.4075 64C15.4075 37.163 37.1631 15.4074 64.0001 15.4074C90.837 15.4074 112.593 37.163 112.593 64C112.593 90.8369 90.837 112.593 64.0001 112.593C53.5233 112.593 43.8209 109.277 35.8849 103.638Z" fill="url(#paint0_linear)"/>
<path d="M117.333 62.6264C117.333 91.3232 93.8915 114.586 64.9694 114.586C55.7878 114.586 47.162 112.239 39.6574 108.121L10.6666 117.333L20.1185 89.4554C15.3505 81.6261 12.6044 72.4432 12.6044 62.6264C12.6044 33.9295 36.0486 10.6667 64.9694 10.6667C93.8939 10.6667 117.333 33.9295 117.333 62.6264ZM64.9694 18.9416C40.6921 18.9416 20.9446 38.5387 20.9446 62.6264C20.9446 72.1849 24.0604 81.037 29.3309 88.2382L23.8305 104.462L40.749 99.085C47.7001 103.649 56.0272 106.311 64.9706 106.311C89.2444 106.311 108.996 86.7164 108.996 62.6287C108.996 38.541 89.2456 18.9416 64.9694 18.9416ZM91.4121 74.5932C91.0885 74.0634 90.234 73.7434 88.9517 73.107C87.6669 72.4705 81.3546 69.3878 80.1813 68.9647C79.0044 68.5404 78.1463 68.3271 77.2918 69.6012C76.4373 70.8764 73.9768 73.7434 73.2266 74.5932C72.4776 75.4453 71.7297 75.552 70.445 74.9144C69.1626 74.2779 65.0275 72.9315 60.1244 68.5938C56.3093 65.2184 53.7327 61.0513 52.9837 59.7748C52.2358 58.5007 52.9054 57.8121 53.5466 57.1781C54.125 56.6068 54.8314 55.6907 55.4726 54.9475C56.1161 54.2032 56.3294 53.6735 56.7549 52.8225C57.1851 51.9727 56.9706 51.2296 56.6483 50.5908C56.3283 49.9544 53.7588 43.6871 52.6897 41.1366C51.6207 38.5884 50.5528 39.0127 49.8026 39.0127C49.0548 39.0127 48.1979 38.9061 47.3422 38.9061C46.4865 38.9061 45.0951 39.2249 43.9182 40.499C42.7425 41.7742 39.4275 44.8557 39.4275 51.1218C39.4275 57.389 44.0248 63.4441 44.6684 64.2927C45.3096 65.1413 53.5454 78.4201 66.5943 83.52C79.6444 88.6175 79.6444 86.9167 81.9982 86.7034C84.3496 86.4912 89.5905 83.6231 90.6643 80.6507C91.7309 77.6735 91.7309 75.1241 91.4121 74.5932Z" fill="white"/>
<defs>
<linearGradient id="paint0_linear" x1="64.0001" y1="15.4074" x2="64.0001" y2="112.593" gradientUnits="userSpaceOnUse">
<stop stop-color="#5CFB7A"/>
<stop offset="1" stop-color="#00B824"/>
</linearGradient>
</defs>
</symbol>
		<symbol id="workplace-logo" width="128" height="128">
<path fill-rule="evenodd" clip-rule="evenodd" d="M35.1365 108.856L13.1473 114.853L17.9378 90.9005C13.3158 83.0032 10.6667 73.811 10.6667 64C10.6667 34.5448 34.5448 10.6667 64 10.6667C93.4552 10.6667 117.333 34.5448 117.333 64C117.333 93.4552 93.4552 117.333 64 117.333C53.3646 117.333 43.4562 114.22 35.1365 108.856Z" fill="url(#paint0_linear)"/>
<path fill-rule="evenodd" clip-rule="evenodd" d="M62.7454 23.0698H68.7314C79.7109 24.0931 90.1173 30.2022 95.9606 39.6056C104.403 52.4476 103.236 70.7945 92.9827 82.2959C90.1385 85.6114 84.3156 84.7724 82.5763 80.7515C79.7003 74.4777 77.4294 67.9397 74.7279 61.5958C72.17 67.7244 69.8982 73.9877 67.2473 80.0853C66.0919 83.3405 62.1721 85.4377 58.9186 83.9333C56.4528 83.0119 55.2966 80.4849 54.3654 78.2237C50.7221 69.0446 46.9875 59.8973 43.2936 50.7287C46.2813 50.7181 49.269 50.7287 52.2673 50.7181C55.255 58.096 58.2231 65.4943 61.2312 72.8616C63.4825 67.3257 65.6825 61.7695 67.8825 56.2132C68.8749 53.7164 70.1746 50.913 72.9683 50.0633C76.0473 48.9071 79.384 51.0973 80.55 53.9415C83.5075 60.6336 85.9733 67.541 88.8485 74.2641C91.7546 69.3104 93.5861 63.6523 93.2697 57.8506C92.9623 45.1007 82.6277 33.4761 69.9904 31.7165C54.9582 29.4447 39.6504 39.7491 35.3221 54.1771C31.0754 66.9473 35.9051 81.9078 46.6499 89.9502C54.4159 96.202 65.0889 98.2186 74.6464 95.4445C74.6358 98.2993 74.6252 101.155 74.6358 104C72.8451 104.316 71.0643 104.654 69.2736 104.93H63.1547C52.8503 103.948 42.8843 99.2509 36.0283 91.4237C29.9298 84.7626 26.5018 76.0131 25.5502 67.0909V61.2272C26.3892 52.1818 29.8784 43.3101 36.0389 36.5568C42.8019 28.8307 52.6155 24.2057 62.7454 23.0698Z" fill="white"/>
<defs>
<linearGradient id="paint0_linear" x1="64" y1="10.6667" x2="64" y2="117.333" gradientUnits="userSpaceOnUse">
<stop stop-color="#03C9FF"/>
<stop offset="1" stop-color="#0780FC"/>
</linearGradient>
</defs>
</symbol>
	</defs>
</svg>
