<svg width="18" height="14" viewBox="0 0 18 14" fill="none" xmlns="http://www.w3.org/2000/svg">
<path d="M16 0.170044H1.99996C1.5205 0.170927 1.06098 0.362012 0.722256 0.701357C0.383536 1.0407 0.193298 1.50058 0.193298 1.98004V12.02C0.193298 12.4995 0.383536 12.9594 0.722256 13.2987C1.06098 13.6381 1.5205 13.8292 1.99996 13.83H16C16.4797 13.8292 16.9396 13.6382 17.2789 13.2989C17.6181 12.9597 17.8091 12.4998 17.81 12.02V1.98004C17.8091 1.50027 17.6181 1.0404 17.2789 0.701154C16.9396 0.361904 16.4797 0.170925 16 0.170044ZM14.27 1.83671L9.57663 6.00004C9.37989 6.16469 9.13151 6.2549 8.87496 6.2549C8.61842 6.2549 8.37004 6.16469 8.1733 6.00004L3.48996 1.83671H14.27ZM16 12.17H1.99996C1.9813 12.17 1.96281 12.1663 1.94561 12.1591C1.9284 12.1518 1.91282 12.1412 1.89977 12.1279C1.88673 12.1145 1.87649 12.0987 1.86965 12.0813C1.86281 12.0639 1.85952 12.0454 1.85996 12.0267V2.62671L7.0633 7.25338C7.56542 7.68956 8.20817 7.92975 8.8733 7.92975C9.53842 7.92975 10.1812 7.68956 10.6833 7.25338L16.13 2.40004V12.02C16.1301 12.0559 16.1169 12.0904 16.0928 12.117C16.0687 12.1435 16.0356 12.16 16 12.1634V12.17Z" fill="#2CC3D5"/>
</svg>
