<svg width="192" height="27" viewBox="0 0 192 27" fill="none" xmlns="http://www.w3.org/2000/svg">
<path d="M11.5207 1.46201C13.1614 1.46201 14.8916 1.64094 16.3533 1.93916C19.4558 2.56541 21.5141 4.56345 22.1108 7.51577C22.4687 9.30506 22.5284 11.1838 22.2897 12.9135C22.0213 14.822 21.4246 16.4622 20.4999 17.7744C19.6944 18.9076 18.5608 19.9513 17.4571 20.9354C17.2184 21.1442 16.9798 21.3529 16.771 21.5617C15.7567 22.516 14.7126 23.4405 13.7282 24.2755V22.844C13.7282 22.009 13.0421 21.2933 12.177 21.2933C9.46232 21.2933 5.64392 20.339 3.94354 18.6094C1.85536 16.4324 1.3184 13.2713 1.25873 10.9751C1.2289 8.76828 1.55705 4.80202 4.62966 2.89344C6.15105 1.96898 8.59721 1.46201 11.5207 1.46201ZM11.5207 0.179688C8.7762 0.179688 5.9124 0.62701 3.97337 1.81987C0.841098 3.75827 -0.0836699 7.5456 0.0058237 11.0347C0.0953173 14.0467 0.90076 17.2972 3.04861 19.504C5.10696 21.6213 9.31316 22.5756 12.177 22.5756C12.2963 22.5756 12.4454 22.6651 12.4454 22.844V25.8858C12.4454 26.184 12.6841 26.4226 12.9824 26.4226C13.0122 26.4226 13.0122 26.4226 13.0421 26.4226C13.1614 26.4226 13.2509 26.363 13.3404 26.3033C14.8021 25.0806 16.234 23.7983 17.6361 22.516C18.9785 21.2635 20.4999 20.011 21.544 18.5199C23.7515 15.3886 24.0796 10.9452 23.3637 7.2772C22.6477 3.72844 20.1419 1.43219 16.6218 0.716474C15.1601 0.388438 13.3702 0.179688 11.5207 0.179688Z" fill="white"/>
<path d="M30.6126 2.625H35.147C35.9822 2.625 36.7578 2.71446 37.444 2.86357C38.1301 3.01268 38.7267 3.25125 39.2338 3.57929C39.741 3.90732 40.1288 4.32483 40.3972 4.83179C40.6657 5.33876 40.8149 5.96501 40.8149 6.68072C40.8149 7.51572 40.5762 8.26126 40.0989 8.91734C39.6216 9.57341 38.9057 10.0506 37.9213 10.2891V10.3786C39.1443 10.5575 40.0691 10.975 40.7552 11.6311C41.4413 12.2872 41.7695 13.1818 41.7695 14.315C41.7695 15.1202 41.6203 15.8359 41.322 16.4324C41.0237 17.0288 40.6061 17.5357 40.0393 17.9532C39.5023 18.3707 38.846 18.669 38.0704 18.8479C37.2948 19.0566 36.4595 19.1461 35.5348 19.1461H30.6126V2.625ZM34.8188 9.69269C36.2209 9.69269 37.2351 9.45412 37.8616 8.94716C38.4881 8.47001 38.7864 7.7543 38.7864 6.82983C38.7864 5.93519 38.4582 5.27911 37.8019 4.86161C37.1456 4.47393 36.191 4.26518 34.9083 4.26518H32.7306V9.66287H34.8188V9.69269ZM35.2364 17.5059C36.6683 17.5059 37.7721 17.2375 38.5477 16.7007C39.3233 16.164 39.7111 15.329 39.7111 14.2256C39.7111 13.2116 39.3233 12.4363 38.5775 11.9591C37.8318 11.482 36.6982 11.2434 35.2364 11.2434H32.7306V17.5059H35.2364Z" fill="white"/>
<path d="M44.3947 2.62506H46.453V17.3867H54.6566V19.176H44.3947V2.62506Z" fill="white"/>
<path d="M51.8226 7.39648H59.5788V19.176H57.5204V9.09631H51.8226V7.39648Z" fill="white"/>
<path d="M58.117 5.4581C57.6994 5.4581 57.3414 5.33882 57.0729 5.07042C56.8045 4.83185 56.6553 4.47399 56.6553 4.05649C56.6553 3.63899 56.8045 3.28113 57.0729 3.01274C57.3414 2.74435 57.6994 2.62506 58.117 2.62506C58.5347 2.62506 58.8926 2.74435 59.1611 3.01274C59.4296 3.28113 59.5788 3.60917 59.5788 4.05649C59.5788 4.47399 59.4296 4.83185 59.1611 5.07042C58.8926 5.33882 58.5347 5.4581 58.117 5.4581Z" fill="white"/>
<path d="M62.4724 2.62506H67.5437C68.4387 2.62506 69.2739 2.71453 70.0495 2.86363C70.7953 3.04256 71.4516 3.31096 71.9886 3.66881C72.5255 4.05649 72.9432 4.53364 73.2116 5.15989C73.51 5.78614 73.6591 6.5615 73.6591 7.45614C73.6591 8.32097 73.51 9.09632 73.2116 9.72258C72.9133 10.3488 72.4957 10.8856 71.9587 11.3031C71.4218 11.7206 70.7655 12.0487 70.0197 12.2574C69.2739 12.4662 68.4387 12.5854 67.5437 12.5854H64.5606V19.1462H62.4724V2.62506ZM67.2454 10.9154C68.7071 10.9154 69.7811 10.647 70.497 10.1103C71.1831 9.57347 71.5411 8.70865 71.5411 7.51579C71.5411 6.32293 71.1831 5.48792 70.4672 5.0406C69.7512 4.59328 68.6773 4.35471 67.2454 4.35471H64.5606V10.9154H67.2454Z" fill="white"/>
<path d="M108.544 7.62271H109.65V17.247H108.544V12.8376H102.784V17.247H101.678V7.62271H102.784V11.882H108.544V7.62271ZM112.023 17.247V7.62271H118.112V8.55101H113.129V11.8956H117.839V12.8239H113.129V16.3187H118.112V17.247H112.023ZM119.969 17.247V7.62271H121.088V16.2914H125.907V17.247H119.969ZM127.341 7.62271H131.15C132.16 7.62271 132.943 7.86844 133.498 8.35989C134.062 8.85135 134.344 9.54757 134.344 10.4486C134.344 11.3496 134.062 12.0503 133.498 12.5509C132.934 13.0515 132.151 13.3017 131.15 13.3017H128.46V17.247H127.341V7.62271ZM131.041 12.3734C132.506 12.3734 133.238 11.7318 133.238 10.4486C133.238 9.18353 132.506 8.55101 131.041 8.55101H128.46V12.3734H131.041ZM143.768 17.3562C142.858 17.3562 142.067 17.1605 141.393 16.7692C140.72 16.3688 140.201 15.8 139.837 15.0628C139.482 14.3165 139.304 13.4382 139.304 12.428C139.304 11.4178 139.482 10.5441 139.837 9.80695C140.201 9.06977 140.72 8.50551 141.393 8.11417C142.067 7.71372 142.858 7.5135 143.768 7.5135C144.433 7.5135 145.043 7.61816 145.598 7.82748C146.153 8.02771 146.635 8.32804 147.045 8.72848L146.622 9.58853C146.157 9.19718 145.702 8.91505 145.256 8.74213C144.81 8.56922 144.319 8.48276 143.782 8.48276C142.726 8.48276 141.907 8.82859 141.325 9.52027C140.751 10.2028 140.465 11.1721 140.465 12.428C140.465 13.6931 140.751 14.6714 141.325 15.3631C141.907 16.0457 142.726 16.387 143.782 16.387C144.319 16.387 144.81 16.3005 145.256 16.1276C145.702 15.9547 146.157 15.6725 146.622 15.2812L147.045 16.1412C146.635 16.5417 146.153 16.8466 145.598 17.0559C145.043 17.2561 144.433 17.3562 143.768 17.3562ZM148.898 17.247V7.62271H154.987V8.55101H150.004V11.8956H154.714V12.8239H150.004V16.3187H154.987V17.247H148.898ZM163.506 7.62271H164.557V17.247H163.697L157.895 9.50662V17.247H156.844V7.62271H157.704L163.506 15.3631V7.62271ZM169.256 17.247V8.57832H165.912V7.62271H173.748V8.57832H170.389V17.247H169.256ZM175.095 17.247V7.62271H181.183V8.55101H176.2V11.8956H180.91V12.8239H176.2V16.3187H181.183V17.247H175.095ZM190.617 17.247H189.388L187.75 14.1618C187.55 13.7886 187.313 13.5338 187.04 13.3973C186.776 13.2517 186.412 13.1789 185.948 13.1789H184.146V17.247H183.04V7.62271H186.999C188.046 7.62271 188.842 7.85479 189.388 8.31894C189.943 8.78309 190.221 9.46566 190.221 10.3667C190.221 11.1129 190.007 11.7182 189.579 12.1823C189.161 12.6374 188.56 12.924 187.777 13.0424C188.023 13.1152 188.237 13.238 188.419 13.4109C188.61 13.5839 188.783 13.8159 188.938 14.1072L190.617 17.247ZM186.903 12.2506C187.65 12.2506 188.205 12.0958 188.569 11.7864C188.942 11.477 189.129 11.0083 189.129 10.3803C189.129 9.76144 188.947 9.30184 188.583 9.00151C188.219 8.70118 187.659 8.55101 186.903 8.55101H184.146V12.2506H186.903Z" fill="white"/>
<line x1="90.5584" y1="5.48859" x2="90.5584" y2="20.8342" stroke="white" stroke-width="0.613826"/>
</svg>
