<svg width="72" height="72" viewBox="0 0 72 72" fill="none" xmlns="http://www.w3.org/2000/svg">
<path d="M10.6932 36.3312C10.2442 36.3312 9.81349 36.5096 9.49594 36.8271C9.17839 37.1447 9 37.5753 9 38.0244V58.2463C9 58.6954 9.17839 59.126 9.49594 59.4436C9.81349 59.7611 10.2442 59.9395 10.6932 59.9395C11.1423 59.9395 11.573 59.7611 11.8906 59.4436C12.2081 59.126 12.3865 58.6954 12.3865 58.2463V38.0244C12.3865 37.5753 12.2081 37.1447 11.8906 36.8271C11.573 36.5096 11.1423 36.3312 10.6932 36.3312Z" fill="#0496FF"/>
<path d="M17.1449 30.3259C16.6958 30.3259 16.2651 30.5043 15.9476 30.8218C15.6301 31.1394 15.4517 31.57 15.4517 32.0191V61.5561C15.4517 62.0052 15.6301 62.4358 15.9476 62.7534C16.2651 63.0709 16.6958 63.2493 17.1449 63.2493C17.594 63.2493 18.0247 63.0709 18.3422 62.7534C18.6598 62.4358 18.8382 62.0052 18.8382 61.5561V32.0191C18.8382 31.57 18.6598 31.1394 18.3422 30.8218C18.0247 30.5043 17.594 30.3259 17.1449 30.3259Z" fill="#03A4EA"/>
<path d="M23.5966 24.1974C23.1475 24.1974 22.7168 24.3758 22.3993 24.6933C22.0817 25.0109 21.9033 25.4416 21.9033 25.8906V58.2463C21.9033 58.6954 22.0817 59.1261 22.3993 59.4436C22.7168 59.7611 23.1475 59.9395 23.5966 59.9395C24.0456 59.9395 24.4763 59.7611 24.7939 59.4436C25.1114 59.1261 25.2898 58.6954 25.2898 58.2463V25.8906C25.2898 25.4416 25.1114 25.0109 24.7939 24.6933C24.4763 24.3758 24.0456 24.1974 23.5966 24.1974Z" fill="#01B7CA"/>
<path d="M30.0482 15.1284C29.5991 15.1284 29.1685 15.3068 28.8509 15.6244C28.5334 15.9419 28.355 16.3726 28.355 16.8217V52.364C28.355 52.8131 28.5334 53.2438 28.8509 53.5613C29.1685 53.8789 29.5991 54.0573 30.0482 54.0573C30.4973 54.0573 30.928 53.8789 31.2455 53.5613C31.5631 53.2438 31.7415 52.8131 31.7415 52.364V16.8217C31.7415 16.3726 31.5631 15.9419 31.2455 15.6244C30.928 15.3068 30.4973 15.1284 30.0482 15.1284Z" fill="#00BFB5"/>
<path d="M62.3068 36.3312C61.8577 36.3312 61.427 36.5096 61.1095 36.8271C60.7919 37.1447 60.6135 37.5753 60.6135 38.0244V58.2463C60.6135 58.6954 60.7919 59.126 61.1095 59.4436C61.427 59.7611 61.8577 59.9395 62.3068 59.9395C62.7558 59.9395 63.1865 59.7611 63.5041 59.4436C63.8216 59.126 64 58.6954 64 58.2463V38.0244C64 37.5753 63.8216 37.1447 63.5041 36.8271C63.1865 36.5096 62.7558 36.3312 62.3068 36.3312Z" fill="#FFD800"/>
<path d="M55.8556 30.3259C55.4065 30.3259 54.9758 30.5043 54.6583 30.8218C54.3407 31.1394 54.1624 31.57 54.1624 32.0191V61.5561C54.1624 62.0052 54.3407 62.4358 54.6583 62.7534C54.9758 63.0709 55.4065 63.2493 55.8556 63.2493C56.3047 63.2493 56.7354 63.0709 57.0529 62.7534C57.3705 62.4358 57.5488 62.0052 57.5488 61.5561V32.0191C57.5488 31.57 57.3705 31.1394 57.0529 30.8218C56.7354 30.5043 56.3047 30.3259 55.8556 30.3259Z" fill="#D8D805"/>
<path d="M49.4035 24.1974C48.9544 24.1974 48.5237 24.3758 48.2061 24.6933C47.8886 25.0109 47.7102 25.4416 47.7102 25.8906V58.2463C47.7102 58.6954 47.8886 59.1261 48.2061 59.4436C48.5237 59.7611 48.9544 59.9395 49.4035 59.9395C49.8525 59.9395 50.2832 59.7611 50.6008 59.4436C50.9183 59.1261 51.0967 58.6954 51.0967 58.2463V25.8906C51.0967 25.4416 50.9183 25.0109 50.6008 24.6933C50.2832 24.3758 49.8525 24.1974 49.4035 24.1974Z" fill="#87D34E"/>
<path d="M42.9523 15.1284C42.5032 15.1284 42.0725 15.3068 41.755 15.6244C41.4374 15.9419 41.259 16.3726 41.259 16.8217V52.364C41.259 52.8131 41.4374 53.2438 41.755 53.5613C42.0725 53.8789 42.5032 54.0573 42.9523 54.0573C43.4014 54.0573 43.832 53.8789 44.1496 53.5613C44.4671 53.2438 44.6455 52.8131 44.6455 52.364V16.8217C44.6455 16.3726 44.4671 15.9419 44.1496 15.6244C43.832 15.3068 43.4014 15.1284 42.9523 15.1284Z" fill="#00D273"/>
<path d="M36.5004 9C36.0513 9 35.6206 9.17839 35.3031 9.49594C34.9855 9.81349 34.8071 10.2442 34.8071 10.6932V46.2356C34.8071 46.6847 34.9855 47.1154 35.3031 47.4329C35.6206 47.7504 36.0513 47.9288 36.5004 47.9288C36.9495 47.9288 37.3801 47.7504 37.6977 47.4329C38.0152 47.1154 38.1936 46.6847 38.1936 46.2356V10.6932C38.1936 10.2442 38.0152 9.81349 37.6977 9.49594C37.3801 9.17839 36.9495 9 36.5004 9V9Z" fill="#00CF96"/>
</svg>
