<svg width="559" height="441" viewBox="0 0 559 441" fill="none" xmlns="http://www.w3.org/2000/svg">
<path opacity="0.3" d="M243.631 304.206L2.62646 390.716L130.302 440.581L346.689 333.062L243.631 304.206Z" fill="#E7EEF1"/>
<path d="M297.476 181.855C297.476 181.855 325.651 215.178 334.456 222.451" stroke="#CB8591" stroke-width="15.2616" stroke-linecap="round" stroke-linejoin="round"/>
<path d="M354.431 173.977C354.431 173.977 382.607 207.301 391.411 214.573" stroke="#CB8591" stroke-width="15.2616" stroke-linecap="round" stroke-linejoin="round"/>
<path d="M124.556 292.02L127.444 438.867L130.302 440.581L135.198 294.914L124.556 292.02Z" fill="url(#paint0_linear)"/>
<path d="M130.302 440.581L135.198 438.292L144.589 292.449L135.198 294.914L130.302 440.581Z" fill="#262C39"/>
<g opacity="0.5">
<path opacity="0.5" d="M124.556 292.02L127.444 438.867L130.302 440.581L135.198 294.914L124.556 292.02Z" fill="#343C4C"/>
</g>
<path d="M337.344 235.887L339.88 333.561L342.392 335.07L346.689 238.423L337.344 235.887Z" fill="#343C4C"/>
<path d="M342.392 335.07L346.689 333.062L353.527 237.542L345.274 239.708L342.392 335.07Z" fill="#282F3B"/>
<path d="M0.0205078 258.286L2.62673 390.716L5.2036 392.266L9.61774 260.892L0.0205078 258.286Z" fill="#343C4C"/>
<path d="M5.20312 392.266L9.61726 390.2L18.0875 258.674L9.61726 260.892L5.20312 392.266Z" fill="url(#paint1_linear)"/>
<g opacity="0.5">
<path opacity="0.5" d="M5.20312 392.266L9.61726 390.2L18.0875 258.674L9.61726 260.892L5.20312 392.266Z" fill="#262C39"/>
</g>
<path d="M235.866 223.495L237.973 304.623L240.063 305.873L243.632 225.603L235.866 223.495Z" fill="#343C4C"/>
<path d="M240.062 305.873L243.631 304.206L249.308 224.875L242.457 226.671L240.062 305.873Z" fill="#282F3B"/>
<path d="M0.0205078 251.976V258.175L135.879 295.131V286.462L0.0205078 251.976Z" fill="#F3C29F"/>
<path d="M135.878 286.098V295.131L356.38 236.926L356.568 232.036L135.878 286.098Z" fill="#EDB58D"/>
<path d="M240.391 224C235.499 223.665 230.586 223.787 225.717 224.364L0.607366 251.231C0.447 251.252 0.29893 251.328 0.188426 251.446C0.0779224 251.564 0.0118352 251.717 0.00144369 251.878C-0.0089478 252.04 0.0370006 252.2 0.131447 252.331C0.225893 252.462 0.362982 252.557 0.519318 252.598L135.262 286.385C135.647 286.485 136.051 286.485 136.436 286.385L356.556 232.036L240.391 224Z" fill="#F8D8C1"/>
<path d="M255.729 113.606L138.972 99.0427C137.994 98.9203 137.001 99.0073 136.059 99.298C135.118 99.5887 134.248 100.076 133.51 100.729C132.771 101.381 132.179 102.183 131.774 103.081C131.369 103.98 131.159 104.954 131.159 105.94V198.314L261.816 194.51V120.503C261.817 118.809 261.198 117.173 260.077 115.903C258.956 114.633 257.41 113.816 255.729 113.606V113.606Z" fill="#2C2A46"/>
<path d="M204.356 210.729C204.356 210.729 195.81 234.754 198.064 236.104C200.318 237.454 207.943 238.317 213.684 239.79C213.992 239.864 214.267 240.039 214.463 240.287C214.66 240.536 214.767 240.844 214.767 241.161C214.767 241.478 214.66 241.786 214.463 242.034C214.267 242.283 213.992 242.458 213.684 242.532L173.293 252.158C172.146 252.435 170.937 252.269 169.906 251.694L164.653 248.759C162.686 247.66 161.229 245.833 160.595 243.67C159.962 241.508 160.203 239.183 161.266 237.196L177.778 211.574L204.356 210.729Z" fill="#E7EEF1"/>
<path d="M177.766 211.574L165.61 235.382C163.403 239.491 164.717 243.418 168.809 245.707L174.062 248.642C175.092 249.219 176.301 249.386 177.449 249.112L214.758 241.481L213.684 242.532L171.35 252.205C171.35 252.205 164.653 248.759 161.741 246.083C158.83 243.406 160.955 237.865 160.955 237.865L177.778 211.597L177.766 211.574Z" fill="#DEE8EC"/>
<path d="M258.389 194.61V124.007C258.369 122.447 257.778 120.948 256.728 119.794C255.677 118.64 254.241 117.91 252.689 117.744L143.339 104.519C142.438 104.398 141.521 104.468 140.649 104.725C139.776 104.982 138.968 105.421 138.277 106.012C137.586 106.603 137.028 107.334 136.639 108.156C136.25 108.978 136.039 109.873 136.02 110.782V198.173L258.389 194.61Z" fill="#F5F8F9"/>
<path d="M131.159 198.314V211.369C131.159 212.314 131.352 213.25 131.727 214.119C132.101 214.987 132.649 215.77 133.336 216.42C134.023 217.069 134.836 217.571 135.725 217.896C136.613 218.22 137.558 218.36 138.502 218.307L255.26 211.779C257.029 211.679 258.693 210.907 259.912 209.62C261.131 208.334 261.812 206.631 261.816 204.859V194.51L131.159 198.314Z" fill="#E7EEF1"/>
<path d="M198.082 267.267L198.252 263.229L186.477 254.911L186.471 258.973L198.082 267.267Z" fill="#D2DFE6"/>
<path d="M246.391 247.785V251.8L198.082 267.267L198.252 263.229L246.391 247.785Z" fill="#DEE8EC"/>
<path d="M199.308 263.258L245.68 248.865C245.856 248.809 246.013 248.704 246.133 248.564C246.253 248.423 246.332 248.252 246.361 248.07C246.389 247.887 246.367 247.7 246.295 247.53C246.224 247.359 246.106 247.212 245.956 247.104L236.594 240.589C236.363 240.426 236.099 240.317 235.82 240.271C235.542 240.224 235.257 240.24 234.985 240.319L187.222 253.767C187.031 253.82 186.859 253.928 186.726 254.076C186.593 254.224 186.504 254.406 186.471 254.602C186.438 254.799 186.461 255 186.538 255.184C186.615 255.367 186.742 255.525 186.905 255.639L197.354 262.97C197.637 263.163 197.959 263.289 198.298 263.339C198.637 263.388 198.982 263.361 199.308 263.258V263.258Z" fill="#E7EEF1"/>
<path opacity="0.2" d="M280.013 232.67C279.118 232.478 278.198 232.436 277.289 232.547C275.966 232.697 274.692 233.134 273.555 233.826C272.418 234.518 271.445 235.45 270.703 236.556L270.574 236.761C270.521 236.855 270.48 236.943 270.433 237.037C269.019 239.831 270.187 242.62 273.128 243.594L273.327 243.647L273.709 243.758C277.178 244.562 281.398 242.731 283.142 239.649C284.885 236.568 283.476 233.48 280.013 232.67Z" fill="#DAA076"/>
<path opacity="0.2" d="M140.756 268.962C139.373 268.834 137.951 268.806 136.547 268.88C134.503 268.98 132.534 269.271 130.777 269.732C129.019 270.193 127.516 270.813 126.371 271.549L126.171 271.686C126.089 271.749 126.026 271.807 125.953 271.87C123.767 273.73 125.572 275.586 130.117 276.235L130.425 276.27L131.014 276.345C136.375 276.88 142.896 275.661 145.59 273.609C148.284 271.557 146.107 269.502 140.756 268.962Z" fill="#DAA076"/>
<path d="M278.305 223.83C278.008 223.205 277.644 222.615 277.219 222.069C277.046 221.843 276.862 221.625 276.667 221.418C274.83 219.469 272.329 218.647 270.21 219.498C270.14 219.522 270.072 219.549 270.005 219.58C269.917 219.621 269.84 219.668 269.758 219.715C267.252 221.071 266.36 224.623 267.639 228.015L267.733 228.233C267.784 228.373 267.843 228.514 267.909 228.655C269.611 232.341 273.321 234.255 276.186 232.928C279.05 231.602 280.013 227.516 278.305 223.83Z" fill="#E7EEF1"/>
<path d="M274.871 227.692C275.433 227.295 275.937 226.821 276.368 226.284C276.789 225.722 277.101 225.087 277.289 224.411C277.464 223.733 277.478 223.024 277.33 222.339C277.295 222.233 277.254 222.145 277.219 222.046C277.046 221.819 276.862 221.602 276.667 221.394C276.743 221.729 276.808 222.063 276.855 222.398C276.89 222.995 276.808 223.593 276.614 224.159C276.4 224.725 276.095 225.253 275.71 225.72C275.512 225.948 275.301 226.164 275.076 226.366C275.12 225.701 275.038 225.034 274.836 224.399C274.547 223.551 274.119 222.758 273.568 222.052C273.02 221.362 272.376 220.755 271.654 220.249C271.207 219.94 270.729 219.676 270.228 219.463C270.158 219.487 270.089 219.514 270.022 219.545C269.934 219.586 269.858 219.633 269.776 219.68C270.894 220.551 271.905 221.552 272.787 222.662C273.306 223.314 273.761 224.016 274.143 224.758C274.409 225.361 274.606 225.994 274.73 226.642C274.601 226.742 274.477 226.853 274.342 226.947C273.371 227.585 272.275 228.009 271.127 228.189C269.979 228.369 268.806 228.302 267.686 227.992L267.78 228.209C268.805 228.743 269.954 228.993 271.108 228.931C272.451 228.866 273.752 228.438 274.871 227.692Z" fill="#DEE8EC"/>
<path opacity="0.2" d="M270.915 104.725V127.159C270.914 127.38 270.867 127.599 270.778 127.801C270.689 128.003 270.559 128.185 270.397 128.335C270.234 128.485 270.042 128.599 269.834 128.672C269.625 128.744 269.403 128.773 269.183 128.756L213.337 124.119C212.938 124.085 212.566 123.903 212.294 123.609C212.023 123.314 211.871 122.929 211.87 122.528V97.6398C211.869 97.4126 211.918 97.188 212.011 96.981C212.105 96.774 212.241 96.5893 212.412 96.4393C212.582 96.2893 212.783 96.1774 213 96.1111C213.218 96.0448 213.446 96.0257 213.672 96.0549L269.518 103.14C269.904 103.188 270.258 103.376 270.516 103.668C270.773 103.96 270.915 104.336 270.915 104.725V104.725Z" fill="#2CC3D5"/>
<path opacity="0.4" d="M283.834 99.9466V122.381C283.835 122.603 283.789 122.822 283.701 123.025C283.612 123.228 283.483 123.411 283.32 123.561C283.157 123.711 282.965 123.826 282.755 123.897C282.545 123.969 282.323 123.997 282.102 123.978L226.262 119.341C225.863 119.307 225.491 119.125 225.22 118.83C224.948 118.536 224.796 118.151 224.795 117.75V92.8617C224.795 92.6345 224.843 92.41 224.936 92.2029C225.03 91.9959 225.167 91.8113 225.337 91.6613C225.508 91.5112 225.708 91.3994 225.926 91.3331C226.143 91.2668 226.372 91.2476 226.597 91.2768L282.437 98.3618C282.823 98.4104 283.178 98.5982 283.435 98.8901C283.692 99.1819 283.834 99.5576 283.834 99.9466V99.9466Z" fill="#2CC3D5"/>
<path opacity="0.2" d="M274.73 164.498V177.229C274.73 177.486 274.63 177.732 274.452 177.916C274.273 178.101 274.03 178.208 273.773 178.215L236.083 179.231C235.952 179.235 235.821 179.212 235.699 179.165C235.576 179.117 235.465 179.046 235.371 178.954C235.277 178.863 235.202 178.754 235.151 178.633C235.099 178.512 235.073 178.382 235.073 178.251V163.183C235.073 163.051 235.1 162.921 235.151 162.799C235.203 162.678 235.278 162.568 235.373 162.477C235.467 162.385 235.58 162.314 235.703 162.267C235.826 162.22 235.957 162.198 236.089 162.202L273.785 163.506C274.041 163.515 274.283 163.624 274.46 163.809C274.636 163.994 274.733 164.242 274.73 164.498Z" fill="#2CC3D5"/>
<path opacity="0.4" d="M283.564 160.177V172.909C283.566 173.165 283.466 173.412 283.287 173.596C283.108 173.779 282.864 173.885 282.607 173.889L244.917 174.922C244.785 174.925 244.655 174.902 244.532 174.854C244.41 174.806 244.298 174.734 244.204 174.642C244.11 174.55 244.036 174.44 243.984 174.319C243.933 174.198 243.907 174.068 243.907 173.936V158.868C243.907 158.736 243.934 158.606 243.985 158.485C244.037 158.363 244.112 158.254 244.207 158.162C244.301 158.071 244.414 157.999 244.537 157.952C244.66 157.905 244.791 157.883 244.923 157.888L282.613 159.197C282.867 159.206 283.108 159.313 283.286 159.496C283.463 159.679 283.563 159.923 283.564 160.177V160.177Z" fill="#2CC3D5"/>
<path opacity="0.2" d="M212.41 186.369V203.027C212.409 203.362 212.278 203.683 212.044 203.922C211.811 204.162 211.494 204.302 211.16 204.313L161.853 205.639C161.681 205.645 161.511 205.616 161.351 205.554C161.191 205.492 161.045 205.399 160.921 205.279C160.798 205.16 160.7 205.017 160.633 204.859C160.567 204.701 160.532 204.531 160.532 204.36V184.655C160.533 184.482 160.568 184.312 160.636 184.153C160.704 183.995 160.803 183.852 160.927 183.732C161.052 183.613 161.199 183.52 161.36 183.458C161.521 183.397 161.692 183.369 161.865 183.375L211.172 185.083C211.504 185.095 211.819 185.236 212.05 185.476C212.281 185.716 212.41 186.036 212.41 186.369V186.369Z" fill="#2CC3D5"/>
<path opacity="0.4" d="M219.9 179.407V196.054C219.9 196.388 219.769 196.709 219.535 196.949C219.302 197.188 218.984 197.326 218.65 197.334L169.343 198.666C169.171 198.672 169 198.642 168.84 198.581C168.68 198.519 168.534 198.425 168.411 198.306C168.288 198.187 168.19 198.044 168.123 197.886C168.056 197.728 168.022 197.558 168.022 197.386V177.693C168.023 177.521 168.058 177.35 168.126 177.192C168.194 177.033 168.293 176.89 168.417 176.771C168.541 176.651 168.688 176.558 168.849 176.497C169.01 176.435 169.182 176.407 169.354 176.413L218.661 178.121C218.994 178.134 219.309 178.274 219.54 178.514C219.771 178.754 219.9 179.074 219.9 179.407V179.407Z" fill="#2CC3D5"/>
<path opacity="0.2" d="M165.551 135.823V154.607C165.55 154.988 165.473 155.366 165.324 155.717C165.176 156.068 164.958 156.386 164.684 156.652C164.411 156.918 164.087 157.126 163.732 157.265C163.376 157.403 162.997 157.47 162.616 157.459L112.076 155.552C111.338 155.524 110.639 155.212 110.127 154.68C109.615 154.148 109.329 153.438 109.329 152.699V131.943C109.329 131.55 109.41 131.161 109.567 130.801C109.724 130.44 109.954 130.116 110.242 129.849C110.53 129.582 110.871 129.377 111.242 129.247C111.613 129.118 112.007 129.066 112.399 129.096L162.933 132.976C163.647 133.035 164.313 133.361 164.798 133.888C165.283 134.416 165.552 135.107 165.551 135.823V135.823Z" fill="#2CC3D5"/>
<path opacity="0.4" d="M174.144 130.834V149.617C174.145 150.002 174.067 150.382 173.917 150.735C173.767 151.089 173.547 151.409 173.27 151.675C172.993 151.941 172.665 152.149 172.306 152.286C171.947 152.422 171.564 152.485 171.18 152.47L120.652 150.592C119.914 150.564 119.215 150.252 118.703 149.72C118.191 149.188 117.905 148.478 117.905 147.739V126.954C117.906 126.561 117.987 126.172 118.145 125.812C118.302 125.452 118.532 125.129 118.82 124.862C119.108 124.595 119.448 124.39 119.819 124.26C120.19 124.13 120.583 124.078 120.975 124.107L171.503 127.963C172.225 128.018 172.899 128.345 173.389 128.878C173.88 129.411 174.15 130.11 174.144 130.834V130.834Z" fill="#2CC3D5"/>
<path d="M231.228 37.6438C231.228 37.6438 209.692 58.2294 209.692 84.3444C209.692 84.3444 174.772 92.0868 167.758 96.9236C167.758 96.9236 163.185 63.7588 183.195 40.5024L231.228 37.6438Z" fill="#F5F8F9"/>
<path d="M340.255 80.5291C340.255 80.5291 340.255 114.838 319.288 135.806L357.178 162.378C357.178 162.378 374.565 148.649 382.565 106.832L340.255 80.5291Z" fill="#F5F8F9"/>
<path d="M548.395 62.403C545.988 60.8064 541.874 62.4735 541.468 62.6437L520.495 70.386C520.845 68.4986 520.67 66.5514 519.989 64.7568C519.308 62.9621 518.147 61.3889 516.633 60.2087C515.119 59.0285 513.31 58.2866 511.404 58.0639C509.497 57.8412 507.566 58.1462 505.821 58.9457C505.566 58.1477 505.139 57.4155 504.57 56.8008C504.001 56.1862 503.304 55.704 502.528 55.3885C503.1 54.0757 503.393 52.6587 503.391 51.2268C503.389 49.2457 502.827 47.3054 501.77 45.63C500.713 43.9546 499.203 42.6125 497.415 41.7587L516.885 34.5681C518.177 34.0222 520.507 33.4881 521.394 34.0751C521.499 34.1455 521.822 34.3627 521.822 35.249V36.8691C521.81 37.0496 521.835 37.2306 521.896 37.4009C521.957 37.5712 522.052 37.7273 522.175 37.8594C522.299 37.9914 522.448 38.0967 522.614 38.1687C522.78 38.2407 522.959 38.2778 523.14 38.2778C523.321 38.2778 523.5 38.2407 523.666 38.1687C523.831 38.0967 523.981 37.9914 524.104 37.8594C524.228 37.7273 524.323 37.5712 524.384 37.4009C524.445 37.2306 524.47 37.0496 524.458 36.8691V35.2608C524.458 33.3531 523.583 32.3669 522.849 31.8856C520.437 30.2831 516.322 31.9502 515.917 32.1204L492.608 40.7256C490.838 40.7698 489.107 41.2606 487.578 42.1524C486.048 43.0442 484.769 44.3081 483.858 45.8268C482.948 47.3454 482.436 49.0695 482.37 50.8389C482.304 52.6083 482.687 54.3657 483.482 55.9478C484.277 57.5298 485.459 58.8853 486.918 59.8883C488.377 60.8912 490.066 61.5092 491.828 61.6847C493.59 61.8602 495.368 61.5876 496.996 60.8923C498.625 60.1969 500.051 59.1012 501.143 57.7071C501.766 57.8577 502.327 58.1985 502.748 58.6824C503.168 59.1663 503.428 59.7691 503.49 60.4073C502.292 61.3873 501.324 62.6203 500.658 64.0178C499.991 65.4153 499.641 66.9429 499.634 68.4913C499.627 70.0397 499.962 71.5706 500.615 72.9745C501.268 74.3783 502.223 75.6205 503.413 76.612C504.602 77.6035 505.996 78.3199 507.494 78.71C508.993 79.1 510.559 79.154 512.081 78.8682C513.603 78.5823 515.042 77.9636 516.297 77.0564C517.552 76.1492 518.591 74.9759 519.339 73.6203L542.437 65.0914C543.728 64.5455 546.059 64.0114 546.945 64.5984C547.051 64.6688 547.374 64.886 547.374 65.7723V67.3924C547.374 67.7411 547.512 68.0756 547.759 68.3222C548.005 68.5687 548.34 68.7073 548.688 68.7073C549.037 68.7073 549.372 68.5687 549.618 68.3222C549.865 68.0756 550.003 67.7411 550.003 67.3924V65.7723C550.049 65.1197 549.924 64.4664 549.643 63.876C549.361 63.2856 548.931 62.7782 548.395 62.403V62.403ZM492.878 59.1042C490.825 59.0481 488.875 58.1933 487.443 56.7216C486.011 55.2499 485.21 53.2774 485.21 51.2239C485.21 49.1704 486.011 47.1979 487.443 45.7262C488.875 44.2544 490.825 43.3996 492.878 43.3436V43.3436C493.931 43.3148 494.979 43.4974 495.96 43.8805C496.941 44.2636 497.836 44.8395 498.591 45.574C499.345 46.3086 499.946 47.1871 500.355 48.1575C500.765 49.1279 500.976 50.1705 500.976 51.2239C500.976 52.2772 500.765 53.3199 500.355 54.2903C499.946 55.2607 499.345 56.1391 498.591 56.8737C497.836 57.6083 496.941 58.1841 495.96 58.5672C494.979 58.9503 493.931 59.1329 492.878 59.1042V59.1042ZM510.165 76.3909C508.605 76.3921 507.08 75.9307 505.783 75.0652C504.486 74.1997 503.475 72.9689 502.877 71.5285C502.28 70.0882 502.123 68.5029 502.426 66.9733C502.73 65.4438 503.48 64.0386 504.582 62.9355C505.685 61.8324 507.089 61.081 508.619 60.7764C510.148 60.4717 511.733 60.6275 513.174 61.224C514.615 61.8205 515.846 62.8309 516.713 64.1274C517.579 65.4239 518.042 66.9483 518.042 68.5077C518.039 70.5965 517.208 72.5989 515.732 74.0765C514.255 75.554 512.253 76.3863 510.165 76.3909V76.3909Z" fill="#55CFFF"/>
<path d="M110.004 203.28C111.648 204.888 111.935 208.533 107.967 215.019C105.619 218.823 97.5717 224.664 93.5626 222.597C89.3421 220.42 89.2776 208.727 100.964 205.082C110.08 202.223 108.231 201.548 110.004 203.28Z" fill="#2498A8"/>
<path d="M75.3838 188.546C75.3838 188.546 65.2289 171.694 63.9376 165.36C62.8575 160.077 64.46 151.132 67.4595 144.094C67.5815 143.809 67.7687 143.557 68.0059 143.358C68.2432 143.159 68.5238 143.018 68.8254 142.947C69.1269 142.877 69.4408 142.878 69.7419 142.95C70.043 143.023 70.3228 143.165 70.5588 143.366C73.4035 145.787 75.7249 148.763 77.381 152.112C79.0371 155.461 79.9934 159.112 80.1912 162.842C81.0247 177.27 82.6977 184.901 82.6977 184.901L78.5888 193.976L75.3838 188.546Z" fill="#A6BB1A"/>
<path d="M74.8261 190.595C74.8261 190.595 62.2411 175.509 56.6647 172.193C52.0216 169.446 43.0466 168.037 35.4217 168.542C35.1122 168.564 34.8123 168.659 34.5461 168.818C34.2798 168.977 34.0546 169.196 33.8885 169.458C33.7223 169.72 33.62 170.018 33.5896 170.326C33.5592 170.635 33.6017 170.947 33.7135 171.236C35.0736 174.717 37.1281 177.884 39.7519 180.546C42.3757 183.207 45.5139 185.306 48.9752 186.715C62.3115 192.209 68.9914 196.318 68.9914 196.318L78.9056 195.42L74.8261 190.595Z" fill="#A6BB1A"/>
<path d="M81.5647 192.913C81.5647 192.913 73.4349 174.993 72.8949 168.554C72.4371 163.177 75.0726 154.466 78.8528 147.839C79.007 147.57 79.2221 147.341 79.4809 147.171C79.7397 147 80.035 146.893 80.3428 146.858C80.6507 146.822 80.9625 146.86 81.2533 146.967C81.544 147.074 81.8055 147.248 82.0167 147.475C84.5591 150.212 86.5173 153.439 87.7717 156.958C89.0261 160.477 89.5505 164.215 89.3129 167.943C88.4559 182.342 89.2542 190.143 89.2542 190.143L84.1298 198.678L81.5647 192.913Z" fill="#B5CB23"/>
<path d="M78.8118 195.074C78.8118 195.074 62.0357 184.795 55.708 183.457C50.4251 182.342 41.4794 183.88 34.418 186.809C34.1324 186.929 33.879 187.114 33.6782 187.35C33.4773 187.585 33.3345 187.865 33.2615 188.166C33.1884 188.467 33.1869 188.781 33.2573 189.082C33.3277 189.384 33.4679 189.665 33.6667 189.902C36.0683 192.764 39.0273 195.107 42.3636 196.788C45.6998 198.469 49.3434 199.454 53.0724 199.681C67.4653 200.609 75.1079 202.364 75.1079 202.364L84.2121 198.337L78.8118 195.074Z" fill="#B5CB23"/>
<path d="M74.0456 193.577C74.0456 193.577 58.8602 181.068 55.5379 175.509C52.7673 170.884 51.3057 161.915 51.7694 154.29C51.7906 153.981 51.8838 153.681 52.0415 153.415C52.1993 153.148 52.4173 152.922 52.678 152.755C52.9387 152.588 53.235 152.484 53.543 152.452C53.8511 152.42 54.1624 152.46 54.452 152.57C57.9407 153.907 61.1204 155.941 63.7969 158.548C66.4733 161.155 68.5904 164.279 70.0189 167.732C75.5835 181.039 79.7335 187.689 79.7335 187.689L78.8882 197.609L74.0456 193.577Z" fill="#BED42B"/>
<path d="M94.6134 182.207C89.4421 182.647 73.7402 185.453 69.2145 203.209C68.9837 204.12 69.0449 205.08 69.3893 205.954C69.7337 206.829 70.344 207.572 71.134 208.081L93.5627 222.58C93.5627 222.58 90.1347 206.731 109.998 203.28L97.1374 183.451C96.8694 183.034 96.4928 182.698 96.0482 182.479C95.6035 182.259 95.1075 182.165 94.6134 182.207Z" fill="#2CC3D5"/>
<path d="M463.616 326.06C462.442 327.298 459.707 327.533 454.847 324.616C451.994 322.902 447.58 316.92 449.1 313.915C450.697 310.745 459.419 310.622 462.219 319.321C464.403 326.107 464.914 324.727 463.616 326.06Z" fill="#D2DFE6"/>
<path d="M476.524 288.358C476.484 288.366 476.442 288.366 476.402 288.358C476.362 288.35 476.323 288.334 476.289 288.311L475.479 287.8C475.411 287.753 475.363 287.682 475.347 287.601C475.33 287.52 475.346 287.435 475.391 287.366C475.413 287.331 475.442 287.3 475.476 287.277C475.51 287.253 475.548 287.236 475.589 287.227C475.629 287.219 475.671 287.218 475.712 287.226C475.752 287.233 475.791 287.249 475.826 287.272L476.612 287.788C476.669 287.821 476.714 287.871 476.741 287.931C476.768 287.99 476.776 288.057 476.764 288.121C476.751 288.185 476.72 288.244 476.672 288.29C476.625 288.335 476.565 288.365 476.501 288.375" fill="#2498A8"/>
<path d="M473.648 294.063L472.861 293.552L477.317 286.743L478.103 287.254L473.648 294.063Z" fill="#2498A8"/>
<path d="M469.111 291.844L462.935 301.271C462.753 301.549 462.689 301.888 462.757 302.213C462.824 302.538 463.019 302.824 463.296 303.006C463.574 303.188 463.913 303.252 464.239 303.184C464.564 303.117 464.849 302.923 465.031 302.645L471.206 293.218L469.111 291.844Z" fill="#2CC3D5"/>
<path d="M471.728 293.558L468.588 291.498L472.532 285.475L475.673 287.536L471.728 293.558Z" fill="#2CC3D5"/>
<path d="M475.673 287.536L472.532 285.475L473.389 284.166L476.535 286.227L475.673 287.536Z" fill="#2498A8"/>
<path d="M483.204 293.934C483.122 293.932 483.045 293.898 482.987 293.84L482.324 293.171C482.295 293.142 482.272 293.108 482.256 293.07C482.24 293.032 482.232 292.992 482.232 292.951C482.232 292.91 482.24 292.869 482.256 292.832C482.272 292.794 482.295 292.759 482.324 292.731C482.383 292.672 482.463 292.639 482.547 292.639C482.63 292.639 482.71 292.672 482.77 292.731L483.427 293.4C483.456 293.429 483.479 293.463 483.495 293.501C483.51 293.538 483.518 293.579 483.518 293.62C483.518 293.661 483.51 293.701 483.495 293.739C483.479 293.777 483.456 293.811 483.427 293.84C483.399 293.87 483.364 293.894 483.326 293.91C483.287 293.927 483.246 293.935 483.204 293.934Z" fill="#CF5358"/>
<path d="M479.201 298.911L478.538 298.248L484.319 292.519L484.977 293.182L479.201 298.911Z" fill="#CF5358"/>
<path d="M475.227 295.795L467.22 303.731C467.035 303.972 466.945 304.273 466.965 304.577C466.985 304.881 467.115 305.167 467.33 305.382C467.545 305.598 467.831 305.727 468.135 305.747C468.439 305.768 468.74 305.677 468.981 305.492L476.988 297.602L475.227 295.795Z" fill="#FF5A60"/>
<path d="M477.434 298.019L474.787 295.354L479.899 290.283L482.547 292.953L477.434 298.019Z" fill="#FF5A60"/>
<path d="M482.547 292.954L479.899 290.283L481.015 289.179L483.656 291.85L482.547 292.954Z" fill="#CF5358"/>
<path d="M492.384 309.26C492.345 309.246 492.31 309.223 492.28 309.194C492.251 309.164 492.228 309.129 492.214 309.09L491.85 308.227C491.834 308.188 491.825 308.147 491.825 308.105C491.825 308.063 491.833 308.022 491.849 307.983C491.865 307.945 491.888 307.909 491.917 307.88C491.947 307.85 491.982 307.826 492.02 307.81C492.059 307.794 492.1 307.786 492.142 307.785C492.184 307.785 492.225 307.793 492.264 307.809C492.303 307.825 492.338 307.848 492.368 307.878C492.397 307.907 492.421 307.942 492.437 307.98L492.801 308.849C492.832 308.926 492.832 309.013 492.8 309.09C492.768 309.166 492.707 309.228 492.631 309.26C492.555 309.29 492.471 309.29 492.396 309.26" fill="#3D5CB6"/>
<path d="M486.802 312.377L486.438 311.514L493.946 308.368L494.309 309.231L486.802 312.377Z" fill="#3D5CB6"/>
<path d="M484.284 308.004L473.894 312.359C473.608 312.501 473.386 312.747 473.275 313.046C473.163 313.345 473.169 313.676 473.293 313.97C473.416 314.265 473.647 314.502 473.939 314.632C474.231 314.762 474.561 314.777 474.863 314.672L485.253 310.311L484.284 308.004Z" fill="#517BF2"/>
<path d="M485.499 310.886L484.043 307.423L490.682 304.641L492.138 308.104L485.499 310.886Z" fill="#517BF2"/>
<path d="M492.138 308.104L490.682 304.64L492.126 304.036L493.582 307.499L492.138 308.104Z" fill="#3D5CB6"/>
<path d="M479.289 314.96C479.072 311.696 477.252 298.142 461.896 295.284C461.63 295.238 461.357 295.272 461.11 295.381C460.863 295.491 460.655 295.672 460.511 295.9L449.1 313.915C449.1 313.915 460.922 311.244 463.616 326.06L478.743 316.051C478.923 315.934 479.068 315.771 479.164 315.579C479.26 315.388 479.303 315.174 479.289 314.96V314.96Z" fill="#E7EEF1"/>
<path d="M503.297 290.799L492.907 295.161C492.755 295.224 492.618 295.317 492.502 295.434C492.387 295.55 492.295 295.689 492.233 295.841C492.171 295.993 492.139 296.156 492.14 296.32C492.141 296.484 492.174 296.647 492.238 296.798C492.301 296.95 492.394 297.087 492.511 297.203C492.628 297.318 492.766 297.41 492.918 297.472C493.07 297.534 493.233 297.566 493.397 297.565C493.561 297.564 493.724 297.531 493.875 297.467L504.265 293.112L503.297 290.799Z" fill="#F9B42F"/>
<path d="M511.391 292.061C511.317 292.025 511.257 291.965 511.221 291.891L510.857 291.022C510.825 290.945 510.826 290.857 510.858 290.78C510.891 290.702 510.953 290.64 511.03 290.609C511.108 290.577 511.196 290.577 511.273 290.609C511.351 290.642 511.412 290.704 511.444 290.782L511.808 291.65C511.831 291.708 511.836 291.771 511.823 291.831C511.811 291.891 511.781 291.947 511.737 291.99C511.694 292.034 511.638 292.064 511.578 292.077C511.517 292.089 511.455 292.084 511.397 292.061" fill="#CB9733"/>
<path d="M505.809 295.178L505.451 294.31L512.952 291.163L513.316 292.032L505.809 295.178Z" fill="#CB9733"/>
<path d="M504.506 293.687L503.056 290.224L509.694 287.442L511.144 290.905L504.506 293.687Z" fill="#F9B42F"/>
<path d="M511.151 290.905L509.695 287.442L511.139 286.831L512.595 290.3L511.151 290.905Z" fill="#CB9733"/>
<path d="M113.573 235.969L132.356 250.526C132.815 250.878 133.197 251.32 133.479 251.824C133.76 252.329 133.936 252.886 133.994 253.461C134.299 256.748 133.894 263.546 126.539 268.241C125.769 268.723 124.896 269.018 123.991 269.102C123.086 269.187 122.174 269.059 121.327 268.729L97.6304 259.765L113.573 235.969Z" fill="#B97CE8"/>
<path d="M115.258 252.869C118.717 245.443 117.244 237.431 111.969 234.975C106.693 232.518 99.6135 236.547 96.1553 243.974C92.697 251.4 94.1699 259.412 99.4451 261.868C104.72 264.325 111.8 260.296 115.258 252.869Z" fill="#C992F2"/>
<path d="M113.302 251.316C116.012 245.497 114.859 239.22 110.727 237.296C106.595 235.372 101.049 238.529 98.3389 244.348C95.6292 250.167 96.7822 256.444 100.914 258.368C105.046 260.292 110.592 257.135 113.302 251.316Z" fill="#894CB9"/>
<path d="M110.151 255.827C111.463 254.523 112.531 252.994 113.303 251.313C114.419 248.997 114.907 246.428 114.717 243.864C114.717 243.864 111.196 249.775 106.817 250.08C102.438 250.385 96.3976 247.832 94.3314 254.248C93.0107 258.357 95.8576 259.531 98.323 259.331C100.019 259.19 97.3368 263.276 98.3993 264.643C99.4617 266.011 102.086 265.618 103.254 263.317C104.58 260.699 110.151 255.827 110.151 255.827Z" fill="#55CFFF"/>
<path d="M91.9895 259.642C90.164 261.021 89.6416 262.577 88.6496 261.855C87.6576 261.133 87.8278 258.855 88.7905 257.453C89.7531 256.05 91.3791 255.474 92.3887 256.191C93.6272 257.059 94.1144 258.039 91.9895 259.642Z" fill="#55CFFF"/>
<path d="M93.9382 267.009C92.3181 268.617 91.919 269.415 90.8155 268.852C89.7119 268.288 89.7061 266.786 90.475 265.271C91.244 263.757 92.776 262.959 93.8737 263.51C95.2061 264.232 95.8225 265.13 93.9382 267.009Z" fill="#55CFFF"/>
<path opacity="0.5" d="M502.246 374.592C502.246 374.592 467.942 374.592 446.975 353.625L420.396 391.52C420.396 391.52 434.126 408.907 475.943 416.913L502.246 374.592Z" fill="#D2DFE6"/>
<path d="M500.532 369.098C500.532 369.098 466.223 369.098 445.256 348.13L418.683 386.02C418.683 386.02 432.412 403.407 474.229 411.413L500.532 369.098Z" fill="#F5F8F9"/>
<path opacity="0.5" d="M276.025 421.139C276.025 421.139 250.198 404.117 244.815 377.961L206.033 393.305C206.033 393.305 207.753 413.198 235.259 439.952L276.025 421.139Z" fill="#D2DFE6"/>
<path d="M279.858 415.322C279.858 415.322 254.031 398.3 248.642 372.149L209.883 387.493C209.883 387.493 211.603 407.386 239.109 434.135L279.858 415.322Z" fill="#F5F8F9"/>
<path d="M216.031 338.973C216.031 338.973 205.26 349.486 204.116 350.56C202.971 351.635 200.236 356.16 179.938 325.749C179.157 324.575 177.795 323.007 177.719 321.487C177.69 320.841 182.139 316.744 184.616 316.521C186.442 316.357 188.561 317.014 190.903 319.186C190.903 319.186 196.819 324.98 201.627 327.539C203.229 328.396 209.375 325.05 210.614 325.226C215.568 325.93 221.303 334.5 221.303 334.5L216.031 338.973Z" fill="#7E4E57"/>
<path d="M291.488 312.483C291.488 312.483 279.209 319.069 277.912 319.732C276.614 320.395 273.022 323.718 262.773 291.445C262.38 290.207 261.599 288.457 261.893 287.084C262.034 286.497 267.041 283.996 269.306 284.436C270.967 284.759 272.687 285.886 274.213 288.422C274.213 288.422 277.988 295.102 281.61 298.612C282.783 299.786 289.146 298.383 290.203 298.859C294.423 300.761 297.329 309.853 297.329 309.853L291.488 312.483Z" fill="#7E4E57"/>
<path d="M210.837 322.937L203.206 327.744C203.206 327.744 202.032 339.179 213.097 341.832L223.31 332.992L213.877 321.252L210.837 322.937Z" fill="#CB8591"/>
<path d="M290.972 296.875L282.948 299.193C282.948 299.193 278.998 309.078 288.131 314.279L299.489 309.037L294.101 296.17L290.972 296.875Z" fill="#CB8591"/>
<path d="M370.943 263.358L308.235 284.166L289.087 292.519C289.087 292.519 290.167 305.386 299.154 310.369L379.043 269.034L370.943 263.358Z" fill="#283D79"/>
<path d="M362.743 265.43C362.743 265.43 357.025 272.685 341.159 265.43C325.293 258.175 300.992 246.165 300.992 246.165C300.992 246.165 283.84 238.657 272.546 252.563C261.253 266.469 211.212 319.509 209.786 319.433C208.359 319.356 216.078 334.794 223.797 334.794C223.797 334.794 263.595 301.124 276.861 288.363C280.165 285.182 290.085 271.041 290.085 271.041C290.085 271.041 307.789 285.716 320.145 295.055C323.542 297.675 327.098 300.083 330.793 302.263C341.588 308.209 364.891 322.42 388.693 288.868L362.743 265.43Z" fill="#283D79"/>
<path d="M420.644 169.686C420.644 169.686 401.056 172.404 397.628 175.832C395.139 178.321 374.266 199.347 363.283 211.016C347.593 227.687 340.162 212.149 340.162 212.149L331.833 229.407L341.301 238.734C341.301 238.734 348.162 244.163 355.6 238.734C363.037 233.304 380.758 222.046 380.758 222.046C380.758 222.046 366.465 264.109 362.743 265.43C362.743 265.43 364.463 285.675 386.187 288.363L391.911 289.537H400.199L458.522 204.73C458.522 204.73 460.811 188.488 454.237 182.166C447.663 175.844 439.445 166.417 439.445 166.417L420.644 169.686Z" fill="#F99B45"/>
<path d="M345.521 217.772C342.744 217.361 335.26 229.219 335.73 232.148C335.877 233.11 337.262 234.748 337.262 234.748C337.262 234.748 334.157 235.059 331.868 233.322C329.578 231.584 328.721 230.005 329.22 226.378C329.866 221.735 336.728 211.116 342.445 212.29C343.907 212.583 349.189 216.193 348.837 218.629C348.263 218.661 347.688 218.569 347.153 218.359C346.437 218.13 345.709 217.808 345.521 217.772Z" fill="#FEAA5D"/>
<path opacity="0.15" d="M427.648 419.838C428.985 410.516 401.323 398.837 365.863 393.752C330.404 388.668 300.574 392.103 299.238 401.425C297.901 410.747 325.563 422.426 361.023 427.511C396.482 432.595 426.312 429.16 427.648 419.838Z" fill="#8CA0B3"/>
<path d="M319.218 382.375C319.843 382.187 320.498 382.115 321.149 382.164C320.507 381.639 319.75 381.272 318.941 381.094C318.131 380.915 317.29 380.93 316.487 381.137C315.684 381.344 314.941 381.737 314.318 382.284C313.695 382.831 313.209 383.518 312.901 384.287C312.592 385.057 312.469 385.889 312.542 386.715C312.614 387.541 312.88 388.338 313.318 389.043C313.756 389.747 314.353 390.338 315.062 390.769C315.771 391.199 316.571 391.457 317.398 391.52C316.662 390.913 316.104 390.117 315.783 389.218C315.463 388.318 315.393 387.349 315.579 386.413C315.766 385.476 316.203 384.608 316.843 383.9C317.484 383.192 318.305 382.671 319.218 382.393V382.375Z" fill="url(#paint2_linear)"/>
<path d="M322.863 384.694C322.558 383.695 321.964 382.809 321.156 382.147C320.348 381.486 319.362 381.079 318.322 380.977C317.283 380.876 316.237 381.085 315.316 381.578C314.395 382.071 313.642 382.826 313.15 383.747C312.658 384.669 312.45 385.715 312.553 386.755C312.656 387.794 313.064 388.78 313.727 389.587C314.389 390.394 315.276 390.987 316.275 391.29C317.275 391.594 318.342 391.594 319.341 391.291C320.006 391.09 320.625 390.76 321.162 390.319C321.699 389.878 322.144 389.336 322.471 388.723C322.798 388.11 323.001 387.439 323.068 386.747C323.136 386.056 323.066 385.358 322.863 384.694V384.694Z" fill="#56616E"/>
<path d="M354.977 371.921C354.977 371.921 329.196 368.722 326.15 370.63C323.103 372.537 320.145 377.251 320.145 377.251H354.977L357.653 375.783L354.977 371.921Z" fill="url(#paint3_linear)"/>
<path opacity="0.15" d="M354.977 371.921C354.977 371.921 329.196 368.722 326.15 370.63C323.103 372.537 320.145 377.251 320.145 377.251H354.977L357.653 375.783L354.977 371.921Z" fill="#6D7A81"/>
<path d="M373.038 376.259L388.887 380.691C388.887 380.691 395.972 383.831 395.091 388.192C394.211 392.554 383.058 385.973 383.058 385.973L371.794 379.722V376.259H373.038Z" fill="url(#paint4_linear)"/>
<path d="M373.038 376.259L388.887 380.691C388.887 380.691 395.972 383.831 395.091 388.192C394.211 392.554 383.058 385.973 383.058 385.973L371.794 379.722V376.259H373.038Z" fill="#0D111B"/>
<path d="M354.56 374.815L311.123 375.777C311.123 375.777 303.592 375.683 300.064 379.493C296.536 383.303 290.819 391.121 290.819 391.121L290.391 391.667C292.005 392.537 293.233 393.983 293.83 395.717L301.303 387.593C301.303 387.593 303.686 383.684 311.868 383.684C320.051 383.684 357.066 382.064 357.066 382.064L358.88 378.061L354.56 374.815Z" fill="#1A2437"/>
<path d="M392.749 392.06C392.183 391.641 391.542 391.334 390.859 391.156C391.701 390.845 392.605 390.736 393.497 390.84C394.389 390.943 395.244 391.256 395.992 391.752C396.741 392.248 397.361 392.914 397.804 393.695C398.246 394.477 398.498 395.351 398.539 396.248C398.58 397.145 398.408 398.039 398.038 398.858C397.668 399.676 397.111 400.395 396.41 400.957C395.71 401.519 394.887 401.908 394.008 402.092C393.129 402.276 392.219 402.25 391.352 402.016C392.404 401.632 393.318 400.943 393.976 400.037C394.42 399.433 394.741 398.748 394.92 398.02C395.099 397.292 395.132 396.535 395.018 395.794C394.904 395.053 394.645 394.342 394.256 393.701C393.866 393.061 393.355 392.503 392.749 392.06V392.06Z" fill="url(#paint5_linear)"/>
<path d="M388.236 393.135C388.895 392.229 389.808 391.541 390.86 391.156C391.542 391.334 392.184 391.641 392.75 392.06C393.355 392.503 393.867 393.061 394.256 393.701C394.645 394.342 394.904 395.053 395.018 395.794C395.132 396.536 395.099 397.292 394.92 398.02C394.741 398.748 394.421 399.434 393.977 400.038C393.318 400.943 392.404 401.632 391.353 402.016C390.671 401.838 390.029 401.531 389.463 401.112C388.858 400.669 388.346 400.112 387.956 399.471C387.567 398.83 387.308 398.119 387.194 397.378C387.08 396.637 387.114 395.881 387.292 395.152C387.471 394.424 387.792 393.739 388.236 393.135Z" fill="#56616E"/>
<path d="M364.774 383.402L408.111 399.791C408.111 399.791 414.21 401.317 414.973 404.939C415.736 408.561 415.853 409.893 415.853 409.893H421.723C421.723 409.893 421.271 399.409 411.157 395.406C401.044 391.403 372.463 377.251 372.463 377.251L365.032 379.599L361.017 383.021L364.774 383.402Z" fill="#1A2437"/>
<path d="M357.627 375.824L365.848 377.3L360.182 408.857C359.986 409.946 359.366 410.913 358.457 411.545C357.548 412.177 356.426 412.423 355.336 412.227C354.247 412.031 353.28 411.411 352.648 410.502C352.016 409.593 351.771 408.471 351.966 407.381L357.633 375.825L357.627 375.824Z" fill="#1A2437"/>
<path d="M373.919 377.262C374.519 374.443 370.63 371.227 365.233 370.079C359.836 368.931 354.975 370.285 354.375 373.104C353.776 375.923 357.665 379.139 363.061 380.287C368.458 381.435 373.319 380.081 373.919 377.262Z" fill="#1A2437"/>
<path d="M370.736 376.177C371.122 374.366 368.519 372.278 364.923 371.513C361.327 370.748 358.1 371.596 357.715 373.407C357.33 375.217 359.933 377.305 363.528 378.07C367.124 378.835 370.351 377.987 370.736 376.177Z" fill="#222D43"/>
<path d="M369.986 334.794L360.007 372.872C359.948 373.101 359.936 373.34 359.971 373.574C360.007 373.808 360.089 374.032 360.213 374.234C361.064 375.613 363.435 378.389 368.155 376.746C368.387 376.666 368.597 376.53 368.765 376.349C368.933 376.169 369.054 375.951 369.117 375.713L378.116 340.1L369.986 334.794Z" fill="#1A2437"/>
<path d="M368.454 322.497L365.637 333.409C365.637 333.409 365.19 339.202 372.974 341.445C377.488 342.742 380.605 342.378 382.419 341.838C382.987 341.673 383.507 341.374 383.936 340.965C384.364 340.556 384.687 340.05 384.878 339.49L388.875 327.445L368.454 322.497Z" fill="#1A2437"/>
<path d="M288.195 391.098L289.827 389.566C289.827 389.566 291.036 389.126 291.799 389.566C292.562 390.006 295.867 393.188 295.867 393.188C295.867 393.188 296.39 394.397 295.867 395.001C295.345 395.606 293.695 397.091 293.695 397.091L288.195 391.098Z" fill="#0D111B"/>
<path d="M423.895 408.285L422.856 406.066C422.856 406.066 421.805 405.121 420.843 405.262C419.88 405.403 415.231 407.298 415.231 407.298C415.231 407.298 414.21 408.32 414.497 409.148C414.785 409.975 415.859 412.159 415.859 412.159L423.895 408.285Z" fill="#0D111B"/>
<path d="M349.946 410.562C349.946 410.562 349.277 405.021 352.629 405.021C353.803 405.021 359.555 405.502 360.752 406.864C361.739 407.98 360.312 412.734 360.312 412.734L349.946 410.562Z" fill="#0D111B"/>
<path d="M290.361 393.575C291.261 393.574 292.153 393.742 292.991 394.068C292.359 393.11 291.509 392.316 290.512 391.748C289.514 391.181 288.397 390.857 287.251 390.803C286.105 390.749 284.962 390.967 283.916 391.438C282.869 391.908 281.949 392.62 281.229 393.513C280.51 394.407 280.011 395.458 279.774 396.581C279.537 397.704 279.569 398.866 279.866 399.975C280.163 401.083 280.718 402.105 281.485 402.959C282.252 403.812 283.21 404.473 284.28 404.886C283.554 403.787 283.138 402.512 283.078 401.196C283.019 399.881 283.316 398.573 283.94 397.413C284.564 396.253 285.49 395.283 286.621 394.608C287.751 393.932 289.044 393.575 290.361 393.575Z" fill="#0D111B"/>
<path d="M294.206 398.095C294.206 396.662 293.783 395.262 292.991 394.068C291.549 393.511 289.968 393.426 288.475 393.827C286.982 394.227 285.655 395.092 284.685 396.296C283.716 397.5 283.154 398.981 283.081 400.525C283.009 402.069 283.428 403.596 284.28 404.886C285.384 405.317 286.577 405.472 287.755 405.337C288.932 405.203 290.059 404.782 291.038 404.113C292.016 403.444 292.816 402.546 293.368 401.497C293.92 400.448 294.208 399.28 294.206 398.095V398.095Z" fill="#56616E"/>
<path d="M351.355 418.24C351.355 413.738 353.902 409.969 357.313 409.013C356.407 408.538 355.4 408.289 354.378 408.285C350.146 408.285 346.712 412.523 346.712 417.759C346.712 422.995 350.146 427.227 354.378 427.227C354.956 427.225 355.53 427.144 356.086 426.986C353.304 425.566 351.355 422.179 351.355 418.24Z" fill="#0D111B"/>
<path d="M362.026 417.759C362.026 413.814 360.083 410.439 357.33 409.013C353.92 409.969 351.373 413.738 351.373 418.24C351.373 422.179 353.321 425.554 356.068 426.986C359.479 426.024 362.026 422.261 362.026 417.759Z" fill="#56616E"/>
<path d="M421.588 409.576C420.753 408.964 419.812 408.512 418.812 408.244C420.05 407.785 421.379 407.625 422.691 407.777C424.003 407.929 425.261 408.388 426.362 409.118C427.463 409.848 428.375 410.828 429.026 411.977C429.677 413.127 430.047 414.414 430.106 415.733C430.165 417.052 429.912 418.367 429.367 419.57C428.822 420.773 428 421.831 426.969 422.656C425.938 423.482 424.727 424.052 423.434 424.321C422.141 424.59 420.802 424.55 419.528 424.204C421.075 423.64 422.419 422.628 423.39 421.298C424.042 420.41 424.512 419.403 424.775 418.333C425.037 417.263 425.086 416.152 424.918 415.064C424.751 413.975 424.371 412.93 423.799 411.988C423.228 411.047 422.476 410.227 421.588 409.576Z" fill="#0D111B"/>
<path d="M414.949 411.155C415.918 409.816 417.262 408.794 418.812 408.22C420.53 408.683 422.056 409.68 423.169 411.067C424.283 412.455 424.926 414.161 425.006 415.938C425.086 417.716 424.598 419.472 423.613 420.954C422.628 422.436 421.197 423.566 419.528 424.18C418.527 423.916 417.586 423.466 416.751 422.854C414.965 421.538 413.772 419.569 413.435 417.376C413.097 415.184 413.642 412.947 414.949 411.155V411.155Z" fill="#56616E"/>
<path d="M440.701 203.497C451.619 205.434 468.043 208.357 473.965 206.138C483.111 202.71 482.823 200.133 488.828 201.278C494.833 202.423 496.265 212.431 487.401 225.01C478.538 237.589 440.795 307.634 440.795 307.634C440.795 307.634 429.36 335.939 375.898 327.075C322.435 318.212 320.134 299.628 320.134 299.628V295.055L332.425 303.061C332.425 303.061 359.873 317.642 373.315 303.349C386.757 289.056 405.599 203.849 405.599 203.849C405.599 203.849 407.36 196.113 416.165 196.289C419.716 196.359 428.216 201.278 440.701 203.497Z" fill="#1A2437"/>
<path d="M324.149 245.596C324.149 245.596 334.867 259.748 341.019 262.031C341.019 262.031 328.439 300.056 328.005 302.633C327.571 305.21 324.865 313.786 333.581 317.214C342.298 320.642 342.445 315.928 342.445 315.928L357.026 268.752C357.026 268.752 367.591 272.861 373.32 272.556C373.61 272.545 373.898 272.516 374.183 272.468L377.253 265.037L327.295 237.302C327.295 237.302 322.006 238.587 324.149 245.596Z" fill="#1A2437"/>
<path d="M325.288 238.446C325.288 238.446 347.476 261.879 376.355 267.244L377.271 265.037L327.313 237.301L325.288 238.446Z" fill="#222D43"/>
<path d="M357.026 268.752L353.451 269.181L336.147 318.094C336.147 318.094 341.254 320.131 342.293 316.586C343.332 313.04 357.026 268.752 357.026 268.752Z" fill="#222D43"/>
<path d="M372.681 265.248L370.885 272.48C370.885 272.48 373.538 272.685 374.184 272.48L376.667 266.469L372.681 265.248Z" fill="#222D43"/>
<path opacity="0.5" d="M156.399 89.7095L407.254 0.469983C409.262 -0.248473 411.474 -0.139728 413.402 0.772296C415.33 1.68432 416.817 3.32491 417.535 5.33317C418.253 7.34142 418.145 9.55282 417.233 11.4809C416.321 13.409 414.68 14.8958 412.672 15.6142L412.302 15.7375L157.386 92.6973C156.989 92.8281 156.557 92.7961 156.185 92.6084C155.812 92.4207 155.529 92.0927 155.399 91.6965C155.268 91.3003 155.3 90.8684 155.488 90.4957C155.675 90.1231 156.003 89.8403 156.399 89.7095V89.7095Z" fill="#DAF2F4"/>
<path opacity="0.5" d="M139.019 87.878L265.221 22.6228C265.711 22.3691 266.246 22.2146 266.796 22.1679C267.346 22.1212 267.9 22.1833 268.426 22.3506C268.952 22.518 269.44 22.7873 269.862 23.1432C270.284 23.499 270.632 23.9345 270.885 24.4248C271.139 24.9151 271.293 25.4505 271.34 26.0005C271.387 26.5504 271.325 27.1042 271.157 27.6302C270.99 28.1562 270.721 28.6441 270.365 29.066C270.009 29.4879 269.573 29.8356 269.083 30.0892L268.907 30.1773L139.723 89.3572C139.527 89.453 139.301 89.4669 139.094 89.3959C138.888 89.3249 138.718 89.1748 138.622 88.9786C138.527 88.7825 138.513 88.5563 138.584 88.3499C138.655 88.1435 138.805 87.9738 139.001 87.878H139.019Z" fill="#DAF2F4"/>
<path opacity="0.5" d="M245.14 135.272L403.626 107.683C404.872 107.467 406.152 107.754 407.186 108.482C408.219 109.209 408.922 110.318 409.138 111.563C409.355 112.809 409.067 114.089 408.34 115.123C407.612 116.156 406.504 116.859 405.258 117.075L405.035 117.11L245.416 137.115C245.178 137.137 244.942 137.067 244.754 136.92C244.566 136.773 244.442 136.559 244.407 136.324C244.371 136.088 244.428 135.847 244.564 135.652C244.7 135.456 244.907 135.32 245.14 135.272V135.272Z" fill="#DAF2F4"/>
<path opacity="0.5" d="M487.665 99.6707L530.762 90.1674C531.382 90.0093 532.027 89.9775 532.66 90.0738C533.292 90.1702 533.899 90.3928 534.443 90.7283C534.988 91.0638 535.46 91.5054 535.831 92.0269C536.201 92.5484 536.463 93.1391 536.601 93.7638C536.739 94.3886 536.75 95.0347 536.633 95.6637C536.516 96.2927 536.273 96.8918 535.92 97.4253C535.567 97.9589 535.111 98.4159 534.577 98.7694C534.044 99.1229 533.445 99.3655 532.816 99.4828C532.603 99.5256 532.387 99.557 532.17 99.5768L488.182 103.099C487.766 103.091 487.366 102.936 487.053 102.662C486.74 102.388 486.535 102.011 486.473 101.6C486.411 101.189 486.497 100.768 486.715 100.414C486.933 100.06 487.27 99.7945 487.665 99.6648V99.6707Z" fill="#DAF2F4"/>
<path opacity="0.5" d="M508.85 209.754L552.962 208.058C553.599 208.013 554.239 208.097 554.844 208.305C555.448 208.512 556.005 208.839 556.481 209.266C556.956 209.693 557.342 210.211 557.613 210.789C557.885 211.368 558.038 211.995 558.063 212.633C558.088 213.272 557.984 213.909 557.758 214.507C557.531 215.105 557.188 215.651 556.746 216.113C556.305 216.576 555.775 216.945 555.189 217.198C554.602 217.452 553.971 217.585 553.331 217.59C553.114 217.602 552.897 217.602 552.68 217.59L508.762 213.241C508.355 213.158 507.99 212.934 507.733 212.608C507.475 212.283 507.341 211.877 507.353 211.462C507.366 211.047 507.525 210.65 507.802 210.34C508.079 210.031 508.456 209.83 508.867 209.772L508.85 209.754Z" fill="#DAF2F4"/>
<path opacity="0.5" d="M463.235 171.031L494.087 168.642C494.533 168.592 494.984 168.634 495.413 168.762C495.843 168.891 496.242 169.105 496.588 169.391C496.933 169.677 497.217 170.03 497.424 170.428C497.63 170.826 497.754 171.262 497.789 171.709C497.824 172.156 497.768 172.606 497.625 173.031C497.483 173.456 497.256 173.848 496.959 174.184C496.662 174.52 496.3 174.793 495.896 174.986C495.491 175.18 495.052 175.29 494.603 175.31C494.451 175.318 494.298 175.318 494.146 175.31L463.253 173.461C462.944 173.439 462.655 173.302 462.444 173.076C462.234 172.85 462.116 172.552 462.116 172.243C462.116 171.934 462.234 171.636 462.444 171.41C462.655 171.184 462.944 171.046 463.253 171.025L463.235 171.031Z" fill="#DAF2F4"/>
<path opacity="0.5" d="M249.273 145.573L362.901 136.892C363.343 136.858 363.786 136.911 364.207 137.049C364.628 137.186 365.017 137.405 365.353 137.693C365.689 137.981 365.965 138.333 366.166 138.727C366.366 139.122 366.486 139.553 366.52 139.994C366.554 140.435 366.501 140.879 366.363 141.3C366.226 141.72 366.007 142.11 365.719 142.446C365.43 142.782 365.079 143.058 364.684 143.258C364.29 143.458 363.859 143.579 363.418 143.613H363.259L249.343 146.876C249.169 146.886 248.998 146.825 248.868 146.709C248.738 146.592 248.66 146.428 248.65 146.254C248.641 146.08 248.701 145.909 248.818 145.779C248.935 145.649 249.098 145.571 249.273 145.561V145.573Z" fill="#DAF2F4"/>
<path d="M162.886 251.559C162.955 251.698 162.991 251.851 162.992 252.005C162.988 252.28 162.879 252.543 162.686 252.739C162.508 252.947 162.259 253.083 161.988 253.121C161.823 253.153 161.653 253.126 161.506 253.044C161.348 252.955 161.226 252.814 161.16 252.645L160.644 251.471L156.922 251.994L156.394 253.32C156.32 253.514 156.199 253.685 156.042 253.819C155.901 253.936 155.73 254.009 155.549 254.031C155.425 254.053 155.298 254.048 155.177 254.016C155.055 253.985 154.942 253.928 154.844 253.849C154.743 253.774 154.661 253.676 154.607 253.562C154.552 253.448 154.527 253.323 154.533 253.197C154.533 253.035 154.569 252.874 154.639 252.727L157.679 245.578C157.772 245.346 157.926 245.143 158.125 244.991C158.314 244.848 158.536 244.755 158.771 244.721C158.99 244.687 159.215 244.717 159.417 244.809C159.615 244.904 159.774 245.063 159.869 245.261L162.886 251.559ZM157.638 250.18L159.939 249.851L158.795 247.251L157.621 250.186" fill="#FF7B80"/>
<path d="M167.001 243.189V243.318V255.568C167.003 256.183 166.792 256.778 166.403 257.254C166.014 257.729 165.472 258.055 164.87 258.175L152.637 259.889C152.36 259.925 152.078 259.899 151.812 259.813C151.546 259.727 151.302 259.584 151.098 259.392C150.894 259.201 150.735 258.966 150.633 258.706C150.531 258.446 150.487 258.166 150.506 257.887L150.536 242.091C150.536 241.477 150.749 240.882 151.138 240.406C151.528 239.931 152.07 239.606 152.672 239.485L162.281 238.135C162.34 238.126 162.399 238.126 162.457 238.135C162.529 238.14 162.599 238.16 162.663 238.194C162.732 238.226 162.793 238.272 162.845 238.329L166.819 242.801L166.924 242.972C166.96 243.04 166.986 243.113 167.001 243.189V243.189ZM165.463 255.786V244.328L163.303 244.586C163.077 244.61 162.848 244.585 162.633 244.512C162.418 244.439 162.222 244.321 162.057 244.164C161.892 244.008 161.764 243.818 161.68 243.607C161.596 243.396 161.559 243.169 161.571 242.942L161.518 239.89L152.661 241.134C152.487 241.167 152.33 241.26 152.218 241.396C152.105 241.532 152.044 241.703 152.044 241.88V257.67C152.038 257.749 152.049 257.828 152.076 257.902C152.104 257.976 152.147 258.043 152.202 258.099C152.258 258.154 152.325 258.197 152.399 258.225C152.473 258.252 152.552 258.263 152.631 258.257L164.852 256.513C165.021 256.474 165.172 256.379 165.279 256.242C165.386 256.105 165.442 255.936 165.439 255.762L165.463 255.786ZM164.547 242.772L163.062 241.105V242.678C163.061 242.711 163.067 242.744 163.08 242.775C163.093 242.806 163.112 242.833 163.137 242.855C163.161 242.878 163.19 242.894 163.222 242.904C163.254 242.914 163.287 242.917 163.32 242.913L164.523 242.772" fill="#FF7B80"/>
<path d="M304.409 95.0921H304.567C305.4 94.9855 306.242 94.9658 307.079 95.0334C307.481 95.0745 307.875 95.1673 308.253 95.3093C308.318 95.3404 308.377 95.3844 308.424 95.4386C308.472 95.4929 308.508 95.5562 308.53 95.6247C308.553 95.6933 308.561 95.7657 308.555 95.8376C308.549 95.9095 308.528 95.9794 308.494 96.043C308.453 96.1438 308.388 96.2327 308.304 96.3014C308.22 96.3701 308.119 96.4165 308.013 96.4363C307.935 96.4535 307.855 96.4535 307.778 96.4363C307.481 96.3214 307.168 96.2503 306.85 96.225C306.088 96.1563 305.32 96.1721 304.561 96.272H304.444C303.307 96.3883 302.218 96.7924 301.28 97.4459C299.783 98.6199 299.589 100.727 299.613 101.872C299.636 103.016 299.859 104.666 300.851 105.67C301.65 106.474 303.458 106.732 304.761 106.562C304.847 106.552 304.934 106.561 305.016 106.589C305.097 106.617 305.172 106.662 305.234 106.722C305.297 106.782 305.345 106.855 305.376 106.936C305.406 107.017 305.419 107.104 305.412 107.19V108.006C305.888 107.501 306.434 106.914 306.968 106.315L307.296 105.945L307.414 105.816C307.507 105.708 307.636 105.637 307.778 105.617C307.849 105.605 307.923 105.611 307.991 105.635C308.06 105.658 308.122 105.699 308.171 105.752C308.264 105.87 308.311 106.017 308.303 106.167C308.296 106.317 308.234 106.46 308.13 106.568L308.007 106.703L307.684 107.061C306.95 107.883 306.199 108.681 305.618 109.285C305.5 109.413 305.347 109.501 305.177 109.538H305.113C305.01 109.549 304.907 109.538 304.809 109.505C304.711 109.472 304.622 109.417 304.548 109.345C304.474 109.273 304.417 109.186 304.38 109.089C304.344 108.993 304.33 108.889 304.338 108.787V107.654C302.876 107.753 301.033 107.436 300.071 106.48C298.844 105.247 298.562 103.339 298.539 101.96C298.498 99.5591 299.272 97.6044 300.716 96.4598C301.811 95.6983 303.082 95.2276 304.409 95.0921V95.0921Z" fill="#F66689"/>
<path d="M309.157 97.4753C309.247 97.4637 309.338 97.4731 309.424 97.5026C309.509 97.5321 309.587 97.581 309.65 97.6455L311.816 99.9347V99.9641V100.005V100.052V100.099V100.158V100.199V100.422V100.487V100.539V100.598V100.651L311.787 100.704V100.733L311.752 100.78V100.815L309.521 103.674C309.465 103.752 309.394 103.818 309.313 103.868C309.231 103.919 309.14 103.952 309.046 103.967C308.964 103.98 308.88 103.975 308.8 103.952C308.72 103.93 308.646 103.891 308.582 103.838C308.454 103.7 308.382 103.519 308.382 103.33C308.382 103.142 308.454 102.961 308.582 102.823L309.756 101.308L305.447 101.866C305.36 101.877 305.271 101.868 305.188 101.84C305.104 101.812 305.028 101.766 304.965 101.704C304.902 101.643 304.853 101.568 304.823 101.485C304.793 101.402 304.781 101.314 304.79 101.226C304.793 101.036 304.861 100.852 304.983 100.706C305.104 100.56 305.272 100.459 305.459 100.422L309.773 99.8702L308.599 98.6551C308.482 98.5082 308.422 98.3235 308.431 98.1356C308.439 97.9476 308.516 97.7693 308.646 97.6337C308.791 97.5191 308.973 97.4626 309.157 97.4753V97.4753Z" fill="#F66689"/>
<path opacity="0.8" d="M277.078 77.8054C277.186 77.9252 277.246 78.0811 277.246 78.2427C277.246 78.4044 277.186 78.5602 277.078 78.68C276.494 79.3985 275.686 79.899 274.782 80.1005C274.667 80.1093 274.551 80.1093 274.436 80.1005C274.018 80.0917 273.61 79.9634 273.262 79.7307C273.368 79.5723 273.474 79.4079 273.579 79.2259C273.685 79.044 273.82 78.8268 273.955 78.6389C274.15 78.7683 274.378 78.8414 274.612 78.8503H274.794C275.374 78.7003 275.893 78.3742 276.279 77.917C276.379 77.7868 276.523 77.6988 276.684 77.6704C276.756 77.6633 276.828 77.6717 276.896 77.695C276.964 77.7183 277.026 77.756 277.078 77.8054V77.8054Z" fill="#F9B42F"/>
<path opacity="0.5" d="M277.412 74.6181C277.477 74.7695 277.486 74.9386 277.439 75.0962C277.392 75.2538 277.291 75.39 277.154 75.481C275.915 76.36 274.826 77.4344 273.932 78.6624C273.621 78.44 273.36 78.1538 273.168 77.8231C274.142 76.5184 275.317 75.3771 276.649 74.442C276.724 74.3895 276.811 74.3553 276.902 74.3422C277.005 74.3254 277.112 74.3433 277.204 74.3932C277.296 74.4431 277.37 74.5222 277.412 74.6181V74.6181Z" fill="#F9B42F"/>
<path opacity="0.9" d="M273.168 77.823C273.36 78.1538 273.62 78.4399 273.931 78.6624C273.796 78.8502 273.673 79.0498 273.556 79.2494C273.438 79.4489 273.344 79.5957 273.239 79.7542C272.927 79.5403 272.655 79.2742 272.435 78.9676L272.605 78.6859C272.778 78.3887 272.966 78.1007 273.168 77.823V77.823Z" fill="#F9B42F"/>
<path opacity="0.5" d="M272.435 78.9677C272.656 79.2743 272.928 79.5404 273.239 79.7542C272.847 80.4504 272.224 80.9881 271.478 81.2745C271.411 81.2955 271.342 81.3093 271.273 81.3156H271.167C270.894 81.3415 270.622 81.2639 270.404 81.0984C270.141 80.8405 269.826 80.6429 269.479 80.5192C269.132 80.3955 268.763 80.3488 268.396 80.3823C267.836 80.4766 267.33 80.7707 266.97 81.2099C266.923 81.2613 266.872 81.3085 266.817 81.3508C266.888 81.2965 266.95 81.2311 266.999 81.1571C267.496 80.4281 268.054 79.7428 268.666 79.1085C269.123 79.0944 269.578 79.1706 270.005 79.3328C270.432 79.495 270.823 79.7399 271.155 80.0536C271.196 80.064 271.238 80.064 271.278 80.0536C271.502 80.0477 271.901 79.8305 272.435 78.9677Z" fill="#F9B42F"/>
<path d="M266.565 81.4683C266.663 81.4545 266.756 81.4161 266.835 81.3568V81.3568C266.757 81.4132 266.666 81.4494 266.571 81.4625L266.565 81.4683Z" fill="#F9B42F"/>
<path opacity="0.9" d="M266.946 79.766C267.391 79.4402 267.909 79.2267 268.455 79.1438H268.683C268.071 79.7781 267.513 80.4634 267.016 81.1924C266.968 81.266 266.907 81.3297 266.834 81.3802L266.946 79.766Z" fill="#F9B42F"/>
<path opacity="0.8" d="M271.114 76.3379C271.516 76.3257 271.913 76.4351 272.252 76.6519C272.592 76.8686 272.858 77.1827 273.016 77.553L273.168 77.823C272.958 78.1001 272.762 78.3881 272.581 78.6859L272.411 78.9676C272.25 78.7546 272.107 78.5288 271.983 78.2926C271.719 77.7995 271.396 77.5647 270.991 77.5882H270.891C270.239 77.6762 269.418 78.3278 268.66 79.1085H268.431C267.886 79.1914 267.368 79.4049 266.923 79.7307L266.952 79.3374C267.891 78.1634 269.441 76.5258 270.891 76.3203H271.067L271.114 76.3379Z" fill="#F9B42F"/>
<path d="M266.119 80.5231C266.207 80.394 266.524 79.9361 266.976 79.3491L266.946 79.7424C266.656 79.948 266.39 80.1863 266.154 80.4527C266.142 80.4732 266.128 80.4928 266.113 80.5114L266.119 80.5231Z" fill="#F9B42F"/>
<path d="M266.154 80.4763C266.09 80.5622 266.044 80.66 266.019 80.7639C265.986 80.8751 265.987 80.9936 266.022 81.1043C266.056 81.2151 266.123 81.3131 266.213 81.3861C266.259 81.4154 266.308 81.4391 266.36 81.4565H266.389H266.459H266.565C266.663 81.4427 266.756 81.4043 266.835 81.345L266.947 79.7543C266.655 79.9635 266.389 80.2058 266.154 80.4763V80.4763Z" fill="#F9B42F"/>
<path d="M266.019 80.7639C265.988 80.8664 265.987 80.9752 266.014 81.0786C266.04 81.1821 266.095 81.2762 266.172 81.3509C266.225 81.4004 266.289 81.4366 266.359 81.4566C266.308 81.4391 266.258 81.4154 266.213 81.3861C266.122 81.3131 266.056 81.2151 266.021 81.1044C265.987 80.9936 265.986 80.8752 266.019 80.7639V80.7639Z" fill="#F9B42F"/>
<path d="M266.03 80.7109C266.028 80.729 266.028 80.7474 266.03 80.7654C266.028 80.7474 266.028 80.729 266.03 80.7109V80.7109Z" fill="#F9B42F"/>
<path d="M267.029 71.6715C267.091 71.6647 267.155 71.6723 267.214 71.6937C267.274 71.715 267.328 71.7497 267.372 71.7949C267.416 71.8401 267.449 71.8948 267.469 71.9548C267.489 72.0147 267.495 72.0784 267.486 72.1411L266.976 79.3727C266.524 79.9597 266.207 80.3941 266.119 80.5467C266.072 80.6207 266.038 80.7021 266.019 80.7874C265.989 80.8898 265.987 80.9987 266.014 81.1021C266.04 81.2056 266.095 81.2997 266.172 81.3744C266.225 81.4239 266.289 81.46 266.359 81.48H266.459H266.571C266.666 81.467 266.757 81.4307 266.835 81.3744L266.659 83.8397L277.224 83.2116C277.285 83.2093 277.345 83.2202 277.4 83.2437C277.456 83.2671 277.506 83.3025 277.546 83.3473C277.586 83.3922 277.616 83.4453 277.634 83.503C277.651 83.5607 277.656 83.6216 277.647 83.6812C277.636 83.8057 277.586 83.9235 277.504 84.0174C277.421 84.1114 277.311 84.1766 277.189 84.2036L266.113 84.8669C266.052 84.8684 265.992 84.8566 265.937 84.8325C265.881 84.8084 265.832 84.7724 265.791 84.7272C265.751 84.6819 265.721 84.6285 265.704 84.5705C265.686 84.5125 265.682 84.4514 265.69 84.3915L266.571 72.1998C266.58 72.0743 266.63 71.9552 266.712 71.86C266.795 71.7649 266.906 71.6988 267.029 71.6715Z" fill="#F9B42F"/>
<path d="M108.413 80.5115H108.495L111.43 80.3765C111.561 80.3731 111.691 80.3987 111.811 80.4513C111.931 80.5039 112.038 80.5823 112.124 80.6809C112.211 80.7795 112.274 80.896 112.31 81.0219C112.347 81.1478 112.355 81.2802 112.334 81.4096L112.07 84.6263C112.05 84.895 111.943 85.1499 111.765 85.3522C111.587 85.5545 111.348 85.6933 111.084 85.7474H110.996L108.061 85.8825C107.93 85.885 107.801 85.8588 107.681 85.8058C107.562 85.7528 107.456 85.6743 107.37 85.5758C107.285 85.4772 107.222 85.3611 107.186 85.2356C107.15 85.1101 107.142 84.9783 107.163 84.8494L107.427 81.6268C107.446 81.3585 107.553 81.104 107.731 80.9025C107.909 80.701 108.149 80.5636 108.413 80.5115V80.5115Z" fill="#2CC3D5"/>
<path d="M123.464 69.2296C126.064 69.1122 128.001 71.3251 127.766 74.172L126.592 88.7762C126.369 91.4705 124.291 93.7773 121.855 94.1178C121.714 94.1178 121.579 94.153 121.433 94.1589L107.057 94.8222C104.451 94.9454 102.52 92.7266 102.755 89.8797L103.929 75.2755C104.146 72.5813 106.23 70.2744 108.666 69.934C108.807 69.934 108.942 69.8987 109.082 69.8929H109.294L109.405 68.5252C109.423 68.257 109.529 68.0023 109.708 67.8014C109.887 67.6005 110.127 67.4648 110.391 67.4158H110.479C110.61 67.4133 110.739 67.4394 110.859 67.4924C110.978 67.5454 111.084 67.624 111.17 67.7225C111.256 67.821 111.318 67.9371 111.354 68.0626C111.39 68.1881 111.398 68.32 111.378 68.4489L111.266 69.8107L120.893 69.3646L121.004 68.0028C121.024 67.7336 121.132 67.4785 121.311 67.2769C121.49 67.0753 121.731 66.9384 121.996 66.8875H122.078C122.21 66.885 122.34 66.9113 122.46 66.9646C122.58 67.0179 122.687 67.0969 122.773 67.1959C122.859 67.295 122.922 67.4117 122.959 67.5379C122.995 67.6642 123.003 67.7968 122.982 67.9265L122.865 69.2824L123.464 69.2296ZM124.602 88.8643L125.565 77.0658L105.678 77.9874L104.709 89.8093C104.568 91.4705 105.695 92.7442 107.222 92.6914L121.597 92.0281H121.838C122.576 91.8816 123.245 91.4977 123.744 90.9349C124.244 90.3721 124.545 89.6613 124.602 88.9112V88.8643ZM125.776 74.3129C125.911 72.6517 124.784 71.3779 123.264 71.4308H122.677L122.56 72.7867C122.541 73.0557 122.434 73.3111 122.256 73.5136C122.077 73.7161 121.838 73.8546 121.573 73.9079H121.527C121.396 73.9114 121.266 73.8859 121.146 73.8333C121.026 73.7806 120.919 73.7021 120.834 73.6033C120.748 73.5046 120.685 73.388 120.649 73.262C120.614 73.1361 120.607 73.0038 120.628 72.8748L120.74 71.5129L111.113 71.9649L111.002 73.3209C110.982 73.5896 110.875 73.8444 110.697 74.0467C110.519 74.2491 110.28 74.3878 110.016 74.442H109.928C109.797 74.4445 109.668 74.4183 109.548 74.3653C109.429 74.3124 109.323 74.2338 109.237 74.1353C109.152 74.0368 109.089 73.9207 109.053 73.7952C109.017 73.6697 109.009 73.5378 109.03 73.4089L109.135 72.0471H108.93H108.689C107.95 72.1918 107.28 72.5752 106.78 73.1383C106.281 73.7015 105.98 74.4133 105.924 75.164L105.872 75.8097L125.765 74.8881L125.817 74.2424" fill="#2CC3D5"/>
<path fill-rule="evenodd" clip-rule="evenodd" d="M286.3 199.241C286.679 201.125 286.386 203.081 285.472 204.771C285.058 205.409 284.588 206.01 284.069 206.567C283.975 206.667 283.881 206.772 283.793 206.878C283.148 207.612 282.496 208.316 281.997 208.844C281.9 208.954 281.771 209.03 281.627 209.062H281.563C281.477 209.072 281.389 209.064 281.306 209.036C281.224 209.009 281.148 208.964 281.085 208.904C281.022 208.843 280.973 208.77 280.942 208.689C280.911 208.607 280.899 208.52 280.905 208.434V207.418C279.62 207.53 278 207.271 277.143 206.432C276.063 205.364 275.799 203.708 275.769 202.505C275.711 200.409 276.356 198.701 277.624 197.686C278.612 196.98 279.764 196.539 280.97 196.406C281.699 196.308 282.437 196.284 283.171 196.336C283.951 196.376 284.691 196.69 285.263 197.221C285.835 197.752 286.202 198.467 286.3 199.241ZM284.744 204.325C285.525 202.863 285.767 201.174 285.425 199.552C285.35 198.951 285.064 198.396 284.618 197.987C284.172 197.577 283.595 197.339 282.989 197.316C282.316 197.265 281.638 197.288 280.97 197.386C279.933 197.488 278.94 197.856 278.088 198.455C276.779 199.511 276.626 201.39 276.65 202.364C276.673 203.339 276.902 204.818 277.783 205.692C278.493 206.397 280.095 206.602 281.24 206.438C281.312 206.429 281.385 206.436 281.454 206.459C281.523 206.482 281.586 206.519 281.639 206.569C281.692 206.619 281.733 206.68 281.759 206.748C281.785 206.815 281.797 206.888 281.792 206.96V207.794C282.214 207.336 282.702 206.808 283.189 206.25L283.471 205.927C283.941 205.426 284.367 204.886 284.744 204.313V204.325ZM281.099 203.749C281.17 203.735 281.244 203.739 281.313 203.759C281.383 203.78 281.446 203.816 281.499 203.867C281.552 203.92 281.594 203.985 281.621 204.055C281.648 204.126 281.661 204.202 281.657 204.277C281.659 204.446 281.603 204.61 281.499 204.741C281.4 204.866 281.257 204.948 281.099 204.97C281.028 204.983 280.955 204.978 280.886 204.958C280.817 204.938 280.753 204.902 280.7 204.853C280.595 204.74 280.538 204.59 280.542 204.436C280.539 204.269 280.595 204.107 280.7 203.978C280.799 203.854 280.942 203.772 281.099 203.749ZM281.327 199.146C281.256 199.131 281.183 199.132 281.112 199.147C280.959 199.166 280.817 199.239 280.713 199.353C280.658 199.409 280.615 199.477 280.587 199.55C280.559 199.624 280.546 199.702 280.548 199.781V199.863L280.818 202.986C280.824 203.069 280.857 203.147 280.912 203.209C280.939 203.231 280.97 203.247 281.004 203.256C281.037 203.265 281.072 203.267 281.106 203.262C281.181 203.251 281.25 203.214 281.3 203.156C281.357 203.084 281.39 202.996 281.394 202.904L281.681 199.705V199.617C281.686 199.545 281.674 199.474 281.647 199.407C281.619 199.341 281.577 199.282 281.523 199.235C281.465 199.192 281.398 199.162 281.327 199.146Z" fill="#B97CE8"/>
<path d="M88.2978 119.159C88.3506 119.153 88.404 119.159 88.454 119.177C88.504 119.195 88.5494 119.224 88.5866 119.262C88.6239 119.299 88.6521 119.345 88.6692 119.396C88.6863 119.446 88.6918 119.499 88.6852 119.552C88.6817 119.663 88.6402 119.77 88.5675 119.854C88.4949 119.939 88.3956 119.996 88.2861 120.016V120.016C88.2341 120.021 88.1814 120.015 88.1321 119.998C88.0828 119.98 88.0381 119.952 88.0014 119.914C87.9647 119.877 87.9369 119.832 87.9201 119.782C87.9034 119.733 87.898 119.68 87.9046 119.628C87.9065 119.517 87.9466 119.409 88.0182 119.324C88.0897 119.238 88.1885 119.18 88.2978 119.159V119.159Z" fill="#F99B45"/>
<path d="M89.0843 117.726C89.2045 117.716 89.3256 117.733 89.4387 117.775C89.5518 117.817 89.6542 117.884 89.7384 117.97C89.8226 118.057 89.8866 118.161 89.9257 118.275C89.9649 118.389 89.9782 118.511 89.9647 118.63L89.906 120.18C89.8914 120.436 89.7934 120.68 89.627 120.875C89.4606 121.07 89.2349 121.205 88.9845 121.26H88.9493L87.5229 121.401C87.4029 121.412 87.282 121.397 87.1688 121.355C87.0557 121.314 86.9532 121.248 86.8688 121.162C86.7845 121.076 86.7204 120.972 86.6812 120.858C86.642 120.744 86.6288 120.623 86.6424 120.503L86.7011 118.947C86.7099 118.69 86.806 118.444 86.9735 118.249C87.141 118.053 87.3699 117.921 87.6227 117.873H87.6579L89.0843 117.726ZM89.0138 120.262L89.0725 118.718V118.683L87.6403 118.83V118.865L87.5816 120.409V120.444L89.008 120.297L89.0373 120.262" fill="#F99B45"/>
<path d="M94.0439 116.928L92.688 117.063C92.688 117.139 92.688 117.233 92.7349 117.315C92.8092 117.815 92.8309 118.32 92.7995 118.824L94.1789 118.683C94.2457 118.677 94.3129 118.686 94.3756 118.71C94.4383 118.734 94.4949 118.771 94.5411 118.82C94.5874 118.868 94.6221 118.926 94.6427 118.99C94.6633 119.054 94.6693 119.121 94.6602 119.188C94.6548 119.328 94.6019 119.463 94.5102 119.569C94.4186 119.676 94.2935 119.748 94.1554 119.775L92.6586 119.916C92.5554 120.409 92.3979 120.889 92.189 121.348L93.8619 121.184C93.9286 121.178 93.9956 121.187 94.0583 121.211C94.121 121.234 94.1778 121.271 94.2248 121.318C94.2718 121.366 94.3078 121.423 94.3303 121.486C94.3528 121.549 94.3612 121.616 94.355 121.683L94.3139 122.792C94.4517 122.836 94.5808 122.903 94.6955 122.992C94.8403 123.115 94.9576 123.268 95.0395 123.44C95.1214 123.612 95.1662 123.799 95.1709 123.989C95.1931 124.411 95.0664 124.826 94.8129 125.163C94.5741 125.492 94.2233 125.722 93.8267 125.809H93.6917C93.5174 125.825 93.3416 125.805 93.1757 125.749C93.0098 125.694 92.8574 125.604 92.7285 125.485C92.5996 125.367 92.497 125.223 92.4273 125.062C92.3576 124.901 92.3224 124.728 92.324 124.553C92.3121 124.21 92.3973 123.87 92.5696 123.573C92.742 123.276 92.9946 123.034 93.2984 122.874V122.322L91.4494 122.504L90.6453 123.35L90.4163 123.596C89.8763 124.183 89.3245 124.729 88.9019 125.152C88.7954 125.257 88.661 125.331 88.5145 125.363H88.4499C88.3592 125.375 88.2668 125.366 88.1803 125.336C88.0937 125.306 88.0154 125.256 87.9515 125.191C87.8876 125.125 87.84 125.045 87.8124 124.958C87.7848 124.871 87.778 124.778 87.7925 124.688V124.007C86.8927 124.04 86.0023 123.814 85.2274 123.355H85.1217L82.8149 123.579V124.136C83.047 124.205 83.2521 124.345 83.4018 124.535C83.5175 124.691 83.6009 124.869 83.6473 125.057C83.6936 125.245 83.702 125.441 83.6718 125.633C83.6175 126.051 83.423 126.438 83.1201 126.731C82.8882 126.959 82.5905 127.109 82.269 127.159H82.0635C81.8822 127.16 81.7031 127.12 81.5402 127.04C81.3772 126.961 81.2349 126.845 81.1243 126.701C81.009 126.545 80.9257 126.368 80.8794 126.179C80.833 125.991 80.8245 125.795 80.8543 125.604C80.89 125.313 80.9956 125.034 81.1622 124.793C81.3289 124.552 81.5515 124.355 81.8111 124.218L81.8522 123.115C81.8597 122.975 81.9133 122.841 82.0046 122.735C82.0959 122.629 82.2198 122.556 82.357 122.528L84.3762 122.328C84.159 121.907 84.0066 121.456 83.9243 120.99L82.2161 121.16C82.1497 121.165 82.0832 121.155 82.0209 121.131C81.9587 121.107 81.9023 121.071 81.8555 121.023C81.8088 120.976 81.7727 120.919 81.7498 120.857C81.727 120.794 81.7179 120.728 81.7231 120.661C81.7318 120.521 81.7866 120.387 81.8789 120.281C81.9712 120.175 82.0959 120.102 82.2337 120.074L83.8186 119.922C83.8186 119.828 83.8186 119.74 83.8186 119.652C83.8243 119.139 83.8873 118.629 84.0064 118.131L82.5448 118.272C82.4786 118.278 82.412 118.269 82.3498 118.245C82.2876 118.222 82.2313 118.185 82.1852 118.137C82.1391 118.09 82.1042 118.032 82.0832 117.969C82.0621 117.906 82.0554 117.839 82.0635 117.773L82.0987 116.67C81.9586 116.629 81.8286 116.559 81.7172 116.464C81.5711 116.342 81.4531 116.189 81.3711 116.017C81.2891 115.845 81.245 115.657 81.2417 115.466C81.2205 115.045 81.3472 114.63 81.5998 114.292C81.8378 113.966 82.186 113.736 82.5801 113.647H82.6681C82.8349 113.619 83.0057 113.628 83.1689 113.673C83.332 113.717 83.4835 113.796 83.6132 113.905C83.7571 114.028 83.8734 114.18 83.9543 114.351C84.0353 114.522 84.079 114.708 84.0827 114.897C84.1049 115.318 83.9782 115.734 83.7247 116.071C83.5745 116.287 83.3728 116.463 83.1377 116.582V117.169L84.4643 117.034C84.7298 116.504 85.1109 116.04 85.5796 115.678C85.7821 115.529 85.9983 115.399 86.2252 115.29L86.2605 114.322C86.2683 114.181 86.3227 114.047 86.4152 113.941C86.5076 113.834 86.6329 113.762 86.7711 113.735C86.8387 113.727 86.907 113.735 86.9712 113.758C87.0353 113.78 87.0937 113.817 87.142 113.864C87.1904 113.912 87.2275 113.97 87.2506 114.034C87.2738 114.098 87.2824 114.166 87.2759 114.234L87.2466 114.932C87.4709 114.875 87.6982 114.83 87.9275 114.797L87.9803 113.318C87.9881 113.177 88.0426 113.043 88.135 112.937C88.2275 112.831 88.3528 112.758 88.491 112.731C88.5588 112.723 88.6276 112.73 88.6923 112.752C88.757 112.774 88.8158 112.81 88.8644 112.858C88.913 112.906 88.95 112.965 88.9728 113.029C88.9956 113.093 89.0034 113.162 88.9958 113.23L88.943 114.703C89.166 114.703 89.395 114.703 89.618 114.703V114.005C89.6238 113.863 89.6775 113.728 89.7703 113.622C89.8631 113.515 89.9895 113.443 90.1287 113.418C90.196 113.412 90.2639 113.42 90.3276 113.443C90.3913 113.466 90.4492 113.502 90.4973 113.55C90.5454 113.597 90.5825 113.655 90.606 113.718C90.6295 113.782 90.6389 113.849 90.6335 113.917L90.5983 114.838C91.2891 114.997 91.8911 115.418 92.2771 116.012L93.5684 115.883L93.5978 115.331C93.2995 115.224 93.0494 115.013 92.8923 114.738C92.7352 114.463 92.6815 114.14 92.7408 113.829C92.7839 113.457 92.9442 113.109 93.1986 112.834C93.4529 112.56 93.7881 112.374 94.1554 112.302H94.355C94.5368 112.302 94.7162 112.343 94.8792 112.424C95.0422 112.504 95.1842 112.621 95.2942 112.766C95.4111 112.921 95.4958 113.099 95.5432 113.287C95.5906 113.476 95.5997 113.672 95.5701 113.864C95.5131 114.279 95.3189 114.664 95.0183 114.956C94.8958 115.071 94.7574 115.168 94.6074 115.243L94.5663 116.347C94.5577 116.488 94.5013 116.623 94.4065 116.729C94.3116 116.834 94.1838 116.904 94.0439 116.928V116.928ZM91.0679 121.377C91.7076 120.238 91.9415 118.916 91.7312 117.626C91.6901 117.163 91.4868 116.729 91.1572 116.4C90.8277 116.072 90.3928 115.87 89.9291 115.83C89.3986 115.771 88.8631 115.771 88.3325 115.83L88.0273 115.866C87.3189 115.937 86.6382 116.179 86.0433 116.57C85.0161 117.345 84.8693 118.783 84.84 119.575C84.772 120.525 85.0492 121.467 85.6206 122.228C86.1548 122.815 87.3816 123.009 88.2914 122.921C88.3706 122.913 88.4505 122.922 88.5255 122.949C88.6005 122.975 88.6686 123.018 88.7249 123.075C88.7811 123.131 88.8241 123.199 88.8507 123.274C88.8772 123.349 88.8867 123.429 88.8784 123.508V123.854C89.166 123.561 89.4654 123.238 89.7941 122.903L90.0348 122.651C90.4258 122.267 90.7796 121.846 91.0914 121.395L91.0679 121.377ZM93.7621 113.846C93.751 113.9 93.7517 113.955 93.764 114.008C93.7763 114.061 93.8001 114.111 93.8336 114.154C93.8671 114.197 93.9096 114.232 93.9581 114.257C94.0065 114.282 94.0599 114.296 94.1143 114.298H94.173C94.2767 114.277 94.371 114.223 94.4427 114.145C94.5143 114.067 94.5596 113.969 94.5722 113.864C94.5905 113.75 94.563 113.634 94.4959 113.541C94.4628 113.5 94.4207 113.467 94.3729 113.445C94.3251 113.422 94.2728 113.411 94.22 113.412H94.173C94.0672 113.431 93.9703 113.484 93.8964 113.562C93.8225 113.64 93.7754 113.74 93.7621 113.846V113.846ZM82.7033 125.698C82.7126 125.642 82.7106 125.586 82.6974 125.531C82.6843 125.477 82.6604 125.426 82.627 125.381C82.594 125.34 82.5529 125.308 82.5064 125.284C82.4599 125.261 82.409 125.248 82.357 125.246H82.2924C82.1883 125.268 82.0938 125.323 82.0222 125.402C81.9507 125.481 81.9056 125.58 81.8933 125.686C81.8844 125.741 81.8865 125.798 81.8996 125.852C81.9127 125.906 81.9365 125.958 81.9696 126.003C82.0024 126.043 82.0435 126.075 82.0902 126.097C82.1369 126.12 82.1879 126.132 82.2396 126.132H82.31C82.3983 126.117 82.4801 126.076 82.5448 126.014C82.6291 125.928 82.6844 125.817 82.7033 125.698V125.698ZM93.7269 123.854C93.6133 123.884 93.513 123.951 93.4426 124.045C93.3722 124.139 93.3358 124.254 93.3395 124.371C93.3388 124.423 93.3496 124.475 93.3712 124.523C93.3927 124.571 93.4245 124.613 93.4642 124.647C93.504 124.682 93.5507 124.707 93.6012 124.721C93.6516 124.735 93.7046 124.738 93.7563 124.729V124.729C93.8694 124.702 93.9692 124.635 94.038 124.541C94.1095 124.445 94.1467 124.327 94.1437 124.207C94.1369 124.099 94.0885 123.998 94.0087 123.925C93.9428 123.87 93.8595 123.841 93.7739 123.843V123.843H93.7328L93.7269 123.854ZM82.9792 115.46C83.0533 115.365 83.0908 115.246 83.0849 115.126C83.0796 115.016 83.0311 114.913 82.9499 114.838C82.8775 114.784 82.788 114.757 82.6975 114.762H82.6505C82.5358 114.786 82.4348 114.853 82.3687 114.95C82.2981 115.047 82.261 115.164 82.2631 115.284C82.2655 115.339 82.2793 115.392 82.3036 115.44C82.3279 115.489 82.3621 115.532 82.404 115.566C82.4705 115.619 82.5538 115.646 82.6388 115.642H82.6975C82.8117 115.621 82.913 115.556 82.9792 115.46" fill="#F99B45"/>
<path d="M427.27 168.659C426.184 171.312 428.749 172.486 431.966 173.801C435.183 175.116 437.836 176.079 438.928 173.426C440.02 170.772 438.282 167.556 435.06 166.235C431.837 164.914 428.35 166 427.27 168.659Z" stroke="white" stroke-width="0.939178" stroke-miterlimit="10"/>
<path d="M428.702 166.828L432.506 157.518L434.32 153.081C435.718 154.041 437.216 154.848 438.787 155.487L439.961 155.963C441.529 156.606 443.163 157.076 444.833 157.366L443.072 161.621L439.186 171.119C439.304 171.897 439.214 172.693 438.928 173.426C437.842 176.079 435.189 175.116 431.966 173.801C428.743 172.486 426.178 171.312 427.27 168.659C427.573 167.93 428.068 167.297 428.702 166.828Z" fill="#CB8591"/>
<path d="M435.529 108.066L426.008 131.345C424.83 134.212 424.229 137.283 424.241 140.382C424.253 143.481 424.876 146.547 426.076 149.404C427.276 152.262 429.028 154.854 431.233 157.032C433.437 159.211 436.05 160.932 438.922 162.098L440.096 162.567C441.663 163.215 443.297 163.687 444.968 163.976C450.263 164.891 455.712 163.97 460.412 161.365C465.112 158.76 468.782 154.628 470.813 149.653L480.334 126.374C481.506 123.507 482.102 120.437 482.087 117.339C482.072 114.242 481.447 111.178 480.248 108.322C479.049 105.466 477.299 102.875 475.098 100.696C472.897 98.5163 470.288 96.7921 467.42 95.6214L466.246 95.1459C460.459 92.7935 453.975 92.8326 448.216 95.2546C442.458 97.6766 437.895 102.284 435.529 108.066V108.066Z" fill="#CB8591"/>
<path d="M439.515 83.174C442.68 82.8099 447.129 85.9324 450.046 84.1726C452.964 82.4127 459.375 82.6995 462.022 88.0675C464.669 93.4354 469.474 92.3541 469.474 92.3541C481.329 91.6259 482.601 99.8239 482.975 101.893C483.349 103.962 479.62 101.396 488.004 108.215C496.389 115.034 492.781 123.16 490.623 124.214C488.465 125.268 488.683 127.121 487.112 133.3C486.771 134.232 486.225 135.082 485.512 135.794C483.516 141.19 481.126 146.444 478.359 151.517C478.359 151.517 473.18 168.244 460.848 168.382C448.516 168.52 448.366 162.314 444.355 166.926C440.344 171.538 420.6 162.771 419.086 156.786C417.573 150.8 414.235 150.044 416.468 145.879C418.701 141.714 421.492 135.628 424.847 134.635C428.202 133.642 427.69 140.064 430.63 142.271C435.666 146.039 447.583 122.068 452.435 125.306C454.299 126.548 459.916 123.193 460.33 122.923C462.338 121.544 462.891 117.958 463.668 117.368C467.316 114.521 464.548 112.005 464.076 111.492C463.391 110.742 463.581 106.218 448.435 108.778C437.501 110.631 427.034 101.782 428.363 93.965C428.752 91.2512 430.05 88.732 432.062 86.786C434.073 84.8401 436.688 83.5725 439.515 83.174V83.174Z" fill="#2C2A46"/>
<path d="M452.752 131.539C453.521 132.813 454.155 136.076 447.222 142.011C446.9 142.295 446.513 142.497 446.095 142.598C445.853 142.653 445.604 142.671 445.356 142.651C445.262 142.641 445.171 142.608 445.092 142.556C445.013 142.503 444.948 142.432 444.903 142.349C444.857 142.266 444.833 142.173 444.831 142.079C444.829 141.984 444.85 141.89 444.892 141.805C445.673 139.939 448.837 132.625 450.885 130.905C451.425 130.435 452.488 131.11 452.752 131.539Z" fill="#CB8591"/>
<defs>
<linearGradient id="paint0_linear" x1="128.682" y1="366.304" x2="133.032" y2="366.304" gradientUnits="userSpaceOnUse">
<stop offset="0.44" stop-color="#242B36"/>
<stop offset="1" stop-color="#1D1D1D"/>
</linearGradient>
<linearGradient id="paint1_linear" x1="5.20312" y1="325.467" x2="18.0875" y2="325.467" gradientUnits="userSpaceOnUse">
<stop stop-color="#1D1D1D"/>
<stop offset="0.56" stop-color="#242B36"/>
</linearGradient>
<linearGradient id="paint2_linear" x1="312.503" y1="386.226" x2="321.149" y2="386.226" gradientUnits="userSpaceOnUse">
<stop stop-color="#52636C"/>
<stop offset="0.04" stop-color="#4D5B66"/>
<stop offset="0.16" stop-color="#404757"/>
<stop offset="0.31" stop-color="#38394C"/>
<stop offset="0.48" stop-color="#333146"/>
<stop offset="0.8" stop-color="#312F44"/>
</linearGradient>
<linearGradient id="paint3_linear" x1="20776.1" y1="4970.96" x2="23172.9" y2="4970.96" gradientUnits="userSpaceOnUse">
<stop stop-color="#F5F8F9"/>
<stop offset="0.44" stop-color="#DEE8EC"/>
<stop offset="1" stop-color="#D2DFE6"/>
</linearGradient>
<linearGradient id="paint4_linear" x1="15175" y1="9136.24" x2="16105.7" y2="9136.24" gradientUnits="userSpaceOnUse">
<stop stop-color="#F5F8F9"/>
<stop offset="0.44" stop-color="#DEE8EC"/>
<stop offset="1" stop-color="#D2DFE6"/>
</linearGradient>
<linearGradient id="paint5_linear" x1="390.859" y1="396.51" x2="398.549" y2="396.51" gradientUnits="userSpaceOnUse">
<stop offset="0.2" stop-color="#312F44"/>
<stop offset="0.52" stop-color="#333146"/>
<stop offset="0.69" stop-color="#38394C"/>
<stop offset="0.84" stop-color="#404757"/>
<stop offset="0.96" stop-color="#4D5B66"/>
<stop offset="1" stop-color="#52636C"/>
</linearGradient>
</defs>
</svg>
