<svg width="72" height="72" viewBox="0 0 72 72" fill="none" xmlns="http://www.w3.org/2000/svg">
<path d="M28.2717 48.3144C28.8432 48.3144 29.311 48.7779 29.311 49.3508L29.3081 55.2323C29.3081 55.8037 29.6694 55.9764 30.1127 55.6137L38.2282 48.9708C38.6715 48.6081 39.5006 48.313 40.0721 48.313L53.4975 48.3216C55.0924 48.228 56.4484 46.3482 56.5448 44.8425L56.5275 26.084C56.5275 25.5126 56.9953 25.1671 57.5682 25.1671H60.1678C60.7393 25.1671 61.2071 25.5111 61.2071 26.084L61.233 45.3161C61.233 49.4746 58.0879 53.9555 53.4097 53.9555H41.7447C41.1732 53.9555 40.3427 53.7698 39.9008 54.1311L25.4289 65.7343C24.9855 66.097 24.6242 65.8048 24.6242 65.2333L24.63 54.0894C24.63 53.5193 24.1622 53.0199 23.5907 53.0199L18.3757 53.0127C14.3108 53.0127 10.2056 49.0399 9.98389 44.9721V36.8753C9.98389 36.3024 10.7295 36.681 11.3024 36.681H13.902C14.4734 36.681 14.9412 36.7256 14.9412 37.2971L14.9686 44.8843C14.9686 46.3496 16.7995 48.182 18.3124 48.4152L28.2717 48.3144ZM21.5439 32.3153C21.2776 32.8219 20.5924 33.235 20.0195 33.235H11.3024C10.7309 33.235 10.2631 32.7672 10.2631 32.1958V29.5962C10.2631 29.0247 10.7309 28.5569 11.3024 28.5569H17.1925C17.764 28.5569 18.4506 28.1424 18.7168 27.6371L26.6034 12.6571C26.8697 12.1519 27.3361 12.1331 27.6398 12.6168L34.2971 23.208C34.6023 23.6931 35.0773 23.6787 35.3537 23.1778L44.6394 6.37546C44.9157 5.87599 45.3951 5.86015 45.7045 6.34092L52.0711 16.2441C52.3806 16.7249 53.1003 17.1179 53.6732 17.1179H60.1664C60.7378 17.1179 61.2056 17.5857 61.2056 18.1586V20.7567C61.2056 21.3282 60.7378 21.7974 60.1664 21.7974H51.1153C50.5439 21.7974 49.8227 21.4044 49.5132 20.9237L46.001 15.4755C45.6916 14.9947 45.2108 15.0105 44.9344 15.5115L35.6128 32.3714C35.3364 32.8709 34.8614 32.8838 34.5562 32.4016L28.004 21.9701C27.7003 21.4865 27.2325 21.5038 26.9662 22.009L21.5439 32.3153Z" fill="#0385CD"/>
</svg>
