<svg width="24" height="24" xmlns="http://www.w3.org/2000/svg">

 <g>
  <title>background</title>
  <rect fill="none" id="canvas_background" height="402" width="582" y="-1" x="-1"/>
 </g>
 <g>
  <title>Layer 1</title>
  <path id="svg_1" fill="#ffffff" d="m17.9999,13.5001l1.6,0c0.6,0 1,-0.4 1,-1c0,-0.6 -0.4,-1 -1,-1l-1.6,0l0,-0.6c0,-0.5 -0.1,-0.9 -0.2,-1.4l1.8,0c0.6,0 1,-0.4 1,-1c0,-0.6 -0.4,-1 -1,-1l-2.7,0c-0.4,-0.6 -1,-1.2 -1.6,-1.6l2,-2.1c0.4,-0.4 0.4,-1 0,-1.4c-0.4,-0.4 -1,-0.4 -1.4,0l-2.5,2.7c-0.5,-0.1 -0.9,-0.2 -1.4,-0.2c-0.4,0 -0.7,0 -1.1,0.1l-2.3,-2.4c-0.4,-0.4 -1,-0.4 -1.4,0c-0.4,0.4 -0.4,1 0,1.4l1.8,1.8c-0.7,0.4 -1.3,1 -1.8,1.7l-2.8,0c-0.6,0 -1,0.4 -1,1c0,0.6 0.4,1 1,1l1.8,0c-0.1,0.5 -0.2,0.9 -0.2,1.4l0,0.6l-1.6,0c-0.6,0 -1,0.4 -1,1c0,0.6 0.4,1 1,1l1.6,0l0,1.4c0,0.2 0,0.4 0,0.6l-1.6,0c-0.6,0 -1,0.4 -1,1c0,0.6 0.4,1 1,1l2.2,0c1,2 3,3.4 5.4,3.4c2.4,0 4.4,-1.4 5.4,-3.4l2.2,0c0.6,0 1,-0.4 1,-1c0,-0.6 -0.4,-1 -1,-1l-1.6,0c0,-0.2 0,-0.4 0,-0.6l0,-1.4zm-3.8,2.4l-4.4,0c-0.6,0 -1,-0.4 -1,-1c0,-0.6 0.4,-1 1,-1l4.4,0c0.6,0 1,0.4 1,1c0,0.6 -0.4,1 -1,1zm0,-4l-4.4,0c-0.6,0 -1,-0.4 -1,-1c0,-0.6 0.4,-1 1,-1l4.4,0c0.6,0 1,0.4 1,1c0,0.6 -0.4,1 -1,1z"/>
 </g>
</svg>