<svg width="72" height="73" viewBox="0 0 72 73" fill="none" xmlns="http://www.w3.org/2000/svg">
<path d="M45.3671 15.0931H26.5228C21.0772 15.0931 15.8547 17.2564 12.0041 21.107C8.15348 24.9576 5.99023 30.1801 5.99023 35.6257H5.99023C5.99023 35.9108 5.99816 36.1914 6.00947 36.4766V53.4799C6.00947 56.053 9.29087 57.1404 10.8263 55.0753L13.4922 51.4929C17.1615 54.5151 21.7691 56.1644 26.5228 56.1571H45.3671C50.8115 56.1559 56.0326 53.9922 59.882 50.142C63.7314 46.2917 65.8939 41.0701 65.8939 35.6257C65.8939 30.1811 63.7315 24.9594 59.8821 21.109C56.0327 17.2585 50.8116 15.0946 45.3671 15.0931Z" fill="#FFC200"/>
<g filter="url(#filter0_d)">
<path d="M45.2064 20.7327H26.4469C22.4231 20.7327 18.5641 22.331 15.7187 25.1762C12.8734 28.0214 11.2747 31.8802 11.2744 35.9041C11.2747 39.9279 12.8734 43.7868 15.7187 46.6319C18.5641 49.4771 22.4231 51.0754 26.4469 51.0754H45.2064C47.1987 51.0754 49.1715 50.683 51.0122 49.9206C52.8529 49.1582 54.5254 48.0406 55.9342 46.6319C57.343 45.2231 58.4605 43.5506 59.2229 41.7099C59.9853 39.8692 60.3778 37.8964 60.3778 35.9041C60.3778 33.9117 59.9853 31.9389 59.2229 30.0982C58.4605 28.2575 57.343 26.5851 55.9342 25.1763C54.5254 23.7675 52.8529 22.65 51.0122 21.8875C49.1715 21.1251 47.1987 20.7327 45.2064 20.7327ZM23.6181 39.0101C22.9529 39.0103 22.3026 38.8132 21.7494 38.4438C21.1962 38.0744 20.765 37.5492 20.5103 36.9346C20.2557 36.3201 20.189 35.6439 20.3187 34.9914C20.4484 34.339 20.7687 33.7397 21.2391 33.2693C21.7095 32.7989 22.3088 32.4786 22.9612 32.3489C23.6137 32.2192 24.2899 32.2859 24.9045 32.5405C25.519 32.7952 26.0442 33.2264 26.4136 33.7796C26.783 34.3328 26.9801 34.9831 26.9799 35.6483C26.9796 36.5398 26.6253 37.3947 25.9949 38.0251C25.3645 38.6555 24.5096 39.0098 23.6181 39.0101ZM48.1415 39.0101C47.4764 39.0101 46.8261 38.8128 46.2731 38.4432C45.7201 38.0737 45.289 37.5484 45.0345 36.9339C44.78 36.3193 44.7135 35.6431 44.8434 34.9907C44.9732 34.3384 45.2936 33.7392 45.764 33.2689C46.2344 32.7986 46.8338 32.4784 47.4862 32.3488C48.1386 32.2192 48.8148 32.2859 49.4292 32.5406C50.0437 32.7953 50.5688 33.2265 50.9382 33.7797C51.3076 34.3329 51.5046 34.9832 51.5044 35.6483C51.5044 36.0899 51.4174 36.5271 51.2484 36.9351C51.0794 37.343 50.8317 37.7137 50.5194 38.0258C50.2071 38.338 49.8364 38.5856 49.4284 38.7545C49.0204 38.9234 48.5831 39.0102 48.1415 39.0101Z" fill="white"/>
</g>
<defs>
<filter id="filter0_d" x="7.27441" y="17.7327" width="57.1034" height="38.3428" filterUnits="userSpaceOnUse" color-interpolation-filters="sRGB">
<feFlood flood-opacity="0" result="BackgroundImageFix"/>
<feColorMatrix in="SourceAlpha" type="matrix" values="0 0 0 0 0 0 0 0 0 0 0 0 0 0 0 0 0 0 127 0"/>
<feOffset dy="1"/>
<feGaussianBlur stdDeviation="2"/>
<feColorMatrix type="matrix" values="0 0 0 0 0.804167 0 0 0 0 0.611797 0 0 0 0 0 0 0 0 0.5 0"/>
<feBlend mode="normal" in2="BackgroundImageFix" result="effect1_dropShadow"/>
<feBlend mode="normal" in="SourceGraphic" in2="effect1_dropShadow" result="shape"/>
</filter>
</defs>
</svg>
