<svg width="72" height="73" viewBox="0 0 72 73" fill="none" xmlns="http://www.w3.org/2000/svg">
<path d="M35.4751 47.6227H44.7846C45.1138 47.6227 45.5138 47.5532 45.6542 47.9333C45.7399 48.1439 45.7817 48.3697 45.777 48.597C45.7723 48.8243 45.7212 49.0482 45.6268 49.2551C45.4591 49.5942 45.0951 49.5035 44.7908 49.511C43.6591 49.5184 43.7001 49.5197 43.5932 50.6377C43.4839 51.7942 43.5249 52.9508 43.469 54.1061C43.4603 54.2738 43.5933 54.5906 43.233 54.5446C42.9845 54.5123 42.7224 54.4514 42.746 54.0539C42.8032 53.0601 42.7286 52.0725 42.8541 51.0824C43.0541 49.5135 43.038 49.5122 41.4479 49.5122C37.1447 49.5122 32.8415 49.5197 28.5383 49.5023C28.0029 49.5023 27.7507 49.5768 27.6687 50.2029C27.4998 51.475 27.5047 52.7558 27.373 54.0278C27.3482 54.2763 27.3321 54.5247 27.0426 54.5247C26.6886 54.5247 26.8836 54.2204 26.8637 54.0589C26.6984 52.7251 26.7361 51.3739 26.9755 50.0514C27.0451 49.6613 26.932 49.4501 26.496 49.511C26.4133 49.5166 26.3303 49.5166 26.2476 49.511C25.3121 49.511 24.9009 48.8774 25.2649 47.9942C25.4227 47.6115 25.7618 47.6215 26.1047 47.6215C29.2277 47.624 32.3512 47.6244 35.4751 47.6227Z" fill="#80B8C3"/>
<path d="M25.982 56.1719C26.3738 55.8159 26.8349 55.5449 27.3365 55.3758C27.838 55.2067 28.3691 55.1432 28.8964 55.1892C29.766 55.2414 30.4107 55.6737 30.4753 56.5321C30.5908 58.0762 30.6331 59.6278 30.6703 61.1769C30.6803 61.5595 30.53 61.9372 30.0244 61.9223C29.5188 61.9074 29.4554 61.5297 29.443 61.1322C29.4007 59.8726 29.3593 58.6121 29.3188 57.3508C29.2877 56.4029 28.6777 56.0141 27.8181 56.4489C27.2479 56.7371 26.7274 57.1197 26.1783 57.4514C25.9547 57.5868 25.9833 57.793 25.9833 57.998C25.9833 59.0332 25.9833 60.0684 25.9833 61.1036C25.9833 61.5347 25.9025 61.9161 25.3622 61.9198C24.8218 61.9235 24.7348 61.5471 24.741 61.1136C24.741 58.5462 24.741 55.9789 24.741 53.4116C24.741 52.9817 24.8056 52.6028 25.351 52.5954C25.8963 52.5879 25.9883 52.9482 25.9858 53.3892C25.982 54.2538 25.982 55.1221 25.982 56.1719Z" fill="#FE6A51"/>
<path d="M20.707 62.0515C20.3145 62.0515 19.9207 62.0515 19.5281 62.0515C18.8846 62.0453 18.3803 61.7459 17.9641 61.2813C17.7281 61.018 17.6908 60.7136 17.9442 60.4453C18.1977 60.177 18.4697 60.1434 18.7753 60.3658C19.8288 61.131 20.9828 60.8043 22.1133 60.6552C22.3617 60.6229 22.4698 60.3819 22.486 60.1409C22.512 59.8776 22.3431 59.7062 22.1344 59.6043C21.5046 59.295 20.866 59.0043 20.23 58.7086C19.743 58.4825 19.2449 58.28 18.7679 58.0328C18.0896 57.6813 17.8126 57.0788 17.9703 56.3868C18.0356 56.0567 18.2137 55.7596 18.4742 55.5465C18.7346 55.3334 19.0612 55.2176 19.3977 55.2191C20.348 55.1943 21.2996 55.2191 22.2549 55.2117C22.7282 55.2117 23.0661 55.4825 23.3903 55.7769C23.6649 56.0253 23.6897 56.3173 23.4512 56.5993C23.2127 56.8812 22.9046 56.9359 22.6214 56.7235C21.6499 55.9918 20.5468 56.4564 19.5083 56.3508C19.4711 56.3486 19.434 56.354 19.3991 56.3668C19.3642 56.3796 19.3322 56.3994 19.3053 56.425C19.2784 56.4507 19.257 56.4816 19.2426 56.5158C19.2281 56.5501 19.2209 56.5869 19.2213 56.6241C19.2213 56.8403 19.4039 56.9235 19.5791 57.0042C20.5729 57.4581 21.5667 57.9136 22.5605 58.3707C23.2276 58.6763 23.6649 59.162 23.7394 59.9149C23.8636 61.1757 23.0996 62.0267 21.8251 62.0416C21.4511 62.0515 21.0785 62.0515 20.707 62.0515Z" fill="#FE6A51"/>
<path d="M46.4792 58.5484C46.4792 57.9682 46.4556 57.3881 46.4866 56.8092C46.5077 56.4266 46.3897 56.2775 46.0034 56.326C45.7549 56.3558 45.4978 56.3396 45.3239 56.116C45.2617 56.032 45.2233 55.9327 45.2125 55.8287C45.2018 55.7247 45.2193 55.6197 45.263 55.5247C45.3026 55.4144 45.3812 55.3224 45.4839 55.2661C45.5867 55.2098 45.7065 55.1931 45.8208 55.2191C46.458 55.3309 46.5351 54.9856 46.4866 54.4825C46.4698 54.214 46.4698 53.9447 46.4866 53.6762C46.499 53.2626 46.6978 52.993 47.1289 53.0042C47.5264 53.0141 47.7115 53.2787 47.7227 53.6613C47.7483 53.9921 47.7483 54.3244 47.7227 54.6551C47.6593 55.152 47.873 55.2539 48.3165 55.2216C48.8308 55.1856 49.35 55.2216 49.8668 55.2117C50.2519 55.203 50.5426 55.3359 50.5525 55.7483C50.565 56.2018 50.2507 56.3347 49.8469 56.3322C49.2879 56.3322 48.7289 56.3421 48.1711 56.3322C47.878 56.3247 47.7165 56.3707 47.7227 56.7272C47.745 57.8241 47.7363 58.9211 47.7339 60.018C47.7339 60.5658 48.0146 60.7969 48.5438 60.8056C49.1749 60.8155 49.8035 60.8888 50.0084 60.0391C50.0817 59.736 50.4022 59.6006 50.7202 59.7049C50.8738 59.7442 51.0066 59.8406 51.0914 59.9746C51.1761 60.1086 51.2065 60.2698 51.1762 60.4254C51.145 60.6831 51.0596 60.9313 50.9256 61.1536C50.7916 61.3758 50.6119 61.5672 50.3985 61.7149C49.673 62.2118 47.9748 62.2019 47.2556 61.7C47.016 61.5502 46.8188 61.3415 46.6828 61.0938C46.5469 60.8461 46.4768 60.5676 46.4792 60.2851C46.4792 59.7062 46.4792 59.1273 46.4792 58.5484Z" fill="#FE6A51"/>
<path d="M59.1504 58.1111C59.1504 58.8564 59.1653 59.6018 59.1504 60.3471C59.1405 60.6838 59.2224 60.8515 59.5926 60.8093C59.8194 60.7863 60.0479 60.7863 60.2746 60.8093C60.6473 60.844 60.8958 61.0267 60.8958 61.4391C60.9014 61.5179 60.8901 61.5971 60.8627 61.6712C60.8352 61.7453 60.7922 61.8127 60.7366 61.8688C60.6809 61.9249 60.6139 61.9685 60.54 61.9966C60.4661 62.0247 60.3871 62.0366 60.3082 62.0316C59.1094 62.054 57.9081 62.0503 56.7056 62.0316C56.6268 62.0353 56.5481 62.0223 56.4746 61.9935C56.4012 61.9647 56.3346 61.9207 56.2793 61.8644C56.224 61.8082 56.1811 61.7409 56.1536 61.6669C56.126 61.593 56.1143 61.5141 56.1193 61.4354C56.1118 61.0428 56.3429 60.8428 56.7342 60.7993C57.1255 60.7558 57.6485 60.9931 57.8435 60.6838C58.0386 60.3745 57.9119 59.885 57.9143 59.4738C57.9143 58.5632 57.9032 57.6527 57.9218 56.7409C57.9293 56.4129 57.8249 56.2949 57.4994 56.3197C57.2099 56.3413 56.9191 56.3393 56.6298 56.3135C56.2895 56.2849 56.1106 56.0762 56.123 55.7321C56.1354 55.4129 56.3193 55.2241 56.6311 55.2166C57.3131 55.2017 57.9976 55.1992 58.6783 55.2166C59.0436 55.2253 59.1591 55.475 59.1578 55.8092C59.1504 56.5856 59.1504 57.3458 59.1504 58.1111Z" fill="#FE6A51"/>
<path d="M53.5824 58.0589C53.7687 58.0589 53.9551 58.0689 54.1402 58.0589C54.6184 58.0291 54.8085 58.2614 54.8197 58.7248C54.8557 60.2528 54.278 60.705 52.7973 60.2913C52.7152 60.277 52.6381 60.2423 52.573 60.1904C52.5079 60.1385 52.4569 60.0711 52.4246 59.9944C52.2618 59.4605 52.2545 58.8913 52.4035 58.3534C52.4556 58.1397 52.6768 58.0577 52.9004 58.0577C53.124 58.0577 53.355 58.0577 53.5836 58.0577L53.5824 58.0589Z" fill="#FE6A51"/>
<path d="M58.1898 52.1133C59.1265 52.1133 59.1526 52.1369 59.1526 52.9593C59.1526 53.7817 59.0768 53.8538 58.2122 53.8525C57.3476 53.8513 57.2879 53.8053 57.2892 52.8823C57.2867 52.1332 57.3177 52.1133 58.1898 52.1133Z" fill="#FE6A51"/>
<path d="M58.1749 50.6488C57.6072 48.8128 56.9761 46.9966 56.2656 45.2102C56.1936 45.0676 56.1655 44.907 56.1847 44.7485C56.204 44.59 56.2697 44.4407 56.3736 44.3195C56.856 43.6635 57.0974 42.8611 57.0571 42.0478C57.0169 41.2345 56.6974 40.46 56.1525 39.8548C55.0022 38.5778 53.2282 38.3032 51.6804 39.1095C51.1089 39.4076 50.5201 38.9306 49.9263 39.0113C49.9077 39.0113 49.8592 38.8772 49.8431 38.8026C49.5486 37.3591 49.448 37.2585 47.9412 37.21C47.5821 37.1989 47.5101 37.0672 47.4741 36.7392C46.9958 32.4075 44.8132 29.2086 40.9895 27.1428C39.6414 26.4054 38.1459 25.978 36.6117 25.8918C36.0689 25.862 35.8428 25.6707 35.9024 25.0992C35.9546 24.5874 35.854 24.057 35.926 23.5489C36.0614 22.5824 35.7322 21.9116 34.8477 21.5029C34.7853 21.4811 34.7302 21.4422 34.6889 21.3905C34.6476 21.3389 34.6217 21.2767 34.6142 21.211L37.0242 19.9501C37.259 19.8258 37.5546 19.7401 37.5211 19.3935C37.4875 19.0469 37.1745 19.0134 36.9136 18.9451L33.8278 18.1438C34.4577 17.9277 34.9185 17.7488 35.3906 17.6134C35.7757 17.5028 35.9173 17.2717 35.9111 16.8854C35.8974 16.0581 35.9223 15.2295 35.8999 14.4009C35.8887 14.0282 35.9819 13.817 36.3633 13.6555C36.7428 13.4849 37.0548 13.1928 37.25 12.8252C37.4453 12.4577 37.5126 12.0357 37.4416 11.6257C37.2701 10.6716 36.572 9.98092 35.68 9.8865C35.2547 9.84906 34.8284 9.94636 34.4614 10.1646C34.0944 10.3829 33.8054 10.7111 33.6353 11.1027C33.2912 11.9263 33.4701 13.0505 34.2564 13.4133C35.1434 13.8245 35.0813 14.4518 35.0589 15.1686C35.0465 15.5823 35.039 15.9972 35.0589 16.4109C35.0763 16.7351 34.9546 16.8891 34.639 16.9811C33.9247 17.1873 33.2241 17.437 32.516 17.6655C32.2415 17.755 31.8949 17.7997 31.8949 18.1624C31.8874 18.5662 32.2589 18.6109 32.5545 18.6892C33.608 18.9699 34.6664 19.2445 35.8962 19.5674C35.2316 19.9103 34.7173 20.1724 34.2055 20.437C32.9024 21.1116 32.8725 21.242 34.1235 22.0222C34.8291 22.4632 35.198 22.9563 35.0713 23.8123C35.0111 24.2853 35.0111 24.7641 35.0713 25.2371C35.1235 25.7266 34.8726 25.8657 34.4751 25.8732C33.8531 25.898 33.2357 25.9909 32.634 26.1502C30.2435 26.7226 28.0868 28.016 26.456 29.8553C24.8252 31.6945 23.7992 33.9905 23.5171 36.4324C23.45 37.0386 23.291 37.2473 22.6649 37.2138C21.6785 37.1616 21.194 37.6635 21.1257 38.656C21.1158 38.8063 21.1916 39.0709 20.9493 39.0374C20.3282 38.9517 19.7431 39.3169 19.0859 38.984C17.6151 38.2386 15.9492 38.666 14.8262 39.9641C13.8572 41.0822 13.7194 42.9257 14.6101 44.1804C14.9194 44.6176 14.8697 44.9257 14.707 45.3555C13.6361 48.2003 12.6113 51.06 11.9442 54.0303C11.9168 54.1545 11.7429 54.3023 11.9131 54.4178C12.0833 54.5334 12.2746 54.4737 12.4448 54.388C12.6361 54.2911 12.6523 54.0998 12.6932 53.916C13.3641 51.0948 14.3542 48.3767 15.3542 45.6624C15.4883 45.2996 15.6498 45.2226 15.9902 45.4264C16.3787 45.6678 16.8285 45.7924 17.2859 45.7854C17.7145 45.7729 17.7679 45.9444 17.6325 46.332C16.7745 48.7892 15.9972 51.2737 15.3008 53.7855C15.2399 54.0079 14.9877 54.3011 15.425 54.4439C15.8486 54.5818 15.8921 54.2911 15.9753 53.998C16.7107 51.3892 17.5555 48.8215 18.3828 46.245C18.5468 45.7357 18.8549 45.5208 19.3903 45.4413V46.1431C19.3903 48.7105 19.3903 51.2778 19.3903 53.8452C19.3903 54.2924 19.6387 54.4924 19.9779 54.3234C20.2524 54.1868 20.1282 53.9209 20.1282 53.7172C20.1356 49.3072 20.1456 44.8971 20.122 40.4871C20.122 39.8784 20.2561 39.671 20.9071 39.6722C30.6182 39.6946 40.3286 39.6946 50.0381 39.6722C50.6816 39.6722 50.8344 39.8672 50.8319 40.4834C50.8071 45.0388 50.8232 49.5929 50.8108 54.1483C50.8108 54.6253 50.9623 54.9495 51.4742 55.2303V45.3456C52.3003 45.4375 52.5723 45.9667 52.7512 46.6264C52.9437 47.3444 53.2084 48.0426 53.4407 48.7494C54.1206 50.824 54.7483 52.9164 55.3239 55.0265C55.9451 54.747 55.8991 54.3073 55.7475 53.7843C55.0258 51.2998 54.2568 48.8388 53.4071 46.399C53.232 45.9021 53.381 45.7779 53.8344 45.7779C54.2313 45.7934 54.6236 45.6886 54.9599 45.4773C55.4283 45.1692 55.5811 45.3779 55.7326 45.8052C56.309 47.486 56.924 49.1593 57.4792 50.8414C57.6035 51.2252 57.8097 51.3085 58.1004 51.214C58.4581 51.0998 58.2321 50.8364 58.1749 50.6488ZM34.1868 11.8555C34.198 11.2008 34.808 10.6132 35.4751 10.6132C36.1422 10.6132 36.7571 11.1946 36.7745 11.8555C36.7774 12.0256 36.7458 12.1946 36.6817 12.3523C36.6177 12.51 36.5223 12.653 36.4015 12.7729C36.2807 12.8928 36.1369 12.987 35.9788 13.0498C35.8206 13.1127 35.6514 13.143 35.4813 13.1387C34.7297 13.13 34.1732 12.5822 34.1868 11.8555ZM18.9977 44.7468C17.7629 45.4201 16.2958 45.1406 15.3691 44.0363C14.5529 43.0611 14.5566 41.3989 15.379 40.42C15.8065 39.8957 16.405 39.5388 17.0695 39.4118C17.734 39.2848 18.4219 39.3959 19.0126 39.7256C19.1434 39.7826 19.2523 39.8802 19.3233 40.0039C19.3942 40.1276 19.4234 40.271 19.4064 40.4126C19.3841 41.0337 19.4064 41.6548 19.4064 42.276C19.4064 42.8747 19.3878 43.4748 19.4139 44.0723C19.4213 44.4114 19.2847 44.5903 18.9977 44.7468ZM24.2016 36.6311C24.8798 31.4484 28.5284 27.5316 33.6688 26.6831C37.1472 26.1079 40.2652 27.0434 42.9398 29.3577C45.0219 31.1602 46.238 33.4572 46.6977 36.1603C46.7287 36.3429 46.7175 36.533 46.7486 36.7156C46.8144 37.1107 46.6355 37.2125 46.2654 37.2063C44.9399 37.1902 43.6156 37.2001 42.2901 37.2001H35.3981C31.8377 37.2001 28.2774 37.2001 24.7146 37.2088C24.2649 37.2063 24.1345 37.1467 24.2016 36.6311ZM48.4045 39.0697H35.485C31.1785 39.0697 26.872 39.0697 22.5655 39.0697C22.2624 39.0697 21.8537 39.2076 21.8524 38.656C21.8524 38.1666 22.1009 37.9343 22.5767 37.9281H22.9494H47.9809C48.1263 37.9281 48.2716 37.9281 48.4157 37.9281C48.8642 37.9442 49.1052 38.1765 49.1077 38.6262C49.1114 39.1418 48.73 39.0697 48.4045 39.0697ZM53.4792 45.1282C52.8536 45.1268 52.246 44.9184 51.7512 44.5356C51.649 44.4663 51.5669 44.3712 51.5133 44.2599C51.4596 44.1487 51.4363 44.0252 51.4456 43.9021C51.463 43.3456 51.4456 42.7841 51.4456 42.23C51.4456 41.7331 51.4804 41.2362 51.4356 40.7393C51.3909 40.2424 51.6257 39.9766 52.0183 39.7567C52.5301 39.4603 53.1205 39.3281 53.7099 39.3779C54.2992 39.4277 54.8591 39.657 55.314 40.0349C56.1637 40.7244 56.5562 42.1058 56.1836 43.1282C55.7662 44.317 54.709 45.1232 53.4792 45.122V45.1282Z" fill="#80B8C3"/>
<path d="M37.5348 57.2303C37.5274 56.4142 36.592 55.2613 35.787 55.2427C34.7932 55.2179 33.6826 54.8812 32.813 55.8638C32.813 54.9781 32.813 54.0911 32.813 53.2054C32.813 52.8625 32.6291 52.6501 32.2888 52.6364C31.9161 52.6228 31.7161 52.829 31.7012 53.2054C31.7012 53.2464 31.7012 53.2886 31.7012 53.3296C31.7012 55.9756 31.7012 58.6225 31.7012 61.2702C31.7012 61.608 31.762 61.9074 32.1583 61.9621C32.5546 62.0168 32.772 61.7969 32.8217 61.4056C32.841 61.3231 32.8663 61.2421 32.8975 61.1633C33.5186 62.105 34.4292 62.0851 35.3584 62.0515C36.3808 62.0143 37.5274 60.9136 37.5386 59.8975C37.5448 59.0092 37.5435 58.1198 37.5348 57.2303ZM36.4168 58.449C36.4168 58.8751 36.4019 59.1856 36.4168 59.495C36.4764 60.4975 35.0578 61.1956 34.2118 60.6751C33.295 60.1111 32.5596 59.3683 32.8105 58.1036C32.9099 57.6067 33.7646 56.5769 34.3633 56.3781C34.9621 56.1794 35.7932 56.4204 36.2106 56.9409C36.6019 57.4278 36.3385 58.0204 36.4168 58.449Z" fill="#FE6A51"/>
<path d="M9.83241 53.4129C9.83241 52.9955 9.82123 52.5818 9.25103 52.5955C8.72059 52.6067 8.71065 53.0017 8.71189 53.3943C8.71189 54.2104 8.71189 55.0253 8.71189 56.0552C7.84231 54.921 6.76775 55.2167 5.78512 55.234C4.95902 55.2477 4.00372 56.3372 3.99378 57.1633C3.99378 58.0739 3.99378 58.9844 3.99378 59.8963C3.98967 60.2067 4.08261 60.5107 4.25963 60.7658C5.2994 62.3137 7.39261 62.582 8.67338 61.1571C8.74419 61.6081 8.85351 61.977 9.35787 61.9087C9.86222 61.8404 9.83241 61.4304 9.83241 61.0503C9.83241 58.5053 9.83241 55.9595 9.83241 53.4129ZM8.71438 58.5136C8.71438 59.7807 7.66218 60.8379 6.47831 60.8031C6.13701 60.7972 5.81029 60.6637 5.56245 60.4289C5.31462 60.1942 5.16361 59.8752 5.13915 59.5348C5.11058 58.9136 5.16648 58.2925 5.12424 57.6714C5.04722 56.5819 6.55533 55.9459 7.40876 56.5148C7.79315 56.7951 8.15683 57.1027 8.49698 57.4353C8.8386 57.7509 8.67711 58.1757 8.71438 58.5136Z" fill="#FE6A51"/>
<path d="M16.6649 56.8105C16.64 56.0093 16.0164 55.2825 15.2624 55.2353C14.3766 55.1794 13.4847 55.2105 12.5952 55.2217C12.2598 55.2217 12.0536 55.4142 12.0549 55.7683C12.0561 56.1223 12.2586 56.2999 12.594 56.3236C12.8425 56.3409 13.0909 56.3235 13.3394 56.3322C13.8367 56.3206 14.3342 56.3347 14.8301 56.3745C15.4649 56.4515 15.4189 56.9807 15.4115 57.4316C15.4028 57.9124 15.0102 57.6801 14.8003 57.6863C14.0785 57.7174 13.353 57.7049 12.63 57.6962C12.0536 57.6888 11.6027 57.9199 11.2064 58.331C10.6884 58.8689 10.8337 59.5286 10.8337 60.1547C10.8337 61.0951 11.4263 61.8938 12.348 61.9945C13.2909 62.0914 14.2909 62.2765 15.1543 61.6143C15.358 61.4578 15.5543 61.3473 15.7493 61.6777C15.8997 61.9261 16.1854 61.992 16.4649 61.8777C16.7258 61.7709 16.6947 61.5361 16.6947 61.2702C16.6959 60.7112 16.6972 57.7385 16.6649 56.8105ZM15.1344 60.2814C14.4301 60.7696 13.6686 60.8864 12.8474 60.792C12.2164 60.7187 12.0847 60.51 12.0623 59.7808C12.0437 59.1832 12.3331 58.9596 12.8772 58.9522C13.1866 58.9522 13.4984 58.9522 13.8052 58.9522V58.9609C14.1555 58.9609 14.5058 58.9522 14.8562 58.9609C15.2363 58.9733 15.4524 59.1733 15.5295 59.5547C15.6065 59.936 15.4226 60.0839 15.1344 60.2814Z" fill="#FE6A51"/>
<path d="M44.4915 57.3583C44.4915 56.3011 43.4977 55.2638 42.4219 55.2191C41.8231 55.1943 41.2206 55.1918 40.6218 55.2191C39.5038 55.2713 38.5249 56.3048 38.5249 57.4042C38.5249 58.2117 38.5311 59.0192 38.5249 59.8254C38.5278 60.2627 38.6924 60.6835 38.987 61.0068C39.7162 61.8851 40.6442 62.1074 41.7535 62.064C43.4927 61.9956 44.4865 61.0701 44.4865 59.3459V58.5384C44.4915 58.1446 44.4915 57.7521 44.4915 57.3583ZM43.2492 57.6974C43.2281 57.9844 43.2492 58.2738 43.2492 58.567V58.9993C43.2492 60.5198 42.1772 61.2664 40.7225 60.7273C40.1498 60.5149 39.7448 60.126 39.7672 59.4341C39.7858 58.8577 39.7895 58.2788 39.7672 57.7024C39.746 57.2142 39.9647 56.8763 40.3374 56.6067C40.8181 56.2589 42.0964 56.2092 42.5896 56.5309C43.0095 56.7993 43.2964 57.1508 43.2554 57.7036L43.2492 57.6974Z" fill="#FE6A51"/>
<path d="M67.8458 58.9595C67.8346 58.8152 67.8346 58.6702 67.8458 58.5259V57.3483C67.8458 56.2774 66.8657 55.2563 65.7837 55.2178C65.206 55.1967 64.6259 55.1954 64.0445 55.2178C62.9501 55.26 62.0022 56.2625 61.9998 57.3582C61.9998 58.1843 62.0122 59.0104 61.9998 59.8365C61.9911 60.3943 62.2184 60.8303 62.606 61.203C63.2097 61.7931 63.9029 62.0043 64.7663 62.0726C66.575 62.2341 68.1825 60.9744 67.8458 58.9595ZM66.7278 59.3185C66.7216 60.1719 66.18 60.7434 65.324 60.7931C65.0563 60.808 64.788 60.808 64.5203 60.7931C63.6507 60.7458 63.1352 60.198 63.1265 59.3185C63.1265 59.0502 63.1265 58.7818 63.1265 58.5147C63.1265 58.2477 63.1265 57.9781 63.1265 57.711C63.1218 57.5863 63.1293 57.4615 63.1488 57.3383C63.3066 56.6029 64.1899 56.2203 65.4172 56.3371C66.1626 56.4116 66.7092 56.9458 66.7253 57.6476C66.7402 58.2091 66.734 58.7657 66.7278 59.3185Z" fill="#FE6A51"/>
<path d="M35.4875 36.3367C34.0216 36.3367 32.5553 36.3367 31.0886 36.3367C30.7706 36.3367 30.4004 36.3517 30.3979 35.9218C30.3979 35.5131 30.7296 35.4746 31.07 35.4759C34.0026 35.4808 36.9351 35.4808 39.8677 35.4759C40.1919 35.4759 40.5534 35.4759 40.5584 35.8945C40.5634 36.3131 40.223 36.3392 39.8876 36.338C38.4205 36.3281 36.9546 36.3367 35.4875 36.3367Z" fill="#81B9C4"/>
<path d="M39.3786 32.4919C39.1969 32.4987 39.0158 32.4692 38.8457 32.4052C38.6756 32.3411 38.52 32.2437 38.3881 32.1188C38.2561 31.9939 38.1503 31.8439 38.077 31.6776C38.0037 31.5113 37.9643 31.332 37.9611 31.1503C37.9549 30.7806 38.0957 30.4236 38.3527 30.1578C38.6097 29.892 38.9617 29.7391 39.3313 29.7329C39.701 29.7266 40.058 29.8675 40.3238 30.1244C40.5897 30.3814 40.7425 30.7334 40.7488 31.1031C40.7501 31.4686 40.6068 31.8198 40.35 32.08C40.0933 32.3402 39.7441 32.4883 39.3786 32.4919Z" fill="#80B9C3"/>
<path d="M32.0144 32.4919C31.8331 32.4921 31.6536 32.4565 31.4861 32.3872C31.3186 32.3179 31.1663 32.2162 31.0382 32.088C30.91 31.9598 30.8083 31.8076 30.739 31.6401C30.6697 31.4726 30.6341 31.293 30.6343 31.1117C30.6442 30.3925 31.3275 29.7341 32.0492 29.7453C32.4139 29.757 32.7601 29.9088 33.0159 30.169C33.2718 30.4292 33.4176 30.7779 33.4232 31.1428C33.4209 31.3244 33.3825 31.5037 33.3102 31.6703C33.2379 31.8369 33.1331 31.9874 33.0019 32.113C32.8707 32.2386 32.7159 32.3368 32.5463 32.4019C32.3768 32.4669 32.1959 32.4975 32.0144 32.4919Z" fill="#80B8C3"/>
</svg>
