<svg width="72" height="72" viewBox="0 0 72 72" fill="none" xmlns="http://www.w3.org/2000/svg">
<path d="M11.999 20.8193C12.0721 20.3687 12.1818 19.9542 12.4194 19.5577C13.8084 20.0263 14.9965 20.8733 16.2576 21.5942C22.6181 25.1627 28.942 28.7853 35.2659 32.4079C35.7046 32.6602 35.997 32.6602 36.4174 32.4259C37.8796 31.5788 39.3783 30.7858 40.8405 29.9388C47.0182 26.4243 53.1776 22.8919 59.3371 19.3774C59.7574 19.9722 59.9037 20.621 59.9037 21.3419C59.9037 28.8754 59.9037 36.4089 59.9037 43.9604C59.9037 45.4563 59.2274 46.6278 57.9114 47.3847C47.2741 53.4404 36.6367 59.496 25.9994 65.5516C25.7983 65.6778 25.579 65.7859 25.3779 65.8941C25.25 65.8941 25.1403 65.8941 25.0124 65.8941C24.1899 65.5336 23.934 64.9028 23.934 64.0377C23.9706 60.6495 23.934 57.2612 23.9706 53.8729C23.9706 53.2962 23.8061 52.9718 23.2761 52.6654C20.2603 50.9893 17.2811 49.2591 14.2654 47.565C12.9311 46.826 12.1635 45.7627 11.9807 44.2848C11.9807 36.463 11.9807 28.6411 11.999 20.8193Z" fill="#F16C00"/>
<path d="M59.3371 19.3955C53.1777 22.9099 47 26.4423 40.8406 29.9568C39.3784 30.7858 37.8796 31.5968 36.4175 32.4439C36.0154 32.6782 35.7047 32.6782 35.266 32.4259C28.9421 28.8033 22.6181 25.1807 16.2577 21.6122C14.9965 20.8913 13.8085 20.0443 12.4194 19.5757C12.7484 18.7647 13.3881 18.206 14.1375 17.7914C20.6808 14.0427 27.2423 10.312 33.8038 6.59933C35.1746 5.82435 36.6002 5.77028 37.971 6.54526C44.6422 10.312 51.2951 14.1148 57.9481 17.9176C58.5512 18.26 59.0995 18.6926 59.3371 19.3955Z" fill="#FF9900"/>
</svg>
