<svg width="87" height="112" viewBox="0 0 87 112" fill="none" xmlns="http://www.w3.org/2000/svg">
<g opacity="0.2">
<circle cx="11.0523" cy="91.2105" r="2.21053" fill="white"/>
<circle cx="19.4732" cy="91.2105" r="2.21053" fill="white"/>
<circle cx="27.8946" cy="91.2105" r="2.21053" fill="white"/>
<circle cx="2.63142" cy="91.2105" r="2.21053" fill="white"/>
<circle cx="11.0523" cy="100.211" r="2.21053" fill="white"/>
<circle cx="19.4732" cy="100.211" r="2.21053" fill="white"/>
<circle cx="27.8946" cy="100.211" r="2.21053" fill="white"/>
<circle cx="2.63142" cy="100.211" r="2.21053" fill="white"/>
<circle cx="11.0523" cy="109.211" r="2.21053" fill="white"/>
<circle cx="19.4732" cy="109.211" r="2.21053" fill="white"/>
<circle cx="27.8946" cy="109.211" r="2.21053" fill="white"/>
<circle cx="2.63142" cy="109.211" r="2.21053" fill="white"/>
</g>
<g opacity="0.2">
<mask id="path-13-inside-1" fill="white">
<path fill-rule="evenodd" clip-rule="evenodd" d="M85.7763 0.955931C86.4232 2.03297 86.8833 3.36609 87 5V41.8854C84.7126 43.9501 82.445 45.8917 80.6606 47.4034C80.2527 47.7515 79.7421 47.9607 79.2043 48H78.9753C78.3064 47.9976 77.6658 47.7337 77.1937 47.2661C76.7216 46.7984 76.4565 46.1652 76.4565 45.5051V41.4102C71.1349 41.1842 64.2929 39.3763 60.7025 35.6972C56.251 31.1141 55.1519 24.687 55.0145 20.1672C54.7764 12.2576 57.4692 6.18305 62.6259 3.02825C66.7201 0.524294 72.3989 0 76.4382 0C79.4928 0.0029431 82.5395 0.305752 85.5334 0.903955C85.6146 0.920837 85.6956 0.938165 85.7763 0.955931Z"/>
</mask>
<path fill-rule="evenodd" clip-rule="evenodd" d="M85.7763 0.955931C86.4232 2.03297 86.8833 3.36609 87 5V41.8854C84.7126 43.9501 82.445 45.8917 80.6606 47.4034C80.2527 47.7515 79.7421 47.9607 79.2043 48H78.9753C78.3064 47.9976 77.6658 47.7337 77.1937 47.2661C76.7216 46.7984 76.4565 46.1652 76.4565 45.5051V41.4102C71.1349 41.1842 64.2929 39.3763 60.7025 35.6972C56.251 31.1141 55.1519 24.687 55.0145 20.1672C54.7764 12.2576 57.4692 6.18305 62.6259 3.02825C66.7201 0.524294 72.3989 0 76.4382 0C79.4928 0.0029431 82.5395 0.305752 85.5334 0.903955C85.6146 0.920837 85.6956 0.938165 85.7763 0.955931Z" fill="white"/>
<path d="M85.7763 0.955931L87.4908 -0.0739009C87.2077 -0.545103 86.7432 -0.879046 86.2064 -0.997266L85.7763 0.955931ZM87 5H89C89 4.95246 88.9983 4.90493 88.9949 4.8575L87 5ZM87 41.8854L88.3401 43.3701C88.7602 42.9909 89 42.4514 89 41.8854H87ZM80.6606 47.4034L79.3678 45.8774L79.3622 45.8821L80.6606 47.4034ZM79.2043 48V50C79.2529 50 79.3015 49.9982 79.35 49.9947L79.2043 48ZM78.9753 48L78.9681 50H78.9753V48ZM76.4565 45.5051L78.4565 45.5051V45.5051H76.4565ZM76.4565 41.4102H78.4565C78.4565 40.3386 77.6119 39.4574 76.5413 39.412L76.4565 41.4102ZM60.7025 35.6972L59.2678 37.0906L59.2711 37.094L60.7025 35.6972ZM55.0145 20.1672L53.0154 20.2274L53.0155 20.228L55.0145 20.1672ZM62.6259 3.02825L61.5824 1.32204L61.5822 1.3222L62.6259 3.02825ZM76.4382 0L76.4401 -2H76.4382V0ZM85.5334 0.903955L85.9401 -1.05425C85.9351 -1.05528 85.9302 -1.05629 85.9252 -1.05728L85.5334 0.903955ZM84.0618 1.98576C84.5431 2.787 84.9103 3.81502 85.0051 5.1425L88.9949 4.8575C88.8563 2.91716 88.3034 1.27894 87.4908 -0.0739009L84.0618 1.98576ZM85 5V41.8854H89V5H85ZM81.9534 48.9294C83.7434 47.4129 86.0296 45.4556 88.3401 43.3701L85.6599 40.4008C83.3957 42.4446 81.1466 44.3704 79.3678 45.8774L81.9534 48.9294ZM79.35 49.9947C80.3101 49.9245 81.2251 49.5509 81.959 48.9247L79.3622 45.8821C79.2803 45.9521 79.174 45.9969 79.0585 46.0053L79.35 49.9947ZM78.9753 50H79.2043V46H78.9753V50ZM75.7862 48.687C76.6338 49.5266 77.7785 49.9957 78.9681 50L78.9824 46C78.8343 45.9995 78.6977 45.9408 78.6011 45.8451L75.7862 48.687ZM74.4565 45.5051C74.4565 46.7029 74.9377 47.8466 75.7862 48.687L78.6011 45.8451C78.5054 45.7503 78.4565 45.6275 78.4565 45.5051L74.4565 45.5051ZM74.4565 41.4102V45.5051H78.4565V41.4102H74.4565ZM59.2711 37.094C61.3717 39.2465 64.3081 40.7509 67.2987 41.7462C70.3119 42.7492 73.5379 43.288 76.3716 43.4084L76.5413 39.412C74.0535 39.3063 71.1977 38.8282 68.5619 37.9509C65.9035 37.0661 63.6237 35.8269 62.1338 34.3003L59.2711 37.094ZM53.0155 20.228C53.1581 24.9217 54.294 31.9697 59.2678 37.0906L62.1371 34.3037C58.2081 30.2585 57.1457 24.4523 57.0136 20.1065L53.0155 20.228ZM61.5822 1.3222C55.6218 4.96868 52.7634 11.8568 53.0154 20.2274L57.0136 20.107C56.7894 12.6584 59.3167 7.39742 63.6697 4.7343L61.5822 1.3222ZM76.4382 -2C72.3347 -2 66.1758 -1.4872 61.5824 1.32204L63.6694 4.73445C67.2645 2.53579 72.4631 2 76.4382 2V-2ZM85.9252 -1.05728C82.8029 -1.68115 79.6256 -1.99693 76.4401 -2L76.4362 2C79.36 2.00282 82.2761 2.29265 85.1415 2.86519L85.9252 -1.05728ZM86.2064 -0.997266C86.118 -1.01675 86.0292 -1.03575 85.9401 -1.05425L85.1266 2.86216C85.2001 2.87742 85.2733 2.89308 85.3461 2.90913L86.2064 -0.997266Z" fill="white" mask="url(#path-13-inside-1)"/>
</g>
</svg>
