<svg width="72" height="73" viewBox="0 0 72 73" fill="none" xmlns="http://www.w3.org/2000/svg">
<path d="M35.9421 6.10754C30.0182 6.10754 24.2273 7.86419 19.3017 11.1553C14.3762 14.4465 10.5372 19.1243 8.2702 24.5973C6.00321 30.0703 5.41007 36.0926 6.56576 41.9027C7.72146 47.7128 10.5741 53.0497 14.7629 57.2385C18.9518 61.4274 24.2887 64.28 30.0988 65.4357C35.9089 66.5914 41.9312 65.9983 47.4042 63.7313C52.8772 61.4643 57.555 57.6253 60.8461 52.6997C64.1373 47.7742 65.8939 41.9833 65.8939 36.0594C65.8939 32.1261 65.1192 28.2312 63.614 24.5973C62.1088 20.9634 59.9025 17.6615 57.1212 14.8802C54.34 12.099 51.0381 9.89271 47.4042 8.38749C43.7702 6.88227 39.8754 6.10754 35.9421 6.10754ZM23.9614 24.3083H47.9228L36.9405 34.3521C36.6045 34.6332 36.1804 34.7872 35.7424 34.7872C35.3044 34.7872 34.8803 34.6332 34.5443 34.3521L23.6718 24.3682C23.7669 24.342 23.8637 24.322 23.9614 24.3083ZM51.1177 44.6955C51.1178 45.1114 51.0347 45.5231 50.8732 45.9063C50.7117 46.2895 50.475 46.6365 50.1773 46.9269C49.8795 47.2172 49.5266 47.4449 49.1394 47.5967C48.7522 47.7485 48.3386 47.8212 47.9228 47.8105H23.9614C23.1352 47.8105 22.3429 47.4823 21.7587 46.8981C21.1745 46.314 20.8464 45.5217 20.8464 44.6955V27.4233C20.8479 26.9087 20.982 26.4033 21.2357 25.9556L32.6075 36.4887C33.4732 37.2443 34.5833 37.6606 35.7324 37.6606C36.8815 37.6606 37.9917 37.2443 38.8574 36.4887L50.5686 25.736C50.9037 26.2346 51.0811 26.8225 51.0778 27.4233L51.1177 44.6955Z" fill="url(#paint0_linear)"/>
<defs>
<linearGradient id="paint0_linear" x1="26.842" y1="3.08107" x2="47.5499" y2="74.6206" gradientUnits="userSpaceOnUse">
<stop stop-color="#25DDE0"/>
<stop offset="1" stop-color="#28B4C3"/>
</linearGradient>
</defs>
</svg>
