<svg width="71" height="71" viewBox="0 0 71 71" fill="none" xmlns="http://www.w3.org/2000/svg">
<path d="M58.9832 29.7861C58.7618 29.0901 58.3505 28.4697 57.7957 27.9946C57.2409 27.5196 56.5645 27.2087 55.8427 27.097L44.1638 25.2912L38.9819 14.633C38.6639 13.9746 38.1683 13.4181 37.551 13.0262C36.9337 12.6343 36.2192 12.4226 35.4881 12.415V12.415C34.7614 12.4154 34.0492 12.6174 33.4306 12.9986C32.812 13.3798 32.3114 13.9252 31.9844 14.5741L26.616 25.144L14.839 26.7535C14.1123 26.8525 13.428 27.1531 12.8634 27.6212C12.2989 28.0893 11.8767 28.7061 11.6448 29.4018C11.4129 30.0976 11.3805 30.8443 11.5513 31.5575C11.7221 32.2707 12.0893 32.9218 12.6111 33.437L21.0121 41.7693L18.9707 53.4187C18.8418 54.1395 18.917 54.8819 19.1878 55.5622C19.4587 56.2424 19.9143 56.8334 20.5034 57.2683C21.0924 57.7032 21.7913 57.9647 22.5212 58.0232C23.251 58.0817 23.9827 57.935 24.6335 57.5996L35.1544 52.1821L45.5869 57.7762C46.1598 58.0854 46.8006 58.2473 47.4516 58.2473C48.0205 58.2463 48.5824 58.1217 49.0984 57.8821C49.6144 57.6424 50.0722 57.2935 50.44 56.8594C50.8078 56.4253 51.0768 55.9165 51.2285 55.3682C51.3801 54.8198 51.4108 54.2451 51.3184 53.6837L49.4144 41.995L57.9626 33.8099C58.4918 33.3016 58.8679 32.6552 59.0483 31.944C59.2287 31.2327 59.2062 30.4852 58.9832 29.7861V29.7861ZM46.6959 39.1685C46.2365 39.6089 45.8911 40.1543 45.6893 40.7578C45.4876 41.3613 45.4356 42.0048 45.5378 42.6329L47.4418 54.3118L37.0093 48.7177C36.4462 48.422 35.8198 48.2675 35.1838 48.2675C34.5478 48.2675 33.9214 48.422 33.3584 48.7177L22.8375 54.1155L24.928 42.4661C25.0409 41.8397 24.9998 41.1953 24.8084 40.5884C24.6169 39.9814 24.2807 39.4302 23.8288 38.982L15.418 30.64L27.195 29.0402C27.8211 28.9488 28.4158 28.7074 28.9284 28.3366C29.4411 27.9658 29.8565 27.4765 30.1393 26.9106L35.4684 16.3407L40.6209 26.9989C40.8976 27.574 41.3103 28.073 41.8233 28.4527C42.3364 28.8323 42.9342 29.0812 43.5651 29.1776L55.2637 30.9736L46.6959 39.1685Z" fill="#2CC3D5"/>
<path opacity="0.8" d="M33.859 43.6733C31.1111 42.103 25.517 44.3276 23.0634 45.6361L20.6099 54.9596L23.0634 55.941L35.8219 50.0525L45.6361 55.941L49.071 54.9596L47.5989 45.6361C47.4353 44.3276 46.6175 42.103 44.6547 43.6733C42.2011 45.6362 37.294 45.6361 33.859 43.6733Z" fill="#2CC3D5"/>
</svg>
