<svg width="71" height="71" viewBox="0 0 71 71" fill="none" xmlns="http://www.w3.org/2000/svg">
<path d="M59.2083 30.0111C58.9869 29.3151 58.5756 28.6947 58.0208 28.2196C57.466 27.7445 56.7896 27.4337 56.0678 27.322L44.3889 25.5162L39.207 14.858C38.889 14.1996 38.3934 13.6431 37.7761 13.2512C37.1588 12.8593 36.4443 12.6476 35.7131 12.64V12.64C34.9865 12.6403 34.2743 12.8424 33.6557 13.2236C33.0371 13.6048 32.5365 14.1502 32.2095 14.7991L26.8411 25.369L15.0641 26.9785C14.3374 27.0775 13.6531 27.3781 13.0885 27.8462C12.524 28.3143 12.1018 28.9311 11.8699 29.6268C11.638 30.3225 11.6056 31.0693 11.7764 31.7825C11.9472 32.4957 12.3143 33.1468 12.8362 33.662L21.2372 41.9942L19.1958 53.6437C19.0669 54.3644 19.1421 55.1069 19.4129 55.7871C19.6837 56.4674 20.1394 57.0584 20.7285 57.4933C21.3175 57.9281 22.0164 58.1896 22.7463 58.2482C23.4761 58.3067 24.2078 58.16 24.8586 57.8245L35.3795 52.4071L45.812 58.0012C46.3849 58.3104 47.0256 58.4723 47.6767 58.4723C48.2456 58.4713 48.8075 58.3467 49.3235 58.107C49.8395 57.8674 50.2973 57.5185 50.6651 57.0844C51.0328 56.6503 51.3019 56.1415 51.4536 55.5931C51.6052 55.0448 51.6359 54.47 51.5435 53.9087L49.6395 42.22L58.1877 34.0349C58.7169 33.5266 59.093 32.8802 59.2734 32.169C59.4538 31.4577 59.4313 30.7102 59.2083 30.0111V30.0111ZM46.921 39.3935C46.4616 39.8338 46.1162 40.3793 45.9144 40.9828C45.7127 41.5863 45.6607 42.2298 45.7629 42.8579L47.6668 54.5368L37.2343 48.9427C36.6713 48.647 36.0449 48.4925 35.4089 48.4925C34.7729 48.4925 34.1465 48.647 33.5835 48.9427L23.0626 54.3405L25.1531 42.691C25.266 42.0647 25.2249 41.4203 25.0335 40.8134C24.842 40.2064 24.5058 39.6551 24.0539 39.207L15.6431 30.8649L27.4201 29.2652C28.0462 29.1738 28.6409 28.9324 29.1535 28.5615C29.6662 28.1907 30.0816 27.7015 30.3644 27.1355L35.6935 16.5656L40.846 27.2239C41.1227 27.799 41.5354 28.298 42.0484 28.6777C42.5615 29.0573 43.1593 29.3061 43.7902 29.4026L55.4888 31.1986L46.921 39.3935Z" fill="#FFCF33"/>
<path opacity="0.8" d="M28.6861 27.214L35.0654 14.4556L43.4074 27.214L56.1659 29.1769L57.638 31.6304L47.8238 40.9539L49.296 56.1659H47.8238L35.0654 50.2774L22.7976 56.1659L21.3255 54.6938L23.779 40.9539L13.9648 31.6304V29.1769L28.6861 27.214Z" fill="#FFCF33"/>
</svg>
