<svg width="72" height="73" viewBox="0 0 72 73" fill="none" xmlns="http://www.w3.org/2000/svg">
<circle cx="35.9421" cy="36.4703" r="29.9518" fill="#3C64CB"/>
<path d="M46.4933 22.5925H32.8223L16.2586 22.4928C16.0337 22.5001 15.8142 22.5645 15.6211 22.68C15.4279 22.7955 15.2673 22.9583 15.1544 23.153C15.0415 23.3478 14.9801 23.568 14.9758 23.7931C14.9716 24.0181 15.0247 24.2405 15.1302 24.4394L19.6439 31.3529V43.7658C19.6439 44.8297 19.8535 45.8832 20.2607 46.8661C20.6679 47.849 21.2648 48.742 22.0171 49.4943C22.7695 50.2465 23.6627 50.8431 24.6457 51.2501C25.6287 51.657 26.6822 51.8664 27.7462 51.8661H46.5084C47.5723 51.8664 48.6258 51.657 49.6088 51.2501C50.5918 50.8431 51.485 50.2465 52.2374 49.4943C52.9898 48.742 53.5866 47.849 53.9938 46.8661C54.401 45.8832 54.6106 44.8297 54.6106 43.7658V30.6928C54.6106 29.6276 54.4005 28.5729 53.9924 27.589C53.5842 26.6051 52.986 25.7114 52.2321 24.959C51.4781 24.2066 50.5831 23.6103 49.5984 23.2042C48.6136 22.7981 47.5585 22.5903 46.4933 22.5925Z" fill="#F3F3F3"/>
<path d="M45.6337 32.5152H28.5078C27.9591 32.5152 27.4329 32.2972 27.0449 31.9092C26.6569 31.5213 26.439 30.9951 26.439 30.4464C26.439 29.8977 26.6569 29.3715 27.0449 28.9835C27.4329 28.5955 27.9591 28.3776 28.5078 28.3776H45.6337C46.1824 28.3776 46.7086 28.5955 47.0966 28.9835C47.4846 29.3715 47.7026 29.8977 47.7026 30.4464C47.7026 30.9951 47.4846 31.5213 47.0966 31.9092C46.7086 32.2972 46.1824 32.5152 45.6337 32.5152Z" fill="#C7C7C7"/>
<path d="M45.6337 39.2482H28.5078C27.9591 39.2482 27.4329 39.0303 27.0449 38.6423C26.6569 38.2543 26.439 37.7281 26.439 37.1794C26.439 36.6307 26.6569 36.1045 27.0449 35.7165C27.4329 35.3286 27.9591 35.1106 28.5078 35.1106H45.6337C46.1824 35.1106 46.7086 35.3286 47.0966 35.7165C47.4846 36.1045 47.7026 36.6307 47.7026 37.1794C47.7026 37.7281 47.4846 38.2543 47.0966 38.6423C46.7086 39.0303 46.1824 39.2482 45.6337 39.2482Z" fill="#C7C7C7"/>
<path d="M37.6688 45.9794H28.5078C27.9591 45.9794 27.4329 45.7614 27.0449 45.3735C26.6569 44.9855 26.439 44.4593 26.439 43.9106C26.439 43.3619 26.6569 42.8357 27.0449 42.4477C27.4329 42.0598 27.9591 41.8418 28.5078 41.8418H37.6688C38.2175 41.8418 38.7437 42.0598 39.1317 42.4477C39.5197 42.8357 39.7376 43.3619 39.7376 43.9106C39.7376 44.4593 39.5197 44.9855 39.1317 45.3735C38.7437 45.7614 38.2175 45.9794 37.6688 45.9794Z" fill="#C7C7C7"/>
</svg>
