<svg width="455" height="320" viewBox="0 0 455 320" fill="none" xmlns="http://www.w3.org/2000/svg">
<g filter="url(#filter0_d)">
<path d="M407.761 51.3867H84.547C78.722 51.3867 74 56.1087 74 61.9337V274.255C74 280.08 78.722 284.802 84.547 284.802H407.761C413.586 284.802 418.308 280.08 418.308 274.255V61.9337C418.308 56.1087 413.586 51.3867 407.761 51.3867Z" fill="url(#paint0_linear)"/>
</g>
<path fill-rule="evenodd" clip-rule="evenodd" d="M418.308 76.3127H74.0166V61.5631C74.0166 58.763 75.1284 56.0775 77.1076 54.0967C79.0868 52.116 81.7715 51.0021 84.5716 51H407.745C410.547 51 413.234 52.1129 415.215 54.0939C417.195 56.0748 418.308 58.7616 418.308 61.5631V76.3127Z" fill="url(#paint1_linear)"/>
<path d="M96.065 59.8088C96.6945 59.811 97.3224 59.8732 97.9401 59.9947C98.4906 60.0785 99.0016 60.3311 99.4026 60.7176C99.8035 61.1041 100.075 61.6054 100.179 62.1525C100.317 62.8391 100.339 63.5439 100.243 64.2377C100.167 64.9123 99.9288 65.5584 99.5484 66.1208C99.2018 66.5703 98.806 66.9796 98.3684 67.3412L98.1017 67.5836C97.7138 67.9554 97.2935 68.311 96.9217 68.6343V68.0847C96.9217 67.9261 96.8587 67.774 96.7466 67.6618C96.6344 67.5496 96.4823 67.4866 96.3237 67.4866C95.1586 67.5187 94.0177 67.1508 93.0909 66.4441C92.398 65.6192 92.0276 64.5712 92.0483 63.4941C92.0483 62.6374 92.1695 61.0696 93.3576 60.3664C94.1955 59.9462 95.1293 59.7539 96.065 59.8088ZM96.065 59.3158C95.0517 59.2691 94.0436 59.4863 93.1394 59.9462C92.5921 60.3527 92.1615 60.896 91.8905 61.5216C91.6196 62.1472 91.5179 62.833 91.5957 63.5103C91.5686 64.7125 91.9891 65.882 92.7757 66.7916C93.7833 67.5898 95.0386 68.0101 96.3237 67.9796C96.3515 67.9796 96.3783 67.9907 96.398 68.0104C96.4177 68.0301 96.4287 68.0568 96.4287 68.0847V69.2647C96.4287 69.3183 96.45 69.3696 96.4879 69.4075C96.5258 69.4454 96.5772 69.4667 96.6308 69.4667C96.6731 69.4645 96.7132 69.4474 96.7439 69.4182C97.3178 68.9495 97.8673 68.4565 98.4169 67.9554C98.9711 67.4901 99.4799 66.9733 99.9363 66.4117C100.729 65.1096 100.981 63.5492 100.639 62.0636C100.519 61.4209 100.203 60.8312 99.7339 60.3754C99.2651 59.9196 98.6667 59.6201 98.0209 59.5178C97.3775 59.3844 96.7222 59.3167 96.065 59.3158Z" fill="#2CC3D5"/>
<path opacity="0.5" fill-rule="evenodd" clip-rule="evenodd" d="M371.691 68.6669C372.536 68.6669 373.363 68.4162 374.066 67.9464C374.769 67.4766 375.317 66.8089 375.641 66.0277C375.964 65.2465 376.049 64.3868 375.884 63.5575C375.719 62.7281 375.312 61.9664 374.714 61.3684C374.116 60.7705 373.354 60.3633 372.525 60.1984C371.696 60.0334 370.836 60.1181 370.055 60.4417C369.274 60.7652 368.606 61.3132 368.136 62.0163C367.666 62.7194 367.416 63.546 367.416 64.3916C367.416 65.5255 367.866 66.6129 368.668 67.4147C369.47 68.2165 370.557 68.6669 371.691 68.6669Z" fill="#8CA0B3"/>
<path d="M363.278 59.0488V69.7332" stroke="#738192" stroke-width="0.266705"/>
<path d="M356.731 65.0704C356.662 65.0698 356.594 65.0472 356.537 65.0057L355.325 63.9793C355.31 63.9685 355.297 63.954 355.288 63.937C355.28 63.9201 355.276 63.9013 355.277 63.8823C355.269 63.8659 355.265 63.848 355.265 63.8298C355.265 63.8116 355.269 63.7937 355.277 63.7773C355.301 63.7468 355.335 63.7266 355.374 63.7207C355.408 63.709 355.445 63.709 355.479 63.7207L356.699 64.7471L357.919 63.7207C357.919 63.7207 357.919 63.7207 357.968 63.7207H358.033C358.051 63.7145 358.071 63.7145 358.089 63.7207H358.138C358.142 63.7393 358.142 63.7587 358.138 63.7773C358.142 63.7959 358.142 63.8152 358.138 63.8338C358.144 63.8549 358.144 63.8775 358.138 63.8985C358.129 63.9157 358.114 63.9298 358.097 63.9389L356.885 64.9653C356.828 65.0058 356.761 65.0283 356.691 65.03L356.731 65.0704Z" fill="#8CA0B3"/>
<path opacity="0.3" d="M110.959 64.3916H126.808" stroke="#8CA0B3" stroke-width="4.22687" stroke-linecap="round" stroke-linejoin="round"/>
<path opacity="0.3" d="M137.363 64.3916H157.43" stroke="#8CA0B3" stroke-width="4.22687" stroke-linecap="round" stroke-linejoin="round"/>
<path d="M336.793 66.2734V61.4323H334.934V60.5757H339.694V61.4323H337.836V66.2734H336.793ZM341.385 62.2244C341.94 62.2244 342.352 62.3591 342.621 62.6285C342.891 62.8979 343.025 63.3127 343.025 63.8731V66.2734H342.064V65.6673C341.972 65.8774 341.827 66.0418 341.627 66.1603C341.433 66.2788 341.207 66.3381 340.948 66.3381C340.684 66.3381 340.445 66.2842 340.229 66.1765C340.014 66.0687 339.844 65.9205 339.72 65.7319C339.596 65.5434 339.534 65.3332 339.534 65.1016C339.534 64.8106 339.607 64.5816 339.752 64.4146C339.903 64.2476 340.146 64.1263 340.48 64.0509C340.814 63.9755 341.274 63.9377 341.862 63.9377H342.064V63.7519C342.064 63.4825 342.004 63.2885 341.886 63.17C341.773 63.0514 341.581 62.9922 341.312 62.9922C341.102 62.9922 340.881 63.0299 340.649 63.1053C340.423 63.1754 340.199 63.275 339.979 63.4043L339.696 62.7093C339.917 62.5692 340.183 62.4534 340.496 62.3618C340.808 62.2702 341.105 62.2244 341.385 62.2244ZM341.15 65.6107C341.42 65.6107 341.638 65.5218 341.805 65.344C341.977 65.1608 342.064 64.9264 342.064 64.6409V64.4712H341.918C341.557 64.4712 341.277 64.4873 341.078 64.5197C340.878 64.552 340.736 64.6086 340.649 64.6894C340.563 64.7702 340.52 64.8806 340.52 65.0207C340.52 65.1931 340.579 65.3359 340.698 65.4491C340.816 65.5568 340.967 65.6107 341.15 65.6107ZM348.012 66.2734H346.76L345.062 64.4712V66.2734H344.052V60.5757H345.062V64.0509L346.655 62.3294H347.883L346.105 64.2206L348.012 66.2734ZM351.797 64.4792H349.106C349.138 64.8456 349.249 65.1177 349.437 65.2955C349.626 65.4733 349.895 65.5622 350.245 65.5622C350.682 65.5622 351.08 65.4221 351.441 65.142L351.732 65.837C351.549 65.9879 351.318 66.1091 351.037 66.2007C350.763 66.2923 350.485 66.3381 350.205 66.3381C349.558 66.3381 349.047 66.1549 348.669 65.7885C348.298 65.4221 348.112 64.9211 348.112 64.2853C348.112 63.8812 348.193 63.5229 348.354 63.2104C348.516 62.8979 348.742 62.6554 349.033 62.483C349.329 62.3106 349.663 62.2244 350.035 62.2244C350.579 62.2244 351.008 62.3995 351.32 62.7497C351.638 63.0999 351.797 63.5821 351.797 64.1964V64.4792ZM350.059 62.9356C349.79 62.9356 349.572 63.0218 349.405 63.1942C349.243 63.3666 349.144 63.6145 349.106 63.9377H350.932C350.922 63.6091 350.841 63.3612 350.69 63.1942C350.539 63.0218 350.329 62.9356 350.059 62.9356Z" fill="#8CA0B3"/>
<g filter="url(#filter1_d)">
<path d="M380.808 116.343H201.267C195.433 116.343 190.704 121.072 190.704 126.906V225.651C190.704 231.485 195.433 236.214 201.267 236.214H380.808C386.641 236.214 391.371 231.485 391.371 225.651V126.906C391.371 121.072 386.641 116.343 380.808 116.343Z" fill="white"/>
</g>
<path d="M236.649 208.752C252.107 208.752 264.637 196.221 264.637 180.764C264.637 165.307 252.107 152.776 236.649 152.776C221.192 152.776 208.662 165.307 208.662 180.764C208.662 196.221 221.192 208.752 236.649 208.752Z" stroke="#D2DFE6" stroke-width="2.10939" stroke-miterlimit="10"/>
<path d="M236.65 152.776C242.185 152.778 247.595 154.421 252.197 157.497C256.798 160.573 260.384 164.945 262.501 170.059C264.618 175.174 265.172 180.801 264.091 186.229C263.01 191.658 260.344 196.644 256.429 200.557C252.515 204.471 247.528 207.136 242.099 208.215C236.67 209.294 231.043 208.739 225.929 206.621C220.816 204.502 216.445 200.915 213.37 196.313C210.295 191.71 208.654 186.299 208.654 180.764" stroke="#2CC3D5" stroke-width="4.22687" stroke-linecap="round" stroke-linejoin="round"/>
<path opacity="0.5" d="M226.046 181.491C225.126 180.388 224.666 178.973 224.761 177.539C224.666 175.851 225.147 174.181 226.127 172.803C226.576 172.238 227.153 171.787 227.811 171.487C228.468 171.188 229.187 171.049 229.909 171.082C230.579 171.04 231.251 171.142 231.878 171.382C232.506 171.622 233.074 171.994 233.546 172.472C234.464 173.583 234.924 175.002 234.831 176.44C234.938 178.131 234.459 179.806 233.473 181.184C233.02 181.743 232.441 182.187 231.784 182.481C231.127 182.774 230.41 182.909 229.691 182.873C229.02 182.915 228.348 182.814 227.719 182.576C227.091 182.337 226.52 181.968 226.046 181.491ZM231.437 176.06C231.482 175.434 231.353 174.808 231.065 174.25C230.94 174.06 230.768 173.907 230.565 173.806C230.362 173.706 230.135 173.661 229.909 173.676C229.602 173.685 229.307 173.793 229.066 173.984C228.826 174.175 228.654 174.438 228.576 174.735C228.248 175.752 228.106 176.82 228.155 177.887C228.112 178.516 228.235 179.146 228.511 179.713C228.631 179.905 228.802 180.06 229.004 180.161C229.207 180.262 229.433 180.306 229.658 180.287C230.847 180.311 231.437 178.889 231.437 176.06ZM230.701 191.327C230.509 191.33 230.318 191.296 230.139 191.225C229.96 191.154 229.797 191.049 229.658 190.915C229.52 190.791 229.41 190.639 229.335 190.469C229.26 190.299 229.221 190.115 229.222 189.929C229.224 189.596 229.328 189.271 229.521 189L241.014 171.575C241.146 171.333 241.339 171.131 241.575 170.989C241.811 170.847 242.08 170.77 242.355 170.767C242.746 170.763 243.122 170.911 243.406 171.179C243.548 171.301 243.662 171.452 243.74 171.622C243.818 171.793 243.858 171.978 243.859 172.165C243.853 172.497 243.749 172.821 243.559 173.094L232.043 190.527C231.909 190.767 231.715 190.967 231.479 191.107C231.244 191.248 230.975 191.324 230.701 191.327ZM239.47 189.509C238.554 188.391 238.1 186.966 238.201 185.524C238.105 183.844 238.581 182.18 239.551 180.804C239.998 180.242 240.573 179.794 241.228 179.498C241.883 179.201 242.599 179.065 243.317 179.099C243.987 179.057 244.659 179.16 245.286 179.4C245.914 179.639 246.482 180.011 246.954 180.489C247.872 181.6 248.332 183.019 248.239 184.458C248.347 186.146 247.873 187.82 246.897 189.202C246.446 189.761 245.869 190.205 245.213 190.497C244.557 190.789 243.84 190.921 243.123 190.883C242.452 190.926 241.779 190.826 241.149 190.589C240.519 190.352 239.947 189.984 239.47 189.509ZM244.877 184.078C244.917 183.447 244.788 182.816 244.505 182.251C244.381 182.059 244.208 181.903 244.003 181.801C243.798 181.698 243.57 181.653 243.341 181.669C243.03 181.675 242.728 181.782 242.483 181.975C242.238 182.167 242.063 182.435 241.983 182.736C241.656 183.759 241.514 184.832 241.563 185.904C241.515 186.538 241.644 187.173 241.935 187.739C242.059 187.931 242.232 188.086 242.437 188.187C242.642 188.288 242.871 188.331 243.099 188.313C244.319 188.313 244.901 186.898 244.901 184.078H244.877Z" fill="#607B99"/>
<path d="M279.945 156.478H371.837" stroke="#D2DFE6" stroke-width="4.84918" stroke-linecap="round" stroke-linejoin="round"/>
<path d="M280.478 168.617H340.681" stroke="#D2DFE6" stroke-width="4.84918" stroke-linecap="round" stroke-linejoin="round"/>
<path d="M280.478 184.466H304.239" stroke="#DEE8EC" stroke-width="2.94992" stroke-linecap="round" stroke-linejoin="round"/>
<path d="M280.478 193.971H304.239" stroke="#DEE8EC" stroke-width="2.94992" stroke-linecap="round" stroke-linejoin="round"/>
<path d="M280.478 203.475H304.239" stroke="#DEE8EC" stroke-width="2.94992" stroke-linecap="round" stroke-linejoin="round"/>
<path d="M314.277 184.466H338.038" stroke="#DEE8EC" stroke-width="2.94992" stroke-linecap="round" stroke-linejoin="round"/>
<path d="M314.277 193.971H338.038" stroke="#DEE8EC" stroke-width="2.94992" stroke-linecap="round" stroke-linejoin="round"/>
<path d="M314.277 203.475H338.038" stroke="#DEE8EC" stroke-width="2.94992" stroke-linecap="round" stroke-linejoin="round"/>
<path d="M348.067 184.466H371.836" stroke="#DEE8EC" stroke-width="2.94992" stroke-linecap="round" stroke-linejoin="round"/>
<path d="M348.067 193.971H371.836" stroke="#DEE8EC" stroke-width="2.94992" stroke-linecap="round" stroke-linejoin="round"/>
<path d="M348.067 203.475H371.836" stroke="#DEE8EC" stroke-width="2.94992" stroke-linecap="round" stroke-linejoin="round"/>
<g filter="url(#filter2_d)">
<path d="M164.057 118.581H102.23C97.7222 118.581 94.0676 122.236 94.0676 126.744V161.642C94.0676 166.15 97.7222 169.805 102.23 169.805H164.057C168.566 169.805 172.22 166.15 172.22 161.642V126.744C172.22 122.236 168.566 118.581 164.057 118.581Z" fill="white"/>
</g>
<path d="M115.719 155.281C121.843 155.281 126.808 150.317 126.808 144.193C126.808 138.069 121.843 133.104 115.719 133.104C109.595 133.104 104.631 138.069 104.631 144.193C104.631 150.317 109.595 155.281 115.719 155.281Z" fill="url(#paint2_linear)"/>
<path d="M137.363 139.441H161.657" stroke="#D2DFE6" stroke-width="5.27752" stroke-linecap="round" stroke-linejoin="round"/>
<path d="M137.363 148.953H153.284" stroke="#D2DFE6" stroke-width="5.27752" stroke-linecap="round" stroke-linejoin="round"/>
<g filter="url(#filter3_d)">
<path d="M164.057 184.991H102.23C97.7222 184.991 94.0676 188.646 94.0676 193.154V228.052C94.0676 232.56 97.7222 236.215 102.23 236.215H164.057C168.566 236.215 172.22 232.56 172.22 228.052V193.154C172.22 188.646 168.566 184.991 164.057 184.991Z" fill="white"/>
</g>
<path d="M115.719 221.692C121.843 221.692 126.808 216.727 126.808 210.603C126.808 204.479 121.843 199.515 115.719 199.515C109.595 199.515 104.631 204.479 104.631 210.603C104.631 216.727 109.595 221.692 115.719 221.692Z" fill="url(#paint3_linear)"/>
<path d="M137.363 205.851H161.657" stroke="#D2DFE6" stroke-width="5.27752" stroke-linecap="round" stroke-linejoin="round"/>
<path d="M137.363 215.354H153.284" stroke="#D2DFE6" stroke-width="5.27752" stroke-linecap="round" stroke-linejoin="round"/>
<path d="M117.659 214.498L117.554 214.595L117.271 214.862C116.802 215.29 116.325 215.718 115.905 216.074V215.346C115.905 215.192 115.844 215.044 115.735 214.935C115.625 214.826 115.477 214.765 115.323 214.765C114.072 214.793 112.85 214.388 111.864 213.617C111.107 212.712 110.702 211.564 110.724 210.384C110.724 209.447 110.846 207.757 112.155 206.949C113.046 206.496 114.041 206.284 115.04 206.335C115.719 206.335 116.396 206.402 117.061 206.537C117.341 206.593 117.612 206.686 117.869 206.812C117.983 206.862 118.112 206.867 118.229 206.825C118.347 206.783 118.443 206.697 118.499 206.586C118.552 206.473 118.557 206.344 118.515 206.228C118.472 206.111 118.385 206.016 118.273 205.963C117.945 205.803 117.597 205.686 117.238 205.616C116.506 205.456 115.758 205.372 115.008 205.365C113.835 205.316 112.671 205.575 111.63 206.117C110.361 206.925 109.698 208.412 109.755 210.384C109.737 211.796 110.234 213.167 111.153 214.239C112.214 215.131 113.549 215.633 114.935 215.662V216.583C114.935 216.767 115.008 216.944 115.139 217.074C115.269 217.205 115.446 217.278 115.63 217.278H115.687C115.831 217.269 115.967 217.212 116.075 217.116C116.576 216.688 117.238 216.114 117.877 215.5L118.16 215.233L118.265 215.144C118.353 215.055 118.403 214.935 118.403 214.809C118.403 214.683 118.353 214.563 118.265 214.474C118.177 214.405 118.068 214.37 117.957 214.374C117.846 214.379 117.74 214.423 117.659 214.498Z" fill="white"/>
<path d="M121.554 210.87V210.829C121.558 210.813 121.558 210.797 121.554 210.781V210.741C121.554 210.741 121.554 210.741 121.554 210.692V210.635V210.595C121.554 210.595 121.554 210.595 121.554 210.547C121.558 210.531 121.558 210.514 121.554 210.498L119.615 208.397C119.563 208.335 119.499 208.284 119.428 208.248C119.356 208.212 119.277 208.19 119.197 208.186C119.116 208.181 119.036 208.193 118.96 208.22C118.884 208.247 118.815 208.29 118.757 208.345C118.698 208.401 118.651 208.467 118.62 208.541C118.588 208.615 118.571 208.695 118.572 208.775C118.572 208.856 118.588 208.936 118.62 209.009C118.652 209.083 118.699 209.15 118.758 209.205L119.784 210.32H115.986C115.903 210.311 115.819 210.318 115.74 210.343C115.66 210.368 115.587 210.41 115.525 210.465C115.463 210.521 115.413 210.589 115.379 210.665C115.345 210.741 115.327 210.823 115.327 210.906C115.327 210.99 115.345 211.072 115.379 211.148C115.413 211.224 115.463 211.292 115.525 211.347C115.587 211.402 115.66 211.444 115.74 211.469C115.819 211.494 115.903 211.502 115.986 211.492H119.784L118.758 212.607C118.653 212.716 118.595 212.861 118.595 213.012C118.595 213.162 118.653 213.307 118.758 213.416C118.867 213.513 119.008 213.567 119.154 213.569C119.235 213.57 119.316 213.553 119.39 213.52C119.464 213.486 119.529 213.437 119.582 213.375L121.522 211.282L121.554 210.87Z" fill="white"/>
<path d="M121.175 142.116C121.02 141.302 120.619 140.556 120.027 139.978C119.434 139.4 118.678 139.017 117.861 138.883C117.094 138.732 116.315 138.656 115.533 138.657C114.301 138.614 113.078 138.893 111.985 139.465C111.367 139.856 110.873 140.417 110.563 141.081C110.508 141.194 110.501 141.323 110.542 141.442C110.582 141.56 110.669 141.657 110.781 141.712C110.894 141.766 111.023 141.774 111.142 141.733C111.26 141.692 111.357 141.606 111.412 141.493C111.645 140.998 112.015 140.581 112.478 140.289C113.423 139.81 114.476 139.587 115.533 139.643C116.25 139.64 116.965 139.711 117.667 139.853C118.309 139.95 118.904 140.246 119.368 140.7C119.832 141.154 120.142 141.743 120.253 142.382C120.631 143.946 120.375 145.596 119.542 146.973C119.153 147.459 118.717 147.905 118.241 148.306L117.934 148.581C117.433 149.05 116.907 149.511 116.463 149.899V149.09C116.463 148.934 116.401 148.784 116.29 148.673C116.179 148.563 116.029 148.5 115.873 148.5C114.55 148.534 113.256 148.108 112.212 147.296C112.126 147.206 112.008 147.154 111.884 147.151C111.759 147.148 111.639 147.194 111.549 147.28C111.459 147.366 111.407 147.484 111.404 147.608C111.401 147.732 111.447 147.853 111.533 147.943C112.653 148.884 114.063 149.412 115.525 149.438V150.408C115.525 150.594 115.599 150.773 115.731 150.905C115.863 151.037 116.042 151.111 116.228 151.111H116.285C116.431 151.096 116.569 151.036 116.681 150.941C117.214 150.489 117.901 149.89 118.58 149.26L118.871 148.985C119.419 148.52 119.915 147.997 120.35 147.426C121.315 145.834 121.611 143.925 121.175 142.116Z" fill="white"/>
<path d="M113.618 146.157C113.517 146.267 113.461 146.411 113.461 146.561C113.461 146.711 113.517 146.855 113.618 146.965C113.726 147.064 113.867 147.119 114.014 147.119C114.096 147.119 114.176 147.103 114.251 147.071C114.327 147.039 114.394 146.992 114.45 146.933L116.487 144.718V144.67C116.487 144.67 116.487 144.67 116.487 144.621C116.487 144.573 116.487 144.621 116.487 144.581C116.491 144.565 116.491 144.548 116.487 144.533C116.483 144.517 116.483 144.5 116.487 144.484C116.483 144.471 116.483 144.457 116.487 144.444C116.491 144.428 116.491 144.411 116.487 144.395C116.487 144.395 116.487 144.395 116.487 144.347V144.306L114.45 142.1C114.397 142.043 114.334 141.997 114.263 141.965C114.192 141.933 114.116 141.915 114.038 141.912C113.96 141.91 113.883 141.923 113.81 141.95C113.737 141.977 113.671 142.018 113.614 142.072C113.557 142.125 113.511 142.188 113.479 142.259C113.447 142.33 113.429 142.406 113.427 142.484C113.424 142.562 113.437 142.639 113.464 142.712C113.491 142.785 113.533 142.851 113.586 142.908L114.717 144.136H110.676C110.599 144.136 110.522 144.152 110.45 144.181C110.379 144.211 110.314 144.255 110.259 144.309C110.204 144.364 110.161 144.429 110.131 144.501C110.101 144.572 110.086 144.649 110.086 144.726C110.088 144.882 110.151 145.03 110.262 145.138C110.372 145.247 110.521 145.308 110.676 145.308H114.717L113.618 146.157Z" fill="white"/>
<path d="M431.1 46.2C443.858 46.2 454.2 35.8578 454.2 23.1C454.2 10.3422 443.858 0 431.1 0C418.342 0 408 10.3422 408 23.1C408 35.8578 418.342 46.2 431.1 46.2Z" fill="url(#paint4_linear)"/>
<path opacity="0.7" d="M441.722 18.3285H441.281C440.688 16.0808 439.367 14.0927 437.526 12.6741C435.684 11.2556 433.425 10.4863 431.1 10.4863C428.775 10.4863 426.516 11.2556 424.674 12.6741C422.833 14.0927 421.512 16.0808 420.919 18.3285H420.452C419.928 18.3285 419.426 18.5365 419.056 18.9068C418.685 19.277 418.477 19.7792 418.477 20.3028V23.9817C418.477 24.5054 418.685 25.0075 419.056 25.3778C419.426 25.7481 419.928 25.9561 420.452 25.9561H420.517V30.2733C420.5 30.8614 420.603 31.4468 420.82 31.9936C421.038 32.5404 421.364 33.037 421.78 33.453C422.196 33.869 422.693 34.1956 423.24 34.4127C423.786 34.6299 424.372 34.7329 424.96 34.7156H427.77C427.96 35.0147 428.223 35.2612 428.533 35.4325C428.844 35.6038 429.192 35.6945 429.547 35.6963H432.416C432.704 35.7123 432.992 35.6695 433.263 35.5704C433.533 35.4713 433.781 35.3181 433.99 35.12C434.2 34.922 434.367 34.6833 434.481 34.4186C434.595 34.1538 434.653 33.8686 434.653 33.5804C434.653 33.2922 434.595 33.007 434.481 32.7422C434.367 32.4775 434.2 32.2388 433.99 32.0408C433.781 31.8427 433.533 31.6895 433.263 31.5904C432.992 31.4913 432.704 31.4485 432.416 31.4645H429.573C429.154 31.4583 428.742 31.5771 428.391 31.8056C428.039 32.0341 427.763 32.3622 427.599 32.7479H424.966C424.637 32.764 424.309 32.7109 424.002 32.5921C423.695 32.4734 423.416 32.2915 423.183 32.0584C422.951 31.8252 422.77 31.5459 422.652 31.2384C422.534 30.931 422.481 30.6022 422.498 30.2733V21.0597C422.498 18.7845 423.402 16.6025 425.011 14.9937C426.62 13.3849 428.802 12.4811 431.077 12.4811C433.352 12.4811 435.534 13.3849 437.143 14.9937C438.752 16.6025 439.656 18.7845 439.656 21.0597V24.9755C439.656 25.2373 439.76 25.4884 439.945 25.6735C440.13 25.8587 440.381 25.9627 440.643 25.9627H441.702C442.226 25.9627 442.728 25.7546 443.098 25.3844C443.469 25.0141 443.677 24.5119 443.677 23.9883V20.3094C443.678 19.7881 443.474 19.2871 443.108 18.916C442.742 18.5449 442.243 18.3337 441.722 18.3285Z" fill="white"/>
<path d="M431.1 14.8272C429.652 14.8258 428.237 15.254 427.032 16.0573C425.828 16.8607 424.889 18.0032 424.334 19.3403C423.779 20.6774 423.633 22.1491 423.915 23.5691C424.197 24.9892 424.893 26.2938 425.916 27.3179C426.94 28.3421 428.243 29.0397 429.663 29.3226C431.083 29.6055 432.555 29.461 433.893 28.9073C435.23 28.3536 436.373 27.4156 437.178 26.2119C437.982 25.0083 438.412 23.5932 438.412 22.1455C438.41 20.2062 437.639 18.3468 436.269 16.9749C434.898 15.603 433.039 14.8306 431.1 14.8272ZM435.707 24.3436C435.372 25.2216 434.767 25.9709 433.98 26.484C433.192 26.9972 432.262 27.2477 431.324 27.1998H431.074C430.136 27.2484 429.207 26.9979 428.42 26.4846C427.634 25.9713 427.03 25.2217 426.697 24.3436C426.487 23.6855 426.506 23.3564 426.697 23.3564C428.161 23.5764 429.64 23.6842 431.12 23.6789H431.284C432.765 23.6842 434.243 23.5764 435.707 23.3564C435.885 23.3564 435.904 23.6723 435.7 24.3436H435.707Z" fill="white"/>
<path d="M436.246 306.573L430.773 301.1C429.614 299.94 427.733 299.94 426.573 301.1L421.1 306.573C419.94 307.733 419.94 309.613 421.1 310.773L426.573 316.246C427.733 317.406 429.614 317.406 430.773 316.246L436.246 310.773C437.406 309.613 437.406 307.733 436.246 306.573Z" stroke="#C9DFE4" stroke-width="1.88" stroke-miterlimit="10"/>
<path d="M179.05 27.2914L175.226 23.4674C174.416 22.657 173.102 22.657 172.291 23.4674L168.467 27.2914C167.657 28.1018 167.657 29.4157 168.467 30.2261L172.291 34.0502C173.102 34.8606 174.416 34.8606 175.226 34.0502L179.05 30.2261C179.861 29.4157 179.861 28.1018 179.05 27.2914Z" stroke="#C9DFE4" stroke-width="1.31357" stroke-miterlimit="10"/>
<path d="M387.09 301.18C389.901 301.18 392.18 298.901 392.18 296.09C392.18 293.279 389.901 291 387.09 291C384.279 291 382 293.279 382 296.09C382 298.901 384.279 301.18 387.09 301.18Z" fill="#C9DFE4"/>
<path d="M7.09 287.18C8.79656 287.18 10.18 285.797 10.18 284.09C10.18 282.383 8.79656 281 7.09 281C5.38344 281 4 282.383 4 284.09C4 285.797 5.38344 287.18 7.09 287.18Z" fill="#C9DFE4"/>
<path d="M58.09 62.18C59.7966 62.18 61.18 60.7966 61.18 59.09C61.18 57.3834 59.7966 56 58.09 56C56.3834 56 55 57.3834 55 59.09C55 60.7966 56.3834 62.18 58.09 62.18Z" fill="#C9DFE4"/>
<path d="M235.09 16.18C236.797 16.18 238.18 14.7966 238.18 13.09C238.18 11.3834 236.797 10 235.09 10C233.383 10 232 11.3834 232 13.09C232 14.7966 233.383 16.18 235.09 16.18Z" fill="#C9DFE4"/>
<path d="M307.91 46.82C310.622 46.82 312.82 44.6217 312.82 41.91C312.82 39.1983 310.622 37 307.91 37C305.198 37 303 39.1983 303 41.91C303 44.6217 305.198 46.82 307.91 46.82Z" fill="#C9DFE4"/>
<path d="M439.09 80.18C441.901 80.18 444.18 77.9011 444.18 75.09C444.18 72.2789 441.901 70 439.09 70C436.279 70 434 72.2789 434 75.09C434 77.9011 436.279 80.18 439.09 80.18Z" fill="#C9DFE4"/>
<path d="M372.09 22.18C374.901 22.18 377.18 19.9011 377.18 17.09C377.18 14.2789 374.901 12 372.09 12C369.279 12 367 14.2789 367 17.09C367 19.9011 369.279 22.18 372.09 22.18Z" stroke="#C9DFE4" stroke-width="1.88" stroke-miterlimit="10"/>
<path d="M14.22 269.44C22.0734 269.44 28.4399 263.073 28.4399 255.22C28.4399 247.366 22.0734 241 14.22 241C6.3665 241 0 247.366 0 255.22C0 263.073 6.3665 269.44 14.22 269.44Z" fill="url(#paint5_linear)"/>
<path opacity="0.7" d="M21.5295 249.213C21.4373 248.705 21.1907 248.239 20.8236 247.877C20.4565 247.515 19.9867 247.275 19.4781 247.189C19.0314 247.096 18.5762 247.049 18.1198 247.049C17.3896 247.025 16.6656 247.191 16.0194 247.532C15.5915 247.836 15.2531 248.249 15.04 248.728C14.8268 249.207 14.7468 249.735 14.8081 250.256C14.7711 250.681 14.8232 251.109 14.9611 251.513C15.099 251.917 15.3196 252.287 15.6089 252.601C15.8982 252.915 16.2498 253.165 16.6412 253.335C17.0325 253.505 17.4551 253.591 17.8818 253.589V253.932C17.8818 254.099 17.9481 254.259 18.0663 254.377C18.1845 254.495 18.3448 254.562 18.5119 254.562C18.6424 254.547 18.7661 254.496 18.869 254.415C19.1841 254.135 19.5691 253.806 19.9402 253.456L20.1083 253.302C20.4272 253.025 20.718 252.718 20.9764 252.384C21.2727 251.918 21.474 251.398 21.5689 250.854C21.6638 250.309 21.6504 249.752 21.5295 249.213Z" fill="white"/>
<path d="M12.0074 255.696C12.5528 255.689 13.084 255.521 13.5342 255.213C13.9843 254.905 14.3334 254.471 14.5373 253.965C14.7413 253.459 14.7911 252.904 14.6804 252.37C14.5698 251.836 14.3037 251.346 13.9156 250.963C13.5274 250.58 13.0346 250.32 12.4992 250.216C11.9637 250.112 11.4094 250.169 10.9061 250.379C10.4028 250.589 9.9729 250.944 9.67053 251.398C9.36817 251.852 9.20683 252.385 9.20679 252.93C9.216 253.667 9.51511 254.37 10.0393 254.888C10.5635 255.406 11.2706 255.696 12.0074 255.696Z" fill="white"/>
<path d="M12.4416 256.319H11.5734C10.5391 256.319 9.54717 256.73 8.81581 257.462C8.08445 258.193 7.67358 259.185 7.67358 260.219V260.975C7.67358 261.217 7.76946 261.448 7.94016 261.619C8.11085 261.79 8.34237 261.886 8.58377 261.886H15.4312C15.6726 261.886 15.9041 261.79 16.0748 261.619C16.2455 261.448 16.3414 261.217 16.3414 260.975V260.219C16.3395 259.185 15.9281 258.195 15.1971 257.464C14.4662 256.733 13.4753 256.321 12.4416 256.319Z" fill="white"/>
<path d="M48 309C59.0457 309 68 300.046 68 289C68 277.954 59.0457 269 48 269C36.9543 269 28 277.954 28 289C28 300.046 36.9543 309 48 309Z" fill="url(#paint6_linear)"/>
<path d="M43.3615 298.469H43.2689C43.089 298.447 42.9188 298.376 42.7773 298.263C42.136 297.707 41.3024 296.987 40.4902 296.232L40.1339 295.904C39.47 295.34 38.8703 294.705 38.3455 294.009C37.1542 292.084 36.775 289.765 37.291 287.561C37.4817 286.565 37.9712 285.652 38.6942 284.942C39.4172 284.231 40.3394 283.758 41.338 283.585C42.2623 283.4 43.2027 283.307 44.1453 283.307C45.6416 283.245 47.1281 283.576 48.4559 284.269C50.0733 285.267 50.9212 287.198 50.8428 289.706C50.8638 291.504 50.2308 293.248 49.0616 294.615C47.9643 295.748 45.9195 296.325 44.2878 296.424V297.543C44.2878 297.665 44.2638 297.785 44.2173 297.898C44.1708 298.01 44.1025 298.112 44.0165 298.198C43.9305 298.284 43.8284 298.352 43.716 298.399C43.6036 298.445 43.4832 298.469 43.3615 298.469ZM41.6302 284.825C40.8723 284.936 40.168 285.28 39.615 285.81C39.0621 286.34 38.6881 287.029 38.545 287.782C38.0964 289.644 38.4011 291.608 39.3929 293.247C39.8687 293.862 40.4058 294.428 40.996 294.935L41.3594 295.263C41.9223 295.79 42.4994 296.296 43.0053 296.745V295.933C43.0053 295.83 43.0256 295.729 43.0651 295.634C43.1046 295.539 43.1624 295.453 43.2353 295.381C43.3082 295.309 43.3946 295.252 43.4897 295.213C43.5847 295.175 43.6865 295.155 43.7891 295.156C45.2141 295.156 47.2447 294.65 48.1353 293.731C49.084 292.59 49.5899 291.146 49.5603 289.663C49.596 288.487 49.4178 286.364 47.7791 285.352C46.6554 284.784 45.4029 284.519 44.1453 284.583C43.2914 284.583 42.4395 284.667 41.6017 284.832L41.6302 284.825Z" fill="white"/>
<g opacity="0.6">
<path opacity="0.6" d="M49.2896 291.544C49.2896 291.544 49.2896 291.544 49.2896 291.594C49.4587 290.964 49.552 290.315 49.5674 289.663C49.5495 290.299 49.4562 290.93 49.2896 291.544Z" fill="white"/>
<path opacity="0.6" d="M45.8483 284.704L46.3969 284.811C46.2116 284.768 46.0264 284.733 45.8269 284.704H45.8483Z" fill="white"/>
<path opacity="0.6" d="M49.0686 286.848C48.9825 286.651 48.8775 286.462 48.7551 286.285C48.8775 286.462 48.9825 286.651 49.0686 286.848Z" fill="white"/>
<path opacity="0.6" d="M49.5674 289.428C49.5862 288.542 49.4162 287.663 49.0686 286.849C49.4162 287.663 49.5862 288.542 49.5674 289.428Z" fill="white"/>
<path opacity="0.6" d="M47.3302 285.104C47.2233 285.061 47.1235 285.018 47.0095 284.982C47.095 285.018 47.1948 285.061 47.3302 285.104Z" fill="white"/>
<path opacity="0.6" d="M58.7304 283.799C58.541 282.802 58.0521 281.887 57.329 281.176C56.6059 280.464 55.683 279.99 54.6834 279.816C53.7591 279.631 52.8187 279.538 51.8761 279.538C50.3917 279.482 48.9183 279.814 47.6011 280.5C46.5737 281.156 45.829 282.173 45.5134 283.35C46.5651 283.424 47.5871 283.731 48.5059 284.248C50.1233 285.246 50.9712 287.176 50.8928 289.684C50.8682 290.628 50.7025 291.562 50.4012 292.456C50.8525 292.549 51.3095 292.611 51.7692 292.641V293.767C51.7692 294.011 51.8658 294.246 52.038 294.42C52.2101 294.593 52.4439 294.691 52.6883 294.693H52.7738C52.9614 294.671 53.1389 294.597 53.2868 294.48C53.921 293.931 54.7546 293.211 55.5669 292.456L55.916 292.128C56.5782 291.562 57.1778 290.927 57.7044 290.233C58.8821 288.308 59.2509 285.995 58.7304 283.799Z" fill="white"/>
<path opacity="0.6" d="M46.8602 284.932L46.4541 284.811L46.8602 284.932Z" fill="white"/>
<path opacity="0.6" d="M47.7792 285.345L47.4158 285.152L47.7792 285.345Z" fill="white"/>
</g>
<path d="M40.09 236.18C42.9011 236.18 45.18 233.901 45.18 231.09C45.18 228.279 42.9011 226 40.09 226C37.2789 226 35 228.279 35 231.09C35 233.901 37.2789 236.18 40.09 236.18Z" stroke="#F5F8F9" stroke-width="1.25" stroke-miterlimit="10"/>
<path d="M68.7721 251.292L65.6679 248.188C65.0118 247.532 63.9481 247.532 63.292 248.188L60.1878 251.292C59.5318 251.948 59.5318 253.012 60.1878 253.668L63.292 256.772C63.9481 257.428 65.0118 257.428 65.6679 256.772L68.7721 253.668C69.4282 253.012 69.4282 251.948 68.7721 251.292Z" fill="#F5F8F9"/>
<path d="M90.7721 34.2921L87.6679 31.1879C87.0118 30.5319 85.9481 30.5319 85.292 31.1879L82.1878 34.2921C81.5318 34.9482 81.5318 36.0119 82.1878 36.668L85.292 39.7722C85.9481 40.4283 87.0118 40.4283 87.6679 39.7722L90.7721 36.668C91.4282 36.0119 91.4282 34.9482 90.7721 34.2921Z" fill="#C9DFE4"/>
<path d="M56.09 25.18C58.9011 25.18 61.18 22.9011 61.18 20.09C61.18 17.2789 58.9011 15 56.09 15C53.2789 15 51 17.2789 51 20.09C51 22.9011 53.2789 25.18 56.09 25.18Z" stroke="#C9DFE4" stroke-width="1.25" stroke-miterlimit="10"/>
<defs>
<filter id="filter0_d" x="61.6296" y="41.0781" width="369.049" height="258.156" filterUnits="userSpaceOnUse" color-interpolation-filters="sRGB">
<feFlood flood-opacity="0" result="BackgroundImageFix"/>
<feColorMatrix in="SourceAlpha" type="matrix" values="0 0 0 0 0 0 0 0 0 0 0 0 0 0 0 0 0 0 127 0"/>
<feOffset dy="2.06173"/>
<feGaussianBlur stdDeviation="6.18518"/>
<feColorMatrix type="matrix" values="0 0 0 0 0.376471 0 0 0 0 0.482353 0 0 0 0 0.6 0 0 0 0.3 0"/>
<feBlend mode="normal" in2="BackgroundImageFix" result="effect1_dropShadow"/>
<feBlend mode="normal" in="SourceGraphic" in2="effect1_dropShadow" result="shape"/>
</filter>
<filter id="filter1_d" x="186.663" y="112.302" width="208.749" height="127.954" filterUnits="userSpaceOnUse" color-interpolation-filters="sRGB">
<feFlood flood-opacity="0" result="BackgroundImageFix"/>
<feColorMatrix in="SourceAlpha" type="matrix" values="0 0 0 0 0 0 0 0 0 0 0 0 0 0 0 0 0 0 127 0"/>
<feOffset/>
<feGaussianBlur stdDeviation="2.02049"/>
<feColorMatrix type="matrix" values="0 0 0 0 0.374547 0 0 0 0 0.481553 0 0 0 0 0.601935 0 0 0 0.27 0"/>
<feBlend mode="normal" in2="BackgroundImageFix" result="effect1_dropShadow"/>
<feBlend mode="normal" in="SourceGraphic" in2="effect1_dropShadow" result="shape"/>
</filter>
<filter id="filter2_d" x="90.0266" y="114.54" width="86.2346" height="59.3055" filterUnits="userSpaceOnUse" color-interpolation-filters="sRGB">
<feFlood flood-opacity="0" result="BackgroundImageFix"/>
<feColorMatrix in="SourceAlpha" type="matrix" values="0 0 0 0 0 0 0 0 0 0 0 0 0 0 0 0 0 0 127 0"/>
<feOffset/>
<feGaussianBlur stdDeviation="2.02049"/>
<feColorMatrix type="matrix" values="0 0 0 0 0.374547 0 0 0 0 0.481553 0 0 0 0 0.601935 0 0 0 0.27 0"/>
<feBlend mode="normal" in2="BackgroundImageFix" result="effect1_dropShadow"/>
<feBlend mode="normal" in="SourceGraphic" in2="effect1_dropShadow" result="shape"/>
</filter>
<filter id="filter3_d" x="90.0266" y="180.95" width="86.2346" height="59.3054" filterUnits="userSpaceOnUse" color-interpolation-filters="sRGB">
<feFlood flood-opacity="0" result="BackgroundImageFix"/>
<feColorMatrix in="SourceAlpha" type="matrix" values="0 0 0 0 0 0 0 0 0 0 0 0 0 0 0 0 0 0 127 0"/>
<feOffset/>
<feGaussianBlur stdDeviation="2.02049"/>
<feColorMatrix type="matrix" values="0 0 0 0 0.374547 0 0 0 0 0.481553 0 0 0 0 0.601935 0 0 0 0.27 0"/>
<feBlend mode="normal" in2="BackgroundImageFix" result="effect1_dropShadow"/>
<feBlend mode="normal" in="SourceGraphic" in2="effect1_dropShadow" result="shape"/>
</filter>
<linearGradient id="paint0_linear" x1="470.967" y1="36.0615" x2="255.161" y2="450.248" gradientUnits="userSpaceOnUse">
<stop stop-color="#FAFCFC"/>
<stop offset="0.43888" stop-color="#F5F8F9"/>
<stop offset="0.9999" stop-color="#E8EAEB"/>
<stop offset="1" stop-color="#E8EAEB"/>
</linearGradient>
<linearGradient id="paint1_linear" x1="410" y1="40.1944" x2="409.086" y2="81.3061" gradientUnits="userSpaceOnUse">
<stop stop-color="#343C4C"/>
<stop offset="0.43888" stop-color="#242B36"/>
<stop offset="1" stop-color="#1D1D1D"/>
</linearGradient>
<linearGradient id="paint2_linear" x1="130.199" y1="131.648" x2="106.024" y2="163.103" gradientUnits="userSpaceOnUse">
<stop stop-color="#87DDE8"/>
<stop offset="0.43888" stop-color="#2CC3D5"/>
<stop offset="1" stop-color="#2498A8"/>
</linearGradient>
<linearGradient id="paint3_linear" x1="130.199" y1="198.059" x2="106.024" y2="229.513" gradientUnits="userSpaceOnUse">
<stop stop-color="#6D8CE5"/>
<stop offset="0.43888" stop-color="#517BF2"/>
<stop offset="1" stop-color="#4D6CC5"/>
</linearGradient>
<linearGradient id="paint4_linear" x1="461.266" y1="-3.03333" x2="410.903" y2="62.4949" gradientUnits="userSpaceOnUse">
<stop stop-color="#9EE3FF"/>
<stop offset="0.43888" stop-color="#55CFFF"/>
<stop offset="1" stop-color="#51B2DD"/>
</linearGradient>
<linearGradient id="paint5_linear" x1="32.7896" y1="239.133" x2="1.78684" y2="279.471" gradientUnits="userSpaceOnUse">
<stop stop-color="#FFCF33"/>
<stop offset="0.43888" stop-color="#F9B42F"/>
<stop offset="1" stop-color="#F99B45"/>
</linearGradient>
<linearGradient id="paint6_linear" x1="74.1177" y1="266.374" x2="30.5132" y2="323.108" gradientUnits="userSpaceOnUse">
<stop stop-color="#FBB3C4"/>
<stop offset="0.43888" stop-color="#F66689"/>
<stop offset="1" stop-color="#C85C77"/>
</linearGradient>
</defs>
</svg>
