<svg width="306" height="322" viewBox="0 0 306 322" fill="none" xmlns="http://www.w3.org/2000/svg">
<path opacity="0.3" d="M228.05 198.814C225.377 175.478 230.084 154.965 260.845 110.762C304.314 48.3304 223.267 4.04348 177.888 26.7162C132.51 49.3889 144.477 84.1105 63.6022 111.277C-46.5453 148.253 67.4852 249.929 118.011 282.125C178.29 320.514 240 303.703 228.05 198.814Z" fill="#87DDE8"/>
<path d="M197.567 152.148C198.157 152.148 198.635 151.67 198.635 151.08C198.635 150.49 198.157 150.011 197.567 150.011C196.977 150.011 196.498 150.49 196.498 151.08C196.498 151.67 196.977 152.148 197.567 152.148Z" fill="#87DDE8"/>
<path d="M163.18 104.661C163.77 104.661 164.248 104.183 164.248 103.593C164.248 103.002 163.77 102.524 163.18 102.524C162.589 102.524 162.111 103.002 162.111 103.593C162.111 104.183 162.589 104.661 163.18 104.661Z" fill="#87DDE8"/>
<path d="M230.261 83.6023C230.821 83.7889 231.427 83.4864 231.613 82.9265C231.8 82.3667 231.497 81.7615 230.937 81.5748C230.378 81.3881 229.772 81.6907 229.586 82.2506C229.399 82.8104 229.702 83.4156 230.261 83.6023Z" fill="#87DDE8"/>
<path d="M236.547 79.4609C238.318 79.4609 239.753 78.0256 239.753 76.2551C239.753 74.4846 238.318 73.0493 236.547 73.0493C234.777 73.0493 233.342 74.4846 233.342 76.2551C233.342 78.0256 234.777 79.4609 236.547 79.4609Z" stroke="#87DDE8" stroke-width="0.427437" stroke-linecap="round" stroke-linejoin="round"/>
<path d="M164.498 126.948C166.269 126.948 167.704 125.513 167.704 123.742C167.704 121.972 166.269 120.537 164.498 120.537C162.728 120.537 161.292 121.972 161.292 123.742C161.292 125.513 162.728 126.948 164.498 126.948Z" stroke="#87DDE8" stroke-width="0.427437" stroke-linecap="round" stroke-linejoin="round"/>
<path d="M219.678 4.13605L217.569 1.81703C217.159 1.3658 216.46 1.33262 216.009 1.74293L213.69 3.85158C213.239 4.26189 213.206 4.9603 213.616 5.41154L215.725 7.73055C216.135 8.18179 216.833 8.21497 217.285 7.80466L219.604 5.69601C220.055 5.2857 220.088 4.58728 219.678 4.13605Z" stroke="#87DDE8" stroke-width="0.534297" stroke-linecap="round" stroke-linejoin="round"/>
<path d="M186.109 155.603L184 153.284C183.59 152.833 182.892 152.8 182.441 153.21L180.122 155.319C179.67 155.729 179.637 156.428 180.047 156.879L182.156 159.198C182.566 159.649 183.265 159.682 183.716 159.272L186.035 157.163C186.486 156.753 186.519 156.055 186.109 155.603Z" stroke="#87DDE8" stroke-width="0.534297" stroke-linecap="round" stroke-linejoin="round"/>
<path d="M281.196 72.0571L280.183 69.7636C279.986 69.3173 279.464 69.1154 279.018 69.3127L276.724 70.3262C276.278 70.5234 276.076 71.0451 276.273 71.4913L277.287 73.7849C277.484 74.2311 278.006 74.433 278.452 74.2358L280.745 73.2223C281.192 73.0251 281.394 72.5034 281.196 72.0571Z" fill="#87DDE8"/>
<path d="M211.767 13.3335L210.08 11.4783C209.752 11.1173 209.193 11.0908 208.832 11.419L206.977 13.106C206.616 13.4342 206.589 13.9929 206.917 14.3539L208.604 16.2091C208.933 16.5701 209.491 16.5967 209.852 16.2684L211.707 14.5815C212.068 14.2533 212.095 13.6945 211.767 13.3335Z" fill="#87DDE8"/>
<path d="M193.754 174.626L192.067 172.771C191.739 172.41 191.181 172.383 190.82 172.712L188.964 174.398C188.603 174.727 188.577 175.285 188.905 175.646L190.592 177.502C190.92 177.863 191.479 177.889 191.84 177.561L193.695 175.874C194.056 175.546 194.083 174.987 193.754 174.626Z" fill="#87DDE8"/>
<path d="M179.017 128.776L177.33 126.921C177.002 126.56 176.443 126.534 176.082 126.862L174.227 128.549C173.866 128.877 173.839 129.436 174.168 129.797L175.855 131.652C176.183 132.013 176.742 132.04 177.103 131.711L178.958 130.024C179.319 129.696 179.345 129.137 179.017 128.776Z" fill="#87DDE8"/>
<rect opacity="0.3" x="225.311" y="15.1279" width="60.9676" height="42.6773" rx="4.27437" fill="#87DDE8"/>
<rect opacity="0.3" x="228.795" y="19.4824" width="60.9676" height="42.6773" rx="4.27437" fill="#87DDE8"/>
<rect x="222.698" y="11.6436" width="60.9676" height="42.6773" rx="4.27437" fill="#F8FBFB"/>
<path d="M222.698 15.9179C222.698 13.5573 224.612 11.6436 226.972 11.6436H279.391C281.752 11.6436 283.666 13.5573 283.666 15.9179V21.2242H222.698V15.9179Z" fill="#343C4C"/>
<circle cx="229.23" cy="16.4344" r="1.30645" fill="#FF5A60"/>
<circle cx="232.714" cy="16.4344" r="1.30645" fill="#F9B42F"/>
<circle cx="236.198" cy="16.4344" r="1.30645" fill="#4DCB7B"/>
<path d="M278.899 26.4497H262.303C261.594 26.4497 261.02 27.0238 261.02 27.732V46.0706C261.02 46.7788 261.594 47.3529 262.303 47.3529H278.899C279.608 47.3529 280.182 46.7788 280.182 46.0706V27.732C280.182 27.0238 279.608 26.4497 278.899 26.4497Z" fill="white"/>
<path d="M263.634 29.9341H277.569" stroke="#D2DFE6" stroke-width="1.60289" stroke-linecap="round" stroke-linejoin="round"/>
<path d="M263.633 32.5474H277.569" stroke="#D2DFE6" stroke-width="1.60289" stroke-linecap="round" stroke-linejoin="round"/>
<path d="M263.633 35.1602H277.569" stroke="#D2DFE6" stroke-width="1.60289" stroke-linecap="round" stroke-linejoin="round"/>
<path d="M273.214 39.5151H277.569" stroke="#D2DFE6" stroke-width="1.60289" stroke-linecap="round" stroke-linejoin="round"/>
<path d="M273.214 42.1279H276.698" stroke="#D2DFE6" stroke-width="1.60289" stroke-linecap="round" stroke-linejoin="round"/>
<path d="M273.214 44.7407H274.956" stroke="#D2DFE6" stroke-width="1.60289" stroke-linecap="round" stroke-linejoin="round"/>
<path d="M270.757 45.2021H264.348C264.278 45.2021 264.21 45.1741 264.16 45.1242C264.11 45.0743 264.082 45.0066 264.082 44.936V38.4478C264.082 38.3772 264.11 38.3095 264.16 38.2596C264.21 38.2097 264.278 38.1816 264.348 38.1816C264.419 38.1816 264.487 38.2097 264.537 38.2596C264.586 38.3095 264.615 38.3772 264.615 38.4478V44.6699H270.757C270.827 44.6699 270.895 44.6979 270.945 44.7478C270.995 44.7977 271.023 44.8654 271.023 44.936C271.023 45.0066 270.995 45.0743 270.945 45.1242C270.895 45.1741 270.827 45.2021 270.757 45.2021Z" fill="#B9CBD3"/>
<path d="M265.515 44.1738C265.427 44.1738 265.343 44.1388 265.28 44.0764C265.218 44.014 265.183 43.9294 265.183 43.8412V41.3595C265.183 41.2713 265.218 41.1867 265.28 41.1243C265.343 41.0619 265.427 41.0269 265.515 41.0269C265.604 41.0269 265.688 41.0619 265.751 41.1243C265.813 41.1867 265.848 41.2713 265.848 41.3595V43.8412C265.848 43.9294 265.813 44.014 265.751 44.0764C265.688 44.1388 265.604 44.1738 265.515 44.1738V44.1738Z" fill="#C3EEF4"/>
<path d="M266.975 44.1736C266.887 44.1736 266.802 44.1385 266.74 44.0761C266.678 44.0137 266.642 43.9291 266.642 43.8409V40.0592C266.642 40.0155 266.651 39.9723 266.668 39.9319C266.684 39.8916 266.709 39.8549 266.74 39.824C266.771 39.7931 266.807 39.7686 266.848 39.7519C266.888 39.7352 266.931 39.7266 266.975 39.7266C267.019 39.7266 267.062 39.7352 267.102 39.7519C267.143 39.7686 267.179 39.7931 267.21 39.824C267.241 39.8549 267.266 39.8916 267.282 39.9319C267.299 39.9723 267.308 40.0155 267.308 40.0592V43.8409C267.308 43.9291 267.273 44.0137 267.21 44.0761C267.148 44.1385 267.063 44.1736 266.975 44.1736V44.1736Z" fill="#87DDE8"/>
<path d="M269.895 44.1734C269.806 44.1734 269.722 44.1384 269.659 44.076C269.597 44.0136 269.562 43.929 269.562 43.8408V39.6413C269.562 39.553 269.597 39.4684 269.659 39.406C269.722 39.3436 269.806 39.3086 269.895 39.3086C269.983 39.3086 270.068 39.3436 270.13 39.406C270.192 39.4684 270.227 39.553 270.227 39.6413V43.8408C270.228 43.8845 270.219 43.9278 270.202 43.9683C270.186 44.0087 270.161 44.0455 270.13 44.0764C270.099 44.1073 270.063 44.1318 270.022 44.1485C269.982 44.1651 269.938 44.1736 269.895 44.1734V44.1734Z" fill="#2CC3D5"/>
<path d="M268.435 44.1741C268.347 44.1741 268.262 44.1391 268.2 44.0767C268.137 44.0143 268.102 43.9297 268.102 43.8415V40.7916C268.102 40.7034 268.137 40.6188 268.2 40.5564C268.262 40.494 268.347 40.459 268.435 40.459C268.523 40.459 268.608 40.494 268.67 40.5564C268.732 40.6188 268.767 40.7034 268.767 40.7916V43.8415C268.768 43.8852 268.759 43.9285 268.743 43.969C268.726 44.0094 268.701 44.0462 268.67 44.0771C268.64 44.108 268.603 44.1325 268.562 44.1492C268.522 44.1658 268.479 44.1743 268.435 44.1741Z" fill="#C3EEF4"/>
<path d="M257.429 26.4497H227.459C226.753 26.4497 226.182 27.0214 226.182 27.7266V46.3916C226.182 47.0968 226.753 47.6685 227.459 47.6685H257.429C258.134 47.6685 258.706 47.0968 258.706 46.3916V27.7266C258.706 27.0214 258.134 26.4497 257.429 26.4497Z" fill="#E7EEF1"/>
<path d="M228.784 33.3882H230.518" stroke="#2CC3D5" stroke-width="1.59615" stroke-linecap="round" stroke-linejoin="round"/>
<path d="M232.253 33.3882H240.926" stroke="#2CC3D5" stroke-width="1.59615" stroke-linecap="round" stroke-linejoin="round"/>
<path d="M228.784 40.3267H230.518" stroke="#F9B42F" stroke-width="1.59615" stroke-linecap="round" stroke-linejoin="round"/>
<path d="M232.253 40.3267H240.926" stroke="#F9B42F" stroke-width="1.59615" stroke-linecap="round" stroke-linejoin="round"/>
<path d="M228.784 43.7959H230.518" stroke="#55CFFF" stroke-width="1.59615" stroke-linecap="round" stroke-linejoin="round"/>
<path d="M232.253 43.7959H248.732" stroke="#55CFFF" stroke-width="1.59615" stroke-linecap="round" stroke-linejoin="round"/>
<path d="M228.784 36.8579H232.253" stroke="#B97CE8" stroke-width="1.59615" stroke-linecap="round" stroke-linejoin="round"/>
<path d="M234.855 36.8579H242.661" stroke="#B97CE8" stroke-width="1.59615" stroke-linecap="round" stroke-linejoin="round"/>
<path d="M229.075 30.448C229.096 30.4651 229.112 30.4871 229.122 30.512C229.133 30.5369 229.136 30.5639 229.134 30.5906C229.136 30.6177 229.132 30.645 229.122 30.6703C229.112 30.6956 229.096 30.7181 229.075 30.7362C229.039 30.7681 228.993 30.7857 228.944 30.7857H228.7C228.642 30.7905 228.584 30.7827 228.53 30.763C228.476 30.7432 228.426 30.7119 228.385 30.6712C228.345 30.6305 228.313 30.5814 228.293 30.5273C228.273 30.4731 228.264 30.4153 228.269 30.3577V29.9181C228.273 29.8606 228.261 29.803 228.234 29.7521C228.218 29.7342 228.198 29.7198 228.176 29.7098C228.154 29.6998 228.13 29.6943 228.106 29.6939C228.079 29.6944 228.053 29.6895 228.029 29.6795C228.004 29.6694 227.982 29.6545 227.963 29.6357C227.931 29.595 227.915 29.5445 227.917 29.493C227.914 29.4431 227.931 29.3943 227.963 29.3562C228.001 29.3183 228.052 29.2964 228.106 29.295C228.13 29.2945 228.154 29.2891 228.176 29.2791C228.198 29.2691 228.218 29.2547 228.234 29.2368C228.262 29.1862 228.274 29.1284 228.269 29.0708V28.6195C228.266 28.562 228.275 28.5044 228.295 28.4504C228.315 28.3963 228.346 28.3469 228.385 28.3051C228.471 28.2281 228.584 28.1883 228.7 28.1945H228.944C228.992 28.1934 229.039 28.21 229.075 28.2411C229.112 28.2805 229.133 28.3325 229.133 28.3866C229.133 28.4407 229.112 28.4928 229.075 28.5322C229.038 28.562 228.992 28.5784 228.944 28.5788H228.898C228.866 28.5768 228.835 28.5861 228.81 28.605C228.799 28.6187 228.791 28.6346 228.786 28.6516C228.781 28.6686 228.779 28.6864 228.781 28.704V29.1349C228.783 29.2202 228.755 29.3034 228.703 29.3707C228.659 29.4313 228.597 29.4755 228.525 29.4959C228.597 29.514 228.66 29.5574 228.703 29.6182C228.755 29.6855 228.783 29.7687 228.781 29.854V30.282C228.779 30.2996 228.781 30.3174 228.786 30.3344C228.791 30.3514 228.799 30.3672 228.81 30.381C228.835 30.3999 228.866 30.4092 228.898 30.4072H228.944C228.991 30.4047 229.038 30.4192 229.075 30.448V30.448Z" fill="#B9CBD3"/>
<path d="M231.297 30.0424C231.297 30.0729 231.291 30.1031 231.279 30.1312C231.267 30.1592 231.249 30.1845 231.227 30.2055C231.205 30.2288 231.179 30.2473 231.15 30.26C231.121 30.2728 231.09 30.2793 231.058 30.2793C231.026 30.2793 230.995 30.2728 230.966 30.26C230.937 30.2473 230.911 30.2288 230.889 30.2055L230.543 29.8474L230.202 30.2084C230.181 30.2317 230.154 30.2502 230.125 30.263C230.096 30.2757 230.065 30.2822 230.033 30.2822C230.001 30.2822 229.97 30.2757 229.941 30.263C229.912 30.2502 229.886 30.2317 229.864 30.2084C229.842 30.1874 229.825 30.1621 229.813 30.1341C229.801 30.106 229.794 30.0758 229.794 30.0453C229.796 29.9826 229.822 29.923 229.867 29.8794L230.234 29.5154L229.896 29.1865C229.851 29.142 229.825 29.0813 229.824 29.0176C229.823 28.9871 229.83 28.9569 229.842 28.9289C229.854 28.9008 229.871 28.8755 229.893 28.8545C229.914 28.8313 229.939 28.8128 229.967 28.8002C229.995 28.7876 230.026 28.7813 230.056 28.7818C230.09 28.7819 230.122 28.7895 230.152 28.8041C230.182 28.8188 230.208 28.84 230.228 28.8662L230.543 29.1865L230.86 28.8662C230.882 28.8415 230.909 28.8215 230.939 28.8075C230.969 28.7935 231.002 28.7857 231.035 28.7847C231.096 28.7861 231.154 28.8107 231.197 28.8535C231.24 28.8962 231.265 28.9539 231.268 29.0147C231.267 29.0469 231.26 29.0786 231.247 29.1081C231.234 29.1376 231.215 29.1642 231.192 29.1865L230.857 29.5154L231.224 29.8794C231.268 29.9223 231.295 29.9807 231.297 30.0424V30.0424Z" fill="#B9CBD3"/>
<path d="M232.889 29.3347C232.906 29.3531 232.919 29.3746 232.928 29.3981C232.936 29.4216 232.94 29.4466 232.939 29.4716C232.94 29.5236 232.923 29.5744 232.889 29.6142C232.871 29.6328 232.849 29.6475 232.825 29.6575C232.801 29.6675 232.776 29.6726 232.75 29.6725C232.725 29.6729 232.701 29.6783 232.678 29.6883C232.656 29.6983 232.635 29.7127 232.619 29.7307C232.591 29.7816 232.579 29.8391 232.584 29.8967V30.345C232.589 30.4026 232.582 30.4606 232.562 30.515C232.542 30.5693 232.511 30.6187 232.47 30.6596C232.429 30.7005 232.38 30.7318 232.326 30.7514C232.271 30.771 232.213 30.7784 232.156 30.773H231.914C231.864 30.7736 231.815 30.7561 231.777 30.7235C231.758 30.7049 231.743 30.6822 231.733 30.657C231.723 30.6318 231.72 30.6048 231.722 30.5779C231.719 30.5515 231.723 30.5249 231.733 30.5001C231.742 30.4754 231.757 30.4532 231.777 30.4353C231.815 30.4027 231.864 30.3852 231.914 30.3858H231.958C231.989 30.3878 232.02 30.3785 232.045 30.3596C232.056 30.3458 232.064 30.33 232.069 30.313C232.074 30.296 232.076 30.2782 232.074 30.2606V29.8326C232.073 29.7478 232.099 29.665 232.15 29.5968C232.192 29.536 232.255 29.4926 232.327 29.4745C232.256 29.4541 232.193 29.4099 232.15 29.3493C232.099 29.2811 232.073 29.1982 232.074 29.1135V28.6942C232.076 28.6766 232.074 28.6588 232.069 28.6418C232.064 28.6248 232.056 28.609 232.045 28.5952C232.02 28.5763 231.989 28.567 231.958 28.569H231.914C231.864 28.5692 231.816 28.5528 231.777 28.5224C231.741 28.4824 231.722 28.4306 231.722 28.3769C231.722 28.3231 231.741 28.2713 231.777 28.2313C231.816 28.1998 231.864 28.1833 231.914 28.1847H232.156C232.271 28.1786 232.384 28.2183 232.47 28.2953C232.509 28.3374 232.54 28.3869 232.559 28.4409C232.579 28.495 232.587 28.5524 232.584 28.6098V29.0611C232.579 29.1186 232.591 29.1764 232.619 29.227C232.635 29.245 232.656 29.2595 232.678 29.2695C232.701 29.2795 232.725 29.2848 232.75 29.2852C232.801 29.2842 232.85 29.3018 232.889 29.3347V29.3347Z" fill="#B9CBD3"/>
<path d="M154.307 293.818V160.202V158.281C154.307 155.248 130.989 152.72 102.173 152.72C73.3565 152.72 50.1266 155.248 50.1266 158.281V160.19V293.818H154.307Z" fill="#517BF2"/>
<path d="M54.3605 293.818C53.7665 265.672 57.6719 200.507 57.6719 200.507C54.7144 205.133 50.0887 216.937 50.0887 216.937V293.856L54.3605 293.818Z" fill="#496FDA"/>
<path d="M156.81 182.143C156.81 182.143 237.533 248.774 274.893 202.466" stroke="#FDC2BF" stroke-width="30.3328" stroke-linecap="round" stroke-linejoin="round"/>
<path d="M267.756 146.305C266.873 145.147 266.429 143.715 266.502 142.263C266.38 139.289 267.007 136.332 268.328 133.664C269.902 130.94 271.771 128.397 273.901 126.079C275.378 124.453 276.72 122.711 277.914 120.869C278.772 119.454 279.211 117.827 279.182 116.174C279.215 115.313 279.043 114.456 278.679 113.673C278.316 112.891 277.772 112.206 277.092 111.673C275.481 110.497 273.513 109.908 271.519 110.006C269.435 109.986 267.373 110.432 265.485 111.312C263.627 112.182 261.143 113.535 258.031 115.368C256.562 116.286 254.895 116.838 253.168 116.98C252.46 116.977 251.762 116.806 251.135 116.48C250.507 116.153 249.966 115.682 249.559 115.104C248.564 113.817 248.043 112.228 248.082 110.603C248.05 109.537 248.28 108.478 248.751 107.519C249.263 106.588 249.972 105.778 250.827 105.144C253.911 102.712 257.395 100.832 261.124 99.5873C264.896 98.2958 268.854 97.6295 272.842 97.6147C276.728 97.5586 280.583 98.3158 284.157 99.8374C287.267 101.137 289.964 103.254 291.96 105.964C293.804 108.508 294.781 111.576 294.746 114.715C294.771 117.07 294.267 119.401 293.269 121.536C292.366 123.481 291.188 125.286 289.772 126.898C288.416 128.417 286.59 130.269 284.296 132.455C282.231 134.289 280.299 136.267 278.513 138.373C277.246 139.897 276.405 141.727 276.075 143.679C275.872 144.835 275.282 145.887 274.403 146.666C273.534 147.379 272.435 147.755 271.31 147.722C270.648 147.774 269.983 147.673 269.367 147.427C268.751 147.181 268.2 146.797 267.756 146.305V146.305ZM265.276 168.004C263.693 166.305 262.812 164.072 262.812 161.752C262.812 159.433 263.693 157.2 265.276 155.501C266.082 154.688 267.047 154.049 268.112 153.624C269.176 153.198 270.317 152.996 271.463 153.029C272.594 152.997 273.72 153.2 274.769 153.626C275.817 154.051 276.765 154.69 277.552 155.501C279.136 157.2 280.016 159.433 280.016 161.752C280.016 164.072 279.136 166.305 277.552 168.004C276.765 168.815 275.817 169.454 274.769 169.879C273.72 170.305 272.594 170.508 271.463 170.476C270.317 170.509 269.176 170.307 268.112 169.881C267.047 169.456 266.082 168.817 265.276 168.004V168.004Z" fill="#2CC3D5"/>
<path d="M146.48 106.449C147.368 95.645 142.477 86.4255 135.555 85.8564C128.633 85.2874 122.302 93.5842 121.414 104.388C120.525 115.192 125.417 124.411 132.338 124.98C139.26 125.549 145.592 117.252 146.48 106.449Z" fill="#F66689"/>
<path d="M114.188 160.431C114.377 155.479 109.656 151.279 103.643 151.05C97.6305 150.821 92.6036 154.65 92.4151 159.602C92.2266 164.555 96.9478 168.755 102.96 168.984C108.973 169.213 114 165.384 114.188 160.431Z" fill="#FDC2BF"/>
<path d="M114.188 160.431C114.377 155.479 109.656 151.279 103.643 151.05C97.6305 150.821 92.6036 154.65 92.4151 159.602C92.2266 164.555 96.9478 168.755 102.96 168.984C108.973 169.213 114 165.384 114.188 160.431Z" stroke="white" stroke-width="1.63039" stroke-miterlimit="10"/>
<path d="M103.436 134.23H105.193C107.567 134.332 109.944 134.175 112.283 133.762L112.031 140.246L111.525 154.326C111.453 156.228 110.628 158.023 109.232 159.317C107.836 160.611 105.983 161.298 104.081 161.226H102.425C101.483 161.192 100.557 160.972 99.6994 160.579C98.8421 160.186 98.0708 159.628 97.4297 158.937C96.7887 158.245 96.2904 157.434 95.9635 156.549C95.6365 155.665 95.4874 154.724 95.5246 153.782L96.0555 140.031L96.3082 133.27C98.6428 133.845 101.033 134.167 103.436 134.23Z" fill="#FDC2BF"/>
<path d="M111.942 143.077L111.74 149.005C111.74 149.005 110.135 146.009 103.854 145.731C97.5721 145.453 95.7395 148.689 95.7395 148.689L96.0049 141.561L112.018 141.877L111.942 143.077Z" fill="#F4B1AF"/>
<path d="M72.4465 72.6295L71.0941 108.119C70.9301 112.485 71.6277 116.841 73.1472 120.937C74.6668 125.033 76.9784 128.79 79.9501 131.993C82.9218 135.196 86.4953 137.782 90.4666 139.604C94.4379 141.425 98.7291 142.447 103.095 142.61H104.852C109.222 142.779 113.582 142.085 117.684 140.568C121.785 139.051 125.547 136.741 128.755 133.768C131.963 130.796 134.554 127.221 136.379 123.247C138.205 119.273 139.229 114.979 139.393 110.609L140.746 75.1193C141.053 66.3142 137.858 57.7462 131.859 51.2929C125.861 44.8397 117.549 41.0274 108.745 40.6916L106.975 40.6284C102.607 40.461 98.2476 41.156 94.1475 42.6738C90.0474 44.1916 86.2867 46.5025 83.08 49.4744C79.8734 52.4462 77.2839 56.0208 75.4593 59.9939C73.6348 63.967 72.611 68.2606 72.4465 72.6295V72.6295Z" fill="#FDC2BF"/>
<path d="M79.8654 47.3394C86.1847 55.9211 87.9541 50.7266 93.9954 59.5357C95.373 91.6379 83.063 95.5559 83.063 95.5559L79.1576 108.334L75.8084 108.005L75.1132 127.153C75.1132 127.153 61.2992 109.989 60.9074 77.1035C60.6167 52.5718 72.6992 45.4942 79.8654 47.3394Z" fill="#2C2A46"/>
<path d="M79.0059 111.012L80.0423 92.8884C80.0423 92.8884 73.8367 89.9057 72.219 95.6942C70.6012 101.483 73.4955 109.47 79.0059 111.012Z" fill="#EFB8C2"/>
<path d="M86.1973 65.2482C86.1973 65.2482 100.416 80.9455 121.939 84.7876L116.454 79.8585C116.454 79.8585 131.153 86.734 152.386 87.0752C153.281 81.9927 152.945 76.7698 151.405 71.844C149.866 66.9183 147.169 62.4332 143.539 58.7646C143.539 58.7646 152.879 68.2942 156.569 75.1949C156.569 75.1949 154.699 44.8621 115.873 36.748C77.0469 28.634 71.8398 53.6207 70.9172 64.4267C69.9945 75.2328 86.1973 65.2482 86.1973 65.2482Z" fill="#2C2A46"/>
<path d="M75.3533 85.4573C75.3533 74.17 79.8363 63.3448 87.8164 55.3623C95.7966 47.3798 106.62 42.8936 117.908 42.8902C130.546 42.8902 141.138 50.1322 148.936 58.9034C141.681 45.7845 128.512 35.1807 112.46 35.1807C88.9525 35.1807 68.5537 57.2225 68.5537 80.6799L75.3533 85.4573Z" fill="#607B99"/>
<path d="M154.332 193.328L152.74 192.481C152.31 189.853 151.792 187.059 151.135 184.317C151.135 184.317 151.135 187.059 151.211 191.647L145.978 188.842C145.654 193.701 146.586 198.563 148.683 202.959C150.462 206.638 151.37 210.677 151.337 214.763C151.337 242.05 151.173 279.41 149.568 290.254C152.348 289.61 154.004 288.902 154.282 288.156V206.485C154.282 206.485 154.206 205.006 153.979 202.694L154.282 202.201L154.332 193.328Z" fill="#496FDA"/>
<path d="M143.653 174.914C168.273 177.113 158.705 193.252 185.954 204.463" stroke="#517BF2" stroke-width="37.916" stroke-linecap="round" stroke-linejoin="round"/>
<path d="M56.0541 175.394C56.0541 175.394 6.66223 228.287 25.6202 253.324C39.0678 271.094 89.0789 273.407 89.0789 273.407" stroke="#FDC2BF" stroke-width="30.3328" stroke-linecap="round" stroke-linejoin="round"/>
<path d="M56.0541 175.394C56.0541 175.394 38.9034 196.678 29.1085 217.304" stroke="#517BF2" stroke-width="37.916" stroke-linecap="round" stroke-linejoin="round"/>
<path d="M111.791 137.718C114.75 137.718 117.15 135.891 117.15 133.636C117.15 131.381 114.75 129.554 111.791 129.554C108.831 129.554 106.432 131.381 106.432 133.636C106.432 135.891 108.831 137.718 111.791 137.718Z" fill="#607B99"/>
<path d="M77.5021 106.741C77.5021 112.605 80.093 134.179 109.44 134.179" stroke="#607B99" stroke-width="2.52773" stroke-miterlimit="10"/>
<path d="M73.6346 118.146C80.5671 117.724 85.6535 108.611 84.9955 97.7911C84.3375 86.9709 78.1842 78.5412 71.2518 78.9627C64.3194 79.3843 59.2329 88.4976 59.8909 99.3177C60.5489 110.138 66.7022 118.568 73.6346 118.146Z" fill="#F66689"/>
<rect opacity="0.3" x="171.521" y="82.3208" width="47.6359" height="33.3451" rx="2.72205" fill="#87DDE8"/>
<rect opacity="0.3" x="174.243" y="85.7236" width="47.6359" height="33.3451" rx="2.72205" fill="#87DDE8"/>
<rect x="169.48" y="79.5991" width="47.6359" height="33.3451" rx="2.72205" fill="#F8FBFB"/>
<path d="M169.48 82.3212C169.48 80.8178 170.698 79.5991 172.202 79.5991H214.394C215.897 79.5991 217.116 80.8178 217.116 82.3212V87.0848H169.48V82.3212Z" fill="#343C4C"/>
<circle cx="174.584" cy="83.3416" r="1.02077" fill="#FF5A60"/>
<circle cx="177.306" cy="83.3416" r="1.02077" fill="#F9B42F"/>
<circle cx="180.028" cy="83.3416" r="1.02077" fill="#4DCB7B"/>
<path d="M191.621 94.5205V98.3712" stroke="#DEE8EC" stroke-width="0.962677"/>
<path d="M191.621 100.778V105.592" stroke="#DEE8EC" stroke-width="0.962677"/>
<rect x="184.883" y="90.1885" width="14.4402" height="4.81339" rx="1.15521" fill="#E7EEF1"/>
<rect x="184.883" y="96.9277" width="14.4402" height="4.81339" rx="1.15521" fill="#E7EEF1"/>
<rect x="184.883" y="103.666" width="14.4402" height="4.81339" rx="1.15521" fill="#E7EEF1"/>
<rect x="172.368" y="103.667" width="10.5894" height="4.81339" rx="1.15521" fill="#E7EEF1"/>
<path d="M177.662 95.965V92.1143H186.326" stroke="#DEE8EC" stroke-width="0.962677" stroke-linejoin="round"/>
<rect x="172.368" y="95.0024" width="10.5894" height="6.73874" rx="1.15521" fill="#E7EEF1"/>
<path d="M212.8 92.1138H203.173C202.642 92.1138 202.211 92.5448 202.211 93.0764V106.554C202.211 107.086 202.642 107.517 203.173 107.517H212.8C213.332 107.517 213.763 107.086 213.763 106.554V93.0764C213.763 92.5448 213.332 92.1138 212.8 92.1138Z" fill="white"/>
<path d="M202.211 92.114C202.211 91.5824 202.642 91.1514 203.173 91.1514H212.8C213.332 91.1514 213.763 91.5824 213.763 92.114V93.0767H202.211V92.114Z" fill="#343C4C"/>
<path d="M202.211 104.629H213.763" stroke="#F5F8F9" stroke-width="0.192535"/>
<path d="M206.061 101.541C206.061 101.12 206.403 100.778 206.824 100.778H212.038C212.459 100.778 212.8 101.12 212.8 101.541V102.577C212.8 102.647 212.743 102.704 212.673 102.704H206.824C206.403 102.704 206.061 102.362 206.061 101.941V101.541Z" fill="#E7EEF1"/>
<path d="M209.912 98.6524C209.912 98.2314 209.571 97.8901 209.15 97.8901H203.936C203.515 97.8901 203.173 98.2314 203.173 98.6524V99.6885C203.173 99.7586 203.23 99.8155 203.301 99.8155H209.15C209.571 99.8155 209.912 99.4742 209.912 99.0533V98.6524Z" fill="#2CC3D5"/>
<path d="M43 146.382L113.555 288.203L220.208 289L244 219.285L199.698 142L43 146.382Z" fill="url(#paint0_linear)"/>
<path d="M122.748 293.831H44.9952C44.6332 293.831 44.286 293.687 44.03 293.431C43.7741 293.175 43.6302 292.828 43.6302 292.466V291.038C43.6302 290.056 44.0204 289.114 44.7149 288.419C45.4093 287.725 46.3512 287.335 47.3334 287.335H122.748V293.831Z" fill="#D2DFE6"/>
<path d="M134.047 215.749L111.02 293.591C111.012 293.618 111.01 293.646 111.015 293.674C111.02 293.702 111.032 293.728 111.049 293.75C111.067 293.772 111.089 293.79 111.115 293.802C111.14 293.814 111.168 293.819 111.197 293.818H213.191C214.888 293.82 216.542 293.286 217.918 292.292C219.293 291.298 220.319 289.894 220.85 288.282L243.271 220.577C243.673 219.363 243.781 218.071 243.586 216.807C243.392 215.543 242.899 214.343 242.15 213.306C241.401 212.27 240.417 211.426 239.278 210.844C238.139 210.262 236.878 209.96 235.599 209.96H141.782C140.041 209.963 138.348 210.527 136.954 211.571C135.56 212.614 134.54 214.079 134.047 215.749Z" fill="#F5F8F9"/>
<path d="M193.512 254.411C193.676 253.814 193.712 253.189 193.616 252.578C193.521 251.966 193.297 251.382 192.959 250.863C192.621 250.345 192.176 249.904 191.655 249.57C191.134 249.236 190.548 249.016 189.936 248.926C188.689 248.661 187.418 248.53 186.144 248.534C183.911 248.484 181.694 248.937 179.66 249.861C178.206 250.666 176.925 251.751 175.891 253.052C174.856 254.353 174.088 255.846 173.632 257.444C172.962 259.454 172.368 262.26 173.632 264.282C174.592 265.9 177.272 266.696 179.547 266.81L178.889 268.604C178.826 268.721 178.795 268.852 178.8 268.984C178.804 269.117 178.844 269.246 178.915 269.358C178.986 269.47 179.085 269.561 179.203 269.622C179.32 269.682 179.452 269.711 179.584 269.704H179.686C179.937 269.673 180.179 269.587 180.393 269.451C181.569 268.68 183.123 267.656 184.665 266.582L185.348 266.114C186.568 265.313 187.729 264.426 188.823 263.46C191.306 261.017 192.948 257.848 193.512 254.411Z" fill="#DEE8EC"/>
<path fill-rule="evenodd" clip-rule="evenodd" d="M36.2734 125.126C37.0982 124.985 37.8627 124.603 38.4703 124.028C39.0779 123.453 39.5013 122.71 39.687 121.894C39.8727 121.079 39.8123 120.226 39.5135 119.445C39.2146 118.663 38.6908 117.988 38.0081 117.504C37.3255 117.02 36.5148 116.75 35.6784 116.727C34.8421 116.704 34.0177 116.93 33.3096 117.375C32.6015 117.821 32.0413 118.466 31.7001 119.23C31.3588 119.994 31.2517 120.842 31.3924 121.667C31.581 122.773 32.2012 123.758 33.1165 124.407C34.0319 125.056 35.1675 125.314 36.2734 125.126ZM35.0883 118.176C35.6381 118.082 36.2034 118.153 36.7127 118.381C37.2219 118.608 37.6523 118.982 37.9493 119.454C38.2463 119.926 38.3967 120.475 38.3814 121.033C38.3661 121.591 38.1858 122.131 37.8633 122.586C37.5408 123.041 37.0906 123.39 36.5696 123.59C36.0487 123.789 35.4803 123.829 34.9365 123.705C34.3926 123.582 33.8977 123.299 33.5142 122.894C33.1308 122.489 32.8761 121.979 32.7824 121.43C32.6587 120.693 32.8321 119.938 33.2646 119.329C33.6971 118.72 34.3534 118.308 35.0895 118.183L35.0883 118.176ZM44.2381 129.786L42.6597 131.875L41.8563 131.358C41.7786 131.307 41.6918 131.272 41.6006 131.255C41.5095 131.238 41.4159 131.239 41.3252 131.258C41.2345 131.277 41.1484 131.314 41.0719 131.367C40.9955 131.419 40.93 131.486 40.8794 131.564C40.8288 131.641 40.794 131.728 40.7769 131.819C40.7599 131.91 40.7609 132.004 40.78 132.095C40.7992 132.185 40.836 132.271 40.8883 132.348C40.9407 132.424 41.0077 132.49 41.0853 132.54L42.4297 133.42C42.5786 133.517 42.7586 133.554 42.9337 133.523C43.1105 133.493 43.2693 133.397 43.3777 133.254L45.3661 130.634C45.4786 130.484 45.5271 130.296 45.5008 130.111C45.4746 129.926 45.3758 129.758 45.2262 129.646C45.0767 129.533 44.8885 129.485 44.7032 129.511C44.5179 129.537 44.3506 129.636 44.2381 129.786ZM40.9261 126.721C41.3659 126.5 41.8363 126.347 42.3216 126.265C43.184 126.119 44.0696 126.202 44.8896 126.506C45.7097 126.81 46.4352 127.325 46.9934 127.998C47.5516 128.671 47.9228 129.48 48.0697 130.342C48.2167 131.204 48.1341 132.09 47.8304 132.91C47.5266 133.73 47.0124 134.456 46.3394 135.015C45.6663 135.573 44.8582 135.945 43.996 136.092C43.1339 136.24 42.2482 136.158 41.4278 135.855C40.6074 135.551 39.8812 135.037 39.3222 134.365L32.6399 135.504C32.2882 135.563 31.9276 135.48 31.637 135.274C31.3463 135.067 31.1495 134.754 31.0895 134.403L30.8922 133.245C30.625 131.679 30.9912 130.07 31.9101 128.773C32.8291 127.476 34.2255 126.598 35.7923 126.331L37.1232 126.104C38.4242 125.885 39.761 126.102 40.9261 126.721ZM38.8043 128.758C38.816 128.734 38.8276 128.711 38.8408 128.689C38.8967 128.598 38.9531 128.509 39.0159 128.416L39.1451 128.23L39.3117 128.012L39.5224 127.779L39.6118 127.675C38.8899 127.424 38.1163 127.361 37.3631 127.49L36.0322 127.717C34.8341 127.921 33.7662 128.593 33.0635 129.584C32.3608 130.576 32.0808 131.806 32.2851 133.004L32.4711 134.095L38.5246 133.063C38.469 132.926 38.4198 132.784 38.3775 132.641L38.3615 132.547C38.3139 132.377 38.2749 132.205 38.2448 132.031C38.2132 131.846 38.1922 131.66 38.1819 131.473C38.1797 131.44 38.1801 131.421 38.1806 131.395C38.181 131.369 38.1817 131.336 38.18 131.273C38.1766 131.149 38.176 130.998 38.1798 130.916C38.182 130.866 38.1867 130.825 38.1919 130.778C38.1954 130.746 38.1992 130.712 38.2026 130.672C38.2091 130.596 38.2201 130.522 38.2307 130.449C38.2338 130.428 38.2369 130.407 38.2398 130.387C38.2498 130.316 38.2652 130.241 38.2788 130.174C38.2829 130.154 38.2868 130.135 38.2904 130.117C38.3051 130.043 38.3199 129.988 38.3442 129.898L38.3475 129.886C38.3738 129.788 38.4184 129.63 38.4327 129.589C38.4416 129.563 38.4521 129.538 38.4623 129.514C38.4685 129.499 38.4747 129.484 38.4804 129.47C38.5623 129.241 38.662 129.02 38.7786 128.807C38.7877 128.791 38.796 128.774 38.8043 128.758ZM41.7631 134.474C42.3931 134.742 43.0867 134.823 43.7616 134.709L43.7206 134.741C44.2402 134.653 44.7338 134.451 45.1663 134.149C45.5987 133.848 45.9592 133.455 46.222 132.998C46.4849 132.541 46.6436 132.032 46.6867 131.507C46.7299 130.982 46.6565 130.453 46.4717 129.96C46.287 129.466 45.9955 129.019 45.618 128.651C45.2406 128.284 44.7866 128.004 44.2884 127.832C43.7902 127.66 43.2601 127.6 42.7361 127.656C42.2121 127.713 41.7071 127.885 41.2572 128.159C41.1955 128.195 41.1398 128.234 41.0828 128.274C41.0735 128.281 41.0642 128.287 41.0549 128.294L41.0098 128.323L40.8364 128.46L40.7584 128.527L40.6221 128.65L40.4218 128.86L40.3872 128.908C40.3264 128.977 40.2694 129.049 40.2165 129.124L40.1848 129.168C40.1271 129.25 40.0742 129.337 40.0212 129.425L40.0212 129.425C39.9083 129.622 39.8144 129.83 39.7407 130.045C39.708 130.147 39.6789 130.249 39.6537 130.353L39.6585 130.381C39.6083 130.597 39.5788 130.818 39.5706 131.04C39.5763 131.064 39.5805 131.088 39.583 131.113C39.5831 131.139 39.5821 131.165 39.5812 131.191C39.5791 131.25 39.577 131.308 39.5868 131.366L39.6023 131.456L39.658 131.783L39.7214 132.155L39.7267 132.186C39.8321 132.547 39.9942 132.888 40.2069 133.198C40.593 133.764 41.1331 134.206 41.7631 134.474Z" fill="#4DCB7B"/>
<path d="M182.097 47.9071H182.014C181.868 47.8908 181.73 47.8324 181.617 47.7391C181.098 47.2967 180.424 46.7103 179.764 46.1068L179.477 45.8497C178.939 45.3941 178.453 44.8825 178.025 44.3237C177.102 43.0173 176.784 41.0799 177.172 39.139C177.32 38.3354 177.715 37.5968 178.302 37.0237C178.889 36.4506 179.64 36.0709 180.452 35.9363V35.9363C181.202 35.787 181.965 35.7123 182.73 35.7134C183.767 35.7134 185.18 35.8471 186.221 36.4849C187.534 37.2908 188.222 38.8441 188.156 40.8604C188.122 42.016 187.842 43.6414 186.712 44.8107C185.827 45.7228 184.168 46.1823 182.84 46.2646V47.1733C182.838 47.3679 182.759 47.554 182.62 47.6914C182.481 47.8287 182.293 47.9062 182.097 47.9071V47.9071ZM180.663 36.9341C180.049 37.0283 179.481 37.3103 179.037 37.7407C178.594 38.1711 178.297 38.7283 178.188 39.3345C177.842 41.0044 178.112 42.6469 178.879 43.7305C179.263 44.2324 179.7 44.6922 180.182 45.1021L180.473 45.3696C180.929 45.7811 181.392 46.1926 181.803 46.5355V45.8497C181.804 45.6835 181.871 45.5244 181.99 45.4069C182.108 45.2894 182.268 45.223 182.436 45.2221C183.608 45.2221 185.239 44.8175 185.965 44.07C186.867 43.1373 187.092 41.7759 187.123 40.8021C187.154 39.8282 187.002 38.1754 185.671 37.3593C185.021 36.9616 183.978 36.7421 182.726 36.7421C182.03 36.7408 181.335 36.8086 180.652 36.9444L180.663 36.9341Z" fill="#2CC3D5"/>
<g opacity="0.6">
<path opacity="0.6" d="M186.902 42.3452C186.902 42.3452 186.902 42.3726 186.902 42.3829C187.038 41.8778 187.114 41.3589 187.13 40.8364C187.112 41.3463 187.035 41.8525 186.902 42.3452Z" fill="#2CC3D5"/>
<path opacity="0.6" d="M184.106 36.8452C184.261 36.8692 184.41 36.9001 184.551 36.931C184.406 36.8967 184.254 36.8658 184.092 36.8418L184.106 36.8452Z" fill="#2CC3D5"/>
<path opacity="0.6" d="M186.708 38.5664C186.637 38.4083 186.551 38.2569 186.453 38.1138C186.551 38.2569 186.637 38.4083 186.708 38.5664Z" fill="#2CC3D5"/>
<path opacity="0.6" d="M187.126 40.641C187.136 39.9279 186.994 39.2209 186.708 38.5664C186.994 39.2209 187.136 39.9279 187.126 40.641V40.641Z" fill="#2CC3D5"/>
<path opacity="0.6" d="M185.288 37.1673C185.205 37.1296 185.118 37.0987 185.028 37.0679C185.118 37.0987 185.205 37.1296 185.288 37.1673Z" fill="#2CC3D5"/>
<path opacity="0.6" d="M194.541 36.1112C194.39 35.3084 193.995 34.5708 193.408 33.998C192.822 33.4253 192.072 33.0449 191.261 32.9084C190.509 32.7593 189.745 32.6846 188.979 32.6856C187.942 32.6856 186.529 32.8193 185.488 33.4605C184.653 33.9921 184.049 34.8159 183.798 35.7683C184.648 35.8275 185.474 36.0723 186.217 36.4849C187.531 37.2908 188.219 38.8441 188.153 40.8604C188.138 41.6258 188.001 42.384 187.745 43.1064C188.111 43.1815 188.482 43.2319 188.855 43.2573V44.1352C188.855 44.3319 188.933 44.5207 189.073 44.6601C189.213 44.7996 189.403 44.8783 189.601 44.8793H189.667C189.821 44.8652 189.967 44.8041 190.085 44.7044C190.6 44.2655 191.274 43.6757 191.935 43.0756L192.221 42.815C192.759 42.3602 193.244 41.8485 193.67 41.289C194.606 39.9894 194.928 38.052 194.541 36.1112Z" fill="#2CC3D5"/>
<path opacity="0.6" d="M184.932 37.0369C184.828 37.0026 184.717 36.9718 184.603 36.9443C184.717 36.9718 184.828 37.0026 184.932 37.0369Z" fill="#2CC3D5"/>
<path opacity="0.6" d="M185.671 37.3594C185.576 37.3025 185.478 37.251 185.377 37.2051C185.478 37.251 185.576 37.3025 185.671 37.3594V37.3594Z" fill="#2CC3D5"/>
</g>
<path d="M234.563 152.125C234.343 151.908 234.078 151.742 233.787 151.638C233.496 151.534 233.185 151.495 232.878 151.523L230.698 151.722C231.054 149.513 230.884 148.123 230.179 147.385C229.966 147.164 229.699 147.002 229.405 146.913C229.111 146.825 228.799 146.813 228.499 146.879C228.068 146.938 227.674 147.152 227.39 147.481C227.106 147.81 226.952 148.231 226.957 148.665C226.583 151.326 225.671 152.957 225.065 153.789C224.966 153.614 224.818 153.471 224.639 153.378C224.461 153.285 224.259 153.245 224.059 153.264L220.178 153.618C219.902 153.644 219.648 153.778 219.471 153.991C219.294 154.204 219.209 154.479 219.234 154.755L219.868 161.72C219.881 161.857 219.92 161.99 219.984 162.111C220.048 162.232 220.135 162.34 220.24 162.428C220.345 162.516 220.467 162.582 220.598 162.622C220.729 162.663 220.866 162.678 221.003 162.665L224.88 162.312C225.106 162.292 225.319 162.199 225.488 162.046C225.656 161.894 225.771 161.691 225.814 161.468L225.95 161.533C226.778 161.933 227.699 162.099 228.614 162.015L232.671 161.645C233.228 161.594 233.748 161.346 234.137 160.945C234.526 160.545 234.759 160.018 234.794 159.46L235.203 153.8C235.225 153.491 235.179 153.181 235.068 152.892C234.958 152.602 234.786 152.341 234.563 152.125V152.125ZM224.591 161.105L221.075 161.426L220.472 154.812L223.985 154.492L224.591 161.105ZM233.667 153.693L233.258 159.35C233.245 159.543 233.164 159.725 233.029 159.863C232.894 160 232.714 160.085 232.522 160.102L228.473 160.471C227.834 160.528 227.191 160.412 226.611 160.135L225.692 159.691L225.333 155.75C225.912 155.34 227.877 153.218 228.487 148.816C228.493 148.771 228.495 148.725 228.493 148.68C228.493 148.433 228.642 148.41 228.742 148.395C228.973 148.358 229.031 148.418 229.055 148.447C229.079 148.475 229.649 149.182 229.014 152.326C228.97 152.447 228.958 152.577 228.978 152.704C228.999 152.832 229.051 152.952 229.13 153.053C229.209 153.155 229.312 153.235 229.431 153.286C229.549 153.337 229.678 153.357 229.806 153.345L233.017 153.052C233.103 153.047 233.189 153.06 233.269 153.09C233.35 153.121 233.423 153.167 233.485 153.228C233.546 153.288 233.594 153.361 233.625 153.441C233.657 153.521 233.671 153.607 233.667 153.693V153.693Z" fill="#FF7B80"/>
<defs>
<linearGradient id="paint0_linear" x1="134.886" y1="174.268" x2="184.083" y2="290.058" gradientUnits="userSpaceOnUse">
<stop stop-color="#DAF2F4" stop-opacity="0"/>
<stop offset="1" stop-color="#DAF2F4"/>
</linearGradient>
</defs>
</svg>
