<svg width="370" height="285" viewBox="0 0 370 285" fill="none" xmlns="http://www.w3.org/2000/svg">
<path opacity="0.1" d="M276.864 47.3169L276.864 79.8724C276.864 82.6918 279.15 84.9773 281.969 84.9773L308.367 84.9773C311.187 84.9773 313.472 82.6918 313.472 79.8724L313.472 47.3169C313.472 44.4976 311.187 42.212 308.367 42.212L281.969 42.212C279.15 42.212 276.864 44.4976 276.864 47.3169Z" fill="#2CC3D5"/>
<path opacity="0.15" d="M273.347 43.7991L273.347 76.3546C273.347 79.1739 275.633 81.4595 278.452 81.4595L304.85 81.4595C307.669 81.4595 309.955 79.1739 309.955 76.3546L309.955 43.7991C309.955 40.9797 307.669 38.6942 304.85 38.6942L278.452 38.6942C275.633 38.6942 273.347 40.9797 273.347 43.7991Z" fill="#2CC3D5"/>
<path opacity="0.3" d="M33.3925 143.219C32.2496 143.219 31.1322 142.88 30.1819 142.245C29.2315 141.61 28.4908 140.707 28.0534 139.651C27.616 138.595 27.5016 137.433 27.7246 136.312C27.9476 135.191 28.498 134.162 29.3062 133.354C30.1144 132.545 31.1441 131.995 32.2651 131.772C33.3861 131.549 34.5481 131.663 35.6041 132.101C36.66 132.538 37.5626 133.279 38.1976 134.229C38.8326 135.18 39.1715 136.297 39.1715 137.44C39.1702 138.972 38.5609 140.441 37.4774 141.525C36.394 142.608 34.9248 143.218 33.3925 143.219ZM33.3925 132.666C32.4483 132.666 31.5253 132.946 30.7403 133.47C29.9552 133.995 29.3433 134.741 28.982 135.613C28.6206 136.485 28.5261 137.445 28.7103 138.371C28.8945 139.297 29.3492 140.148 30.0168 140.816C30.6845 141.483 31.5351 141.938 32.4612 142.122C33.3872 142.306 34.3471 142.212 35.2195 141.85C36.0918 141.489 36.8374 140.877 37.3619 140.092C37.8865 139.307 38.1665 138.384 38.1665 137.44C38.1652 136.174 37.6618 134.961 36.7668 134.066C35.8718 133.171 34.6583 132.667 33.3925 132.666Z" fill="#E7EEF1"/>
<path d="M204.753 284.428C203.61 284.428 202.493 284.089 201.542 283.454C200.592 282.819 199.851 281.916 199.414 280.86C198.976 279.804 198.862 278.642 199.085 277.521C199.308 276.4 199.858 275.37 200.667 274.562C201.475 273.754 202.504 273.204 203.625 272.981C204.746 272.758 205.908 272.872 206.964 273.31C208.02 273.747 208.923 274.488 209.558 275.438C210.193 276.388 210.532 277.506 210.532 278.649C210.531 280.181 209.921 281.65 208.838 282.734C207.754 283.817 206.285 284.426 204.753 284.428ZM204.753 273.875C203.809 273.875 202.886 274.155 202.101 274.679C201.316 275.204 200.704 275.949 200.342 276.822C199.981 277.694 199.886 278.654 200.071 279.58C200.255 280.506 200.71 281.357 201.377 282.024C202.045 282.692 202.895 283.147 203.822 283.331C204.748 283.515 205.707 283.421 206.58 283.059C207.452 282.698 208.198 282.086 208.722 281.301C209.247 280.516 209.527 279.593 209.527 278.649C209.526 277.383 209.022 276.169 208.127 275.274C207.232 274.379 206.019 273.876 204.753 273.875Z" fill="#B9CBD3"/>
<path d="M366.062 246.236C368.144 246.236 369.831 244.549 369.831 242.467C369.831 240.386 368.144 238.698 366.062 238.698C363.981 238.698 362.293 240.386 362.293 242.467C362.293 244.549 363.981 246.236 366.062 246.236Z" fill="#D2DFE6"/>
<path opacity="0.3" d="M117.816 120.605C119.343 120.605 120.58 119.368 120.58 117.842C120.58 116.315 119.343 115.078 117.816 115.078C116.29 115.078 115.052 116.315 115.052 117.842C115.052 119.368 116.29 120.605 117.816 120.605Z" fill="#E7EEF1"/>
<path d="M118.923 260.41C118.518 260.41 118.122 260.284 117.792 260.047C117.462 259.811 117.214 259.478 117.084 259.093L115.149 253.229C114.989 252.74 115.029 252.207 115.26 251.746C115.373 251.519 115.531 251.317 115.723 251.152C115.916 250.986 116.139 250.86 116.381 250.782L122.25 248.847C122.491 248.767 122.746 248.735 122.999 248.754C123.253 248.772 123.5 248.841 123.727 248.955C123.954 249.07 124.156 249.228 124.322 249.42C124.487 249.613 124.613 249.837 124.692 250.078L126.632 255.927C126.714 256.169 126.746 256.424 126.729 256.678C126.711 256.933 126.643 257.181 126.528 257.408C126.413 257.636 126.255 257.839 126.061 258.005C125.868 258.171 125.643 258.296 125.401 258.375L119.536 260.309C119.339 260.375 119.132 260.409 118.923 260.41ZM122.853 249.736C122.754 249.736 122.655 249.753 122.562 249.787L116.697 251.721C116.581 251.759 116.473 251.819 116.379 251.899C116.286 251.978 116.21 252.076 116.155 252.185C116.1 252.295 116.067 252.414 116.058 252.536C116.049 252.658 116.065 252.781 116.104 252.897L118.039 258.762C118.117 258.996 118.284 259.189 118.505 259.3C118.725 259.412 118.98 259.431 119.215 259.355L125.084 257.42C125.2 257.383 125.308 257.323 125.4 257.243C125.492 257.164 125.568 257.067 125.622 256.958C125.733 256.736 125.753 256.48 125.677 256.244L123.738 250.38C123.677 250.193 123.559 250.03 123.4 249.914C123.241 249.799 123.05 249.736 122.853 249.736Z" fill="#B9CBD3"/>
<path opacity="0.3" d="M208.876 63.9225C208.574 63.9232 208.276 63.8508 208.007 63.7115C207.78 63.6005 207.578 63.4456 207.411 63.2558C207.245 63.0661 207.118 62.8452 207.037 62.6059L205.102 56.7415C205.022 56.5 204.991 56.245 205.009 55.9912C205.028 55.7374 205.096 55.4897 205.21 55.2624C205.325 55.0351 205.483 54.8325 205.676 54.6664C205.868 54.5003 206.092 54.3738 206.334 54.2942L212.203 52.3595C212.69 52.1991 213.221 52.2387 213.679 52.4696C214.137 52.7004 214.485 53.1037 214.645 53.5907L216.585 59.44C216.667 59.6815 216.699 59.9367 216.682 60.191C216.664 60.4452 216.596 60.6933 216.481 60.921C216.366 61.1487 216.208 61.3513 216.014 61.5172C215.821 61.6831 215.596 61.8089 215.354 61.8873L209.489 63.822C209.292 63.8877 209.085 63.9216 208.876 63.9225ZM212.806 53.249C212.707 53.2489 212.608 53.2659 212.515 53.2992L206.65 55.2339C206.416 55.312 206.223 55.4794 206.111 55.6997C206 55.92 205.981 56.1752 206.057 56.4098L207.992 62.2743C208.07 62.5083 208.237 62.7019 208.458 62.813C208.678 62.9241 208.933 62.9436 209.168 62.8672L215.037 60.9325C215.271 60.8545 215.465 60.687 215.576 60.4667C215.687 60.2465 215.707 59.9912 215.63 59.7566L213.691 53.8922C213.63 53.7053 213.512 53.5423 213.353 53.4268C213.194 53.3112 213.003 53.249 212.806 53.249Z" fill="#E7EEF1"/>
<path opacity="0.3" d="M180.622 232.072C180.436 232.068 180.252 232.027 180.081 231.951C179.91 231.876 179.756 231.768 179.627 231.633C179.498 231.498 179.397 231.339 179.33 231.165C179.263 230.991 179.231 230.805 179.236 230.618L179.314 228.19C176.265 227.962 172.343 226.777 170.355 224.57C167.89 221.827 167.378 218.094 167.392 215.464C167.4 210.866 169.053 207.383 172.054 205.663C174.449 204.281 177.721 204.082 180.041 204.161C181.794 204.215 183.537 204.446 185.244 204.849C189.149 205.795 191.744 208.522 192.37 212.32C193.104 216.796 192.237 221.221 190.063 224.131C189.046 225.39 187.897 226.535 186.635 227.548L185.941 228.14C184.371 229.513 182.764 230.818 181.537 231.793C181.308 231.971 181.031 232.076 180.741 232.094L180.622 232.072ZM180 205.893C177.045 205.797 174.542 206.244 172.95 207.162C169.674 209.047 169.175 213.155 169.171 215.441C169.167 217.728 169.597 221.062 171.687 223.389C173.392 225.282 177.165 226.363 180.011 226.459C180.162 226.463 180.311 226.496 180.449 226.558C180.587 226.619 180.712 226.708 180.815 226.818C180.918 226.929 180.998 227.058 181.051 227.2C181.103 227.342 181.127 227.492 181.121 227.643L181.042 229.901C182.148 229.002 183.486 227.908 184.792 226.769L185.493 226.165C186.655 225.238 187.717 224.192 188.662 223.044C190.571 220.513 191.311 216.59 190.648 212.573C190.135 209.455 188.078 207.306 184.848 206.522C183.257 206.153 181.634 205.944 180.001 205.898L180 205.893Z" fill="#E7EEF1"/>
<path d="M347.469 131.661C357.877 131.661 366.314 123.224 366.314 112.817C366.314 102.409 357.877 93.9719 347.469 93.9719C337.062 93.9719 328.625 102.409 328.625 112.817C328.625 123.224 337.062 131.661 347.469 131.661Z" fill="#2CC3D5"/>
<path opacity="0.5" d="M358.299 107.655C358.116 106.663 357.632 105.751 356.913 105.043C356.194 104.335 355.274 103.867 354.278 103.7C353.339 103.512 352.382 103.418 351.424 103.419C350.158 103.419 348.379 103.585 347.092 104.379C346.034 105.066 345.282 106.136 344.992 107.364C345.997 107.449 346.972 107.748 347.851 108.243C349.459 109.248 350.298 111.168 350.223 113.675C350.202 114.58 350.05 115.478 349.771 116.339C350.323 116.459 350.884 116.535 351.449 116.565V117.902C351.449 118.11 351.532 118.309 351.679 118.456C351.826 118.603 352.025 118.686 352.233 118.686H352.303C352.463 118.671 352.614 118.608 352.736 118.505C353.384 117.947 354.243 117.208 355.072 116.429L355.434 116.093C356.107 115.522 356.715 114.88 357.248 114.178C358.389 112.515 358.781 110.087 358.299 107.655Z" fill="white"/>
<path d="M347.846 108.243C346.559 107.444 344.78 107.279 343.514 107.279C342.555 107.278 341.599 107.372 340.66 107.56C339.664 107.729 338.745 108.199 338.026 108.907C337.307 109.615 336.823 110.527 336.639 111.52C336.137 113.952 336.554 116.379 337.695 118.007C338.228 118.711 338.836 119.355 339.509 119.927L339.871 120.264C340.7 121.033 341.554 121.771 342.212 122.339C342.331 122.438 342.476 122.499 342.629 122.515H342.715C342.921 122.514 343.118 122.431 343.264 122.285C343.41 122.14 343.492 121.942 343.494 121.736V120.415C345.162 120.344 347.313 119.771 348.439 118.6C349.831 117.148 350.177 115.113 350.223 113.666C350.293 111.168 349.454 109.238 347.846 108.243Z" fill="white"/>
<path opacity="0.3" d="M304.355 171.979C304.054 171.977 303.756 171.907 303.486 171.773C303.027 171.54 302.678 171.136 302.516 170.647L300.581 164.783C300.501 164.541 300.47 164.286 300.489 164.031C300.508 163.777 300.576 163.53 300.691 163.302C300.806 163.075 300.965 162.872 301.158 162.706C301.351 162.54 301.575 162.414 301.818 162.335L307.682 160.401C308.17 160.241 308.701 160.282 309.159 160.512C309.618 160.743 309.966 161.145 310.129 161.632L312.064 167.501C312.144 167.743 312.175 167.997 312.156 168.251C312.137 168.504 312.068 168.752 311.954 168.979C311.84 169.206 311.681 169.409 311.488 169.575C311.295 169.74 311.07 169.866 310.828 169.944L304.963 171.878C304.767 171.944 304.562 171.978 304.355 171.979ZM308.29 161.305C308.191 161.307 308.093 161.324 307.999 161.355L302.129 163.29C301.895 163.368 301.702 163.536 301.59 163.756C301.479 163.976 301.46 164.231 301.536 164.466L303.471 170.33C303.549 170.566 303.717 170.761 303.938 170.873C304.047 170.928 304.166 170.961 304.287 170.97C304.409 170.979 304.531 170.963 304.647 170.923L310.516 168.989C310.632 168.952 310.74 168.892 310.832 168.812C310.924 168.733 311 168.636 311.054 168.526C311.11 168.417 311.144 168.298 311.153 168.175C311.163 168.053 311.148 167.93 311.109 167.813L309.175 161.948C309.095 161.714 308.927 161.519 308.707 161.406C308.578 161.341 308.435 161.306 308.29 161.305Z" fill="#E7EEF1"/>
<path d="M162.958 28.4729C170.82 28.4729 177.194 22.099 177.194 14.2365C177.194 6.37388 170.82 0 162.958 0C155.095 0 148.721 6.37388 148.721 14.2365C148.721 22.099 155.095 28.4729 162.958 28.4729Z" fill="#517BF2"/>
<path opacity="0.5" d="M159.857 17.6941C160.79 17.6941 161.546 16.9381 161.546 16.0056C161.546 15.0731 160.79 14.3171 159.857 14.3171C158.925 14.3171 158.169 15.0731 158.169 16.0056C158.169 16.9381 158.925 17.6941 159.857 17.6941Z" fill="white"/>
<path opacity="0.5" d="M160.043 17.7743H159.671C159.026 17.7743 158.406 18.0304 157.949 18.4864C157.493 18.9424 157.235 19.561 157.234 20.2065V21.2116C157.228 21.304 157.242 21.3965 157.274 21.4835C157.305 21.5705 157.354 21.6502 157.418 21.7175C157.481 21.7848 157.558 21.8384 157.643 21.875C157.728 21.9115 157.82 21.9303 157.912 21.9302H161.827C161.916 21.9308 162.005 21.9137 162.087 21.8799C162.17 21.846 162.245 21.7961 162.308 21.733C162.371 21.6698 162.421 21.5948 162.455 21.5122C162.489 21.4296 162.506 21.341 162.505 21.2518V20.2467C162.51 19.9216 162.45 19.5988 162.328 19.2974C162.206 18.9959 162.025 18.7219 161.795 18.4915C161.566 18.2611 161.293 18.079 160.992 17.9558C160.691 17.8326 160.368 17.7709 160.043 17.7743Z" fill="white"/>
<path d="M168.546 9.36739C168.419 8.70737 168.092 8.10246 167.609 7.63491C167.126 7.16737 166.511 6.85988 165.847 6.75427C165.223 6.62951 164.589 6.56722 163.953 6.56834C162.955 6.52724 161.964 6.74723 161.078 7.20654C160.008 7.86987 159.45 9.1513 159.5 10.8197C159.484 12.0197 159.906 13.1845 160.686 14.0961C161.43 14.87 162.847 15.2519 163.953 15.3022V16.1565C163.953 16.2977 164.009 16.4332 164.109 16.5331C164.208 16.633 164.344 16.6891 164.485 16.6891H164.535C164.645 16.6782 164.748 16.6344 164.832 16.5635C165.264 16.1916 165.837 15.7042 166.38 15.1916L166.621 14.9655C167.079 14.5889 167.494 14.1625 167.857 13.6941C168.651 12.4001 168.898 10.8439 168.546 9.36739Z" fill="white"/>
<path d="M86.1573 185.933C96.5649 185.933 105.002 177.496 105.002 167.089C105.002 156.681 96.5649 148.244 86.1573 148.244C75.7498 148.244 67.3127 156.681 67.3127 167.089C67.3127 177.496 75.7498 185.933 86.1573 185.933Z" fill="#FF7B80"/>
<path opacity="0.5" d="M85.6097 165.586C86.379 165.586 87.131 165.358 87.7706 164.931C88.4103 164.503 88.9088 163.896 89.2032 163.185C89.4976 162.474 89.5746 161.692 89.4245 160.938C89.2745 160.183 88.904 159.49 88.3601 158.946C87.8161 158.402 87.123 158.032 86.3685 157.882C85.6141 157.732 84.832 157.809 84.1213 158.103C83.4106 158.398 82.8031 158.896 82.3757 159.536C81.9483 160.175 81.7202 160.927 81.7202 161.697C81.7215 162.728 82.1318 163.716 82.8609 164.445C83.59 165.175 84.5786 165.585 85.6097 165.586Z" fill="white"/>
<path opacity="0.5" d="M86.6948 173.667C86.6948 172.6 87.1184 171.578 87.8723 170.824C88.6262 170.07 89.6488 169.647 90.715 169.647H90.9361C90.2203 168.482 89.1439 167.583 87.8707 167.087C86.5974 166.59 85.1967 166.522 83.8815 166.894C82.5663 167.266 81.4084 168.057 80.5838 169.147C79.7592 170.237 79.3129 171.566 79.3127 172.933V175.23C79.3141 175.534 79.4357 175.826 79.6513 176.042C79.8668 176.257 80.1587 176.379 80.4635 176.38H87.73C87.0588 175.636 86.6897 174.669 86.6948 173.667Z" fill="white"/>
<path d="M90.7301 169.632C89.935 169.632 89.1578 169.867 88.4966 170.309C87.8355 170.751 87.3203 171.379 87.016 172.113C86.7117 172.848 86.6321 173.656 86.7872 174.436C86.9423 175.216 87.3252 175.932 87.8874 176.494C88.4497 177.057 89.166 177.44 89.9458 177.595C90.7257 177.75 91.534 177.67 92.2686 177.366C93.0032 177.062 93.6311 176.546 94.0728 175.885C94.5145 175.224 94.7503 174.447 94.7503 173.652C94.7503 172.586 94.3268 171.563 93.5728 170.809C92.8189 170.055 91.7964 169.632 90.7301 169.632ZM92.7855 173.099L90.3884 175.355C90.3138 175.426 90.2149 175.466 90.112 175.466C90.0086 175.466 89.9086 175.428 89.8306 175.36L88.6497 174.26C88.5708 174.187 88.5238 174.086 88.5191 173.979C88.5144 173.871 88.5523 173.766 88.6246 173.687C88.6983 173.608 88.8002 173.561 88.9084 173.556C89.0165 173.551 89.1222 173.589 89.2025 173.662L90.107 174.501L92.2277 172.491C92.2655 172.453 92.3105 172.423 92.3601 172.402C92.4097 172.381 92.4629 172.371 92.5166 172.371C92.5703 172.371 92.6235 172.381 92.6731 172.402C92.7227 172.423 92.7677 172.453 92.8056 172.491C92.848 172.53 92.8814 172.578 92.9037 172.631C92.926 172.684 92.9365 172.742 92.9346 172.8C92.9327 172.857 92.9184 172.914 92.8927 172.966C92.8669 173.017 92.8304 173.063 92.7855 173.099Z" fill="white"/>
<g filter="url(#filter0_d)">
<path d="M270.119 39.7791L270.119 72.3346C270.119 75.1539 272.404 77.4395 275.224 77.4395L301.622 77.4395C304.441 77.4395 306.727 75.1539 306.727 72.3346L306.727 39.7791C306.727 36.9597 304.441 34.6742 301.622 34.6742L275.224 34.6742C272.404 34.6742 270.119 36.9597 270.119 39.7791Z" fill="white"/>
</g>
<path d="M288.412 57.0411C292.22 57.0411 295.307 53.9545 295.307 50.1469C295.307 46.3393 292.22 43.2527 288.412 43.2527C284.605 43.2527 281.518 46.3393 281.518 50.1469C281.518 53.9545 284.605 57.0411 288.412 57.0411Z" fill="#B97CE8"/>
<path d="M280.866 62.946H295.97" stroke="#D2DFE6" stroke-width="3.91833" stroke-linecap="round" stroke-linejoin="round"/>
<path d="M283.465 68.8611H293.359" stroke="#D2DFE6" stroke-width="2.44896" stroke-linecap="round" stroke-linejoin="round"/>
<rect opacity="0.1" x="15.9629" y="220.406" width="45.8223" height="31.0409" rx="3.10409" fill="#2CC3D5"/>
<rect opacity="0.15" x="12.2944" y="217.349" width="45.8223" height="31.0409" rx="3.10409" fill="#2CC3D5"/>
<g filter="url(#filter1_d)">
<rect x="8.01514" y="213.07" width="45.8223" height="31.0409" rx="3.10409" fill="white"/>
</g>
<path d="M49.902 220.898H40.3019C40.1565 220.94 40.0035 220.947 39.8548 220.919C39.7061 220.892 39.566 220.83 39.4452 220.739C39.3245 220.648 39.2266 220.53 39.1592 220.395C39.0917 220.259 39.0566 220.11 39.0566 219.959C39.0566 219.808 39.0917 219.659 39.1592 219.523C39.2266 219.388 39.3245 219.27 39.4452 219.179C39.566 219.088 39.7061 219.026 39.8548 218.998C40.0035 218.971 40.1565 218.978 40.3019 219.02H49.902C50.1061 219.078 50.2857 219.201 50.4135 219.371C50.5414 219.54 50.6105 219.747 50.6105 219.959C50.6105 220.171 50.5414 220.378 50.4135 220.547C50.2857 220.717 50.1061 220.84 49.902 220.898Z" fill="#D2DFE6"/>
<path d="M49.902 223.855H40.3019C40.1565 223.896 40.0035 223.903 39.8548 223.876C39.7061 223.848 39.566 223.786 39.4452 223.695C39.3245 223.604 39.2266 223.486 39.1592 223.351C39.0917 223.216 39.0566 223.067 39.0566 222.915C39.0566 222.764 39.0917 222.615 39.1592 222.48C39.2266 222.344 39.3245 222.227 39.4452 222.135C39.566 222.044 39.7061 221.983 39.8548 221.955C40.0035 221.927 40.1565 221.935 40.3019 221.976H49.902C50.1061 222.034 50.2857 222.158 50.4135 222.327C50.5414 222.497 50.6105 222.703 50.6105 222.915C50.6105 223.128 50.5414 223.334 50.4135 223.504C50.2857 223.673 50.1061 223.796 49.902 223.855Z" fill="#D2DFE6"/>
<path d="M32.1841 237.994H16.3647C16.1905 237.994 16.0234 237.925 15.9002 237.802C15.777 237.679 15.7078 237.511 15.7078 237.337V221.321C15.7078 221.147 15.777 220.979 15.9002 220.856C16.0234 220.733 16.1905 220.664 16.3647 220.664C16.5389 220.664 16.706 220.733 16.8292 220.856C16.9525 220.979 17.0217 221.147 17.0217 221.321V236.68H32.1841C32.3583 236.68 32.5254 236.749 32.6486 236.873C32.7718 236.996 32.841 237.163 32.841 237.337C32.841 237.511 32.7718 237.679 32.6486 237.802C32.5254 237.925 32.3583 237.994 32.1841 237.994Z" fill="#D2DFE6"/>
<path opacity="0.7" d="M23.2888 233.737C22.8923 233.748 22.5025 233.633 22.1753 233.409C19.1402 231.024 17.3171 233.182 17.2481 233.277C17.1067 233.434 16.9102 233.531 16.6995 233.547C16.4887 233.562 16.28 233.496 16.1167 233.362C15.9533 233.228 15.848 233.036 15.8226 232.826C15.7972 232.617 15.8537 232.405 15.9802 232.236C16.0098 232.2 18.8971 228.77 23.1541 232.082C23.3709 232.183 24.1001 232.082 25.0823 230.373C26.9086 227.207 30.3182 225.177 30.4627 225.092C30.6504 224.981 30.8744 224.949 31.0854 225.004C31.2964 225.058 31.4771 225.195 31.5877 225.382C31.6984 225.57 31.7299 225.794 31.6754 226.005C31.6209 226.216 31.4848 226.397 31.297 226.507C31.2642 226.524 28.1108 228.412 26.5046 231.195C25.6571 232.663 24.7275 233.494 23.7388 233.707C23.5901 233.731 23.4394 233.741 23.2888 233.737ZM23.1508 232.075L23.1771 232.095L23.1508 232.075Z" fill="#2CC3D5"/>
<path opacity="0.8" d="M16.5881 233.563C16.4396 233.563 16.294 233.522 16.1668 233.445C16.0396 233.369 15.9356 233.259 15.8658 233.128C15.796 232.997 15.7631 232.849 15.7706 232.701C15.778 232.552 15.8256 232.409 15.9082 232.285C16.2662 231.753 19.4853 227.145 22.6321 227.145H22.6682C23.4598 227.145 24.5963 227.473 25.5259 228.905C26.2847 230.081 27.0928 230.709 27.9271 230.761C29.172 230.837 30.2264 229.658 30.2264 229.648C30.2943 229.56 30.3792 229.487 30.4761 229.433C30.573 229.379 30.6799 229.345 30.7902 229.333C30.9006 229.322 31.0122 229.333 31.1182 229.365C31.2242 229.398 31.3225 229.452 31.4072 229.524C31.4918 229.595 31.561 229.683 31.6106 229.783C31.6603 229.882 31.6893 229.99 31.6959 230.101C31.7025 230.212 31.6866 230.323 31.6491 230.427C31.6116 230.532 31.5534 230.627 31.4779 230.709C31.4155 230.784 29.9045 232.535 27.822 232.4C26.4424 232.308 25.1942 231.435 24.1496 229.796C23.716 229.139 23.2266 228.81 22.6551 228.787H22.6321C20.9108 228.787 18.4276 231.491 17.2648 233.205C17.1897 233.315 17.0889 233.406 16.9709 233.468C16.853 233.531 16.7215 233.563 16.5881 233.563Z" fill="#F9B42F"/>
<path opacity="0.1" d="M332.104 223.665H287.815C284.586 223.665 281.968 226.282 281.968 229.512V254.511C281.968 257.74 284.586 260.358 287.815 260.358H332.104C335.334 260.358 337.952 257.74 337.952 254.511V229.512C337.952 226.282 335.334 223.665 332.104 223.665Z" fill="#2CC3D5"/>
<path opacity="0.15" d="M327.794 219.893H283.505C280.275 219.893 277.657 222.511 277.657 225.74V250.739C277.657 253.968 280.275 256.586 283.505 256.586H327.794C331.023 256.586 333.641 253.968 333.641 250.739V225.74C333.641 222.511 331.023 219.893 327.794 219.893Z" fill="#2CC3D5"/>
<g filter="url(#filter2_d)">
<path d="M323.484 215.582H279.194C275.965 215.582 273.347 218.2 273.347 221.43V246.428C273.347 249.658 275.965 252.276 279.194 252.276H323.484C326.713 252.276 329.331 249.658 329.331 246.428V221.43C329.331 218.2 326.713 215.582 323.484 215.582Z" fill="white"/>
</g>
<path d="M288.857 241.872C293.244 241.872 296.8 238.316 296.8 233.929C296.8 229.542 293.244 225.986 288.857 225.986C284.47 225.986 280.914 229.542 280.914 233.929C280.914 238.316 284.47 241.872 288.857 241.872Z" fill="#4DCB7B"/>
<path d="M304.361 230.525H321.764" stroke="#D2DFE6" stroke-width="3.23283" stroke-linecap="round" stroke-linejoin="round"/>
<path d="M304.361 237.339H315.766" stroke="#D2DFE6" stroke-width="3.23283" stroke-linecap="round" stroke-linejoin="round"/>
<path d="M292.765 232.441C292.654 231.858 292.367 231.324 291.942 230.91C291.518 230.495 290.976 230.222 290.391 230.125C289.842 230.017 289.284 229.963 288.724 229.963C287.841 229.933 286.965 230.132 286.182 230.542C285.739 230.823 285.385 231.225 285.163 231.7C285.124 231.781 285.119 231.874 285.148 231.958C285.177 232.043 285.239 232.112 285.32 232.152C285.4 232.191 285.493 232.196 285.578 232.167C285.663 232.138 285.732 232.076 285.771 231.995C285.938 231.641 286.204 231.341 286.535 231.133C287.212 230.79 287.966 230.63 288.724 230.67C289.237 230.668 289.749 230.718 290.252 230.82C290.712 230.89 291.138 231.102 291.471 231.427C291.803 231.752 292.025 232.174 292.105 232.632C292.375 233.753 292.192 234.934 291.595 235.921C291.317 236.269 291.004 236.588 290.663 236.876L290.443 237.073C290.084 237.408 289.708 237.738 289.39 238.016V237.437C289.39 237.325 289.345 237.218 289.266 237.139C289.187 237.059 289.079 237.015 288.967 237.015C288.019 237.039 287.093 236.734 286.344 236.152C286.283 236.088 286.198 236.05 286.109 236.048C286.02 236.046 285.934 236.079 285.87 236.141C285.805 236.202 285.768 236.286 285.766 236.376C285.763 236.465 285.797 236.551 285.858 236.615C286.661 237.289 287.67 237.668 288.718 237.686V238.381C288.718 238.515 288.771 238.643 288.866 238.737C288.96 238.832 289.088 238.885 289.222 238.885H289.262C289.367 238.874 289.466 238.831 289.546 238.763C289.928 238.439 290.42 238.011 290.906 237.559L291.115 237.362C291.507 237.029 291.862 236.654 292.174 236.245C292.865 235.104 293.077 233.737 292.765 232.441Z" fill="white"/>
<path d="M287.352 235.336C287.28 235.415 287.239 235.518 287.239 235.625C287.239 235.733 287.28 235.836 287.352 235.915C287.429 235.986 287.531 236.025 287.636 236.025C287.694 236.025 287.752 236.013 287.806 235.991C287.86 235.968 287.908 235.934 287.948 235.892L289.407 234.305V234.271C289.407 234.271 289.407 234.271 289.407 234.236C289.407 234.201 289.407 234.236 289.407 234.207C289.41 234.196 289.41 234.184 289.407 234.172C289.405 234.161 289.405 234.149 289.407 234.138C289.405 234.128 289.405 234.118 289.407 234.109C289.41 234.097 289.41 234.085 289.407 234.074C289.407 234.074 289.407 234.074 289.407 234.039V234.01L287.948 232.43C287.91 232.389 287.865 232.356 287.814 232.333C287.763 232.31 287.709 232.297 287.653 232.295C287.597 232.294 287.542 232.303 287.49 232.322C287.438 232.342 287.39 232.371 287.349 232.409C287.308 232.447 287.276 232.493 287.253 232.544C287.23 232.594 287.217 232.649 287.215 232.705C287.213 232.76 287.222 232.816 287.242 232.868C287.261 232.92 287.291 232.968 287.329 233.009L288.139 233.889H285.245C285.189 233.889 285.134 233.899 285.083 233.921C285.032 233.942 284.985 233.973 284.946 234.012C284.907 234.052 284.875 234.098 284.854 234.149C284.833 234.201 284.822 234.256 284.822 234.311C284.824 234.422 284.869 234.528 284.948 234.606C285.027 234.684 285.134 234.728 285.245 234.728H288.139L287.352 235.336Z" fill="white"/>
<rect opacity="0.3" x="8.79834" y="28.6826" width="88.6268" height="62.0387" rx="5.06439" fill="#C3EEF4"/>
<rect opacity="0.3" x="13.8625" y="35.0134" width="88.6268" height="62.0387" rx="5.06439" fill="#C3EEF4"/>
<rect x="5" y="23.6187" width="88.6268" height="62.0387" rx="5.06439" fill="#F8FBFB"/>
<path d="M5 28.683C5 25.8861 7.2674 23.6187 10.0644 23.6187H88.5624C91.3594 23.6187 93.6268 25.8861 93.6268 28.683V37.5457H5V28.683Z" fill="#343C4C"/>
<circle cx="14.4958" cy="30.5818" r="1.89914" fill="#FF5A60"/>
<circle cx="19.5603" cy="30.5818" r="1.89914" fill="#F9B42F"/>
<circle cx="24.6245" cy="30.5818" r="1.89914" fill="#4DCB7B"/>
<path d="M46.1941 51.3796V58.5439" stroke="#DEE8EC" stroke-width="1.79106"/>
<path d="M46.1941 63.022V71.9773" stroke="#DEE8EC" stroke-width="1.79106"/>
<rect x="33.6567" y="43.3201" width="26.866" height="8.95532" rx="2.14928" fill="#E7EEF1"/>
<rect x="33.6567" y="55.8579" width="26.866" height="8.95532" rx="2.14928" fill="#E7EEF1"/>
<rect x="33.6567" y="68.3958" width="26.866" height="8.95532" rx="2.14928" fill="#E7EEF1"/>
<rect x="10.3735" y="68.3955" width="19.7017" height="8.95532" rx="2.14928" fill="#E7EEF1"/>
<path d="M20.2246 54.0668V46.9026H36.3442" stroke="#DEE8EC" stroke-width="1.79106" stroke-linejoin="round"/>
<rect x="10.3735" y="52.2756" width="19.7017" height="12.5374" rx="2.14928" fill="#E7EEF1"/>
<path d="M85.5979 46.9021H67.6873C66.6981 46.9021 65.8962 47.704 65.8962 48.6932V73.7681C65.8962 74.7572 66.6981 75.5591 67.6873 75.5591H85.5979C86.5871 75.5591 87.389 74.7572 87.389 73.7681V48.6932C87.389 47.704 86.5871 46.9021 85.5979 46.9021Z" fill="white"/>
<path d="M65.8967 46.9024C65.8967 45.9132 66.6986 45.1113 67.6878 45.1113H85.5984C86.5876 45.1113 87.3895 45.9132 87.3895 46.9024V48.6935H65.8967V46.9024Z" fill="#343C4C"/>
<path d="M65.8962 70.1868H87.389" stroke="#F5F8F9" stroke-width="0.358213"/>
<path d="M73.0603 64.4404C73.0603 63.6571 73.6952 63.0222 74.4784 63.0222H84.1796C84.9628 63.0222 85.5977 63.6571 85.5977 64.4404V66.368C85.5977 66.4985 85.4919 66.6043 85.3614 66.6043H74.4784C73.6952 66.6043 73.0603 65.9694 73.0603 65.1862V64.4404Z" fill="#E7EEF1"/>
<path d="M80.2246 59.0671C80.2246 58.2838 79.5897 57.6489 78.8065 57.6489H69.1053C68.3221 57.6489 67.6872 58.2838 67.6872 59.0671V60.9947C67.6872 61.1252 67.793 61.2311 67.9235 61.2311H78.8065C79.5897 61.2311 80.2246 60.5961 80.2246 59.8129V59.0671Z" fill="#2CC3D5"/>
<rect opacity="0.3" x="160.493" y="110.169" width="98.7778" height="69.1444" rx="5.64444" fill="#C3EEF4"/>
<rect opacity="0.3" x="166.138" y="117.225" width="98.7778" height="69.1444" rx="5.64444" fill="#C3EEF4"/>
<rect x="156.259" y="104.525" width="98.7778" height="69.1444" rx="5.64444" fill="#F8FBFB"/>
<path d="M156.259 110.169C156.259 107.052 158.786 104.525 161.904 104.525H249.393C252.51 104.525 255.037 107.052 255.037 110.169V120.047H156.259V110.169Z" fill="#343C4C"/>
<path d="M224.392 134.413L224.392 154.041C224.392 155.741 225.77 157.119 227.47 157.119L243.386 157.119C245.086 157.119 246.464 155.741 246.464 154.041L246.464 134.413C246.464 132.713 245.086 131.335 243.386 131.335L227.47 131.335C225.77 131.335 224.392 132.713 224.392 134.413Z" fill="white"/>
<path d="M235.422 144.82C237.717 144.82 239.578 142.959 239.578 140.664C239.578 138.368 237.717 136.507 235.422 136.507C233.126 136.507 231.265 138.368 231.265 140.664C231.265 142.959 233.126 144.82 235.422 144.82Z" fill="#F99B45"/>
<path d="M230.872 148.381H239.979" stroke="#D2DFE6" stroke-width="1.68942" stroke-linecap="round" stroke-linejoin="round"/>
<path d="M232.439 151.948H238.404" stroke="#D2DFE6" stroke-width="1.68942" stroke-linecap="round" stroke-linejoin="round"/>
<path d="M195.265 134.413L195.265 154.041C195.265 155.741 196.643 157.119 198.343 157.119L214.259 157.119C215.959 157.119 217.337 155.741 217.337 154.041L217.337 134.413C217.337 132.713 215.959 131.335 214.259 131.335L198.343 131.335C196.643 131.335 195.265 132.713 195.265 134.413Z" fill="white"/>
<path d="M206.295 144.82C208.59 144.82 210.451 142.959 210.451 140.664C210.451 138.368 208.59 136.507 206.295 136.507C203.999 136.507 202.138 138.368 202.138 140.664C202.138 142.959 203.999 144.82 206.295 144.82Z" fill="#2CC3D5"/>
<path d="M201.745 148.381H210.852" stroke="#D2DFE6" stroke-width="1.68942" stroke-linecap="round" stroke-linejoin="round"/>
<path d="M203.312 151.948H209.277" stroke="#D2DFE6" stroke-width="1.68942" stroke-linecap="round" stroke-linejoin="round"/>
<path d="M166.138 134.413L166.138 154.041C166.138 155.741 167.516 157.119 169.216 157.119L185.132 157.119C186.831 157.119 188.209 155.741 188.209 154.041L188.209 134.413C188.209 132.713 186.831 131.335 185.132 131.335L169.216 131.335C167.516 131.335 166.138 132.713 166.138 134.413Z" fill="white"/>
<path d="M177.167 144.82C179.463 144.82 181.324 142.959 181.324 140.664C181.324 138.368 179.463 136.507 177.167 136.507C174.872 136.507 173.011 138.368 173.011 140.664C173.011 142.959 174.872 144.82 177.167 144.82Z" fill="#BED42B"/>
<path d="M172.618 148.381H181.724" stroke="#D2DFE6" stroke-width="1.68942" stroke-linecap="round" stroke-linejoin="round"/>
<path d="M174.185 151.948H180.15" stroke="#D2DFE6" stroke-width="1.68942" stroke-linecap="round" stroke-linejoin="round"/>
<circle cx="166.843" cy="112.286" r="2.11667" fill="#FF5A60"/>
<circle cx="172.487" cy="112.286" r="2.11667" fill="#F9B42F"/>
<circle cx="178.132" cy="112.286" r="2.11667" fill="#4DCB7B"/>
<defs>
<filter id="filter0_d" x="264.089" y="29.6488" width="48.6684" height="54.8258" filterUnits="userSpaceOnUse" color-interpolation-filters="sRGB">
<feFlood flood-opacity="0" result="BackgroundImageFix"/>
<feColorMatrix in="SourceAlpha" type="matrix" values="0 0 0 0 0 0 0 0 0 0 0 0 0 0 0 0 0 0 127 0"/>
<feOffset dy="1.00504"/>
<feGaussianBlur stdDeviation="3.01514"/>
<feColorMatrix type="matrix" values="0 0 0 0 0.374547 0 0 0 0 0.481553 0 0 0 0 0.601935 0 0 0 0.15 0"/>
<feBlend mode="normal" in2="BackgroundImageFix" result="effect1_dropShadow"/>
<feBlend mode="normal" in="SourceGraphic" in2="effect1_dropShadow" result="shape"/>
</filter>
<filter id="filter1_d" x="0.678906" y="206.956" width="60.4948" height="45.7134" filterUnits="userSpaceOnUse" color-interpolation-filters="sRGB">
<feFlood flood-opacity="0" result="BackgroundImageFix"/>
<feColorMatrix in="SourceAlpha" type="matrix" values="0 0 0 0 0 0 0 0 0 0 0 0 0 0 0 0 0 0 127 0"/>
<feOffset dy="1.2227"/>
<feGaussianBlur stdDeviation="3.66812"/>
<feColorMatrix type="matrix" values="0 0 0 0 0.374547 0 0 0 0 0.481553 0 0 0 0 0.601935 0 0 0 0.15 0"/>
<feBlend mode="normal" in2="BackgroundImageFix" result="effect1_dropShadow"/>
<feBlend mode="normal" in="SourceGraphic" in2="effect1_dropShadow" result="shape"/>
</filter>
<filter id="filter2_d" x="266.882" y="210.194" width="68.915" height="49.6247" filterUnits="userSpaceOnUse" color-interpolation-filters="sRGB">
<feFlood flood-opacity="0" result="BackgroundImageFix"/>
<feColorMatrix in="SourceAlpha" type="matrix" values="0 0 0 0 0 0 0 0 0 0 0 0 0 0 0 0 0 0 127 0"/>
<feOffset dy="1.07761"/>
<feGaussianBlur stdDeviation="3.23283"/>
<feColorMatrix type="matrix" values="0 0 0 0 0.374547 0 0 0 0 0.481553 0 0 0 0 0.601935 0 0 0 0.15 0"/>
<feBlend mode="normal" in2="BackgroundImageFix" result="effect1_dropShadow"/>
<feBlend mode="normal" in="SourceGraphic" in2="effect1_dropShadow" result="shape"/>
</filter>
</defs>
</svg>
