<svg width="303" height="369" viewBox="0 0 303 369" fill="none" xmlns="http://www.w3.org/2000/svg">
<path opacity="0.3" d="M208.562 184.548C208.562 184.548 297.105 172.021 268.621 109.243C240.137 46.4652 158.774 -13.9107 128.191 72.3253C97.6082 158.561 36.8134 142.969 36.4149 195.988C36.0163 249.006 89.1181 293.622 117.133 280.502C145.148 267.383 134.33 226.159 146.851 211.092C159.372 196.025 208.562 184.548 208.562 184.548Z" fill="#87DDE8"/>
<g opacity="0.6" filter="url(#filter0_f)">
<ellipse cx="96.2889" cy="343.242" rx="81.3472" ry="10.3384" fill="#D2DFE6"/>
</g>
<path d="M76.4283 341.622C76.9388 338.385 77.3964 335.436 77.8691 332.49C78.0468 331.356 78.2472 330.252 78.4363 329.129C78.5724 328.27 78.9695 327.937 79.8959 328.372C81.3975 329.066 83.0818 329.261 84.7022 328.928C85.7269 328.72 85.9879 329.306 85.916 330.063C85.7685 331.696 85.5379 333.318 85.4055 334.952C85.1938 337.629 85.1824 340.325 84.7891 342.976C84.575 344.257 83.9915 345.448 83.1102 346.402C81.4539 348.214 78.2964 347.041 77.3548 344.84C76.9411 343.801 76.6308 342.723 76.4283 341.622V341.622Z" fill="#3D5CB6"/>
<path d="M110.446 324.198L110.741 328.482" stroke="#CB8591" stroke-width="6.33015" stroke-linecap="round" stroke-linejoin="round"/>
<path d="M123.833 336.669C124.274 337.399 124.417 338.271 124.234 339.104C123.992 340.114 123.292 340.582 121.855 340.892C120.055 341.271 118.387 340.821 116.72 340.227C114.704 339.508 112.723 338.544 110.639 338.189C108.147 337.765 107.357 336.169 107.07 334.112C106.88 332.789 107.032 331.416 107.07 330.07C107.07 329.499 107.353 329.215 108.007 329.344C109.851 329.778 111.79 329.524 113.46 328.629C113.593 328.587 113.734 328.578 113.871 328.603C114.008 328.628 114.137 328.687 114.247 328.773C115.381 331.246 117.85 332.021 119.957 333.254C120.883 333.795 121.889 334.275 122.645 335.001C123.115 335.5 123.515 336.061 123.833 336.669Z" fill="#3D5CB6"/>
<path d="M110.822 329.693C112.559 329.574 113.953 329.256 113.934 328.983C113.915 328.71 112.491 328.586 110.754 328.705C109.016 328.824 107.623 329.141 107.641 329.414C107.66 329.687 109.084 329.812 110.822 329.693Z" fill="#CB8591"/>
<path d="M113.865 327.809L113.944 328.981L107.656 329.412L107.538 328.047L113.865 327.809Z" fill="#CB8591"/>
<path d="M82.3766 325.4L82.2935 329.696" stroke="#CB8591" stroke-width="6.33015" stroke-linecap="round" stroke-linejoin="round"/>
<path d="M112.613 159.871C112.613 159.871 120.695 192.187 126.593 194.505C132.829 196.959 143.249 182.534 145.338 175.689C145.953 173.686 144.919 165.791 144.919 165.791" stroke="#EFB8C2" stroke-width="6.80705" stroke-linecap="round" stroke-linejoin="round"/>
<path d="M253.416 53.5025C250.609 39.3118 240.475 29.3919 225.625 26.3247C219.016 25.0095 212.291 24.3592 205.552 24.3835C196.685 24.3835 184.231 25.5288 175.306 31.042C160.339 40.263 158.624 58.5497 158.935 68.6055C159.247 78.6613 161.703 92.8131 171.389 102.791C179.398 111.1 195.067 115.06 206.858 115.351V125.679C206.85 126.268 206.96 126.853 207.183 127.399C207.405 127.946 207.734 128.442 208.152 128.86C208.569 129.278 209.067 129.608 209.614 129.832C210.161 130.056 210.748 130.168 211.34 130.163H211.749C212.672 130.088 213.546 129.721 214.244 129.115C218.863 125.232 224.924 119.933 230.809 114.458L233.421 112.07C238.139 108.065 242.406 103.561 246.147 98.6369C254.117 87.3387 256.846 70.4497 253.416 53.5025Z" fill="#2CC3D5"/>
<path fill-rule="evenodd" clip-rule="evenodd" d="M246.458 107.307C243.433 70.6231 212.702 41.795 175.238 41.795C166.054 41.795 157.274 43.5275 149.208 46.6835C146.853 54.5509 146.483 62.4258 146.659 68.0877C147.027 79.9454 149.922 96.6332 161.344 108.399C170.789 118.197 189.265 122.867 203.169 123.21V135.388C203.159 136.083 203.29 136.773 203.552 137.417C203.814 138.061 204.202 138.647 204.695 139.14C205.187 139.632 205.773 140.022 206.419 140.286C207.064 140.549 207.756 140.682 208.454 140.676H208.937C210.025 140.588 211.056 140.155 211.878 139.44C217.325 134.862 224.472 128.612 231.412 122.157L234.491 119.341C238.816 115.671 242.818 111.644 246.458 107.307Z" fill="#2CC3D5"/>
<path d="M77.2675 231.326L77.2947 323.284C77.2947 323.98 79.4712 324.546 82.1918 324.546H82.3333C85.0267 324.546 87.2033 324.002 87.2033 323.284L88.2915 276.075L89.4559 232.398C90.653 232.681 93.3954 232.79 96.1542 232.768C98.9129 232.746 101.655 232.681 102.852 232.398L104.017 276.075L105.105 323.284C105.105 323.98 107.282 324.546 110.002 324.546H110.16C112.848 324.546 115.057 324.002 115.057 323.284V231.326C115.689 228.968 116.041 226.545 116.107 224.105C116.107 223.708 116.107 223.322 116.107 222.952C116.12 220.427 115.766 217.915 115.057 215.492C115.057 214.73 113.332 214.028 110.492 213.484L109.812 213.364C105.355 212.691 100.852 212.371 96.3446 212.407H95.9528C85.6416 212.407 77.2457 213.805 77.2403 215.492C75.8127 220.674 75.8221 226.148 77.2675 231.326Z" fill="#343C4C"/>
<path opacity="0.5" d="M94.2278 217.293V223.431C94.2278 224.862 95.2127 226.021 96.4043 226.021C97.5959 226.021 98.5808 224.862 98.5808 223.431V217.287C97.8354 217.287 97.079 217.287 96.3064 217.287L94.2278 217.293Z" stroke="#C2CFEF" stroke-width="0.408096" stroke-miterlimit="10"/>
<path d="M110.514 213.484C110.878 213.555 111.221 213.625 111.553 213.702C113.768 214.208 115.073 214.828 115.079 215.492C115.832 218.084 116.186 220.776 116.129 223.474C115.865 223.55 115.596 223.606 115.324 223.643C114.085 223.806 112.826 223.572 111.729 222.974C110.631 222.376 109.752 221.446 109.217 220.316C108.682 219.187 108.52 217.917 108.753 216.689C108.986 215.461 109.602 214.339 110.514 213.484V213.484Z" fill="#95A2CE"/>
<path opacity="0.5" d="M112.951 230.608C113.131 229.944 113.289 229.264 113.419 228.583C113.752 226.903 113.943 225.197 113.991 223.485C113.991 223.46 113.997 223.435 114.007 223.412C114.017 223.39 114.032 223.369 114.05 223.352C114.068 223.335 114.09 223.321 114.113 223.312C114.137 223.303 114.162 223.299 114.187 223.3C114.236 223.303 114.283 223.325 114.316 223.361C114.35 223.398 114.368 223.446 114.366 223.496C114.319 225.23 114.126 226.958 113.789 228.66C113.659 229.334 113.501 230.014 113.321 230.678L114.366 322.636C114.367 322.661 114.363 322.685 114.354 322.709C114.345 322.732 114.331 322.753 114.314 322.77C114.297 322.788 114.276 322.802 114.253 322.812C114.23 322.822 114.206 322.826 114.181 322.826V322.826C114.132 322.826 114.084 322.807 114.048 322.773C114.013 322.738 113.992 322.691 113.991 322.641L112.946 230.684C112.941 230.658 112.943 230.632 112.951 230.608Z" fill="#3C4557"/>
<path d="M108.136 218.637C108.24 219.482 108.512 220.299 108.934 221.038C109.357 221.778 109.923 222.427 110.598 222.946C111.273 223.465 112.045 223.845 112.868 224.064C113.692 224.283 114.551 224.336 115.395 224.22L115.596 224.192C115.759 224.192 115.944 224.149 116.14 224.122C116.14 223.724 116.14 223.338 116.14 222.968C115.96 223.006 115.667 223.044 115.465 223.066L115.259 223.093C114.564 223.185 113.857 223.139 113.18 222.957C112.503 222.776 111.868 222.462 111.312 222.035C110.757 221.608 110.29 221.076 109.94 220.468C109.59 219.861 109.364 219.19 109.273 218.495C109.23 218.083 109.23 217.667 109.273 217.255L108.125 217.385C108.093 217.802 108.097 218.221 108.136 218.637V218.637Z" fill="#ADB9E0"/>
<path d="M81.9196 213.484C81.5496 213.555 81.2068 213.625 80.8803 213.702C78.6657 214.208 77.3544 214.828 77.3489 215.492C76.5993 218.085 76.2453 220.776 76.2988 223.474C76.5645 223.55 76.8355 223.607 77.1095 223.643C78.3485 223.806 79.6073 223.572 80.7046 222.974C81.802 222.376 82.6814 221.446 83.2161 220.316C83.7509 219.187 83.9135 217.917 83.6805 216.689C83.4475 215.461 82.831 214.339 81.9196 213.484V213.484Z" fill="#1A2437"/>
<path opacity="0.5" d="M79.482 230.608C79.3024 229.944 79.1446 229.264 79.0086 228.584C78.6881 226.902 78.5061 225.197 78.4644 223.485C78.4604 223.436 78.4382 223.389 78.402 223.355C78.3658 223.321 78.3183 223.301 78.2685 223.3C78.2185 223.303 78.1714 223.325 78.137 223.361C78.1026 223.398 78.0835 223.446 78.0835 223.496C78.1333 225.23 78.3263 226.957 78.6603 228.66C78.7963 229.335 78.9541 230.015 79.1283 230.679L78.0835 322.636C78.0835 322.661 78.0885 322.686 78.098 322.709C78.1076 322.732 78.1216 322.753 78.1393 322.771C78.157 322.789 78.178 322.803 78.2011 322.812C78.2242 322.822 78.249 322.827 78.274 322.827C78.3236 322.827 78.3712 322.807 78.4068 322.773C78.4423 322.738 78.463 322.691 78.4644 322.642L79.5092 230.684C79.5071 230.657 79.4977 230.63 79.482 230.608Z" fill="#3C4557"/>
<path d="M84.292 218.637C84.0879 220.193 83.3264 221.622 82.1487 222.66C80.9711 223.698 79.4571 224.273 77.8876 224.279C77.6036 224.278 77.32 224.258 77.0387 224.22L76.8374 224.192C76.6687 224.192 76.4837 224.149 76.2933 224.122C76.2933 223.724 76.2933 223.338 76.2933 222.968C76.4783 223.006 76.7666 223.044 76.9734 223.066L77.1802 223.093C77.8754 223.186 78.5822 223.141 79.2599 222.96C79.9376 222.779 80.5728 222.466 81.129 222.039C81.6853 221.612 82.1516 221.079 82.5011 220.47C82.8506 219.862 83.0764 219.191 83.1656 218.495C83.2117 218.083 83.2117 217.667 83.1656 217.255L84.3083 217.385C84.3435 217.802 84.3381 218.221 84.292 218.637Z" fill="#3C4557"/>
<path d="M111.079 278.371L111.395 278.197C111.436 278.174 111.482 278.16 111.529 278.156C111.576 278.152 111.623 278.158 111.668 278.173C111.713 278.189 111.754 278.213 111.788 278.246C111.823 278.278 111.85 278.317 111.868 278.36L112.995 281.114C113.019 281.171 113.026 281.234 113.015 281.296C113.005 281.357 112.977 281.415 112.936 281.461C112.895 281.508 112.841 281.542 112.781 281.559C112.721 281.576 112.658 281.577 112.598 281.56L108.348 280.374C108.306 280.361 108.262 280.357 108.219 280.362C108.176 280.367 108.134 280.38 108.096 280.402C108.058 280.423 108.024 280.452 107.998 280.486C107.971 280.521 107.951 280.56 107.94 280.602L107.646 281.641L106.558 278.883C106.536 278.828 106.529 278.769 106.537 278.711C106.546 278.653 106.57 278.598 106.606 278.552C106.643 278.506 106.69 278.471 106.745 278.45C106.8 278.428 106.859 278.422 106.917 278.431V278.431C106.964 278.438 107.011 278.435 107.056 278.422C107.102 278.409 107.144 278.387 107.18 278.357C107.216 278.326 107.245 278.288 107.265 278.246C107.286 278.203 107.297 278.157 107.298 278.11L107.352 275.547C107.353 275.481 107.375 275.416 107.413 275.362C107.451 275.308 107.505 275.266 107.567 275.243C107.629 275.22 107.697 275.215 107.761 275.231C107.826 275.246 107.884 275.28 107.929 275.329L110.65 278.306C110.701 278.368 110.773 278.408 110.852 278.42C110.931 278.433 111.012 278.415 111.079 278.371V278.371Z" fill="#CB8591"/>
<path d="M81.9307 278.284L81.577 278.202C81.5306 278.193 81.4828 278.194 81.4366 278.204C81.3905 278.214 81.347 278.234 81.309 278.262C81.271 278.291 81.2394 278.327 81.2162 278.368C81.193 278.409 81.1787 278.455 81.1743 278.502L80.9077 281.462C80.9017 281.524 80.9133 281.587 80.9413 281.643C80.9693 281.698 81.0126 281.745 81.066 281.778C81.1194 281.81 81.1809 281.827 81.2434 281.826C81.3059 281.825 81.3668 281.806 81.4192 281.772L85.1302 279.389C85.1668 279.365 85.2078 279.349 85.2508 279.341C85.2938 279.333 85.3379 279.334 85.3806 279.344C85.4232 279.353 85.4634 279.371 85.4989 279.397C85.5344 279.422 85.5645 279.455 85.5872 279.492L86.1422 280.401L86.3599 277.446C86.3646 277.388 86.3539 277.33 86.3289 277.277C86.3039 277.224 86.2655 277.179 86.2175 277.146C86.1695 277.113 86.1136 277.093 86.0555 277.089C85.9974 277.084 85.9391 277.095 85.8865 277.12V277.12C85.8436 277.14 85.7969 277.151 85.7496 277.152C85.7022 277.153 85.6552 277.143 85.6115 277.125C85.5679 277.106 85.5286 277.079 85.4963 277.044C85.464 277.01 85.4394 276.969 85.424 276.924L84.6241 274.486C84.6033 274.423 84.5641 274.368 84.5116 274.328C84.4591 274.287 84.3957 274.263 84.3296 274.259C84.2634 274.255 84.1976 274.271 84.1405 274.305C84.0834 274.338 84.0377 274.388 84.0092 274.448L82.2735 278.099C82.2431 278.162 82.1936 278.214 82.1321 278.247C82.0705 278.28 82 278.293 81.9307 278.284Z" fill="#CB8591"/>
<path d="M77.6319 214.888C77.6128 214.782 77.6128 214.673 77.6319 214.567L78.0182 213.538C78.9106 211.101 81.0816 204.936 81.1469 202.253C81.149 197.232 80.8346 192.216 80.2056 187.235C80.9402 187.627 81.653 188.166 82.4202 188.166H110.149C110.968 188.066 111.752 187.778 112.44 187.322C111.899 192.28 111.657 197.266 111.716 202.253C111.787 204.936 113.952 211.101 114.85 213.538L115.231 214.567C115.259 214.671 115.268 214.78 115.258 214.888V214.888C115.258 216.248 106.862 217.353 96.4478 217.374C86.0332 217.396 77.6373 216.248 77.6373 214.888H77.6319Z" fill="#F9B42F"/>
<path d="M77.4797 178.138C78.8237 172.364 82.1102 158.843 82.1102 158.843C82.1102 158.184 86.1368 157.945 95.1693 157.754V157.711H96.4807H97.792V157.754C106.819 157.929 110.851 158.168 110.851 158.843C110.851 158.843 114.116 172.364 115.482 178.138C116.777 183.699 112.951 188.612 109.317 188.612H95.1693L82.7904 189.978C79.1502 189.978 76.1847 183.699 77.4797 178.138Z" fill="#F9B42F"/>
<path d="M107.477 188.606C107.477 188.606 113.903 189.978 115.639 180.989C116.183 178.034 112.516 197.503 112.516 197.503C112.157 189.107 107.477 188.606 107.477 188.606Z" fill="#EAA724"/>
<path d="M93.3247 156.339C92.6666 156.895 91.8853 157.286 91.0458 157.478C90.2064 157.671 89.333 157.661 88.4984 157.448C87.6638 157.235 86.8921 156.826 86.2476 156.254C85.603 155.683 85.1043 154.966 84.7928 154.163C83.911 154.589 82.9472 154.818 81.9681 154.834C80.989 154.85 80.0181 154.652 79.123 154.255C78.2438 153.855 77.4634 153.267 76.8371 152.531C76.2108 151.796 75.754 150.932 75.4991 150C74.7583 149.937 74.049 149.672 73.4478 149.235C72.8465 148.797 72.3761 148.204 72.0874 147.519C71.7635 146.824 71.6277 146.056 71.6936 145.292C71.7595 144.528 72.0247 143.795 72.4628 143.166C71.5568 142.755 70.7618 142.134 70.1439 141.354C69.5259 140.574 69.1028 139.658 68.9097 138.682C68.7444 137.726 68.814 136.744 69.1126 135.821C69.4112 134.898 69.9298 134.061 70.6237 133.383C69.2144 132.011 68.4961 129.133 68.9423 127.212C69.1747 126.253 69.6457 125.369 70.3117 124.641C70.9776 123.913 71.8168 123.366 72.7512 123.05C72.7046 121.947 72.7647 120.843 72.9308 119.752C73.0983 118.776 73.5752 117.879 74.2911 117.195C75.6242 116.025 77.594 116.063 79.3624 116.161C79.5365 114.093 80.1677 112.319 82.0068 111.356C82.9354 110.878 83.9681 110.637 85.0126 110.655C86.057 110.673 87.0808 110.949 87.9922 111.46C89.7715 109.86 93.0907 108.527 95.1095 109.827C96.8888 108.652 99.6529 108.059 101.688 108.712C102.703 109.047 103.632 109.602 104.408 110.338C105.184 111.073 105.788 111.971 106.177 112.967C107.287 112.793 108.421 112.858 109.503 113.16C110.586 113.461 111.591 113.991 112.451 114.714C113.312 115.425 114.01 116.313 114.495 117.319C114.981 118.325 115.243 119.424 115.264 120.541C117.413 122.598 118.077 126.624 116.548 129.176C117.565 129.898 118.42 130.826 119.055 131.899C119.691 132.973 120.094 134.168 120.237 135.407C120.323 136.561 120.144 137.719 119.715 138.794C119.286 139.869 118.618 140.832 117.762 141.61C118.126 143.122 117.555 144.945 116.782 146.3C115.995 147.664 114.722 148.68 113.218 149.146C113.031 150.192 112.619 151.185 112.011 152.057C111.404 152.928 110.614 153.658 109.698 154.195C108.815 154.634 107.842 154.86 106.856 154.854C105.87 154.849 104.9 154.612 104.022 154.163C103.603 155.178 102.947 156.078 102.108 156.787C101.269 157.497 100.272 157.994 99.2013 158.238C98.1411 158.438 97.0479 158.368 96.0213 158.037C94.9948 157.705 94.0677 157.121 93.3247 156.339Z" fill="#2C2A46"/>
<path d="M75.5906 163.027C75.2708 160.605 83.9865 157.456 95.0575 155.995C106.129 154.534 115.363 155.312 115.682 157.735C116.002 160.157 107.286 163.305 96.2154 164.766C85.1444 166.228 75.9103 165.449 75.5906 163.027Z" fill="#F9B42F"/>
<path d="M96.0617 161.949C93.9611 161.949 92.2582 160.546 92.2582 158.815C92.2582 157.084 93.9611 155.681 96.0617 155.681C98.1623 155.681 99.8651 157.084 99.8651 158.815C99.8651 160.546 98.1623 161.949 96.0617 161.949Z" fill="#CB8591" stroke="white" stroke-width="0.544128" stroke-miterlimit="10"/>
<path d="M95.7569 149.821H96.3717C97.2081 149.821 98.042 149.73 98.8584 149.549V156.72C98.8584 157.049 98.7937 157.375 98.6679 157.678C98.5421 157.982 98.3577 158.258 98.1253 158.49C97.8929 158.723 97.6169 158.907 97.3133 159.033C97.0096 159.159 96.6841 159.223 96.3554 159.223H95.7732C95.1094 159.223 94.4727 158.96 94.0033 158.49C93.5339 158.021 93.2702 157.384 93.2702 156.72V149.532C94.0864 149.717 94.9201 149.814 95.7569 149.821V149.821Z" fill="#CB8591"/>
<path d="M98.8475 151.508V153.576C98.8475 153.576 98.2435 152.553 96.0507 152.542C93.8579 152.531 93.2593 153.679 93.2593 153.679V151.165L98.8475 151.067V151.508Z" fill="#A8747D"/>
<path d="M84.1399 127.463V139.858C84.1341 141.385 84.4307 142.898 85.0125 144.31C85.5942 145.722 86.4497 147.005 87.5296 148.085C88.6095 149.165 89.8925 150.021 91.3045 150.602C92.7166 151.184 94.2298 151.481 95.757 151.475H96.3719C97.208 151.477 98.0419 151.388 98.8585 151.208C101.446 150.64 103.762 149.205 105.423 147.141C107.083 145.077 107.989 142.507 107.989 139.858V127.463C107.989 124.382 106.765 121.427 104.586 119.248C102.408 117.069 99.4529 115.845 96.3719 115.845H95.757C92.676 115.845 89.7211 117.069 87.5424 119.248C85.3638 121.427 84.1399 124.382 84.1399 127.463V127.463Z" fill="#CB8591"/>
<path d="M80.2384 134.416C80.09 134.864 80.039 135.339 80.0887 135.808C80.1385 136.277 80.2878 136.73 80.5268 137.137C80.7527 137.517 81.0702 137.835 81.4503 138.061C81.8305 138.288 82.2613 138.415 82.7033 138.432C82.5401 139.275 82.0341 140.337 82.2191 141.153C82.4041 141.969 83.0516 142.785 83.8242 142.731C84.5969 142.676 85.1682 141.898 85.3097 141.098C85.4002 140.259 85.3206 139.409 85.0757 138.601C85.6914 137.946 86.1438 137.156 86.3963 136.293C86.6487 135.431 86.6941 134.521 86.5285 133.638C87.8834 133.905 89.3961 133.29 90.5061 132.376C91.6592 131.397 92.3949 130.016 92.5629 128.513C93.0525 128.97 93.6468 129.301 94.2937 129.475C94.9407 129.65 95.6206 129.663 96.2739 129.514C96.9977 129.367 97.6812 129.065 98.2776 128.629C98.874 128.193 99.3691 127.634 99.7291 126.989C100.561 128.466 101.932 129.563 103.554 130.052C104.265 130.221 105.004 130.224 105.716 130.061C106.427 129.898 107.092 129.573 107.657 129.111C107.711 129.726 107.994 130.298 108.451 130.713C108.908 131.127 109.505 131.354 110.122 131.348C111.303 131.348 112.386 130.466 112.941 129.307C113.464 128.101 113.637 126.771 113.441 125.471C112.984 121.515 110.405 118.136 107.254 116.259C104.104 114.382 100.447 113.832 96.8779 113.832C93.526 113.832 90.0926 114.322 87.1216 116.058C83.3127 118.283 80.5921 122.391 78.9597 126.842C78.4798 128.019 78.2145 129.272 78.1762 130.542C78.2251 131.815 79.3243 133.649 80.2384 134.416Z" fill="#2C2A46"/>
<path d="M86.3978 143.003C86.3978 143.003 86.5121 137.752 83.5847 137.208C80.6573 136.664 80.7117 140.565 82.3386 142.056C83.9656 143.547 86.3978 143.003 86.3978 143.003Z" fill="#CB8591"/>
<path d="M90.1523 190.712C90.1523 190.712 82.0775 192.959 79.5691 186.767C78.4373 183.976 81.2558 199.402 81.2558 199.402C81.6095 191.022 90.1523 190.712 90.1523 190.712Z" fill="#DF9D1E"/>
<path d="M112.885 159.871C112.885 159.871 116.434 172.843 120.226 183.361" stroke="#F9B42F" stroke-width="7.56339" stroke-linecap="round" stroke-linejoin="round"/>
<path d="M129.722 168.931L138.498 174.47L147.994 158.908L139.407 153.472L129.722 168.931Z" fill="#D2DFE6"/>
<path d="M141.35 173.632L129.248 166.128C128.802 165.855 128.265 165.77 127.756 165.89C127.246 166.01 126.805 166.327 126.528 166.771L83.966 231.75C83.4765 232.467 83.1708 233.293 83.0759 234.155C82.981 235.018 83.0998 235.891 83.4219 236.697C84.1728 238.579 85.8432 241.126 89.4562 243.977C93.3087 247.013 97.6671 246.893 100.268 246.431C100.953 246.313 101.602 246.042 102.168 245.637C102.733 245.233 103.2 244.706 103.533 244.097L125.679 203.222L135.658 186.381L141.986 176.385C142.126 176.163 142.221 175.915 142.264 175.656C142.308 175.397 142.3 175.132 142.241 174.876C142.182 174.62 142.073 174.379 141.92 174.165C141.767 173.952 141.573 173.77 141.35 173.632Z" fill="#2CC3D5"/>
<path d="M239.717 69.1046C246.209 80.7016 249.117 93.9634 248.072 107.213C247.027 120.462 242.077 133.105 233.848 143.541C225.618 153.977 214.479 161.739 201.838 165.844C189.197 169.949 175.623 170.214 162.832 166.605C150.041 162.996 138.607 155.675 129.977 145.568C121.346 135.461 115.906 123.021 114.345 109.823C112.785 96.6241 115.172 83.259 121.207 71.4175C127.242 59.5759 136.653 49.7898 148.249 43.2965C155.949 38.9841 164.424 36.2309 173.188 35.194C181.952 34.1571 190.835 34.857 199.329 37.2535C207.823 39.6501 215.762 43.6965 222.691 49.1615C229.621 54.6266 235.407 61.4033 239.717 69.1046V69.1046ZM231.985 73.4576C226.351 63.3862 217.856 55.212 207.576 49.969C197.295 44.7259 185.691 42.6495 174.23 44.0025C162.769 45.3554 151.967 50.0769 143.19 57.5697C134.413 65.0625 128.055 74.99 124.921 86.0966C121.787 97.2031 122.017 108.99 125.582 119.965C129.147 130.941 135.887 140.613 144.95 147.758C154.013 154.902 164.991 159.199 176.496 160.104C188 161.008 199.515 158.481 209.583 152.84C223.081 145.277 233.022 132.663 237.22 117.771C241.417 102.879 239.529 86.9297 231.969 73.4304L231.985 73.4576Z" fill="#D2DFE6"/>
<g opacity="0.5" filter="url(#filter1_f)">
<path d="M187.76 51.5933C188.308 51.2272 188.945 51.0154 189.603 50.9802C192.178 50.782 194.765 51.1638 197.172 52.0975C199.58 53.0312 201.748 54.4931 203.516 56.3754C204.148 57.1213 204.463 58.0842 204.394 59.059C204.326 60.0338 203.88 60.9435 203.151 61.5942C202.422 62.2449 201.468 62.5853 200.492 62.5429C199.515 62.5004 198.594 62.0785 197.925 61.3669C197.26 60.6184 194.717 58.1942 190.028 58.4616C189.205 58.5093 188.389 58.2839 187.707 57.8205C187.025 57.357 186.516 56.6813 186.257 55.8984C185.998 55.1155 186.006 54.2692 186.277 53.4907C186.549 52.7123 187.07 52.0453 187.76 51.5933V51.5933Z" fill="#F8FBFB"/>
</g>
<g opacity="0.5" filter="url(#filter2_f)">
<path d="M210.78 64.4273C211.494 63.9608 212.345 63.751 213.194 63.8326C214.042 63.9141 214.838 64.282 215.45 64.8759C225.734 74.8765 231.632 88.5484 231.849 102.892C232.066 117.236 226.584 131.08 216.607 141.387C216.264 141.74 215.855 142.021 215.403 142.216C214.951 142.411 214.466 142.515 213.974 142.522C213.482 142.529 212.993 142.439 212.536 142.258C212.079 142.076 211.662 141.806 211.309 141.463C210.957 141.121 210.675 140.712 210.48 140.26C210.285 139.808 210.181 139.323 210.174 138.831C210.167 138.339 210.257 137.85 210.438 137.393C210.62 136.936 210.89 136.519 211.233 136.166C219.821 127.279 224.54 115.351 224.354 102.992C224.169 90.6344 219.095 78.853 210.244 70.2269C209.891 69.8844 209.61 69.4756 209.415 69.0241C209.221 68.5726 209.117 68.0871 209.111 67.5956C209.104 67.104 209.195 66.6159 209.377 66.1594C209.559 65.7028 209.83 65.2867 210.173 64.9348C210.358 64.7453 210.561 64.5752 210.78 64.4273V64.4273Z" fill="#F8FBFB"/>
</g>
<path d="M128.666 198.156C129.995 198.046 131.289 197.676 132.475 197.068C139.44 193.705 146.791 182.561 148.592 176.663C149.316 174.301 148.712 168.55 148.293 165.329C148.176 164.434 147.708 163.622 146.993 163.072C146.278 162.522 145.373 162.279 144.478 162.396C143.584 162.513 142.772 162.98 142.222 163.696C141.672 164.411 141.429 165.315 141.546 166.21C141.981 169.546 142.226 173.208 142.09 174.475C142.228 174.776 142.289 175.106 142.267 175.435C142.245 175.765 142.141 176.084 141.965 176.364L135.658 186.381L128.666 198.156Z" fill="#CB8591"/>
<path d="M78.3556 164.387C78.3556 164.387 74.4596 196.572 75.1996 199.984C76.8919 207.754 105.317 213.674 105.317 213.674" stroke="#CB8591" stroke-width="6.80705" stroke-linecap="round" stroke-linejoin="round"/>
<path d="M78.3556 164.387C78.3556 164.387 76.7722 177.495 75.8145 187.866" stroke="#F9B42F" stroke-width="7.56339" stroke-linecap="round" stroke-linejoin="round"/>
<path d="M92.6023 127.767C92.6342 128.236 92.628 128.706 92.5837 129.172C92.5444 129.641 92.4672 130.105 92.353 130.558C92.2433 131.017 92.0854 131.46 91.8823 131.878C91.779 132.088 91.6632 132.29 91.5355 132.483C91.4667 132.577 91.396 132.669 91.3253 132.762C91.2899 132.808 91.2565 132.856 91.2172 132.899L91.0966 133.023C90.4455 133.659 89.6835 134.151 88.8515 134.475C88.4438 134.642 88.0243 134.775 87.5965 134.875C87.1713 134.978 86.7376 135.041 86.3003 135.063C87.1421 134.871 87.9611 134.586 88.7445 134.215C89.1314 134.033 89.5055 133.823 89.864 133.585C89.9551 133.528 90.0396 133.462 90.1277 133.398C90.2158 133.334 90.3033 133.276 90.3832 133.204L90.6313 132.998C90.7113 132.926 90.7796 132.847 90.8561 132.774L90.9693 132.662C91.0044 132.623 91.0354 132.58 91.0682 132.537L91.2694 132.271C91.3825 132.084 91.5055 131.906 91.6011 131.707C91.804 131.312 91.9696 130.895 92.0957 130.463C92.2307 130.03 92.3382 129.586 92.4176 129.135C92.5012 128.684 92.5628 128.227 92.6023 127.767V127.767Z" fill="#2C2A46"/>
<path d="M81.3254 155.518C80.8595 155.457 80.4001 155.358 79.9526 155.223C79.5001 155.091 79.0607 154.924 78.6391 154.723C78.2108 154.525 77.8077 154.283 77.4375 154.001C77.2525 153.858 77.0775 153.705 76.9135 153.542C76.8349 153.456 76.758 153.368 76.6812 153.28C76.6428 153.237 76.6026 153.194 76.5677 153.147L76.4699 153.005C75.9758 152.241 75.6432 151.397 75.49 150.517C75.407 150.085 75.3585 149.647 75.345 149.208C75.3286 148.771 75.3526 148.333 75.4166 147.9C75.4394 148.763 75.5565 149.622 75.766 150.464C75.868 150.879 76.0004 151.287 76.1624 151.686C76.2009 151.786 76.248 151.882 76.2934 151.981C76.3389 152.08 76.379 152.177 76.4332 152.27L76.5869 152.554C76.641 152.646 76.7056 152.729 76.7615 152.818L76.8489 152.951C76.8803 152.993 76.917 153.032 76.9519 153.073L77.1737 153.323C77.3344 153.47 77.4846 153.626 77.661 153.759C78.0082 154.036 78.3838 154.28 78.7824 154.489C79.1808 154.707 79.5945 154.9 80.0207 155.067C80.447 155.238 80.8825 155.389 81.3254 155.518V155.518Z" fill="#2C2A46"/>
<path d="M113.615 149.653C114.052 149.482 114.475 149.276 114.877 149.038C115.285 148.803 115.672 148.536 116.034 148.239C116.402 147.945 116.736 147.613 117.028 147.251C117.174 147.069 117.307 146.878 117.427 146.68C117.483 146.578 117.537 146.475 117.591 146.371C117.618 146.32 117.646 146.269 117.669 146.215L117.73 146.053C118.028 145.194 118.149 144.294 118.088 143.404C118.065 142.964 118.008 142.527 117.916 142.098C117.828 141.669 117.7 141.25 117.535 140.845C117.719 141.689 117.81 142.551 117.807 143.418C117.807 143.845 117.776 144.273 117.714 144.699C117.7 144.806 117.678 144.91 117.657 145.017C117.637 145.124 117.621 145.228 117.59 145.331L117.509 145.643C117.478 145.746 117.435 145.841 117.402 145.941L117.349 146.092C117.329 146.14 117.302 146.187 117.278 146.234L117.122 146.53C117.002 146.712 116.893 146.899 116.753 147.07C116.482 147.422 116.176 147.749 115.839 148.047C115.504 148.353 115.148 148.64 114.774 148.903C114.401 149.171 114.014 149.421 113.615 149.653V149.653Z" fill="#2C2A46"/>
<path d="M120.357 139.629C120.569 139.068 120.735 138.492 120.853 137.908C120.978 137.32 121.055 136.726 121.083 136.131C121.118 135.53 121.089 134.931 120.995 134.345C120.947 134.051 120.88 133.762 120.795 133.48C120.746 133.34 120.694 133.2 120.642 133.061C120.615 132.992 120.592 132.921 120.56 132.853L120.459 132.658C119.899 131.642 119.15 130.76 118.254 130.057C117.818 129.703 117.356 129.385 116.87 129.105C116.389 128.824 115.883 128.587 115.358 128.398C116.314 128.944 117.209 129.593 118.028 130.335C118.433 130.7 118.812 131.095 119.162 131.517C119.252 131.621 119.331 131.732 119.415 131.842C119.499 131.953 119.584 132.057 119.655 132.173L119.882 132.517C119.953 132.634 120.007 132.756 120.073 132.873L120.17 133.051C120.199 133.112 120.22 133.177 120.245 133.24L120.392 133.64C120.461 133.91 120.546 134.172 120.589 134.451C120.691 135.008 120.739 135.577 120.734 136.151C120.738 136.73 120.706 137.311 120.636 137.891C120.572 138.473 120.479 139.053 120.357 139.629V139.629Z" fill="#2C2A46"/>
<path d="M100.179 126.393C100.062 126.776 99.9141 127.147 99.7373 127.504C99.5633 127.866 99.3609 128.211 99.1322 128.537C98.9054 128.868 98.6451 129.173 98.3563 129.444C98.2104 129.579 98.0569 129.704 97.8967 129.819C97.8134 129.873 97.7289 129.925 97.6445 129.977C97.6023 130.003 97.5612 130.031 97.5168 130.054L97.3831 130.116C96.6721 130.423 95.9161 130.583 95.156 130.587C94.781 130.596 94.4066 130.575 94.0359 130.524C93.6666 130.476 93.3026 130.394 92.9479 130.279C93.676 130.382 94.4139 130.405 95.15 130.348C95.513 130.321 95.8745 130.267 96.2319 130.188C96.3218 130.17 96.4089 130.143 96.4984 130.119C96.5879 130.095 96.6753 130.075 96.7607 130.043L97.0208 129.954C97.1061 129.921 97.1847 129.879 97.2675 129.844L97.3916 129.79C97.4315 129.769 97.4693 129.744 97.5083 129.72L97.7495 129.569C97.8962 129.455 98.0482 129.351 98.1848 129.222C98.4663 128.969 98.7247 128.689 98.9563 128.383C99.1955 128.08 99.416 127.759 99.6162 127.425C99.82 127.091 100.008 126.747 100.179 126.393V126.393Z" fill="#2C2A46"/>
<path d="M70.1267 143.62C69.8169 143.216 69.5409 142.789 69.302 142.343C69.056 141.896 68.8477 141.432 68.6792 140.955C68.503 140.476 68.3798 139.982 68.3121 139.483C68.2796 139.232 68.263 138.981 68.2625 138.731C68.2682 138.605 68.2764 138.479 68.2846 138.353C68.2888 138.29 68.2903 138.227 68.2996 138.164L68.334 137.98C68.5403 137.018 68.9319 136.117 69.4878 135.327C69.7553 134.932 70.0532 134.56 70.3789 134.213C70.7008 133.866 71.054 133.55 71.4346 133.267C70.7913 133.946 70.2235 134.692 69.7399 135.497C69.5002 135.893 69.2892 136.306 69.1083 136.735C69.0607 136.842 69.0236 136.951 68.9826 137.062C68.9416 137.172 68.8978 137.277 68.8685 137.39L68.7688 137.724C68.7394 137.837 68.7256 137.949 68.7 138.061L68.6651 138.229C68.6568 138.286 68.6551 138.343 68.6508 138.401L68.6293 138.762C68.6393 138.998 68.6351 139.232 68.6682 139.469C68.7221 139.947 68.8224 140.421 68.9676 140.886C69.1058 141.358 69.2747 141.822 69.4733 142.276C69.6686 142.733 69.8867 143.182 70.1267 143.62V143.62Z" fill="#2C2A46"/>
<path d="M72.6193 121.723C72.7095 121.223 72.8401 120.731 73.0095 120.254C73.1746 119.772 73.3781 119.306 73.6176 118.86C73.854 118.407 74.1366 117.984 74.4603 117.598C74.624 117.406 74.7988 117.224 74.9838 117.056C75.0808 116.975 75.1795 116.896 75.2782 116.818C75.3276 116.779 75.3753 116.737 75.4279 116.702L75.5874 116.604C76.4384 116.109 77.3684 115.793 78.3271 115.673C78.799 115.605 79.2747 115.576 79.7502 115.584C80.2235 115.589 80.6953 115.637 81.1604 115.729C80.2259 115.709 79.2912 115.791 78.3707 115.974C77.9166 116.063 77.4684 116.185 77.0294 116.34C76.9186 116.376 76.8127 116.422 76.7033 116.466C76.594 116.51 76.4867 116.548 76.3839 116.602L76.069 116.754C75.9662 116.807 75.8734 116.873 75.774 116.929L75.6257 117.016C75.5784 117.048 75.5344 117.086 75.4888 117.121L75.2072 117.348C75.0392 117.514 74.8631 117.669 74.7101 117.853C74.3929 118.214 74.1091 118.607 73.8628 119.027C73.6066 119.447 73.3766 119.884 73.1743 120.336C72.9673 120.788 72.7821 121.251 72.6193 121.723V121.723Z" fill="#2C2A46"/>
<path d="M100.539 46.0556L99.1378 44.5144C98.8651 44.2145 98.4009 44.1925 98.101 44.4652L96.5599 45.8666C96.26 46.1393 96.2379 46.6034 96.5106 46.9033L97.912 48.4445C98.1847 48.7444 98.6488 48.7664 98.9487 48.4937L100.49 47.0924C100.79 46.8197 100.812 46.3555 100.539 46.0556Z" stroke="#E7EEF1" stroke-width="0.355089" stroke-linecap="round" stroke-linejoin="round"/>
<path d="M100.539 46.0556L99.1378 44.5144C98.8651 44.2145 98.4009 44.1925 98.101 44.4652L96.5599 45.8666C96.26 46.1393 96.2379 46.6034 96.5106 46.9033L97.912 48.4445C98.1847 48.7444 98.6488 48.7664 98.9487 48.4937L100.49 47.0924C100.79 46.8197 100.812 46.3555 100.539 46.0556Z" stroke="#87DDE8" stroke-width="0.355089" stroke-linecap="round" stroke-linejoin="round"/>
<path d="M128.834 31.9083L127.433 30.3671C127.16 30.0672 126.696 30.0452 126.396 30.3178L124.855 31.7192C124.555 31.9919 124.533 32.4561 124.805 32.756L126.207 34.2972C126.479 34.597 126.944 34.6191 127.244 34.3464L128.785 32.945C129.085 32.6723 129.107 32.2082 128.834 31.9083Z" stroke="#87DDE8" stroke-width="0.355089" stroke-linecap="round" stroke-linejoin="round"/>
<path d="M105.076 52.7125L103.955 51.4796C103.737 51.2397 103.365 51.222 103.126 51.4402L101.893 52.5613C101.653 52.7794 101.635 53.1507 101.853 53.3907L102.974 54.6236C103.192 54.8635 103.564 54.8812 103.804 54.663L105.037 53.5419C105.277 53.3238 105.294 52.9524 105.076 52.7125Z" fill="#87DDE8"/>
<path d="M60.3877 94.6394L59.2906 93.3851C59.0771 93.141 58.713 93.1238 58.4774 93.3465L57.2663 94.4913C57.0307 94.714 57.0127 95.0924 57.2262 95.3365L58.3234 96.5908C58.5368 96.8349 58.9009 96.8522 59.1366 96.6295L60.3476 95.4847C60.5833 95.2619 60.6012 94.8835 60.3877 94.6394Z" fill="#87DDE8"/>
<path d="M179.813 218.093C180.414 218.093 180.901 217.605 180.901 217.004C180.901 216.403 180.414 215.916 179.813 215.916C179.212 215.916 178.725 216.403 178.725 217.004C178.725 217.605 179.212 218.093 179.813 218.093Z" stroke="#87DDE8" stroke-width="0.355089" stroke-linecap="round" stroke-linejoin="round"/>
<path d="M185.538 217.612L184.44 216.358C184.227 216.114 183.863 216.097 183.627 216.32L182.416 217.464C182.18 217.687 182.163 218.065 182.376 218.31L183.473 219.564C183.687 219.808 184.051 219.825 184.286 219.602L185.497 218.458C185.733 218.235 185.751 217.857 185.538 217.612Z" fill="#87DDE8"/>
<path d="M61.7368 90.7667C62.3378 90.7667 62.8251 90.2794 62.8251 89.6784C62.8251 89.0774 62.3378 88.5901 61.7368 88.5901C61.1358 88.5901 60.6486 89.0774 60.6486 89.6784C60.6486 90.2794 61.1358 90.7667 61.7368 90.7667Z" stroke="#87DDE8" stroke-width="0.355089" stroke-linecap="round" stroke-linejoin="round"/>
<path d="M125.4 39.6183C126.001 39.6183 126.488 39.1311 126.488 38.5301C126.488 37.9291 126.001 37.4418 125.4 37.4418C124.799 37.4418 124.312 37.9291 124.312 38.5301C124.312 39.1311 124.799 39.6183 125.4 39.6183Z" fill="#87DDE8"/>
<path d="M277.378 105.79C277.77 105.79 278.088 105.472 278.088 105.08C278.088 104.688 277.77 104.37 277.378 104.37C276.985 104.37 276.667 104.688 276.667 105.08C276.667 105.472 276.985 105.79 277.378 105.79Z" fill="#87DDE8"/>
<path d="M281.923 209.983C283.386 210.327 284.85 209.421 285.195 207.958C285.539 206.496 284.633 205.031 283.17 204.686C281.708 204.342 280.243 205.248 279.898 206.711C279.554 208.173 280.46 209.638 281.923 209.983Z" stroke="#87DDE8" stroke-width="0.355089" stroke-linecap="round" stroke-linejoin="round"/>
<path d="M279.037 211.605L278.257 210.132C278.105 209.846 277.754 209.746 277.474 209.908L276.033 210.745C275.752 210.908 275.648 211.272 275.8 211.559L276.58 213.031C276.732 213.317 277.083 213.418 277.363 213.255L278.804 212.418C279.085 212.255 279.189 211.891 279.037 211.605Z" fill="#87DDE8"/>
<path d="M281.107 202.305C281.488 202.395 281.871 202.159 281.961 201.777C282.05 201.395 281.814 201.013 281.432 200.923C281.05 200.833 280.668 201.07 280.578 201.451C280.488 201.833 280.725 202.216 281.107 202.305Z" fill="#87DDE8"/>
<path d="M284.999 106.454L283.597 104.913C283.324 104.613 282.86 104.591 282.56 104.864L281.019 106.265C280.719 106.538 280.697 107.002 280.97 107.302L282.371 108.843C282.644 109.143 283.108 109.165 283.408 108.892L284.949 107.491C285.249 107.218 285.271 106.754 284.999 106.454Z" stroke="#87DDE8" stroke-width="0.355089" stroke-linecap="round" stroke-linejoin="round"/>
<path d="M284.094 127.802L282.973 126.569C282.755 126.329 282.383 126.312 282.143 126.53L280.911 127.651C280.671 127.869 280.653 128.241 280.871 128.481L281.992 129.713C282.21 129.953 282.582 129.971 282.822 129.753L284.055 128.632C284.294 128.414 284.312 128.042 284.094 127.802Z" fill="#87DDE8"/>
<rect opacity="0.3" x="223.392" y="167.192" width="51.9395" height="36.3576" rx="2.96797" fill="#C3EEF4"/>
<rect opacity="0.3" x="226.36" y="170.902" width="51.9395" height="36.3576" rx="2.96797" fill="#C3EEF4"/>
<rect x="221.167" y="164.224" width="51.9395" height="36.3576" rx="2.96797" fill="#F8FBFB"/>
<path d="M221.167 167.192C221.167 165.553 222.495 164.224 224.135 164.224H270.138C271.777 164.224 273.106 165.553 273.106 167.192V172.386H221.167V167.192Z" fill="#343C4C"/>
<circle cx="226.732" cy="168.305" r="1.11299" fill="#FF5A60"/>
<circle cx="229.7" cy="168.305" r="1.11299" fill="#F9B42F"/>
<circle cx="232.667" cy="168.305" r="1.11299" fill="#4DCB7B"/>
<path d="M245.309 180.493V184.692" stroke="#DEE8EC" stroke-width="1.04965"/>
<path d="M245.309 187.316V192.564" stroke="#DEE8EC" stroke-width="1.04965"/>
<rect x="237.961" y="175.77" width="15.7447" height="5.24824" rx="1.25958" fill="#E7EEF1"/>
<rect x="237.961" y="183.118" width="15.7447" height="5.24824" rx="1.25958" fill="#E7EEF1"/>
<rect x="237.961" y="190.465" width="15.7447" height="5.24824" rx="1.25958" fill="#E7EEF1"/>
<rect x="224.316" y="190.465" width="11.5461" height="5.24824" rx="1.25958" fill="#E7EEF1"/>
<path d="M230.089 182.068V177.869H239.535" stroke="#DEE8EC" stroke-width="1.04965" stroke-linejoin="round"/>
<rect x="224.316" y="181.018" width="11.5461" height="7.34754" rx="1.25958" fill="#E7EEF1"/>
<path d="M268.401 177.87H257.904C257.325 177.87 256.855 178.34 256.855 178.919V193.614C256.855 194.194 257.325 194.664 257.904 194.664H268.401C268.98 194.664 269.45 194.194 269.45 193.614V178.919C269.45 178.34 268.98 177.87 268.401 177.87Z" fill="white"/>
<path d="M256.855 177.869C256.855 177.29 257.325 176.82 257.904 176.82H268.401C268.98 176.82 269.45 177.29 269.45 177.869V178.919H256.855V177.869Z" fill="#343C4C"/>
<path d="M256.855 191.515H269.45" stroke="#F5F8F9" stroke-width="0.20993"/>
<path d="M261.053 188.148C261.053 187.689 261.425 187.316 261.884 187.316H267.57C268.029 187.316 268.401 187.689 268.401 188.148V189.277C268.401 189.354 268.339 189.416 268.262 189.416H261.884C261.425 189.416 261.053 189.044 261.053 188.585V188.148Z" fill="#E7EEF1"/>
<path d="M265.252 184.998C265.252 184.539 264.88 184.167 264.421 184.167H258.735C258.276 184.167 257.904 184.539 257.904 184.998V186.128C257.904 186.205 257.966 186.267 258.043 186.267H264.421C264.88 186.267 265.252 185.895 265.252 185.436V184.998Z" fill="#2CC3D5"/>
<rect opacity="0.3" x="67.2059" y="65.7737" width="38.7369" height="27.1159" rx="2.84071" fill="#C3EEF4"/>
<rect opacity="0.3" x="69.4196" y="68.5409" width="38.7369" height="27.1159" rx="2.84071" fill="#C3EEF4"/>
<rect x="65.5458" y="63.5602" width="38.7369" height="27.1159" rx="2.84071" fill="#F8FBFB"/>
<path d="M65.5458 66.4009C65.5458 64.832 66.8176 63.5602 68.3865 63.5602H101.442C103.011 63.5602 104.283 64.832 104.283 66.4009V69.6474H65.5458V66.4009Z" fill="#343C4C"/>
<circle cx="69.6963" cy="66.6038" r="0.830077" fill="#FF5A60"/>
<circle cx="71.9098" cy="66.6038" r="0.830077" fill="#F9B42F"/>
<circle cx="74.1233" cy="66.6038" r="0.830077" fill="#4DCB7B"/>
<rect x="81.6206" y="72.9678" width="19.8792" height="13.4665" rx="1.25211" fill="white"/>
<path d="M99.7923 76.364H95.6275C95.5644 76.3821 95.498 76.3852 95.4335 76.3732C95.3691 76.3612 95.3082 76.3344 95.2559 76.2949C95.2035 76.2554 95.161 76.2043 95.1318 76.1455C95.1025 76.0868 95.0873 76.0221 95.0873 75.9565C95.0873 75.8909 95.1025 75.8262 95.1318 75.7675C95.161 75.7088 95.2035 75.6577 95.2559 75.6182C95.3082 75.5787 95.3691 75.5519 95.4335 75.5399C95.498 75.5279 95.5644 75.531 95.6275 75.549H99.7923C99.8809 75.5743 99.9588 75.6278 100.014 75.7013C100.07 75.7748 100.1 75.8644 100.1 75.9565C100.1 76.0486 100.07 76.1382 100.014 76.2118C99.9588 76.2853 99.8809 76.3388 99.7923 76.364V76.364Z" fill="#D2DFE6"/>
<path d="M99.7923 77.6468H95.6275C95.5644 77.6648 95.498 77.668 95.4335 77.656C95.3691 77.644 95.3082 77.6172 95.2559 77.5777C95.2035 77.5382 95.161 77.487 95.1318 77.4283C95.1025 77.3696 95.0873 77.3049 95.0873 77.2393C95.0873 77.1737 95.1025 77.109 95.1318 77.0503C95.161 76.9916 95.2035 76.9405 95.2559 76.901C95.3082 76.8615 95.3691 76.8346 95.4335 76.8226C95.498 76.8106 95.5644 76.8138 95.6275 76.8318H99.7923C99.8809 76.8571 99.9588 76.9105 100.014 76.9841C100.07 77.0576 100.1 77.1472 100.1 77.2393C100.1 77.3314 100.07 77.421 100.014 77.4945C99.9588 77.5681 99.8809 77.6215 99.7923 77.6468V77.6468Z" fill="#D2DFE6"/>
<path d="M92.1062 83.7809H85.2433C85.1677 83.7809 85.0952 83.7509 85.0417 83.6974C84.9883 83.644 84.9583 83.5715 84.9583 83.4959V76.5475C84.9583 76.4719 84.9883 76.3994 85.0417 76.3459C85.0952 76.2925 85.1677 76.2625 85.2433 76.2625C85.3188 76.2625 85.3913 76.2925 85.4448 76.3459C85.4982 76.3994 85.5283 76.4719 85.5283 76.5475V83.2109H92.1062C92.1818 83.2109 92.2543 83.2409 92.3077 83.2944C92.3612 83.3478 92.3912 83.4203 92.3912 83.4959C92.3912 83.5715 92.3612 83.644 92.3077 83.6974C92.2543 83.7509 92.1818 83.7809 92.1062 83.7809Z" fill="#D2DFE6"/>
<path opacity="0.7" d="M88.2472 81.9341C88.0751 81.9388 87.906 81.8889 87.7641 81.7916C86.4473 80.757 85.6564 81.6932 85.6265 81.7346C85.5652 81.8027 85.4799 81.8446 85.3885 81.8515C85.2971 81.8583 85.2065 81.8297 85.1357 81.7715C85.0648 81.7133 85.0191 81.6301 85.0081 81.539C84.9971 81.448 85.0215 81.3563 85.0765 81.2828C85.0893 81.2672 86.3419 79.7794 88.1887 81.2159C88.2828 81.26 88.5991 81.2159 89.0252 80.4748C89.8175 79.1011 91.2967 78.2204 91.3594 78.1834C91.4409 78.1354 91.538 78.1217 91.6296 78.1454C91.7211 78.169 91.7995 78.2281 91.8475 78.3095C91.8955 78.391 91.9092 78.4881 91.8855 78.5797C91.8619 78.6712 91.8028 78.7496 91.7214 78.7976V78.7976C91.7071 78.8047 90.3391 79.6241 89.6423 80.8311C89.2746 81.4681 88.8713 81.8286 88.4424 81.9213C88.3779 81.9316 88.3125 81.9359 88.2472 81.9341V81.9341ZM88.1873 81.213L88.1987 81.2216L88.1873 81.213Z" fill="#2CC3D5"/>
<path opacity="0.8" d="M85.3401 81.8585C85.2757 81.8583 85.2125 81.8407 85.1573 81.8074C85.1021 81.7741 85.057 81.7265 85.0267 81.6696C84.9965 81.6128 84.9822 81.5487 84.9854 81.4844C84.9887 81.42 85.0093 81.3578 85.0451 81.3042C85.2005 81.0734 86.597 79.074 87.9622 79.074H87.9778C88.3213 79.074 88.8143 79.2165 89.2176 79.8379C89.5468 80.348 89.8974 80.6202 90.2593 80.643C90.7994 80.6758 91.2568 80.1642 91.2568 80.1599C91.2863 80.1218 91.3231 80.0901 91.3652 80.0666C91.4072 80.0432 91.4536 80.0285 91.5014 80.0235C91.5493 80.0184 91.5977 80.0232 91.6437 80.0373C91.6897 80.0515 91.7324 80.0749 91.7691 80.106C91.8058 80.1372 91.8358 80.1754 91.8574 80.2185C91.8789 80.2615 91.8915 80.3085 91.8943 80.3566C91.8972 80.4046 91.8903 80.4527 91.874 80.4981C91.8578 80.5434 91.8325 80.5849 91.7998 80.6202C91.7727 80.653 91.1172 81.4125 90.2137 81.3541C89.6152 81.3142 89.0737 80.9351 88.6205 80.224C88.4324 79.939 88.2201 79.7965 87.9721 79.7866H87.9622C87.2155 79.7866 86.1381 80.9594 85.6337 81.7032C85.6011 81.7511 85.5574 81.7903 85.5062 81.8173C85.455 81.8444 85.398 81.8586 85.3401 81.8585V81.8585Z" fill="#F9B42F"/>
<path d="M68.3127 74.5547L68.3127 84.676C68.3127 85.5525 69.0233 86.2631 69.8998 86.2631L78.1068 86.2631C78.9834 86.2631 79.6939 85.5525 79.6939 84.676L79.6939 74.5547C79.6939 73.6781 78.9834 72.9676 78.1068 72.9676L69.8998 72.9676C69.0233 72.9676 68.3127 73.6781 68.3127 74.5547Z" fill="white"/>
<path d="M73.9999 79.9215C75.1837 79.9215 76.1433 78.9618 76.1433 77.7781C76.1433 76.5943 75.1837 75.6347 73.9999 75.6347C72.8162 75.6347 71.8566 76.5943 71.8566 77.7781C71.8566 78.9618 72.8162 79.9215 73.9999 79.9215Z" fill="#B766F6"/>
<path d="M71.6539 81.7572H76.3497" stroke="#D2DFE6" stroke-width="0.939081" stroke-linecap="round" stroke-linejoin="round"/>
<path d="M72.4622 83.5961H75.5381" stroke="#D2DFE6" stroke-width="0.939081" stroke-linecap="round" stroke-linejoin="round"/>
<path fill-rule="evenodd" clip-rule="evenodd" d="M267.415 108.356L276.624 109.27C277.399 109.348 278.11 109.73 278.604 110.332C279.097 110.934 279.331 111.707 279.255 112.481L278.317 121.922C278.239 122.696 277.858 123.408 277.256 123.901C276.654 124.394 275.881 124.629 275.106 124.552L265.897 123.638C265.513 123.599 265.16 123.411 264.916 123.112C264.672 122.814 264.556 122.431 264.594 122.047L264.699 120.994L262.841 120.809C262.639 120.789 262.453 120.69 262.325 120.533C262.196 120.376 262.135 120.174 262.155 119.972C262.175 119.77 262.275 119.584 262.432 119.456C262.589 119.327 262.79 119.266 262.992 119.286L264.85 119.471L265.161 116.334L263.304 116.15C263.102 116.129 262.916 116.03 262.788 115.873C262.659 115.716 262.598 115.514 262.618 115.313C262.638 115.111 262.738 114.925 262.895 114.796C263.051 114.668 263.253 114.607 263.455 114.627L265.313 114.811L265.624 111.675L263.767 111.49C263.565 111.47 263.379 111.37 263.25 111.213C263.122 111.057 263.061 110.855 263.081 110.653C263.101 110.451 263.2 110.265 263.357 110.137C263.514 110.008 263.716 109.947 263.918 109.967L265.776 110.152L265.825 109.658C265.863 109.275 266.052 108.922 266.35 108.678C266.648 108.433 267.031 108.317 267.415 108.356ZM276.481 122.955C276.832 122.668 277.054 122.252 277.099 121.801L278.037 112.36C278.081 111.909 277.945 111.458 277.658 111.107C277.37 110.756 276.955 110.533 276.503 110.489L267.294 109.574C267.233 109.568 267.173 109.586 267.126 109.625C267.079 109.663 267.049 109.719 267.043 109.779L265.812 122.168C265.806 122.229 265.824 122.289 265.863 122.336C265.902 122.384 265.957 122.413 266.018 122.419L275.227 123.334C275.679 123.379 276.13 123.243 276.481 122.955ZM271.748 116.53C272.106 116.566 272.466 116.494 272.784 116.325C273.101 116.156 273.361 115.896 273.53 115.579C273.7 115.262 273.772 114.902 273.737 114.544C273.702 114.187 273.562 113.847 273.334 113.569C273.106 113.291 272.801 113.087 272.457 112.982C272.113 112.877 271.746 112.877 271.402 112.981C271.058 113.085 270.752 113.289 270.524 113.567C270.295 113.844 270.155 114.184 270.119 114.541C270.095 114.779 270.119 115.019 270.188 115.247C270.257 115.476 270.37 115.688 270.522 115.873C270.673 116.058 270.859 116.211 271.07 116.324C271.28 116.436 271.511 116.506 271.748 116.53ZM272.027 117.25L271.333 117.181C270.613 117.109 269.893 117.327 269.333 117.786C268.773 118.244 268.418 118.907 268.347 119.627L268.286 120.237C268.277 120.324 268.304 120.411 268.359 120.479C268.415 120.546 268.495 120.589 268.582 120.598L274.064 121.143C274.151 121.151 274.238 121.125 274.306 121.069C274.374 121.014 274.417 120.934 274.426 120.846L274.486 120.237C274.522 119.88 274.486 119.518 274.382 119.174C274.277 118.83 274.106 118.51 273.878 118.233C273.649 117.955 273.368 117.725 273.05 117.557C272.733 117.388 272.385 117.284 272.027 117.25Z" fill="#F99B45"/>
<path d="M182.555 198.337L179.598 198.017L179.701 197.068C179.755 196.563 179.607 196.057 179.289 195.661C178.97 195.266 178.508 195.013 178.003 194.958L172.68 194.381C172.429 194.354 172.176 194.376 171.934 194.446C171.692 194.517 171.467 194.634 171.27 194.792C171.074 194.95 170.911 195.144 170.79 195.365C170.669 195.586 170.593 195.829 170.566 196.079L170.463 197.028L167.506 196.707C167.057 196.66 166.607 196.792 166.255 197.076C165.904 197.359 165.679 197.77 165.631 198.219L164.991 204.123C164.963 204.385 164.988 204.649 165.064 204.902C165.14 205.154 165.266 205.388 165.434 205.59L165.083 208.836C165.027 209.363 165.182 209.89 165.514 210.302C165.847 210.714 166.329 210.978 166.855 211.035L180.127 212.472C180.653 212.528 181.179 212.373 181.591 212.042C182.003 211.71 182.267 211.229 182.325 210.703L182.677 207.458C182.885 207.296 183.059 207.094 183.188 206.865C183.317 206.635 183.398 206.381 183.427 206.119L184.067 200.216C184.114 199.766 183.982 199.316 183.699 198.964C183.416 198.612 183.004 198.387 182.555 198.337V198.337ZM172.322 196.269C172.326 196.229 172.346 196.192 172.378 196.167C172.409 196.142 172.45 196.13 172.49 196.134L177.813 196.711C177.853 196.715 177.89 196.735 177.915 196.767C177.94 196.798 177.952 196.838 177.948 196.879L177.845 197.827L172.219 197.218L172.322 196.269ZM167.377 198.47L182.307 200.087L181.675 205.93C181.67 205.964 181.658 205.998 181.638 206.026C181.619 206.055 181.592 206.079 181.562 206.096L181.509 206.109C181.483 206.12 181.455 206.126 181.427 206.125L175.196 206.22C175.227 205.93 175.142 205.639 174.959 205.412C174.776 205.184 174.51 205.039 174.22 205.007C173.929 204.976 173.639 205.061 173.411 205.244C173.184 205.427 173.038 205.693 173.007 205.983V205.983L166.915 204.554C166.862 204.541 166.816 204.51 166.784 204.465C166.753 204.421 166.739 204.367 166.744 204.313L167.377 198.47ZM180.317 210.716L167.045 209.278C166.984 209.272 166.928 209.241 166.89 209.193C166.851 209.145 166.833 209.084 166.84 209.023L167.122 206.419L172.879 207.772C172.924 207.999 173.041 208.205 173.212 208.361C173.382 208.517 173.598 208.614 173.828 208.639C174.058 208.664 174.29 208.615 174.49 208.499C174.69 208.383 174.848 208.207 174.942 207.995L180.855 207.906L180.572 210.513C180.565 210.574 180.534 210.629 180.486 210.667C180.438 210.705 180.378 210.722 180.317 210.716Z" fill="#41B2C0"/>
<path d="M117.93 48.4153L112.847 47.9672C112.639 47.9481 112.446 47.8473 112.312 47.6867C112.177 47.5261 112.111 47.3188 112.129 47.11L112.178 46.5535C112.25 45.7566 112.634 45.0206 113.247 44.5068C113.861 43.9929 114.653 43.7431 115.45 43.8121L116.095 43.869C116.892 43.9406 117.628 44.3251 118.142 44.9383C118.656 45.5515 118.906 46.3434 118.837 47.1405L118.787 47.7018C118.767 47.9095 118.666 48.1009 118.505 48.2345C118.345 48.368 118.138 48.433 117.93 48.4153V48.4153ZM113.108 47.0191L117.84 47.4362L117.874 47.0507C117.921 46.5089 117.752 45.9704 117.403 45.5535C117.053 45.1366 116.553 44.8756 116.011 44.8278L115.365 44.7709C114.823 44.7231 114.285 44.8925 113.868 45.2419C113.451 45.5912 113.19 46.0918 113.142 46.6336L113.108 47.0191Z" fill="black"/>
<path opacity="0.7" fill-rule="evenodd" clip-rule="evenodd" d="M110.437 42.6915C110.743 42.9366 111.115 43.0856 111.505 43.1195C112.028 43.1643 112.547 43.0001 112.949 42.6629C113.351 42.3257 113.603 41.8429 113.649 41.3203C113.684 40.93 113.602 40.5382 113.413 40.1946C113.225 39.851 112.939 39.5709 112.592 39.3898C112.244 39.2088 111.851 39.1349 111.461 39.1775C111.072 39.22 110.704 39.3772 110.403 39.629C110.103 39.8809 109.885 40.2161 109.775 40.5923C109.665 40.9685 109.67 41.3687 109.788 41.7424C109.906 42.1161 110.132 42.4464 110.437 42.6915ZM111.191 40.2592C111.367 40.1631 111.568 40.1215 111.768 40.1396C112.034 40.1638 112.281 40.2926 112.453 40.4979C112.625 40.7033 112.709 40.9684 112.686 41.2353C112.669 41.4352 112.593 41.6255 112.467 41.7821C112.342 41.9387 112.173 42.0546 111.981 42.115C111.79 42.1754 111.585 42.1777 111.393 42.1215C111.2 42.0654 111.028 41.9533 110.9 41.7996C110.771 41.6458 110.69 41.4573 110.669 41.2578C110.647 41.0583 110.685 40.857 110.778 40.6792C110.871 40.5014 111.015 40.3552 111.191 40.2592ZM119.031 43.4515C119.337 43.6961 119.71 43.8443 120.1 43.8773C120.622 43.9208 121.14 43.7559 121.541 43.4187C121.942 43.0815 122.193 42.5994 122.24 42.0776C122.274 41.6871 122.192 41.2951 122.004 40.9514C121.815 40.6076 121.529 40.3276 121.181 40.1466C120.833 39.9657 120.44 39.892 120.05 39.935C119.66 39.978 119.292 40.1356 118.992 40.3879C118.692 40.6403 118.474 40.976 118.365 41.3525C118.255 41.7291 118.261 42.1296 118.379 42.5032C118.498 42.8769 118.725 43.2069 119.031 43.4515ZM119.785 41.0145C119.962 40.9191 120.163 40.8783 120.363 40.8974C120.629 40.9221 120.875 41.0512 121.046 41.2565C121.217 41.4617 121.3 41.7264 121.276 41.9927C121.259 42.1928 121.183 42.3832 121.057 42.5399C120.932 42.6966 120.762 42.8124 120.571 42.8727C120.379 42.9329 120.174 42.9349 119.981 42.8783C119.789 42.8218 119.617 42.7092 119.489 42.555C119.36 42.4008 119.28 42.2118 119.259 42.0121C119.238 41.8124 119.277 41.6109 119.37 41.4333C119.464 41.2557 119.609 41.1099 119.785 41.0145ZM121.973 48.3856L118.27 48.0591C118.142 48.0479 118.024 47.9863 117.942 47.888C117.859 47.7897 117.819 47.6626 117.831 47.5349L117.873 47.0531C117.919 46.5668 117.789 46.0803 117.509 45.6808C117.444 45.5908 117.411 45.4812 117.418 45.3703C117.424 45.2595 117.468 45.1542 117.543 45.072C117.826 44.76 118.178 44.5182 118.57 44.3658C118.963 44.2133 119.386 44.1543 119.805 44.1936L120.35 44.2416C120.707 44.2725 121.055 44.3736 121.374 44.5391C121.692 44.7047 121.975 44.9314 122.206 45.2063C122.437 45.4812 122.611 45.799 122.719 46.1413C122.827 46.4837 122.866 46.844 122.835 47.2015L122.791 47.6978C122.773 47.8974 122.677 48.0818 122.524 48.2107C122.37 48.3396 122.172 48.4025 121.973 48.3856ZM118.837 47.138L121.846 47.4033L121.871 47.1166C121.891 46.8857 121.865 46.6532 121.795 46.4323C121.725 46.2114 121.613 46.0064 121.463 45.8291C121.314 45.6518 121.132 45.5056 120.926 45.399C120.72 45.2923 120.495 45.2273 120.265 45.2076L119.701 45.1579C119.276 45.119 118.852 45.2371 118.509 45.4898C118.773 45.9966 118.887 46.5685 118.837 47.138ZM108.873 47.2307L112.575 47.5571C112.639 47.5647 112.704 47.5594 112.766 47.5415C112.828 47.5236 112.886 47.4934 112.936 47.4528C112.986 47.4122 113.028 47.362 113.059 47.3051C113.089 47.2482 113.108 47.1857 113.114 47.1215L113.156 46.6397C113.2 46.1517 113.417 45.6955 113.767 45.3534C113.847 45.2762 113.898 45.1739 113.911 45.0637C113.924 44.9534 113.899 44.842 113.84 44.7481C113.616 44.3914 113.312 44.0917 112.952 43.8729C112.592 43.6541 112.186 43.5221 111.766 43.4873L111.195 43.437C110.838 43.4048 110.478 43.4434 110.135 43.5506C109.793 43.6577 109.475 43.8312 109.2 44.0613C108.925 44.2913 108.697 44.5734 108.531 44.8913C108.365 45.2092 108.263 45.5568 108.231 45.9141L108.187 46.4104C108.17 46.61 108.232 46.8083 108.36 46.9621C108.489 47.1159 108.673 47.2124 108.873 47.2307ZM112.178 46.551L109.169 46.2858L109.202 45.9997C109.244 45.5349 109.468 45.1055 109.826 44.8057C110.183 44.5059 110.645 44.3602 111.11 44.4006L111.674 44.4503C112.099 44.4863 112.496 44.6768 112.79 44.9856C112.441 45.4383 112.228 45.9815 112.178 46.551Z" fill="#FF7B80"/>
<path fill-rule="evenodd" clip-rule="evenodd" d="M114.641 42.9017C114.977 43.1713 115.385 43.3354 115.814 43.3732C116.389 43.4239 116.96 43.2441 117.403 42.8734C117.845 42.5026 118.122 41.9713 118.173 41.3963C118.211 40.9675 118.121 40.5371 117.914 40.1595C117.707 39.782 117.393 39.4742 117.011 39.2752C116.629 39.0762 116.197 38.9948 115.769 39.0414C115.341 39.088 114.937 39.2604 114.607 39.5369C114.277 39.8134 114.036 40.1815 113.916 40.5947C113.795 41.0079 113.799 41.4476 113.929 41.8583C114.058 42.2689 114.306 42.632 114.641 42.9017ZM115.424 40.1446C115.634 40.0298 115.873 39.9796 116.111 40.0006C116.269 40.0146 116.423 40.0595 116.564 40.133C116.705 40.2064 116.83 40.3068 116.932 40.4285C117.034 40.5502 117.111 40.6908 117.158 40.8423C117.206 40.9938 117.223 41.1532 117.209 41.3113C117.188 41.5496 117.097 41.7762 116.947 41.9626C116.798 42.149 116.596 42.2868 116.368 42.3586C116.14 42.4304 115.895 42.4329 115.666 42.3658C115.436 42.2987 115.232 42.1651 115.078 41.9818C114.924 41.7985 114.829 41.5737 114.803 41.336C114.777 41.0982 114.822 40.8582 114.933 40.6461C115.043 40.434 115.214 40.2595 115.424 40.1446ZM112.847 47.9672L117.93 48.4153C118.138 48.433 118.345 48.368 118.505 48.2345C118.666 48.1009 118.767 47.9095 118.787 47.7018L118.837 47.1405C118.906 46.3434 118.656 45.5515 118.142 44.9383C117.628 44.3251 116.892 43.9406 116.095 43.869L115.45 43.8121C114.653 43.7431 113.861 43.9929 113.247 44.5068C112.634 45.0207 112.25 45.7567 112.178 46.5535L112.129 47.11C112.111 47.3188 112.177 47.5261 112.311 47.6867C112.446 47.8473 112.639 47.9481 112.847 47.9672ZM117.84 47.4362L113.108 47.0191L113.142 46.6336C113.19 46.0919 113.451 45.5912 113.868 45.2419C114.285 44.8926 114.823 44.7231 115.365 44.7709L116.011 44.8278C116.553 44.8756 117.053 45.1366 117.402 45.5535C117.752 45.9704 117.921 46.509 117.873 47.0508L117.84 47.4362Z" fill="#FF7B80"/>
<defs>
<filter id="filter0_f" x="0.0571785" y="318.019" width="192.463" height="50.4458" filterUnits="userSpaceOnUse" color-interpolation-filters="sRGB">
<feFlood flood-opacity="0" result="BackgroundImageFix"/>
<feBlend mode="normal" in="SourceGraphic" in2="BackgroundImageFix" result="shape"/>
<feGaussianBlur stdDeviation="7.44224" result="effect1_foregroundBlur"/>
</filter>
<filter id="filter1_f" x="174.925" y="39.0743" width="40.6209" height="35.3717" filterUnits="userSpaceOnUse" color-interpolation-filters="sRGB">
<feFlood flood-opacity="0" result="BackgroundImageFix"/>
<feBlend mode="normal" in="SourceGraphic" in2="BackgroundImageFix" result="shape"/>
<feGaussianBlur stdDeviation="5.44128" result="effect1_foregroundBlur"/>
</filter>
<filter id="filter2_f" x="193.913" y="51.7542" width="51.6589" height="101.911" filterUnits="userSpaceOnUse" color-interpolation-filters="sRGB">
<feFlood flood-opacity="0" result="BackgroundImageFix"/>
<feBlend mode="normal" in="SourceGraphic" in2="BackgroundImageFix" result="shape"/>
<feGaussianBlur stdDeviation="5.44128" result="effect1_foregroundBlur"/>
</filter>
</defs>
</svg>
