<svg width="340" height="348" viewBox="0 0 340 348" fill="none" xmlns="http://www.w3.org/2000/svg">
<path d="M301.088 70.0216C297.569 52.2261 284.861 39.7863 266.238 35.94C257.95 34.2907 249.517 33.4751 241.066 33.5056C229.946 33.5056 214.329 34.9419 203.136 41.8556C184.367 53.419 182.216 76.3511 182.607 88.9613C182.998 101.572 186.078 119.318 198.224 131.831C208.268 142.25 227.917 147.217 242.703 147.582V160.533C242.693 161.272 242.832 162.006 243.111 162.691C243.389 163.376 243.803 163.998 244.326 164.522C244.85 165.046 245.473 165.46 246.16 165.741C246.846 166.022 247.582 166.163 248.324 166.156H248.837C249.994 166.063 251.091 165.602 251.966 164.842C257.758 159.973 265.358 153.327 272.739 146.462L276.014 143.468C281.931 138.445 287.282 132.796 291.973 126.622C301.968 112.453 305.39 91.274 301.088 70.0216Z" fill="#87DDE8"/>
<path d="M95.0661 167.145C98.6691 173.467 102.382 179.979 102.382 179.979L96.2001 183.216L89.2622 172.303L92.3775 166.402L95.0661 167.145Z" fill="url(#paint0_linear)"/>
<path fill-rule="evenodd" clip-rule="evenodd" d="M87.5124 153.745L96.2304 166.011L88.8171 173.217L87.3356 170.779C88.1952 172.437 89.5304 178.576 87.6404 181.527C85.0982 185.478 86.7808 188.136 86.7808 188.136L68.7046 197.561L50.2809 207.169C50.2809 207.169 49.0921 165.133 55.6703 158.08C62.2484 151.026 63.4677 149.843 63.4677 149.843L73.9355 148.429C73.9355 148.429 83.2327 149.289 86.6284 152.483C86.9871 152.809 87.2862 153.195 87.5124 153.623V153.745Z" fill="url(#paint1_linear)"/>
<path fill-rule="evenodd" clip-rule="evenodd" d="M87.5124 153.745L96.2304 166.011L88.8171 173.217L87.3356 170.779C88.1952 172.437 89.5304 178.576 87.6404 181.527C85.0982 185.478 86.7808 188.136 86.7808 188.136L68.7046 197.561L50.2809 207.169C50.2809 207.169 49.0921 165.133 55.6703 158.08C62.2484 151.026 63.4677 149.843 63.4677 149.843L73.9355 148.429C73.9355 148.429 83.2327 149.289 86.6284 152.483C86.9871 152.809 87.2862 153.195 87.5124 153.623V153.745Z" fill="url(#paint2_linear)"/>
<path fill-rule="evenodd" clip-rule="evenodd" d="M163.935 64.6618C178.328 55.0459 195.249 49.9141 212.558 49.9153C235.767 49.9169 258.024 59.1371 274.435 75.548C290.846 91.9589 300.066 114.216 300.068 137.425C300.069 154.734 294.937 171.655 285.321 186.048C275.705 200.441 262.037 211.659 246.046 218.284C230.054 224.908 212.457 226.642 195.48 223.265C178.503 219.889 162.909 211.553 150.669 199.314C145.444 194.089 140.93 188.252 137.21 181.957L118.025 192.757L111.575 180.875L131.345 170.056C129.334 165.05 127.78 159.845 126.718 154.503C123.341 137.526 125.075 119.929 131.699 103.937C138.324 87.9457 149.542 74.2777 163.935 64.6618ZM170.347 200.599C182.842 208.946 197.531 213.401 212.558 213.4C222.535 213.4 232.414 211.435 241.632 207.616C250.849 203.798 259.224 198.202 266.278 191.147C273.333 184.092 278.928 175.716 282.746 166.499C286.563 157.281 288.528 147.402 288.527 137.425C288.527 122.398 284.071 107.709 275.722 95.2148C267.374 82.7206 255.508 72.9828 241.625 67.2326C227.742 61.4824 212.466 59.9782 197.728 62.9102C182.99 65.8422 169.453 73.0787 158.828 83.7046C148.203 94.3305 140.967 107.868 138.036 122.607C135.105 137.345 136.611 152.621 142.362 166.503C148.113 180.386 157.852 192.251 170.347 200.599Z" fill="url(#paint3_linear)"/>
<path d="M40.4535 330.855C40.4535 330.855 35.9969 336.342 35.5458 336.897C35.0946 337.452 33.1071 338.939 48.129 347.145C48.7021 347.456 49.5007 348.029 50.2079 347.999C50.5127 347.999 52.238 345.743 52.238 344.579C52.238 343.719 51.8479 342.75 50.7322 341.756C50.7322 341.756 47.7815 339.238 46.3854 337.098C45.922 336.391 47.2267 333.379 47.0926 332.831C46.5561 330.551 42.319 328.228 42.319 328.228L40.4535 330.855Z" fill="url(#paint4_linear)"/>
<path d="M87.6649 334.849C87.6649 334.849 87.1589 342.104 87.1223 342.859C87.0857 343.615 86.2688 346.042 103.821 344.018C104.497 343.939 105.503 343.945 106.082 343.5C106.332 343.311 106.454 340.39 105.759 339.409C105.247 338.683 104.345 338.11 102.815 337.921C102.815 337.921 98.8276 337.556 96.3829 336.586C95.566 336.257 94.8771 332.928 94.4259 332.55C92.597 330.941 87.6649 331.508 87.6649 331.508V334.849Z" fill="url(#paint5_linear)"/>
<path d="M54.6641 236.518C54.6641 236.518 48.4822 293.606 39.2033 317.516L35.899 328.527C37.465 330.396 39.4984 331.818 41.7921 332.647C44.0859 333.475 46.5583 333.682 48.9577 333.245C48.9577 333.245 66.8937 272.518 67.857 268.11C68.8202 263.702 72.4233 248.296 71.8136 246.406C71.204 244.516 71.8136 245.004 71.8136 245.004L73.9108 228.501L72.8927 221.557L68.9482 222.66L58.261 227.068L53.7008 233.829L54.6641 236.518Z" fill="url(#paint6_linear)"/>
<path opacity="0.3" d="M54.6641 236.518C54.6641 236.518 48.4822 293.606 39.2033 317.516L35.899 328.527C37.465 330.396 39.4984 331.818 41.7921 332.647C44.0859 333.475 46.5583 333.682 48.9577 333.245C48.9577 333.245 66.8937 272.518 67.857 268.11C68.8202 263.702 72.4233 248.296 71.8136 246.406C71.204 244.516 71.8136 245.004 71.8136 245.004L73.9108 228.501L72.8927 221.557L68.9482 222.66L58.261 227.068L53.7008 233.829L54.6641 236.518Z" fill="black"/>
<path d="M53.9816 239.401C54.0879 240.295 54.4247 241.147 54.9591 241.871C55.4935 242.596 56.2071 243.169 57.0299 243.535C60.7844 245.189 64.8232 246.102 68.9242 246.223L71.7895 246.382L78.0629 257.868C78.0629 257.868 82.6231 266.702 82.7877 269.39C82.9523 272.079 82.7877 327.758 82.7877 327.758C82.7877 327.758 82.178 334.16 91.4387 333.477C100.699 332.794 97.8888 328.386 97.8888 328.386L96.9865 266.342C96.8929 259.927 95.4883 253.599 92.8591 247.747L83.0782 225.645L78.4043 226.751L71.8139 224.221L61.5657 223.294L56.0788 230.324L54.3474 227.739C54.3474 227.739 53.4329 234.866 53.9816 239.401Z" fill="url(#paint7_linear)"/>
<path d="M121.805 193.617L112.825 177.394C112.492 176.794 111.935 176.35 111.276 176.16C110.616 175.97 109.908 176.05 109.307 176.382L19.6154 223.148C18.6038 223.65 17.731 224.393 17.074 225.311C16.417 226.23 15.9959 227.296 15.8477 228.415C15.5063 231.031 15.7807 234.988 18.073 240.523C20.5116 246.431 25.5473 249.058 28.7968 250.192C29.6487 250.487 30.5563 250.586 31.4516 250.48C32.3469 250.375 33.2067 250.068 33.9666 249.583L85.1408 217.234L107.216 204.432L120.763 197.116C121.363 196.788 121.81 196.237 122.005 195.581C122.201 194.926 122.129 194.219 121.805 193.617Z" fill="url(#paint8_linear)"/>
<path d="M63.4492 141.674V152.441C63.4492 152.441 67.2047 155.629 71.2162 153.623C71.2162 153.623 73.5755 152.087 73.8133 151.258C74.0511 150.429 73.8133 141.674 73.8133 141.674L66.0281 139.699L63.4492 141.674Z" fill="url(#paint9_linear)"/>
<path d="M63.4492 141.674V152.441C63.4492 152.441 67.2047 155.629 71.2162 153.623C71.2162 153.623 73.5755 152.087 73.8133 151.258C74.0511 150.429 73.8133 141.674 73.8133 141.674L66.0281 139.699L63.4492 141.674Z" fill="url(#paint10_linear)"/>
<path d="M83.3607 132.98C83.2448 132.566 81.9402 131.152 81.7573 129.932C81.2566 126.602 81.0789 123.231 81.2269 119.867L74.5207 114.99L67.8145 119.867C67.8145 119.867 59.889 133.279 61.718 138.766C63.5469 144.253 69.0338 144.253 76.3496 144.863C79.3979 145.113 81.1781 140.455 82.1413 136.023C82.3425 135.114 83.7264 134.267 83.3607 132.98Z" fill="url(#paint11_linear)"/>
<path d="M83.3607 132.98C83.2448 132.566 81.9402 131.152 81.7573 129.932C81.2566 126.602 81.0789 123.231 81.2269 119.867L74.5207 114.99L67.8145 119.867C67.8145 119.867 59.889 133.279 61.718 138.766C63.5469 144.253 69.0338 144.253 76.3496 144.863C79.3979 145.113 81.1781 140.455 82.1413 136.023C82.3425 135.114 83.7264 134.267 83.3607 132.98Z" fill="url(#paint12_linear)"/>
<path d="M72.2404 121.854C72.2404 121.854 68.2654 125.866 68.8568 128.701C69.2835 130.624 69.8395 132.516 70.5212 134.364C70.5212 134.364 68.1374 128.268 66.5523 128.542C65.9337 128.699 65.3933 129.076 65.032 129.602C64.6708 130.128 64.5134 130.768 64.5892 131.401C64.702 133.048 64.5098 134.702 64.0223 136.279C63.0285 138.358 63.4126 142.101 64.2174 144.887C65.394 149.154 62.6932 154.032 60.9191 155.952C59.145 157.873 56.2858 166.969 54.4019 168.371C52.5181 169.773 45.8119 172.455 41.8736 164.597C34.3444 149.532 47.6165 146.307 49.2687 141.467C50.9208 136.626 49.6223 131.554 49.5064 124.829C49.3906 118.105 53.3351 114.605 59.5352 111.258C84.2018 97.9437 86.2014 116.331 82.0924 119.989C77.9833 123.647 72.2404 121.854 72.2404 121.854Z" fill="url(#paint13_linear)"/>
<path d="M72.2404 121.854C72.2404 121.854 68.2654 125.866 68.8568 128.701C69.2835 130.624 69.8395 132.516 70.5212 134.364C70.5212 134.364 68.1374 128.268 66.5523 128.542C65.9337 128.699 65.3933 129.076 65.032 129.602C64.6708 130.128 64.5134 130.768 64.5892 131.401C64.702 133.048 64.5098 134.702 64.0223 136.279C63.0285 138.358 63.4126 142.101 64.2174 144.887C65.394 149.154 62.6932 154.032 60.9191 155.952C59.145 157.873 56.2858 166.969 54.4019 168.371C52.5181 169.773 45.8119 172.455 41.8736 164.597C34.3444 149.532 47.6165 146.307 49.2687 141.467C50.9208 136.626 49.6223 131.554 49.5064 124.829C49.3906 118.105 53.3351 114.605 59.5352 111.258C84.2018 97.9437 86.2014 116.331 82.0924 119.989C77.9833 123.647 72.2404 121.854 72.2404 121.854Z" fill="url(#paint14_linear)"/>
<path d="M115.666 199.89C115.666 199.89 108.271 198.945 107.168 202.091C106.064 205.236 104.339 207.285 104.967 208.541C105.595 209.797 110.313 213.107 113.148 212.162C115.983 211.217 117.709 206.065 117.709 206.065C117.709 206.065 118.971 202.749 118.971 201.963C118.971 201.176 118.026 198.67 118.026 198.67L115.666 199.89Z" fill="url(#paint15_linear)"/>
<path d="M55.7981 203.389C55.8324 203.678 55.8915 203.964 55.9749 204.243L56.6639 206.492C59.9255 215.844 67.8144 224.3 70.6859 226.641C71.2955 227.135 75.429 229.812 79.7453 228.019C86.2015 225.343 86.6527 221.313 85.1163 217.253L76.6239 222.167C76.6239 222.167 75.6911 222.825 74.7949 221.661L74.1182 220.85C72.1064 218.411 70.5639 215.314 69.241 212.119C67.7839 208.553 64.9734 199.451 64.9734 199.451C64.9734 199.451 63.3578 195.628 63.6139 189.611C63.7602 186.209 63.5908 185.986 63.5908 185.986L58.8044 185.644L54.4813 186.599C54.4813 186.599 53.9143 186.313 55.7981 203.389Z" fill="url(#paint16_linear)"/>
<path d="M55.7981 203.389C55.8324 203.678 55.8915 203.964 55.9749 204.243L56.6639 206.492C59.9255 215.844 67.8144 224.3 70.6859 226.641C71.2955 227.135 75.429 229.812 79.7453 228.019C86.2015 225.343 86.6527 221.313 85.1163 217.253L76.6239 222.167C76.6239 222.167 75.6911 222.825 74.7949 221.661L74.1182 220.85C72.1064 218.411 70.5639 215.314 69.241 212.119C67.7839 208.553 64.9734 199.451 64.9734 199.451C64.9734 199.451 63.3578 195.628 63.6139 189.611C63.7602 186.209 63.5908 185.986 63.5908 185.986L58.8044 185.644L54.4813 186.599C54.4813 186.599 53.9143 186.313 55.7981 203.389Z" fill="url(#paint17_linear)"/>
<path d="M53.3843 187.087C55.0748 186.044 56.9887 185.417 58.9687 185.258C59.9603 185.167 60.9583 185.167 61.9499 185.258C62.9391 185.349 63.921 185.508 64.8884 185.734L64.1385 186.343C64.0837 185.319 64.0776 184.319 64.0959 183.295C64.1142 182.271 64.1751 181.277 64.3153 180.277C64.4289 179.271 64.6102 178.273 64.8579 177.29C65.1014 176.306 65.4703 175.357 65.9553 174.467C65.7153 175.431 65.5462 176.411 65.4493 177.4C65.3396 178.375 65.303 179.363 65.2664 180.351C65.2298 181.338 65.2298 182.32 65.2664 183.307C65.303 184.295 65.303 185.283 65.3639 186.252L65.4188 187.075L64.6141 186.886C63.6998 186.662 62.7737 186.489 61.8402 186.368C60.9025 186.241 59.9575 186.176 59.0114 186.173C57.0996 186.184 55.2012 186.493 53.3843 187.087Z" fill="#F9B42F"/>
<path d="M83.4202 165.473C83.4202 165.473 86.7976 168.698 87.2975 170.758L83.4202 165.473Z" fill="#F9B42F"/>
<path d="M294 244.038C293.831 243.993 293.673 243.914 293.534 243.806C293.396 243.699 293.279 243.565 293.192 243.412C293.105 243.259 293.048 243.089 293.025 242.914C293.002 242.739 293.014 242.56 293.06 242.39L293.666 240.17C290.944 239.279 287.638 237.312 286.317 234.835C284.68 231.757 285.038 228.204 285.63 225.784C286.65 221.549 288.922 218.71 292.03 217.795C294.513 217.057 297.532 217.605 299.624 218.195C301.206 218.637 302.741 219.239 304.204 219.991C307.547 221.735 309.306 224.826 309.038 228.466C308.718 232.753 306.955 236.635 304.336 238.831C303.134 239.763 301.836 240.562 300.466 241.213L299.704 241.604C297.974 242.518 296.224 243.361 294.894 243.985C294.646 244.099 294.371 244.133 294.104 244.086L294 244.038ZM299.206 219.782C296.539 219.034 294.165 218.886 292.514 219.377C289.119 220.382 287.76 224.055 287.252 226.16C286.744 228.266 286.401 231.433 287.788 234.044C288.922 236.168 292.115 238.007 294.682 238.731C294.819 238.768 294.947 238.832 295.058 238.92C295.17 239.007 295.264 239.117 295.333 239.241C295.403 239.366 295.447 239.504 295.464 239.646C295.48 239.788 295.469 239.932 295.43 240.07L294.861 242.132C296.064 241.551 297.522 240.842 298.961 240.084L299.732 239.684C300.993 239.09 302.19 238.363 303.301 237.517C305.596 235.611 307.134 232.162 307.416 228.313C307.637 225.327 306.24 222.888 303.475 221.444C302.11 220.749 300.68 220.193 299.206 219.786V219.782Z" fill="#F66689"/>
<path d="M112.48 62.2233C119.467 62.2233 125.13 56.5598 125.13 49.5735C125.13 42.5872 119.467 36.9237 112.48 36.9237C105.494 36.9237 99.8306 42.5872 99.8306 49.5735C99.8306 56.5598 105.494 62.2233 112.48 62.2233Z" fill="url(#paint18_linear)"/>
<path opacity="0.5" d="M112.113 48.5649C112.629 48.5649 113.134 48.4118 113.563 48.1249C113.993 47.838 114.327 47.4302 114.525 46.9531C114.722 46.4761 114.774 45.9511 114.673 45.4446C114.573 44.9382 114.324 44.4729 113.959 44.1078C113.594 43.7427 113.128 43.494 112.622 43.3932C112.116 43.2925 111.591 43.3442 111.113 43.5418C110.636 43.7394 110.229 44.0741 109.942 44.5034C109.655 44.9328 109.502 45.4376 109.502 45.954C109.503 46.6462 109.778 47.3098 110.267 47.7992C110.757 48.2887 111.42 48.564 112.113 48.5649Z" fill="white"/>
<g opacity="0.5">
<path opacity="0.5" d="M112.841 53.9892C112.841 53.2734 113.126 52.587 113.632 52.081C114.138 51.5749 114.824 51.2905 115.54 51.2905H115.688C115.208 50.509 114.485 49.9056 113.631 49.5721C112.776 49.2386 111.836 49.1933 110.953 49.4429C110.07 49.6925 109.293 50.2235 108.739 50.9552C108.186 51.6868 107.886 52.5792 107.886 53.4967V55.0382C107.887 55.2428 107.969 55.4388 108.113 55.5835C108.258 55.7282 108.454 55.8098 108.658 55.8107H113.536C113.086 55.3113 112.838 54.6617 112.841 53.9892Z" fill="white"/>
</g>
<path d="M115.55 51.2804C115.016 51.2804 114.495 51.4387 114.051 51.7352C113.607 52.0317 113.261 52.4532 113.057 52.9463C112.853 53.4394 112.799 53.982 112.903 54.5055C113.007 55.029 113.264 55.5098 113.642 55.8872C114.019 56.2646 114.5 56.5217 115.024 56.6258C115.547 56.7299 116.09 56.6765 116.583 56.4722C117.076 56.268 117.497 55.9221 117.794 55.4783C118.09 55.0345 118.249 54.5128 118.249 53.979C118.249 53.2633 117.964 52.5769 117.458 52.0708C116.952 51.5647 116.266 51.2804 115.55 51.2804ZM116.93 53.608L115.321 55.1225C115.271 55.1701 115.204 55.1967 115.135 55.1968C115.066 55.1968 114.999 55.1716 114.946 55.1259L114.154 54.3872C114.101 54.3383 114.069 54.2704 114.066 54.1984C114.063 54.1263 114.088 54.056 114.137 54.0026C114.186 53.9494 114.255 53.9178 114.327 53.9147C114.4 53.9115 114.471 53.9371 114.525 53.9858L115.132 54.5491L116.555 53.1998C116.581 53.1742 116.611 53.1539 116.644 53.14C116.677 53.1261 116.713 53.119 116.749 53.119C116.785 53.119 116.821 53.1261 116.854 53.14C116.888 53.1539 116.918 53.1742 116.943 53.1998C116.972 53.2261 116.994 53.2582 117.009 53.2939C117.024 53.3297 117.031 53.3682 117.03 53.407C117.029 53.4457 117.019 53.4837 117.002 53.5184C116.984 53.553 116.96 53.5836 116.93 53.608Z" fill="white"/>
<path d="M143.25 289.919C152.125 289.919 159.319 282.725 159.319 273.85C159.319 264.976 152.125 257.782 143.25 257.782C134.376 257.782 127.182 264.976 127.182 273.85C127.182 282.725 134.376 289.919 143.25 289.919Z" fill="url(#paint19_linear)"/>
<path opacity="0.5" d="M152.484 269.45C152.329 268.604 151.916 267.826 151.303 267.222C150.69 266.619 149.905 266.219 149.056 266.078C148.255 265.917 147.44 265.837 146.623 265.838C145.543 265.838 144.026 265.979 142.929 266.656C142.027 267.242 141.385 268.154 141.138 269.201C141.995 269.274 142.826 269.529 143.576 269.951C144.947 270.808 145.663 272.445 145.598 274.583C145.581 275.355 145.451 276.12 145.213 276.854C145.684 276.957 146.163 277.021 146.644 277.047V278.187C146.644 278.364 146.714 278.534 146.84 278.66C146.965 278.785 147.135 278.855 147.312 278.855H147.372C147.508 278.843 147.637 278.789 147.741 278.701C148.294 278.225 149.026 277.596 149.733 276.931L150.042 276.644C150.616 276.158 151.134 275.611 151.589 275.012C152.562 273.593 152.896 271.524 152.484 269.45Z" fill="white"/>
<path d="M143.571 269.951C142.474 269.27 140.957 269.128 139.878 269.128C139.06 269.128 138.245 269.208 137.444 269.368C136.595 269.512 135.811 269.913 135.198 270.517C134.585 271.121 134.172 271.899 134.016 272.745C133.587 274.819 133.943 276.889 134.916 278.277C135.37 278.877 135.889 279.426 136.463 279.914L136.771 280.201C137.478 280.856 138.207 281.486 138.768 281.97C138.869 282.055 138.993 282.107 139.124 282.12H139.196C139.372 282.119 139.54 282.049 139.665 281.925C139.789 281.8 139.859 281.632 139.861 281.456V280.329C141.283 280.269 143.117 279.781 144.077 278.782C145.264 277.544 145.56 275.809 145.598 274.575C145.658 272.445 144.943 270.8 143.571 269.951Z" fill="white"/>
<path d="M5.26922 106.807C4.85755 106.808 4.45174 106.71 4.08629 106.52C3.77781 106.369 3.50235 106.158 3.27584 105.9C3.04932 105.642 2.87624 105.341 2.76662 105.016L0.134092 97.0362C0.0249898 96.7076 -0.01821 96.3606 0.0069695 96.0153C0.032149 95.67 0.125213 95.333 0.280829 95.0236C0.436444 94.7143 0.651566 94.4387 0.913852 94.2127C1.17614 93.9866 1.48044 93.8145 1.80934 93.7062L9.79579 91.0737C10.4586 90.8555 11.181 90.9093 11.8041 91.2235C12.4272 91.5376 12.9002 92.0863 13.1189 92.7489L15.7583 100.708C15.8693 101.037 15.9139 101.384 15.8896 101.73C15.8653 102.076 15.7725 102.413 15.6167 102.723C15.4608 103.033 15.245 103.309 14.9817 103.534C14.7185 103.76 14.413 103.931 14.083 104.038L6.10343 106.671C5.83431 106.76 5.55276 106.806 5.26922 106.807ZM10.6163 92.284C10.4812 92.284 10.347 92.3071 10.2197 92.3524L2.24012 94.9849C1.9217 95.0911 1.65818 95.3189 1.50704 95.6187C1.3559 95.9184 1.32937 96.2657 1.43325 96.5849L4.06578 104.565C4.17202 104.883 4.39985 105.146 4.69957 105.298C4.9993 105.449 5.3466 105.475 5.6658 105.371L13.6523 102.739C13.9707 102.633 14.2342 102.405 14.3853 102.105C14.5365 101.805 14.563 101.458 14.4591 101.139L11.8197 93.1592C11.7374 92.9049 11.5765 92.6832 11.3603 92.5259C11.1441 92.3687 10.8837 92.284 10.6163 92.284Z" fill="#2C2A46"/>
<path d="M331.287 153.165C329.732 153.165 328.212 152.704 326.919 151.84C325.626 150.976 324.618 149.747 324.023 148.311C323.427 146.874 323.272 145.293 323.575 143.767C323.878 142.242 324.627 140.841 325.727 139.741C326.827 138.642 328.228 137.893 329.753 137.589C331.279 137.286 332.86 137.442 334.297 138.037C335.733 138.632 336.961 139.64 337.825 140.933C338.69 142.226 339.151 143.746 339.151 145.301C339.149 147.386 338.32 149.385 336.846 150.86C335.371 152.334 333.372 153.163 331.287 153.165ZM331.287 138.806C330.003 138.806 328.747 139.187 327.678 139.9C326.61 140.614 325.778 141.629 325.286 142.816C324.794 144.003 324.666 145.309 324.916 146.569C325.167 147.829 325.786 148.986 326.694 149.895C327.603 150.803 328.76 151.422 330.02 151.673C331.28 151.923 332.586 151.794 333.773 151.303C334.96 150.811 335.975 149.979 336.688 148.91C337.402 147.842 337.783 146.586 337.783 145.301C337.781 143.579 337.096 141.928 335.879 140.71C334.661 139.492 333.01 138.807 331.287 138.806Z" fill="#2498A8"/>
<path d="M185.644 12.9917C184.359 12.9917 183.103 12.6107 182.035 11.8969C180.967 11.1831 180.134 10.1686 179.643 8.98167C179.151 7.79471 179.022 6.48863 179.273 5.22856C179.524 3.96849 180.142 2.81105 181.051 1.90259C181.959 0.994132 183.117 0.375461 184.377 0.124818C185.637 -0.125825 186.943 0.00281575 188.13 0.49447C189.317 0.986124 190.331 1.8187 191.045 2.88693C191.759 3.95517 192.14 5.21107 192.14 6.49583C192.138 8.21817 191.453 9.86955 190.236 11.0874C189.018 12.3053 187.366 12.9902 185.644 12.9917ZM185.644 1.12971C184.583 1.12971 183.545 1.44443 182.663 2.03406C181.78 2.6237 181.093 3.46177 180.686 4.4423C180.28 5.42283 180.174 6.50178 180.381 7.54271C180.588 8.58364 181.099 9.53979 181.85 10.2903C182.6 11.0407 183.556 11.5518 184.597 11.7588C185.638 11.9659 186.717 11.8596 187.698 11.4535C188.678 11.0473 189.516 10.3595 190.106 9.47709C190.695 8.59464 191.01 7.55715 191.01 6.49583C191.009 5.0731 190.443 3.70907 189.437 2.70305C188.431 1.69704 187.067 1.1312 185.644 1.12971Z" fill="#D2DFE6"/>
<path d="M210.574 250.944C210.075 250.945 209.588 250.789 209.183 250.498C208.777 250.207 208.473 249.796 208.313 249.323L205.934 242.102C205.737 241.499 205.786 240.843 206.07 240.276C206.21 239.997 206.403 239.748 206.64 239.544C206.876 239.34 207.151 239.185 207.448 239.088L214.663 236.706C214.96 236.607 215.273 236.568 215.584 236.591C215.896 236.614 216.2 236.698 216.479 236.839C216.758 236.98 217.006 237.175 217.21 237.412C217.413 237.649 217.568 237.925 217.665 238.222L220.05 245.425C220.15 245.722 220.191 246.036 220.169 246.349C220.147 246.662 220.063 246.968 219.922 247.248C219.781 247.529 219.586 247.778 219.348 247.982C219.111 248.187 218.835 248.342 218.536 248.438L211.327 250.82C211.084 250.901 210.83 250.943 210.574 250.944ZM215.404 237.801C215.282 237.801 215.161 237.822 215.046 237.863L207.837 240.246C207.694 240.292 207.561 240.366 207.446 240.464C207.332 240.562 207.238 240.682 207.17 240.817C207.102 240.951 207.062 241.098 207.051 241.249C207.041 241.399 207.06 241.55 207.108 241.693L209.486 248.915C209.582 249.203 209.788 249.441 210.059 249.578C210.33 249.715 210.644 249.739 210.932 249.645L218.147 247.262C218.29 247.217 218.422 247.143 218.535 247.045C218.649 246.947 218.742 246.828 218.808 246.693C218.944 246.42 218.969 246.105 218.876 245.815L216.492 238.593C216.417 238.363 216.272 238.163 216.077 238.02C215.881 237.878 215.646 237.801 215.404 237.801Z" fill="#D2DFE6"/>
<path d="M260.175 289.919C263.007 289.919 265.303 287.623 265.303 284.791C265.303 281.959 263.007 279.663 260.175 279.663C257.343 279.663 255.047 281.959 255.047 284.791C255.047 287.623 257.343 289.919 260.175 289.919Z" fill="#D2DFE6"/>
<path d="M102.224 98.4632C103.545 98.4632 104.617 97.3917 104.617 96.07C104.617 94.7482 103.545 93.6768 102.224 93.6768C100.902 93.6768 99.8306 94.7482 99.8306 96.07C99.8306 97.3917 100.902 98.4632 102.224 98.4632Z" fill="#D2DFE6"/>
<path fill-rule="evenodd" clip-rule="evenodd" d="M295.092 139.153C291.299 93.1513 252.761 57 205.78 57C194.263 57 183.253 59.1726 173.138 63.1304C170.184 72.9963 169.721 82.8716 169.941 89.9719C170.402 104.842 174.033 125.769 188.356 140.524C200.201 152.81 223.371 158.666 240.806 159.097V174.369C240.795 175.24 240.958 176.105 241.286 176.913C241.615 177.721 242.102 178.455 242.72 179.073C243.337 179.691 244.072 180.179 244.882 180.51C245.692 180.841 246.559 181.007 247.434 181H248.039C249.404 180.889 250.697 180.346 251.728 179.45C258.558 173.708 267.521 165.871 276.224 157.776L280.086 154.245C285.508 149.642 290.528 144.593 295.092 139.153Z" fill="#87DDE8"/>
<path fill-rule="evenodd" clip-rule="evenodd" d="M163.935 64.6618C178.328 55.0459 195.249 49.9141 212.558 49.9153C235.767 49.9169 258.024 59.1371 274.435 75.548C290.846 91.9589 300.066 114.216 300.068 137.425C300.069 154.734 294.937 171.655 285.321 186.048C275.705 200.441 262.037 211.659 246.046 218.284C230.054 224.908 212.457 226.642 195.48 223.265C178.503 219.889 162.909 211.553 150.669 199.314C145.444 194.089 140.93 188.252 137.21 181.957L118.025 192.757L111.575 180.875L131.345 170.056C129.334 165.05 127.78 159.845 126.718 154.503C123.341 137.526 125.075 119.929 131.699 103.937C138.324 87.9457 149.542 74.2777 163.935 64.6618ZM170.347 200.599C182.842 208.946 197.531 213.401 212.558 213.4C222.535 213.4 232.414 211.435 241.632 207.616C250.849 203.798 259.224 198.202 266.278 191.147C273.333 184.092 278.928 175.716 282.746 166.499C286.563 157.281 288.528 147.402 288.527 137.425C288.527 122.398 284.071 107.709 275.722 95.2148C267.374 82.7206 255.508 72.9828 241.625 67.2326C227.742 61.4824 212.466 59.9782 197.728 62.9102C182.99 65.8422 169.453 73.0787 158.828 83.7046C148.203 94.3305 140.967 107.868 138.036 122.607C135.105 137.345 136.611 152.621 142.362 166.503C148.113 180.386 157.852 192.251 170.347 200.599Z" fill="url(#paint20_linear)"/>
<g opacity="0.5" filter="url(#filter0_f)">
<path d="M168.346 188.093C167.49 188.091 166.649 187.864 165.908 187.435C156.848 182.173 155.001 173.986 154.647 171.584C154.554 170.95 154.587 170.304 154.743 169.683C154.899 169.062 155.176 168.478 155.559 167.964C155.941 167.449 156.42 167.016 156.97 166.687C157.52 166.358 158.129 166.141 158.763 166.048C159.396 165.955 160.042 165.987 160.663 166.143C161.284 166.3 161.869 166.577 162.383 166.959C162.897 167.341 163.33 167.821 163.659 168.371C163.988 168.92 164.205 169.529 164.298 170.163C164.487 171.456 165.518 175.912 170.809 178.979C171.737 179.517 172.461 180.345 172.87 181.336C173.279 182.327 173.351 183.425 173.073 184.46C172.795 185.496 172.184 186.411 171.334 187.064C170.484 187.718 169.443 188.073 168.371 188.075L168.346 188.093Z" fill="white"/>
</g>
<g opacity="0.5" filter="url(#filter1_f)">
<path d="M152.52 157.653C151.409 157.651 150.332 157.27 149.467 156.572C148.603 155.875 148.002 154.904 147.764 153.818C143.747 135.573 147.132 116.478 157.176 100.725C167.22 84.9719 183.104 73.8465 201.341 69.79C202.604 69.5111 203.927 69.7456 205.018 70.4418C206.108 71.1381 206.878 72.2392 207.157 73.5028C207.436 74.7664 207.201 76.089 206.505 77.1798C205.809 78.2705 204.708 79.04 203.444 79.3189C187.737 82.8272 174.06 92.4172 165.409 105.989C156.757 119.56 153.837 136.007 157.287 151.727C157.565 152.99 157.33 154.311 156.634 155.401C155.937 156.49 154.837 157.259 153.574 157.537C153.228 157.615 152.875 157.653 152.52 157.653Z" fill="white"/>
</g>
<defs>
<filter id="filter0_f" x="151.86" y="163.261" width="24.114" height="27.5672" filterUnits="userSpaceOnUse" color-interpolation-filters="sRGB">
<feFlood flood-opacity="0" result="BackgroundImageFix"/>
<feBlend mode="normal" in="SourceGraphic" in2="BackgroundImageFix" result="shape"/>
<feGaussianBlur stdDeviation="1.36754" result="effect1_foregroundBlur"/>
</filter>
<filter id="filter1_f" x="143.379" y="66.9402" width="66.6276" height="93.448" filterUnits="userSpaceOnUse" color-interpolation-filters="sRGB">
<feFlood flood-opacity="0" result="BackgroundImageFix"/>
<feBlend mode="normal" in="SourceGraphic" in2="BackgroundImageFix" result="shape"/>
<feGaussianBlur stdDeviation="1.36754" result="effect1_foregroundBlur"/>
</filter>
<linearGradient id="paint0_linear" x1="104.388" y1="165.298" x2="85.4226" y2="184.552" gradientUnits="userSpaceOnUse">
<stop stop-color="#A48D6D"/>
<stop offset="0.43888" stop-color="#9B7C52"/>
<stop offset="1" stop-color="#876741"/>
</linearGradient>
<linearGradient id="paint1_linear" x1="103.271" y1="144.572" x2="37.019" y2="212.126" gradientUnits="userSpaceOnUse">
<stop stop-color="#FAEABE"/>
<stop offset="0.43888" stop-color="#F4D47D"/>
<stop offset="1" stop-color="#E8BE56"/>
</linearGradient>
<linearGradient id="paint2_linear" x1="70.7704" y1="194.875" x2="39.6054" y2="195.462" gradientUnits="userSpaceOnUse">
<stop stop-color="#F66689" stop-opacity="0"/>
<stop offset="1" stop-color="#F66689" stop-opacity="0.35"/>
</linearGradient>
<linearGradient id="paint3_linear" x1="328.896" y1="38.4233" x2="142.168" y2="300.062" gradientUnits="userSpaceOnUse">
<stop stop-color="#F5F8F9"/>
<stop offset="0.43888" stop-color="#DEE8EC"/>
<stop offset="1" stop-color="#D2DFE6"/>
</linearGradient>
<linearGradient id="paint4_linear" x1="54.8426" y1="326.93" x2="32.6816" y2="351.764" gradientUnits="userSpaceOnUse">
<stop stop-color="#6D7A81"/>
<stop offset="0.43888" stop-color="#52636C"/>
<stop offset="0.9999" stop-color="#312F44"/>
<stop offset="1" stop-color="#3D4A51"/>
</linearGradient>
<linearGradient id="paint5_linear" x1="109.212" y1="330.531" x2="96.6157" y2="353.989" gradientUnits="userSpaceOnUse">
<stop stop-color="#6D7A81"/>
<stop offset="0.43888" stop-color="#52636C"/>
<stop offset="0.9999" stop-color="#312F44"/>
<stop offset="1" stop-color="#3D4A51"/>
</linearGradient>
<linearGradient id="paint6_linear" x1="69.4028" y1="262.226" x2="47.9659" y2="257.29" gradientUnits="userSpaceOnUse">
<stop stop-color="#514F64"/>
<stop offset="0.43888" stop-color="#2C2A46"/>
<stop offset="0.9999" stop-color="#312F44"/>
<stop offset="1" stop-color="#312F44"/>
</linearGradient>
<linearGradient id="paint7_linear" x1="109.062" y1="261.543" x2="55.2107" y2="280.431" gradientUnits="userSpaceOnUse">
<stop stop-color="#514F64"/>
<stop offset="0.43888" stop-color="#2C2A46"/>
<stop offset="0.9999" stop-color="#312F44"/>
<stop offset="1" stop-color="#312F44"/>
</linearGradient>
<linearGradient id="paint8_linear" x1="138.384" y1="171.17" x2="68.2927" y2="301.466" gradientUnits="userSpaceOnUse">
<stop stop-color="#87DDE8"/>
<stop offset="0.43888" stop-color="#2CC3D5"/>
<stop offset="1" stop-color="#2498A8"/>
</linearGradient>
<linearGradient id="paint9_linear" x1="80.3432" y1="150.088" x2="69.2825" y2="145.031" gradientUnits="userSpaceOnUse">
<stop stop-color="#A48D6D"/>
<stop offset="0.43888" stop-color="#9B7C52"/>
<stop offset="1" stop-color="#876741"/>
</linearGradient>
<linearGradient id="paint10_linear" x1="75.2149" y1="148.72" x2="63.5858" y2="144.929" gradientUnits="userSpaceOnUse">
<stop stop-color="#F66689" stop-opacity="0"/>
<stop offset="1" stop-color="#F66689" stop-opacity="0.35"/>
</linearGradient>
<linearGradient id="paint11_linear" x1="86.7832" y1="113.028" x2="53.1054" y2="145.255" gradientUnits="userSpaceOnUse">
<stop stop-color="#A48D6D"/>
<stop offset="0.43888" stop-color="#9B7C52"/>
<stop offset="1" stop-color="#876741"/>
</linearGradient>
<linearGradient id="paint12_linear" x1="82.3945" y1="126.84" x2="57.1119" y2="135.585" gradientUnits="userSpaceOnUse">
<stop stop-color="#F66689" stop-opacity="0"/>
<stop offset="1" stop-color="#F66689" stop-opacity="0.35"/>
</linearGradient>
<linearGradient id="paint13_linear" x1="77.6081" y1="138.122" x2="42.0875" y2="126.558" gradientUnits="userSpaceOnUse">
<stop stop-color="#514F64"/>
<stop offset="0.43888" stop-color="#2C2A46"/>
<stop offset="0.9999" stop-color="#312F44"/>
<stop offset="1" stop-color="#312F44"/>
</linearGradient>
<linearGradient id="paint14_linear" x1="21.5388" y1="142.566" x2="95.3861" y2="161.028" gradientUnits="userSpaceOnUse">
<stop/>
<stop offset="0.500726" stop-opacity="0"/>
</linearGradient>
<linearGradient id="paint15_linear" x1="121.133" y1="197.774" x2="106.382" y2="217.638" gradientUnits="userSpaceOnUse">
<stop stop-color="#A48D6D"/>
<stop offset="0.43888" stop-color="#9B7C52"/>
<stop offset="1" stop-color="#876741"/>
</linearGradient>
<linearGradient id="paint16_linear" x1="90.6644" y1="182.822" x2="42.2309" y2="228.932" gradientUnits="userSpaceOnUse">
<stop stop-color="#A48D6D"/>
<stop offset="0.43888" stop-color="#9B7C52"/>
<stop offset="1" stop-color="#876741"/>
</linearGradient>
<linearGradient id="paint17_linear" x1="76.9243" y1="208.892" x2="61.1407" y2="222.1" gradientUnits="userSpaceOnUse">
<stop stop-color="#F66689" stop-opacity="0"/>
<stop offset="1" stop-color="#F66689" stop-opacity="0.35"/>
</linearGradient>
<linearGradient id="paint18_linear" x1="128.999" y1="35.2626" x2="101.42" y2="71.1465" gradientUnits="userSpaceOnUse">
<stop stop-color="#6D8CE5"/>
<stop offset="0.43888" stop-color="#517BF2"/>
<stop offset="1" stop-color="#4D6CC5"/>
</linearGradient>
<linearGradient id="paint19_linear" x1="164.234" y1="255.672" x2="129.201" y2="301.254" gradientUnits="userSpaceOnUse">
<stop stop-color="#87DDE8"/>
<stop offset="0.43888" stop-color="#2CC3D5"/>
<stop offset="1" stop-color="#2498A8"/>
</linearGradient>
<linearGradient id="paint20_linear" x1="328.896" y1="38.4233" x2="142.168" y2="300.062" gradientUnits="userSpaceOnUse">
<stop stop-color="#F5F8F9"/>
<stop offset="0.43888" stop-color="#DEE8EC"/>
<stop offset="1" stop-color="#D2DFE6"/>
</linearGradient>
</defs>
</svg>
