<svg width="357" height="297" viewBox="0 0 357 297" fill="none" xmlns="http://www.w3.org/2000/svg">
<path d="M356.446 177.061H0.297791V189.598H356.446V177.061Z" fill="#C79964"/>
<path d="M0.893372 180.932C4.59316 180.603 8.2982 180.338 12.0085 180.139C15.7188 179.936 19.4326 179.788 23.1516 179.801L24.5531 179.811L25.9545 179.853L26.6552 179.876L27.3559 179.92L28.0567 179.965C28.2896 179.981 28.5209 179.992 28.7574 180.023L30.1308 180.191C30.5897 180.26 31.047 180.326 31.5077 180.387C32.4256 180.504 33.3453 180.621 34.2668 180.738C37.9455 181.16 41.6523 181.467 45.3556 181.686C49.0589 181.905 52.7674 181.997 56.4725 181.922C58.3259 181.882 60.1758 181.796 62.0204 181.637C63.8612 181.486 65.6919 181.231 67.5035 180.871L68.1797 180.729L68.8506 180.554C69.2991 180.452 69.7265 180.307 70.175 180.181C70.6234 180.055 71.0334 179.881 71.4748 179.724L72.1387 179.484C72.3595 179.405 72.5854 179.342 72.8097 179.27C74.6042 178.727 76.4431 178.344 78.305 178.124C82.0171 177.663 85.7624 177.679 89.478 177.937C91.3366 178.066 93.1883 178.275 95.0312 178.545C95.9526 178.679 96.8758 178.83 97.7867 179.016C98.6977 179.202 99.6086 179.343 100.525 179.485C102.355 179.766 104.204 179.99 106.041 180.107C106.966 180.163 107.882 180.188 108.814 180.184L111.589 180.191L122.73 180.235L133.874 180.254L145.015 180.265L156.158 180.253L167.301 180.235C169.158 180.235 171.017 180.261 172.876 180.321C174.734 180.38 176.591 180.473 178.446 180.657C179.373 180.747 180.3 180.867 181.219 181.046C181.449 181.095 181.68 181.137 181.908 181.195L182.591 181.388C183.028 181.514 183.472 181.609 183.922 181.673C184.832 181.812 185.755 181.891 186.678 181.955C187.601 182.02 188.526 182.067 189.453 182.097C191.304 182.164 193.16 182.178 195.013 182.169C196.866 182.16 198.723 182.12 200.575 182.05C204.28 181.899 207.987 181.661 211.646 181.127L212.331 181.02L213.013 180.899C213.47 180.822 213.904 180.724 214.375 180.634C214.608 180.596 214.84 180.545 215.076 180.514L215.777 180.419C216.241 180.352 216.705 180.316 217.178 180.263C219.035 180.088 220.892 179.974 222.749 179.878C226.463 179.703 230.178 179.592 233.894 179.517C237.609 179.442 241.323 179.398 245.039 179.371C252.468 179.317 259.899 179.356 267.329 179.426C297.037 179.482 326.748 179.582 356.463 179.727V179.788L334.179 179.909L311.892 179.992C297.036 180.018 282.18 180.093 267.322 180.042C259.895 179.972 252.469 179.956 245.042 179.993C241.33 180.011 237.617 180.049 233.904 180.109C230.192 180.174 226.482 180.267 222.777 180.438C220.925 180.529 219.072 180.634 217.231 180.806C216.772 180.857 216.309 180.892 215.856 180.957L215.171 181.048C214.943 181.078 214.721 181.127 214.496 181.164C214.051 181.237 213.582 181.349 213.125 181.425L212.424 181.544L211.723 181.647C208.027 182.173 204.31 182.39 200.592 182.523C196.875 182.656 193.154 182.656 189.437 182.504C188.507 182.467 187.578 182.411 186.648 182.342C185.718 182.274 184.791 182.183 183.866 182.036C183.397 181.966 182.933 181.863 182.479 181.726L181.822 181.537C181.601 181.479 181.373 181.437 181.151 181.386C180.249 181.211 179.333 181.078 178.413 180.983C176.572 180.789 174.718 180.685 172.865 180.613C171.012 180.542 169.156 180.508 167.3 180.493C163.588 180.466 159.872 180.468 156.158 180.463L145.015 180.451L133.874 180.461L122.73 180.48L111.589 180.524L108.804 180.535C107.877 180.545 106.938 180.535 106.001 180.479C104.139 180.373 102.287 180.163 100.444 179.895C99.5228 179.76 98.6042 179.609 97.6886 179.443C96.7777 179.268 95.8668 179.124 94.9488 178.995C93.1147 178.739 91.2701 178.555 89.4254 178.425C85.7344 178.178 82.0171 178.175 78.3523 178.637C76.5228 178.857 74.7162 179.236 72.9533 179.773C72.7344 179.843 72.5136 179.904 72.2981 179.983L71.65 180.216C71.2173 180.368 70.7741 180.536 70.3221 180.68C69.8702 180.824 69.4235 180.955 68.9662 181.057L68.283 181.232L67.5946 181.374C65.7621 181.733 63.9102 181.986 62.0484 182.131C60.1915 182.286 58.3294 182.367 56.469 182.402C52.7464 182.467 49.0256 182.353 45.3136 182.132C41.6015 181.912 37.8982 181.568 34.2072 181.118C33.2846 181.008 32.3626 180.887 31.4411 180.754C30.9804 180.689 30.5214 180.619 30.0607 180.547L28.6891 180.372C28.4613 180.338 28.2283 180.326 27.9988 180.31L27.3069 180.26L26.6062 180.211L25.9055 180.183L24.518 180.13L23.1271 180.111C19.4186 180.074 15.7048 180.177 11.9962 180.338C8.28768 180.5 4.60191 180.717 0.898627 180.992L0.893372 180.932Z" fill="#A97D57"/>
<path d="M73.626 185.364C75.048 184.946 76.509 184.675 77.9862 184.553C79.4618 184.428 80.9429 184.381 82.4235 184.411C85.3844 184.481 88.3383 184.734 91.2683 185.166C92.7328 185.377 94.1926 185.62 95.6477 185.897L96.7374 186.114L97.0089 186.172C97.0965 186.191 97.1841 186.207 97.2752 186.224L97.82 186.322C98.5452 186.45 99.2722 186.566 100.001 186.673C102.919 187.099 105.852 187.386 108.8 187.332L126.528 187.3H135.394L144.258 187.314L161.988 187.395C164.945 187.409 167.906 187.451 170.857 187.685C172.337 187.789 173.809 187.98 175.265 188.26C175.626 188.351 175.992 188.418 176.348 188.533C176.523 188.584 176.708 188.644 176.873 188.689L177.132 188.761L177.402 188.815C178.125 188.948 178.854 189.044 179.587 189.104C181.055 189.243 182.53 189.32 184.005 189.379C185.48 189.439 186.956 189.474 188.433 189.488C191.387 189.519 194.34 189.496 197.294 189.418C200.245 189.343 203.197 189.213 206.142 188.989C207.613 188.875 209.083 188.742 210.546 188.563C210.912 188.516 211.278 188.474 211.643 188.418C212.007 188.362 212.371 188.313 212.732 188.242C213.093 188.172 213.456 188.111 213.815 188.039C214.174 187.967 214.547 187.901 214.913 187.833C216.383 187.603 217.858 187.482 219.335 187.37L220.442 187.289L221.549 187.223C222.286 187.176 223.026 187.142 223.763 187.104C226.717 186.96 229.672 186.867 232.627 186.799C238.54 186.659 244.45 186.598 250.361 186.582C256.271 186.566 262.184 186.582 268.094 186.629L285.822 186.648L303.552 186.668L321.282 186.722L339.01 186.804L356.74 186.927V186.986L339.01 187.107L321.278 187.198L303.549 187.253L285.817 187.272H276.953H272.521C271.044 187.272 269.562 187.272 268.087 187.251C262.178 187.181 256.269 187.145 250.361 187.142C244.452 187.142 238.543 187.17 232.636 187.272C229.683 187.326 226.731 187.396 223.779 187.512C223.043 187.543 222.304 187.57 221.568 187.61L220.463 187.666L219.357 187.736C217.888 187.838 216.414 187.943 214.961 188.157C214.6 188.221 214.244 188.279 213.878 188.349C213.512 188.419 213.149 188.493 212.781 188.547C212.413 188.602 212.049 188.661 211.681 188.71C211.313 188.759 210.947 188.803 210.579 188.847C209.108 189.022 207.633 189.138 206.158 189.239C204.683 189.341 203.206 189.414 201.729 189.476C200.252 189.537 198.774 189.59 197.297 189.623C194.343 189.691 191.386 189.705 188.428 189.667C185.473 189.616 182.516 189.563 179.566 189.306C178.828 189.241 178.091 189.159 177.357 189.022L177.082 188.966L176.808 188.892C176.623 188.843 176.458 188.791 176.283 188.738C175.932 188.626 175.571 188.563 175.216 188.474C173.769 188.2 172.306 188.016 170.836 187.924C167.895 187.72 164.94 187.706 161.986 187.722L144.256 187.803L135.392 187.817H126.527L108.798 187.783C105.831 187.833 102.863 187.508 99.9414 187.055C99.2091 186.939 98.4786 186.816 97.7516 186.682L97.2051 186.576C97.1158 186.559 97.0299 186.543 96.9283 186.52L96.6585 186.461L95.5777 186.235C94.133 185.944 92.6808 185.688 91.221 185.468C89.7617 185.243 88.2972 185.063 86.831 184.909C85.3647 184.755 83.8915 184.651 82.4182 184.606C80.944 184.553 79.4681 184.579 77.9967 184.683C76.525 184.781 75.0667 185.026 73.6435 185.413L73.626 185.364Z" fill="#A97D57"/>
<path d="M0.295984 188.134C2.83959 187.817 5.39019 187.596 7.94431 187.4C10.4984 187.204 13.0578 187.072 15.6189 187.02C16.8995 186.995 18.1818 187.002 19.4728 187.004C20.7639 187.006 22.034 187.037 23.3145 187.069C23.9557 187.069 24.5951 187.107 25.2415 187.125C25.5621 187.135 25.8809 187.141 26.2015 187.158L27.1615 187.216C27.482 187.239 27.8026 187.246 28.1214 187.279L29.0814 187.375C29.7261 187.431 30.3515 187.53 30.9874 187.596C36.0676 188.106 41.181 188.391 46.2875 188.574L48.2022 188.642C48.8416 188.658 49.4793 188.672 50.1187 188.693C50.7581 188.714 51.3957 188.717 52.0352 188.729C52.6746 188.742 53.3122 188.744 53.9516 188.745C56.5057 188.756 59.0616 188.717 61.6192 188.589V188.649C59.0774 188.973 56.5145 189.129 53.9516 189.211C51.3887 189.294 48.8241 189.292 46.2612 189.211C43.6984 189.131 41.139 188.973 38.5849 188.77C36.0308 188.567 33.4784 188.299 30.9401 187.922C30.3077 187.833 29.6718 187.71 29.0411 187.633L28.0952 187.503C27.7798 187.463 27.4593 187.449 27.1422 187.421L26.1857 187.347C25.8686 187.328 25.5481 187.321 25.2292 187.309C24.5898 187.284 23.9522 187.263 23.3128 187.265C22.6734 187.267 22.034 187.265 21.3858 187.277L19.4588 187.337C18.1818 187.393 16.9047 187.445 15.6277 187.512C10.5194 187.736 5.40946 187.983 0.29248 188.188L0.295984 188.134Z" fill="#A97D57"/>
<path d="M87.7648 181.531C89.1698 181.509 90.5746 181.585 91.9691 181.759C93.3705 181.927 94.7579 182.161 96.1313 182.46L97.1561 182.686C97.5065 182.749 97.8516 182.807 98.1914 182.861C98.8834 182.977 99.5754 183.085 100.271 183.181C101.658 183.374 103.051 183.541 104.447 183.651C104.797 183.679 105.148 183.705 105.498 183.723C105.849 183.74 106.199 183.76 106.549 183.77C107.25 183.796 107.951 183.791 108.651 183.788L112.856 183.767L121.28 183.735L138.131 183.702H146.555L154.979 183.714L163.405 183.753C166.222 183.741 169.036 183.925 171.828 184.301C173.229 184.481 174.619 184.7 175.997 184.96C177.381 185.222 178.756 185.522 180.114 185.907C180.454 185.998 180.79 186.109 181.126 186.216C181.302 186.27 181.456 186.312 181.622 186.359C181.789 186.407 181.96 186.436 182.132 186.468C182.815 186.597 183.512 186.675 184.208 186.746C185.609 186.881 187.011 186.958 188.412 187.013C191.215 187.115 194.018 187.134 196.821 187.069C199.624 187.006 202.427 186.874 205.229 186.65C206.631 186.538 208.032 186.4 209.413 186.217C210.113 186.124 210.802 186.023 211.49 185.898L212.016 185.806L212.529 185.701C212.869 185.629 213.23 185.567 213.568 185.501C216.355 185.056 219.16 184.863 221.963 184.66C224.765 184.457 227.568 184.31 230.371 184.175C233.174 184.04 235.977 183.922 238.792 183.824C244.405 183.619 250.02 183.454 255.637 183.329L264.062 183.153C266.864 183.103 269.681 183.043 272.489 183.054H289.34L306.19 183.075L323.039 183.129L339.89 183.211L356.74 183.332V183.392L339.891 183.513L323.041 183.595L306.192 183.649L289.342 183.67H272.493C269.69 183.647 266.887 183.696 264.072 183.739L255.649 183.884C250.035 183.998 244.42 184.124 238.808 184.292C233.195 184.46 227.582 184.651 221.978 184.982C219.175 185.157 216.373 185.333 213.605 185.75C213.254 185.813 212.922 185.87 212.575 185.941L212.049 186.042L211.524 186.131C210.823 186.251 210.133 186.345 209.435 186.435C208.034 186.61 206.633 186.748 205.231 186.857C202.428 187.072 199.625 187.195 196.812 187.249C193.999 187.303 191.191 187.312 188.382 187.216C186.981 187.167 185.58 187.095 184.178 186.965C183.477 186.897 182.777 186.823 182.076 186.694C181.901 186.661 181.726 186.62 181.55 186.585C181.375 186.55 181.2 186.489 181.035 186.436C180.703 186.331 180.37 186.228 180.032 186.138C178.683 185.772 177.309 185.487 175.931 185.24C174.552 184.993 173.163 184.793 171.772 184.628C168.992 184.281 166.191 184.128 163.39 184.168L154.963 184.206L146.539 184.219H138.138L121.287 184.185L112.863 184.154L108.658 184.134C107.958 184.134 107.257 184.134 106.546 184.098C106.195 184.082 105.845 184.066 105.495 184.038C105.144 184.01 104.794 183.987 104.444 183.956C103.042 183.83 101.645 183.654 100.253 183.43C99.5526 183.323 98.8659 183.204 98.1739 183.08C97.8236 183.017 97.4732 182.952 97.1369 182.882L96.0963 182.644C94.7299 182.334 93.3495 182.08 91.9603 181.89C90.5701 181.697 89.1684 181.597 87.7648 181.593V181.531Z" fill="#A97D57"/>
<path d="M0.296021 184.532C3.25655 184.182 6.22759 183.937 9.20213 183.726C10.69 183.627 12.1778 183.544 13.6657 183.476C14.4102 183.436 15.1565 183.416 15.901 183.392C16.6455 183.367 17.3918 183.357 18.138 183.348C21.1161 183.33 24.1064 183.395 27.0827 183.616L27.6397 183.656C27.8272 183.667 28.0129 183.683 28.1986 183.709L29.3109 183.842C29.6841 183.88 30.0485 183.944 30.4163 183.993C30.7842 184.042 31.1538 184.087 31.5252 184.126C33.002 184.301 34.4875 184.41 35.9713 184.518C38.94 184.714 41.9116 184.861 44.8861 184.96C47.8642 185.061 50.8335 185.087 53.8062 185.065C56.779 185.042 59.7501 184.949 62.7054 184.674C64.1804 184.529 65.6571 184.357 67.1111 184.07C68.5651 183.782 70.0103 183.416 71.3347 182.737L71.3645 182.787L70.874 183.062C70.7934 183.106 70.711 183.155 70.6287 183.197L70.3712 183.311L69.8579 183.539C69.6827 183.609 69.5076 183.667 69.3324 183.732C69.1572 183.796 68.982 183.865 68.8068 183.919L68.269 184.08C67.9187 184.194 67.5455 184.276 67.1812 184.366C65.7235 184.703 64.2487 184.961 62.7632 185.138C61.2776 185.313 59.7851 185.438 58.2978 185.534C56.8106 185.631 55.3198 185.667 53.8203 185.709C52.3207 185.751 50.8422 185.727 49.3444 185.69C47.8467 185.653 46.3664 185.602 44.8704 185.529C43.3743 185.455 41.8923 185.368 40.405 185.256C38.9178 185.144 37.427 185.005 35.9502 184.853C34.4735 184.7 32.9862 184.523 31.5077 184.336L30.3988 184.187C30.0292 184.138 29.6596 184.071 29.2917 184.031L28.1863 183.9C28.0024 183.875 27.8167 183.863 27.631 183.852L27.0757 183.817C26.7043 183.795 26.3347 183.77 25.9633 183.756L24.8474 183.733C24.1046 183.714 23.3601 183.733 22.6156 183.733C21.8711 183.733 21.1283 183.758 20.3856 183.779L19.2697 183.81L18.1555 183.854C12.2082 184.043 6.26262 184.334 0.308283 184.6L0.296021 184.532Z" fill="#A97D57"/>
<path d="M339.73 170.793H189.269H167.179H16.7173L0 177.061H167.179H189.269H356.448L339.73 170.793Z" fill="#E2B36F"/>
<path d="M356.446 283.936H0.297791V296.473H356.446V283.936Z" fill="#C79964"/>
<path d="M0.893433 287.806C4.59322 287.479 8.29826 287.215 12.0086 287.014C15.7188 286.811 19.4326 286.663 23.1517 286.676L24.5531 286.684L25.9546 286.728L26.6553 286.749L27.356 286.795L28.0567 286.84C28.2897 286.856 28.5209 286.865 28.7574 286.898L30.1501 287.059C30.6091 287.128 31.0663 287.192 31.527 287.256C32.445 287.372 33.3646 287.489 34.2861 287.606C37.9648 288.028 41.6716 288.335 45.3749 288.552C49.0782 288.769 52.7868 288.865 56.4918 288.788C58.3452 288.75 60.1951 288.664 62.0397 288.503C63.8805 288.353 65.7112 288.098 67.5228 287.739L68.199 287.597L68.87 287.431C69.3184 287.329 69.7459 287.184 70.1943 287.056C70.6428 286.928 71.0527 286.756 71.4941 286.6L72.1581 286.36C72.3788 286.28 72.6048 286.218 72.829 286.147C74.6227 285.606 76.4604 285.224 78.3209 285.004C82.0329 284.545 85.7783 284.56 89.4938 284.817C91.3525 284.948 93.2041 285.157 95.047 285.425C95.9684 285.562 96.8916 285.712 97.8025 285.896C98.7135 286.08 99.6244 286.225 100.541 286.367C102.371 286.648 104.219 286.87 106.057 286.987C106.982 287.045 107.898 287.07 108.83 287.066L111.615 287.077L122.757 287.121L133.9 287.14L145.041 287.15L156.185 287.138L167.328 287.121C169.185 287.121 171.043 287.147 172.902 287.206C174.761 287.266 176.617 287.359 178.473 287.543C179.399 287.632 180.326 287.751 181.246 287.932C181.475 287.981 181.706 288.023 181.934 288.079L182.617 288.272C183.054 288.398 183.499 288.494 183.949 288.559C184.858 288.695 185.781 288.774 186.704 288.841C187.627 288.907 188.552 288.951 189.479 288.981C191.331 289.049 193.186 289.063 195.039 289.055C196.893 289.046 198.75 289.006 200.601 288.934C204.306 288.785 208.013 288.545 211.673 288.011L212.357 287.905L213.039 287.785C213.496 287.706 213.931 287.601 214.402 287.52C214.635 287.48 214.866 287.429 215.103 287.397L215.803 287.305C216.267 287.236 216.732 287.201 217.205 287.147C219.062 286.972 220.918 286.86 222.775 286.763C226.489 286.588 230.205 286.478 233.92 286.402C237.636 286.327 241.35 286.283 245.065 286.255C252.495 286.203 259.926 286.241 267.355 286.311C297.063 286.367 326.775 286.468 356.49 286.613V286.672L334.205 286.793L311.919 286.875C297.062 286.903 282.207 286.977 267.348 286.926C259.922 286.856 252.495 286.84 245.069 286.879C241.356 286.894 237.643 286.933 233.931 286.994C230.219 287.059 226.508 287.152 222.803 287.324C220.952 287.415 219.098 287.518 217.257 287.692C216.798 287.743 216.336 287.778 215.882 287.842L215.197 287.933C214.969 287.963 214.747 288.011 214.523 288.049C214.078 288.123 213.608 288.224 213.151 288.31L212.45 288.427L211.75 288.533C208.053 289.058 204.336 289.275 200.619 289.408C196.901 289.542 193.181 289.543 189.463 289.391C188.533 289.354 187.605 289.298 186.674 289.228C185.744 289.158 184.818 289.07 183.893 288.923C183.424 288.852 182.96 288.748 182.505 288.613L181.848 288.422C181.628 288.366 181.4 288.324 181.177 288.273C180.275 288.098 179.359 287.965 178.439 287.869C176.598 287.676 174.745 287.573 172.891 287.499C171.038 287.425 169.183 287.396 167.326 287.378C163.614 287.354 159.898 287.354 156.185 287.35L145.041 287.336L133.9 287.348L122.757 287.368L111.589 287.401L108.804 287.411C107.877 287.422 106.938 287.411 106.001 287.354C104.139 287.25 102.287 287.04 100.444 286.77C99.5228 286.635 98.6049 286.488 97.6887 286.318C96.7725 286.148 95.8668 285.999 94.9489 285.872C93.1148 285.616 91.2701 285.432 89.4255 285.302C85.7345 285.055 82.0172 285.05 78.3524 285.514C76.5229 285.733 74.7163 286.112 72.9534 286.648C72.7344 286.719 72.5137 286.781 72.2982 286.86L71.6501 287.093C71.2174 287.245 70.7742 287.413 70.3222 287.555C69.8702 287.697 69.4235 287.832 68.9663 287.933L68.2831 288.109L67.5947 288.251C65.762 288.609 63.9102 288.862 62.0485 289.007C60.1916 289.163 58.3294 289.244 56.469 289.277C52.7465 289.344 49.0257 289.228 45.3136 289.007C41.6016 288.787 37.8983 288.445 34.2073 287.995C33.2846 287.878 32.3626 287.757 31.4412 287.63C30.9805 287.566 30.5215 287.496 30.0608 287.424L28.6891 287.249C28.4614 287.215 28.2284 287.205 27.9989 287.187L27.3069 287.138L26.6062 287.087L25.9055 287.061L24.5181 287.009L23.1272 286.989C19.4186 286.951 15.7048 287.056 11.9963 287.217C8.28775 287.378 4.5792 287.599 0.875916 287.865L0.893433 287.806Z" fill="#A97D57"/>
<path d="M73.626 292.239C75.0482 291.822 76.509 291.549 77.9862 291.427C79.4618 291.302 80.9429 291.255 82.4235 291.286C85.3839 291.356 88.3372 291.608 91.2665 292.041C92.731 292.252 94.192 292.492 95.646 292.77L96.7356 292.989L97.0071 293.047C97.0947 293.066 97.1823 293.08 97.2734 293.098L97.8182 293.196C98.5435 293.324 99.2705 293.441 99.9992 293.546C102.918 293.974 105.85 294.259 108.798 294.207L126.527 294.173H135.392L144.256 294.187L161.986 294.268C164.943 294.282 167.904 294.324 170.856 294.557C172.335 294.662 173.807 294.854 175.263 295.133C175.624 295.223 175.99 295.289 176.346 295.407C176.521 295.457 176.707 295.515 176.871 295.562L177.131 295.634L177.4 295.689C178.117 295.825 178.851 295.911 179.585 295.978C181.053 296.114 182.528 296.193 184.003 296.253C185.478 296.312 186.955 296.346 188.431 296.361C191.385 296.393 194.338 296.369 197.292 296.291C200.244 296.216 203.195 296.086 206.14 295.862C207.612 295.748 209.082 295.615 210.544 295.435C210.91 295.389 211.277 295.345 211.641 295.289C212.005 295.233 212.37 295.184 212.73 295.114C213.091 295.044 213.454 294.984 213.813 294.911C214.172 294.837 214.545 294.774 214.911 294.706C216.381 294.476 217.856 294.356 219.333 294.242L220.44 294.163L221.547 294.096C222.285 294.049 223.024 294.016 223.762 293.977C226.715 293.832 229.67 293.741 232.626 293.671C238.538 293.532 244.448 293.471 250.359 293.453C256.27 293.436 262.182 293.453 268.092 293.501L285.821 293.522L303.55 293.541L321.28 293.595L339.008 293.678L356.738 293.798V293.858L339.008 293.979L321.279 294.063L303.549 294.116L285.817 294.137H276.953H272.521C271.044 294.137 269.562 294.137 268.087 294.114C262.178 294.045 256.269 294.009 250.361 294.007C244.452 294.007 238.543 294.033 232.636 294.137C229.683 294.191 226.731 294.261 223.779 294.375C223.043 294.406 222.304 294.433 221.568 294.473L220.463 294.531L219.358 294.599C217.888 294.702 216.415 294.807 214.961 295.019C214.6 295.084 214.244 295.144 213.878 295.214C213.512 295.284 213.149 295.356 212.781 295.412C212.413 295.468 212.049 295.524 211.681 295.573C211.313 295.622 210.947 295.668 210.579 295.711C209.108 295.887 207.633 296.002 206.158 296.104C204.683 296.205 203.206 296.279 201.729 296.34C200.253 296.402 198.774 296.452 197.297 296.486C194.343 296.556 191.386 296.571 188.428 296.531C185.473 296.48 182.516 296.426 179.566 296.169C178.828 296.106 178.091 296.021 177.357 295.885L177.082 295.831L176.808 295.757C176.623 295.706 176.458 295.654 176.283 295.603C175.932 295.491 175.572 295.428 175.216 295.338C173.769 295.065 172.306 294.881 170.836 294.788C167.895 294.583 164.94 294.571 161.986 294.587L144.256 294.667L135.392 294.681H126.527L108.798 294.65C105.831 294.699 102.863 294.375 99.9414 293.921C99.2091 293.804 98.4792 293.679 97.7517 293.546L97.2051 293.443C97.1158 293.425 97.0299 293.408 96.9283 293.387L96.6585 293.327L95.5777 293.099C94.1324 292.809 92.6785 292.556 91.221 292.334C89.7635 292.111 88.2972 291.928 86.831 291.775C85.3647 291.623 83.8915 291.518 82.4182 291.472C80.9441 291.42 79.4681 291.446 77.9967 291.549C76.5249 291.647 75.0665 291.891 73.6435 292.28L73.626 292.239Z" fill="#A97D57"/>
<path d="M0.295984 295.007C2.83959 294.692 5.39019 294.469 7.94431 294.275C10.4984 294.08 13.0578 293.946 15.6189 293.895C16.8995 293.869 18.1818 293.876 19.4728 293.877C20.7639 293.879 22.034 293.912 23.3145 293.944C23.9557 293.944 24.5951 293.982 25.2415 294C25.5621 294.01 25.8809 294.016 26.2015 294.033L27.1615 294.091C27.482 294.112 27.8026 294.119 28.1214 294.154L29.0814 294.25C29.7261 294.306 30.3515 294.405 30.9874 294.469C36.0676 294.979 41.181 295.265 46.2875 295.449L48.2022 295.517C48.8416 295.531 49.4793 295.545 50.1187 295.568C50.7581 295.591 51.3957 295.592 52.0352 295.605C52.6746 295.617 53.3122 295.619 53.9516 295.619C56.5057 295.631 59.0616 295.592 61.6192 295.464V295.524C59.0774 295.848 56.5145 296.002 53.9516 296.086C51.3887 296.17 48.8241 296.167 46.2612 296.086C43.6984 296.006 41.139 295.848 38.5849 295.645C36.0308 295.442 33.4784 295.174 30.9401 294.795C30.3077 294.708 29.6718 294.583 29.0411 294.506L28.0952 294.377C27.7798 294.336 27.4593 294.322 27.1422 294.294L26.1857 294.222C25.8686 294.203 25.5481 294.196 25.2292 294.182C24.5898 294.159 23.9522 294.137 23.3128 294.14C22.6734 294.144 22.034 294.14 21.3858 294.152L19.4588 294.212C18.1818 294.266 16.9047 294.32 15.6277 294.387C10.5194 294.611 5.40946 294.86 0.29248 295.063L0.295984 295.007Z" fill="#A97D57"/>
<path d="M87.7648 288.406C89.1698 288.383 90.5747 288.46 91.9691 288.634C93.3705 288.802 94.7579 289.036 96.1313 289.335L97.1561 289.561C97.5065 289.626 97.8463 289.685 98.1914 289.736C98.8828 289.853 99.5759 289.959 100.271 290.055C101.658 290.249 103.051 290.416 104.447 290.524C104.797 290.555 105.148 290.579 105.498 290.598C105.849 290.621 106.199 290.633 106.549 290.645C107.25 290.67 107.951 290.664 108.651 290.661L112.856 290.642L121.28 290.61L138.131 290.577H146.555L154.979 290.591L163.405 290.629C166.222 290.617 169.036 290.801 171.828 291.178C173.229 291.358 174.619 291.577 175.997 291.836C177.381 292.097 178.756 292.399 180.114 292.782C180.454 292.875 180.79 292.984 181.126 293.091C181.302 293.147 181.456 293.189 181.622 293.236C181.789 293.283 181.96 293.313 182.132 293.345C182.815 293.474 183.512 293.551 184.208 293.621C185.609 293.756 187.011 293.835 188.412 293.889C191.215 293.991 194.018 294.01 196.821 293.945C199.624 293.882 202.427 293.751 205.229 293.527C206.631 293.413 208.032 293.276 209.413 293.094C210.113 293 210.802 292.898 211.49 292.775L212.016 292.682L212.529 292.577C212.869 292.506 213.23 292.442 213.568 292.376C216.355 291.933 219.16 291.738 221.963 291.535C224.765 291.332 227.568 291.185 230.371 291.052C233.174 290.918 235.977 290.797 238.792 290.701C244.405 290.498 250.02 290.333 255.637 290.205L264.062 290.03C266.864 289.978 269.681 289.918 272.489 289.93H289.34L306.19 289.95L323.039 290.004L339.89 290.086L356.74 290.209V290.268L339.891 290.389L323.041 290.472L306.192 290.526L289.342 290.545H272.493C269.69 290.524 266.887 290.573 264.072 290.614L255.649 290.761C250.034 290.878 244.42 291.013 238.808 291.167C233.202 291.342 227.582 291.528 221.978 291.868C219.175 292.043 216.373 292.218 213.605 292.635C213.254 292.698 212.922 292.754 212.575 292.826L212.049 292.928L211.524 293.015C210.823 293.134 210.133 293.231 209.435 293.32C208.034 293.495 206.633 293.632 205.231 293.742C202.428 293.958 199.625 294.08 196.812 294.135C193.999 294.189 191.191 294.198 188.382 294.101C186.981 294.052 185.58 293.98 184.178 293.851C183.477 293.781 182.777 293.707 182.076 293.579C181.901 293.546 181.726 293.506 181.55 293.469C181.375 293.432 181.2 293.374 181.035 293.322C180.703 293.217 180.37 293.112 180.032 293.024C178.683 292.656 177.309 292.372 175.931 292.125C174.552 291.878 173.163 291.679 171.772 291.512C168.992 291.167 166.191 291.013 163.39 291.052L154.963 291.09L146.539 291.104H138.138L121.287 291.071L112.863 291.039L108.658 291.018C107.958 291.018 107.257 291.018 106.546 290.981C106.195 290.967 105.845 290.95 105.495 290.924C105.144 290.897 104.794 290.873 104.444 290.841C103.042 290.715 101.645 290.54 100.253 290.316C99.5596 290.207 98.8665 290.09 98.1739 289.965C97.8236 289.902 97.4779 289.836 97.1369 289.767L96.1103 289.524C94.7439 289.214 93.3653 288.964 91.9743 288.772C90.5857 288.574 89.185 288.472 87.7823 288.466L87.7648 288.406Z" fill="#A97D57"/>
<path d="M0.296021 291.407C3.25655 291.057 6.22759 290.812 9.20213 290.601C10.69 290.501 12.1778 290.417 13.6657 290.351C14.4102 290.311 15.1565 290.291 15.901 290.267C16.6455 290.242 17.3918 290.232 18.138 290.223C21.1161 290.205 24.1064 290.27 27.0827 290.489L27.6397 290.53C27.8272 290.542 28.0129 290.556 28.1986 290.582L29.3109 290.717C29.6841 290.756 30.0485 290.819 30.4163 290.866C30.7842 290.913 31.1538 290.962 31.5252 291.001C33.002 291.176 34.4875 291.283 35.9713 291.391C38.9405 291.589 41.9133 291.731 44.8861 291.835C47.8589 291.938 50.8335 291.963 53.8062 291.94C56.779 291.917 59.7501 291.824 62.7054 291.549C64.1804 291.402 65.6571 291.232 67.1111 290.945C68.5651 290.657 70.0103 290.29 71.3347 289.61L71.3645 289.662L70.874 289.936C70.7934 289.981 70.711 290.029 70.6287 290.072L70.3712 290.186L69.8579 290.414C69.6827 290.482 69.5076 290.542 69.3324 290.607C69.1572 290.671 68.982 290.738 68.8068 290.792L68.269 290.953C67.9187 291.069 67.5455 291.151 67.1812 291.239C65.7237 291.577 64.2488 291.836 62.7632 292.013C61.2776 292.188 59.7851 292.311 58.2978 292.409C56.8106 292.507 55.3198 292.542 53.8203 292.584C52.3207 292.626 50.8422 292.6 49.3444 292.563C47.8467 292.527 46.3664 292.478 44.8704 292.404C43.3743 292.33 41.8923 292.243 40.405 292.129C38.9178 292.015 37.427 291.88 35.9502 291.726C34.4735 291.572 32.9862 291.398 31.5077 291.211L30.3988 291.062C30.0292 291.011 29.6596 290.945 29.2917 290.904L28.1863 290.775C28.0024 290.75 27.8167 290.738 27.631 290.728L27.0757 290.691C26.7043 290.668 26.3347 290.645 25.9633 290.631L24.8474 290.607C24.1046 290.589 23.3601 290.607 22.6156 290.607C21.8711 290.607 21.1283 290.629 20.3856 290.65L19.2697 290.682L18.1555 290.726C12.2082 290.917 6.26262 291.206 0.308283 291.474L0.296021 291.407Z" fill="#A97D57"/>
<path d="M339.73 277.666H189.269H167.179H16.7173L0.5 284L167.179 283.936H189.269H356.448L339.73 277.666Z" fill="#E2B36F"/>
<path d="M339.499 174C339.101 173.999 338.72 173.758 338.439 173.329C338.158 172.9 338 172.319 338 171.713V2.21565C338.012 1.62173 338.176 1.05836 338.456 0.644806C338.736 0.231256 339.11 0 339.5 0C339.89 0 340.264 0.231256 340.544 0.644806C340.824 1.05836 340.988 1.62173 341 2.21565V171.713C341 172.319 340.842 172.901 340.56 173.33C340.279 173.759 339.897 174 339.499 174Z" fill="#DEE8EC"/>
<path d="M337.746 189.6V279.292C337.738 279.532 337.779 279.771 337.865 279.995C337.952 280.218 338.083 280.423 338.25 280.595C338.417 280.767 338.617 280.905 338.838 280.998C339.059 281.092 339.297 281.14 339.537 281.14C339.777 281.14 340.014 281.092 340.235 280.998C340.456 280.905 340.656 280.767 340.824 280.595C340.991 280.423 341.121 280.218 341.208 279.995C341.295 279.771 341.335 279.532 341.328 279.292V189.6H337.746Z" fill="#DEE8EC"/>
<path d="M19.999 174C19.4687 173.999 18.9602 173.758 18.5854 173.329C18.2105 172.9 18 172.319 18 171.713V2.21565C18.0163 1.62173 18.2341 1.05836 18.6074 0.644806C18.9807 0.231256 19.4801 0 20 0C20.5199 0 21.0193 0.231256 21.3926 0.644806C21.7659 1.05836 21.9837 1.62173 22 2.21565V171.713C22 172.319 21.7892 172.901 21.4139 173.33C21.0387 173.759 20.5297 174 19.999 174Z" fill="#DEE8EC"/>
<path d="M18.3938 189.6V279.292C18.3863 279.532 18.427 279.771 18.5137 279.995C18.6003 280.218 18.731 280.423 18.8981 280.595C19.0652 280.767 19.2652 280.905 19.4862 280.998C19.7073 281.092 19.9449 281.14 20.185 281.14C20.425 281.14 20.6626 281.092 20.8837 280.998C21.1047 280.905 21.3047 280.767 21.4718 280.595C21.6389 280.423 21.7696 280.218 21.8563 279.995C21.9429 279.771 21.9837 279.532 21.9762 279.292V189.6H18.3938Z" fill="#DEE8EC"/>
<path opacity="0.1" d="M287.685 283.198C309.156 283.198 326.562 281.98 326.562 280.478C326.562 278.975 309.156 277.757 287.685 277.757C266.213 277.757 248.807 278.975 248.807 280.478C248.807 281.98 266.213 283.198 287.685 283.198Z" fill="#191919"/>
<path d="M320.105 278.404L314.837 244.54C313.867 239.595 307.369 235.896 301.399 235.896H274.129C268.159 235.896 261.663 239.595 260.691 244.54L255.424 278.404C255.352 278.771 255.362 279.15 255.454 279.512C255.545 279.875 255.716 280.213 255.954 280.502C256.192 280.791 256.491 281.024 256.829 281.184C257.167 281.344 257.537 281.427 257.911 281.427H317.617C317.992 281.427 318.361 281.344 318.7 281.184C319.038 281.024 319.337 280.791 319.574 280.502C319.812 280.213 319.983 279.875 320.075 279.512C320.166 279.15 320.177 278.771 320.105 278.404Z" fill="#FFCF33"/>
<path d="M301.555 247.938H273.973C270.406 247.938 267.514 250.83 267.514 254.397V262.928C267.514 266.495 270.406 269.387 273.973 269.387H301.555C305.122 269.387 308.014 266.495 308.014 262.928V254.397C308.014 250.83 305.122 247.938 301.555 247.938Z" fill="#3D4554"/>
<path d="M257.846 231.435H254.264V251.358H257.846V231.435Z" fill="#EFB422"/>
<path d="M256.054 234.982C259.157 234.982 261.672 232.467 261.672 229.364C261.672 226.261 259.157 223.746 256.054 223.746C252.951 223.746 250.436 226.261 250.436 229.364C250.436 232.467 252.951 234.982 256.054 234.982Z" fill="#FFCF33"/>
<path d="M256.781 269.673L259.859 249.891H255.497C254.087 249.891 252.736 250.451 251.739 251.448C250.742 252.445 250.182 253.797 250.182 255.206V264.358C250.182 265.767 250.742 267.119 251.739 268.116C252.736 269.113 254.087 269.673 255.497 269.673H256.781Z" fill="#F9C126"/>
<path d="M321.107 231.435H317.525V251.358H321.107V231.435Z" fill="#EFB422"/>
<path d="M319.315 234.982C322.418 234.982 324.933 232.467 324.933 229.364C324.933 226.261 322.418 223.746 319.315 223.746C316.212 223.746 313.697 226.261 313.697 229.364C313.697 232.467 316.212 234.982 319.315 234.982Z" fill="#FFCF33"/>
<path d="M318.588 269.673L315.512 249.891H319.877C321.287 249.891 322.639 250.451 323.635 251.448C324.632 252.445 325.192 253.797 325.192 255.206V264.358C325.192 265.767 324.632 267.119 323.635 268.116C322.639 269.113 321.287 269.673 319.877 269.673H318.588Z" fill="#F9C126"/>
<path d="M282.012 263.067H281.96C281.779 263.059 281.602 263.01 281.443 262.924C281.284 262.837 281.147 262.715 281.042 262.568L278.875 259.535L276.886 261.523C276.66 261.736 276.36 261.852 276.05 261.847C275.74 261.842 275.444 261.716 275.224 261.497C275.005 261.277 274.88 260.981 274.875 260.671C274.87 260.361 274.985 260.061 275.198 259.835L278.176 256.857C278.298 256.734 278.446 256.64 278.609 256.58C278.772 256.52 278.946 256.497 279.119 256.511C279.292 256.526 279.46 256.577 279.61 256.663C279.761 256.749 279.892 256.866 279.992 257.007L282.095 259.947L284.685 256.923C284.798 256.793 284.937 256.688 285.093 256.617C285.249 256.545 285.419 256.508 285.591 256.508H287.981C288.191 256.508 288.397 256.564 288.579 256.669C288.761 256.775 288.912 256.926 289.016 257.109L290.368 259.474L291.719 257.109C291.824 256.927 291.975 256.775 292.157 256.67C292.339 256.564 292.546 256.508 292.756 256.508H299.323C299.484 256.502 299.644 256.528 299.794 256.585C299.945 256.643 300.082 256.73 300.198 256.841C300.313 256.953 300.406 257.086 300.468 257.234C300.531 257.382 300.564 257.541 300.564 257.702C300.564 257.863 300.531 258.022 300.468 258.17C300.406 258.318 300.313 258.451 300.198 258.563C300.082 258.674 299.945 258.761 299.794 258.818C299.644 258.876 299.484 258.902 299.323 258.896H293.45L291.405 262.473C291.301 262.656 291.15 262.808 290.968 262.914C290.786 263.02 290.579 263.076 290.368 263.076C290.158 263.076 289.951 263.02 289.768 262.914C289.586 262.808 289.435 262.656 289.331 262.473L287.294 258.887H286.148L282.914 262.65C282.803 262.78 282.664 262.884 282.509 262.956C282.353 263.028 282.184 263.066 282.012 263.067Z" fill="#ADE7EE"/>
<path opacity="0.1" d="M182.955 283.198C206.406 283.198 225.417 281.98 225.417 280.478C225.417 278.975 206.406 277.757 182.955 277.757C159.504 277.757 140.494 278.975 140.494 280.478C140.494 281.98 159.504 283.198 182.955 283.198Z" fill="#191919"/>
<path d="M185.506 221.253H181.924V233.195H185.506V221.253Z" fill="#E55A89"/>
<path d="M183.716 224.801C186.818 224.801 189.334 222.285 189.334 219.183C189.334 216.08 186.818 213.565 183.716 213.565C180.613 213.565 178.098 216.08 178.098 219.183C178.098 222.285 180.613 224.801 183.716 224.801Z" fill="#F66689"/>
<path d="M210.068 259.055C210.069 256.17 209.609 253.304 208.705 250.564H216.376C217.709 250.564 218.987 251.094 219.93 252.036C220.872 252.979 221.402 254.257 221.402 255.59V265.328C221.402 266.661 220.872 267.94 219.93 268.882C218.987 269.825 217.709 270.354 216.376 270.354H210.07L210.068 259.055Z" fill="#E55A89"/>
<path d="M155.841 259.055C155.841 256.17 156.301 253.304 157.204 250.564H149.535C148.875 250.564 148.221 250.694 147.611 250.946C147.001 251.199 146.447 251.569 145.98 252.036C145.514 252.502 145.143 253.057 144.891 253.666C144.638 254.276 144.509 254.93 144.509 255.59V265.328C144.509 265.988 144.638 266.642 144.891 267.252C145.143 267.862 145.514 268.416 145.98 268.883C146.447 269.349 147.001 269.72 147.611 269.972C148.221 270.225 148.875 270.354 149.535 270.354H155.841V259.055Z" fill="#E55A89"/>
<path d="M182.982 231.915C186.546 231.915 190.075 232.617 193.368 233.981C196.661 235.345 199.653 237.344 202.173 239.864C204.693 242.384 206.692 245.376 208.056 248.669C209.42 251.962 210.122 255.491 210.122 259.055V271.477C210.122 273.166 209.451 274.786 208.257 275.98C207.063 277.174 205.443 277.845 203.754 277.845H162.216C160.527 277.845 158.907 277.174 157.713 275.98C156.519 274.786 155.848 273.166 155.848 271.477V259.055C155.848 251.858 158.707 244.956 163.795 239.866C168.883 234.777 175.785 231.917 182.982 231.915Z" fill="#2C2A46"/>
<path d="M203.756 281.427H162.216C159.578 281.424 157.049 280.375 155.184 278.51C153.318 276.645 152.269 274.117 152.266 271.479V259.055C152.266 242.115 166.049 228.332 182.989 228.332C199.928 228.332 213.712 242.115 213.712 259.055V271.479C213.709 274.118 212.659 276.647 210.792 278.513C208.926 280.378 206.395 281.426 203.756 281.427ZM182.982 235.497C169.992 235.497 159.424 246.066 159.424 259.055V271.479C159.424 271.845 159.497 272.207 159.637 272.546C159.778 272.884 159.984 273.191 160.243 273.449C160.502 273.708 160.81 273.913 161.149 274.052C161.487 274.192 161.85 274.263 162.216 274.262H203.763C204.501 274.261 205.209 273.968 205.73 273.446C206.252 272.924 206.546 272.217 206.547 271.479V259.055C206.536 246.059 195.971 235.497 182.982 235.497Z" fill="#F66689"/>
<path d="M174.026 255.662C175.754 255.662 177.155 254.261 177.155 252.533C177.155 250.805 175.754 249.405 174.026 249.405C172.298 249.405 170.898 250.805 170.898 252.533C170.898 254.261 172.298 255.662 174.026 255.662Z" fill="#DAF2F4"/>
<path d="M191.939 255.662C193.666 255.662 195.067 254.261 195.067 252.533C195.067 250.805 193.666 249.405 191.939 249.405C190.211 249.405 188.81 250.805 188.81 252.533C188.81 254.261 190.211 255.662 191.939 255.662Z" fill="#DAF2F4"/>
<path d="M177.938 262.431H189.5V262.781C189.5 264.314 188.891 265.785 187.807 266.869C186.723 267.953 185.252 268.562 183.719 268.562C182.186 268.562 180.716 267.953 179.631 266.869C178.547 265.785 177.938 264.314 177.938 262.781V262.431Z" fill="#DAF2F4"/>
<path opacity="0.1" d="M77.1086 283.198C98.5801 283.198 115.986 281.98 115.986 280.478C115.986 278.975 98.5801 277.757 77.1086 277.757C55.6371 277.757 38.2311 278.975 38.2311 280.478C38.2311 281.98 55.6371 283.198 77.1086 283.198Z" fill="#191919"/>
<path d="M55.8383 239.44L49.5214 247.145V261.609L52.6798 274.725L57.2363 279.502H96.5167L102.371 273.802L104.684 255.62L103.759 246.067L97.4416 239.44L84.9601 238.209L55.8383 239.44Z" fill="#1A272F"/>
<path d="M64.233 259.908C66.1931 259.908 67.7821 258.319 67.7821 256.359C67.7821 254.399 66.1931 252.81 64.233 252.81C62.2728 252.81 60.6838 254.399 60.6838 256.359C60.6838 258.319 62.2728 259.908 64.233 259.908Z" fill="#87DDE8"/>
<path d="M89.972 259.908C91.9321 259.908 93.5211 258.319 93.5211 256.359C93.5211 254.399 91.9321 252.81 89.972 252.81C88.0118 252.81 86.4229 254.399 86.4229 256.359C86.4229 258.319 88.0118 259.908 89.972 259.908Z" fill="#87DDE8"/>
<path d="M78.8937 223.657H75.3113V235.599H78.8937V223.657Z" fill="#E4F0F4"/>
<path d="M77.1016 227.204C80.2044 227.204 82.7196 224.689 82.7196 221.586C82.7196 218.483 80.2044 215.968 77.1016 215.968C73.9989 215.968 71.4836 218.483 71.4836 221.586C71.4836 224.689 73.9989 227.204 77.1016 227.204Z" fill="#F5F8F9"/>
<path d="M96.846 234.511H57.3589C53.9559 234.511 50.6924 235.862 48.286 238.268C45.8796 240.675 44.5274 243.938 44.527 247.341L46.948 267.875C47.3867 271.609 49.1811 275.052 51.9906 277.55C54.8 280.048 58.429 281.428 62.1885 281.427H92.0251C95.7845 281.428 99.4132 280.048 102.223 277.55C105.032 275.052 106.827 271.609 107.266 267.875L109.678 247.341C109.678 245.656 109.346 243.987 108.701 242.431C108.056 240.874 107.111 239.459 105.919 238.268C104.728 237.077 103.313 236.132 101.756 235.487C100.2 234.842 98.531 234.511 96.846 234.511ZM102.977 254.106L100.209 272.421C99.9788 273.948 99.2082 275.342 98.0375 276.349C96.8668 277.356 95.3737 277.91 93.8294 277.91H60.3702C58.8257 277.91 57.3324 277.356 56.1614 276.349C54.9904 275.342 54.2194 273.948 53.9884 272.421L51.2223 254.106C51.1322 253.511 51.1718 252.904 51.3382 252.325C51.5046 251.747 51.794 251.212 52.1866 250.755C52.5792 250.299 53.0657 249.933 53.6128 249.683C54.1599 249.432 54.7547 249.302 55.3566 249.303H55.7735V246.085C55.7735 245.536 55.8816 244.993 56.0917 244.486C56.3018 243.979 56.6097 243.518 56.9978 243.13C57.386 242.742 57.8468 242.434 58.3539 242.224C58.861 242.014 59.4044 241.907 59.9533 241.907H94.2463C95.3546 241.907 96.4174 242.347 97.2013 243.13C97.9851 243.914 98.4256 244.977 98.4261 246.085V249.303H98.843C99.445 249.302 100.04 249.432 100.587 249.682C101.135 249.933 101.621 250.299 102.014 250.755C102.407 251.211 102.696 251.747 102.863 252.325C103.03 252.903 103.069 253.511 102.979 254.106H102.977Z" fill="#F5F8F9"/>
<path d="M77.1015 271.954C72.9761 271.954 69.1186 270.493 66.5225 267.945C66.2 267.609 66.0211 267.161 66.0237 266.695C66.0263 266.229 66.2102 265.783 66.5364 265.45C66.8625 265.117 67.3054 264.925 67.7711 264.913C68.2368 264.902 68.6887 265.072 69.031 265.388C70.958 267.285 73.9063 268.366 77.1015 268.366C80.2968 268.366 83.2328 267.28 85.1738 265.388C85.3399 265.215 85.5391 265.077 85.7595 264.982C85.98 264.887 86.2172 264.838 86.4571 264.836C86.697 264.835 86.9348 264.882 87.1563 264.974C87.3778 265.066 87.5785 265.202 87.7465 265.374C87.9145 265.545 88.0464 265.748 88.1344 265.971C88.2223 266.195 88.2646 266.433 88.2586 266.673C88.2526 266.913 88.1985 267.149 88.0996 267.368C88.0006 267.586 87.8587 267.783 87.6824 267.945C85.0845 270.493 81.2288 271.954 77.1015 271.954Z" fill="#87DDE8"/>
<path d="M46.948 267.875L44.8055 249.657C42.6564 250.318 40.8194 251.735 39.6343 253.646C38.4492 255.557 37.9962 257.833 38.3589 260.052L39.0106 264.025C39.3612 266.161 40.4449 268.108 42.0754 269.531C43.7058 270.954 45.7812 271.765 47.9447 271.824C47.439 270.558 47.1038 269.23 46.948 267.875Z" fill="#E4F0F4"/>
<path d="M107.274 267.875L109.417 249.657C111.566 250.318 113.403 251.735 114.588 253.646C115.773 255.557 116.226 257.833 115.863 260.052L115.214 264.025C114.859 266.16 113.772 268.104 112.14 269.525C110.508 270.945 108.432 271.753 106.269 271.81C106.776 270.549 107.115 269.226 107.274 267.875Z" fill="#E4F0F4"/>
<path opacity="0.1" d="M287.685 175.901C309.156 175.901 326.562 174.683 326.562 173.18C326.562 171.678 309.156 170.46 287.685 170.46C266.213 170.46 248.807 171.678 248.807 173.18C248.807 174.683 266.213 175.901 287.685 175.901Z" fill="#191919"/>
<path d="M307.296 128.443H268.056C264.8 128.443 261.678 129.736 259.376 132.038C257.074 134.34 255.781 137.463 255.781 140.718L260.003 167.629C260.382 169.403 261.358 170.993 262.768 172.134C264.178 173.275 265.937 173.897 267.751 173.897H307.601C309.415 173.897 311.174 173.275 312.584 172.134C313.994 170.993 314.97 169.403 315.349 167.629L319.571 140.718C319.571 137.463 318.277 134.34 315.975 132.038C313.673 129.736 310.551 128.443 307.296 128.443Z" fill="#F5F8F9"/>
<path d="M304.269 141.372H271.083C267.551 141.372 264.689 144.234 264.689 147.766V153.487C264.689 157.018 267.551 159.881 271.083 159.881H304.269C307.8 159.881 310.663 157.018 310.663 153.487V147.766C310.663 144.234 307.8 141.372 304.269 141.372Z" fill="#242B36"/>
<path d="M274.241 155.997C277.209 155.997 279.614 153.592 279.614 150.624C279.614 147.657 277.209 145.252 274.241 145.252C271.274 145.252 268.869 147.657 268.869 150.624C268.869 153.592 271.274 155.997 274.241 155.997Z" fill="#87DDE8"/>
<path d="M301.11 155.997C304.077 155.997 306.483 153.592 306.483 150.624C306.483 147.657 304.077 145.252 301.11 145.252C298.143 145.252 295.737 147.657 295.737 150.624C295.737 153.592 298.143 155.997 301.11 155.997Z" fill="#87DDE8"/>
<path d="M256.131 142.946C255.205 142.93 254.287 143.119 253.444 143.501C252.6 143.882 251.852 144.447 251.253 145.153C250.654 145.859 250.22 146.69 249.982 147.585C249.744 148.48 249.707 149.416 249.875 150.327L251.254 157.749C251.404 158.555 251.711 159.323 252.157 160.01C252.604 160.698 253.181 161.29 253.857 161.754C254.532 162.218 255.293 162.544 256.094 162.714C256.896 162.884 257.724 162.895 258.529 162.745C258.759 162.699 258.987 162.64 259.211 162.57L256.131 142.946Z" fill="#E4F0F4"/>
<path d="M319.24 142.946C319.662 142.939 320.084 142.974 320.499 143.051C322.126 143.354 323.566 144.29 324.503 145.655C325.44 147.019 325.796 148.7 325.493 150.327L324.115 157.749C323.965 158.555 323.658 159.323 323.212 160.01C322.765 160.698 322.188 161.29 321.512 161.754C320.837 162.218 320.076 162.544 319.274 162.714C318.473 162.884 317.645 162.895 316.84 162.745C316.61 162.699 316.383 162.64 316.16 162.57L319.24 142.946Z" fill="#E4F0F4"/>
<path d="M269.345 128.443H273.611C273.614 128.236 273.586 128.029 273.528 127.83L269.368 114.271C269.293 114.002 269.166 113.75 268.992 113.531C268.819 113.312 268.603 113.13 268.358 112.995C268.113 112.861 267.844 112.777 267.566 112.749C267.288 112.72 267.007 112.748 266.74 112.83C266.473 112.912 266.225 113.047 266.011 113.226C265.797 113.406 265.621 113.626 265.493 113.875C265.366 114.124 265.29 114.396 265.269 114.674C265.249 114.953 265.284 115.233 265.374 115.498L269.345 128.443Z" fill="#E4F0F4"/>
<path d="M306.006 128.443L309.979 115.498C310.061 115.235 310.089 114.959 310.064 114.685C310.038 114.412 309.959 114.146 309.831 113.903C309.702 113.66 309.527 113.444 309.315 113.269C309.103 113.094 308.859 112.962 308.596 112.882C308.333 112.801 308.057 112.773 307.784 112.799C307.51 112.825 307.244 112.905 307.002 113.034C306.759 113.164 306.544 113.339 306.369 113.551C306.195 113.764 306.064 114.008 305.984 114.271L301.823 127.83C301.765 128.029 301.737 128.236 301.741 128.443H306.006Z" fill="#E4F0F4"/>
<path opacity="0.1" d="M182.955 175.901C206.406 175.901 225.417 174.683 225.417 173.18C225.417 171.678 206.406 170.46 182.955 170.46C159.504 170.46 140.494 171.678 140.494 173.18C140.494 174.683 159.504 175.901 182.955 175.901Z" fill="#191919"/>
<path d="M208.174 145.835H157.735C154.846 145.835 152.504 148.177 152.504 151.066V168.666C152.504 171.555 154.846 173.897 157.735 173.897H208.174C211.063 173.897 213.405 171.555 213.405 168.666V151.066C213.405 148.177 211.063 145.835 208.174 145.835Z" fill="#517BF2"/>
<path d="M152.506 158.075H147.729V161.657H152.506V158.075Z" fill="#3C6EDD"/>
<path d="M145.926 154.492H145.35C143.695 154.492 142.354 155.834 142.354 157.488V162.244C142.354 163.899 143.695 165.24 145.35 165.24H145.926C147.58 165.24 148.922 163.899 148.922 162.244V157.488C148.922 155.834 147.58 154.492 145.926 154.492Z" fill="#517BF2"/>
<path d="M218.182 158.075H213.405V161.657H218.182V158.075Z" fill="#3C6EDD"/>
<path d="M219.983 165.24H220.559C222.214 165.24 223.555 163.898 223.555 162.244V157.488C223.555 155.834 222.214 154.492 220.559 154.492H219.983C218.328 154.492 216.987 155.834 216.987 157.488V162.244C216.987 163.898 218.328 165.24 219.983 165.24Z" fill="#517BF2"/>
<path d="M184.746 137.476H181.163V145.835H184.746V137.476Z" fill="#3C6EDD"/>
<path d="M188.279 135.675V135.098C188.279 133.444 186.938 132.103 185.283 132.103H180.527C178.873 132.103 177.532 133.444 177.532 135.098V135.675C177.532 137.329 178.873 138.67 180.527 138.67H185.283C186.938 138.67 188.279 137.329 188.279 135.675Z" fill="#517BF2"/>
<path d="M204.119 150.612H161.79C159.3 150.612 157.281 152.631 157.281 155.121V164.612C157.281 167.103 159.3 169.122 161.79 169.122H204.119C206.609 169.122 208.628 167.103 208.628 164.612V155.121C208.628 152.631 206.609 150.612 204.119 150.612Z" fill="#2C2A46"/>
<path d="M172.168 163.917C174.405 163.917 176.218 162.104 176.218 159.867C176.218 157.63 174.405 155.817 172.168 155.817C169.931 155.817 168.118 157.63 168.118 159.867C168.118 162.104 169.931 163.917 172.168 163.917Z" fill="#C9DFE4"/>
<path d="M192.419 165.24C195.386 165.24 197.791 162.834 197.791 159.867C197.791 156.9 195.386 154.494 192.419 154.494C189.451 154.494 187.046 156.9 187.046 159.867C187.046 162.834 189.451 165.24 192.419 165.24Z" fill="#C9DFE4"/>
<path opacity="0.1" d="M77.1086 175.901C98.5801 175.901 115.986 174.683 115.986 173.18C115.986 171.678 98.5801 170.46 77.1086 170.46C55.6371 170.46 38.2311 171.678 38.2311 173.18C38.2311 174.683 55.6371 175.901 77.1086 175.901Z" fill="#191919"/>
<path d="M78.6239 113.296H75.0415V125.237H78.6239V113.296Z" fill="#2498A8"/>
<path d="M76.8319 116.843C79.9346 116.843 82.4499 114.328 82.4499 111.225C82.4499 108.122 79.9346 105.607 76.8319 105.607C73.7291 105.607 71.2139 108.122 71.2139 111.225C71.2139 114.328 73.7291 116.843 76.8319 116.843Z" fill="#2CC3D5"/>
<path d="M77.1313 121.356C81.2085 121.356 85.2457 122.159 89.0125 123.719C92.7793 125.279 96.2019 127.566 99.0849 130.449C101.968 133.332 104.255 136.755 105.815 140.521C107.375 144.288 108.178 148.325 108.178 152.403V166.613C108.178 168.543 107.412 170.395 106.048 171.761C104.684 173.126 102.833 173.895 100.903 173.897H53.3665C52.41 173.897 51.4628 173.709 50.5791 173.343C49.6954 172.977 48.8924 172.44 48.216 171.764C47.5396 171.087 47.0031 170.284 46.637 169.401C46.271 168.517 46.0826 167.57 46.0826 166.613V152.403C46.0826 148.325 46.8857 144.288 48.4461 140.521C50.0064 136.754 52.2935 133.331 55.1767 130.448C58.0598 127.565 61.4826 125.279 65.2496 123.718C69.0166 122.158 73.054 121.355 77.1313 121.356Z" fill="#2CC3D5"/>
<path d="M93.7244 138.819H60.5384C57.0071 138.819 54.1444 141.682 54.1444 145.213V150.935C54.1444 154.466 57.0071 157.329 60.5384 157.329H93.7244C97.2557 157.329 100.118 154.466 100.118 150.935V145.213C100.118 141.682 97.2557 138.819 93.7244 138.819Z" fill="#242B36"/>
<path d="M63.6968 153.447C66.6641 153.447 69.0696 151.041 69.0696 148.074C69.0696 145.107 66.6641 142.701 63.6968 142.701C60.7296 142.701 58.3241 145.107 58.3241 148.074C58.3241 151.041 60.7296 153.447 63.6968 153.447Z" fill="white"/>
<path d="M90.564 153.447C93.5313 153.447 95.9368 151.041 95.9368 148.074C95.9368 145.107 93.5313 142.701 90.564 142.701C87.5967 142.701 85.1913 145.107 85.1913 148.074C85.1913 151.041 87.5967 153.447 90.564 153.447Z" fill="white"/>
<path d="M72.9516 168.524H72.8991C72.7179 168.516 72.5409 168.467 72.3816 168.381C72.2222 168.294 72.0847 168.173 71.9794 168.025L69.8142 164.993L67.8259 166.981C67.5996 167.193 67.2997 167.309 66.9895 167.304C66.6792 167.299 66.3831 167.174 66.1638 166.954C65.9444 166.735 65.819 166.439 65.814 166.129C65.809 165.819 65.9249 165.519 66.1372 165.292L69.1152 162.314C69.2379 162.192 69.3859 162.097 69.5487 162.038C69.7116 161.978 69.8856 161.954 70.0584 161.969C70.2313 161.983 70.399 162.035 70.5498 162.121C70.7006 162.206 70.831 162.324 70.9318 162.465L73.034 165.404L75.6231 162.381C75.7357 162.25 75.875 162.146 76.0316 162.074C76.1881 162.002 76.3583 161.964 76.5306 161.964H78.9182C79.1289 161.964 79.3358 162.02 79.5179 162.126C79.7 162.231 79.8509 162.384 79.9553 162.566L81.3077 164.931L82.6583 162.566C82.7627 162.384 82.9136 162.231 83.0957 162.126C83.2779 162.02 83.4847 161.964 83.6954 161.964H90.2629C90.5797 161.964 90.8836 162.09 91.1076 162.314C91.3317 162.538 91.4576 162.842 91.4576 163.159C91.4576 163.475 91.3317 163.779 91.1076 164.003C90.8836 164.227 90.5797 164.353 90.2629 164.353H84.3926L82.3465 167.929C82.2422 168.112 82.0914 168.263 81.9095 168.369C81.7275 168.475 81.5208 168.53 81.3103 168.53C81.0999 168.53 80.8932 168.475 80.7112 168.369C80.5292 168.263 80.3784 168.112 80.2741 167.929L78.2298 164.352H77.0789L73.8591 168.104C73.747 168.235 73.6079 168.341 73.4513 168.413C73.2947 168.486 73.1243 168.524 72.9516 168.524Z" fill="#DAF2F4"/>
<path d="M46.0844 152.402C46.0845 149.577 46.4705 146.765 47.2318 144.045H43.8298C43.1066 144.044 42.3905 144.187 41.7223 144.463C41.0541 144.74 40.4469 145.145 39.9355 145.657C39.424 146.168 39.0183 146.775 38.7415 147.443C38.4647 148.111 38.3222 148.827 38.3222 149.551V159.135C38.322 159.858 38.4643 160.574 38.741 161.243C39.0177 161.911 39.4234 162.518 39.9348 163.03C40.4463 163.541 41.0536 163.947 41.7219 164.223C42.3902 164.5 43.1065 164.642 43.8298 164.642H46.0844V152.402Z" fill="#2498A8"/>
<path d="M108.133 152.402C108.132 149.577 107.746 146.765 106.984 144.045H110.386C111.109 144.044 111.825 144.187 112.493 144.463C113.161 144.74 113.769 145.145 114.28 145.657C114.791 146.168 115.197 146.775 115.474 147.443C115.751 148.111 115.893 148.827 115.893 149.551V159.135C115.893 159.858 115.751 160.574 115.474 161.243C115.198 161.911 114.792 162.518 114.281 163.03C113.769 163.541 113.162 163.947 112.494 164.223C111.825 164.5 111.109 164.642 110.386 164.642H108.133V152.402Z" fill="#2498A8"/>
</svg>
