<svg width="413" height="298" viewBox="0 0 413 298" fill="none" xmlns="http://www.w3.org/2000/svg">
<path d="M224.577 200.422L258.395 225.604C258.395 225.604 268.263 229.027 280.173 220.13C288.986 213.536 306.38 201.392 314.849 195.507C316.319 194.493 317.997 193.82 319.761 193.537C321.525 193.255 323.33 193.37 325.043 193.875C332.644 196.114 336.067 200.879 347.147 198.399C363.002 194.854 377.831 183.84 378.736 182.758C379.641 181.676 383.25 173.916 372.208 175.175C372.208 175.175 355.783 182.758 344.414 179.689C333.045 176.621 331.777 173.375 322.385 175.539C312.993 177.703 279.856 204.89 265.017 204.89C253.098 204.89 236.105 185.836 236.105 185.836L224.577 200.422Z" fill="url(#paint0_linear)"/>
<path d="M224.577 200.422L258.395 225.604C258.395 225.604 268.263 229.027 280.173 220.13C288.986 213.536 306.38 201.392 314.849 195.507C316.319 194.493 317.997 193.82 319.761 193.537C321.525 193.255 323.33 193.37 325.043 193.875C332.644 196.114 336.067 200.879 347.147 198.399C363.002 194.854 377.831 183.84 378.736 182.758C379.641 181.676 383.25 173.916 372.208 175.175C372.208 175.175 355.783 182.758 344.414 179.689C333.045 176.621 331.777 173.375 322.385 175.539C312.993 177.703 279.856 204.89 265.017 204.89C253.098 204.89 236.105 185.836 236.105 185.836L224.577 200.422Z" fill="url(#paint1_linear)"/>
<path d="M131.563 132.189C131.563 132.189 113.152 144.314 106.53 149.76C101.513 153.864 81.9828 181.107 75.8459 196.272C74.2884 200.087 83.9414 205.823 91.4586 209.451C98.9759 213.079 105.784 216.912 107.584 215.466V254.321C107.584 262.416 146.635 271.109 146.635 271.109L199.526 247.251L211.996 228.001V196.934L223.374 204.89C223.374 204.89 238.539 195.022 241.906 183.439C241.906 183.439 219.308 144.118 186.31 133.737C182.803 132.637 178.364 133.737 178.364 133.737L168.254 135.062L149.283 130.743L138.185 130.501L133.848 134.11L131.563 132.189Z" fill="url(#paint2_linear)"/>
<path opacity="0.5" d="M131.563 132.189C131.563 132.189 113.152 144.314 106.53 149.76C101.513 153.864 81.9828 181.107 75.8459 196.272C74.2884 200.087 83.9414 205.823 91.4586 209.451C98.9759 213.079 105.784 216.912 107.584 215.466V254.321C107.584 262.416 146.635 271.109 146.635 271.109L199.526 247.251L211.996 228.001V196.934L223.374 204.89C223.374 204.89 238.539 195.022 241.906 183.439C241.906 183.439 219.308 144.118 186.31 133.737C182.803 132.637 178.364 133.737 178.364 133.737L168.254 135.062L149.283 130.743L138.185 130.501L133.848 134.11L131.563 132.189Z" fill="url(#paint3_linear)"/>
<path d="M199.461 48.5854L200.748 54.9089H196.971L196.225 51.2902L197.232 49.2849L199.461 48.5854Z" fill="url(#paint4_linear)"/>
<path d="M189.23 96.6452H202.063C203.77 96.6452 205.46 96.3088 207.037 95.6553C208.614 95.0019 210.046 94.044 211.253 92.8366C212.46 91.6292 213.416 90.1959 214.069 88.6186C214.721 87.0413 215.056 85.3508 215.055 83.6439V67.9006C215.056 66.1942 214.721 64.5042 214.068 62.9274C213.416 61.3506 212.459 59.9179 211.252 58.7112C210.046 57.5046 208.613 56.5476 207.036 55.8952C205.459 55.2427 203.769 54.9075 202.063 54.9087H190.032L189.23 96.6452Z" fill="url(#paint5_linear)"/>
<path d="M142.261 107.156V124.485C142.261 124.485 151.149 138.923 163.199 142.056C167.517 138.64 170.43 133.759 171.388 128.337V113.414L142.261 107.156Z" fill="url(#paint6_linear)"/>
<path d="M142.261 107.156V124.485C142.261 124.485 151.149 138.923 163.199 142.056C167.517 138.64 170.43 133.759 171.388 128.337V113.414L142.261 107.156Z" fill="url(#paint7_linear)"/>
<path d="M132.635 51.7935V96.8036C132.635 96.8036 135.284 108.117 144.667 113.414C154.049 118.712 173.066 121.594 184.379 113.414C195.692 105.235 201.708 72.4985 195.916 50.1147L172.348 33.019H158.144L143.221 42.4109L132.635 51.7935Z" fill="url(#paint8_linear)"/>
<path d="M132.635 51.7935V96.8036C132.635 96.8036 135.284 108.117 144.667 113.414C154.049 118.712 173.066 121.594 184.379 113.414C195.692 105.235 201.708 72.4985 195.916 50.1147L172.348 33.019H158.144L143.221 42.4109L132.635 51.7935Z" fill="url(#paint9_linear)"/>
<path d="M132.636 65.0374C132.636 65.0374 137.206 49.8724 145.395 50.833C153.583 51.7937 189.08 58.5368 198.165 49.9004C203.851 44.2848 208.335 37.57 211.343 30.1653C211.343 30.1653 216.519 6.33585 198.165 7.054C179.81 7.77215 169.252 11.4841 161.791 13.4054C154.33 15.3267 155.262 18.1247 145.936 18.1247C143.427 18.1247 137.271 14.7578 137.271 14.7578C137.271 14.7578 128.131 9.22709 121.873 15.9609C121.873 15.9609 105.262 38.8297 114.412 57.3616C123.561 75.8936 132.636 65.0374 132.636 65.0374Z" fill="url(#paint10_linear)"/>
<path d="M116.025 58.4064C116.025 58.4064 111.455 12.5662 138.651 4.36813C165.848 -3.82994 182.804 8.46251 182.804 8.46251C182.804 8.46251 175.23 9.68429 169.914 11.1299C169.914 11.1299 164.719 4.67591 144.611 9.26459C124.503 13.8533 121.686 55.1048 121.5 59.4417C121.313 63.7785 117.713 60.1598 117.713 60.1598L116.025 58.4064Z" fill="url(#paint11_linear)"/>
<path d="M133.428 99.3128H120.595C117.148 99.3103 113.844 97.9394 111.408 95.5015C108.971 93.0636 107.603 89.758 107.603 86.3115V70.5869C107.601 68.8792 107.935 67.1878 108.587 65.6094C109.238 64.0309 110.195 62.5965 111.402 61.3881C112.608 60.1797 114.041 59.2211 115.619 58.567C117.196 57.9129 118.887 57.5763 120.595 57.5763C120.595 57.5763 133.335 56.8208 134.445 59.6188C137.97 68.5257 133.428 99.3128 133.428 99.3128Z" fill="url(#paint12_linear)"/>
<path fill-rule="evenodd" clip-rule="evenodd" d="M201.13 96.6459H202.063C202.445 96.6459 202.874 96.6179 203.284 96.5713C202.37 98.5112 197.054 108.09 181.125 108.09H180.822C180.242 109.904 178.088 111.251 175.519 111.251C172.506 111.251 170.063 109.397 170.063 107.11C170.063 104.823 172.506 102.969 175.519 102.969C178.136 102.969 180.323 104.368 180.853 106.233C194.163 106.305 199.524 99.3988 201.13 96.6459Z" fill="url(#paint13_linear)"/>
<g filter="url(#filter0_d)">
<path d="M130.108 133.41C131.314 131.159 133.037 129.225 135.135 127.768C140.423 124.14 142.26 124.485 142.26 124.485C142.26 124.485 151.149 138.922 163.199 142.056C160.772 143.299 158.609 145 156.828 147.065C154.927 149.351 153.586 152.05 152.911 154.946L130.108 133.41Z" fill="url(#paint14_linear)"/>
</g>
<g filter="url(#filter1_d)">
<path d="M163.199 142.056C167.517 138.641 170.431 133.759 171.388 128.337V126.649C174.247 126.646 177.07 127.282 179.652 128.51C182.234 129.738 184.509 131.527 186.31 133.746L176.685 149.76C176.685 149.76 168.021 141.469 163.199 142.056Z" fill="url(#paint15_linear)"/>
</g>
<path d="M119.998 180.687C119.065 183.662 118.03 186.6 117.013 189.529L113.945 198.305L110.849 207.063C109.795 209.982 108.778 212.92 107.603 215.82C108.037 212.726 108.66 209.661 109.468 206.643C110.233 203.612 111.184 200.637 112.192 197.689C113.199 194.742 114.374 191.832 115.708 189.034C116.948 186.158 118.382 183.37 119.998 180.687V180.687Z" fill="black" fill-opacity="0.5"/>
<path d="M205.085 179.363C206.186 180.544 207.164 181.835 208.004 183.215C208.857 184.572 209.609 185.99 210.252 187.458C210.917 188.936 211.436 190.476 211.8 192.056C212.234 193.646 212.308 195.313 212.014 196.934C211.579 195.42 211.044 193.937 210.41 192.495C209.813 191.068 209.179 189.641 208.545 188.214C207.911 186.787 207.314 185.332 206.68 183.868C206.072 182.394 205.539 180.891 205.085 179.363V179.363Z" fill="black" fill-opacity="0.5"/>
<path d="M158.444 213.691L142.576 292.306C142.51 292.637 142.518 292.979 142.598 293.307C142.678 293.635 142.829 293.941 143.04 294.205C143.251 294.468 143.517 294.682 143.82 294.832C144.123 294.981 144.455 295.063 144.792 295.071L253.671 295.071C254.566 295.088 255.439 294.798 256.145 294.249C256.851 293.7 257.347 292.925 257.551 292.054L273.353 218.007C273.586 217.013 273.597 215.981 273.384 214.983C273.172 213.984 272.742 213.045 272.126 212.232C271.509 211.419 270.721 210.752 269.817 210.279C268.913 209.805 267.916 209.537 266.896 209.493L169.252 205.261C166.742 205.151 164.275 205.939 162.294 207.484C160.313 209.029 158.948 211.23 158.444 213.691Z" fill="url(#paint16_linear)"/>
<path d="M146.831 270.111L101.13 251.691C101.13 251.691 92.009 247.718 95.7116 234.176C98.379 224.411 100.86 217.574 102.035 214.515C99.0972 213.284 95.3572 211.335 91.4401 209.451C88.6101 208.077 85.8549 206.555 83.186 204.89L74.2605 238.466C74.2605 238.466 68.0023 258.686 81.4793 265.905C92.0463 271.575 128.411 283.159 143.594 287.897L146.831 270.111Z" fill="url(#paint17_linear)"/>
<path d="M146.831 270.111L101.13 251.691C101.13 251.691 92.009 247.718 95.7116 234.176C98.379 224.411 100.86 217.574 102.035 214.515C99.0972 213.284 95.3572 211.335 91.4401 209.451C88.6101 208.077 85.8549 206.555 83.186 204.89L74.2605 238.466C74.2605 238.466 68.0023 258.686 81.4793 265.905C92.0463 271.575 128.411 283.159 143.594 287.897L146.831 270.111Z" fill="url(#paint18_linear)"/>
<path d="M346.718 132.675C345.564 131.165 344.982 129.294 345.077 127.396C344.945 123.52 345.785 119.672 347.52 116.204C349.556 112.647 351.973 109.322 354.73 106.29C356.645 104.162 358.389 101.885 359.943 99.4812C361.064 97.6295 361.64 95.4991 361.604 93.3349C361.646 92.2109 361.423 91.0928 360.951 90.0716C360.48 89.0505 359.773 88.1553 358.89 87.4592C356.771 85.9013 354.175 85.1297 351.55 85.2768C348.833 85.2533 346.147 85.8397 343.687 86.9929C341.262 88.14 338.017 89.8934 333.978 92.281C331.417 93.6925 329.299 94.3982 327.627 94.3982C326.71 94.391 325.809 94.1646 324.997 93.7378C324.186 93.3111 323.489 92.6965 322.964 91.9453C321.658 90.2662 320.976 88.1862 321.033 86.0602C320.994 84.668 321.288 83.2867 321.891 82.0311C322.561 80.7939 323.494 79.718 324.624 78.8787C328.644 75.7211 333.182 73.285 338.035 71.6786C342.951 69.9829 348.113 69.113 353.312 69.1045C358.373 69.0257 363.394 70.014 368.048 72.005C372.101 73.7035 375.618 76.469 378.224 80.0072C380.624 83.3332 381.899 87.3398 381.861 91.4416C381.898 94.5202 381.241 97.5676 379.94 100.358C378.765 102.9 377.229 105.26 375.379 107.362C373.619 109.346 371.241 111.792 368.244 114.702C365.556 117.101 363.038 119.685 360.708 122.434C359.065 124.431 357.971 126.823 357.537 129.373C357.277 130.884 356.507 132.26 355.355 133.271C354.221 134.208 352.786 134.702 351.316 134.661C350.448 134.71 349.581 134.556 348.783 134.211C347.985 133.866 347.278 133.34 346.718 132.675V132.675ZM343.482 161.055C341.443 158.84 340.311 155.938 340.311 152.927C340.311 149.916 341.443 147.015 343.482 144.799C344.53 143.731 345.788 142.892 347.176 142.335C348.565 141.778 350.054 141.515 351.55 141.563C353.023 141.521 354.49 141.787 355.855 142.344C357.22 142.902 358.454 143.738 359.477 144.799C361.522 147.012 362.658 149.914 362.658 152.927C362.658 155.94 361.522 158.843 359.477 161.055C358.454 162.117 357.22 162.953 355.855 163.51C354.49 164.067 353.023 164.334 351.55 164.292C350.054 164.339 348.565 164.076 347.176 163.519C345.788 162.962 344.53 162.123 343.482 161.055V161.055Z" fill="url(#paint19_linear)"/>
<path d="M217.126 242.933C221.401 244.04 223.972 246.857 224.467 251.239C225.097 256.658 223.833 261.49 219.377 265.11C216.961 267.052 214.472 268.89 211.927 270.663C211.614 270.875 211.259 271.015 210.885 271.074C210.512 271.133 210.131 271.109 209.768 271.004C209.499 270.775 209.289 270.486 209.154 270.159C209.019 269.833 208.964 269.479 208.993 269.127C209.166 267.507 208.453 267.096 206.992 266.86C196.756 265.227 194.761 256.859 197.065 249.179C198.565 244.155 202.52 242.244 207.432 241.868C208.459 241.79 209.502 241.898 210.528 241.913C212.749 242.092 214.955 242.432 217.126 242.933V242.933Z" fill="#87DDE8"/>
<path d="M277.185 48.6717C276.907 48.598 276.646 48.4701 276.418 48.2954C276.19 48.1206 275.998 47.9025 275.854 47.6535C275.71 47.4045 275.617 47.1295 275.579 46.8443C275.542 46.5592 275.561 46.2694 275.636 45.9917L276.635 42.3822C272.151 40.9338 266.705 37.7348 264.529 33.707C261.833 28.7033 262.422 22.925 263.398 18.9902C265.079 12.1043 268.82 7.4879 273.94 6.00073C278.029 4.80015 283.002 5.6909 286.449 6.65137C289.055 7.36909 291.583 8.34739 293.993 9.57148C299.501 12.4064 302.397 17.4334 301.956 23.3511C301.429 30.3222 298.525 36.6349 294.21 40.2057C292.23 41.7213 290.093 43.0197 287.836 44.0785L286.581 44.7137C283.73 46.2009 280.849 47.5718 278.657 48.5865C278.249 48.7704 277.796 48.8271 277.356 48.7492L277.185 48.6717ZM285.76 9.23067C281.368 8.0146 277.456 7.7745 274.738 8.57231C269.145 10.2066 266.907 16.1786 266.07 19.6022C265.234 23.0258 264.668 28.1766 266.953 32.4213C268.82 35.8758 274.079 38.8657 278.308 40.043C278.533 40.1029 278.744 40.2072 278.928 40.3496C279.113 40.4921 279.267 40.6698 279.381 40.8725C279.496 41.0752 279.569 41.2988 279.596 41.5301C279.624 41.7614 279.604 41.9958 279.54 42.2196L278.603 45.5734C280.586 44.6285 282.987 43.4744 285.357 42.2428L286.627 41.5922C288.704 40.6257 290.675 39.4445 292.506 38.0679C296.286 34.9696 298.819 29.3617 299.284 23.1032C299.648 18.2467 297.347 14.2809 292.793 11.9339C290.544 10.8029 288.188 9.89994 285.76 9.23842V9.23067Z" fill="#F66689"/>
<path d="M247.632 121.766C247.006 121.767 246.397 121.572 245.888 121.208C245.379 120.844 244.998 120.329 244.797 119.737L241.815 110.698C241.568 109.944 241.629 109.122 241.985 108.413C242.16 108.063 242.403 107.751 242.7 107.496C242.996 107.241 243.34 107.047 243.713 106.926L252.759 103.944C253.131 103.82 253.524 103.771 253.914 103.8C254.305 103.829 254.686 103.934 255.036 104.11C255.386 104.287 255.697 104.53 255.953 104.827C256.208 105.124 256.402 105.469 256.524 105.841L259.514 114.857C259.639 115.229 259.69 115.623 259.662 116.015C259.635 116.407 259.53 116.789 259.353 117.14C259.177 117.491 258.932 117.803 258.634 118.059C258.336 118.315 257.99 118.509 257.616 118.629L248.577 121.612C248.272 121.713 247.953 121.765 247.632 121.766V121.766ZM253.689 105.315C253.536 105.314 253.384 105.34 253.24 105.392L244.201 108.374C244.021 108.432 243.854 108.525 243.711 108.648C243.567 108.771 243.449 108.921 243.364 109.089C243.279 109.258 243.229 109.442 243.215 109.63C243.202 109.819 243.226 110.008 243.287 110.187L246.269 119.226C246.389 119.587 246.647 119.885 246.987 120.056C247.326 120.228 247.72 120.258 248.081 120.14L257.128 117.158C257.307 117.101 257.472 117.008 257.615 116.886C257.757 116.763 257.873 116.613 257.957 116.445C258.128 116.104 258.158 115.709 258.042 115.345L255.052 106.306C254.959 106.018 254.777 105.767 254.532 105.589C254.287 105.411 253.992 105.315 253.689 105.315V105.315Z" fill="#F99B45"/>
<path d="M406.261 144.844C409.47 144.844 412.071 142.243 412.071 139.035C412.071 135.826 409.47 133.226 406.261 133.226C403.053 133.226 400.452 135.826 400.452 139.035C400.452 142.243 403.053 144.844 406.261 144.844Z" fill="#55CFFF"/>
<path d="M84.8153 114.636C83.0536 114.636 81.3314 114.114 79.8666 113.135C78.4017 112.156 77.26 110.765 76.5858 109.138C75.9116 107.51 75.7352 105.719 76.0789 103.991C76.4226 102.263 77.271 100.676 78.5167 99.4303C79.7625 98.1845 81.3497 97.3361 83.0775 96.9924C84.8054 96.6487 86.5964 96.8252 88.2241 97.4993C89.8517 98.1735 91.2429 99.3152 92.2217 100.78C93.2004 102.245 93.7229 103.967 93.7229 105.729C93.7208 108.091 92.7817 110.355 91.1116 112.025C89.4416 113.695 87.1771 114.634 84.8153 114.636V114.636ZM84.8153 98.3704C83.36 98.3704 81.9373 98.802 80.7272 99.6105C79.5171 100.419 78.574 101.568 78.017 102.913C77.4601 104.257 77.3144 105.737 77.5983 107.164C77.8822 108.592 78.5831 109.903 79.6121 110.932C80.6412 111.961 81.9524 112.662 83.3798 112.946C84.8072 113.23 86.2867 113.084 87.6313 112.527C88.9758 111.97 90.1251 111.027 90.9336 109.817C91.7422 108.607 92.1737 107.184 92.1737 105.729C92.1717 103.778 91.3958 101.907 90.0162 100.528C88.6367 99.1484 86.7663 98.3725 84.8153 98.3704V98.3704Z" fill="#2498A8"/>
<path d="M317.346 259.637C316.879 259.638 316.42 259.527 316.006 259.312C315.656 259.141 315.344 258.902 315.088 258.61C314.831 258.317 314.635 257.977 314.511 257.608L311.529 248.569C311.405 248.197 311.356 247.804 311.385 247.412C311.413 247.021 311.519 246.639 311.695 246.289C311.871 245.939 312.115 245.626 312.412 245.37C312.709 245.114 313.054 244.919 313.426 244.797L322.473 241.815C323.224 241.567 324.042 241.628 324.748 241.984C325.454 242.34 325.99 242.962 326.238 243.712L329.228 252.728C329.353 253.1 329.404 253.494 329.376 253.886C329.349 254.278 329.244 254.66 329.067 255.011C328.891 255.362 328.646 255.674 328.348 255.93C328.05 256.186 327.704 256.38 327.33 256.5L318.291 259.483C317.986 259.584 317.667 259.636 317.346 259.637V259.637ZM323.403 243.186C323.25 243.186 323.098 243.212 322.953 243.263L313.914 246.245C313.554 246.366 313.255 246.624 313.084 246.963C312.913 247.303 312.883 247.696 313 248.058L315.982 257.097C316.103 257.458 316.361 257.756 316.7 257.927C317.04 258.098 317.433 258.129 317.795 258.011L326.842 255.029C327.203 254.908 327.501 254.65 327.672 254.311C327.843 253.971 327.874 253.578 327.756 253.216L324.766 244.177C324.673 243.889 324.49 243.638 324.246 243.46C324.001 243.282 323.706 243.186 323.403 243.186V243.186Z" fill="#2C2A46"/>
<path d="M42.9886 37.9539C53.4693 37.9539 61.9655 29.4576 61.9655 18.9769C61.9655 8.49626 53.4693 0 42.9886 0C32.5079 0 24.0117 8.49626 24.0117 18.9769C24.0117 29.4576 32.5079 37.9539 42.9886 37.9539Z" fill="url(#paint20_linear)"/>
<path opacity="0.5" d="M42.4369 17.464C43.2116 17.464 43.9689 17.2343 44.613 16.8039C45.2571 16.3736 45.7592 15.7618 46.0556 15.0461C46.3521 14.3304 46.4296 13.5429 46.2785 12.7831C46.1274 12.0233 45.7543 11.3254 45.2065 10.7776C44.6588 10.2298 43.9609 9.85676 43.2011 9.70563C42.4413 9.5545 41.6537 9.63207 40.938 9.92853C40.2223 10.225 39.6106 10.727 39.1802 11.3711C38.7498 12.0153 38.5201 12.7725 38.5201 13.5472C38.5214 14.5856 38.9345 15.5811 39.6688 16.3154C40.403 17.0496 41.3985 17.4627 42.4369 17.464Z" fill="white"/>
<g opacity="0.5">
<path opacity="0.5" d="M43.5299 25.6017C43.5299 24.528 43.9564 23.4982 44.7157 22.739C45.4749 21.9798 46.5046 21.5532 47.5783 21.5532H47.801C47.0801 20.3807 45.9963 19.4756 44.714 18.9753C43.4318 18.475 42.0213 18.4069 40.6969 18.7814C39.3724 19.1559 38.2064 19.9525 37.376 21.0501C36.5456 22.1477 36.0962 23.4865 36.096 24.8628V27.1755C36.0973 27.4824 36.2199 27.7764 36.4369 27.9934C36.6539 28.2105 36.9479 28.333 37.2549 28.3343H44.5724C43.8965 27.5852 43.5247 26.6106 43.5299 25.6017Z" fill="white"/>
</g>
<path d="M47.5935 21.5376C46.7928 21.5376 46.0101 21.775 45.3443 22.2199C44.6786 22.6647 44.1597 23.297 43.8533 24.0368C43.5469 24.7765 43.4667 25.5905 43.6229 26.3758C43.7791 27.1611 44.1647 27.8825 44.7309 28.4487C45.297 29.0149 46.0184 29.4004 46.8037 29.5566C47.589 29.7128 48.403 29.6327 49.1428 29.3262C49.8825 29.0198 50.5148 28.5009 50.9597 27.8352C51.4045 27.1694 51.6419 26.3867 51.6419 25.586C51.6419 24.5123 51.2154 23.4826 50.4562 22.7233C49.697 21.9641 48.6672 21.5376 47.5935 21.5376ZM49.6633 25.0294L47.2494 27.3015C47.1743 27.3729 47.0747 27.4127 46.9711 27.4128C46.8669 27.4129 46.7662 27.3752 46.6877 27.3066L45.4985 26.1983C45.419 26.125 45.3717 26.0232 45.367 25.9151C45.3622 25.807 45.4004 25.7015 45.4732 25.6214C45.5474 25.5416 45.6501 25.4942 45.759 25.4895C45.8679 25.4848 45.9742 25.5231 46.0551 25.5961L46.966 26.4412L49.1016 24.417C49.1397 24.3786 49.185 24.3481 49.2349 24.3273C49.2849 24.3065 49.3384 24.2958 49.3925 24.2958C49.4466 24.2958 49.5002 24.3065 49.5501 24.3273C49.6001 24.3481 49.6454 24.3786 49.6835 24.417C49.7262 24.4565 49.7599 24.5046 49.7824 24.5583C49.8048 24.6119 49.8154 24.6697 49.8135 24.7278C49.8116 24.7859 49.7971 24.8429 49.7712 24.8949C49.7453 24.947 49.7085 24.9928 49.6633 25.0294V25.0294Z" fill="white"/>
<path d="M20.9134 183.573C32.4635 183.573 41.8267 174.21 41.8267 162.659C41.8267 151.109 32.4635 141.746 20.9134 141.746C9.36323 141.746 0 151.109 0 162.659C0 174.21 9.36323 183.573 20.9134 183.573Z" fill="url(#paint21_linear)"/>
<path opacity="0.5" d="M32.9318 156.932C32.7293 155.831 32.1923 154.819 31.394 154.033C30.5957 153.248 29.5748 152.728 28.4702 152.543C27.4273 152.335 26.3662 152.23 25.3025 152.231C23.8972 152.231 21.9229 152.415 20.4953 153.296C19.321 154.059 18.4861 155.246 18.1641 156.609C19.2796 156.703 20.3618 157.036 21.3374 157.585C23.122 158.7 24.0533 160.831 23.9697 163.613C23.9466 164.618 23.7775 165.613 23.4678 166.569C24.0809 166.703 24.7038 166.787 25.3305 166.82V168.304C25.3305 168.534 25.4221 168.756 25.5853 168.919C25.7484 169.082 25.9697 169.174 26.2004 169.174H26.2785C26.4553 169.158 26.6229 169.088 26.7581 168.973C27.4776 168.354 28.4312 167.534 29.3514 166.67L29.7529 166.296C30.4994 165.663 31.1745 164.951 31.7662 164.171C33.0321 162.325 33.4671 159.632 32.9318 156.932Z" fill="white"/>
<path d="M21.3315 157.584C19.9038 156.697 17.9296 156.513 16.5243 156.513C15.4606 156.512 14.3995 156.617 13.3566 156.825C12.2522 157.013 11.232 157.534 10.434 158.32C9.636 159.106 9.09878 160.119 8.89506 161.22C8.33738 163.919 8.80028 166.613 10.0662 168.42C10.6578 169.201 11.3329 169.915 12.0795 170.55L12.481 170.924C13.4012 171.777 14.3493 172.597 15.0799 173.227C15.2112 173.337 15.3724 173.405 15.5427 173.422H15.6375C15.8664 173.421 16.0854 173.329 16.2471 173.168C16.4089 173.006 16.5005 172.787 16.502 172.558V171.091C18.3535 171.013 20.7404 170.377 21.9896 169.078C23.5344 167.466 23.9192 165.208 23.9694 163.601C24.0475 160.83 23.1161 158.688 21.3315 157.584Z" fill="white"/>
<defs>
<filter id="filter0_d" x="128.108" y="122.476" width="37.0907" height="34.4695" filterUnits="userSpaceOnUse" color-interpolation-filters="sRGB">
<feFlood flood-opacity="0" result="BackgroundImageFix"/>
<feColorMatrix in="SourceAlpha" type="matrix" values="0 0 0 0 0 0 0 0 0 0 0 0 0 0 0 0 0 0 127 0"/>
<feOffset/>
<feGaussianBlur stdDeviation="1"/>
<feColorMatrix type="matrix" values="0 0 0 0 0 0 0 0 0 0 0 0 0 0 0 0 0 0 0.25 0"/>
<feBlend mode="normal" in2="BackgroundImageFix" result="effect1_dropShadow"/>
<feBlend mode="normal" in="SourceGraphic" in2="effect1_dropShadow" result="shape"/>
</filter>
<filter id="filter1_d" x="161.199" y="124.649" width="27.1113" height="27.1113" filterUnits="userSpaceOnUse" color-interpolation-filters="sRGB">
<feFlood flood-opacity="0" result="BackgroundImageFix"/>
<feColorMatrix in="SourceAlpha" type="matrix" values="0 0 0 0 0 0 0 0 0 0 0 0 0 0 0 0 0 0 127 0"/>
<feOffset/>
<feGaussianBlur stdDeviation="1"/>
<feColorMatrix type="matrix" values="0 0 0 0 0 0 0 0 0 0 0 0 0 0 0 0 0 0 0.25 0"/>
<feBlend mode="normal" in2="BackgroundImageFix" result="effect1_dropShadow"/>
<feBlend mode="normal" in="SourceGraphic" in2="effect1_dropShadow" result="shape"/>
</filter>
<linearGradient id="paint0_linear" x1="403.798" y1="171.461" x2="376.099" y2="280.421" gradientUnits="userSpaceOnUse">
<stop stop-color="#F4DFCC"/>
<stop offset="0.43888" stop-color="#E9BF9A"/>
<stop offset="1" stop-color="#E5B494"/>
</linearGradient>
<linearGradient id="paint1_linear" x1="297.434" y1="204.099" x2="277.435" y2="249.442" gradientUnits="userSpaceOnUse">
<stop stop-color="#F66689" stop-opacity="0"/>
<stop offset="1" stop-color="#F66689" stop-opacity="0.35"/>
</linearGradient>
<linearGradient id="paint2_linear" x1="267.329" y1="121.269" x2="122.359" y2="344.259" gradientUnits="userSpaceOnUse">
<stop stop-color="#6D8CE5"/>
<stop offset="0.43888" stop-color="#517BF2"/>
<stop offset="1" stop-color="#4D6CC5"/>
</linearGradient>
<linearGradient id="paint3_linear" x1="173.116" y1="210.683" x2="93.5135" y2="237.584" gradientUnits="userSpaceOnUse">
<stop stop-color="#D14567" stop-opacity="0"/>
<stop offset="1" stop-color="#D14567" stop-opacity="0.35"/>
</linearGradient>
<linearGradient id="paint4_linear" x1="201.44" y1="48.1703" x2="194.325" y2="54.7925" gradientUnits="userSpaceOnUse">
<stop stop-color="#788CA3"/>
<stop offset="0.43888" stop-color="#607B99"/>
<stop offset="1" stop-color="#485C73"/>
</linearGradient>
<linearGradient id="paint5_linear" x1="219.005" y1="52.1684" x2="173.007" y2="89.2006" gradientUnits="userSpaceOnUse">
<stop stop-color="#FBB3C4"/>
<stop offset="0.43888" stop-color="#F66689"/>
<stop offset="1" stop-color="#C85C77"/>
</linearGradient>
<linearGradient id="paint6_linear" x1="175.842" y1="104.865" x2="136.605" y2="147.472" gradientUnits="userSpaceOnUse">
<stop stop-color="#F4DFCC"/>
<stop offset="0.43888" stop-color="#E9BF9A"/>
<stop offset="1" stop-color="#E5B494"/>
</linearGradient>
<linearGradient id="paint7_linear" x1="171.18" y1="128.578" x2="150.169" y2="118.304" gradientUnits="userSpaceOnUse">
<stop stop-color="#F66689" stop-opacity="0"/>
<stop offset="0.982688" stop-color="#E7496F" stop-opacity="0.35"/>
</linearGradient>
<linearGradient id="paint8_linear" x1="208.175" y1="27.405" x2="111.717" y2="123.572" gradientUnits="userSpaceOnUse">
<stop stop-color="#F4DFCC"/>
<stop offset="0.43888" stop-color="#E9BF9A"/>
<stop offset="1" stop-color="#E5B494"/>
</linearGradient>
<linearGradient id="paint9_linear" x1="198.29" y1="78.2313" x2="116.819" y2="99.9816" gradientUnits="userSpaceOnUse">
<stop stop-color="#F66689" stop-opacity="0"/>
<stop offset="1" stop-color="#F66689" stop-opacity="0.35"/>
</linearGradient>
<linearGradient id="paint10_linear" x1="227.365" y1="3.02258" x2="174.361" y2="116.183" gradientUnits="userSpaceOnUse">
<stop stop-color="#514F64"/>
<stop offset="0.43888" stop-color="#2C2A46"/>
<stop offset="0.9999" stop-color="#312F44"/>
<stop offset="1" stop-color="#312F44"/>
</linearGradient>
<linearGradient id="paint11_linear" x1="193.061" y1="-2.39175" x2="129.825" y2="89.5386" gradientUnits="userSpaceOnUse">
<stop stop-color="#788CA3"/>
<stop offset="0.43888" stop-color="#607B99"/>
<stop offset="1" stop-color="#485C73"/>
</linearGradient>
<linearGradient id="paint12_linear" x1="140.096" y1="54.737" x2="93.3145" y2="95.7469" gradientUnits="userSpaceOnUse">
<stop stop-color="#FBB3C4"/>
<stop offset="0.43888" stop-color="#F66689"/>
<stop offset="1" stop-color="#C85C77"/>
</linearGradient>
<linearGradient id="paint13_linear" x1="208.365" y1="95.6074" x2="198.28" y2="125.303" gradientUnits="userSpaceOnUse">
<stop stop-color="#788CA3"/>
<stop offset="0.43888" stop-color="#607B99"/>
<stop offset="1" stop-color="#485C73"/>
</linearGradient>
<linearGradient id="paint14_linear" x1="168.259" y1="122.476" x2="135.844" y2="168.28" gradientUnits="userSpaceOnUse">
<stop stop-color="#6D8CE5"/>
<stop offset="0.43888" stop-color="#517BF2"/>
<stop offset="1" stop-color="#4D6CC5"/>
</linearGradient>
<linearGradient id="paint15_linear" x1="189.845" y1="125.132" x2="164.651" y2="157.912" gradientUnits="userSpaceOnUse">
<stop stop-color="#6D8CE5"/>
<stop offset="0.43888" stop-color="#517BF2"/>
<stop offset="1" stop-color="#4D6CC5"/>
</linearGradient>
<linearGradient id="paint16_linear" x1="293.631" y1="201.62" x2="206.015" y2="358.302" gradientUnits="userSpaceOnUse">
<stop stop-color="#FAFCFC"/>
<stop offset="0.43888" stop-color="#F5F8F9"/>
<stop offset="0.9999" stop-color="#E8EAEB"/>
<stop offset="1" stop-color="#E8EAEB"/>
</linearGradient>
<linearGradient id="paint17_linear" x1="158.152" y1="199.44" x2="65.5373" y2="306.898" gradientUnits="userSpaceOnUse">
<stop stop-color="#F4DFCC"/>
<stop offset="0.43888" stop-color="#E9BF9A"/>
<stop offset="1" stop-color="#E5B494"/>
</linearGradient>
<linearGradient id="paint18_linear" x1="120.058" y1="249.024" x2="71.168" y2="267.132" gradientUnits="userSpaceOnUse">
<stop stop-color="#F66689" stop-opacity="0"/>
<stop offset="1" stop-color="#F66689" stop-opacity="0.35"/>
</linearGradient>
<linearGradient id="paint19_linear" x1="391.166" y1="62.8498" x2="285.579" y2="150.639" gradientUnits="userSpaceOnUse">
<stop stop-color="#87DDE8"/>
<stop offset="0.43888" stop-color="#2CC3D5"/>
<stop offset="1" stop-color="#2498A8"/>
</linearGradient>
<linearGradient id="paint20_linear" x1="67.7702" y1="-2.49192" x2="26.3962" y2="51.3403" gradientUnits="userSpaceOnUse">
<stop stop-color="#93D2AA"/>
<stop offset="0.43888" stop-color="#4DCB7B"/>
<stop offset="1" stop-color="#4AA86C"/>
</linearGradient>
<linearGradient id="paint21_linear" x1="48.2237" y1="139" x2="2.6279" y2="198.325" gradientUnits="userSpaceOnUse">
<stop stop-color="#87DDE8"/>
<stop offset="0.43888" stop-color="#2CC3D5"/>
<stop offset="1" stop-color="#2498A8"/>
</linearGradient>
</defs>
</svg>
