<svg width="739" height="588" viewBox="0 0 739 588" fill="none" xmlns="http://www.w3.org/2000/svg">
<path d="M110.93 272.64C108.656 272.64 106.432 271.966 104.541 270.702C102.65 269.438 101.176 267.642 100.306 265.541C99.4352 263.44 99.2074 261.127 99.6511 258.896C100.095 256.666 101.19 254.617 102.798 253.008C104.407 251.4 106.456 250.305 108.687 249.861C110.917 249.417 113.23 249.645 115.331 250.515C117.432 251.386 119.228 252.86 120.492 254.751C121.756 256.642 122.43 258.866 122.43 261.14C122.428 264.189 121.215 267.113 119.059 269.269C116.903 271.425 113.979 272.637 110.93 272.64ZM110.93 251.64C109.051 251.64 107.215 252.197 105.652 253.241C104.09 254.285 102.872 255.769 102.153 257.505C101.434 259.24 101.246 261.151 101.613 262.993C101.979 264.836 102.884 266.529 104.213 267.858C105.541 269.186 107.234 270.091 109.077 270.457C110.92 270.824 112.83 270.636 114.566 269.917C116.302 269.198 117.785 267.98 118.829 266.418C119.873 264.856 120.43 263.019 120.43 261.14C120.428 258.621 119.426 256.206 117.645 254.425C115.864 252.644 113.449 251.643 110.93 251.64Z" fill="#D2DFE6"/>
<path d="M430.5 573C428.226 573 426.002 572.326 424.111 571.062C422.22 569.798 420.746 568.002 419.875 565.901C419.005 563.8 418.777 561.487 419.221 559.256C419.665 557.026 420.76 554.977 422.368 553.368C423.977 551.76 426.026 550.665 428.256 550.221C430.487 549.777 432.799 550.005 434.901 550.875C437.002 551.746 438.798 553.22 440.062 555.111C441.326 557.002 442 559.226 442 561.5C441.997 564.549 440.785 567.473 438.629 569.629C436.473 571.785 433.549 572.997 430.5 573ZM430.5 552C428.621 552 426.784 552.557 425.222 553.601C423.66 554.645 422.442 556.129 421.723 557.865C421.004 559.6 420.816 561.511 421.183 563.353C421.549 565.196 422.454 566.889 423.782 568.218C425.111 569.546 426.804 570.451 428.647 570.817C430.489 571.184 432.4 570.996 434.135 570.277C435.871 569.558 437.355 568.34 438.399 566.778C439.443 565.216 440 563.379 440 561.5C439.997 558.981 438.996 556.566 437.215 554.785C435.434 553.004 433.019 552.003 430.5 552Z" fill="#D2DFE6"/>
<path d="M730.5 588C734.642 588 738 584.642 738 580.5C738 576.358 734.642 573 730.5 573C726.358 573 723 576.358 723 580.5C723 584.642 726.358 588 730.5 588Z" fill="#D2DFE6"/>
<path d="M245.93 304.64C248.968 304.64 251.43 302.178 251.43 299.14C251.43 296.102 248.968 293.64 245.93 293.64C242.893 293.64 240.43 296.102 240.43 299.14C240.43 302.178 242.893 304.64 245.93 304.64Z" fill="#D2DFE6"/>
<path d="M246.703 521.206C245.895 521.207 245.108 520.954 244.452 520.484C243.795 520.014 243.302 519.35 243.043 518.586L239.193 506.916C238.874 505.942 238.953 504.881 239.413 503.966C239.639 503.514 239.952 503.111 240.335 502.782C240.718 502.452 241.163 502.202 241.643 502.046L253.323 498.196C253.803 498.036 254.31 497.973 254.814 498.01C255.318 498.047 255.81 498.183 256.262 498.411C256.714 498.639 257.116 498.953 257.445 499.337C257.775 499.72 258.026 500.165 258.183 500.646L262.043 512.286C262.205 512.766 262.271 513.274 262.235 513.78C262.199 514.286 262.064 514.78 261.836 515.233C261.608 515.686 261.292 516.089 260.907 516.419C260.522 516.749 260.075 517 259.593 517.156L247.923 521.006C247.529 521.136 247.118 521.204 246.703 521.206ZM254.523 499.966C254.325 499.965 254.129 499.999 253.943 500.066L242.273 503.916C242.041 503.99 241.826 504.111 241.64 504.269C241.455 504.427 241.303 504.621 241.193 504.839C241.084 505.057 241.018 505.294 241.001 505.537C240.984 505.78 241.015 506.025 241.093 506.256L244.943 517.926C245.098 518.391 245.431 518.777 245.87 518.998C246.308 519.219 246.816 519.258 247.283 519.106L258.963 515.256C259.194 515.182 259.407 515.062 259.591 514.904C259.775 514.746 259.925 514.553 260.033 514.336C260.253 513.895 260.293 513.385 260.143 512.916L256.283 501.246C256.162 500.874 255.927 500.55 255.611 500.32C255.295 500.09 254.914 499.966 254.523 499.966Z" fill="#D2DFE6"/>
<path d="M444.52 123.26C443.918 123.261 443.325 123.117 442.79 122.84C442.339 122.619 441.936 122.311 441.605 121.933C441.274 121.556 441.02 121.116 440.86 120.64L437.01 108.97C436.851 108.489 436.787 107.982 436.824 107.477C436.861 106.972 436.997 106.479 437.225 106.027C437.452 105.574 437.767 105.171 438.15 104.841C438.534 104.51 438.979 104.258 439.46 104.1L451.14 100.25C452.109 99.9308 453.166 100.01 454.077 100.469C454.989 100.928 455.68 101.731 456 102.7L459.86 114.34C460.022 114.82 460.088 115.328 460.052 115.834C460.017 116.34 459.881 116.834 459.653 117.287C459.425 117.74 459.109 118.143 458.724 118.474C458.339 118.804 457.893 119.054 457.41 119.21L445.74 123.06C445.347 123.191 444.935 123.258 444.52 123.26ZM452.34 102.02C452.142 102.02 451.946 102.054 451.76 102.12L440.09 105.97C439.624 106.125 439.239 106.459 439.018 106.897C438.797 107.335 438.758 107.843 438.91 108.31L442.76 119.98C442.915 120.446 443.249 120.831 443.687 121.052C444.125 121.273 444.633 121.312 445.1 121.16L456.78 117.31C457.246 117.155 457.631 116.821 457.852 116.383C458.073 115.945 458.112 115.437 457.96 114.97L454.1 103.3C453.98 102.928 453.744 102.604 453.428 102.374C453.112 102.144 452.731 102.02 452.34 102.02Z" fill="#D2DFE6"/>
<path d="M362.857 475.837C362.498 475.742 362.162 475.577 361.867 475.351C361.572 475.126 361.325 474.844 361.139 474.523C360.953 474.201 360.832 473.846 360.784 473.478C360.736 473.11 360.761 472.736 360.857 472.377L362.147 467.717C356.357 465.847 349.327 461.717 346.517 456.517C343.037 450.057 343.797 442.597 345.057 437.517C347.227 428.627 352.057 422.667 358.667 420.747C363.947 419.197 370.367 420.347 374.817 421.587C378.182 422.514 381.445 423.777 384.557 425.357C391.667 429.017 395.407 435.507 394.837 443.147C394.157 452.147 390.407 460.297 384.837 464.907C382.281 466.864 379.522 468.54 376.607 469.907L374.987 470.727C371.307 472.647 367.587 474.417 364.757 475.727C364.231 475.965 363.646 476.038 363.077 475.937L362.857 475.837ZM373.927 424.917C368.257 423.347 363.207 423.037 359.697 424.067C352.477 426.177 349.587 433.887 348.507 438.307C347.427 442.727 346.697 449.377 349.647 454.857C352.057 459.317 358.847 463.177 364.307 464.697C364.598 464.775 364.87 464.909 365.108 465.093C365.346 465.277 365.545 465.507 365.693 465.768C365.841 466.03 365.935 466.319 365.97 466.617C366.006 466.916 365.981 467.218 365.897 467.507L364.687 471.837C367.247 470.617 370.347 469.127 373.407 467.537L375.047 466.697C377.729 465.45 380.273 463.925 382.637 462.147C387.517 458.147 390.787 450.907 391.387 442.827C391.857 436.557 388.887 431.437 383.007 428.407C380.104 426.947 377.063 425.781 373.927 424.927V424.917Z" fill="#D2DFE6"/>
<path opacity="0.2" d="M112.32 448H19.65C13.2159 448 8 453.216 8 459.65V528.43C8 534.864 13.2159 540.08 19.65 540.08H112.32C118.754 540.08 123.97 534.864 123.97 528.43V459.65C123.97 453.216 118.754 448 112.32 448Z" fill="#2CC3D5"/>
<path d="M104.32 456.26H11.65C5.21588 456.26 0 461.476 0 467.91V536.69C0 543.124 5.21588 548.34 11.65 548.34H104.32C110.754 548.34 115.97 543.124 115.97 536.69V467.91C115.97 461.476 110.754 456.26 104.32 456.26Z" fill="url(#paint0_linear)"/>
<g opacity="0.3">
<path d="M13.6199 483.14H39.6999C39.9388 483.158 40.1789 483.127 40.4051 483.048C40.6313 482.969 40.8388 482.844 41.0145 482.681C41.1902 482.518 41.3304 482.321 41.4263 482.101C41.5222 481.882 41.5717 481.645 41.5717 481.405C41.5717 481.165 41.5222 480.928 41.4263 480.709C41.3304 480.489 41.1902 480.292 41.0145 480.129C40.8388 479.966 40.6313 479.841 40.4051 479.762C40.1789 479.683 39.9388 479.652 39.6999 479.67H13.6199C13.3809 479.652 13.1409 479.683 12.9146 479.762C12.6884 479.841 12.4809 479.966 12.3052 480.129C12.1295 480.292 11.9893 480.489 11.8934 480.709C11.7975 480.928 11.748 481.165 11.748 481.405C11.748 481.645 11.7975 481.882 11.8934 482.101C11.9893 482.321 12.1295 482.518 12.3052 482.681C12.4809 482.844 12.6884 482.969 12.9146 483.048C13.1409 483.127 13.3809 483.158 13.6199 483.14Z" fill="#8CA0B3"/>
<path d="M13.6199 477.93H29.2699C29.7313 477.93 30.1739 477.747 30.5002 477.42C30.8265 477.094 31.0099 476.651 31.0099 476.19C31.0099 475.728 30.8265 475.286 30.5002 474.96C30.1739 474.633 29.7313 474.45 29.2699 474.45H13.6199C13.1584 474.45 12.7158 474.633 12.3895 474.96C12.0632 475.286 11.8799 475.728 11.8799 476.19C11.8799 476.651 12.0632 477.094 12.3895 477.42C12.7158 477.747 13.1584 477.93 13.6199 477.93Z" fill="#8CA0B3"/>
<path d="M41.4399 486.64C41.4399 486.178 41.2565 485.736 40.9302 485.41C40.6039 485.083 40.1613 484.9 39.6999 484.9H13.6199C13.1584 484.9 12.7158 485.083 12.3895 485.41C12.0632 485.736 11.8799 486.178 11.8799 486.64C11.8799 487.101 12.0632 487.544 12.3895 487.87C12.7158 488.197 13.1584 488.38 13.6199 488.38H39.6999C40.1613 488.38 40.6039 488.197 40.9302 487.87C41.2565 487.544 41.4399 487.101 41.4399 486.64Z" fill="#8CA0B3"/>
</g>
<path d="M66.1802 495.84H74.1802L53.3102 516.69L38.8602 502.26C38.5339 501.934 38.0915 501.751 37.6302 501.751C37.1689 501.751 36.7265 501.934 36.4002 502.26L14.5102 524.18C14.3422 524.34 14.2078 524.532 14.1151 524.745C14.0224 524.958 13.9732 525.187 13.9703 525.419C13.9675 525.651 14.0111 525.881 14.0986 526.096C14.1861 526.311 14.3158 526.506 14.4799 526.67C14.6439 526.834 14.8392 526.964 15.0542 527.052C15.2691 527.139 15.4994 527.183 15.7314 527.18C15.9635 527.177 16.1926 527.128 16.4054 527.035C16.6181 526.942 16.8102 526.808 16.9702 526.64L37.6602 505.95L52.0802 520.38C52.4065 520.706 52.8489 520.889 53.3102 520.889C53.7715 520.889 54.2139 520.706 54.5402 520.38L76.6202 498.3V506.3C76.6021 506.539 76.6335 506.779 76.7124 507.005C76.7914 507.231 76.9162 507.439 77.0791 507.615C77.242 507.79 77.4394 507.931 77.659 508.026C77.8786 508.122 78.1156 508.172 78.3552 508.172C78.5948 508.172 78.8318 508.122 79.0514 508.026C79.271 507.931 79.4684 507.79 79.6313 507.615C79.7942 507.439 79.9191 507.231 79.998 507.005C80.077 506.779 80.1084 506.539 80.0902 506.3V494.1C80.0915 493.873 80.0473 493.649 79.9602 493.44C79.8733 493.229 79.7454 493.037 79.5841 492.876C79.4228 492.715 79.2311 492.587 79.0202 492.5C78.8086 492.409 78.5807 492.361 78.3502 492.36H66.1802C65.7187 492.36 65.2762 492.543 64.9499 492.87C64.6235 493.196 64.4402 493.638 64.4402 494.1C64.4402 494.561 64.6235 495.004 64.9499 495.33C65.2762 495.657 65.7187 495.84 66.1802 495.84Z" fill="#FFCF33"/>
<path d="M90.1802 498.84H98.1802L77.3102 519.69L62.8602 505.26C62.5339 504.934 62.0915 504.751 61.6302 504.751C61.1689 504.751 60.7265 504.934 60.4002 505.26L38.5102 527.18C38.3422 527.34 38.2078 527.532 38.1151 527.745C38.0224 527.958 37.9732 528.187 37.9703 528.419C37.9675 528.651 38.0111 528.881 38.0986 529.096C38.1861 529.311 38.3157 529.506 38.4798 529.67C38.6439 529.835 38.8392 529.964 39.0542 530.052C39.2691 530.139 39.4994 530.183 39.7314 530.18C39.9635 530.177 40.1926 530.128 40.4054 530.035C40.6181 529.942 40.8102 529.808 40.9702 529.64L61.6602 508.95L76.0802 523.38C76.4065 523.706 76.8489 523.889 77.3102 523.889C77.7715 523.889 78.2139 523.706 78.5402 523.38L100.62 501.3V509.3C100.602 509.539 100.633 509.779 100.712 510.005C100.791 510.231 100.916 510.439 101.079 510.615C101.242 510.79 101.439 510.931 101.659 511.026C101.879 511.122 102.116 511.172 102.355 511.172C102.595 511.172 102.832 511.122 103.051 511.026C103.271 510.931 103.468 510.79 103.631 510.615C103.794 510.439 103.919 510.231 103.998 510.005C104.077 509.779 104.108 509.539 104.09 509.3V497.1C104.092 496.874 104.047 496.649 103.96 496.44C103.873 496.229 103.745 496.037 103.584 495.876C103.423 495.715 103.231 495.587 103.02 495.5C102.809 495.409 102.581 495.361 102.35 495.36H90.1802C89.7187 495.36 89.2762 495.543 88.9499 495.87C88.6235 496.196 88.4402 496.639 88.4402 497.1C88.4402 497.562 88.6235 498.004 88.9499 498.33C89.2762 498.657 89.7187 498.84 90.1802 498.84Z" fill="#2CC3D5"/>
<path opacity="0.2" d="M661.31 432.44H558.33C552.095 432.44 547.04 437.495 547.04 443.73V501.05C547.04 507.285 552.095 512.34 558.33 512.34H661.31C667.545 512.34 672.6 507.285 672.6 501.05V443.73C672.6 437.495 667.545 432.44 661.31 432.44Z" fill="#87DDE8"/>
<path opacity="0.3" d="M651.67 524.39H548.67C545.411 524.387 542.287 523.092 539.982 520.787C537.678 518.483 536.383 515.359 536.38 512.1V454.79C536.383 451.53 537.678 448.405 539.982 446.099C542.286 443.793 545.41 442.495 548.67 442.49H651.67C654.929 442.495 658.054 443.793 660.358 446.099C662.662 448.405 663.957 451.53 663.96 454.79V512.1C663.957 515.359 662.662 518.483 660.357 520.787C658.053 523.092 654.929 524.387 651.67 524.39ZM548.67 444.49C545.94 444.493 543.323 445.579 541.393 447.51C539.464 449.442 538.38 452.06 538.38 454.79V512.1C538.38 514.829 539.464 517.446 541.394 519.376C543.323 521.306 545.941 522.39 548.67 522.39H651.67C654.399 522.39 657.016 521.306 658.946 519.376C660.876 517.446 661.96 514.829 661.96 512.1V454.79C661.96 452.06 660.876 449.442 658.947 447.51C657.017 445.579 654.4 444.493 651.67 444.49H548.67Z" fill="#2CC3D5"/>
<path d="M701.5 265C722.211 265 739 248.211 739 227.5C739 206.789 722.211 190 701.5 190C680.789 190 664 206.789 664 227.5C664 248.211 680.789 265 701.5 265Z" fill="url(#paint1_linear)"/>
<path opacity="0.5" d="M723.05 217.23C722.687 215.255 721.724 213.44 720.293 212.032C718.862 210.624 717.031 209.691 715.05 209.36C713.18 208.986 711.278 208.798 709.37 208.8C706.85 208.8 703.31 209.13 700.75 210.71C698.645 212.078 697.148 214.206 696.57 216.65C698.571 216.819 700.511 217.415 702.26 218.4C705.46 220.4 707.13 224.22 706.98 229.21C706.939 231.011 706.636 232.796 706.08 234.51C707.18 234.75 708.297 234.9 709.42 234.96V237.62C709.42 238.034 709.585 238.43 709.877 238.723C710.17 239.016 710.567 239.18 710.98 239.18H711.12C711.437 239.152 711.738 239.026 711.98 238.82C713.27 237.71 714.98 236.24 716.63 234.69L717.35 234.02C718.689 232.885 719.899 231.608 720.96 230.21C723.23 226.9 724.01 222.07 723.05 217.23Z" fill="white"/>
<path d="M702.25 218.4C699.69 216.81 696.15 216.48 693.63 216.48C691.723 216.478 689.82 216.666 687.95 217.04C685.97 217.375 684.14 218.311 682.709 219.721C681.278 221.13 680.315 222.945 679.95 224.92C678.95 229.76 679.78 234.59 682.05 237.83C683.111 239.231 684.321 240.512 685.66 241.65L686.38 242.32C688.03 243.85 689.73 245.32 691.04 246.45C691.276 246.647 691.565 246.769 691.87 246.8H692.04C692.45 246.797 692.843 246.633 693.133 246.343C693.423 246.053 693.587 245.66 693.59 245.25V242.62C696.91 242.48 701.19 241.34 703.43 239.01C706.2 236.12 706.89 232.07 706.98 229.19C707.12 224.22 705.45 220.38 702.25 218.4Z" fill="white"/>
<path d="M612.705 356.231C612.105 356.228 611.513 356.088 610.975 355.821C610.061 355.358 609.368 354.553 609.045 353.581L605.195 341.911C605.036 341.43 604.973 340.922 605.011 340.416C605.048 339.911 605.185 339.417 605.414 338.965C605.642 338.512 605.958 338.11 606.342 337.779C606.727 337.449 607.173 337.198 607.655 337.041L619.325 333.191C620.296 332.874 621.352 332.954 622.265 333.413C623.177 333.872 623.871 334.673 624.195 335.641L628.045 347.321C628.203 347.801 628.265 348.308 628.228 348.813C628.19 349.317 628.053 349.809 627.825 350.261C627.599 350.714 627.284 351.117 626.899 351.447C626.514 351.777 626.068 352.026 625.585 352.181L613.915 356.031C613.525 356.161 613.117 356.229 612.705 356.231ZM620.535 334.991C620.338 334.994 620.142 335.028 619.955 335.091L608.275 338.941C607.809 339.096 607.424 339.429 607.203 339.868C606.982 340.306 606.943 340.814 607.095 341.281L610.945 352.951C611.1 353.42 611.435 353.808 611.875 354.031C612.092 354.141 612.328 354.206 612.57 354.223C612.812 354.241 613.055 354.209 613.285 354.131L624.965 350.281C625.196 350.207 625.41 350.087 625.593 349.929C625.777 349.771 625.927 349.578 626.035 349.361C626.146 349.143 626.213 348.906 626.232 348.662C626.251 348.418 626.222 348.173 626.145 347.941L622.295 336.271C622.136 335.804 621.803 335.417 621.365 335.191C621.107 335.061 620.823 334.993 620.535 334.991Z" fill="#D2DFE6"/>
<path d="M363.11 56.66C378.756 56.66 391.44 43.9762 391.44 28.33C391.44 12.6838 378.756 0 363.11 0C347.464 0 334.78 12.6838 334.78 28.33C334.78 43.9762 347.464 56.66 363.11 56.66Z" fill="url(#paint2_linear)"/>
<path opacity="0.5" d="M356.94 35.21C358.796 35.21 360.3 33.7057 360.3 31.85C360.3 29.9943 358.796 28.49 356.94 28.49C355.084 28.49 353.58 29.9943 353.58 31.85C353.58 33.7057 355.084 35.21 356.94 35.21Z" fill="white"/>
<path opacity="0.5" d="M357.31 35.37H356.57C355.286 35.37 354.053 35.8796 353.144 36.787C352.235 37.6944 351.723 38.9254 351.72 40.21V42.21C351.709 42.3939 351.736 42.5781 351.799 42.7512C351.862 42.9244 351.96 43.0828 352.086 43.2168C352.213 43.3507 352.365 43.4574 352.534 43.5302C352.704 43.603 352.886 43.6403 353.07 43.64H360.86C361.038 43.6413 361.214 43.6073 361.378 43.54C361.543 43.4726 361.692 43.3732 361.818 43.2476C361.943 43.1219 362.043 42.9726 362.11 42.8082C362.177 42.6438 362.211 42.4677 362.21 42.29V40.29C362.22 39.643 362.099 39.0007 361.857 38.4008C361.614 37.801 361.254 37.2558 360.797 36.7973C360.34 36.3388 359.797 35.9763 359.198 35.7312C358.599 35.4861 357.957 35.3633 357.31 35.37Z" fill="white"/>
<path d="M374.23 18.64C373.977 17.3266 373.326 16.1228 372.366 15.1924C371.405 14.262 370.181 13.6501 368.86 13.44C367.619 13.1917 366.356 13.0678 365.09 13.07C363.105 12.9882 361.133 13.426 359.37 14.34C357.24 15.66 356.13 18.21 356.23 21.53C356.198 23.918 357.037 26.2359 358.59 28.05C360.07 29.59 362.89 30.35 365.09 30.45V32.15C365.09 32.4311 365.202 32.7007 365.4 32.8995C365.599 33.0983 365.869 33.21 366.15 33.21H366.25C366.467 33.1883 366.673 33.1011 366.84 32.96C367.7 32.22 368.84 31.25 369.92 30.23L370.4 29.78C371.311 29.0306 372.136 28.182 372.86 27.25C374.439 24.6749 374.932 21.5781 374.23 18.64Z" fill="white"/>
<path d="M176.37 423.18C197.081 423.18 213.87 406.391 213.87 385.68C213.87 364.969 197.081 348.18 176.37 348.18C155.659 348.18 138.87 364.969 138.87 385.68C138.87 406.391 155.659 423.18 176.37 423.18Z" fill="url(#paint3_linear)"/>
<path opacity="0.5" d="M175.28 382.69C176.811 382.69 178.307 382.236 179.58 381.386C180.853 380.535 181.845 379.326 182.431 377.912C183.017 376.498 183.17 374.941 182.871 373.44C182.573 371.939 181.836 370.559 180.753 369.477C179.671 368.395 178.291 367.657 176.79 367.359C175.289 367.06 173.732 367.213 172.318 367.799C170.904 368.385 169.695 369.377 168.844 370.65C167.994 371.923 167.54 373.419 167.54 374.95C167.543 377.002 168.359 378.969 169.81 380.42C171.261 381.871 173.228 382.687 175.28 382.69Z" fill="white"/>
<g opacity="0.5">
<path opacity="0.5" d="M177.44 398.77C177.44 396.648 178.283 394.614 179.783 393.113C181.283 391.613 183.318 390.77 185.44 390.77H185.88C184.456 388.453 182.314 386.664 179.78 385.676C177.246 384.687 174.459 384.553 171.842 385.293C169.224 386.033 166.92 387.607 165.279 389.776C163.638 391.945 162.75 394.59 162.75 397.31V401.88C162.753 402.487 162.995 403.068 163.424 403.496C163.853 403.925 164.433 404.167 165.04 404.17H179.5C178.164 402.69 177.43 400.764 177.44 398.77Z" fill="white"/>
</g>
<path d="M185.47 390.74C183.887 390.74 182.341 391.209 181.025 392.088C179.71 392.967 178.684 394.217 178.079 395.679C177.473 397.14 177.315 398.749 177.623 400.301C177.932 401.853 178.694 403.278 179.813 404.397C180.932 405.516 182.357 406.278 183.909 406.586C185.461 406.895 187.069 406.737 188.531 406.131C189.993 405.526 191.242 404.5 192.121 403.185C193.001 401.869 193.47 400.322 193.47 398.74C193.47 396.618 192.627 394.583 191.127 393.083C189.626 391.583 187.591 390.74 185.47 390.74ZM189.56 397.64L184.79 402.13C184.641 402.271 184.444 402.35 184.24 402.35C184.034 402.35 183.835 402.276 183.68 402.14L181.33 399.95C181.173 399.805 181.079 399.604 181.07 399.39C181.061 399.177 181.136 398.968 181.28 398.81C181.426 398.652 181.629 398.559 181.844 398.549C182.06 398.54 182.27 398.616 182.43 398.76L184.23 400.43L188.45 396.43C188.525 396.354 188.615 396.294 188.713 396.253C188.812 396.212 188.918 396.19 189.025 396.19C189.132 396.19 189.237 396.212 189.336 396.253C189.435 396.294 189.524 396.354 189.6 396.43C189.684 396.508 189.751 396.603 189.795 396.709C189.839 396.815 189.86 396.929 189.857 397.044C189.853 397.159 189.824 397.272 189.773 397.374C189.722 397.477 189.649 397.568 189.56 397.64Z" fill="white"/>
<path d="M642.27 454H539.29C533.055 454 528 459.055 528 465.29V522.61C528 528.845 533.055 533.9 539.29 533.9H642.27C648.505 533.9 653.56 528.845 653.56 522.61V465.29C653.56 459.055 648.505 454 642.27 454Z" fill="url(#paint4_linear)"/>
<path opacity="0.15" d="M290.36 88.07H171.88C165.402 88.07 160.15 93.3217 160.15 99.8V186.14C160.15 192.618 165.402 197.87 171.88 197.87H290.36C296.838 197.87 302.09 192.618 302.09 186.14V99.8C302.09 93.3217 296.838 88.07 290.36 88.07Z" fill="#87DDE8"/>
<path opacity="0.2" d="M280.44 95.73H161.96C155.482 95.73 150.23 100.982 150.23 107.46V193.8C150.23 200.278 155.482 205.53 161.96 205.53H280.44C286.918 205.53 292.17 200.278 292.17 193.8V107.46C292.17 100.982 286.918 95.73 280.44 95.73Z" fill="#2CC3D5"/>
<path d="M281.08 133.98H146.29V112.49C146.29 111.494 146.486 110.507 146.868 109.587C147.25 108.667 147.809 107.831 148.514 107.127C149.219 106.423 150.055 105.864 150.976 105.484C151.897 105.104 152.884 104.909 153.88 104.91H273.49C274.486 104.909 275.473 105.104 276.394 105.484C277.315 105.864 278.151 106.423 278.856 107.127C279.561 107.831 280.121 108.667 280.502 109.587C280.884 110.507 281.08 111.494 281.08 112.49V133.98Z" fill="#0CC8CC"/>
<path d="M281.08 133.98H146.29V112.49C146.29 111.494 146.486 110.507 146.868 109.587C147.25 108.667 147.809 107.831 148.514 107.127C149.219 106.423 150.055 105.864 150.976 105.484C151.897 105.104 152.884 104.909 153.88 104.91H273.49C274.486 104.909 275.473 105.104 276.394 105.484C277.315 105.864 278.151 106.423 278.856 107.127C279.561 107.831 280.121 108.667 280.502 109.587C280.884 110.507 281.08 111.494 281.08 112.49V133.98Z" fill="url(#paint5_linear)"/>
<path d="M268.98 214.7H157.8C154.67 214.697 151.668 213.452 149.456 211.237C147.243 209.023 146 206.02 146 202.89V129H280.79V202.89C280.79 206.022 279.546 209.026 277.331 211.241C275.116 213.456 272.112 214.7 268.98 214.7Z" fill="url(#paint6_linear)"/>
<path d="M158.63 121.35C160.436 121.35 161.9 119.81 161.9 117.91C161.9 116.01 160.436 114.47 158.63 114.47C156.824 114.47 155.36 116.01 155.36 117.91C155.36 119.81 156.824 121.35 158.63 121.35Z" fill="white"/>
<path d="M168.08 121.35C169.886 121.35 171.35 119.81 171.35 117.91C171.35 116.01 169.886 114.47 168.08 114.47C166.274 114.47 164.81 116.01 164.81 117.91C164.81 119.81 166.274 121.35 168.08 121.35Z" fill="white"/>
<path d="M177.52 121.35C179.326 121.35 180.79 119.81 180.79 117.91C180.79 116.01 179.326 114.47 177.52 114.47C175.714 114.47 174.25 116.01 174.25 117.91C174.25 119.81 175.714 121.35 177.52 121.35Z" fill="white"/>
<g filter="url(#filter0_d)">
<path d="M240.94 158.253L240.94 185.377C240.94 187.726 242.844 189.63 245.193 189.63L267.187 189.63C269.536 189.63 271.44 187.726 271.44 185.377L271.44 158.253C271.44 155.904 269.536 154 267.187 154L245.193 154C242.844 154 240.94 155.904 240.94 158.253Z" fill="white"/>
</g>
<path d="M256.181 172.635C259.353 172.635 261.925 170.063 261.925 166.891C261.925 163.719 259.353 161.147 256.181 161.147C253.009 161.147 250.437 163.719 250.437 166.891C250.437 170.063 253.009 172.635 256.181 172.635Z" fill="#87DDE8"/>
<path d="M249.893 177.555H262.478" stroke="#D2DFE6" stroke-width="3.12" stroke-linecap="round" stroke-linejoin="round"/>
<path d="M252.06 182.483H260.303" stroke="#D2DFE6" stroke-width="3.12" stroke-linecap="round" stroke-linejoin="round"/>
<g filter="url(#filter1_d)">
<path d="M197.97 158.253L197.97 185.377C197.97 187.726 199.874 189.63 202.223 189.63L224.217 189.63C226.566 189.63 228.47 187.726 228.47 185.377L228.47 158.253C228.47 155.904 226.566 154 224.217 154L202.223 154C199.874 154 197.97 155.904 197.97 158.253Z" fill="white"/>
</g>
<path d="M213.211 172.635C216.384 172.635 218.955 170.063 218.955 166.891C218.955 163.719 216.384 161.147 213.211 161.147C210.039 161.147 207.467 163.719 207.467 166.891C207.467 170.063 210.039 172.635 213.211 172.635Z" fill="#87DDE8"/>
<path d="M206.924 177.555H219.508" stroke="#D2DFE6" stroke-width="3.12" stroke-linecap="round" stroke-linejoin="round"/>
<path d="M209.09 182.483H217.333" stroke="#D2DFE6" stroke-width="3.12" stroke-linecap="round" stroke-linejoin="round"/>
<g filter="url(#filter2_d)">
<path d="M155 158.253L155 185.377C155 187.726 156.904 189.63 159.253 189.63L181.247 189.63C183.596 189.63 185.5 187.726 185.5 185.377L185.5 158.253C185.5 155.904 183.596 154 181.247 154L159.253 154C156.904 154 155 155.904 155 158.253Z" fill="white"/>
</g>
<path d="M170.241 172.635C173.414 172.635 175.985 170.063 175.985 166.891C175.985 163.719 173.414 161.147 170.241 161.147C167.069 161.147 164.497 163.719 164.497 166.891C164.497 170.063 167.069 172.635 170.241 172.635Z" fill="#87DDE8"/>
<path d="M163.954 177.555H176.538" stroke="#D2DFE6" stroke-width="3.12" stroke-linecap="round" stroke-linejoin="round"/>
<path d="M166.12 182.483H174.363" stroke="#D2DFE6" stroke-width="3.12" stroke-linecap="round" stroke-linejoin="round"/>
<path opacity="0.15" d="M528.297 215H372.249C363.717 215 356.8 221.917 356.8 230.449V344.166C356.8 352.699 363.717 359.616 372.249 359.616H528.297C536.83 359.616 543.747 352.699 543.747 344.166V230.449C543.747 221.917 536.83 215 528.297 215Z" fill="#87DDE8"/>
<path opacity="0.2" d="M515.232 225.089H359.184C350.651 225.089 343.734 232.006 343.734 240.538V354.255C343.734 362.788 350.651 369.705 359.184 369.705H515.232C523.764 369.705 530.681 362.788 530.681 354.255V240.538C530.681 232.006 523.764 225.089 515.232 225.089Z" fill="#2CC3D5"/>
<path d="M516.075 275.467H338.545V247.163C338.545 245.851 338.804 244.552 339.306 243.34C339.809 242.128 340.545 241.026 341.474 240.099C342.402 239.172 343.504 238.437 344.717 237.936C345.93 237.435 347.23 237.178 348.542 237.18H506.078C507.39 237.178 508.69 237.435 509.903 237.936C511.116 238.437 512.218 239.172 513.146 240.099C514.075 241.026 514.811 242.128 515.314 243.34C515.816 244.552 516.075 245.851 516.075 247.163V275.467Z" fill="#0CC8CC"/>
<path d="M516.075 275.467H338.545V247.163C338.545 245.851 338.804 244.552 339.306 243.34C339.809 242.128 340.545 241.026 341.474 240.099C342.402 239.172 343.504 238.437 344.717 237.936C345.93 237.435 347.23 237.178 348.542 237.18H506.078C507.39 237.178 508.69 237.435 509.903 237.936C511.116 238.437 512.218 239.172 513.146 240.099C514.075 241.026 514.811 242.128 515.314 243.34C515.816 244.552 516.075 245.851 516.075 247.163V275.467Z" fill="url(#paint7_linear)"/>
<path d="M500.138 381.782H353.705C349.582 381.779 345.629 380.139 342.714 377.222C339.8 374.305 338.163 370.351 338.163 366.228V268.908H515.693V366.228C515.693 370.353 514.054 374.309 511.137 377.226C508.22 380.144 504.264 381.782 500.138 381.782Z" fill="url(#paint8_linear)"/>
<path d="M354.798 258.833C357.176 258.833 359.105 256.804 359.105 254.302C359.105 251.799 357.176 249.771 354.798 249.771C352.419 249.771 350.491 251.799 350.491 254.302C350.491 256.804 352.419 258.833 354.798 258.833Z" fill="white"/>
<path d="M367.244 258.833C369.623 258.833 371.551 256.804 371.551 254.302C371.551 251.799 369.623 249.771 367.244 249.771C364.866 249.771 362.937 251.799 362.937 254.302C362.937 256.804 364.866 258.833 367.244 258.833Z" fill="white"/>
<path d="M379.678 258.833C382.056 258.833 383.984 256.804 383.984 254.302C383.984 251.799 382.056 249.771 379.678 249.771C377.299 249.771 375.371 251.799 375.371 254.302C375.371 256.804 377.299 258.833 379.678 258.833Z" fill="white"/>
<g filter="url(#filter3_d)">
<path d="M463.207 307.437L463.207 343.161C463.207 346.255 465.715 348.763 468.809 348.763L497.776 348.763C500.87 348.763 503.378 346.255 503.378 343.161L503.378 307.437C503.378 304.343 500.87 301.835 497.776 301.835L468.809 301.835C465.715 301.835 463.207 304.343 463.207 307.437Z" fill="white"/>
</g>
<path d="M483.281 326.379C487.459 326.379 490.846 322.992 490.846 318.814C490.846 314.636 487.459 311.249 483.281 311.249C479.102 311.249 475.715 314.636 475.715 318.814C475.715 322.992 479.102 326.379 483.281 326.379Z" fill="#87DDE8"/>
<path d="M474.999 332.859H491.574" stroke="#D2DFE6" stroke-width="3.12" stroke-linecap="round" stroke-linejoin="round"/>
<path d="M477.852 339.35H488.709" stroke="#D2DFE6" stroke-width="3.12" stroke-linecap="round" stroke-linejoin="round"/>
<g filter="url(#filter4_d)">
<path d="M406.612 307.437L406.612 343.161C406.612 346.255 409.12 348.763 412.214 348.763L441.181 348.763C444.275 348.763 446.783 346.255 446.783 343.161L446.783 307.437C446.783 304.343 444.275 301.835 441.181 301.835L412.214 301.835C409.12 301.835 406.612 304.343 406.612 307.437Z" fill="white"/>
</g>
<path d="M426.687 326.379C430.865 326.379 434.252 322.992 434.252 318.814C434.252 314.636 430.865 311.249 426.687 311.249C422.509 311.249 419.122 314.636 419.122 318.814C419.122 322.992 422.509 326.379 426.687 326.379Z" fill="#87DDE8"/>
<path d="M418.405 332.859H434.979" stroke="#D2DFE6" stroke-width="3.12" stroke-linecap="round" stroke-linejoin="round"/>
<path d="M421.258 339.35H432.115" stroke="#D2DFE6" stroke-width="3.12" stroke-linecap="round" stroke-linejoin="round"/>
<g filter="url(#filter5_d)">
<path d="M350.017 307.437L350.017 343.161C350.017 346.255 352.525 348.763 355.619 348.763L384.586 348.763C387.68 348.763 390.188 346.255 390.188 343.161L390.188 307.437C390.188 304.343 387.68 301.835 384.586 301.835L355.619 301.835C352.525 301.835 350.017 304.343 350.017 307.437Z" fill="white"/>
</g>
<path d="M370.09 326.379C374.269 326.379 377.656 322.992 377.656 318.814C377.656 314.636 374.269 311.249 370.09 311.249C365.912 311.249 362.525 314.636 362.525 318.814C362.525 322.992 365.912 326.379 370.09 326.379Z" fill="#87DDE8"/>
<path d="M361.809 332.859H378.384" stroke="#D2DFE6" stroke-width="3.12" stroke-linecap="round" stroke-linejoin="round"/>
<path d="M364.662 339.35H375.519" stroke="#D2DFE6" stroke-width="3.12" stroke-linecap="round" stroke-linejoin="round"/>
<g filter="url(#filter6_d)">
<path d="M555 87.6458L555 142.783C555 147.558 558.871 151.428 563.646 151.428L608.354 151.428C613.129 151.428 617 147.558 617 142.783L617 87.6458C617 82.8708 613.129 79 608.354 79L563.646 79C558.871 79 555 82.8708 555 87.6458Z" fill="white"/>
</g>
<path d="M585.981 116.881C592.43 116.881 597.658 111.653 597.658 105.205C597.658 98.7561 592.43 93.5284 585.981 93.5284C579.533 93.5284 574.305 98.7561 574.305 105.205C574.305 111.653 579.533 116.881 585.981 116.881Z" fill="#87DDE8"/>
<path d="M573.201 126.882H598.782" stroke="#D2DFE6" stroke-width="4.81542" stroke-linecap="round" stroke-linejoin="round"/>
<path d="M577.604 136.9H594.361" stroke="#D2DFE6" stroke-width="4.81542" stroke-linecap="round" stroke-linejoin="round"/>
<path opacity="0.45" d="M627.4 508.961H585.51C585.046 508.961 584.601 508.777 584.273 508.449C583.945 508.121 583.76 507.676 583.76 507.211C583.76 506.747 583.945 506.302 584.273 505.974C584.601 505.646 585.046 505.461 585.51 505.461H627.4C627.864 505.461 628.309 505.646 628.638 505.974C628.966 506.302 629.15 506.747 629.15 507.211C629.15 507.676 628.966 508.121 628.638 508.449C628.309 508.777 627.864 508.961 627.4 508.961Z" fill="#8CA0B3"/>
<path opacity="0.45" d="M594.54 489.411C595.052 490.122 595.306 490.987 595.26 491.861C595.276 492.502 595.133 493.136 594.845 493.708C594.558 494.28 594.133 494.772 593.61 495.141C592.329 495.991 590.804 496.395 589.27 496.291C588.197 496.277 587.132 496.102 586.11 495.771C585.213 495.5 584.385 495.039 583.68 494.421L584.82 491.941C586.06 492.914 587.575 493.47 589.15 493.531C589.883 493.606 590.62 493.441 591.25 493.061C591.48 492.871 591.662 492.628 591.78 492.353C591.899 492.079 591.95 491.78 591.93 491.481C591.959 491.191 591.917 490.898 591.807 490.628C591.698 490.358 591.523 490.119 591.3 489.931C590.67 489.557 589.941 489.383 589.21 489.431H586.93V486.701H588.83C589.526 486.76 590.223 486.606 590.83 486.261C591.059 486.096 591.243 485.876 591.363 485.62C591.484 485.365 591.538 485.083 591.52 484.801C591.541 484.527 591.501 484.252 591.405 483.995C591.308 483.737 591.156 483.504 590.96 483.311C590.483 482.927 589.882 482.732 589.27 482.761C588.561 482.764 587.857 482.889 587.19 483.131C586.466 483.398 585.782 483.765 585.16 484.221L584.09 481.701C584.817 481.119 585.654 480.687 586.55 480.431C587.552 480.129 588.594 479.984 589.64 480.001C590.616 479.991 591.584 480.185 592.48 480.571C593.231 480.892 593.876 481.419 594.34 482.091C594.773 482.768 594.993 483.559 594.97 484.361C594.976 485.16 594.731 485.939 594.27 486.591C593.814 487.234 593.161 487.711 592.41 487.951C593.262 488.189 594.011 488.703 594.54 489.411Z" fill="#8CA0B3"/>
<path opacity="0.45" d="M597.58 492.621L601.23 492.671V496.281H597.57L597.58 492.621Z" fill="#8CA0B3"/>
<path opacity="0.45" d="M614.75 493.661V496.481L603.81 496.321V493.731L609.19 488.191C610.149 487.373 610.763 486.223 610.91 484.971C610.91 483.701 610.22 483.061 608.77 483.041C608.061 483.04 607.357 483.162 606.69 483.401C605.933 483.679 605.213 484.052 604.55 484.511L603.49 481.991C604.216 481.415 605.049 480.987 605.94 480.731C606.911 480.427 607.923 480.279 608.94 480.291C610.359 480.234 611.754 480.677 612.88 481.541C613.355 481.93 613.732 482.425 613.981 482.986C614.229 483.547 614.342 484.159 614.31 484.771C614.31 485.654 614.101 486.525 613.7 487.311C613.166 488.27 612.492 489.143 611.7 489.901L608.11 493.571L614.75 493.661Z" fill="#8CA0B3"/>
<path opacity="0.45" d="M626.33 487.011C627.078 487.438 627.688 488.07 628.09 488.831C628.514 489.655 628.718 490.575 628.68 491.501C628.689 492.495 628.411 493.471 627.88 494.311C627.354 495.128 626.6 495.771 625.71 496.161C624.691 496.611 623.583 496.823 622.47 496.781C621.449 496.763 620.436 496.584 619.47 496.251C618.593 495.972 617.78 495.52 617.08 494.921L618.22 492.431C619.463 493.401 620.976 493.96 622.55 494.031C623.3 494.093 624.046 493.879 624.65 493.431C625.117 492.922 625.376 492.257 625.376 491.566C625.376 490.876 625.117 490.21 624.65 489.701C624.098 489.22 623.382 488.969 622.65 489.001C622.115 488.994 621.582 489.085 621.08 489.271C620.567 489.457 620.088 489.723 619.66 490.061H617.66L617.8 480.651L628.04 480.801V483.491L621.23 483.391L621.18 486.931C621.968 486.517 622.851 486.32 623.74 486.361C624.645 486.35 625.538 486.574 626.33 487.011Z" fill="#8CA0B3"/>
<path opacity="0.45" d="M631.76 494.841C630.654 493.012 630.15 490.882 630.32 488.751C630.212 486.629 630.783 484.527 631.95 482.751C632.493 482.108 633.171 481.594 633.936 481.245C634.702 480.896 635.535 480.722 636.376 480.734C637.217 480.747 638.045 480.946 638.8 481.317C639.554 481.688 640.217 482.223 640.74 482.881C641.844 484.678 642.352 486.779 642.19 488.881C642.295 491.016 641.732 493.131 640.58 494.931C640.037 495.578 639.357 496.096 638.589 496.447C637.82 496.798 636.984 496.974 636.139 496.961C635.295 496.949 634.464 496.748 633.706 496.375C632.949 496.001 632.284 495.464 631.76 494.801V494.841ZM638.1 493.041C638.592 491.708 638.816 490.291 638.76 488.871C638.863 487.472 638.679 486.067 638.22 484.741C638.075 484.357 637.817 484.026 637.481 483.79C637.145 483.554 636.746 483.425 636.336 483.418C635.925 483.412 635.522 483.529 635.179 483.754C634.835 483.979 634.568 484.302 634.41 484.681C633.571 487.379 633.529 490.261 634.29 492.981C634.427 493.372 634.681 493.71 635.017 493.95C635.354 494.19 635.757 494.32 636.17 494.321C636.585 494.335 636.994 494.218 637.339 493.989C637.685 493.76 637.951 493.429 638.1 493.041Z" fill="#8CA0B3"/>
<path d="M557.012 513.024C567.512 513.024 576.024 504.512 576.024 494.012C576.024 483.512 567.512 475 557.012 475C546.512 475 538 483.512 538 494.012C538 504.512 546.512 513.024 557.012 513.024Z" fill="url(#paint9_linear)"/>
<path d="M566.366 490.451C566.101 489.056 565.414 487.777 564.397 486.785C563.381 485.794 562.085 485.139 560.684 484.908C559.37 484.649 558.033 484.519 556.693 484.52C554.58 484.447 552.484 484.925 550.61 485.906C549.549 486.577 548.702 487.539 548.171 488.677C548.077 488.87 548.064 489.092 548.134 489.295C548.205 489.498 548.352 489.664 548.545 489.758C548.738 489.852 548.96 489.865 549.163 489.795C549.366 489.725 549.532 489.577 549.626 489.384C550.026 488.535 550.661 487.819 551.455 487.319C553.074 486.498 554.88 486.116 556.693 486.211C557.922 486.207 559.148 486.328 560.352 486.571C561.452 486.737 562.473 487.246 563.268 488.024C564.064 488.803 564.595 489.812 564.786 490.908C565.433 493.59 564.995 496.419 563.567 498.779C562.899 499.612 562.152 500.378 561.336 501.066L560.809 501.537C559.95 502.34 559.049 503.13 558.287 503.795V502.41C558.287 502.141 558.18 501.884 557.991 501.694C557.801 501.505 557.544 501.398 557.275 501.398C555.007 501.455 552.789 500.726 550.998 499.333C550.851 499.179 550.649 499.089 550.436 499.084C550.223 499.079 550.016 499.159 549.862 499.306C549.707 499.453 549.618 499.655 549.613 499.868C549.607 500.081 549.687 500.288 549.834 500.442C551.755 502.056 554.171 502.961 556.68 503.006V504.668C556.68 504.988 556.807 505.295 557.033 505.521C557.259 505.747 557.565 505.874 557.885 505.874H557.982C558.233 505.848 558.469 505.746 558.661 505.583C559.576 504.807 560.754 503.782 561.918 502.701L562.416 502.23C563.355 501.432 564.206 500.535 564.952 499.555C566.606 496.826 567.114 493.553 566.366 490.451Z" fill="white"/>
<path d="M553.41 497.38C553.236 497.569 553.14 497.816 553.14 498.072C553.14 498.329 553.236 498.576 553.41 498.765C553.595 498.935 553.837 499.029 554.089 499.029C554.229 499.029 554.367 499.001 554.496 498.947C554.624 498.892 554.741 498.811 554.837 498.71L558.329 494.913V494.83C558.329 494.83 558.329 494.83 558.329 494.747C558.329 494.663 558.329 494.747 558.329 494.677C558.335 494.65 558.335 494.622 558.329 494.594C558.322 494.567 558.322 494.538 558.329 494.511C558.322 494.488 558.322 494.464 558.329 494.442C558.335 494.414 558.335 494.386 558.329 494.359C558.329 494.359 558.329 494.359 558.329 494.275V494.206L554.837 490.423C554.746 490.326 554.637 490.247 554.515 490.192C554.394 490.137 554.263 490.106 554.13 490.102C553.997 490.097 553.864 490.119 553.739 490.166C553.614 490.213 553.5 490.284 553.403 490.375C553.305 490.466 553.227 490.575 553.172 490.696C553.117 490.818 553.086 490.949 553.081 491.082C553.077 491.215 553.099 491.348 553.145 491.472C553.192 491.597 553.263 491.712 553.354 491.809L555.294 493.915H548.366C548.233 493.915 548.101 493.941 547.978 493.992C547.856 494.043 547.744 494.118 547.65 494.212C547.556 494.305 547.482 494.417 547.431 494.54C547.38 494.662 547.354 494.794 547.354 494.927C547.358 495.193 547.466 495.446 547.655 495.633C547.844 495.82 548.1 495.925 548.366 495.925H555.294L553.41 497.38Z" fill="white"/>
<defs>
<filter id="filter0_d" x="235.94" y="149" width="40.4999" height="45.63" filterUnits="userSpaceOnUse" color-interpolation-filters="sRGB">
<feFlood flood-opacity="0" result="BackgroundImageFix"/>
<feColorMatrix in="SourceAlpha" type="matrix" values="0 0 0 0 0 0 0 0 0 0 0 0 0 0 0 0 0 0 127 0"/>
<feOffset/>
<feGaussianBlur stdDeviation="2.5"/>
<feColorMatrix type="matrix" values="0 0 0 0 0.374547 0 0 0 0 0.481553 0 0 0 0 0.601935 0 0 0 0.27 0"/>
<feBlend mode="normal" in2="BackgroundImageFix" result="effect1_dropShadow"/>
<feBlend mode="normal" in="SourceGraphic" in2="effect1_dropShadow" result="shape"/>
</filter>
<filter id="filter1_d" x="192.97" y="149" width="40.4999" height="45.63" filterUnits="userSpaceOnUse" color-interpolation-filters="sRGB">
<feFlood flood-opacity="0" result="BackgroundImageFix"/>
<feColorMatrix in="SourceAlpha" type="matrix" values="0 0 0 0 0 0 0 0 0 0 0 0 0 0 0 0 0 0 127 0"/>
<feOffset/>
<feGaussianBlur stdDeviation="2.5"/>
<feColorMatrix type="matrix" values="0 0 0 0 0.374547 0 0 0 0 0.481553 0 0 0 0 0.601935 0 0 0 0.27 0"/>
<feBlend mode="normal" in2="BackgroundImageFix" result="effect1_dropShadow"/>
<feBlend mode="normal" in="SourceGraphic" in2="effect1_dropShadow" result="shape"/>
</filter>
<filter id="filter2_d" x="150" y="149" width="40.4999" height="45.63" filterUnits="userSpaceOnUse" color-interpolation-filters="sRGB">
<feFlood flood-opacity="0" result="BackgroundImageFix"/>
<feColorMatrix in="SourceAlpha" type="matrix" values="0 0 0 0 0 0 0 0 0 0 0 0 0 0 0 0 0 0 127 0"/>
<feOffset/>
<feGaussianBlur stdDeviation="2.5"/>
<feColorMatrix type="matrix" values="0 0 0 0 0.374547 0 0 0 0 0.481553 0 0 0 0 0.601935 0 0 0 0.27 0"/>
<feBlend mode="normal" in2="BackgroundImageFix" result="effect1_dropShadow"/>
<feBlend mode="normal" in="SourceGraphic" in2="effect1_dropShadow" result="shape"/>
</filter>
<filter id="filter3_d" x="458.207" y="296.835" width="50.171" height="56.9277" filterUnits="userSpaceOnUse" color-interpolation-filters="sRGB">
<feFlood flood-opacity="0" result="BackgroundImageFix"/>
<feColorMatrix in="SourceAlpha" type="matrix" values="0 0 0 0 0 0 0 0 0 0 0 0 0 0 0 0 0 0 127 0"/>
<feOffset/>
<feGaussianBlur stdDeviation="2.5"/>
<feColorMatrix type="matrix" values="0 0 0 0 0.374547 0 0 0 0 0.481553 0 0 0 0 0.601935 0 0 0 0.27 0"/>
<feBlend mode="normal" in2="BackgroundImageFix" result="effect1_dropShadow"/>
<feBlend mode="normal" in="SourceGraphic" in2="effect1_dropShadow" result="shape"/>
</filter>
<filter id="filter4_d" x="401.612" y="296.835" width="50.171" height="56.9277" filterUnits="userSpaceOnUse" color-interpolation-filters="sRGB">
<feFlood flood-opacity="0" result="BackgroundImageFix"/>
<feColorMatrix in="SourceAlpha" type="matrix" values="0 0 0 0 0 0 0 0 0 0 0 0 0 0 0 0 0 0 127 0"/>
<feOffset/>
<feGaussianBlur stdDeviation="2.5"/>
<feColorMatrix type="matrix" values="0 0 0 0 0.374547 0 0 0 0 0.481553 0 0 0 0 0.601935 0 0 0 0.27 0"/>
<feBlend mode="normal" in2="BackgroundImageFix" result="effect1_dropShadow"/>
<feBlend mode="normal" in="SourceGraphic" in2="effect1_dropShadow" result="shape"/>
</filter>
<filter id="filter5_d" x="345.017" y="296.835" width="50.171" height="56.9277" filterUnits="userSpaceOnUse" color-interpolation-filters="sRGB">
<feFlood flood-opacity="0" result="BackgroundImageFix"/>
<feColorMatrix in="SourceAlpha" type="matrix" values="0 0 0 0 0 0 0 0 0 0 0 0 0 0 0 0 0 0 127 0"/>
<feOffset/>
<feGaussianBlur stdDeviation="2.5"/>
<feColorMatrix type="matrix" values="0 0 0 0 0.374547 0 0 0 0 0.481553 0 0 0 0 0.601935 0 0 0 0.27 0"/>
<feBlend mode="normal" in2="BackgroundImageFix" result="effect1_dropShadow"/>
<feBlend mode="normal" in="SourceGraphic" in2="effect1_dropShadow" result="shape"/>
</filter>
<filter id="filter6_d" x="547.283" y="71.283" width="77.434" height="87.8625" filterUnits="userSpaceOnUse" color-interpolation-filters="sRGB">
<feFlood flood-opacity="0" result="BackgroundImageFix"/>
<feColorMatrix in="SourceAlpha" type="matrix" values="0 0 0 0 0 0 0 0 0 0 0 0 0 0 0 0 0 0 127 0"/>
<feOffset/>
<feGaussianBlur stdDeviation="3.85851"/>
<feColorMatrix type="matrix" values="0 0 0 0 0.374547 0 0 0 0 0.481553 0 0 0 0 0.601935 0 0 0 0.27 0"/>
<feBlend mode="normal" in2="BackgroundImageFix" result="effect1_dropShadow"/>
<feBlend mode="normal" in="SourceGraphic" in2="effect1_dropShadow" result="shape"/>
</filter>
<linearGradient id="paint0_linear" x1="133.707" y1="450.214" x2="41.3293" y2="601.592" gradientUnits="userSpaceOnUse">
<stop stop-color="#FAFCFC"/>
<stop offset="0.43888" stop-color="#F5F8F9"/>
<stop offset="0.9999" stop-color="#E8EAEB"/>
<stop offset="1" stop-color="#E8EAEB"/>
</linearGradient>
<linearGradient id="paint1_linear" x1="750.471" y1="185.076" x2="668.712" y2="291.453" gradientUnits="userSpaceOnUse">
<stop stop-color="#87DDE8"/>
<stop offset="0.43888" stop-color="#2CC3D5"/>
<stop offset="1" stop-color="#2498A8"/>
</linearGradient>
<linearGradient id="paint2_linear" x1="400.106" y1="-3.7201" x2="338.34" y2="76.6441" gradientUnits="userSpaceOnUse">
<stop stop-color="#9EE3FF"/>
<stop offset="0.43888" stop-color="#55CFFF"/>
<stop offset="1" stop-color="#51B2DD"/>
</linearGradient>
<linearGradient id="paint3_linear" x1="225.341" y1="343.256" x2="143.582" y2="449.633" gradientUnits="userSpaceOnUse">
<stop stop-color="#FBB3C4"/>
<stop offset="0.43888" stop-color="#F66689"/>
<stop offset="1" stop-color="#C85C77"/>
</linearGradient>
<linearGradient id="paint4_linear" x1="672.763" y1="448.754" x2="601.615" y2="594.227" gradientUnits="userSpaceOnUse">
<stop stop-color="#FAFCFC"/>
<stop offset="0.43888" stop-color="#F5F8F9"/>
<stop offset="0.9999" stop-color="#E8EAEB"/>
<stop offset="1" stop-color="#E8EAEB"/>
</linearGradient>
<linearGradient id="paint5_linear" x1="297" y1="113.5" x2="277.769" y2="164.342" gradientUnits="userSpaceOnUse">
<stop stop-color="#87DDE8"/>
<stop offset="0.43888" stop-color="#2CC3D5"/>
<stop offset="1" stop-color="#2498A8"/>
</linearGradient>
<linearGradient id="paint6_linear" x1="301.405" y1="123.373" x2="225.133" y2="279.457" gradientUnits="userSpaceOnUse">
<stop stop-color="#FAFCFC"/>
<stop offset="0.43888" stop-color="#F5F8F9"/>
<stop offset="0.9999" stop-color="#E8EAEB"/>
<stop offset="1" stop-color="#E8EAEB"/>
</linearGradient>
<linearGradient id="paint7_linear" x1="537.043" y1="248.493" x2="511.714" y2="315.457" gradientUnits="userSpaceOnUse">
<stop stop-color="#87DDE8"/>
<stop offset="0.43888" stop-color="#2CC3D5"/>
<stop offset="1" stop-color="#2498A8"/>
</linearGradient>
<linearGradient id="paint8_linear" x1="542.845" y1="261.497" x2="442.387" y2="467.073" gradientUnits="userSpaceOnUse">
<stop stop-color="#FAFCFC"/>
<stop offset="0.43888" stop-color="#F5F8F9"/>
<stop offset="0.9999" stop-color="#E8EAEB"/>
<stop offset="1" stop-color="#E8EAEB"/>
</linearGradient>
<linearGradient id="paint9_linear" x1="581.84" y1="472.503" x2="540.389" y2="526.436" gradientUnits="userSpaceOnUse">
<stop stop-color="#87DDE8"/>
<stop offset="0.43888" stop-color="#2CC3D5"/>
<stop offset="1" stop-color="#2498A8"/>
</linearGradient>
</defs>
</svg>
