<svg width="72" height="72" viewBox="0 0 72 72" fill="none" xmlns="http://www.w3.org/2000/svg">
<path d="M35.9423 65.894C52.4843 65.894 65.8942 52.4841 65.8942 35.9422C65.8942 19.4003 52.4843 5.99036 35.9423 5.99036C19.4004 5.99036 5.99048 19.4003 5.99048 35.9422C5.99048 52.4841 19.4004 65.894 35.9423 65.894Z" fill="url(#paint0_linear)"/>
<path fill-rule="evenodd" clip-rule="evenodd" d="M44.2558 16.3493C43.973 18.3116 43.7142 20.279 43.3718 22.2316C43.3358 22.4371 42.8077 22.6895 42.505 22.6937C39.8808 22.7303 37.2559 22.7133 34.6313 22.7158C32.9574 22.7172 32.6518 22.9992 32.4388 24.6553C32.2929 25.7901 32.1324 26.9235 31.9564 28.0542C31.7688 29.258 32.0137 29.5774 33.2732 29.5846C35.928 29.6002 38.5828 29.5906 41.2378 29.5913C41.5616 29.5915 41.8851 29.5913 42.3272 29.5913C42.0698 31.5023 41.8419 33.2861 41.5878 35.0661C40.8977 39.8974 40.1982 44.7275 39.4989 49.5576C39.2573 51.2273 39.0275 52.8994 38.7351 54.5604C38.6897 54.819 38.3395 55.2212 38.126 55.2237C35.1405 55.2605 32.1542 55.24 29.168 55.2277C29.0876 55.2273 29.0076 55.1603 28.8075 55.0705C29.0266 53.5239 29.2461 51.9514 29.4726 50.3802C30.4146 43.8475 31.3603 37.3156 32.3003 30.7826C32.453 29.7203 32.2268 29.4519 31.0766 29.4452C27.9995 29.4275 24.9223 29.438 21.845 29.4372C21.4876 29.4372 21.1301 29.4372 20.6338 29.4372C20.8833 27.6572 21.1167 25.9714 21.357 24.2865C21.5663 22.8172 21.5696 22.8176 23.0266 22.8176C26.0736 22.8174 29.1209 22.7924 32.1676 22.8324C33.0766 22.8444 33.4958 22.4855 33.6111 21.6146C33.8252 20.0009 34.0553 18.3884 34.3307 16.7842C34.3708 16.5521 34.6974 16.1921 34.8939 16.1904C37.9092 16.1647 40.9249 16.1885 43.9404 16.2046C43.9942 16.2049 44.0478 16.2516 44.2558 16.3493Z" fill="white"/>
<defs>
<linearGradient id="paint0_linear" x1="35.9423" y1="65.894" x2="22.334" y2="17.1522" gradientUnits="userSpaceOnUse">
<stop stop-color="#EB6405"/>
<stop offset="1" stop-color="#FF8D00"/>
</linearGradient>
</defs>
</svg>
