<svg width="72" height="72" viewBox="0 0 72 72" fill="none" xmlns="http://www.w3.org/2000/svg">
<circle cx="36.375" cy="35.625" r="28.125" fill="white"/>
<path d="M27.2862 44.5812C27.7729 45.068 29.2331 46.5282 35.95 46.5282C42.6668 46.5282 44.127 45.068 44.6137 44.5812C45.1004 44.0945 46.5606 42.6343 46.5606 35.9175C46.5606 29.2007 45.1004 27.7405 44.6137 27.2538C44.127 26.767 42.6668 25.3068 35.95 25.3068C29.2331 25.3068 27.7729 26.767 27.2862 27.2538C26.7995 27.7405 25.3393 29.2007 25.3393 35.9175C25.3393 42.6343 26.7995 44.0945 27.2862 44.5812ZM21.9322 21.9322C24.2685 19.5959 29.7847 18.1033 36.0148 18.1033C42.245 18.1033 47.7612 19.5959 50.0975 21.9322C52.4338 24.2685 53.9264 29.7847 53.9264 36.0148C53.9264 42.245 52.4338 47.7612 50.0975 50.0975C47.7612 52.4338 42.245 53.9264 36.0148 53.9264C29.7847 53.9264 24.2685 52.4013 21.9322 50.0975C19.5959 47.7936 18.1033 42.245 18.1033 36.0148C18.1033 29.7847 19.5959 24.2685 21.9322 21.9322ZM18.8496 53.2774C22.1269 56.5547 28.5517 58.5341 36.0148 58.5341C43.478 58.5341 49.9028 56.5872 53.1801 53.2774C56.4574 50.0001 58.4368 43.5753 58.4368 36.1122C58.4368 28.649 56.4898 22.2242 53.1801 18.9469C49.9028 15.6696 43.478 13.6903 36.0148 13.6903C28.5517 13.6903 22.1269 15.6372 18.8496 18.9469C15.5723 22.2567 13.5929 28.649 13.5929 36.1122C13.6254 43.5753 15.5723 50.0001 18.8496 53.2774ZM6 36.0148C6 19.4337 19.4337 6 36.0148 6C52.4338 6 65.8026 19.2065 66.0297 35.593C66.2568 52.3689 52.4013 66.2244 35.6255 65.9972C19.2065 65.7701 6 52.4338 6 36.0148ZM31.8939 30.2066H40.1034C41.0444 30.2066 41.7907 30.9529 41.7907 31.8939V40.1034C41.7907 41.0444 41.0444 41.7907 40.1034 41.7907H31.8939C30.9529 41.7907 30.2066 41.0444 30.2066 40.1034V31.8939C30.2066 30.9529 30.9529 30.2066 31.8939 30.2066Z" fill="#E9530E"/>
</svg>
