<svg width="56" height="56" viewBox="0 0 56 56" fill="none" xmlns="http://www.w3.org/2000/svg">
<path fill-rule="evenodd" clip-rule="evenodd" d="M25.9554 19.8155C26.2234 19.7163 26.5093 19.6747 26.7944 19.6931L26.9189 19.662C27.2014 19.6437 27.4846 19.6859 27.7496 19.7858C28.0146 19.8856 28.2552 20.0408 28.4554 20.2411C28.6556 20.4413 28.8108 20.6819 28.9107 20.9469C29.0105 21.2118 29.0527 21.495 29.0344 21.7776V31.2043C29.0344 33.8798 28.3344 35.9254 26.8877 37.3331C25.4411 38.7409 23.4033 39.4487 20.6655 39.4487C17.9277 39.4487 15.8589 38.7487 14.4433 37.3487C13.0278 35.9487 12.3122 33.8954 12.3122 31.2043V23.1387L10.7566 24.6943C10.5977 24.857 10.4078 24.9863 10.198 25.0745C9.9883 25.1627 9.76304 25.2079 9.53553 25.2076C9.09445 25.2108 8.66982 25.0404 8.35331 24.7331C8.19222 24.5775 8.06342 24.3916 7.97427 24.1861C7.88512 23.9807 7.83737 23.7596 7.83376 23.5357C7.83015 23.3117 7.87074 23.0892 7.95322 22.881C8.0357 22.6727 8.15844 22.4828 8.31442 22.322L13.44 17.0254L13.5489 16.9398L13.6889 16.8309L13.8366 16.7531L13.9844 16.6754L14.1478 16.6209L14.2955 16.582H14.4666H14.6222H14.7933H14.9489C15.002 16.5929 15.0541 16.6085 15.1044 16.6287C15.1576 16.6396 15.2096 16.6552 15.26 16.6754L15.4155 16.7531L15.5555 16.8309L15.7189 16.9787L15.8278 17.0643L20.9533 22.3609C21.1093 22.5217 21.232 22.7116 21.3145 22.9199C21.397 23.1281 21.4376 23.3506 21.434 23.5745C21.4304 23.7985 21.3826 24.0195 21.2935 24.225C21.2043 24.4305 21.0755 24.6164 20.9144 24.772C20.5979 25.0792 20.1733 25.2497 19.7322 25.2465C19.5047 25.2468 19.2794 25.2015 19.0697 25.1134C18.86 25.0252 18.67 24.8959 18.5111 24.7331L16.4033 22.5554V31.3987C16.3134 32.6606 16.6898 33.9115 17.4611 34.9143C17.8519 35.3286 18.3289 35.652 18.8584 35.8616C19.3879 36.0713 19.9571 36.1621 20.5255 36.1276C21.0965 36.1613 21.6678 36.0686 22.1989 35.8562C22.7299 35.6438 23.2075 35.3168 23.5977 34.8987C24.3748 33.9043 24.7571 32.6578 24.6711 31.3987V21.8243C24.6553 21.54 24.6976 21.2556 24.7952 20.9881C24.8928 20.7207 25.0437 20.476 25.2389 20.2687C25.4433 20.0691 25.6874 19.9147 25.9554 19.8155ZM41.5488 19.8331C43.3301 19.7237 45.0865 20.2935 46.4644 21.4276C47.0634 21.9966 47.5311 22.6895 47.8347 23.4579C48.1383 24.2263 48.2705 25.0517 48.2222 25.8765C48.2746 26.7008 48.1466 27.5266 47.8471 28.2963C47.5475 29.066 47.0836 29.7611 46.4877 30.3331C45.1042 31.4533 43.3483 32.009 41.5722 31.8887H36.9522V37.2242C36.9698 37.5165 36.9274 37.8093 36.8277 38.0845C36.728 38.3598 36.573 38.6118 36.3723 38.825C36.1716 39.0381 35.9294 39.208 35.6606 39.3241C35.3919 39.4402 35.1022 39.5001 34.8094 39.5001C34.5166 39.5001 34.2269 39.4402 33.9581 39.3241C33.6894 39.208 33.4472 39.0381 33.2465 38.825C33.0458 38.6118 32.8908 38.3598 32.7911 38.0845C32.6914 37.8093 32.649 37.5165 32.6666 37.2242V21.8398C32.6377 21.5712 32.6689 21.2996 32.758 21.0446C32.8471 20.7895 32.9918 20.5576 33.1817 20.3654C33.3716 20.1733 33.6019 20.0259 33.8558 19.9338C34.1098 19.8417 34.3811 19.8073 34.65 19.8331H41.5488ZM36.9288 28.6765H40.9966C43.1381 28.7024 44.2088 27.7794 44.2088 25.9076C44.2088 24.0357 43.1381 23.0998 40.9966 23.0998H36.9288V28.6765Z" fill="white"/>
</svg>
