<svg width="72" height="72" viewBox="0 0 72 72" fill="none" xmlns="http://www.w3.org/2000/svg">
<rect x="6" y="6" width="60" height="60" rx="12" fill="#009480"/>
<path fill-rule="evenodd" clip-rule="evenodd" d="M51.6885 30.4552C51.6885 40.8031 45.1693 46.9004 39.3108 50.6257C33.6831 54.2156 27.4585 55.8474 20.589 54.6056C20.3869 54.5652 20.1895 54.5038 20 54.4226C20.0876 53.0614 20.0876 51.6684 20.2627 50.3073C20.2627 50.0128 20.9154 49.7421 21.3293 49.567C23.7571 48.5004 26.3839 47.7601 28.6126 46.3353C29.7137 45.6728 30.6629 44.7859 31.3986 43.7324C28.8262 42.5957 26.64 40.7352 25.1065 38.3778C23.573 36.0203 22.7584 33.2676 22.7621 30.4552V30.4552C22.7621 26.6215 24.2851 22.9447 26.9959 20.2338C29.7068 17.523 33.3836 16 37.2173 16C41.0511 16 44.7278 17.523 47.4387 20.2338C50.1496 22.9447 51.6725 26.6215 51.6725 30.4552H51.6885Z" fill="white"/>
<path fill-rule="evenodd" clip-rule="evenodd" d="M46.9123 30.3995C46.9028 32.2906 46.332 34.1364 45.2724 35.7029C44.2128 37.2694 42.7121 38.4861 40.9603 39.1988C39.2086 39.9116 37.2847 40.0883 35.4324 39.7065C33.5801 39.3248 31.8829 38.4018 30.5557 37.0545C29.2285 35.7072 28.3311 33.9962 27.9773 32.1384C27.6234 30.2806 27.829 28.3596 28.568 26.6188C29.307 24.8779 30.5462 23.3956 32.1284 22.3597C33.7107 21.3238 35.5648 20.7809 37.4559 20.7998C39.9809 20.825 42.3932 21.8491 44.1653 23.648C45.9374 25.4469 46.9251 27.8743 46.9123 30.3995V30.3995Z" fill="#414141"/>
<path fill-rule="evenodd" clip-rule="evenodd" d="M35.5935 35.4939V34.6024C35.4615 34.6128 35.3289 34.5939 35.205 34.5471C35.0812 34.5003 34.9692 34.4268 34.8771 34.3317C34.7231 34.0961 34.6504 33.8166 34.6701 33.5358V31.9676C34.6701 31.1159 34.3756 30.6065 33.8104 30.4314C34.1096 30.2984 34.3562 30.07 34.5117 29.782C34.6673 29.4939 34.723 29.1625 34.6701 28.8394V27.2952C34.6701 26.5788 34.9726 26.2285 35.5935 26.2285V25.3052C35.0361 25.2565 34.4818 25.4279 34.0492 25.7828C33.8693 25.9824 33.7319 26.2167 33.6457 26.4713C33.5595 26.7259 33.5261 26.9954 33.5478 27.2633V28.7996C33.5478 29.5956 33.2532 29.9538 32.6562 29.9538V30.8453C33.2532 30.8453 33.5478 31.2274 33.5478 31.9358V33.5278C33.5232 33.7959 33.5552 34.0662 33.6416 34.3212C33.7279 34.5762 33.8668 34.8103 34.0492 35.0083C34.491 35.3431 35.0413 35.502 35.5935 35.4541V35.4939ZM39.1197 34.6024V35.4939C39.6679 35.539 40.2139 35.3835 40.656 35.0561C40.8352 34.8559 40.972 34.6216 41.0582 34.3671C41.1444 34.1127 41.1781 33.8434 41.1575 33.5756V31.9836C41.1575 31.2433 41.452 30.8851 42.049 30.8851V29.9856C41.452 29.9856 41.1575 29.6035 41.1575 28.8314V27.2394C41.1768 26.9717 41.1423 26.7028 41.0562 26.4485C40.9701 26.1943 40.834 25.9598 40.656 25.7589C40.2258 25.4053 39.6745 25.2339 39.1197 25.2813V26.1967C39.7406 26.1967 40.0351 26.5549 40.0351 27.2633V28.8076C39.9822 29.1306 40.0379 29.4621 40.1935 29.7501C40.349 30.0382 40.5956 30.2666 40.8948 30.3995V30.3995C40.601 30.5234 40.3569 30.7418 40.2012 31.0201C40.0455 31.2983 39.987 31.6206 40.0351 31.9358V33.48C40.0585 33.7612 39.9855 34.0419 39.8281 34.276C39.7365 34.369 39.6255 34.4407 39.5031 34.4861C39.3807 34.5315 39.2498 34.5495 39.1197 34.5387V34.6024Z" fill="white"/>
</svg>
