<svg width="72" height="72" viewBox="0 0 72 72" fill="none" xmlns="http://www.w3.org/2000/svg">
<g clip-path="url(#clip0)">
<path d="M35.9421 65.894C52.484 65.894 65.8939 52.4841 65.8939 35.9422C65.8939 19.4003 52.484 5.99036 35.9421 5.99036C19.4001 5.99036 5.99023 19.4003 5.99023 35.9422C5.99023 52.4841 19.4001 65.894 35.9421 65.894Z" fill="url(#paint0_linear)"/>
<path fill-rule="evenodd" clip-rule="evenodd" d="M25.1633 26.5345C22.9577 26.5345 21.1697 28.3224 21.1697 30.528V40.4623C21.1697 42.6679 22.9577 44.4559 25.1633 44.4559H46.7207C48.9263 44.4559 50.7143 42.6679 50.7143 40.4623V30.528C50.7143 28.3224 48.9263 26.5345 46.7207 26.5345H25.1633ZM18.5073 30.528C18.5073 26.852 21.4873 23.8721 25.1633 23.8721H46.7207C50.3967 23.8721 53.3766 26.852 53.3766 30.528V40.4623C53.3766 44.1383 50.3967 47.1183 46.7207 47.1183H25.1633C21.4873 47.1183 18.5073 44.1383 18.5073 40.4623V30.528Z" fill="white"/>
<path fill-rule="evenodd" clip-rule="evenodd" d="M21.7556 28.3425C21.1881 28.3425 20.9782 29.1245 21.4491 29.4416L34.8787 38.7162C35.5597 39.187 36.4336 39.193 37.1145 38.7162L50.4238 29.4536C51.0798 29.0328 50.4125 27.9992 49.7996 28.4594L36.4892 37.7219C36.1181 37.9818 35.8763 37.9794 35.5018 37.7219L22.0768 28.4439C21.9803 28.3783 21.8713 28.3425 21.7556 28.3425Z" fill="white" stroke="white" stroke-width="0.5"/>
</g>
<defs>
<linearGradient id="paint0_linear" x1="64.5179" y1="58.046" x2="18.1163" y2="12.3083" gradientUnits="userSpaceOnUse">
<stop stop-color="#18A1D6"/>
<stop offset="1" stop-color="#0AC1FF"/>
</linearGradient>
<clipPath id="clip0">
<rect width="59.9037" height="59.9037" fill="white" transform="translate(5.99023 5.99036)"/>
</clipPath>
</defs>
</svg>
