<svg width="72" height="72" viewBox="0 0 72 72" fill="none" xmlns="http://www.w3.org/2000/svg">
<path d="M35.9421 5.99036C30.0182 5.99036 24.2273 7.747 19.3017 11.0382C14.3762 14.3293 10.5372 19.0071 8.2702 24.4801C6.00321 29.9531 5.41007 35.9754 6.56576 41.7855C7.72146 47.5956 10.5741 52.9325 14.7629 57.1214C18.9518 61.3102 24.2887 64.1628 30.0988 65.3185C35.9089 66.4742 41.9312 65.8811 47.4042 63.6141C52.8772 61.3471 57.555 57.5081 60.8461 52.5826C64.1373 47.657 65.8939 41.8661 65.8939 35.9422C65.8939 32.0089 65.1192 28.1141 63.614 24.4801C62.1088 20.8462 59.9025 17.5443 57.1212 14.763C54.34 11.9818 51.0381 9.77553 47.4042 8.27031C43.7702 6.76508 39.8754 5.99036 35.9421 5.99036ZM23.9614 24.1911H47.9228L36.9405 34.2349C36.6045 34.516 36.1804 34.6701 35.7424 34.6701C35.3044 34.6701 34.8803 34.516 34.5443 34.2349L23.6718 24.251C23.7669 24.2248 23.8637 24.2048 23.9614 24.1911ZM51.1177 44.5783C51.1178 44.9942 51.0347 45.4059 50.8732 45.7891C50.7117 46.1723 50.475 46.5194 50.1773 46.8097C49.8795 47.1 49.5266 47.3278 49.1394 47.4795C48.7522 47.6313 48.3386 47.704 47.9228 47.6933H23.9614C23.1352 47.6933 22.3429 47.3651 21.7587 46.7809C21.1745 46.1968 20.8464 45.4045 20.8464 44.5783V27.3061C20.8479 26.7915 20.982 26.2861 21.2357 25.8384L32.6075 36.3715C33.4732 37.1271 34.5833 37.5434 35.7324 37.5434C36.8815 37.5434 37.9917 37.1271 38.8574 36.3715L50.5686 25.6188C50.9037 26.1174 51.0811 26.7053 51.0778 27.3061L51.1177 44.5783Z" fill="url(#paint0_linear)"/>
<defs>
<linearGradient id="paint0_linear" x1="26.842" y1="2.96388" x2="47.5499" y2="74.5034" gradientUnits="userSpaceOnUse">
<stop stop-color="#25DDE0"/>
<stop offset="1" stop-color="#28B4C3"/>
</linearGradient>
</defs>
</svg>
