<svg width="258" height="258" viewBox="0 0 258 258" fill="none" xmlns="http://www.w3.org/2000/svg">
<g clip-path="url(#clip0)">
<path fill-rule="evenodd" clip-rule="evenodd" d="M129.109 21.5C68.484 21.5 21.4995 65.8631 21.4995 125.779C21.4995 157.12 34.3605 184.201 55.298 202.911C57.0521 204.491 58.1126 206.675 58.1992 209.033L58.784 228.153C58.9788 234.253 65.2793 238.212 70.8659 235.767L92.2145 226.358C94.0206 225.559 96.0468 225.407 97.9523 225.926C107.76 228.63 118.218 230.057 129.109 230.057C189.734 230.057 236.718 185.694 236.718 125.778C236.718 65.8631 189.734 21.5 129.109 21.5Z" fill="url(#paint0_linear)"/>
<path fill-rule="evenodd" clip-rule="evenodd" d="M64.5011 156.277L96.1125 106.182C101.136 98.2219 111.918 96.2317 119.453 101.877L144.591 120.717C145.714 121.556 147.079 122.008 148.481 122.004C149.883 122 151.245 121.541 152.364 120.696L186.314 94.9554C190.839 91.5168 196.772 96.9462 193.719 101.748L162.129 151.821C157.106 159.781 146.323 161.771 138.788 156.125L113.651 137.286C112.528 136.446 111.162 135.995 109.761 135.999C108.359 136.002 106.996 136.462 105.878 137.307L71.9057 163.069C67.3808 166.508 61.4477 161.079 64.5011 156.277V156.277Z" fill="white"/>
</g>
<defs>
<linearGradient id="paint0_linear" x1="129.109" y1="21.5" x2="129.109" y2="236.502" gradientUnits="userSpaceOnUse">
<stop stop-color="#00B2FF"/>
<stop offset="1" stop-color="#006AFF"/>
</linearGradient>
<clipPath id="clip0">
<rect width="215" height="215" fill="white" transform="translate(21.4995 21.5)"/>
</clipPath>
</defs>
</svg>
