<svg width="345" height="342" viewBox="0 0 345 342" fill="none" xmlns="http://www.w3.org/2000/svg">
<path opacity="0.3" d="M238.073 127.438C217.932 117.327 203.934 102.771 184.601 54.8523C157.307 -12.8464 79.1728 28.9646 73.5397 77.3108C67.9066 125.657 102.072 134.288 81.4011 213.496C53.2289 321.36 194.769 283.213 247.162 259.556C309.65 231.322 328.569 172.942 238.073 127.438Z" fill="#87DDE8"/>
<path d="M130.508 152.14C130.508 152.14 106.937 209.464 101.856 227.179C98.1518 240.105 102.418 250.228 121.937 250.228" stroke="#FDC2BF" stroke-width="32.6488" stroke-linecap="round" stroke-linejoin="round"/>
<path d="M130.508 154.477C130.508 154.477 125.767 163.775 119.998 178.184" stroke="#4AA86C" stroke-width="40.811" stroke-linecap="round" stroke-linejoin="round"/>
<path d="M222.187 152.333C222.187 152.333 243.373 208.31 247.969 226.161C252.633 244.254 242.035 250.402 222.517 250.402" stroke="#FDC2BF" stroke-width="32.6488" stroke-linecap="round" stroke-linejoin="round"/>
<path d="M222.187 154.67C222.187 154.67 226.967 163.969 232.698 178.378" stroke="#4AA86C" stroke-width="40.811" stroke-linecap="round" stroke-linejoin="round"/>
<path d="M227.132 262.144V143.849V141.978C227.132 138.982 204.404 136.558 176.353 136.558C148.301 136.558 125.583 138.982 125.583 141.978V143.849V262.144H227.132Z" fill="#4AA86C"/>
<path d="M225.639 262.067H228.945V203.123C228.464 195.849 227.42 188.623 225.823 181.51C225.823 181.51 226.492 230.622 225.639 262.067Z" fill="#449F65"/>
<path d="M126.572 259.72C126.262 230.467 127.813 185.389 127.813 185.389C124.904 189.897 122.858 201.533 122.858 201.533V259.711L126.572 259.72Z" fill="#449F65"/>
<path d="M174.85 151.227C180.231 151.227 184.594 147.633 184.594 143.199C184.594 138.765 180.231 135.17 174.85 135.17C169.468 135.17 165.105 138.765 165.105 143.199C165.105 147.633 169.468 151.227 174.85 151.227Z" fill="#FDC2BF"/>
<path d="M183.914 143.199C183.914 147.14 179.985 150.547 174.85 150.547C169.714 150.547 165.785 147.14 165.785 143.199C165.785 139.258 169.714 135.851 174.85 135.851C179.985 135.851 183.914 139.258 183.914 143.199Z" stroke="white" stroke-width="1.36037"/>
<path d="M253.244 243.365V243.528C253.239 243.474 253.239 243.419 253.244 243.365V243.365Z" fill="#F8F7EF"/>
<path d="M86.0121 162.117C86.5476 162.117 86.9817 161.683 86.9817 161.148C86.9817 160.612 86.5476 160.178 86.0121 160.178C85.4766 160.178 85.0425 160.612 85.0425 161.148C85.0425 161.683 85.4766 162.117 86.0121 162.117Z" fill="#87DDE8"/>
<path d="M230.487 86.4864C231.022 86.4864 231.456 86.0523 231.456 85.5167C231.456 84.9812 231.022 84.5471 230.487 84.5471C229.951 84.5471 229.517 84.9812 229.517 85.5167C229.517 86.0523 229.951 86.4864 230.487 86.4864Z" fill="#87DDE8"/>
<path d="M91.8297 139.816C92.3652 139.816 92.7994 139.382 92.7994 138.847C92.7994 138.311 92.3652 137.877 91.8297 137.877C91.2942 137.877 90.8601 138.311 90.8601 138.847C90.8601 139.382 91.2942 139.816 91.8297 139.816Z" fill="#87DDE8"/>
<path d="M268.302 176.662C268.838 176.662 269.272 176.228 269.272 175.692C269.272 175.157 268.838 174.723 268.302 174.723C267.767 174.723 267.333 175.157 267.333 175.692C267.333 176.228 267.767 176.662 268.302 176.662Z" fill="#E7EEF1"/>
<path d="M317.711 80.4284C318.219 80.5977 318.768 80.3232 318.938 79.8152C319.107 79.3072 318.832 78.758 318.324 78.5887C317.816 78.4193 317.267 78.6938 317.098 79.2018C316.928 79.7099 317.203 80.259 317.711 80.4284Z" fill="#87DDE8"/>
<path d="M246.001 143.695C246.536 143.695 246.971 143.261 246.971 142.725C246.971 142.189 246.536 141.755 246.001 141.755C245.465 141.755 245.031 142.189 245.031 142.725C245.031 143.261 245.465 143.695 246.001 143.695Z" fill="#87DDE8"/>
<path d="M281.877 170.844C282.413 170.844 282.847 170.41 282.847 169.874C282.847 169.339 282.413 168.905 281.877 168.905C281.342 168.905 280.907 169.339 280.907 169.874C280.907 170.41 281.342 170.844 281.877 170.844Z" fill="#87DDE8"/>
<path d="M118.979 63.2154C119.515 63.2154 119.949 62.7813 119.949 62.2458C119.949 61.7102 119.515 61.2761 118.979 61.2761C118.444 61.2761 118.01 61.7102 118.01 62.2458C118.01 62.7813 118.444 63.2154 118.979 63.2154Z" fill="#87DDE8"/>
<path d="M314.032 66.9366C315.048 67.2753 316.147 66.7263 316.485 65.7102C316.824 64.6942 316.275 63.5959 315.259 63.2572C314.243 62.9184 313.145 63.4675 312.806 64.4835C312.467 65.4995 313.016 66.5978 314.032 66.9366Z" stroke="#87DDE8" stroke-width="0.544147" stroke-linecap="round" stroke-linejoin="round"/>
<path d="M283.816 155.33C285.423 155.33 286.725 154.028 286.725 152.421C286.725 150.815 285.423 149.512 283.816 149.512C282.21 149.512 280.907 150.815 280.907 152.421C280.907 154.028 282.21 155.33 283.816 155.33Z" stroke="#87DDE8" stroke-width="0.544147" stroke-linecap="round" stroke-linejoin="round"/>
<path d="M116.071 71.942C117.142 71.942 118.01 71.0738 118.01 70.0027C118.01 68.9317 117.142 68.0635 116.071 68.0635C115 68.0635 114.131 68.9317 114.131 70.0027C114.131 71.0738 115 71.942 116.071 71.942Z" stroke="#E7EEF1" stroke-width="0.544147" stroke-linecap="round" stroke-linejoin="round"/>
<path d="M229.874 78.6662L227.96 76.5619C227.588 76.1525 226.954 76.1224 226.545 76.4947L224.441 78.408C224.031 78.7804 224.001 79.4141 224.374 79.8235L226.287 81.9278C226.659 82.3372 227.293 82.3673 227.702 81.995L229.807 80.0817C230.216 79.7093 230.246 79.0756 229.874 78.6662Z" stroke="#87DDE8" stroke-width="0.680184" stroke-linecap="round" stroke-linejoin="round"/>
<path d="M61.1585 120.36L59.2452 118.256C58.8729 117.846 58.2391 117.816 57.8297 118.189L55.7254 120.102C55.316 120.474 55.2859 121.108 55.6582 121.517L57.5716 123.622C57.9439 124.031 58.5776 124.061 58.987 123.689L61.0913 121.776C61.5007 121.403 61.5308 120.769 61.1585 120.36Z" stroke="#87DDE8" stroke-width="0.680184" stroke-linecap="round" stroke-linejoin="round"/>
<path d="M98.974 172.72L97.0606 170.616C96.6883 170.206 96.0546 170.176 95.6451 170.549L93.5409 172.462C93.1314 172.834 93.1013 173.468 93.4736 173.877L95.387 175.982C95.7593 176.391 96.393 176.421 96.8025 176.049L98.9067 174.136C99.3162 173.763 99.3463 173.13 98.974 172.72Z" stroke="#87DDE8" stroke-width="0.680184" stroke-linecap="round" stroke-linejoin="round"/>
<path d="M306.041 66.6715L305.121 64.5904C304.942 64.1855 304.469 64.0022 304.064 64.1812L301.983 65.1009C301.578 65.2798 301.394 65.7532 301.573 66.1581L302.493 68.2392C302.672 68.6442 303.145 68.8274 303.55 68.6484L305.631 67.7288C306.036 67.5498 306.22 67.0765 306.041 66.6715Z" fill="#87DDE8"/>
<path d="M276.151 160.515L274.62 158.832C274.322 158.504 273.815 158.48 273.488 158.778L271.804 160.309C271.477 160.607 271.453 161.114 271.751 161.441L273.281 163.125C273.579 163.452 274.086 163.476 274.414 163.178L276.097 161.648C276.425 161.35 276.449 160.843 276.151 160.515Z" fill="#87DDE8"/>
<path d="M121.01 81.0057L119.48 79.3223C119.182 78.9948 118.675 78.9707 118.347 79.2685L116.664 80.7992C116.336 81.0971 116.312 81.6041 116.61 81.9316L118.141 83.615C118.439 83.9426 118.946 83.9667 119.273 83.6688L120.957 82.1381C121.284 81.8403 121.308 81.3333 121.01 81.0057Z" fill="#87DDE8"/>
<path d="M105.496 158.576L103.965 156.893C103.667 156.565 103.16 156.541 102.833 156.839L101.15 158.37C100.822 158.667 100.798 159.174 101.096 159.502L102.626 161.185C102.924 161.513 103.431 161.537 103.759 161.239L105.442 159.708C105.77 159.411 105.794 158.904 105.496 158.576Z" fill="#87DDE8"/>
<rect opacity="0.5" x="66.6196" y="188.298" width="36.9536" height="26.3954" rx="4.23225" fill="#87DDE8"/>
<rect opacity="0.5" x="62.741" y="185.389" width="38.4619" height="27.1496" rx="4.23225" fill="#C3EEF4"/>
<rect opacity="0.5" x="112.192" y="171.814" width="29.6441" height="21.1744" rx="3.39511" fill="#87DDE8"/>
<rect opacity="0.5" x="109.283" y="168.905" width="30.8541" height="21.7793" rx="3.39511" fill="#C3EEF4"/>
<path opacity="0.5" fill-rule="evenodd" clip-rule="evenodd" d="M129.853 185.308L131.331 186.782L131.329 186.793C131.364 186.828 131.392 186.87 131.411 186.916C131.43 186.961 131.439 187.011 131.439 187.06C131.439 187.11 131.43 187.159 131.411 187.204C131.392 187.25 131.364 187.292 131.329 187.327C131.294 187.362 131.252 187.39 131.206 187.409C131.161 187.428 131.112 187.437 131.062 187.437C131.012 187.437 130.963 187.428 130.918 187.409C130.872 187.39 130.83 187.362 130.795 187.327L129.287 185.819C128.361 186.522 127.2 186.841 126.045 186.708C124.89 186.576 123.831 186.002 123.089 185.107C122.347 184.213 121.979 183.066 122.062 181.906C122.146 180.746 122.674 179.664 123.537 178.885C124.4 178.105 125.53 177.69 126.692 177.724C127.854 177.758 128.958 178.24 129.773 179.069C130.588 179.898 131.052 181.01 131.066 182.172C131.081 183.335 130.646 184.458 129.853 185.308ZM123.415 180.171C123.004 180.789 122.785 181.515 122.786 182.257V182.25C122.786 182.743 122.884 183.232 123.073 183.688C123.262 184.144 123.539 184.558 123.889 184.907C124.238 185.255 124.653 185.532 125.109 185.72C125.565 185.909 126.054 186.006 126.547 186.005C127.29 186.004 128.015 185.782 128.632 185.369C129.248 184.955 129.728 184.368 130.011 183.681C130.293 182.995 130.366 182.24 130.22 181.512C130.074 180.785 129.715 180.116 129.19 179.592C128.664 179.068 127.994 178.712 127.266 178.569C126.538 178.425 125.783 178.501 125.098 178.786C124.412 179.071 123.827 179.553 123.415 180.171ZM128.849 180.638C128.906 180.696 128.938 180.773 128.938 180.854C128.938 181.117 128.852 181.372 128.692 181.581C128.533 181.789 128.309 181.939 128.056 182.008V182.146H128.638C128.719 182.146 128.797 182.178 128.854 182.235C128.912 182.293 128.944 182.37 128.944 182.451C128.944 182.532 128.912 182.61 128.854 182.667C128.797 182.725 128.719 182.757 128.638 182.757H128.056V182.838C128.053 182.907 128.046 182.977 128.033 183.045C128.29 183.111 128.517 183.261 128.679 183.47C128.842 183.679 128.93 183.936 128.931 184.201C128.931 184.282 128.898 184.36 128.841 184.417C128.784 184.474 128.706 184.506 128.625 184.506C128.544 184.506 128.466 184.474 128.409 184.417C128.352 184.36 128.32 184.282 128.32 184.201C128.317 184.06 128.263 183.925 128.169 183.821C128.074 183.717 127.945 183.651 127.805 183.635C127.675 183.833 127.497 183.995 127.289 184.107C127.081 184.219 126.848 184.278 126.612 184.278H126.453C126.217 184.278 125.984 184.219 125.776 184.107C125.567 183.995 125.39 183.833 125.26 183.635C125.12 183.651 124.991 183.717 124.896 183.821C124.801 183.925 124.748 184.06 124.745 184.201C124.745 184.282 124.713 184.36 124.656 184.417C124.598 184.474 124.521 184.506 124.44 184.506C124.359 184.506 124.281 184.474 124.224 184.417C124.166 184.36 124.134 184.282 124.134 184.201C124.135 183.935 124.224 183.677 124.388 183.468C124.552 183.258 124.781 183.11 125.039 183.045C125.034 182.976 125.034 182.907 125.039 182.838V182.757H124.447C124.366 182.757 124.288 182.725 124.231 182.667C124.174 182.61 124.142 182.532 124.142 182.451C124.142 182.37 124.174 182.293 124.231 182.235C124.288 182.178 124.366 182.146 124.447 182.146H125.039V182.008C124.786 181.939 124.562 181.789 124.403 181.581C124.243 181.372 124.157 181.117 124.157 180.854C124.157 180.773 124.189 180.696 124.246 180.638C124.304 180.581 124.381 180.549 124.462 180.549C124.543 180.549 124.621 180.581 124.678 180.638C124.735 180.696 124.768 180.773 124.768 180.854C124.766 180.982 124.807 181.107 124.884 181.209C124.96 181.311 125.069 181.386 125.192 181.42C125.234 181.395 125.281 181.38 125.33 181.377V181.309C125.33 181.124 125.387 180.944 125.492 180.792C125.597 180.64 125.745 180.524 125.918 180.458L125.729 180.151C125.698 180.097 125.689 180.032 125.705 179.971C125.72 179.91 125.76 179.857 125.814 179.825C125.868 179.793 125.933 179.785 125.994 179.8C126.054 179.816 126.106 179.856 126.138 179.91L126.425 180.396H126.67L126.957 179.91C126.972 179.882 126.993 179.858 127.018 179.839C127.043 179.819 127.071 179.805 127.102 179.797C127.133 179.788 127.164 179.786 127.196 179.791C127.227 179.795 127.257 179.805 127.285 179.821C127.312 179.837 127.336 179.859 127.354 179.884C127.373 179.91 127.387 179.938 127.395 179.969C127.402 180 127.403 180.032 127.398 180.063C127.394 180.094 127.382 180.124 127.366 180.151L127.177 180.458C127.35 180.524 127.498 180.64 127.603 180.792C127.708 180.944 127.765 181.124 127.765 181.309V181.377C127.815 181.38 127.862 181.395 127.905 181.42C128.028 181.385 128.136 181.311 128.212 181.209C128.288 181.106 128.329 180.982 128.327 180.854C128.327 180.773 128.359 180.696 128.417 180.638C128.474 180.581 128.552 180.549 128.633 180.549C128.714 180.549 128.791 180.581 128.849 180.638Z" fill="white"/>
<g opacity="0.5">
<path fill-rule="evenodd" clip-rule="evenodd" d="M89.7049 199.543C89.7059 199.533 89.7059 199.524 89.7049 199.515C89.6989 199.479 89.6895 199.445 89.6769 199.411C89.6623 199.381 89.6443 199.352 89.6231 199.325V199.314L87.3584 196.666C87.3327 196.636 87.303 196.61 87.2701 196.589H87.255C87.2252 196.572 87.1934 196.559 87.1602 196.55C87.1523 196.549 87.1444 196.549 87.1365 196.55C87.1049 196.541 87.0723 196.537 87.0395 196.537H81.5945C81.274 196.537 80.9665 196.664 80.7398 196.891C80.5131 197.118 80.3857 197.425 80.3857 197.746V206.041C80.3919 206.358 80.522 206.66 80.7479 206.882C80.9739 207.104 81.2778 207.228 81.5945 207.229H88.5112C88.8316 207.228 89.1388 207.101 89.3654 206.874C89.5919 206.647 89.7195 206.34 89.72 206.02V199.582C89.7162 199.568 89.7111 199.555 89.7049 199.543ZM87.6429 199.112C87.6048 199.111 87.5684 199.096 87.5414 199.069C87.5145 199.042 87.4991 199.006 87.4985 198.967L87.4834 198.138L88.3259 199.127L87.6429 199.112ZM88.8474 206.007C88.8474 206.099 88.8108 206.187 88.7458 206.252C88.6807 206.317 88.5925 206.354 88.5005 206.354H81.5945C81.5025 206.354 81.4143 206.317 81.3492 206.252C81.2842 206.187 81.2476 206.099 81.2476 206.007V197.724C81.2476 197.632 81.2842 197.544 81.3492 197.479C81.4143 197.414 81.5025 197.377 81.5945 197.377H86.6064L86.6366 198.989C86.6416 199.25 86.7478 199.499 86.9327 199.683C87.1176 199.867 87.3669 199.972 87.6278 199.976L88.8517 200.004L88.8474 206.007ZM83.7924 202.116V201.547C83.7924 201.508 83.926 201.387 84.1717 201.387C84.2574 201.387 84.3396 201.353 84.4002 201.293C84.4608 201.232 84.4949 201.15 84.4949 201.064C84.4949 200.978 84.4608 200.896 84.4002 200.836C84.3396 200.775 84.2574 200.741 84.1717 200.741C83.5963 200.741 83.146 201.094 83.146 201.547V202.116C83.146 202.157 83.0103 202.275 82.7668 202.275C82.6811 202.275 82.5988 202.309 82.5382 202.37C82.4776 202.43 82.4436 202.513 82.4436 202.598C82.4436 202.684 82.4776 202.766 82.5382 202.827C82.5988 202.887 82.6811 202.921 82.7668 202.921C83.0103 202.921 83.146 203.04 83.146 203.079V203.65C83.146 204.1 83.5963 204.458 84.1803 204.458C84.266 204.458 84.3482 204.424 84.4088 204.363C84.4694 204.302 84.5035 204.22 84.5035 204.135C84.5035 204.049 84.4694 203.967 84.4088 203.906C84.3482 203.845 84.266 203.811 84.1803 203.811C83.9346 203.811 83.801 203.693 83.801 203.654V203.079C83.7975 202.899 83.725 202.727 83.5985 202.598C83.7223 202.468 83.7917 202.295 83.7924 202.116ZM86.9383 202.116C86.9383 202.157 87.074 202.275 87.3175 202.275C87.4032 202.275 87.4854 202.309 87.5461 202.37C87.6067 202.43 87.6407 202.513 87.6407 202.598C87.6407 202.684 87.6067 202.766 87.5461 202.827C87.4854 202.887 87.4032 202.921 87.3175 202.921C87.074 202.921 86.9383 203.04 86.9383 203.079V203.65C86.9383 204.1 86.4879 204.453 85.9126 204.453C85.8269 204.453 85.7447 204.419 85.6841 204.359C85.6235 204.298 85.5894 204.216 85.5894 204.13C85.5894 204.045 85.6235 203.962 85.6841 203.902C85.7447 203.841 85.8269 203.807 85.9126 203.807C86.1583 203.807 86.2919 203.689 86.2919 203.65V203.079C86.2954 202.899 86.3679 202.727 86.4944 202.598C86.3674 202.469 86.2949 202.296 86.2919 202.116V201.547C86.2919 201.508 86.1583 201.387 85.9126 201.387C85.8269 201.387 85.7447 201.353 85.6841 201.293C85.6235 201.232 85.5894 201.15 85.5894 201.064C85.5894 200.978 85.6235 200.896 85.6841 200.836C85.7447 200.775 85.8269 200.741 85.9126 200.741C86.4879 200.741 86.9383 201.094 86.9383 201.547V202.116Z" fill="white"/>
</g>
<rect opacity="0.2" x="52.3054" y="58.3513" width="50.6243" height="35.437" rx="4.05856" fill="#87DDE8"/>
<rect opacity="0.2" x="55.1982" y="61.9673" width="50.6243" height="35.437" rx="4.05856" fill="#87DDE8"/>
<rect x="50.1357" y="55.4583" width="50.6243" height="35.437" rx="4.05856" fill="#F8FBFB"/>
<path d="M50.1357 59.5168C50.1357 57.2753 51.9528 55.4583 54.1943 55.4583H96.7015C98.943 55.4583 100.76 57.2753 100.76 59.5168V63.4135H50.1357V59.5168Z" fill="#343C4C"/>
<circle cx="55.5599" cy="59.4361" r="1.08481" fill="#FF5A60"/>
<circle cx="58.4525" cy="59.4361" r="1.08481" fill="#F9B42F"/>
<circle cx="61.3453" cy="59.4361" r="1.08481" fill="#4DCB7B"/>
<path d="M96.9978 67.7356H83.4694C82.7943 67.7356 82.2471 68.2829 82.2471 68.958V83.9384C82.2471 84.6135 82.7943 85.1608 83.4694 85.1608H96.9978C97.6729 85.1608 98.2202 84.6135 98.2202 83.9384V68.958C98.2202 68.2829 97.6729 67.7356 96.9978 67.7356Z" fill="white"/>
<path d="M84.4253 70.6396H95.6791" stroke="#D2DFE6" stroke-width="1.52795" stroke-linecap="round" stroke-linejoin="round"/>
<path d="M84.4253 72.8179H95.6791" stroke="#D2DFE6" stroke-width="1.52795" stroke-linecap="round" stroke-linejoin="round"/>
<path d="M84.4253 74.9958H95.6791" stroke="#D2DFE6" stroke-width="1.52795" stroke-linecap="round" stroke-linejoin="round"/>
<path d="M84.4253 80.0784H95.6791" stroke="#D2DFE6" stroke-width="1.52795" stroke-linecap="round" stroke-linejoin="round"/>
<path d="M84.4253 82.2568H95.6791" stroke="#D2DFE6" stroke-width="1.52795" stroke-linecap="round" stroke-linejoin="round"/>
<path d="M84.4253 77.1741H90.9597" stroke="#D2DFE6" stroke-width="1.52795" stroke-linecap="round" stroke-linejoin="round"/>
<path d="M79.2093 67.7356H54.4272C53.7521 67.7356 53.2048 68.2829 53.2048 68.958V84.2762C53.2048 84.9513 53.7521 85.4986 54.4272 85.4986H79.2093C79.8844 85.4986 80.4317 84.9513 80.4317 84.2762V68.958C80.4317 68.2829 79.8844 67.7356 79.2093 67.7356Z" fill="#E7EEF1"/>
<path d="M55.3831 73.5439H56.8352" stroke="#FF7B80" stroke-width="1.52795" stroke-linecap="round" stroke-linejoin="round"/>
<path d="M58.2874 73.5439H65.5479" stroke="#FF7B80" stroke-width="1.52795" stroke-linecap="round" stroke-linejoin="round"/>
<path d="M55.3831 79.3521H56.8352" stroke="#BED42B" stroke-width="1.52795" stroke-linecap="round" stroke-linejoin="round"/>
<path d="M58.2874 79.3521H65.5479" stroke="#BED42B" stroke-width="1.52795" stroke-linecap="round" stroke-linejoin="round"/>
<path d="M55.3831 82.2563H56.8352" stroke="#607B99" stroke-width="1.52795" stroke-linecap="round" stroke-linejoin="round"/>
<path d="M58.2874 82.2563H72.0823" stroke="#607B99" stroke-width="1.52795" stroke-linecap="round" stroke-linejoin="round"/>
<path d="M55.3831 76.448H58.2873" stroke="#B97CE8" stroke-width="1.52795" stroke-linecap="round" stroke-linejoin="round"/>
<path d="M60.4656 76.448H67" stroke="#B97CE8" stroke-width="1.52795" stroke-linecap="round" stroke-linejoin="round"/>
<path d="M55.6274 71.0818C55.6448 71.0962 55.6583 71.1146 55.6668 71.1354C55.6753 71.1562 55.6785 71.1789 55.6762 71.2012C55.6781 71.2239 55.6747 71.2468 55.6663 71.268C55.6578 71.2891 55.6445 71.308 55.6274 71.3231C55.5972 71.3498 55.5582 71.3646 55.5178 71.3645H55.313C55.2649 71.3686 55.2164 71.3621 55.171 71.3455C55.1255 71.329 55.0842 71.3028 55.0499 71.2687C55.0156 71.2346 54.9891 71.1935 54.9723 71.1482C54.9554 71.1029 54.9486 71.0545 54.9523 71.0063V70.6382C54.9559 70.5901 54.9457 70.5419 54.9231 70.4993C54.9095 70.4843 54.8929 70.4722 54.8745 70.4639C54.856 70.4555 54.8361 70.4509 54.8158 70.4506C54.7936 70.451 54.7716 70.4469 54.7511 70.4385C54.7306 70.4301 54.712 70.4176 54.6964 70.4018C54.6699 70.3678 54.6561 70.3255 54.6574 70.2824C54.6555 70.2406 54.6694 70.1997 54.6964 70.1678C54.7282 70.1361 54.7709 70.1178 54.8158 70.1166C54.8361 70.1163 54.856 70.1117 54.8745 70.1033C54.8929 70.095 54.9095 70.0829 54.9231 70.0679C54.9464 70.0255 54.9566 69.9772 54.9523 69.929V69.5512C54.9499 69.503 54.9572 69.4548 54.974 69.4096C54.9908 69.3643 55.0166 69.3229 55.0498 69.288C55.1219 69.2235 55.2165 69.1902 55.313 69.1953H55.5178C55.5579 69.1944 55.5969 69.2083 55.6274 69.2343C55.6585 69.2673 55.6757 69.3109 55.6757 69.3562C55.6757 69.4015 55.6585 69.4451 55.6274 69.4781C55.5963 69.503 55.5577 69.5167 55.5178 69.5171H55.4788C55.4526 69.5154 55.4266 69.5232 55.4057 69.539C55.3963 69.5505 55.3894 69.5638 55.3852 69.578C55.381 69.5922 55.3797 69.6071 55.3813 69.6219V69.9826C55.3826 70.054 55.3594 70.1237 55.3155 70.18C55.2792 70.2308 55.2268 70.2677 55.1668 70.2848C55.227 70.3 55.2798 70.3363 55.3155 70.3872C55.3594 70.4435 55.3826 70.5132 55.3813 70.5846V70.9429C55.3797 70.9576 55.381 70.9725 55.3852 70.9868C55.3894 71.001 55.3963 71.0142 55.4057 71.0258C55.4266 71.0416 55.4526 71.0494 55.4788 71.0477H55.5178C55.5572 71.0456 55.5961 71.0577 55.6274 71.0818V71.0818Z" fill="#B9CBD3"/>
<path d="M57.4869 70.7436C57.4869 70.7691 57.4818 70.7944 57.4717 70.8179C57.4617 70.8413 57.4469 70.8625 57.4284 70.8801C57.4104 70.8996 57.3885 70.9151 57.3642 70.9258C57.3399 70.9364 57.3136 70.9419 57.287 70.9419C57.2605 70.9419 57.2342 70.9364 57.2099 70.9258C57.1856 70.9151 57.1637 70.8996 57.1457 70.8801L56.8556 70.5803L56.5705 70.8825C56.5524 70.902 56.5306 70.9176 56.5062 70.9282C56.4819 70.9388 56.4557 70.9443 56.4291 70.9443C56.4026 70.9443 56.3763 70.9388 56.352 70.9282C56.3276 70.9176 56.3058 70.902 56.2877 70.8825C56.2692 70.865 56.2545 70.8438 56.2444 70.8203C56.2344 70.7968 56.2292 70.7716 56.2292 70.746C56.2305 70.6935 56.2524 70.6436 56.2902 70.6071L56.5973 70.3024L56.3146 70.027C56.2764 69.9898 56.2545 69.939 56.2536 69.8857C56.2536 69.8601 56.2587 69.8349 56.2688 69.8114C56.2789 69.7879 56.2936 69.7668 56.3121 69.7492C56.3291 69.7297 56.3501 69.7142 56.3737 69.7037C56.3972 69.6932 56.4228 69.6879 56.4486 69.6882C56.4764 69.6883 56.5037 69.6947 56.5287 69.707C56.5536 69.7192 56.5754 69.737 56.5924 69.7589L56.8556 70.027L57.1213 69.7589C57.1398 69.7382 57.1623 69.7215 57.1874 69.7098C57.2126 69.6981 57.2398 69.6916 57.2675 69.6907C57.3185 69.6919 57.367 69.7125 57.4032 69.7483C57.4395 69.7841 57.4607 69.8323 57.4625 69.8832C57.462 69.9102 57.4561 69.9368 57.4452 69.9615C57.4343 69.9861 57.4187 70.0084 57.3992 70.027L57.1189 70.3024L57.426 70.6071C57.4632 70.643 57.485 70.6919 57.4869 70.7436V70.7436Z" fill="#B9CBD3"/>
<path d="M58.8203 70.1512C58.8345 70.1666 58.8455 70.1846 58.8526 70.2043C58.8597 70.224 58.8628 70.2449 58.8617 70.2658C58.863 70.3093 58.8482 70.3518 58.8203 70.3852C58.805 70.4007 58.7868 70.413 58.7667 70.4214C58.7466 70.4298 58.725 70.4341 58.7033 70.434C58.6826 70.4343 58.6623 70.4388 58.6435 70.4472C58.6246 70.4556 58.6076 70.4676 58.5936 70.4827C58.5709 70.5253 58.5608 70.5735 58.5643 70.6216V70.997C58.5688 71.0452 58.5627 71.0937 58.5463 71.1393C58.5299 71.1848 58.5036 71.2261 58.4694 71.2603C58.4352 71.2945 58.3938 71.3208 58.3483 71.3372C58.3028 71.3536 58.2542 71.3598 58.206 71.3553H58.0038C57.9618 71.3558 57.9211 71.3411 57.8892 71.3138C57.8729 71.2983 57.8602 71.2792 57.8522 71.2582C57.8442 71.2371 57.841 71.2145 57.8429 71.192C57.8409 71.1698 57.844 71.1475 57.852 71.1268C57.86 71.1061 57.8728 71.0875 57.8892 71.0725C57.9211 71.0453 57.9618 71.0306 58.0038 71.0311H58.0403C58.0665 71.0328 58.0925 71.025 58.1134 71.0092C58.1228 70.9977 58.1297 70.9844 58.1339 70.9702C58.1381 70.956 58.1394 70.941 58.1378 70.9263V70.568C58.1367 70.4971 58.159 70.4277 58.2012 70.3706C58.2368 70.3197 58.2896 70.2834 58.3498 70.2682C58.2898 70.2511 58.2374 70.2142 58.2012 70.1634C58.159 70.1063 58.1367 70.037 58.1378 69.966V69.615C58.1394 69.6003 58.1381 69.5854 58.1339 69.5712C58.1297 69.5569 58.1228 69.5437 58.1134 69.5322C58.0925 69.5163 58.0665 69.5085 58.0403 69.5102H58.0038C57.9623 69.5104 57.9219 69.4967 57.8892 69.4712C57.8592 69.4377 57.8427 69.3943 57.8427 69.3494C57.8427 69.3044 57.8592 69.261 57.8892 69.2275C57.9214 69.2011 57.9621 69.1873 58.0038 69.1885H58.206C58.3026 69.1834 58.3972 69.2167 58.4693 69.2811C58.5021 69.3163 58.5274 69.3578 58.5438 69.403C58.5601 69.4482 58.5671 69.4963 58.5643 69.5444V69.9221C58.5601 69.9703 58.5703 70.0187 58.5936 70.0611C58.6076 70.0761 58.6246 70.0882 58.6435 70.0966C58.6623 70.105 58.6826 70.1095 58.7033 70.1098C58.746 70.1089 58.7876 70.1236 58.8203 70.1512V70.1512Z" fill="#B9CBD3"/>
<path d="M205.441 66.1285V97.9129C205.448 101.828 204.681 105.705 203.186 109.323C201.691 112.941 199.496 116.228 196.728 118.997C193.96 121.765 190.673 123.959 187.055 125.454C183.437 126.95 179.559 127.716 175.645 127.71H174.064C171.922 127.713 169.786 127.482 167.694 127.021C161.059 125.567 155.12 121.891 150.859 116.601C146.599 111.311 144.273 104.724 144.267 97.9323V66.1285C144.267 58.2259 147.407 50.647 152.995 45.059C155.761 42.2922 159.046 40.0973 162.661 38.5999C166.276 37.1025 170.151 36.3318 174.064 36.3318H175.645C183.547 36.3318 191.126 39.4711 196.714 45.059C202.302 50.647 205.441 58.2259 205.441 66.1285V66.1285Z" fill="#FDC2BF"/>
<path d="M144.267 79.7473V93.3803C143.05 93.3599 141.89 92.8613 141.037 91.9922C140.184 91.1231 139.707 89.9534 139.71 88.7358V84.3918C139.71 83.175 140.187 82.0067 141.04 81.1381C141.892 80.2696 143.051 79.7702 144.267 79.7473V79.7473Z" fill="#FDC2BF"/>
<path d="M209.998 84.3918V88.7358C210.001 89.9534 209.525 91.1231 208.672 91.9922C207.819 92.8613 206.659 93.3599 205.441 93.3803V79.7473C206.658 79.7702 207.817 80.2696 208.669 81.1381C209.521 82.0067 209.999 83.175 209.998 84.3918Z" fill="#FDC2BF"/>
<path d="M175.645 122.231H174.064C171.922 122.234 169.786 122.003 167.694 121.542V139.965C167.692 140.809 167.857 141.645 168.179 142.425C168.501 143.205 168.974 143.913 169.57 144.511C170.166 145.108 170.874 145.581 171.654 145.905C172.433 146.228 173.269 146.394 174.113 146.394H175.596C176.44 146.394 177.275 146.228 178.055 145.905C178.834 145.581 179.542 145.108 180.138 144.511C180.735 143.913 181.207 143.205 181.529 142.425C181.851 141.645 182.016 140.809 182.015 139.965V121.542C179.922 121.999 177.787 122.23 175.645 122.231Z" fill="#FDC2BF"/>
<path d="M167.713 133.76V139.074C167.713 139.074 169.255 136.446 174.869 136.417C180.483 136.388 182.034 139.326 182.034 139.326V132.946L167.713 132.684V133.76Z" fill="#F4B1AF"/>
<path d="M204.307 97.0596C204.132 100.422 202.662 103.586 200.205 105.889C197.749 108.192 194.496 109.455 191.129 109.413H190.528C189.745 109.399 188.973 109.22 188.264 108.885C187.555 108.551 186.926 108.07 186.417 107.473C184.956 105.773 183.148 104.403 181.115 103.457C179.082 102.511 176.87 102.01 174.628 101.987C172.386 101.964 170.164 102.42 168.112 103.324C166.06 104.229 164.225 105.56 162.729 107.231C162.207 107.816 161.566 108.283 160.848 108.599C160.131 108.915 159.353 109.074 158.569 109.064V109.064C155.282 109.032 152.128 107.759 149.738 105.501C147.349 103.243 145.9 100.166 145.683 96.885L144.267 73.5364V109.994C144.267 123.841 151.569 135.079 169.352 135.079H180.357C199.051 135.079 205.441 123.841 205.441 109.994V73.5364L204.307 97.0596Z" fill="#2C2A46"/>
<path d="M213.227 44.6604C213.227 37.873 206.052 32.3946 197.209 32.3946C195.927 32.3973 194.648 32.5206 193.389 32.7631C192.884 32.7146 192.419 32.6855 191.857 32.6855C190.121 32.6841 188.397 32.9725 186.756 33.5388C184.759 34.3055 182.599 34.5467 180.482 34.2395C178.365 33.9322 176.362 33.0866 174.665 31.7838C172.453 29.9891 169.703 28.9864 166.855 28.9354C164.006 28.8844 161.223 29.7882 158.947 31.5026C158.075 32.1817 156.988 32.5256 155.883 32.4722C154.914 32.414 153.789 32.3753 153.411 32.3753C146.488 32.3753 145.402 45.3198 141.213 45.2131C133.96 45.0289 131.032 53.8816 131.032 61.2411C131.032 69.5314 136.142 76.5224 144.607 76.5224C150.89 76.5224 148.679 71.6743 151.045 66.351L151.248 66.0311C153.837 61.8713 158.104 59.1564 162.554 61.1829C162.554 61.1829 192.768 78.3938 203.599 76.5224C212.325 75.0098 215.234 64.6833 211.113 58.5164C209.707 56.4317 210.376 52.0684 211.695 49.9255C212.695 48.3515 213.227 46.5253 213.227 44.6604Z" fill="#2C2A46"/>
<rect opacity="0.2" x="241.152" y="76.7898" width="67.874" height="47.5118" rx="5.44147" fill="#87DDE8"/>
<rect opacity="0.2" x="245.031" y="81.6379" width="67.874" height="47.5118" rx="5.44147" fill="#87DDE8"/>
<rect x="238.244" y="72.9114" width="67.874" height="47.5118" rx="5.44147" fill="#F8FBFB"/>
<path d="M238.244 78.3528C238.244 75.3476 240.68 72.9114 243.685 72.9114H300.676C303.681 72.9114 306.118 75.3476 306.118 78.3528V83.5773H238.244V78.3528Z" fill="#343C4C"/>
<circle cx="245.516" cy="78.2442" r="1.45444" fill="#FF5A60"/>
<circle cx="249.394" cy="78.2442" r="1.45444" fill="#F9B42F"/>
<circle cx="253.273" cy="78.2442" r="1.45444" fill="#4DCB7B"/>
<path d="M300.607 89.395H282.54C281.638 89.395 280.907 90.1259 280.907 91.0275V111.034C280.907 111.935 281.638 112.666 282.54 112.666H300.607C301.508 112.666 302.239 111.935 302.239 111.034V91.0275C302.239 90.1259 301.508 89.395 300.607 89.395Z" fill="white"/>
<path d="M283.816 93.2737H299.33" stroke="#D2DFE6" stroke-width="2.04055" stroke-linecap="round" stroke-linejoin="round"/>
<path d="M283.816 96.1829H299.33" stroke="#D2DFE6" stroke-width="2.04055" stroke-linecap="round" stroke-linejoin="round"/>
<path d="M283.816 99.0916H299.33" stroke="#D2DFE6" stroke-width="2.04055" stroke-linecap="round" stroke-linejoin="round"/>
<path d="M294.482 103.939H299.33" stroke="#D2DFE6" stroke-width="2.04055" stroke-linecap="round" stroke-linejoin="round"/>
<path d="M294.482 106.849H298.36" stroke="#D2DFE6" stroke-width="2.04055" stroke-linecap="round" stroke-linejoin="round"/>
<path d="M294.482 109.757H296.421" stroke="#D2DFE6" stroke-width="2.04055" stroke-linecap="round" stroke-linejoin="round"/>
<path d="M291.747 110.272H284.612C284.534 110.272 284.459 110.24 284.403 110.185C284.347 110.129 284.316 110.054 284.316 109.975V102.752C284.316 102.674 284.347 102.598 284.403 102.543C284.459 102.487 284.534 102.456 284.612 102.456C284.691 102.456 284.766 102.487 284.822 102.543C284.877 102.598 284.909 102.674 284.909 102.752V109.679H291.747C291.825 109.679 291.901 109.71 291.956 109.766C292.012 109.821 292.043 109.897 292.043 109.975C292.043 110.054 292.012 110.129 291.956 110.185C291.901 110.24 291.825 110.272 291.747 110.272Z" fill="#B9CBD3"/>
<path d="M285.911 109.127C285.813 109.127 285.719 109.087 285.649 109.018C285.58 108.949 285.541 108.854 285.541 108.756V105.993C285.541 105.895 285.58 105.801 285.649 105.732C285.719 105.662 285.813 105.623 285.911 105.623C286.01 105.623 286.104 105.662 286.173 105.732C286.243 105.801 286.282 105.895 286.282 105.993V108.756C286.282 108.854 286.243 108.949 286.173 109.018C286.104 109.087 286.01 109.127 285.911 109.127V109.127Z" fill="#C3EEF4"/>
<path d="M287.536 109.126C287.438 109.126 287.344 109.087 287.274 109.018C287.205 108.948 287.166 108.854 287.166 108.756V104.546C287.166 104.497 287.176 104.449 287.194 104.404C287.213 104.359 287.24 104.318 287.274 104.284C287.309 104.25 287.35 104.222 287.395 104.204C287.44 104.185 287.488 104.176 287.536 104.176C287.585 104.176 287.633 104.185 287.678 104.204C287.723 104.222 287.764 104.25 287.798 104.284C287.833 104.318 287.86 104.359 287.879 104.404C287.897 104.449 287.907 104.497 287.907 104.546V108.756C287.907 108.854 287.868 108.948 287.798 109.018C287.729 109.087 287.635 109.126 287.536 109.126V109.126Z" fill="#87DDE8"/>
<path d="M290.786 109.127C290.688 109.127 290.594 109.088 290.524 109.018C290.455 108.949 290.416 108.854 290.416 108.756V104.081C290.416 103.983 290.455 103.889 290.524 103.819C290.594 103.75 290.688 103.711 290.786 103.711C290.885 103.711 290.979 103.75 291.048 103.819C291.118 103.889 291.157 103.983 291.157 104.081V108.756C291.157 108.805 291.147 108.853 291.129 108.898C291.11 108.943 291.083 108.984 291.049 109.019C291.014 109.053 290.973 109.08 290.928 109.099C290.883 109.117 290.835 109.127 290.786 109.127V109.127Z" fill="#2CC3D5"/>
<path d="M289.161 109.127C289.063 109.127 288.969 109.088 288.899 109.018C288.83 108.949 288.791 108.855 288.791 108.756V105.361C288.791 105.263 288.83 105.169 288.899 105.099C288.969 105.03 289.063 104.991 289.161 104.991C289.26 104.991 289.354 105.03 289.423 105.099C289.493 105.169 289.532 105.263 289.532 105.361V108.756C289.532 108.805 289.522 108.853 289.504 108.898C289.485 108.943 289.458 108.984 289.424 109.019C289.389 109.053 289.348 109.08 289.303 109.099C289.258 109.117 289.21 109.127 289.161 109.127Z" fill="#C3EEF4"/>
<path d="M276.705 89.395H243.748C242.85 89.395 242.122 90.1228 242.122 91.0206V111.392C242.122 112.29 242.85 113.017 243.748 113.017H276.705C277.602 113.017 278.33 112.29 278.33 111.392V91.0206C278.33 90.1228 277.602 89.395 276.705 89.395Z" fill="#E7EEF1"/>
<path d="M245.019 97.1196H246.95" stroke="#2CC3D5" stroke-width="2.03197" stroke-linecap="round" stroke-linejoin="round"/>
<path d="M248.881 97.1196H258.536" stroke="#2CC3D5" stroke-width="2.03197" stroke-linecap="round" stroke-linejoin="round"/>
<path d="M245.019 104.844H246.95" stroke="#F9B42F" stroke-width="2.03197" stroke-linecap="round" stroke-linejoin="round"/>
<path d="M248.881 104.844H258.536" stroke="#F9B42F" stroke-width="2.03197" stroke-linecap="round" stroke-linejoin="round"/>
<path d="M245.019 108.706H246.95" stroke="#55CFFF" stroke-width="2.03197" stroke-linecap="round" stroke-linejoin="round"/>
<path d="M248.881 108.706H267.226" stroke="#55CFFF" stroke-width="2.03197" stroke-linecap="round" stroke-linejoin="round"/>
<path d="M245.019 100.982H248.881" stroke="#B97CE8" stroke-width="2.03197" stroke-linecap="round" stroke-linejoin="round"/>
<path d="M251.778 100.982H260.468" stroke="#B97CE8" stroke-width="2.03197" stroke-linecap="round" stroke-linejoin="round"/>
<path d="M245.343 93.8454C245.366 93.8645 245.384 93.889 245.396 93.9167C245.407 93.9444 245.411 93.9744 245.408 94.0042C245.411 94.0344 245.406 94.0648 245.395 94.0929C245.384 94.1211 245.366 94.1462 245.343 94.1663C245.303 94.2018 245.251 94.2214 245.197 94.2214H244.925C244.861 94.2267 244.797 94.2181 244.736 94.1961C244.676 94.1741 244.621 94.1392 244.575 94.0939C244.53 94.0486 244.494 93.9939 244.472 93.9337C244.45 93.8734 244.44 93.809 244.445 93.7449V93.2555C244.45 93.1915 244.437 93.1274 244.407 93.0707C244.388 93.0508 244.366 93.0347 244.342 93.0236C244.317 93.0124 244.291 93.0064 244.264 93.0059C244.234 93.0064 244.205 93.001 244.178 92.9898C244.151 92.9787 244.126 92.9621 244.105 92.9411C244.07 92.8958 244.051 92.8396 244.053 92.7822C244.051 92.7267 244.069 92.6723 244.105 92.6299C244.147 92.5877 244.204 92.5634 244.264 92.5618C244.291 92.5613 244.317 92.5553 244.342 92.5442C244.366 92.533 244.388 92.517 244.407 92.497C244.438 92.4407 244.451 92.3763 244.445 92.3123V91.8099C244.442 91.7458 244.452 91.6817 244.474 91.6215C244.497 91.5613 244.531 91.5063 244.575 91.4598C244.671 91.3741 244.797 91.3298 244.925 91.3366H245.197C245.251 91.3354 245.303 91.3539 245.343 91.3885C245.384 91.4324 245.407 91.4903 245.407 91.5506C245.407 91.6108 245.384 91.6687 245.343 91.7126C245.302 91.7458 245.25 91.764 245.197 91.7645H245.146C245.111 91.7622 245.076 91.7726 245.048 91.7937C245.036 91.809 245.027 91.8266 245.021 91.8455C245.015 91.8644 245.014 91.8843 245.016 91.9039V92.3836C245.018 92.4785 244.987 92.5712 244.928 92.6461C244.88 92.7136 244.81 92.7628 244.731 92.7855C244.811 92.8056 244.881 92.8539 244.928 92.9216C244.987 92.9965 245.018 93.0892 245.016 93.1842V93.6606C245.014 93.6802 245.015 93.7001 245.021 93.719C245.027 93.7379 245.036 93.7555 245.048 93.7708C245.076 93.7919 245.111 93.8022 245.146 93.8H245.197C245.25 93.7973 245.302 93.8134 245.343 93.8454V93.8454Z" fill="#B9CBD3"/>
<path d="M247.817 93.3945C247.817 93.4284 247.81 93.462 247.796 93.4932C247.783 93.5245 247.763 93.5526 247.739 93.576C247.715 93.6019 247.686 93.6226 247.653 93.6367C247.621 93.6509 247.586 93.6582 247.551 93.6582C247.515 93.6582 247.481 93.6509 247.448 93.6367C247.416 93.6226 247.387 93.6019 247.363 93.576L246.977 93.1773L246.598 93.5792C246.574 93.6051 246.545 93.6258 246.512 93.64C246.48 93.6541 246.445 93.6614 246.41 93.6614C246.375 93.6614 246.34 93.6541 246.307 93.64C246.275 93.6258 246.246 93.6051 246.222 93.5792C246.197 93.5559 246.178 93.5277 246.164 93.4965C246.151 93.4653 246.144 93.4317 246.144 93.3977C246.146 93.3279 246.175 93.2615 246.225 93.213L246.633 92.8078L246.257 92.4415C246.207 92.392 246.178 92.3244 246.176 92.2535C246.176 92.2196 246.183 92.186 246.197 92.1548C246.21 92.1235 246.23 92.0954 246.254 92.072C246.277 92.0462 246.305 92.0255 246.336 92.0115C246.367 91.9975 246.401 91.9905 246.436 91.991C246.473 91.9911 246.509 91.9996 246.542 92.0159C246.575 92.0322 246.604 92.0558 246.627 92.085L246.977 92.4415L247.33 92.085C247.355 92.0575 247.385 92.0352 247.418 92.0196C247.452 92.004 247.488 91.9954 247.525 91.9942C247.593 91.9958 247.657 92.0232 247.705 92.0708C247.753 92.1184 247.782 92.1826 247.784 92.2503C247.783 92.2861 247.776 92.3215 247.761 92.3543C247.747 92.3871 247.726 92.4168 247.7 92.4415L247.327 92.8078L247.736 93.213C247.785 93.2607 247.814 93.3258 247.817 93.3945V93.3945Z" fill="#B9CBD3"/>
<path d="M249.589 92.6069C249.608 92.6273 249.623 92.6513 249.632 92.6775C249.642 92.7037 249.646 92.7315 249.644 92.7593C249.646 92.8172 249.626 92.8737 249.589 92.9181C249.569 92.9387 249.545 92.9551 249.518 92.9662C249.491 92.9773 249.463 92.983 249.434 92.9829C249.406 92.9834 249.379 92.9894 249.354 93.0005C249.329 93.0116 249.306 93.0277 249.288 93.0477C249.258 93.1044 249.244 93.1685 249.249 93.2325V93.7317C249.255 93.7957 249.247 93.8603 249.225 93.9209C249.203 93.9814 249.168 94.0364 249.123 94.0819C249.077 94.1274 249.022 94.1623 248.962 94.1841C248.901 94.2059 248.836 94.2141 248.772 94.2081H248.503C248.448 94.2088 248.393 94.1893 248.351 94.153C248.329 94.1323 248.312 94.107 248.302 94.079C248.291 94.0509 248.287 94.0209 248.289 93.991C248.287 93.9615 248.291 93.9319 248.302 93.9043C248.312 93.8768 248.329 93.8521 248.351 93.8321C248.393 93.7959 248.448 93.7763 248.503 93.777H248.552C248.587 93.7793 248.621 93.7689 248.649 93.7479C248.662 93.7326 248.671 93.7149 248.676 93.696C248.682 93.6771 248.684 93.6573 248.682 93.6377V93.1612C248.68 93.0668 248.71 92.9746 248.766 92.8986C248.813 92.831 248.883 92.7826 248.964 92.7625C248.884 92.7398 248.814 92.6906 248.766 92.6231C248.71 92.5472 248.68 92.455 248.682 92.3606V91.8938C248.684 91.8742 248.682 91.8544 248.676 91.8355C248.671 91.8166 248.662 91.799 248.649 91.7836C248.621 91.7626 248.587 91.7522 248.552 91.7545H248.503C248.448 91.7547 248.395 91.7365 248.351 91.7026C248.311 91.658 248.289 91.6003 248.289 91.5405C248.289 91.4807 248.311 91.423 248.351 91.3785C248.394 91.3434 248.448 91.325 248.503 91.3266H248.772C248.901 91.3198 249.027 91.3641 249.122 91.4498C249.166 91.4966 249.2 91.5517 249.221 91.6119C249.243 91.672 249.252 91.736 249.249 91.7998V92.3022C249.243 92.3663 249.257 92.4306 249.288 92.487C249.306 92.507 249.329 92.5231 249.354 92.5343C249.379 92.5454 249.406 92.5514 249.434 92.5518C249.49 92.5506 249.546 92.5702 249.589 92.6069V92.6069Z" fill="#B9CBD3"/>
<path fill-rule="evenodd" clip-rule="evenodd" d="M116.504 118.369C116.507 118.382 116.509 118.396 116.509 118.41C116.516 118.429 116.52 118.448 116.523 118.467L117.822 128.073C117.886 128.549 117.759 129.032 117.467 129.414C117.176 129.797 116.745 130.048 116.268 130.112L105.987 131.502C105.51 131.567 105.027 131.439 104.645 131.148C104.262 130.856 104.011 130.425 103.947 129.948L102.28 117.617C102.215 117.14 102.343 116.658 102.634 116.275C102.926 115.893 103.357 115.642 103.834 115.577L111.944 114.481C111.992 114.474 112.042 114.474 112.09 114.481C112.102 114.478 112.114 114.476 112.126 114.476C112.176 114.482 112.225 114.495 112.271 114.515L112.297 114.511C112.349 114.537 112.398 114.569 112.443 114.606L116.342 118.087L116.344 118.103C116.381 118.138 116.413 118.178 116.441 118.22C116.467 118.268 116.488 118.317 116.504 118.369ZM113.198 118.141C113.243 118.175 113.301 118.191 113.357 118.184L114.376 118.069L112.925 116.768L113.114 117.998C113.122 118.055 113.153 118.106 113.198 118.141ZM116.432 128.576C116.515 128.467 116.552 128.328 116.533 128.191L115.327 119.268L113.502 119.472C113.114 119.517 112.724 119.41 112.414 119.173C112.103 118.937 111.897 118.589 111.837 118.204L111.468 115.814L104.002 116.823C103.865 116.842 103.742 116.914 103.658 117.023C103.574 117.133 103.538 117.272 103.556 117.409L105.221 129.721C105.239 129.857 105.311 129.981 105.421 130.065C105.531 130.149 105.669 130.185 105.806 130.167L116.088 128.777C116.224 128.758 116.348 128.686 116.432 128.576ZM107.883 122.776L106.907 124.366L108.288 125.683C108.351 125.741 108.401 125.811 108.437 125.889C108.472 125.967 108.491 126.052 108.494 126.137C108.496 126.223 108.481 126.308 108.451 126.388C108.42 126.468 108.373 126.541 108.314 126.603C108.255 126.664 108.184 126.714 108.105 126.748C108.027 126.782 107.942 126.8 107.857 126.802C107.771 126.803 107.686 126.787 107.607 126.755C107.527 126.723 107.455 126.676 107.394 126.616L105.719 125.009C105.592 124.887 105.51 124.726 105.487 124.551C105.463 124.377 105.499 124.2 105.589 124.048L106.78 122.1C106.87 121.954 107.014 121.849 107.181 121.809C107.347 121.769 107.523 121.797 107.669 121.887C107.816 121.976 107.92 122.12 107.96 122.287C108 122.454 107.972 122.63 107.883 122.776ZM112.091 121.287C112.033 121.349 111.988 121.422 111.958 121.502C111.928 121.582 111.914 121.667 111.917 121.752C111.92 121.837 111.94 121.92 111.975 121.998C112.011 122.075 112.061 122.145 112.123 122.203L113.487 123.479L112.511 125.115C112.422 125.262 112.396 125.438 112.438 125.605C112.48 125.772 112.586 125.915 112.733 126.003C112.881 126.091 113.057 126.117 113.224 126.075C113.39 126.034 113.533 125.927 113.621 125.78L114.811 123.796C114.901 123.645 114.937 123.467 114.913 123.293C114.889 123.119 114.808 122.957 114.681 122.835L113.012 121.274C112.951 121.213 112.879 121.166 112.799 121.134C112.72 121.102 112.634 121.086 112.549 121.087C112.463 121.089 112.378 121.107 112.3 121.141C112.221 121.176 112.15 121.225 112.091 121.287ZM110.742 121.427C110.827 121.418 110.913 121.427 110.994 121.452C111.077 121.477 111.154 121.519 111.22 121.575C111.286 121.63 111.341 121.699 111.38 121.776C111.42 121.853 111.443 121.937 111.449 122.024C111.455 122.11 111.444 122.197 111.416 122.279L110.217 126.028C110.159 126.183 110.043 126.31 109.894 126.382C109.745 126.454 109.574 126.467 109.416 126.416C109.259 126.366 109.126 126.257 109.046 126.112C108.966 125.967 108.945 125.797 108.987 125.637L110.186 121.887C110.21 121.805 110.25 121.729 110.304 121.663C110.358 121.596 110.424 121.541 110.499 121.501C110.574 121.46 110.657 121.435 110.742 121.427Z" fill="#55CFFF"/>
<path d="M299.427 209.898C299.245 209.887 299.064 209.926 298.903 210.012C298.741 210.098 298.607 210.227 298.515 210.384L298.271 210.369C298.013 210.353 297.772 210.235 297.6 210.041C297.429 209.847 297.342 209.593 297.358 209.335L297.394 208.753L297.881 208.783C298.641 208.823 299.392 208.598 300.005 208.147C300.618 207.695 301.055 207.045 301.243 206.307C301.431 205.569 301.356 204.789 301.033 204.1C300.71 203.41 300.158 202.854 299.471 202.526C299.422 201.751 299.134 201.01 298.644 200.407C298.155 199.803 297.49 199.367 296.742 199.16C295.993 198.952 295.199 198.983 294.468 199.248C293.738 199.513 293.109 199.999 292.668 200.639C292.559 200.615 292.449 200.6 292.338 200.594C291.718 200.555 291.107 200.765 290.641 201.177C290.174 201.588 289.89 202.168 289.851 202.789C289.842 202.939 289.847 203.09 289.867 203.24C289.538 203.468 289.265 203.767 289.069 204.115C288.872 204.464 288.756 204.852 288.731 205.252C288.689 206.039 288.96 206.81 289.485 207.398C290.01 207.986 290.746 208.343 291.533 208.39L292.322 208.439L292.286 209.013C292.27 209.272 292.152 209.513 291.958 209.685C291.764 209.856 291.51 209.943 291.252 209.927L291.009 209.912C290.92 209.707 290.765 209.538 290.569 209.433C290.372 209.327 290.146 209.29 289.926 209.329C289.706 209.367 289.506 209.478 289.357 209.645C289.209 209.811 289.12 210.023 289.106 210.245C289.093 210.468 289.154 210.689 289.281 210.872C289.408 211.055 289.593 211.191 289.807 211.256C290.02 211.321 290.249 211.313 290.457 211.232C290.665 211.151 290.84 211.003 290.953 210.811L291.196 210.826C291.695 210.856 292.185 210.688 292.56 210.357C292.934 210.027 293.162 209.561 293.193 209.062L293.228 208.495L294.421 208.569L294.342 209.85C294.137 209.938 293.968 210.094 293.863 210.29C293.757 210.486 293.721 210.713 293.759 210.932C293.798 211.152 293.909 211.352 294.076 211.501C294.242 211.649 294.453 211.737 294.676 211.751C294.898 211.765 295.119 211.703 295.303 211.576C295.486 211.45 295.621 211.265 295.687 211.051C295.752 210.838 295.744 210.609 295.663 210.401C295.583 210.194 295.434 210.019 295.242 209.905L295.322 208.625L296.515 208.698L296.479 209.273C296.448 209.772 296.617 210.262 296.948 210.636C297.278 211.011 297.744 211.238 298.243 211.269L298.486 211.284C298.557 211.447 298.67 211.587 298.814 211.691C298.957 211.794 299.126 211.858 299.302 211.874C299.479 211.891 299.656 211.859 299.816 211.784C299.977 211.708 300.114 211.591 300.213 211.444C300.313 211.298 300.371 211.127 300.382 210.95C300.393 210.774 300.357 210.597 300.277 210.439C300.197 210.281 300.075 210.148 299.926 210.053C299.777 209.957 299.604 209.904 299.427 209.898V209.898ZM289.767 205.294C289.785 205.007 289.88 204.73 290.041 204.492C290.201 204.253 290.423 204.062 290.682 203.938C290.794 203.884 290.883 203.792 290.932 203.677C290.982 203.563 290.988 203.435 290.95 203.316C290.883 203.113 290.867 202.896 290.904 202.685C290.94 202.474 291.027 202.275 291.159 202.105C291.29 201.936 291.46 201.801 291.656 201.713C291.851 201.625 292.065 201.586 292.279 201.6C292.425 201.609 292.57 201.643 292.705 201.702C292.823 201.751 292.955 201.754 293.076 201.711C293.196 201.667 293.297 201.581 293.357 201.468C293.645 200.928 294.108 200.501 294.67 200.257C295.232 200.014 295.86 199.968 296.451 200.128C297.043 200.288 297.562 200.643 297.925 201.137C298.288 201.63 298.473 202.232 298.449 202.845C298.445 202.956 298.476 203.066 298.54 203.158C298.603 203.251 298.695 203.32 298.801 203.355C299.324 203.527 299.766 203.883 300.045 204.358C300.323 204.832 300.419 205.392 300.314 205.932C300.21 206.472 299.911 206.956 299.475 207.291C299.039 207.627 298.496 207.792 297.947 207.756L291.597 207.362C291.341 207.347 291.09 207.281 290.86 207.169C290.629 207.056 290.423 206.9 290.253 206.707C290.083 206.515 289.953 206.292 289.869 206.049C289.786 205.806 289.751 205.55 289.767 205.294Z" fill="#FA7E25"/>
<path d="M253 153.256L230.783 255H117.434L102 152L253 153.256Z" fill="url(#paint0_linear)"/>
<rect opacity="0.5" x="219.821" y="161.148" width="49.451" height="34.9066" rx="5.44147" fill="#C3EEF4"/>
<rect opacity="0.5" x="223.699" y="165.026" width="49.451" height="34.9066" rx="5.44147" fill="#87DDE8"/>
<path opacity="0.5" fill-rule="evenodd" clip-rule="evenodd" d="M254.988 186.377C254.862 186.275 254.72 186.194 254.568 186.137V185.059C254.568 184.917 254.512 184.78 254.411 184.679C254.309 184.578 254.172 184.521 254.03 184.521H252.249C252.461 184.091 252.612 183.633 252.696 183.161H254.269C254.412 183.161 254.549 183.104 254.65 183.003C254.751 182.902 254.808 182.765 254.808 182.622C254.808 182.479 254.751 182.342 254.65 182.241C254.549 182.14 254.412 182.083 254.269 182.083H252.788C252.8 181.584 252.758 181.084 252.664 180.594C252.648 180.508 252.626 180.421 252.605 180.338H254.03C254.172 180.338 254.309 180.281 254.411 180.18C254.512 180.079 254.568 179.942 254.568 179.799V178.708C254.72 178.65 254.862 178.569 254.988 178.466C255.219 178.277 255.389 178.023 255.476 177.737C255.563 177.451 255.563 177.146 255.477 176.86C255.39 176.574 255.221 176.32 254.99 176.131C254.759 175.941 254.478 175.824 254.18 175.794C253.783 175.756 253.387 175.876 253.078 176.128C252.769 176.38 252.572 176.744 252.529 177.141C252.495 177.472 252.57 177.804 252.744 178.088C252.918 178.371 253.181 178.589 253.491 178.708V179.247H252.112C251.667 178.608 251.018 178.138 250.272 177.914V177.022C250.272 176.879 250.216 176.742 250.115 176.641C250.013 176.54 249.876 176.484 249.734 176.484C249.591 176.484 249.454 176.54 249.353 176.641C249.252 176.742 249.195 176.879 249.195 177.022V177.706C248.961 177.674 248.721 177.65 248.478 177.636V176.19C248.478 176.047 248.422 175.91 248.321 175.809C248.22 175.708 248.083 175.651 247.94 175.651C247.797 175.651 247.66 175.708 247.559 175.809C247.458 175.91 247.401 176.047 247.401 176.19V177.631C247.19 177.631 246.968 177.663 246.743 177.695L246.743 177.695L246.685 177.704V177.022C246.685 176.879 246.628 176.742 246.527 176.641C246.426 176.54 246.289 176.484 246.146 176.484C246.003 176.484 245.866 176.54 245.765 176.641C245.664 176.742 245.607 176.879 245.607 177.022V177.97C245.372 178.052 245.146 178.159 244.934 178.288C244.455 178.591 244.065 179.014 243.803 179.516H242.389V178.978C242.635 178.887 242.852 178.733 243.019 178.531C243.208 178.3 243.325 178.017 243.354 177.72C243.383 177.423 243.323 177.123 243.182 176.86C243.041 176.597 242.825 176.381 242.562 176.24C242.298 176.099 241.999 176.04 241.702 176.069C241.404 176.099 241.122 176.216 240.891 176.405C240.66 176.595 240.491 176.848 240.404 177.134C240.317 177.42 240.317 177.725 240.404 178.011C240.491 178.297 240.66 178.551 240.891 178.741C241.018 178.842 241.16 178.924 241.311 178.983V180.06C241.311 180.203 241.368 180.34 241.469 180.441C241.57 180.542 241.707 180.599 241.85 180.599H243.404C243.295 181.084 243.248 181.581 243.264 182.078C243.264 182.164 243.264 182.25 243.277 182.347H241.618C241.475 182.347 241.338 182.404 241.237 182.505C241.136 182.606 241.08 182.743 241.08 182.886C241.08 183.029 241.136 183.166 241.237 183.267C241.338 183.368 241.475 183.425 241.618 183.425H243.436C243.549 183.898 243.73 184.351 243.975 184.771H241.85C241.707 184.771 241.57 184.828 241.469 184.929C241.368 185.03 241.311 185.167 241.311 185.31V186.387C240.994 186.51 240.728 186.736 240.555 187.029C240.383 187.322 240.313 187.664 240.359 188.001C240.404 188.338 240.562 188.649 240.806 188.886C241.05 189.122 241.366 189.27 241.705 189.304H241.855C242.141 189.303 242.421 189.222 242.662 189.068C242.904 188.915 243.096 188.696 243.218 188.437C243.34 188.179 243.386 187.891 243.351 187.607C243.315 187.323 243.2 187.055 243.019 186.834C242.852 186.632 242.635 186.478 242.389 186.387V185.849H244.842C244.877 185.853 244.913 185.853 244.947 185.849C245.781 186.371 246.732 186.677 247.714 186.737V187.405C247.714 187.599 247.79 187.784 247.926 187.921C248.063 188.057 248.248 188.135 248.441 188.135H248.508C248.658 188.122 248.8 188.062 248.915 187.966C249.346 187.597 249.911 187.106 250.466 186.589L250.703 186.371C250.973 186.129 251.242 185.878 251.484 185.612H253.491V186.15C253.183 186.266 252.922 186.48 252.746 186.758C252.571 187.036 252.491 187.363 252.519 187.691C252.555 188.064 252.729 188.411 253.007 188.663C253.285 188.915 253.646 189.056 254.022 189.056C254.071 189.059 254.12 189.059 254.17 189.056C254.467 189.027 254.749 188.91 254.979 188.72C255.21 188.53 255.379 188.276 255.466 187.99C255.552 187.704 255.552 187.399 255.465 187.113C255.378 186.828 255.209 186.574 254.978 186.385L254.988 186.377ZM254.07 176.877C254.127 176.882 254.182 176.899 254.232 176.926C254.283 176.952 254.327 176.989 254.364 177.033C254.402 177.078 254.43 177.131 254.447 177.187C254.463 177.244 254.468 177.303 254.461 177.362C254.451 177.465 254.405 177.562 254.33 177.634C254.254 177.706 254.155 177.748 254.051 177.752H253.987C253.872 177.741 253.766 177.685 253.693 177.596C253.62 177.507 253.585 177.393 253.596 177.278C253.607 177.164 253.663 177.058 253.752 176.985C253.841 176.911 253.955 176.877 254.07 176.888V176.877ZM241.516 177.284C241.552 177.239 241.597 177.203 241.647 177.176C241.698 177.149 241.753 177.133 241.81 177.127H241.853C241.951 177.129 242.046 177.164 242.122 177.227C242.212 177.299 242.27 177.403 242.284 177.518C242.294 177.632 242.26 177.747 242.187 177.836C242.151 177.88 242.106 177.917 242.056 177.944C242.006 177.971 241.95 177.987 241.893 177.992H241.877H241.828C241.736 177.989 241.647 177.955 241.575 177.895C241.531 177.859 241.495 177.815 241.468 177.765C241.441 177.715 241.425 177.66 241.419 177.604C241.409 177.489 241.443 177.374 241.516 177.284ZM242.284 187.839C242.275 187.921 242.243 188 242.192 188.064C242.141 188.129 242.072 188.178 241.994 188.205C241.915 188.232 241.831 188.236 241.75 188.217C241.67 188.197 241.597 188.155 241.539 188.096C241.482 188.036 241.443 187.961 241.427 187.88C241.411 187.799 241.418 187.715 241.448 187.637C241.478 187.56 241.53 187.493 241.597 187.445C241.664 187.396 241.743 187.367 241.826 187.362H241.893C242.008 187.375 242.113 187.431 242.186 187.521C242.259 187.61 242.294 187.724 242.284 187.839ZM249.976 185.555L249.731 185.779C249.41 186.078 249.087 186.366 248.791 186.627V186.296C248.791 186.212 248.774 186.13 248.743 186.052C248.711 185.975 248.664 185.905 248.605 185.846C248.546 185.787 248.476 185.74 248.399 185.708C248.321 185.677 248.239 185.66 248.155 185.66C247.199 185.66 245.866 185.331 245.281 184.723C244.549 183.961 244.366 182.837 244.341 182.029C244.317 181.221 244.438 179.861 245.516 179.204C246.054 178.875 246.897 178.698 247.924 178.698C248.497 178.696 249.069 178.752 249.631 178.865C250.123 178.94 250.58 179.167 250.936 179.514C251.293 179.862 251.533 180.311 251.622 180.801C251.832 181.879 251.797 183.381 251.064 184.427C250.742 184.84 250.377 185.218 249.976 185.555ZM254.364 187.82C254.31 187.887 254.238 187.935 254.156 187.961C254.075 187.986 253.987 187.987 253.906 187.963C253.824 187.94 253.75 187.892 253.695 187.827C253.64 187.762 253.606 187.681 253.596 187.597C253.59 187.54 253.596 187.483 253.613 187.428C253.629 187.373 253.657 187.323 253.693 187.279C253.729 187.235 253.774 187.198 253.824 187.171C253.875 187.145 253.93 187.128 253.987 187.123H254.051C254.144 187.127 254.232 187.161 254.304 187.22C254.349 187.256 254.385 187.3 254.412 187.351C254.439 187.401 254.455 187.456 254.461 187.513C254.47 187.624 254.435 187.735 254.364 187.82ZM248.788 180.642H247.274C247.016 180.642 246.768 180.745 246.585 180.928C246.402 181.111 246.299 181.359 246.299 181.617V183.131C246.302 183.388 246.406 183.633 246.589 183.814C246.771 183.994 247.018 184.095 247.274 184.095H248.788C249.047 184.095 249.295 183.993 249.478 183.81C249.66 183.627 249.763 183.379 249.763 183.12V181.617C249.763 181.359 249.66 181.111 249.478 180.928C249.295 180.745 249.047 180.642 248.788 180.642ZM248.82 183.131C248.82 183.14 248.817 183.148 248.811 183.154C248.805 183.16 248.797 183.164 248.788 183.164H247.274C247.266 183.164 247.258 183.16 247.252 183.154C247.245 183.148 247.242 183.14 247.242 183.131V181.617C247.242 181.609 247.245 181.601 247.252 181.595C247.258 181.589 247.266 181.585 247.274 181.585H248.788C248.797 181.585 248.805 181.589 248.811 181.595C248.817 181.601 248.82 181.609 248.82 181.617V183.131ZM247.858 181.963C247.914 181.944 247.973 181.936 248.031 181.941C248.138 181.949 248.238 181.998 248.31 182.076C248.383 182.155 248.423 182.258 248.423 182.365C248.423 182.472 248.383 182.575 248.31 182.654C248.238 182.732 248.138 182.781 248.031 182.789C247.973 182.794 247.914 182.786 247.858 182.767C247.803 182.748 247.752 182.717 247.709 182.678C247.666 182.638 247.631 182.589 247.608 182.536C247.584 182.482 247.572 182.424 247.572 182.365C247.572 182.306 247.584 182.248 247.608 182.194C247.631 182.141 247.666 182.092 247.709 182.052C247.752 182.012 247.803 181.982 247.858 181.963Z" fill="white"/>
<g opacity="0.8" filter="url(#filter0_f)">
<path d="M247.725 274.598C247.725 272.213 253.175 270.283 259.904 270.283C266.633 270.283 272.082 272.222 272.082 274.598C272.082 276.974 266.623 278.923 259.904 278.923C253.184 278.923 247.725 276.993 247.725 274.598Z" fill="#D2DFE6"/>
</g>
<path d="M272.207 249.194C272.207 251.618 266.71 253.576 259.922 253.576C253.135 253.576 247.647 251.637 247.647 249.194C247.647 246.75 253.145 244.811 259.922 244.811C266.7 244.811 272.207 246.77 272.207 249.194Z" fill="#F66689"/>
<path d="M272.354 251.404C272.354 252.956 272.412 267.646 272.354 269.013C272.102 273.618 270.356 277.381 259.991 277.381C249.228 277.381 247.764 273.357 247.609 268.47C247.609 267.258 247.609 252.752 247.609 251.404C247.609 244.617 247.871 252.18 259.991 252.18C272.111 252.18 272.354 244.627 272.354 251.404Z" fill="#F66689"/>
<path d="M271.084 249.087C271.084 251.133 266.109 252.791 259.962 252.791C253.815 252.791 248.84 251.133 248.84 249.087C248.84 247.041 253.824 245.373 259.962 245.373C266.1 245.373 271.084 247.041 271.084 249.087Z" fill="#C14F75"/>
<mask id="mask0" mask-type="alpha" maskUnits="userSpaceOnUse" x="248" y="245" width="24" height="8">
<path d="M271.084 249.087C271.084 251.133 266.109 252.791 259.962 252.791C253.815 252.791 248.84 251.133 248.84 249.087C248.84 247.041 253.824 245.373 259.962 245.373C266.1 245.373 271.084 247.041 271.084 249.087Z" fill="#C14F75"/>
</mask>
<g mask="url(#mask0)">
<path d="M248.637 251.327C248.637 253.188 253.611 254.701 259.749 254.701C265.886 254.701 270.861 253.188 270.861 251.327C270.861 249.465 265.886 247.952 259.749 247.952C253.611 247.952 248.637 249.484 248.637 251.327Z" fill="#594339"/>
</g>
<path d="M272.325 270.603C271.39 270.608 270.461 270.464 269.571 270.176L270.638 266.976C270.997 267.093 274.274 268.053 275.651 265.386C277.59 261.663 277.27 256.088 276.019 254.972C275.713 254.659 275.318 254.448 274.888 254.369C274.457 254.289 274.013 254.344 273.615 254.526C273.12 254.724 272.664 255.006 272.267 255.36L269.901 252.956C270.629 252.272 271.481 251.735 272.412 251.375C273.384 250.98 274.449 250.872 275.48 251.065C276.512 251.257 277.466 251.742 278.23 252.461C280.092 254.119 280.363 257.309 280.363 259.113C280.384 261.818 279.783 264.491 278.608 266.928C278.018 268.074 277.114 269.028 276.001 269.679C274.888 270.33 273.613 270.65 272.325 270.603V270.603Z" fill="#F66689"/>
<path opacity="0.08" d="M259.72 249.969C259.72 249.969 256.976 246.886 256.471 246.469C255.198 245.524 253.986 244.497 252.845 243.395C252.627 243.158 252.435 242.898 252.273 242.62C252.116 242.365 252.014 242.081 251.972 241.786C251.928 241.477 251.968 241.162 252.089 240.874C252.221 240.561 252.423 240.283 252.68 240.06C253.426 239.448 254.282 238.984 255.201 238.693C256.732 238.16 258.301 237.742 259.894 237.442C260.623 237.296 261.339 237.095 262.037 236.841C262.41 236.71 262.758 236.517 263.065 236.268C263.124 236.22 263.173 236.16 263.21 236.094C263.215 236.075 263.215 236.055 263.21 236.036C263.21 236.036 263.21 236.036 263.21 235.978C263.182 235.918 263.146 235.863 263.104 235.813C262.643 235.382 262.098 235.052 261.504 234.843C260.731 234.533 259.924 234.318 259.099 234.203C257.851 234.049 256.62 233.777 255.424 233.389C254.609 233.131 253.861 232.698 253.233 232.118C252.983 231.871 252.782 231.578 252.641 231.255C252.506 230.95 252.44 230.619 252.447 230.286C252.48 229.651 252.714 229.043 253.116 228.55C253.977 227.532 255.091 226.76 256.345 226.31C256.847 226.11 257.366 225.958 257.897 225.855L258.285 225.806C258.973 225.806 260.224 225.806 259.914 226.776C259.681 227.513 259.225 227.503 258.508 227.619L258.226 227.668C257.811 227.743 257.402 227.854 257.005 227.998C256.059 228.324 255.206 228.877 254.522 229.607C254.352 229.81 254.238 230.054 254.193 230.315C254.189 230.402 254.206 230.488 254.241 230.567C254.291 230.695 254.367 230.81 254.464 230.906C254.906 231.309 255.428 231.614 255.996 231.798C258.052 232.574 260.03 232.555 262.095 233.437C262.922 233.76 263.66 234.275 264.248 234.94C264.378 235.103 264.479 235.286 264.548 235.483C264.633 235.692 264.666 235.918 264.645 236.142C264.631 236.375 264.562 236.601 264.442 236.802C264.32 237.003 264.166 237.183 263.986 237.335C263.543 237.679 263.045 237.945 262.512 238.12C261.737 238.377 260.943 238.571 260.137 238.702C258.594 238.961 257.069 239.314 255.57 239.759C254.776 239.983 254.028 240.344 253.359 240.826C253.205 240.949 253.077 241.1 252.981 241.272C252.925 241.4 252.901 241.54 252.913 241.679C252.934 241.859 252.99 242.034 253.078 242.193C253.197 242.421 253.34 242.635 253.504 242.833C254.565 243.959 255.692 245.021 256.879 246.013C257.373 246.479 260.02 249.165 259.72 249.969Z" fill="black"/>
<path opacity="0.08" d="M263.482 249.814C263.482 249.814 263.482 249.659 263.53 249.64C263.577 249.236 263.513 248.827 263.346 248.457C263.172 248.112 262.932 247.806 262.638 247.555C261.895 246.986 261.092 246.498 260.243 246.101C259.35 245.694 258.515 245.169 257.761 244.54C257.42 244.239 257.151 243.864 256.976 243.444C256.801 242.986 256.764 242.487 256.869 242.009C256.921 241.741 257.045 241.493 257.228 241.291C257.416 241.084 257.635 240.907 257.878 240.768C258.455 240.459 259.072 240.227 259.71 240.079C261.184 239.721 262.619 239.517 264.161 239.216C264.763 239.105 265.353 238.94 265.925 238.722C266.117 238.646 266.299 238.549 266.468 238.431C266.574 238.363 266.661 238.27 266.721 238.159C266.765 238.083 266.782 237.994 266.769 237.907C266.737 237.74 266.671 237.582 266.575 237.442C266.362 237.128 266.115 236.839 265.838 236.579C265.538 236.288 264.936 235.803 265.285 235.377C265.635 234.95 266.352 235.541 266.653 235.823C267 236.15 267.303 236.522 267.554 236.928C267.725 237.194 267.831 237.496 267.865 237.81C267.894 238.1 267.833 238.391 267.69 238.644C267.545 238.884 267.35 239.089 267.118 239.245C266.871 239.405 266.608 239.538 266.333 239.643C265.703 239.868 265.054 240.037 264.393 240.147C262.91 240.409 261.426 240.574 259.953 240.894C259.39 241 258.846 241.183 258.333 241.437C258.159 241.522 258.002 241.637 257.868 241.776C257.768 241.88 257.695 242.006 257.655 242.145C257.557 242.494 257.557 242.862 257.655 243.211C257.781 243.548 257.979 243.852 258.236 244.103C258.923 244.715 259.686 245.236 260.505 245.655C261.371 246.1 262.175 246.654 262.9 247.303C263.207 247.604 263.445 247.968 263.598 248.37C263.734 248.789 263.734 249.24 263.598 249.659V249.659C263.598 249.659 263.482 249.834 263.482 249.814Z" fill="black"/>
<g opacity="0.7" filter="url(#filter1_f)">
<path fill-rule="evenodd" clip-rule="evenodd" d="M241.153 267.322C241.153 269.196 211.85 270.716 175.703 270.716C152.066 270.716 131.356 270.066 119.852 269.092C115.861 270.364 101.139 271.308 83.5883 271.308C62.9711 271.308 46.2576 270.005 46.2576 268.399C46.2576 266.792 62.9711 265.49 83.5883 265.49C95.015 265.49 105.243 265.89 112.09 266.52C119.039 265.033 144.883 263.928 175.703 263.928C211.85 263.928 241.153 265.448 241.153 267.322Z" fill="#D2DFE6"/>
</g>
<path d="M102.67 251.692H55.8665V238.951H102.67C104.213 238.951 105.693 239.564 106.784 240.655C107.875 241.746 108.488 243.225 108.488 244.768V245.893C108.483 247.433 107.868 248.908 106.777 249.994C105.687 251.081 104.21 251.692 102.67 251.692Z" fill="#F5F8F9"/>
<path d="M54.0144 239.532H103.64C106.316 239.532 108.488 241.471 108.488 243.779V246.475C108.488 248.831 106.326 250.731 103.64 250.731H54.0144" stroke="#FF7B80" stroke-width="4.20354" stroke-miterlimit="10"/>
<path d="M107.945 237.884H61.1414V225.143H107.945C109.488 225.143 110.968 225.756 112.059 226.847C113.15 227.938 113.763 229.418 113.763 230.961V232.085C113.758 233.625 113.143 235.1 112.052 236.187C110.962 237.273 109.485 237.884 107.945 237.884Z" fill="#F5F8F9"/>
<path d="M59.2893 225.735H108.915C111.591 225.735 113.763 227.674 113.763 229.991V232.687C113.763 235.033 111.601 236.944 108.915 236.944H59.2893" stroke="#2CC3D5" stroke-width="4.20354" stroke-miterlimit="10"/>
<path d="M105.463 268.447H59.2893V252.807H105.463C107.171 252.807 108.808 253.485 110.016 254.692C111.223 255.9 111.901 257.537 111.901 259.245V262.008C111.901 263.716 111.223 265.354 110.016 266.561C108.808 267.768 107.171 268.447 105.463 268.447V268.447Z" fill="#F5F8F9"/>
<path d="M57.4373 253.514H107.063C108.397 253.565 109.657 254.142 110.565 255.12C111.474 256.098 111.958 257.397 111.911 258.731V262.047C111.958 263.381 111.474 264.68 110.565 265.657C109.657 266.635 108.397 267.213 107.063 267.263H57.4373" stroke="#517BF2" stroke-width="4.20354" stroke-miterlimit="10"/>
<path d="M233.324 196.054H117.308C116.017 196.056 114.742 196.336 113.568 196.873C112.395 197.411 111.351 198.195 110.507 199.171C109.663 200.148 109.038 201.294 108.676 202.533C108.314 203.772 108.222 205.074 108.407 206.352L116.677 263.259C116.859 264.503 117.482 265.64 118.433 266.463C119.383 267.285 120.598 267.738 121.855 267.739H228.776C230.034 267.74 231.25 267.288 232.201 266.465C233.152 265.642 233.774 264.504 233.954 263.259L242.235 206.352C242.42 205.073 242.327 203.77 241.964 202.531C241.602 201.291 240.976 200.144 240.131 199.168C239.286 198.191 238.241 197.408 237.066 196.87C235.892 196.333 234.615 196.055 233.324 196.054Z" fill="#F5F8F9"/>
<path d="M185.131 231.46C184.86 230.006 184.144 228.669 183.081 227.632C182.018 226.594 180.659 225.905 179.188 225.659C177.795 225.385 176.378 225.248 174.958 225.25C172.756 225.164 170.569 225.649 168.612 226.656C166.18 228.093 164.974 230.915 165.123 234.607C165.086 237.248 166.022 239.81 167.756 241.814C169.406 243.524 172.568 244.374 175.032 244.479V246.378C175.032 246.685 175.154 246.979 175.372 247.197C175.59 247.415 175.886 247.539 176.195 247.542H176.301C176.543 247.52 176.772 247.425 176.957 247.269C177.908 246.461 179.167 245.381 180.394 244.248L180.933 243.755C181.92 242.915 182.813 241.972 183.598 240.944C185.353 238.108 185.904 234.698 185.131 231.46Z" fill="#DEE8EC"/>
<defs>
<filter id="filter0_f" x="243.556" y="266.114" width="32.6954" height="16.9778" filterUnits="userSpaceOnUse" color-interpolation-filters="sRGB">
<feFlood flood-opacity="0" result="BackgroundImageFix"/>
<feBlend mode="normal" in="SourceGraphic" in2="BackgroundImageFix" result="shape"/>
<feGaussianBlur stdDeviation="2.08459" result="effect1_foregroundBlur"/>
</filter>
<filter id="filter1_f" x="42.0884" y="259.759" width="203.234" height="15.7178" filterUnits="userSpaceOnUse" color-interpolation-filters="sRGB">
<feFlood flood-opacity="0" result="BackgroundImageFix"/>
<feBlend mode="normal" in="SourceGraphic" in2="BackgroundImageFix" result="shape"/>
<feGaussianBlur stdDeviation="2.08459" result="effect1_foregroundBlur"/>
</filter>
<linearGradient id="paint0_linear" x1="174.109" y1="277.928" x2="174.218" y2="179.32" gradientUnits="userSpaceOnUse">
<stop offset="0.108095" stop-color="#DAF2F4"/>
<stop offset="1" stop-color="#DAF2F4" stop-opacity="0"/>
</linearGradient>
</defs>
</svg>
