<svg width="332" height="338" viewBox="0 0 332 338" fill="none" xmlns="http://www.w3.org/2000/svg">
<rect opacity="0.2" x="54.7616" y="3.29004" width="53.6825" height="37.5777" rx="3.87795" fill="#87DDE8"/>
<rect opacity="0.2" x="57.8292" y="7.12451" width="53.6825" height="37.5777" rx="3.87795" fill="#87DDE8"/>
<rect x="52.4609" y="0.222168" width="53.6825" height="37.5777" rx="3.87795" fill="#F8FBFB"/>
<path d="M52.4609 4.10012C52.4609 1.95838 54.1972 0.222168 56.3389 0.222168H102.265C104.407 0.222168 106.143 1.95838 106.143 4.10012V8.65799H52.4609V4.10012Z" fill="#343C4C"/>
<circle cx="58.2128" cy="4.44038" r="1.15034" fill="#FF5A60"/>
<circle cx="61.2803" cy="4.44038" r="1.15034" fill="#F9B42F"/>
<circle cx="64.3478" cy="4.44038" r="1.15034" fill="#4DCB7B"/>
<path d="M77.413 17.0378V21.3773" stroke="#DEE8EC" stroke-width="1.37147"/>
<path d="M77.413 24.0894V29.5137" stroke="#DEE8EC" stroke-width="1.37147"/>
<rect x="69.8189" y="12.156" width="16.2731" height="5.42436" rx="1.64576" fill="#E7EEF1"/>
<rect x="69.8189" y="19.7498" width="16.2731" height="5.42436" rx="1.64576" fill="#E7EEF1"/>
<rect x="69.8189" y="27.344" width="16.2731" height="5.42436" rx="1.64576" fill="#E7EEF1"/>
<rect x="55.7156" y="27.344" width="11.9336" height="5.42436" rx="1.64576" fill="#E7EEF1"/>
<path d="M61.6824 18.6652V14.3257H71.4463" stroke="#DEE8EC" stroke-width="1.37147" stroke-linejoin="round"/>
<rect x="55.7156" y="17.5801" width="11.9336" height="7.59411" rx="1.64576" fill="#E7EEF1"/>
<path d="M100.994 14.3257H90.7181C89.9607 14.3257 89.3467 14.9397 89.3467 15.6972V30.3122C89.3467 31.0696 89.9607 31.6836 90.7182 31.6836H100.994C101.751 31.6836 102.365 31.0696 102.365 30.3122V15.6972C102.365 14.9397 101.751 14.3257 100.994 14.3257Z" fill="white"/>
<path d="M89.3467 14.6122C89.3467 13.8547 89.9607 13.2407 90.7181 13.2407H100.994C101.751 13.2407 102.365 13.8548 102.365 14.6122V15.4105H89.3467V14.6122Z" fill="#343C4C"/>
<path d="M89.3467 28.429H102.365" stroke="#F5F8F9" stroke-width="0.274294"/>
<path d="M93.6862 25.1742C93.6862 24.5751 94.1719 24.0894 94.771 24.0894H100.194C100.794 24.0894 101.28 24.5755 101.28 25.1753V26.0781C101.28 26.1781 101.199 26.2591 101.099 26.2591H94.771C94.1719 26.2591 93.6862 25.7734 93.6862 25.1742V25.1742Z" fill="#E7EEF1"/>
<path d="M98.0256 21.9196C98.0256 21.3204 97.5399 20.8347 96.9408 20.8347H91.5174C90.9177 20.8347 90.4315 21.3209 90.4315 21.9206V22.8235C90.4315 22.9234 90.5126 23.0045 90.6125 23.0045H96.9408C97.5399 23.0045 98.0256 22.5187 98.0256 21.9196V21.9196Z" fill="#2CC3D5"/>
<path opacity="0.3" d="M246.767 203.28C243.587 178.266 248.366 156.183 280.797 108.323C326.627 40.7252 239.036 -5.73465 190.626 19.2086C142.216 44.1519 155.525 81.2648 69.0714 111.505C-48.6749 152.666 75.0881 260.291 129.755 294.178C194.974 334.584 260.994 315.715 246.767 203.28Z" fill="#87DDE8"/>
<path d="M119 149.5C119 149.5 92.0372 212.542 86.3525 232.396C82.2083 246.846 86.9817 258.172 108.82 258.172" stroke="#CB8591" stroke-width="28" stroke-linecap="round" stroke-linejoin="round"/>
<path d="M118.41 151.03C118.41 151.03 113.051 161.434 106.65 177.555" stroke="#F66689" stroke-width="32" stroke-linecap="round" stroke-linejoin="round"/>
<path d="M220 149C220 149 244.69 211.251 249.843 231.224C255.05 251.478 243.192 258.346 221.354 258.346" stroke="#CB8591" stroke-width="28" stroke-linecap="round" stroke-linejoin="round"/>
<path d="M220.985 151.236C220.985 151.236 226.344 161.651 232.745 177.772" stroke="#F66689" stroke-width="32" stroke-linecap="round" stroke-linejoin="round"/>
<path d="M226.833 271.451V139.097V137.035C226.833 133.683 201.403 130.96 170.029 130.96C138.654 130.96 113.214 133.672 113.214 137.035V139.097V271.451H226.833Z" fill="#F66689"/>
<path d="M223.871 268.186H227.57V202.247C227.042 194.135 225.888 186.076 224.12 178.141C224.12 178.141 224.782 233.036 223.871 268.186Z" fill="#F56D73"/>
<path d="M115.199 264.562C114.863 231.842 116.588 181.396 116.588 181.396C113.366 186.451 111.044 199.47 111.044 199.47L111.098 264.562H115.199Z" fill="#F56D73"/>
<path d="M168.07 146.029C174.092 146.029 178.973 142.007 178.973 137.046C178.973 132.085 174.092 128.063 168.07 128.063C162.049 128.063 157.167 132.085 157.167 137.046C157.167 142.007 162.049 146.029 168.07 146.029Z" fill="#CB8591"/>
<path d="M168.07 129.148C173.495 129.148 177.834 132.696 177.834 137.046C177.834 141.397 173.43 144.955 168.07 144.955C162.711 144.955 158.241 141.407 158.241 137.046C158.241 132.685 162.646 129.148 168.07 129.148ZM168.07 128.063C162.038 128.063 157.156 132.088 157.156 137.046C157.156 142.004 162.038 146.04 168.07 146.04C174.102 146.04 178.919 142.015 178.919 137.046C178.919 132.078 174.037 128.063 168.07 128.063V128.063Z" fill="white"/>
<path d="M168.949 117.073H167.181C164.784 117.081 162.394 116.826 160.053 116.314V136.927C160.052 137.871 160.236 138.806 160.597 139.678C160.957 140.551 161.486 141.344 162.153 142.012C162.82 142.68 163.612 143.21 164.484 143.572C165.356 143.933 166.291 144.119 167.235 144.119H168.895C169.842 144.125 170.782 143.943 171.659 143.584C172.536 143.225 173.333 142.696 174.005 142.027C174.677 141.359 175.209 140.564 175.572 139.688C175.935 138.813 176.121 137.874 176.12 136.927V116.314C173.764 116.824 171.36 117.079 168.949 117.073V117.073Z" fill="#CB8591"/>
<path d="M160.075 123.908V129.853C160.075 129.853 161.8 126.913 168.092 126.881C174.384 126.848 176.098 130.135 176.098 130.135V122.997L160.075 122.704V123.908Z" fill="#A8747D"/>
<path d="M133.81 69.936V85.1893C132.448 85.1665 131.149 84.6087 130.195 83.6363C129.241 82.6639 128.708 81.3551 128.711 79.9928V75.0892C128.722 73.7352 129.261 72.4391 130.214 71.4766C131.166 70.5142 132.456 69.9614 133.81 69.936V69.936Z" fill="#CB8591"/>
<path d="M207.386 75.0892V79.9494C207.389 81.3117 206.856 82.6205 205.902 83.5929C204.948 84.5653 203.649 85.1231 202.287 85.1459V69.936C203.641 69.9614 204.931 70.5142 205.884 71.4766C206.836 72.4391 207.375 73.7352 207.386 75.0892V75.0892Z" fill="#CB8591"/>
<path d="M202.287 54.7041V90.2771C202.294 94.6571 201.437 98.9955 199.764 103.043C198.091 107.091 195.636 110.769 192.539 113.867C189.441 116.964 185.763 119.419 181.715 121.092C177.667 122.765 173.329 123.622 168.949 123.615H167.181C164.784 123.619 162.394 123.361 160.053 122.845C152.62 121.224 145.965 117.11 141.191 111.186C136.418 105.263 133.814 97.8848 133.81 90.2771V54.7041C133.81 50.3234 134.673 45.9855 136.351 41.9386C138.028 37.8918 140.487 34.2151 143.586 31.119C146.685 28.0228 150.364 25.5678 154.413 23.8944C158.461 22.2209 162.8 21.3617 167.181 21.366H168.949C177.791 21.366 186.271 24.8784 192.523 31.1305C198.775 37.3826 202.287 45.8623 202.287 54.7041V54.7041Z" fill="#CB8591"/>
<path d="M168.526 61.3653C166.801 62.4501 162.613 62.7105 157.601 63.0685C152.589 63.4265 150.615 61.6148 146.85 63.2529C143.086 64.8911 135.275 64.8368 130.686 61.0832C127.666 58.4102 125.277 55.1016 123.688 51.3953C119.62 38.9626 134.352 31.8242 134.352 31.8242C134.352 31.8242 134.949 20.7476 148.456 21.8217C148.456 21.8217 150.409 22.158 151.862 17.9161C153.316 13.6743 175.404 2.40243 188.379 17.9487C188.379 17.9487 192.578 25.955 195.669 25.4668C198.761 24.9786 223.431 30.978 214.709 54.2485C213.201 58.2734 205.759 71.422 185.699 60.595C185.699 60.595 175.795 56.6461 168.526 61.3653Z" fill="#2C2A46"/>
<path opacity="0.2" d="M145.744 62.1788C146.753 62.0703 135.86 67.4947 133.81 79.6561V59.1846H138.92L145.744 62.1788Z" fill="#2C2A46"/>
<path d="M133.843 65.3254H137.065" stroke="#2C2A46" stroke-width="2.0572" stroke-linecap="round" stroke-linejoin="round"/>
<path d="M133.843 68.8945H137.065" stroke="#2C2A46" stroke-width="2.0572" stroke-linecap="round" stroke-linejoin="round"/>
<path opacity="0.2" d="M190.299 62.1788C189.345 62.0269 200.226 67.5381 202.233 79.6561V59.1846H197.123L190.299 62.1788Z" fill="#2C2A46"/>
<path d="M202.255 65.3254H199.033" stroke="#2C2A46" stroke-width="2.0572" stroke-linecap="round" stroke-linejoin="round"/>
<path d="M202.255 68.8945H199.033" stroke="#2C2A46" stroke-width="2.0572" stroke-linecap="round" stroke-linejoin="round"/>
<path fill-rule="evenodd" clip-rule="evenodd" d="M188.936 101.702C185.246 101.702 181.638 100.608 178.569 98.5574C175.5 96.5068 173.108 93.5923 171.696 90.1824C171.193 88.9696 170.823 87.7134 170.586 86.4353H165.543C164.861 90.1228 163.078 93.5478 160.389 96.2367C156.889 99.7364 152.143 101.703 147.193 101.703C143.502 101.703 139.894 100.608 136.826 98.5575C133.757 96.507 131.365 93.5924 129.952 90.1825C128.54 86.7726 128.17 83.0204 128.89 79.4005C129.61 75.7805 131.388 72.4554 133.998 69.8455C136.608 67.2357 139.933 65.4584 143.553 64.7383C147.173 64.0183 150.925 64.3878 154.335 65.8003C157.745 67.2127 160.659 69.6046 162.71 72.6734C164.76 75.7423 165.855 79.3503 165.855 83.0411C165.855 83.5177 165.836 83.9924 165.8 84.4642H170.329C170.201 82.7793 170.3 81.0757 170.634 79.4004C171.354 75.7804 173.131 72.4553 175.741 69.8454C178.351 67.2356 181.676 65.4583 185.296 64.7382C188.916 64.0182 192.668 64.3877 196.078 65.8002C199.488 67.2126 202.402 69.6045 204.453 72.6733C206.503 75.7422 207.598 79.3502 207.598 83.041C207.598 87.9903 205.632 92.7369 202.132 96.2366C198.632 99.7363 193.886 101.702 188.936 101.702ZM188.936 66.3508C185.635 66.3508 182.409 67.3296 179.664 69.1636C176.919 70.9975 174.78 73.6042 173.517 76.6539C172.253 79.7037 171.923 83.0595 172.567 86.2971C173.211 89.5347 174.8 92.5086 177.135 94.8428C179.469 97.177 182.443 98.7666 185.68 99.4106C188.918 100.055 192.274 99.7241 195.324 98.4608C198.373 97.1976 200.98 95.0583 202.814 92.3136C204.648 89.5689 205.627 86.342 205.627 83.041C205.628 80.8477 205.198 78.6755 204.36 76.6486C203.522 74.6216 202.293 72.7796 200.743 71.2276C199.193 69.6756 197.353 68.444 195.327 67.6032C193.301 66.7625 191.13 66.329 188.936 66.3274V66.3508ZM147.193 66.3509C143.893 66.3532 140.667 67.334 137.924 69.1693C135.181 71.0047 133.043 73.6122 131.782 76.6621C130.52 79.7121 130.191 83.0676 130.837 86.3044C131.482 89.5412 133.073 92.514 135.407 94.847C137.742 97.1801 140.716 98.7685 143.953 99.4115C147.19 100.055 150.546 99.7234 153.595 98.4598C156.644 97.1962 159.25 95.057 161.083 92.3125C162.917 89.5681 163.895 86.3417 163.895 83.0411C163.895 78.6104 162.136 74.361 159.004 71.227C155.872 68.0929 151.624 66.3306 147.193 66.3275V66.3509Z" fill="#F9B42F"/>
<path d="M255.842 250.602V250.786C255.837 250.725 255.837 250.663 255.842 250.602V250.602Z" fill="#F8F7EF"/>
<path d="M255.332 103.285C255.931 103.285 256.417 102.799 256.417 102.2C256.417 101.601 255.931 101.115 255.332 101.115C254.733 101.115 254.247 101.601 254.247 102.2C254.247 102.799 254.733 103.285 255.332 103.285Z" fill="#87DDE8"/>
<path d="M230.38 75.0784C230.979 75.0784 231.465 74.5927 231.465 73.9936C231.465 73.3944 230.979 72.9087 230.38 72.9087C229.781 72.9087 229.295 73.3944 229.295 73.9936C229.295 74.5927 229.781 75.0784 230.38 75.0784Z" fill="#87DDE8"/>
<path d="M75.2433 134.746C75.8425 134.746 76.3282 134.26 76.3282 133.661C76.3282 133.062 75.8425 132.576 75.2433 132.576C74.6442 132.576 74.1584 133.062 74.1584 133.661C74.1584 134.26 74.6442 134.746 75.2433 134.746Z" fill="#87DDE8"/>
<path d="M272.69 175.972C273.289 175.972 273.775 175.486 273.775 174.887C273.775 174.288 273.289 173.802 272.69 173.802C272.091 173.802 271.605 174.288 271.605 174.887C271.605 175.486 272.091 175.972 272.69 175.972Z" fill="#E7EEF1"/>
<path d="M328.019 36.0228C328.618 36.0228 329.103 35.5371 329.103 34.9379C329.103 34.3387 328.618 33.853 328.019 33.853C327.419 33.853 326.934 34.3387 326.934 34.9379C326.934 35.5371 327.419 36.0228 328.019 36.0228Z" fill="#E7EEF1"/>
<path d="M247.738 139.086C248.337 139.086 248.823 138.6 248.823 138.001C248.823 137.402 248.337 136.916 247.738 136.916C247.139 136.916 246.653 137.402 246.653 138.001C246.653 138.6 247.139 139.086 247.738 139.086Z" fill="#87DDE8"/>
<path d="M282.454 168.378C283.053 168.378 283.539 167.892 283.539 167.293C283.539 166.693 283.053 166.208 282.454 166.208C281.855 166.208 281.369 166.693 281.369 167.293C281.369 167.892 281.855 168.378 282.454 168.378Z" fill="#87DDE8"/>
<path d="M105.62 49.0416C106.219 49.0416 106.705 48.5559 106.705 47.9567C106.705 47.3575 106.219 46.8718 105.62 46.8718C105.021 46.8718 104.535 47.3575 104.535 47.9567C104.535 48.5559 105.021 49.0416 105.62 49.0416Z" fill="#2CC3D5"/>
<path d="M319.34 23.0048C320.538 23.0048 321.509 22.0334 321.509 20.835C321.509 19.6367 320.538 18.6653 319.34 18.6653C318.141 18.6653 317.17 19.6367 317.17 20.835C317.17 22.0334 318.141 23.0048 319.34 23.0048Z" stroke="#E7EEF1" stroke-width="0.548588" stroke-linecap="round" stroke-linejoin="round"/>
<path d="M283.539 154.274C285.336 154.274 286.793 152.817 286.793 151.02C286.793 149.222 285.336 147.765 283.539 147.765C281.741 147.765 280.284 149.222 280.284 151.02C280.284 152.817 281.741 154.274 283.539 154.274Z" stroke="#87DDE8" stroke-width="0.548588" stroke-linecap="round" stroke-linejoin="round"/>
<path d="M112.129 52.296C113.327 52.296 114.299 51.3246 114.299 50.1263C114.299 48.928 113.327 47.9565 112.129 47.9565C110.931 47.9565 109.959 48.928 109.959 50.1263C109.959 51.3246 110.931 52.296 112.129 52.296Z" stroke="#87DDE8" stroke-width="0.548588" stroke-linecap="round" stroke-linejoin="round"/>
<path d="M229.694 66.3286L227.553 63.9743C227.137 63.5161 226.428 63.4825 225.97 63.899L223.615 66.0398C223.157 66.4564 223.124 67.1654 223.54 67.6235L225.681 69.9779C226.098 70.436 226.807 70.4697 227.265 70.0531L229.619 67.9123C230.077 67.4958 230.111 66.7867 229.694 66.3286Z" stroke="#87DDE8" stroke-width="0.685735" stroke-linecap="round" stroke-linejoin="round"/>
<path d="M122.292 18.5945L120.151 16.2401C119.735 15.782 119.026 15.7483 118.567 16.1649L116.213 18.3057C115.755 18.7222 115.721 19.4313 116.138 19.8894L118.279 22.2437C118.695 22.7018 119.404 22.7355 119.862 22.319L122.217 20.1782C122.675 19.7616 122.708 19.0526 122.292 18.5945Z" stroke="#87DDE8" stroke-width="0.685735" stroke-linecap="round" stroke-linejoin="round"/>
<path d="M85.4063 158.543L83.2655 156.189C82.849 155.731 82.1399 155.697 81.6818 156.114L79.3275 158.254C78.8694 158.671 78.8357 159.38 79.2522 159.838L81.393 162.192C81.8096 162.651 82.5186 162.684 82.9767 162.268L85.3311 160.127C85.7892 159.71 85.8229 159.001 85.4063 158.543Z" stroke="#87DDE8" stroke-width="0.685735" stroke-linecap="round" stroke-linejoin="round"/>
<path d="M310.763 25.5517L309.05 23.6682C308.717 23.3017 308.15 23.2748 307.783 23.608L305.9 25.3207C305.533 25.6539 305.506 26.2211 305.84 26.5876L307.552 28.4711C307.886 28.8376 308.453 28.8645 308.819 28.5313L310.703 26.8187C311.069 26.4854 311.096 25.9182 310.763 25.5517Z" fill="#E7EEF1"/>
<path d="M278.217 158.991L276.504 157.108C276.171 156.741 275.604 156.714 275.237 157.047L273.354 158.76C272.987 159.093 272.96 159.661 273.294 160.027L275.006 161.911C275.339 162.277 275.907 162.304 276.273 161.971L278.157 160.258C278.523 159.925 278.55 159.358 278.217 158.991Z" fill="#87DDE8"/>
<path d="M105.722 60.2678L104.009 58.3843C103.676 58.0178 103.109 57.9909 102.742 58.3241L100.859 60.0367C100.492 60.37 100.466 60.9372 100.799 61.3037L102.511 63.1872C102.845 63.5537 103.412 63.5806 103.778 63.2474L105.662 61.5347C106.028 61.2015 106.055 60.6342 105.722 60.2678Z" fill="#2CC3D5"/>
<path d="M97.0431 150.312L95.3304 148.428C94.9972 148.062 94.43 148.035 94.0635 148.368L92.18 150.081C91.8135 150.414 91.7866 150.981 92.1198 151.348L93.8324 153.231C94.1657 153.598 94.7329 153.625 95.0994 153.292L96.9829 151.579C97.3494 151.246 97.3763 150.678 97.0431 150.312Z" fill="#87DDE8"/>
<path d="M263 121L236.37 252H100.5L82 121H263Z" fill="url(#paint0_linear)"/>
<rect opacity="0.5" x="219.531" y="164.038" width="55.3285" height="39.0554" rx="5.48588" fill="#C3EEF4"/>
<rect opacity="0.5" x="223.871" y="168.377" width="55.3285" height="39.0554" rx="5.48588" fill="#87DDE8"/>
<rect opacity="0.5" x="65.4794" y="174.887" width="53.1588" height="37.9705" rx="5.48588" fill="#87DDE8"/>
<rect opacity="0.5" x="60.0551" y="170.547" width="55.3285" height="39.0554" rx="5.48588" fill="#C3EEF4"/>
<rect opacity="0.5" x="29.6786" y="135.831" width="41.2252" height="30.3764" rx="5.48588" fill="#87DDE8"/>
<rect opacity="0.5" x="25.3392" y="132.576" width="43.3949" height="30.3764" rx="5.48588" fill="#C3EEF4"/>
<g opacity="0.7" filter="url(#filter0_f)">
<path d="M278.115 287.714C298.486 287.714 315 286.256 315 284.459C315 282.661 298.486 281.204 278.115 281.204C257.743 281.204 241.229 282.661 241.229 284.459C241.229 286.256 257.743 287.714 278.115 287.714Z" fill="#D2DFE6"/>
</g>
<g opacity="0.7" filter="url(#filter1_f)">
<path d="M168 280.119C208.443 280.119 241.229 278.419 241.229 276.322C241.229 274.225 208.443 272.525 168 272.525C127.557 272.525 94.771 274.225 94.771 276.322C94.771 278.419 127.557 280.119 168 280.119Z" fill="#D2DFE6"/>
</g>
<path d="M233.554 196.584H103.749C102.305 196.586 100.878 196.899 99.5653 197.501C98.2525 198.102 97.0843 198.979 96.1399 200.072C95.1955 201.164 94.4969 202.447 94.0915 203.833C93.6861 205.219 93.5832 206.676 93.79 208.106L103.044 271.777C103.247 273.168 103.944 274.441 105.008 275.361C106.071 276.281 107.431 276.788 108.837 276.789H228.466C229.873 276.79 231.234 276.284 232.298 275.364C233.362 274.443 234.058 273.169 234.259 271.777L243.524 208.106C243.731 206.675 243.628 205.217 243.222 203.831C242.816 202.444 242.116 201.16 241.171 200.068C240.225 198.975 239.055 198.098 237.741 197.497C236.427 196.896 234.999 196.585 233.554 196.584Z" fill="#F5F8F9"/>
<path opacity="0.8" d="M179.634 236.198C179.33 234.571 178.529 233.076 177.339 231.915C176.15 230.754 174.63 229.983 172.984 229.708C171.426 229.401 169.84 229.248 168.251 229.25C165.787 229.154 163.34 229.696 161.152 230.823C158.43 232.431 157.081 235.588 157.247 239.72C157.206 242.674 158.254 245.541 160.193 247.783C162.039 249.696 165.577 250.647 168.334 250.764V252.889C168.334 253.232 168.471 253.562 168.714 253.806C168.958 254.05 169.289 254.188 169.636 254.191H169.754C170.024 254.167 170.281 254.061 170.488 253.886C171.552 252.982 172.961 251.774 174.333 250.506L174.937 249.954C176.04 249.014 177.04 247.959 177.918 246.809C179.881 243.636 180.498 239.821 179.634 236.198Z" fill="#D2DFE6"/>
<path d="M300.3 265.376H247.944V251.11H300.3C302.026 251.11 303.682 251.796 304.903 253.016C306.123 254.237 306.809 255.893 306.809 257.619V258.867C306.809 260.593 306.123 262.249 304.903 263.469C303.682 264.69 302.026 265.376 300.3 265.376V265.376Z" fill="#F5F8F9"/>
<path d="M245.872 251.76H301.396C304.379 251.76 306.82 253.93 306.82 256.512V259.517C306.82 262.143 304.39 264.269 301.396 264.269H245.872" stroke="#BED42B" stroke-width="4.23784" stroke-miterlimit="10"/>
<path d="M303.424 284.112H251.763V266.613H303.424C305.335 266.613 307.167 267.372 308.518 268.723C309.869 270.074 310.628 271.906 310.628 273.816V276.876C310.632 277.824 310.449 278.765 310.089 279.642C309.729 280.52 309.199 281.318 308.53 281.99C307.86 282.663 307.065 283.196 306.189 283.56C305.313 283.924 304.373 284.112 303.424 284.112V284.112Z" fill="#F5F8F9"/>
<path d="M249.691 267.404H305.182C305.922 267.431 306.649 267.603 307.322 267.911C307.995 268.218 308.6 268.656 309.104 269.198C309.608 269.74 310 270.376 310.258 271.07C310.516 271.763 310.634 272.501 310.606 273.241V276.951C310.634 277.69 310.516 278.428 310.258 279.122C310 279.816 309.608 280.452 309.104 280.994C308.6 281.536 307.995 281.973 307.322 282.281C306.649 282.589 305.922 282.761 305.182 282.788H249.691" stroke="#B97CE8" stroke-width="4.23784" stroke-miterlimit="10"/>
<path d="M96.4297 109.423L93.317 106.311C94.6095 104.832 95.2859 102.913 95.207 100.951C95.1281 98.988 94.2999 97.1303 92.8928 95.7597C91.4858 94.3891 89.6069 93.6099 87.6429 93.5825C85.6788 93.5552 83.779 94.2816 82.3343 95.6125C80.8896 96.9433 80.0099 98.7773 79.8764 100.737C79.7428 102.697 80.3655 104.633 81.6162 106.148C82.867 107.662 84.6507 108.64 86.6003 108.879C88.5499 109.119 90.5171 108.601 92.0971 107.434L95.2562 110.594C95.333 110.671 95.4244 110.733 95.5251 110.775C95.6258 110.817 95.7338 110.839 95.8429 110.839C95.9516 110.839 96.0592 110.817 96.1594 110.775C96.2596 110.733 96.3504 110.671 96.4264 110.594C96.5816 110.439 96.6692 110.229 96.6698 110.009C96.6704 109.79 96.5841 109.579 96.4297 109.423V109.423ZM81.5127 101.249C81.5127 100.056 81.8664 98.8903 82.5291 97.8986C83.1918 96.9069 84.1337 96.1341 85.2357 95.6778C86.3377 95.2215 87.5503 95.1023 88.72 95.3352C89.8898 95.5682 90.9642 96.1428 91.8073 96.9864C92.6505 97.83 93.2245 98.9047 93.4568 100.075C93.6891 101.244 93.5692 102.457 93.1123 103.559C92.6554 104.66 91.882 105.602 90.89 106.264C89.898 106.926 88.7319 107.279 87.5391 107.279C85.9407 107.276 84.4086 106.64 83.2783 105.51C82.1481 104.379 81.512 102.847 81.5094 101.249H81.5127Z" fill="#BED42B"/>
<path fill-rule="evenodd" clip-rule="evenodd" d="M269.056 128.658C269.054 128.67 269.05 128.683 269.045 128.695C269.048 128.713 269.05 128.733 269.05 128.752L266.585 137.232C266.462 137.655 266.176 138.011 265.791 138.223C265.406 138.435 264.952 138.485 264.53 138.362L255.419 135.713C255.001 135.592 254.648 135.312 254.435 134.933C254.222 134.554 254.167 134.106 254.281 133.687L257.458 122.759C257.58 122.337 257.866 121.981 258.251 121.769C258.637 121.557 259.09 121.507 259.513 121.63L266.685 123.715C266.728 123.727 266.77 123.745 266.808 123.769C266.818 123.77 266.827 123.773 266.836 123.777C266.878 123.801 266.916 123.831 266.949 123.865L266.966 123.87C267.003 123.911 267.033 123.957 267.056 124.007L269.025 128.363L269.021 128.377C269.038 128.42 269.051 128.465 269.059 128.511C269.062 128.56 269.061 128.609 269.056 128.658ZM266.377 127.242C266.402 127.288 266.444 127.322 266.494 127.337L267.388 127.619L266.657 125.993L266.359 127.092C266.345 127.142 266.351 127.196 266.377 127.242ZM265.212 137.166C265.323 137.105 265.405 137.002 265.44 136.881L267.745 128.975L266.143 128.47C265.801 128.365 265.513 128.131 265.34 127.818C265.167 127.504 265.122 127.136 265.215 126.79L265.793 124.656L259.191 122.737C259.07 122.701 258.939 122.716 258.829 122.776C258.718 122.837 258.636 122.94 258.601 123.061L255.429 133.971C255.394 134.092 255.409 134.223 255.469 134.333C255.53 134.444 255.632 134.526 255.754 134.561L264.85 137.205C264.972 137.241 265.102 137.226 265.212 137.166ZM262.248 128.507L259.185 127.617C259.035 127.573 258.908 127.471 258.832 127.334C258.757 127.196 258.739 127.035 258.782 126.884C258.826 126.734 258.928 126.607 259.065 126.531C259.203 126.456 259.365 126.438 259.515 126.481L262.578 127.372C262.728 127.416 262.855 127.517 262.931 127.655C263.006 127.792 263.024 127.954 262.98 128.104C262.937 128.255 262.835 128.382 262.697 128.457C262.56 128.533 262.398 128.551 262.248 128.507ZM264.913 130.913L258.748 129.121C258.597 129.078 258.435 129.095 258.298 129.171C258.161 129.246 258.059 129.373 258.015 129.524C257.971 129.674 257.989 129.836 258.065 129.974C258.14 130.111 258.267 130.213 258.418 130.257L264.583 132.049C264.733 132.092 264.895 132.075 265.032 131.999C265.17 131.924 265.271 131.797 265.315 131.646C265.359 131.496 265.341 131.334 265.266 131.196C265.19 131.059 265.063 130.957 264.913 130.913ZM257.983 131.752L264.148 133.544C264.298 133.588 264.425 133.69 264.501 133.827C264.576 133.965 264.594 134.127 264.55 134.277C264.507 134.428 264.405 134.555 264.267 134.63C264.13 134.706 263.968 134.724 263.818 134.68L257.653 132.888C257.502 132.844 257.375 132.742 257.3 132.605C257.224 132.467 257.206 132.306 257.25 132.155C257.294 132.004 257.396 131.877 257.533 131.802C257.671 131.726 257.832 131.709 257.983 131.752Z" fill="#F99B45"/>
<g opacity="0.5">
<path fill-rule="evenodd" clip-rule="evenodd" d="M256.008 179.859L258.391 182.306C258.511 182.43 258.578 182.597 258.577 182.77V192.675C258.577 193.026 258.437 193.363 258.189 193.612C257.94 193.861 257.603 194.001 257.251 194.001H244.734C244.382 194.001 244.045 193.861 243.797 193.612C243.548 193.363 243.408 193.026 243.408 192.675V180.983C243.408 180.631 243.548 180.294 243.797 180.045C244.045 179.797 244.382 179.657 244.734 179.657H255.531C255.62 179.657 255.708 179.675 255.79 179.709C255.872 179.744 255.946 179.795 256.008 179.859ZM254.191 184.036V180.98L247.727 180.966V184.036C247.727 184.13 247.765 184.22 247.831 184.287C247.898 184.353 247.988 184.391 248.082 184.391H253.837C253.931 184.391 254.021 184.353 254.088 184.287C254.154 184.22 254.191 184.13 254.191 184.036ZM247.727 189.618V192.675H254.191V189.618C254.191 189.524 254.154 189.434 254.088 189.367C254.021 189.301 253.931 189.264 253.837 189.264H248.082C247.988 189.264 247.898 189.301 247.831 189.367C247.765 189.434 247.727 189.524 247.727 189.618ZM255.517 192.675H257.251V183.035L255.517 181.245V184.023C255.517 184.468 255.339 184.895 255.024 185.21C254.709 185.525 254.282 185.702 253.837 185.703H248.082C247.637 185.702 247.21 185.525 246.895 185.21C246.58 184.895 246.402 184.468 246.401 184.023V180.966H244.744V192.675H246.401V189.618C246.402 189.173 246.58 188.746 246.895 188.431C247.21 188.116 247.637 187.938 248.082 187.938H253.837C254.282 187.938 254.709 188.116 255.024 188.431C255.339 188.746 255.517 189.173 255.517 189.618V192.675ZM253.45 183.878C253.326 184.003 253.157 184.072 252.982 184.072C252.806 184.072 252.637 184.003 252.513 183.878C252.388 183.754 252.319 183.585 252.319 183.41V182.12C252.319 181.944 252.388 181.776 252.513 181.651C252.637 181.527 252.806 181.457 252.982 181.457C253.157 181.457 253.326 181.527 253.45 181.651C253.575 181.776 253.645 181.944 253.645 182.12V183.41C253.645 183.585 253.575 183.754 253.45 183.878Z" fill="#F8FBFB"/>
</g>
<path opacity="0.5" fill-rule="evenodd" clip-rule="evenodd" d="M53.7167 150.372C54.5154 151.268 55.1103 152.326 55.4607 153.474C55.5261 153.682 55.5417 153.901 55.5064 154.116C55.4711 154.33 55.3857 154.533 55.2573 154.708C55.1308 154.885 54.9639 155.029 54.7703 155.127C54.5768 155.226 54.3625 155.277 54.1453 155.275H51.8209C52.012 155.569 52.1137 155.912 52.1138 156.263C52.1204 156.545 52.0571 156.824 51.9294 157.076C51.6615 157.485 51.3332 157.851 50.9557 158.161L50.7822 158.318C50.6483 158.447 50.47 158.519 50.2845 158.519C50.099 158.519 49.9206 158.447 49.7868 158.318C49.7434 158.275 49.6837 158.221 49.6159 158.161C49.2384 157.851 48.9101 157.485 48.6422 157.076C48.5146 156.824 48.4512 156.545 48.4578 156.263C48.4574 155.912 48.5603 155.568 48.7534 155.275H46.4372C46.22 155.277 46.0057 155.226 45.8121 155.127C45.6186 155.029 45.4517 154.885 45.3252 154.708C45.1968 154.533 45.1114 154.33 45.0761 154.116C45.0408 153.901 45.0564 153.682 45.1218 153.474C45.4703 152.331 46.0614 151.276 46.8549 150.383C46.8902 146.783 48.4931 144.741 49.4532 143.843C49.6776 143.63 49.9758 143.51 50.2858 143.51C50.5959 143.51 50.894 143.63 51.1185 143.843C52.0894 144.741 53.6788 146.778 53.7167 150.372ZM50.2912 157.309C50.5508 157.093 50.7806 156.843 50.9747 156.566C51.0198 156.472 51.0403 156.367 51.0344 156.263C51.0344 156.065 50.9561 155.876 50.8167 155.737C50.6774 155.598 50.4883 155.519 50.2912 155.519C50.0942 155.519 49.9051 155.598 49.7658 155.737C49.6264 155.876 49.5481 156.065 49.5481 156.263C49.5405 156.367 49.5591 156.471 49.6024 156.566C49.7981 156.843 50.0298 157.093 50.2912 157.309ZM50.2359 144.604C50.2201 144.611 50.2057 144.621 50.1936 144.633V144.635C49.5156 145.27 47.9398 147.106 47.9506 150.513V150.583C47.9537 150.632 47.9586 150.682 47.9636 150.732C47.972 150.815 47.9805 150.9 47.9805 150.985C48.0424 151.873 48.1537 152.756 48.3141 153.632C48.3189 153.655 48.3255 153.678 48.332 153.7C48.3436 153.74 48.3547 153.778 48.3547 153.816V153.854C48.3606 153.876 48.3659 153.898 48.3712 153.919C48.3781 153.948 48.385 153.975 48.3927 154.003C48.3977 154.011 48.4023 154.019 48.4063 154.028C48.4118 154.044 48.4171 154.061 48.4223 154.077C48.435 154.116 48.4471 154.153 48.4605 154.188H52.1138C52.4095 153.374 52.5885 151.261 52.6346 150.483C52.6319 147.104 51.0561 145.267 50.378 144.633C50.3659 144.621 50.3516 144.611 50.3357 144.604C50.3199 144.598 50.303 144.594 50.2858 144.594C50.2687 144.594 50.2517 144.598 50.2359 144.604ZM46.3046 154.158C46.3456 154.179 46.3911 154.19 46.4372 154.19L47.316 154.185V154.163L47.2916 154.06C47.2841 154.032 47.2775 154.003 47.2707 153.973C47.2652 153.949 47.2597 153.925 47.2536 153.9L47.2292 153.781L47.1966 153.621L47.1722 153.488C47.1693 153.469 47.1649 153.451 47.1605 153.432C47.1528 153.399 47.1451 153.366 47.1451 153.333L47.1207 153.184C47.1183 153.17 47.1154 153.155 47.1125 153.141C47.1057 153.108 47.099 153.075 47.099 153.04L47.0746 152.872C47.061 152.84 47.061 152.807 47.061 152.775C47.0258 152.514 46.9959 152.257 46.9688 152.01C46.623 152.569 46.3496 153.169 46.1552 153.797C46.1405 153.843 46.1371 153.891 46.1451 153.938C46.1531 153.986 46.1724 154.03 46.2013 154.068C46.2282 154.106 46.2636 154.136 46.3046 154.158ZM54.2779 154.158C54.3189 154.136 54.3543 154.106 54.3812 154.068C54.4075 154.031 54.4248 153.988 54.4319 153.943C54.4389 153.898 54.4355 153.852 54.4219 153.808C54.2275 153.18 53.9541 152.58 53.6082 152.021C53.5391 152.751 53.4213 153.476 53.2557 154.19H54.1453C54.1914 154.19 54.2369 154.179 54.2779 154.158ZM51.1818 150.725C50.9185 150.902 50.6086 150.997 50.2913 150.998C50.08 150.999 49.8708 150.957 49.6756 150.877C49.4803 150.796 49.3028 150.678 49.1532 150.529C49.0036 150.38 48.8848 150.203 48.8037 150.008C48.7225 149.813 48.6806 149.604 48.6802 149.393C48.6802 149.075 48.7743 148.765 48.9504 148.501C49.1266 148.237 49.3771 148.031 49.6701 147.91C49.9632 147.788 50.2858 147.756 50.5971 147.818C50.9084 147.879 51.1945 148.031 51.4192 148.255C51.644 148.479 51.7974 148.765 51.8599 149.076C51.9225 149.387 51.8915 149.71 51.7708 150.003C51.6501 150.297 51.4451 150.548 51.1818 150.725ZM50.6547 148.852C50.5474 148.78 50.4209 148.74 50.2913 148.739C50.2048 148.738 50.1191 148.755 50.039 148.787C49.959 148.82 49.8861 148.868 49.8246 148.928C49.7631 148.989 49.7142 149.061 49.6807 149.141C49.6473 149.221 49.6298 149.306 49.6295 149.393C49.6289 149.522 49.6669 149.649 49.7384 149.757C49.81 149.866 49.912 149.95 50.0315 150C50.1511 150.051 50.2829 150.064 50.4102 150.04C50.5376 150.015 50.6548 149.953 50.7471 149.862C50.8393 149.771 50.9025 149.655 50.9287 149.528C50.9548 149.401 50.9428 149.269 50.894 149.149C50.8452 149.028 50.762 148.925 50.6547 148.852Z" fill="#F8FBFB"/>
<g opacity="0.5">
<path d="M98.773 201.279H84.2598C84.1 201.279 83.9467 201.216 83.8336 201.103C83.7206 200.989 83.6571 200.836 83.6571 200.676V185.982C83.6571 185.822 83.7206 185.669 83.8336 185.556C83.9467 185.443 84.1 185.38 84.2598 185.38C84.4197 185.38 84.573 185.443 84.686 185.556C84.799 185.669 84.8625 185.822 84.8625 185.982V200.074H98.773C98.9328 200.074 99.0861 200.137 99.1992 200.25C99.3122 200.363 99.3757 200.516 99.3757 200.676C99.3757 200.836 99.3122 200.989 99.1992 201.103C99.0861 201.216 98.9328 201.279 98.773 201.279Z" fill="#F8FBFB"/>
<path opacity="0.5" d="M90.6123 197.374C90.2485 197.384 89.8909 197.278 89.5907 197.072C86.8062 194.884 85.1337 196.864 85.0704 196.952C84.9407 197.096 84.7604 197.184 84.5671 197.199C84.3737 197.214 84.1822 197.153 84.0324 197.03C83.8826 196.907 83.7859 196.731 83.7626 196.538C83.7393 196.346 83.7911 196.152 83.9072 195.996C83.9343 195.963 86.5832 192.817 90.4888 195.855C90.6877 195.948 91.3567 195.855 92.2577 194.288C93.9332 191.383 97.0613 189.52 97.1939 189.442C97.3661 189.341 97.5716 189.312 97.7652 189.362C97.9588 189.412 98.1245 189.536 98.226 189.709C98.3275 189.881 98.3565 190.086 98.3064 190.28C98.2564 190.474 98.1316 190.639 97.9593 190.741V190.741C97.9292 190.756 95.0362 192.489 93.5626 195.041C92.7851 196.388 91.9323 197.151 91.0252 197.347C90.8887 197.369 90.7505 197.378 90.6123 197.374V197.374ZM90.4858 195.849L90.5099 195.867L90.4858 195.849Z" fill="#F8FBFB"/>
<path opacity="0.8" d="M84.4647 197.214C84.3284 197.213 84.1948 197.176 84.0781 197.105C83.9614 197.035 83.866 196.934 83.802 196.814C83.738 196.694 83.7078 196.558 83.7146 196.422C83.7215 196.286 83.7651 196.155 83.8409 196.041C84.1693 195.553 87.1226 191.325 90.0096 191.325H90.0427C90.769 191.325 91.8117 191.627 92.6645 192.94C93.3606 194.019 94.102 194.595 94.8674 194.643C96.0095 194.712 96.9769 193.631 96.9769 193.622C97.0391 193.541 97.1171 193.474 97.206 193.424C97.2949 193.375 97.3929 193.344 97.4941 193.333C97.5954 193.322 97.6977 193.332 97.795 193.362C97.8923 193.392 97.9825 193.442 98.0601 193.508C98.1378 193.573 98.2013 193.654 98.2468 193.745C98.2923 193.836 98.3189 193.936 98.325 194.037C98.3311 194.139 98.3165 194.241 98.2821 194.337C98.2477 194.432 98.1943 194.52 98.125 194.595C98.0678 194.664 96.6815 196.27 94.771 196.147C93.5053 196.062 92.3601 195.261 91.4018 193.757C91.004 193.154 90.555 192.853 90.0307 192.832H90.0096C88.4305 192.832 86.1523 195.312 85.0855 196.885C85.0166 196.986 84.9241 197.069 84.8159 197.127C84.7077 197.184 84.5871 197.214 84.4647 197.214V197.214Z" fill="#F8FBFB"/>
</g>
<rect opacity="0.2" x="244.483" y="37.1082" width="75.9411" height="53.1588" rx="5.48588" fill="#87DDE8"/>
<rect opacity="0.2" x="248.823" y="42.5325" width="75.9411" height="53.1588" rx="5.48588" fill="#87DDE8"/>
<rect x="241.229" y="32.7683" width="75.9411" height="53.1588" rx="5.48588" fill="#F8FBFB"/>
<path d="M241.229 38.2542C241.229 35.2244 243.685 32.7683 246.715 32.7683H311.684C314.714 32.7683 317.17 35.2244 317.17 38.2542V44.7019H241.229V38.2542Z" fill="#343C4C"/>
<circle cx="249.365" cy="38.7355" r="1.62731" fill="#FF5A60"/>
<circle cx="253.705" cy="38.7355" r="1.62731" fill="#F9B42F"/>
<circle cx="258.044" cy="38.7355" r="1.62731" fill="#4DCB7B"/>
<path d="M284.605 51.2117H247.214C246.305 51.2117 245.568 51.9485 245.568 52.8574V76.1076C245.568 77.0165 246.305 77.7533 247.214 77.7533H284.605C285.514 77.7533 286.251 77.0165 286.251 76.1076V52.8574C286.251 51.9485 285.514 51.2117 284.605 51.2117Z" fill="#E7EEF1"/>
<path opacity="0.7" d="M265.417 59.8906C264.495 59.8915 263.593 60.1659 262.826 60.6791C262.06 61.1922 261.463 61.9212 261.11 62.7737C260.758 63.6262 260.666 64.564 260.847 65.4687C261.027 66.3733 261.472 67.2042 262.125 67.8561C262.777 68.5081 263.608 68.952 264.513 69.1316C265.418 69.3112 266.356 69.2186 267.208 68.8653C268.06 68.5121 268.788 67.9142 269.301 67.1471C269.813 66.38 270.087 65.4782 270.087 64.5558C270.086 63.3181 269.593 62.1315 268.717 61.2567C267.842 60.382 266.655 59.8906 265.417 59.8906Z" fill="#2CC3D5"/>
<path d="M264.685 66.6162C264.684 66.687 264.704 66.7564 264.743 66.8147C264.783 66.8731 264.839 66.9174 264.904 66.9414C264.969 66.9655 265.04 66.9681 265.106 66.9489C265.173 66.9297 265.232 66.8897 265.275 66.8344L265.916 66.0546L266.964 64.7735C267.015 64.7125 267.042 64.6352 267.042 64.5554C267.042 64.4756 267.015 64.3983 266.964 64.3372L265.916 63.0562L265.275 62.2764C265.232 62.2211 265.173 62.1811 265.106 62.1619C265.04 62.1427 264.969 62.1453 264.904 62.1694C264.839 62.1934 264.783 62.2377 264.743 62.296C264.704 62.3544 264.684 62.4238 264.685 62.4945V66.6162Z" fill="white"/>
<path d="M311.185 51.2114H290.609C289.7 51.2114 288.963 51.9483 288.963 52.8572V75.6026C288.963 76.5115 289.7 77.2484 290.609 77.2484H311.185C312.094 77.2484 312.83 76.5115 312.83 75.6026V52.8572C312.83 51.9483 312.094 51.2114 311.185 51.2114Z" fill="white"/>
<path d="M292.218 55.5508H309.033" stroke="#D2DFE6" stroke-width="2.0572" stroke-linecap="round" stroke-linejoin="round"/>
<path d="M292.218 58.8057H309.033" stroke="#D2DFE6" stroke-width="2.0572" stroke-linecap="round" stroke-linejoin="round"/>
<path d="M292.218 62.0601H309.033" stroke="#D2DFE6" stroke-width="2.0572" stroke-linecap="round" stroke-linejoin="round"/>
<path d="M292.218 69.6541H309.033" stroke="#D2DFE6" stroke-width="2.0572" stroke-linecap="round" stroke-linejoin="round"/>
<path d="M292.218 72.9089H309.033" stroke="#D2DFE6" stroke-width="2.0572" stroke-linecap="round" stroke-linejoin="round"/>
<path d="M292.218 65.3147H301.982" stroke="#D2DFE6" stroke-width="2.0572" stroke-linecap="round" stroke-linejoin="round"/>
<g opacity="0.8" filter="url(#filter2_f)">
<path d="M63.433 287.217C63.433 284.549 69.53 282.39 77.059 282.39C84.588 282.39 90.685 284.559 90.685 287.217C90.685 289.875 84.5772 292.045 77.059 292.045C69.5408 292.045 63.433 289.886 63.433 287.217Z" fill="#D2DFE6"/>
</g>
<path d="M90.9996 261.256C90.9996 262.981 91.0539 279.428 90.9996 280.957C90.7175 286.11 88.7648 290.32 77.1675 290.32C65.1254 290.32 63.4872 285.818 63.3137 280.339C63.3137 278.983 63.3137 262.753 63.3137 261.256C63.3137 253.662 63.6066 262.113 77.1675 262.113C90.7284 262.113 90.9996 253.662 90.9996 261.256Z" fill="#2CC3D5"/>
<path d="M90.8695 258.772C90.8695 261.484 84.7182 263.686 77.1241 263.686C69.53 263.686 63.3896 261.517 63.3896 258.772C63.3896 256.027 69.5409 253.868 77.1241 253.868C84.7074 253.868 90.8695 256.07 90.8695 258.772Z" fill="#2CC3D5"/>
<mask id="mask0" mask-type="alpha" maskUnits="userSpaceOnUse" x="64" y="254" width="26" height="9">
<path d="M89.5676 258.653C89.5676 260.942 84.0022 262.797 77.1241 262.797C70.246 262.797 64.6806 260.942 64.6806 258.653C64.6806 256.363 70.2568 254.508 77.1241 254.508C83.9913 254.508 89.5676 256.363 89.5676 258.653Z" fill="#2498A8"/>
</mask>
<g mask="url(#mask0)">
<path d="M89.5676 258.653C89.5676 260.942 84.0022 262.797 77.1241 262.797C70.246 262.797 64.6806 260.942 64.6806 258.653C64.6806 256.363 70.2568 254.508 77.1241 254.508C83.9913 254.508 89.5676 256.363 89.5676 258.653Z" fill="#2498A8"/>
<path d="M64.4528 261.179C64.4528 263.262 70.0182 264.955 76.8855 264.955C83.7527 264.955 89.2964 263.262 89.2964 261.179C89.2964 259.096 83.7202 257.404 76.8529 257.404C69.9857 257.404 64.4528 259.096 64.4528 261.179Z" fill="#594339"/>
</g>
<path d="M90.9562 282.726C89.9113 282.729 88.8721 282.572 87.8751 282.259L89.0685 278.679C89.4699 278.81 93.1368 279.884 94.6773 276.889C96.847 272.723 96.489 266.496 95.0895 265.249C94.7485 264.896 94.3068 264.658 93.8251 264.567C93.3434 264.476 92.8453 264.536 92.399 264.739C91.8506 264.969 91.3417 265.284 90.8911 265.672L88.2114 262.981C89.0313 262.224 89.9838 261.624 91.0213 261.213C92.1087 260.771 93.3002 260.65 94.4541 260.866C95.608 261.081 96.6757 261.623 97.5305 262.428C99.6134 264.283 99.9172 267.852 99.9172 269.87C99.9415 272.897 99.2697 275.889 97.9536 278.614C97.2956 279.891 96.2888 280.955 95.0502 281.683C93.8116 282.411 92.392 282.773 90.9562 282.726V282.726Z" fill="#2CC3D5"/>
<path opacity="0.08" d="M76.8528 259.64C76.8528 259.64 73.7826 256.201 73.2185 255.734C71.7931 254.673 70.4378 253.52 69.1611 252.284C68.9146 252.025 68.6997 251.737 68.521 251.427C68.3454 251.139 68.2309 250.818 68.1847 250.483C68.1344 250.141 68.1794 249.792 68.3149 249.474C68.4656 249.122 68.6914 248.808 68.9766 248.552C69.8116 247.871 70.7689 247.356 71.7973 247.033C73.5119 246.439 75.2666 245.968 77.0481 245.623C77.8644 245.465 78.6663 245.24 79.4457 244.951C79.8642 244.813 80.254 244.6 80.5956 244.321C80.6587 244.264 80.7135 244.198 80.7583 244.126C80.7631 244.105 80.7631 244.082 80.7583 244.061C80.7597 244.036 80.7597 244.01 80.7583 243.985C80.7288 243.921 80.6884 243.862 80.639 243.811C80.1265 243.326 79.5162 242.956 78.849 242.727C77.9863 242.374 77.0821 242.134 76.1585 242.011C74.761 241.839 73.3838 241.53 72.0468 241.088C71.1334 240.788 70.2966 240.292 69.595 239.635C69.3179 239.355 69.0937 239.028 68.9332 238.669C68.7834 238.327 68.7094 237.957 68.7163 237.584C68.7535 236.872 69.0199 236.191 69.4757 235.642C70.434 234.501 71.6764 233.633 73.0775 233.125C73.6391 232.905 74.2203 232.738 74.8132 232.626C74.9577 232.616 75.1027 232.616 75.2472 232.626C76.0175 232.626 77.3627 232.626 77.0698 233.711C76.8094 234.536 76.2995 234.514 75.4967 234.644L75.1821 234.698C74.7167 234.787 74.2594 234.914 73.8152 235.078C72.7536 235.431 71.8008 236.051 71.0487 236.879C70.8483 237.097 70.7163 237.368 70.669 237.66C70.6477 237.753 70.6477 237.849 70.669 237.942C70.7245 238.085 70.8095 238.214 70.9186 238.322C71.4144 238.773 71.998 239.116 72.6327 239.331C74.9326 240.199 77.1457 240.177 79.4565 241.164C80.383 241.517 81.2096 242.091 81.8649 242.835C82.0059 243.02 82.1192 243.225 82.2012 243.443C82.296 243.676 82.3332 243.929 82.3097 244.18C82.2953 244.441 82.2171 244.694 82.0819 244.918C81.9481 245.145 81.7755 245.347 81.572 245.515C81.0773 245.901 80.5194 246.198 79.923 246.393C79.0544 246.679 78.1661 246.9 77.2651 247.055C75.5383 247.34 73.8316 247.735 72.1553 248.238C71.2999 248.487 70.4929 248.88 69.7686 249.398C69.5939 249.537 69.4498 249.711 69.3455 249.908C69.2819 250.051 69.2558 250.208 69.2695 250.364C69.2944 250.566 69.3569 250.761 69.454 250.939C69.5928 251.191 69.7524 251.43 69.9313 251.655C71.1152 252.914 72.3761 254.099 73.7067 255.203C74.2274 255.734 77.1891 258.739 76.8528 259.64Z" fill="black"/>
<path opacity="0.08" d="M81.0404 259.477C81.0404 259.477 81.0404 259.293 81.0947 259.282C81.1454 258.834 81.0741 258.38 80.8886 257.969C80.6975 257.582 80.4278 257.238 80.0966 256.96C79.2687 256.317 78.3695 255.771 77.417 255.333C76.417 254.878 75.4829 254.291 74.6397 253.586C74.2608 253.242 73.961 252.82 73.761 252.35C73.5641 251.838 73.5226 251.279 73.6416 250.744C73.7015 250.449 73.8402 250.175 74.043 249.952C74.2501 249.717 74.4959 249.518 74.7699 249.366C75.4143 249.015 76.1044 248.756 76.8203 248.596C78.4693 248.184 80.1292 247.967 81.7999 247.63C82.4724 247.497 83.1329 247.308 83.7743 247.066C83.9908 246.986 84.1952 246.877 84.3819 246.741C84.4992 246.669 84.5962 246.568 84.6639 246.448C84.7135 246.363 84.7326 246.263 84.7182 246.166C84.6848 245.978 84.6107 245.801 84.5012 245.645C84.2651 245.292 83.9884 244.968 83.6767 244.679C83.3404 244.354 82.6678 243.812 83.0583 243.323C83.4489 242.835 84.2517 243.519 84.588 243.833C84.9739 244.198 85.3129 244.61 85.5969 245.059C85.7856 245.358 85.9043 245.695 85.9441 246.046C85.9785 246.37 85.9102 246.697 85.7488 246.979C85.5913 247.251 85.372 247.481 85.1087 247.652C84.8394 247.836 84.5478 247.986 84.2408 248.097C83.534 248.346 82.8085 248.538 82.0711 248.672C80.4112 248.965 78.7514 249.149 77.1024 249.496C76.4743 249.624 75.8654 249.831 75.2906 250.115C75.0961 250.21 74.9198 250.338 74.7699 250.494C74.6579 250.61 74.5759 250.752 74.5312 250.907C74.423 251.297 74.423 251.71 74.5312 252.1C74.6726 252.473 74.8949 252.81 75.1821 253.087C75.954 253.768 76.8066 254.351 77.7207 254.823C78.6912 255.317 79.5922 255.937 80.4004 256.667C80.7431 257 81.0096 257.404 81.1815 257.85C81.3332 258.319 81.3332 258.824 81.1815 259.293V259.293C81.1815 259.293 81.073 259.488 81.0404 259.477Z" fill="black"/>
<path d="M67.1976 261.169V270.51C67.1976 271.123 67.441 271.71 67.8744 272.144C68.3077 272.577 68.8955 272.82 69.5083 272.82C70.1212 272.82 70.709 272.577 71.1423 272.144C71.5757 271.71 71.8191 271.123 71.8191 270.51V266.582C71.9072 266.08 72.1698 265.624 72.5607 265.296C72.9516 264.967 73.4458 264.787 73.9563 264.787C74.4669 264.787 74.961 264.967 75.3519 265.296C75.7428 265.624 76.0054 266.08 76.0935 266.582V268.221C76.0935 268.796 76.3221 269.348 76.729 269.755C77.1359 270.162 77.6878 270.39 78.2633 270.39H78.5996C79.175 270.39 79.7269 270.162 80.1338 269.755C80.5407 269.348 80.7693 268.796 80.7693 268.221V261.169H67.1976Z" fill="#594339"/>
<defs>
<filter id="filter0_f" x="237.026" y="277.001" width="82.1777" height="14.9157" filterUnits="userSpaceOnUse" color-interpolation-filters="sRGB">
<feFlood flood-opacity="0" result="BackgroundImageFix"/>
<feBlend mode="normal" in="SourceGraphic" in2="BackgroundImageFix" result="shape"/>
<feGaussianBlur stdDeviation="2.1016" result="effect1_foregroundBlur"/>
</filter>
<filter id="filter1_f" x="90.5678" y="268.322" width="154.864" height="16.0005" filterUnits="userSpaceOnUse" color-interpolation-filters="sRGB">
<feFlood flood-opacity="0" result="BackgroundImageFix"/>
<feBlend mode="normal" in="SourceGraphic" in2="BackgroundImageFix" result="shape"/>
<feGaussianBlur stdDeviation="2.1016" result="effect1_foregroundBlur"/>
</filter>
<filter id="filter2_f" x="59.2298" y="278.186" width="35.6584" height="18.0618" filterUnits="userSpaceOnUse" color-interpolation-filters="sRGB">
<feFlood flood-opacity="0" result="BackgroundImageFix"/>
<feBlend mode="normal" in="SourceGraphic" in2="BackgroundImageFix" result="shape"/>
<feGaussianBlur stdDeviation="2.1016" result="effect1_foregroundBlur"/>
</filter>
<linearGradient id="paint0_linear" x1="168.435" y1="281.161" x2="168.582" y2="155.747" gradientUnits="userSpaceOnUse">
<stop offset="0.108095" stop-color="#DAF2F4"/>
<stop offset="1" stop-color="#DAF2F4" stop-opacity="0"/>
</linearGradient>
</defs>
</svg>
