<svg width="333" height="323" viewBox="0 0 333 323" fill="none" xmlns="http://www.w3.org/2000/svg">
<g opacity="0.7" filter="url(#filter0_f)">
<path d="M266.716 294.922C266.716 292.706 272.091 290.913 278.742 290.913C285.393 290.913 290.768 292.706 290.768 294.922C290.768 297.138 285.38 298.931 278.742 298.931C272.104 298.931 266.716 297.126 266.716 294.922Z" fill="#D2DFE6"/>
</g>
<path opacity="0.3" d="M84.503 110.155C83.4229 137.852 74.2426 160.931 30.4148 206.952C-31.5145 271.947 55.045 338.179 112.049 319.898C169.054 301.618 161.342 258.969 260.554 241.832C395.672 218.521 280.967 79.4221 227.829 32.783C164.431 -22.8337 89.4333 -14.3277 84.503 110.155Z" fill="#87DDE8"/>
<path d="M121.535 289.942C121.379 292.457 120.995 294.953 120.389 297.398H215.177C214.566 294.954 214.182 292.458 214.031 289.942C213.688 276.107 215.703 252.387 216.883 244.438C214.661 245.584 212.497 247.256 210.172 247.256H126.253C123.963 247.256 121.535 245.893 119.313 244.713C120.492 252.662 121.878 276.107 121.535 289.942Z" fill="#DF638D"/>
<path d="M213.195 170.988C213.195 170.988 248.872 232.767 254.301 253.853C259.81 275.236 247.292 282.486 224.236 282.486" stroke="#F3C29F" stroke-width="20" stroke-linecap="round" stroke-linejoin="round"/>
<path d="M208.625 168.789C208.625 168.789 222.667 178.88 232.963 202.428" stroke="#F99B45" stroke-width="24" stroke-linecap="round" stroke-linejoin="round"/>
<path d="M123.825 171.515C123.825 171.515 87.7129 234.13 81.7114 255.067C77.3362 270.323 82.3757 282.292 105.42 282.292" stroke="#F3C29F" stroke-width="20" stroke-linecap="round" stroke-linejoin="round"/>
<path d="M127.536 168.491C127.536 168.491 119.381 178.295 109.073 201.843" stroke="#F99B45" stroke-width="24" stroke-linecap="round" stroke-linejoin="round"/>
<path d="M122.336 166.499C122.336 166.499 111.364 208.658 108.947 211.762L107.802 213.24C109.306 213.372 110.822 213.264 112.292 212.919L115.499 208.99L123.882 180.357L122.336 166.499Z" fill="#FA7E25"/>
<path d="M214.466 171.515C214.466 171.515 224.373 208.063 226.79 211.167L227.935 212.713C226.053 212.262 224.195 211.716 222.369 211.075L220.651 208.395L212.256 179.762L214.466 171.515Z" fill="#FA7E25"/>
<path d="M225.221 216.882C221.144 199.404 211.191 158.47 211.191 158.47C211.191 156.465 199.005 155.744 171.654 155.217V155.08H167.691H163.717V155.206C136.378 155.732 124.18 156.454 124.18 158.458C124.18 158.458 114.227 199.415 110.15 216.87C106.222 233.729 117.824 248.607 128.83 248.607H206.541C217.547 248.619 229.15 233.741 225.221 216.882Z" fill="#F99B45"/>
<path d="M128.83 248.55C125.377 248.441 122.056 247.197 119.381 245.011L121.454 276.198C121.317 268.593 125.841 250.13 125.841 250.13C126.328 250.225 126.822 250.275 127.318 250.279C132.667 250.027 147.934 248.859 147.934 248.859C138.176 248.859 128.83 248.55 128.83 248.55Z" fill="#D8608E"/>
<path d="M206.862 248.55C210.103 248.55 213.997 246.58 216.929 244.335L214.237 276.198C214.375 268.559 209.908 250.131 209.908 250.131C209.421 250.225 208.927 250.275 208.431 250.28C203.082 250.028 187.815 248.859 187.815 248.859C197.516 248.859 206.862 248.55 206.862 248.55Z" fill="#D8608E"/>
<path d="M264.964 273.495V273.689C264.958 273.625 264.958 273.56 264.964 273.495V273.495Z" fill="#F8F7EF"/>
<rect opacity="0.5" x="216.322" y="168.364" width="58.4117" height="41.2318" rx="5.22066" fill="#C3EEF4"/>
<rect opacity="0.5" x="220.903" y="172.945" width="58.4117" height="41.2318" rx="5.22066" fill="#87DDE8"/>
<rect opacity="0.5" x="49.1039" y="196.997" width="56.1211" height="40.0865" rx="5.22066" fill="#87DDE8"/>
<rect opacity="0.5" x="43.3772" y="192.415" width="58.4117" height="41.2318" rx="5.22066" fill="#C3EEF4"/>
<rect opacity="0.2" x="243.81" y="27.4878" width="80.173" height="56.1211" rx="5.22066" fill="#87DDE8"/>
<rect opacity="0.2" x="248.391" y="33.2146" width="80.173" height="56.1211" rx="5.22066" fill="#87DDE8"/>
<rect x="240.374" y="22.9067" width="80.173" height="56.1211" rx="5.22066" fill="#F8FBFB"/>
<path d="M240.374 28.1274C240.374 25.2441 242.711 22.9067 245.594 22.9067H315.326C318.209 22.9067 320.547 25.2441 320.547 28.1274V35.5054H240.374V28.1274Z" fill="#343C4C"/>
<path d="M295.673 47.1664L295.673 63.0978C295.673 64.4775 296.792 65.5959 298.172 65.5959L311.09 65.5959C312.47 65.5959 313.588 64.4775 313.588 63.0978L313.588 47.1664C313.588 45.7867 312.47 44.6682 311.09 44.6682L298.172 44.6682C296.792 44.6682 295.673 45.7867 295.673 47.1664Z" fill="white"/>
<path d="M304.626 55.6138C306.489 55.6138 307.999 54.1033 307.999 52.24C307.999 50.3767 306.489 48.8662 304.626 48.8662C302.762 48.8662 301.252 50.3767 301.252 52.24C301.252 54.1033 302.762 55.6138 304.626 55.6138Z" fill="#F99B45"/>
<path d="M300.933 58.5034H308.324" stroke="#D2DFE6" stroke-width="1.56258" stroke-linecap="round" stroke-linejoin="round"/>
<path d="M302.205 61.3979H307.047" stroke="#D2DFE6" stroke-width="1.56258" stroke-linecap="round" stroke-linejoin="round"/>
<path d="M272.032 47.1664L272.032 63.0978C272.032 64.4775 273.151 65.5959 274.53 65.5959L287.449 65.5959C288.828 65.5959 289.947 64.4775 289.947 63.0978L289.947 47.1664C289.947 45.7867 288.828 44.6682 287.449 44.6682L274.53 44.6682C273.151 44.6682 272.032 45.7867 272.032 47.1664Z" fill="white"/>
<path d="M280.984 55.6138C282.848 55.6138 284.358 54.1033 284.358 52.24C284.358 50.3767 282.848 48.8662 280.984 48.8662C279.121 48.8662 277.611 50.3767 277.611 52.24C277.611 54.1033 279.121 55.6138 280.984 55.6138Z" fill="#2CC3D5"/>
<path d="M277.292 58.5034H284.683" stroke="#D2DFE6" stroke-width="1.56258" stroke-linecap="round" stroke-linejoin="round"/>
<path d="M278.564 61.3979H283.406" stroke="#D2DFE6" stroke-width="1.56258" stroke-linecap="round" stroke-linejoin="round"/>
<path d="M248.391 47.1661L248.391 63.0976C248.391 64.4772 249.51 65.5957 250.889 65.5957L263.808 65.5957C265.187 65.5957 266.306 64.4772 266.306 63.0976L266.306 47.1661C266.306 45.7864 265.187 44.668 263.808 44.668L250.889 44.668C249.51 44.668 248.391 45.7864 248.391 47.1661Z" fill="white"/>
<path d="M257.343 55.6135C259.207 55.6135 260.717 54.103 260.717 52.2397C260.717 50.3765 259.207 48.866 257.343 48.866C255.48 48.866 253.97 50.3765 253.97 52.2397C253.97 54.103 255.48 55.6135 257.343 55.6135Z" fill="#BED42B"/>
<path d="M253.651 58.5032H261.042" stroke="#D2DFE6" stroke-width="1.56258" stroke-linecap="round" stroke-linejoin="round"/>
<path d="M254.923 61.3977H259.765" stroke="#D2DFE6" stroke-width="1.56258" stroke-linecap="round" stroke-linejoin="round"/>
<circle cx="248.964" cy="29.2058" r="1.71799" fill="#FF5A60"/>
<circle cx="253.545" cy="29.2058" r="1.71799" fill="#F9B42F"/>
<circle cx="258.126" cy="29.2058" r="1.71799" fill="#4DCB7B"/>
<rect opacity="0.2" x="11.6948" y="103.213" width="62.4725" height="43.7307" rx="5.22066" fill="#87DDE8"/>
<rect opacity="0.2" x="15.2646" y="107.676" width="62.4725" height="43.7307" rx="5.22066" fill="#87DDE8"/>
<rect x="9.0174" y="99.6436" width="62.4725" height="43.7307" rx="5.22066" fill="#F8FBFB"/>
<path d="M9.0174 104.864C9.0174 101.981 11.3548 99.6436 14.2381 99.6436H66.2692C69.1525 99.6436 71.4899 101.981 71.4899 104.864V109.461H9.0174V104.864Z" fill="#343C4C"/>
<circle cx="15.7109" cy="104.552" r="1.3387" fill="#FF5A60"/>
<circle cx="19.2808" cy="104.552" r="1.3387" fill="#F9B42F"/>
<circle cx="22.8507" cy="104.552" r="1.3387" fill="#4DCB7B"/>
<rect x="34.9417" y="114.815" width="32.0599" height="21.718" rx="2.30113" fill="white"/>
<path d="M64.2478 120.293H57.531C57.4293 120.322 57.3222 120.327 57.2182 120.308C57.1142 120.288 57.0161 120.245 56.9317 120.181C56.8472 120.118 56.7787 120.035 56.7315 119.94C56.6843 119.846 56.6598 119.741 56.6598 119.636C56.6598 119.53 56.6843 119.426 56.7315 119.331C56.7787 119.236 56.8472 119.154 56.9317 119.09C57.0161 119.026 57.1142 118.983 57.2182 118.964C57.3222 118.944 57.4293 118.949 57.531 118.978H64.2478C64.3906 119.019 64.5163 119.105 64.6057 119.224C64.6952 119.343 64.7435 119.487 64.7435 119.636C64.7435 119.784 64.6952 119.929 64.6057 120.047C64.5163 120.166 64.3906 120.252 64.2478 120.293V120.293Z" fill="#D2DFE6"/>
<path d="M64.2478 122.361H57.531C57.4293 122.391 57.3222 122.396 57.2182 122.376C57.1142 122.357 57.0161 122.314 56.9317 122.25C56.8472 122.186 56.7787 122.104 56.7315 122.009C56.6843 121.914 56.6598 121.81 56.6598 121.704C56.6598 121.598 56.6843 121.494 56.7315 121.399C56.7787 121.305 56.8472 121.222 56.9317 121.159C57.0161 121.095 57.1142 121.052 57.2182 121.032C57.3222 121.013 57.4293 121.018 57.531 121.047H64.2478C64.3906 121.088 64.5163 121.174 64.6057 121.293C64.6952 121.411 64.7435 121.556 64.7435 121.704C64.7435 121.853 64.6952 121.997 64.6057 122.116C64.5163 122.234 64.3906 122.321 64.2478 122.361V122.361Z" fill="#D2DFE6"/>
<path d="M51.852 132.254H40.7839C40.662 132.254 40.545 132.206 40.4588 132.12C40.3726 132.033 40.3242 131.916 40.3242 131.795V120.589C40.3242 120.467 40.3726 120.35 40.4588 120.264C40.545 120.177 40.662 120.129 40.7839 120.129C40.9058 120.129 41.0227 120.177 41.1089 120.264C41.1951 120.35 41.2435 120.467 41.2435 120.589V131.335H51.852C51.9739 131.335 52.0908 131.383 52.177 131.47C52.2632 131.556 52.3116 131.673 52.3116 131.795C52.3116 131.916 52.2632 132.033 52.177 132.12C52.0908 132.206 51.9739 132.254 51.852 132.254Z" fill="#D2DFE6"/>
<path opacity="0.7" d="M45.6286 129.276C45.3511 129.283 45.0784 129.203 44.8495 129.046C42.726 127.377 41.4505 128.887 41.4022 128.954C41.3033 129.064 41.1658 129.131 41.0183 129.142C40.8709 129.154 40.7248 129.107 40.6105 129.014C40.4963 128.92 40.4226 128.785 40.4048 128.639C40.387 128.492 40.4265 128.344 40.5151 128.225C40.5358 128.2 42.5559 125.801 45.5343 128.117C45.686 128.189 46.1962 128.117 46.8834 126.922C48.1612 124.707 50.5467 123.287 50.6478 123.227C50.7792 123.149 50.9359 123.127 51.0835 123.165C51.2311 123.204 51.3576 123.299 51.435 123.43C51.5124 123.562 51.5344 123.718 51.4963 123.866C51.4582 124.014 51.3629 124.14 51.2316 124.217V124.217C51.2086 124.229 49.0023 125.55 47.8785 127.497C47.2856 128.524 46.6352 129.106 45.9434 129.255C45.8394 129.272 45.7339 129.279 45.6286 129.276V129.276ZM45.5321 128.113L45.5504 128.127L45.5321 128.113Z" fill="#2CC3D5"/>
<path opacity="0.8" d="M40.9402 129.154C40.8362 129.153 40.7344 129.125 40.6454 129.071C40.5564 129.018 40.4836 128.941 40.4348 128.849C40.386 128.757 40.3629 128.654 40.3682 128.55C40.3734 128.447 40.4067 128.346 40.4644 128.26C40.7149 127.887 42.9672 124.663 45.1688 124.663H45.1941C45.748 124.663 46.5432 124.893 47.1936 125.895C47.7244 126.718 48.2898 127.157 48.8735 127.193C49.7446 127.246 50.4823 126.421 50.4823 126.414C50.5298 126.353 50.5892 126.302 50.657 126.264C50.7248 126.226 50.7996 126.202 50.8768 126.194C50.954 126.186 51.032 126.194 51.1062 126.217C51.1804 126.24 51.2492 126.277 51.3084 126.327C51.3676 126.378 51.416 126.439 51.4508 126.509C51.4855 126.578 51.5058 126.654 51.5104 126.731C51.515 126.809 51.5039 126.887 51.4777 126.96C51.4515 127.033 51.4107 127.1 51.3579 127.157C51.3142 127.209 50.2571 128.434 48.8 128.34C47.8347 128.276 46.9614 127.665 46.2306 126.518C45.9272 126.058 45.5848 125.828 45.1849 125.812H45.1688C43.9646 125.812 42.2271 127.704 41.4136 128.903C41.3611 128.98 41.2905 129.044 41.208 129.087C41.1255 129.131 41.0335 129.154 40.9402 129.154V129.154Z" fill="#F9B42F"/>
<path d="M13.4797 117.375L13.4797 133.698C13.4797 135.111 14.6257 136.257 16.0393 136.257L29.275 136.257C30.6886 136.257 31.8346 135.111 31.8346 133.698L31.8346 117.375C31.8346 115.961 30.6886 114.815 29.275 114.815L16.0393 114.815C14.6257 114.815 13.4797 115.961 13.4797 117.375Z" fill="white"/>
<path d="M22.6517 126.03C24.5608 126.03 26.1084 124.482 26.1084 122.573C26.1084 120.664 24.5608 119.116 22.6517 119.116C20.7426 119.116 19.195 120.664 19.195 122.573C19.195 124.482 20.7426 126.03 22.6517 126.03Z" fill="#FF7B80"/>
<path d="M18.868 128.99H26.4411" stroke="#D2DFE6" stroke-width="1.72584" stroke-linecap="round" stroke-linejoin="round"/>
<path d="M20.1714 131.956H25.1322" stroke="#D2DFE6" stroke-width="1.72584" stroke-linecap="round" stroke-linejoin="round"/>
<path d="M96.0454 49.7497C95.678 49.8198 95.2996 49.8069 94.9379 49.7119C94.5761 49.617 94.2402 49.4423 93.9546 49.2008C93.669 48.9593 93.4411 48.657 93.2873 48.3161C93.1336 47.9751 93.058 47.6041 93.0662 47.2302L93.2172 42.2687C93.2198 42.0999 93.2559 41.9333 93.3234 41.7786C93.391 41.6239 93.4887 41.4842 93.6107 41.3676C93.7328 41.2511 93.8769 41.1599 94.0345 41.0995C94.1921 41.0392 94.3602 41.0108 94.5289 41.016C94.6977 41.0212 94.8637 41.0599 95.0173 41.1299C95.1709 41.1999 95.309 41.2997 95.4237 41.4236C95.5383 41.5475 95.6272 41.693 95.6851 41.8516C95.743 42.0101 95.7687 42.1786 95.7609 42.3473L95.6268 47.2119L111.731 35.1088L92.1612 30.1201L95.2141 37.2967L103.567 35.4311C103.897 35.3571 104.242 35.4169 104.527 35.5974C104.813 35.778 105.015 36.0645 105.089 36.3939C105.163 36.7233 105.103 37.0686 104.922 37.3538C104.742 37.6391 104.455 37.841 104.126 37.915L95.7066 39.8146C95.1426 39.9242 94.558 39.8398 94.048 39.5751C93.538 39.3103 93.1326 38.8807 92.8978 38.3563L89.785 31.0359C89.5997 30.6075 89.5384 30.1356 89.608 29.674C89.6776 29.2124 89.8753 28.7796 90.1787 28.4248C90.482 28.07 90.8789 27.8075 91.3241 27.6671C91.7693 27.5267 92.2449 27.514 92.697 27.6305L112.452 32.6652C112.909 32.7813 113.324 33.0244 113.649 33.3665C113.974 33.7085 114.195 34.1355 114.288 34.5981C114.38 35.0607 114.34 35.54 114.171 35.9805C114.003 36.4211 113.713 36.805 113.335 37.0879L97.0848 49.2878C96.7787 49.5201 96.4229 49.6782 96.0454 49.7497Z" fill="#517BF2"/>
<path d="M263 117L235.888 275H97.5591L71 117H263Z" fill="url(#paint0_linear)"/>
<g opacity="0.7" filter="url(#filter1_f)">
<path d="M171.081 302.367C215.676 302.367 251.827 300.572 251.827 298.358C251.827 296.144 215.676 294.349 171.081 294.349C126.487 294.349 90.3357 296.144 90.3357 298.358C90.3357 300.572 126.487 302.367 171.081 302.367Z" fill="#D2DFE6"/>
</g>
<g opacity="0.7" filter="url(#filter2_f)">
<path d="M56.5485 306.948C80.2691 306.948 99.4983 305.41 99.4983 303.512C99.4983 301.615 80.2691 300.076 56.5485 300.076C32.828 300.076 13.5987 301.615 13.5987 303.512C13.5987 305.41 32.828 306.948 56.5485 306.948Z" fill="#D2DFE6"/>
</g>
<path d="M270.575 138.371L267.875 129.462C267.697 128.754 267.73 128.01 267.972 127.321C267.983 127.273 267.993 127.23 268.004 127.182L268.452 125.265L269.189 125.437C269.452 125.499 269.728 125.453 269.958 125.311C270.187 125.169 270.351 124.943 270.413 124.68L271.462 120.186C271.522 119.923 271.476 119.647 271.334 119.417C271.191 119.188 270.964 119.024 270.701 118.961L260.247 116.522C259.984 116.461 259.708 116.508 259.48 116.651C259.251 116.794 259.088 117.021 259.027 117.284L257.978 121.778C257.948 121.908 257.943 122.042 257.965 122.174C257.986 122.305 258.034 122.431 258.104 122.545C258.175 122.658 258.267 122.756 258.375 122.834C258.483 122.912 258.606 122.967 258.736 122.998L259.473 123.17L259.026 125.087C259.015 125.134 259.005 125.178 258.994 125.226C258.905 125.95 258.606 126.633 258.133 127.188L251.777 133.983C251.595 134.177 251.468 134.415 251.407 134.674C251.347 134.933 251.355 135.203 251.432 135.457C251.509 135.711 251.652 135.941 251.845 136.123C252.039 136.304 252.277 136.432 252.536 136.493L268.784 140.285C269.043 140.345 269.313 140.336 269.567 140.259C269.821 140.181 270.05 140.039 270.232 139.845C270.413 139.651 270.541 139.412 270.601 139.154C270.661 138.895 270.652 138.625 270.575 138.371ZM260.774 118.735L269.258 120.715L268.671 123.231L260.187 121.25L260.774 118.735ZM253.879 134.716L259.624 128.579C260.393 127.713 260.881 126.634 261.023 125.484L261.456 123.632L266.478 124.805L266.046 126.657C265.665 127.75 265.624 128.934 265.931 130.051L268.366 138.097L253.879 134.716Z" fill="#B97CE8"/>
<path opacity="0.5" d="M269.021 137.505L267.874 132.956C267.874 132.956 265.217 133.914 262.786 130.707C260.356 127.501 258.209 128.605 258.209 128.605L253.221 134.302C253.125 134.417 253.061 134.555 253.032 134.702C253.004 134.849 253.014 135.001 253.06 135.143C253.106 135.286 253.187 135.414 253.296 135.517C253.405 135.62 253.538 135.694 253.683 135.731L267.563 138.971C267.766 139.025 267.979 139.024 268.181 138.969C268.383 138.915 268.568 138.807 268.716 138.659C268.863 138.51 268.969 138.325 269.023 138.123C269.077 137.92 269.076 137.707 269.021 137.505ZM259.204 134.024C258.906 133.955 258.636 133.798 258.427 133.575C258.218 133.352 258.08 133.072 258.03 132.77C257.981 132.469 258.021 132.159 258.148 131.881C258.274 131.602 258.48 131.368 258.739 131.206C258.999 131.045 259.301 130.964 259.606 130.974C259.912 130.984 260.207 131.085 260.456 131.263C260.704 131.441 260.894 131.689 261.002 131.975C261.11 132.261 261.13 132.573 261.06 132.87C260.967 133.27 260.719 133.615 260.371 133.832C260.023 134.048 259.603 134.117 259.204 134.024Z" fill="#B97CE8"/>
<path opacity="0.5" d="M262.049 128.633C262.572 128.754 263.094 128.43 263.216 127.908C263.338 127.385 263.013 126.863 262.491 126.741C261.969 126.62 261.446 126.944 261.325 127.466C261.203 127.989 261.527 128.511 262.049 128.633Z" fill="#B97CE8"/>
<path opacity="0.5" d="M264.596 126.835C264.936 126.914 265.276 126.703 265.356 126.363C265.435 126.022 265.224 125.682 264.883 125.603C264.543 125.524 264.203 125.735 264.124 126.075C264.044 126.415 264.256 126.755 264.596 126.835Z" fill="#B97CE8"/>
<g opacity="0.5">
<path d="M84.3785 218.14H83.6786V217.419C83.6786 217.06 83.5359 216.716 83.2819 216.462C83.0279 216.208 82.6834 216.065 82.3242 216.065H77.1973V215.389H77.8237C78.1826 215.389 78.5266 215.246 78.7804 214.992C79.0341 214.738 79.1771 214.394 79.1781 214.035V211.382C79.1771 211.024 79.0341 210.68 78.7804 210.426C78.5266 210.172 78.1826 210.029 77.8237 210.028H75.171C74.8121 210.029 74.4681 210.172 74.2143 210.426C73.9606 210.68 73.8176 211.024 73.8166 211.382V214.035C73.8176 214.394 73.9606 214.738 74.2143 214.992C74.4681 215.246 74.8121 215.389 75.171 215.389H75.7974V216.065H70.8735C70.5143 216.065 70.1698 216.208 69.9158 216.462C69.6618 216.716 69.5191 217.06 69.5191 217.419V218.14H68.8192C68.46 218.14 68.1155 218.283 67.8615 218.537C67.6075 218.791 67.4648 219.135 67.4648 219.495V222.147C67.4648 222.506 67.6075 222.851 67.8615 223.105C68.1155 223.359 68.46 223.502 68.8192 223.502H71.4719C71.6496 223.502 71.8255 223.467 71.9897 223.398C72.1538 223.33 72.3029 223.231 72.4283 223.105C72.5538 222.979 72.6533 222.83 72.7209 222.665C72.7886 222.501 72.8232 222.325 72.8228 222.147V219.495C72.8228 219.136 72.6805 218.792 72.4273 218.538C72.1741 218.284 71.8305 218.141 71.4719 218.14H70.919V217.465H75.7974V218.14H75.171C74.8121 218.141 74.4681 218.284 74.2143 218.538C73.9606 218.792 73.8176 219.136 73.8166 219.495V222.147C73.8166 222.506 73.9593 222.851 74.2133 223.105C74.4673 223.359 74.8118 223.502 75.171 223.502H77.8237C78.1829 223.502 78.5274 223.359 78.7814 223.105C79.0354 222.851 79.1781 222.506 79.1781 222.147V219.495C79.1771 219.136 79.0341 218.792 78.7804 218.538C78.5266 218.284 78.1826 218.141 77.8237 218.14H77.1973V217.465H82.2647V218.14H81.7258C81.3672 218.141 81.0236 218.284 80.7704 218.538C80.5171 218.792 80.3749 219.136 80.3749 219.495V222.147C80.3745 222.325 80.4091 222.501 80.4767 222.665C80.5444 222.83 80.6439 222.979 80.7693 223.105C80.8948 223.231 81.0439 223.33 81.208 223.398C81.3721 223.467 81.5481 223.502 81.7258 223.502H84.3785C84.7377 223.502 85.0822 223.359 85.3362 223.105C85.5901 222.851 85.7328 222.506 85.7328 222.147V219.495C85.7328 219.135 85.5901 218.791 85.3362 218.537C85.0822 218.283 84.7377 218.14 84.3785 218.14ZM75.2165 211.428H77.7782V213.99H75.2165V211.428ZM71.4089 222.102H68.8507V219.54H71.4089V222.102ZM77.7782 222.102H75.2165V219.54H77.7782V222.102ZM84.333 222.102H81.7748V219.54H84.333V222.102Z" fill="#F8FBFB"/>
</g>
<g opacity="0.5">
<path fill-rule="evenodd" clip-rule="evenodd" d="M257.974 190.315V189.965C257.976 189.391 257.865 188.822 257.647 188.291C257.429 187.759 257.108 187.276 256.703 186.869C256.298 186.462 255.817 186.139 255.286 185.918C254.756 185.698 254.188 185.584 253.613 185.584H252.182V185.517C252.182 184.859 251.921 184.228 251.455 183.763C250.99 183.297 250.359 183.036 249.701 183.036C249.043 183.036 248.412 183.297 247.946 183.763C247.481 184.228 247.22 184.859 247.22 185.517V185.584H245.47C244.313 185.585 243.204 186.044 242.386 186.862C241.568 187.679 241.108 188.788 241.106 189.944V190.294C240.668 190.391 240.276 190.634 239.995 190.984C239.714 191.335 239.562 191.77 239.563 192.219V195.155C239.563 195.603 239.716 196.037 239.996 196.386C240.277 196.735 240.668 196.977 241.106 197.073V197.423C241.106 198.581 241.566 199.691 242.384 200.51C243.202 201.329 244.312 201.789 245.47 201.79H253.613C254.77 201.789 255.878 201.33 256.696 200.512C257.513 199.695 257.973 198.586 257.974 197.43V197.08C258.41 196.983 258.8 196.741 259.079 196.393C259.358 196.045 259.51 195.612 259.51 195.166V192.219C259.507 191.775 259.354 191.344 259.075 190.998C258.796 190.653 258.408 190.412 257.974 190.315ZM253.613 200.39H245.47C244.684 200.39 243.931 200.079 243.375 199.524C242.819 198.968 242.507 198.215 242.506 197.43V189.944C242.507 189.159 242.819 188.406 243.375 187.85C243.931 187.295 244.684 186.983 245.47 186.983H253.613C254.398 186.984 255.151 187.297 255.706 187.852C256.261 188.407 256.573 189.159 256.574 189.944V197.43C256.573 198.215 256.261 198.967 255.706 199.522C255.151 200.077 254.398 200.39 253.613 200.39ZM248.623 185.517C248.623 185.23 248.737 184.955 248.94 184.752C249.143 184.55 249.418 184.436 249.704 184.436C249.991 184.436 250.266 184.55 250.469 184.752C250.672 184.955 250.786 185.23 250.786 185.517V185.584H248.62C248.62 185.574 248.62 185.563 248.621 185.553C248.622 185.542 248.623 185.53 248.623 185.517ZM240.612 195.155V192.219C240.613 192.052 240.66 191.888 240.747 191.746C240.834 191.604 240.958 191.488 241.106 191.41V195.96C240.958 195.883 240.834 195.768 240.748 195.626C240.661 195.484 240.614 195.321 240.612 195.155ZM258.46 195.155C258.46 195.32 258.415 195.482 258.329 195.624C258.243 195.765 258.12 195.88 257.974 195.956V191.407C258.12 191.484 258.243 191.599 258.328 191.74C258.414 191.881 258.46 192.043 258.46 192.208V195.155ZM249.704 190.242C249.023 190.242 248.356 190.444 247.789 190.823C247.222 191.201 246.781 191.74 246.52 192.37C246.259 193 246.19 193.693 246.323 194.361C246.456 195.03 246.785 195.644 247.267 196.126C247.749 196.608 248.363 196.937 249.032 197.07C249.701 197.203 250.394 197.134 251.023 196.874C251.653 196.613 252.192 196.171 252.571 195.604C252.949 195.037 253.151 194.371 253.151 193.689C253.151 192.775 252.787 191.899 252.141 191.252C251.495 190.606 250.618 190.243 249.704 190.242ZM249.704 196.086C249.23 196.086 248.767 195.945 248.372 195.682C247.978 195.419 247.671 195.044 247.49 194.606C247.308 194.168 247.261 193.686 247.353 193.221C247.446 192.756 247.674 192.329 248.009 191.994C248.344 191.658 248.772 191.43 249.237 191.338C249.702 191.245 250.184 191.293 250.622 191.474C251.06 191.655 251.434 191.963 251.698 192.357C251.961 192.751 252.102 193.215 252.102 193.689C252.101 194.324 251.848 194.934 251.398 195.383C250.949 195.832 250.34 196.085 249.704 196.086ZM249.147 192.855C249.312 192.745 249.506 192.685 249.704 192.684C249.837 192.684 249.967 192.71 250.09 192.76C250.212 192.81 250.323 192.884 250.417 192.977C250.51 193.071 250.585 193.182 250.635 193.304C250.686 193.426 250.712 193.557 250.712 193.689C250.712 193.887 250.653 194.081 250.543 194.246C250.433 194.412 250.276 194.54 250.093 194.616C249.91 194.693 249.708 194.713 249.513 194.674C249.318 194.636 249.139 194.54 248.999 194.4C248.858 194.26 248.762 194.082 248.723 193.887C248.684 193.692 248.703 193.49 248.779 193.307C248.854 193.123 248.983 192.966 249.147 192.855ZM249.832 193.526C249.878 193.557 249.932 193.573 249.988 193.573C250.062 193.573 250.133 193.544 250.186 193.491C250.238 193.439 250.268 193.368 250.268 193.293C250.268 193.238 250.251 193.184 250.221 193.138C250.19 193.092 250.146 193.056 250.095 193.035C250.044 193.014 249.987 193.008 249.933 193.019C249.879 193.03 249.829 193.056 249.79 193.095C249.751 193.135 249.724 193.184 249.713 193.239C249.702 193.293 249.708 193.349 249.729 193.4C249.75 193.452 249.786 193.495 249.832 193.526Z" fill="#F8FBFB"/>
</g>
<path d="M85.7545 100.789C87.6521 100.789 89.1905 99.2506 89.1905 97.353C89.1905 95.4553 87.6521 93.917 85.7545 93.917C83.8568 93.917 82.3185 95.4553 82.3185 97.353C82.3185 99.2506 83.8568 100.789 85.7545 100.789Z" stroke="#87DDE8" stroke-width="0.652582" stroke-linecap="round" stroke-linejoin="round"/>
<path d="M283.896 171.799C285.794 171.799 287.332 170.261 287.332 168.363C287.332 166.466 285.794 164.927 283.896 164.927C281.999 164.927 280.46 166.466 280.46 168.363C280.46 170.261 281.999 171.799 283.896 171.799Z" stroke="#87DDE8" stroke-width="0.652582" stroke-linecap="round" stroke-linejoin="round"/>
<path d="M228.921 152.329C230.186 152.329 231.211 151.303 231.211 150.038C231.211 148.773 230.186 147.747 228.921 147.747C227.655 147.747 226.63 148.773 226.63 150.038C226.63 151.303 227.655 152.329 228.921 152.329Z" stroke="#87DDE8" stroke-width="0.652582" stroke-linecap="round" stroke-linejoin="round"/>
<path d="M293.059 103.08C294.324 103.08 295.35 102.054 295.35 100.789C295.35 99.5239 294.324 98.4983 293.059 98.4983C291.794 98.4983 290.768 99.5239 290.768 100.789C290.768 102.054 291.794 103.08 293.059 103.08Z" stroke="#87DDE8" stroke-width="0.652582" stroke-linecap="round" stroke-linejoin="round"/>
<path d="M329.709 95.0623C330.974 95.0623 332 94.0367 332 92.7716C332 91.5065 330.974 90.481 329.709 90.481C328.444 90.481 327.419 91.5065 327.419 92.7716C327.419 94.0367 328.444 95.0623 329.709 95.0623Z" stroke="#87DDE8" stroke-width="0.652582" stroke-linecap="round" stroke-linejoin="round"/>
<path d="M86.8997 156.91C87.5323 156.91 88.0451 156.397 88.0451 155.765C88.0451 155.132 87.5323 154.619 86.8997 154.619C86.2672 154.619 85.7544 155.132 85.7544 155.765C85.7544 156.397 86.2672 156.91 86.8997 156.91Z" fill="#2CC3D5"/>
<path d="M17.0347 155.765C17.6673 155.765 18.1801 155.252 18.1801 154.619C18.1801 153.987 17.6673 153.474 17.0347 153.474C16.4022 153.474 15.8894 153.987 15.8894 154.619C15.8894 155.252 16.4022 155.765 17.0347 155.765Z" fill="#87DDE8"/>
<path d="M39.9412 207.305C40.5738 207.305 41.0866 206.792 41.0866 206.159C41.0866 205.527 40.5738 205.014 39.9412 205.014C39.3087 205.014 38.7959 205.527 38.7959 206.159C38.7959 206.792 39.3087 207.305 39.9412 207.305Z" fill="#2CC3D5"/>
<path d="M37.6506 237.083C38.2831 237.083 38.7959 236.57 38.7959 235.938C38.7959 235.305 38.2831 234.792 37.6506 234.792C37.018 234.792 36.5052 235.305 36.5052 235.938C36.5052 236.57 37.018 237.083 37.6506 237.083Z" fill="#2CC3D5"/>
<path d="M256.408 164.927C257.041 164.927 257.554 164.415 257.554 163.782C257.554 163.15 257.041 162.637 256.408 162.637C255.776 162.637 255.263 163.15 255.263 163.782C255.263 164.415 255.776 164.927 256.408 164.927Z" fill="#87DDE8"/>
<path d="M270.152 116.824C270.785 116.824 271.298 116.311 271.298 115.678C271.298 115.046 270.785 114.533 270.152 114.533C269.52 114.533 269.007 115.046 269.007 115.678C269.007 116.311 269.52 116.824 270.152 116.824Z" fill="#87DDE8"/>
<path d="M325.128 97.3529C325.761 97.3529 326.273 96.8401 326.273 96.2076C326.273 95.575 325.761 95.0623 325.128 95.0623C324.496 95.0623 323.983 95.575 323.983 96.2076C323.983 96.8401 324.496 97.3529 325.128 97.3529Z" fill="#87DDE8"/>
<path d="M239.228 87.0448C239.861 87.0448 240.374 86.532 240.374 85.8995C240.374 85.2669 239.861 84.7542 239.228 84.7542C238.596 84.7542 238.083 85.2669 238.083 85.8995C238.083 86.532 238.596 87.0448 239.228 87.0448Z" fill="#87DDE8"/>
<path d="M282.751 194.706C283.383 194.706 283.896 194.193 283.896 193.56C283.896 192.928 283.383 192.415 282.751 192.415C282.118 192.415 281.606 192.928 281.606 193.56C281.606 194.193 282.118 194.706 282.751 194.706Z" fill="#87DDE8"/>
<path d="M35.36 205.014C36.6251 205.014 37.6506 203.988 37.6506 202.723C37.6506 201.458 36.6251 200.433 35.36 200.433C34.0949 200.433 33.0693 201.458 33.0693 202.723C33.0693 203.988 34.0949 205.014 35.36 205.014Z" stroke="#87DDE8" stroke-width="0.522066" stroke-linecap="round" stroke-linejoin="round"/>
<path d="M327.419 28.6329C328.051 28.6329 328.564 28.1202 328.564 27.4876C328.564 26.8551 328.051 26.3423 327.419 26.3423C326.786 26.3423 326.273 26.8551 326.273 27.4876C326.273 28.1202 326.786 28.6329 327.419 28.6329Z" fill="#87DDE8"/>
<path d="M326.273 17.1799C327.539 17.1799 328.564 16.1544 328.564 14.8893C328.564 13.6242 327.539 12.5986 326.273 12.5986C325.008 12.5986 323.983 13.6242 323.983 14.8893C323.983 16.1544 325.008 17.1799 326.273 17.1799Z" stroke="#87DDE8" stroke-width="0.522066" stroke-linecap="round" stroke-linejoin="round"/>
<path d="M74.7224 180.887L72.4623 178.401C72.0225 177.918 71.2739 177.882 70.7903 178.322L68.3048 180.582C67.8211 181.022 67.7856 181.77 68.2253 182.254L70.4854 184.74C70.9252 185.223 71.6738 185.259 72.1574 184.819L74.6429 182.559C75.1266 182.119 75.1621 181.371 74.7224 180.887Z" stroke="#87DDE8" stroke-width="0.652582" stroke-linecap="round" stroke-linejoin="round"/>
<path d="M25.4732 223.265L23.2131 220.779C22.7734 220.295 22.0248 220.26 21.5412 220.7L19.0556 222.96C18.572 223.399 18.5364 224.148 18.9762 224.632L21.2363 227.117C21.676 227.601 22.4246 227.636 22.9083 227.197L25.3938 224.937C25.8774 224.497 25.913 223.748 25.4732 223.265Z" stroke="#87DDE8" stroke-width="0.652582" stroke-linecap="round" stroke-linejoin="round"/>
<path d="M237.359 78.9528L235.099 76.4673C234.659 75.9836 233.911 75.9481 233.427 76.3878L230.942 78.6479C230.458 79.0877 230.422 79.8362 230.862 80.3199L233.122 82.8054C233.562 83.2891 234.311 83.3246 234.794 82.8849L237.28 80.6248C237.763 80.185 237.799 79.4364 237.359 78.9528Z" stroke="#87DDE8" stroke-width="0.652582" stroke-linecap="round" stroke-linejoin="round"/>
<path d="M8.29329 149.963L6.03321 147.478C5.59344 146.994 4.84487 146.959 4.36123 147.398L1.8757 149.658C1.39206 150.098 1.35649 150.847 1.79626 151.33L4.05634 153.816C4.49611 154.3 5.24468 154.335 5.72832 153.895L8.21385 151.635C8.69749 151.196 8.73306 150.447 8.29329 149.963Z" stroke="#87DDE8" stroke-width="0.652582" stroke-linecap="round" stroke-linejoin="round"/>
<path d="M254.539 156.835L252.279 154.35C251.839 153.866 251.091 153.831 250.607 154.27L248.121 156.53C247.638 156.97 247.602 157.719 248.042 158.202L250.302 160.688C250.742 161.172 251.49 161.207 251.974 160.767L254.46 158.507C254.943 158.068 254.979 157.319 254.539 156.835Z" stroke="#87DDE8" stroke-width="0.652582" stroke-linecap="round" stroke-linejoin="round"/>
<path d="M51.5026 165.326L49.6945 163.337C49.3427 162.95 48.7438 162.922 48.3569 163.274L46.3685 165.082C45.9816 165.434 45.9531 166.032 46.305 166.419L48.113 168.408C48.4648 168.795 49.0637 168.823 49.4506 168.471L51.439 166.663C51.8259 166.311 51.8544 165.713 51.5026 165.326Z" fill="#2CC3D5"/>
<path d="M276.819 111.968L275.463 110.477C275.199 110.187 274.75 110.166 274.46 110.429L272.968 111.785C272.678 112.049 272.657 112.498 272.921 112.789L274.277 114.28C274.541 114.57 274.99 114.592 275.28 114.328L276.771 112.972C277.061 112.708 277.083 112.259 276.819 111.968Z" fill="#87DDE8"/>
<path d="M221.843 152.055L220.487 150.564C220.223 150.273 219.774 150.252 219.484 150.516L217.993 151.872C217.702 152.136 217.681 152.585 217.945 152.875L219.301 154.366C219.565 154.657 220.014 154.678 220.304 154.414L221.795 153.058C222.086 152.794 222.107 152.345 221.843 152.055Z" fill="#87DDE8"/>
<path d="M319.509 16.4331L317.701 14.4447C317.35 14.0578 316.751 14.0293 316.364 14.3812L314.375 16.1892C313.988 16.541 313.96 17.1399 314.312 17.5268L316.12 19.5152C316.472 19.9021 317.071 19.9306 317.457 19.5788L319.446 17.7707C319.833 17.4189 319.861 16.82 319.509 16.4331Z" fill="#87DDE8"/>
<path d="M82.3138 86.3445L80.5444 84.3216C80.2001 83.928 79.6129 83.9001 79.2329 84.2593L77.2798 86.1055C76.8998 86.4648 76.8708 87.0751 77.2151 87.4687L78.9845 89.4916C79.3288 89.8852 79.916 89.9131 80.296 89.5539L82.2491 87.7077C82.6291 87.3484 82.6581 86.7381 82.3138 86.3445Z" fill="#2CC3D5"/>
<path d="M235.707 214.177H98.6688C97.1441 214.179 95.6378 214.509 94.2518 215.144C92.8659 215.779 91.6326 216.705 90.6355 217.858C89.6385 219.012 88.901 220.366 88.473 221.829C88.0449 223.293 87.9364 224.831 88.1547 226.34L97.9243 293.559C98.1388 295.028 98.8747 296.372 99.9976 297.343C101.121 298.315 102.556 298.85 104.04 298.851H230.336C231.821 298.852 233.257 298.318 234.381 297.346C235.504 296.374 236.24 295.029 236.452 293.559L246.233 226.34C246.451 224.83 246.342 223.291 245.914 221.827C245.485 220.363 244.747 219.008 243.748 217.854C242.75 216.701 241.515 215.775 240.128 215.141C238.741 214.506 237.233 214.177 235.707 214.177Z" fill="#F5F8F9"/>
<path opacity="0.8" d="M178.782 255.999C178.461 254.28 177.616 252.702 176.36 251.476C175.104 250.25 173.499 249.437 171.762 249.146C170.116 248.823 168.443 248.661 166.765 248.663C164.164 248.562 161.581 249.134 159.27 250.324C156.397 252.021 154.973 255.354 155.148 259.716C155.104 262.835 156.21 265.862 158.258 268.229C160.207 270.248 163.942 271.252 166.853 271.376V273.619C166.853 273.981 166.997 274.329 167.254 274.587C167.512 274.845 167.861 274.991 168.227 274.994H168.352C168.637 274.969 168.908 274.856 169.126 274.672C170.25 273.718 171.737 272.442 173.186 271.103L173.823 270.521C174.989 269.528 176.044 268.415 176.971 267.2C179.044 263.85 179.695 259.823 178.782 255.999Z" fill="#D2DFE6"/>
<path d="M293.517 264.413C293.533 264.488 293.533 264.566 293.517 264.642L287.687 295.497C287.687 296.573 283.587 297.444 278.525 297.444C273.474 297.444 269.362 296.573 269.362 295.497L266.041 277.927V277.733C265.502 274.904 264.964 272.086 264.437 269.257C264.437 269.108 264.38 268.948 264.346 268.776V268.524L264.105 267.287L263.613 264.642C263.596 264.566 263.596 264.488 263.613 264.413C263.62 264.284 263.654 264.157 263.711 264.041C263.768 263.925 263.847 263.822 263.945 263.737C264.572 263.225 265.303 262.854 266.086 262.649C267.211 262.305 268.359 262.045 269.522 261.87C272.555 261.415 275.619 261.197 278.685 261.217C286.783 261.217 293.517 262.649 293.517 264.413Z" fill="#F5F8F9"/>
<path d="M293.929 264.069L293.483 262.512H291.089C282.416 260.565 273.419 260.565 264.746 262.512H262.353L261.906 264.069C261.831 264.194 261.791 264.336 261.791 264.482C261.791 266.371 268.995 267.918 277.895 267.918C286.794 267.918 293.998 266.383 293.998 264.482C294.007 264.341 293.983 264.2 293.929 264.069V264.069Z" fill="#ECEAE1"/>
<path d="M294.204 264.733C294.204 266.623 286.989 268.169 278.101 268.169C269.213 268.169 261.997 266.634 261.997 264.733C261.996 264.591 262.036 264.452 262.112 264.332L262.33 263.542L262.547 262.763H264.952C273.627 260.831 282.62 260.831 291.295 262.763H293.7L294.135 264.332C294.194 264.457 294.218 264.596 294.204 264.733Z" fill="#1D1D1D"/>
<path d="M277.94 265.81C286.524 265.81 293.483 264.334 293.483 262.512C293.483 260.69 286.524 259.213 277.94 259.213C269.357 259.213 262.398 260.69 262.398 262.512C262.398 264.334 269.357 265.81 277.94 265.81Z" fill="#333333"/>
<path d="M293.059 261.538L292.898 261.057H292.555C290.642 259.728 284.824 258.766 277.929 258.766C271.034 258.766 265.216 259.728 263.303 261.057H263.005L262.845 261.48C262.719 261.628 262.646 261.813 262.639 262.007C262.639 263.805 269.511 265.26 277.929 265.26C286.347 265.26 293.219 263.805 293.219 262.007C293.213 261.838 293.157 261.675 293.059 261.538V261.538Z" fill="#1D1D1D"/>
<path d="M277.94 264.493C286.208 264.493 292.91 263.067 292.91 261.309C292.91 259.551 286.208 258.125 277.94 258.125C269.673 258.125 262.971 259.551 262.971 261.309C262.971 263.067 269.673 264.493 277.94 264.493Z" fill="#333333"/>
<path d="M291.341 260.977L290.436 257.609H265.445L264.54 260.977C264.483 261.078 264.452 261.192 264.448 261.309C264.448 262.889 270.484 264.172 277.94 264.172C285.397 264.172 291.432 262.889 291.432 261.309C291.429 261.192 291.398 261.078 291.341 260.977V260.977Z" fill="#1D1D1D"/>
<path d="M277.94 260.267C284.842 260.267 290.436 259.077 290.436 257.61C290.436 256.142 284.842 254.953 277.94 254.953C271.039 254.953 265.445 256.142 265.445 257.61C265.445 259.077 271.039 260.267 277.94 260.267Z" fill="#333333"/>
<path d="M277.94 259.648C283.229 259.648 287.515 258.735 287.515 257.609C287.515 256.483 283.229 255.57 277.94 255.57C272.652 255.57 268.365 256.483 268.365 257.609C268.365 258.735 272.652 259.648 277.94 259.648Z" fill="#F8F7EF"/>
<path d="M268.583 258.044L268.743 258.181L268.583 258.044Z" fill="#F8F7EF"/>
<path d="M287.332 258.044L287.172 258.181L287.332 258.044Z" fill="#F8F7EF"/>
<path d="M277.883 255.067C282.625 255.067 286.633 256.121 287.905 257.575C286.633 259.019 282.625 260.084 277.883 260.084C273.142 260.084 269.121 259.019 267.85 257.575C269.121 256.121 273.13 255.067 277.883 255.067Z" fill="#333333"/>
<path d="M277.883 256.705C282.224 256.705 285.901 257.323 287.046 258.171C285.901 259.018 282.201 259.625 277.883 259.625C273.565 259.625 269.866 259.018 268.721 258.171C269.866 257.323 273.588 256.705 277.883 256.705Z" fill="#333333"/>
<path d="M272.306 259.259C273.081 259.143 273.846 258.97 274.596 258.743C274.728 258.717 274.847 258.645 274.933 258.541C275.018 258.436 275.065 258.306 275.065 258.171C275.065 258.036 275.018 257.905 274.933 257.8C274.847 257.696 274.728 257.625 274.596 257.598C273.846 257.371 273.081 257.198 272.306 257.083C271.063 257.196 269.855 257.558 268.755 258.148C269.851 258.754 271.059 259.132 272.306 259.259V259.259Z" fill="#333333"/>
<path d="M272.306 258.136C273.082 258.247 273.848 258.419 274.596 258.652H274.699C274.798 258.597 274.879 258.513 274.932 258.413C274.985 258.312 275.007 258.199 274.996 258.086C274.985 257.973 274.941 257.865 274.87 257.777C274.799 257.688 274.704 257.622 274.596 257.587C273.846 257.359 273.081 257.187 272.306 257.071C271.063 257.185 269.855 257.547 268.755 258.136C269.088 258.358 269.451 258.531 269.832 258.652C270.64 258.412 271.468 258.239 272.306 258.136V258.136Z" fill="#1D1D1D"/>
<path d="M287.515 257.61V257.69V257.747V257.816L287.424 257.953L287.355 258.022L287.183 258.159C286.038 257.323 282.35 256.705 278.021 256.705C273.691 256.705 270.003 257.323 268.858 258.159L268.686 258.022L268.618 257.953C268.579 257.913 268.548 257.866 268.526 257.816V257.747C268.526 257.747 268.526 257.747 268.526 257.69V257.61C268.526 256.464 272.809 255.582 278.101 255.582C283.392 255.582 287.515 256.487 287.515 257.61Z" fill="#F8F7EF"/>
<path d="M287.515 257.61V257.69V257.747V257.816L287.424 257.953L287.355 258.022L287.183 258.159C286.038 257.323 282.35 256.705 278.021 256.705C273.691 256.705 270.003 257.323 268.858 258.159L268.686 258.022L268.618 257.953C268.579 257.913 268.548 257.866 268.526 257.816V257.747C268.526 257.747 268.526 257.747 268.526 257.69V257.61C268.526 256.464 272.809 255.582 278.101 255.582C283.392 255.582 287.515 256.487 287.515 257.61Z" fill="#1D1D1D"/>
<path d="M292.017 273.495C292.027 273.559 292.027 273.625 292.017 273.689V273.495Z" fill="#F8F7EF"/>
<path d="M278.17 275.832C277.037 275.832 275.93 276.168 274.988 276.797C274.046 277.426 273.312 278.321 272.879 279.367C272.445 280.413 272.332 281.565 272.553 282.676C272.774 283.786 273.319 284.807 274.12 285.608C274.921 286.409 275.942 286.954 277.052 287.175C278.163 287.396 279.315 287.283 280.361 286.849C281.408 286.416 282.302 285.682 282.931 284.74C283.56 283.798 283.896 282.691 283.896 281.558C283.896 280.04 283.293 278.583 282.219 277.509C281.145 276.435 279.688 275.832 278.17 275.832V275.832ZM276.314 279.268C276.696 279.045 277.151 278.981 277.579 279.09C278.008 279.2 278.376 279.473 278.605 279.852V279.852C278.362 280.087 278.069 280.263 277.747 280.366C277.425 280.47 277.084 280.497 276.749 280.447C276.437 280.396 276.118 280.413 275.813 280.498C275.508 280.583 275.226 280.734 274.986 280.94C274.997 280.559 275.126 280.191 275.356 279.887C275.586 279.584 275.905 279.359 276.268 279.245L276.314 279.268ZM274.963 281.192C275.179 280.97 275.448 280.806 275.744 280.714C276.04 280.622 276.354 280.605 276.658 280.665C277.076 280.708 277.499 280.657 277.895 280.516C278.148 280.42 278.382 280.276 278.582 280.092C278.566 280.482 278.427 280.856 278.184 281.161C277.941 281.466 277.607 281.685 277.23 281.787C276.849 282.002 276.399 282.061 275.976 281.949C275.553 281.838 275.189 281.566 274.963 281.192V281.192ZM276.715 282.406C276.974 282.06 277.355 281.825 277.781 281.751C278.207 281.676 278.645 281.767 279.006 282.005V282.005C278.884 282.322 278.691 282.606 278.44 282.835C278.19 283.063 277.889 283.23 277.563 283.322C277.259 283.399 276.975 283.541 276.732 283.739C276.488 283.937 276.291 284.186 276.154 284.468C276.006 284.099 275.98 283.693 276.081 283.309C276.182 282.926 276.405 282.585 276.715 282.337V282.406ZM278.605 284.307C277.86 285.04 276.841 285.223 276.314 284.697C276.427 284.413 276.606 284.16 276.838 283.96C277.069 283.761 277.345 283.621 277.643 283.551C278.043 283.424 278.408 283.204 278.708 282.91C278.901 282.719 279.056 282.494 279.166 282.246C279.293 282.602 279.307 282.989 279.207 283.353C279.106 283.718 278.896 284.043 278.605 284.284V284.307ZM279.052 280.047C279.258 279.016 280.014 278.294 280.735 278.443C280.811 278.772 280.81 279.114 280.73 279.442C280.651 279.77 280.495 280.075 280.277 280.333C280.066 280.57 279.91 280.852 279.821 281.157C279.731 281.462 279.711 281.783 279.762 282.097C279.446 281.87 279.208 281.552 279.081 281.185C278.953 280.817 278.943 280.42 279.052 280.047ZM281.697 280.562C281.491 281.593 280.735 282.314 280.014 282.177C279.943 281.874 279.946 281.558 280.024 281.257C280.102 280.956 280.252 280.678 280.46 280.447C280.723 280.112 280.903 279.72 280.987 279.302C281.039 279.034 281.039 278.757 280.987 278.489C281.304 278.714 281.543 279.033 281.671 279.4C281.798 279.768 281.807 280.166 281.697 280.539V280.562Z" fill="#007B47"/>
<path opacity="0.08" d="M278.179 257.592C278.179 257.592 274.938 253.962 274.342 253.469C272.838 252.349 271.407 251.132 270.059 249.827C269.799 249.553 269.572 249.249 269.383 248.922C269.198 248.618 269.077 248.279 269.028 247.926C268.975 247.565 269.023 247.196 269.166 246.861C269.325 246.489 269.563 246.157 269.864 245.887C270.746 245.168 271.756 244.624 272.842 244.284C274.652 243.656 276.505 243.159 278.385 242.795C279.247 242.628 280.094 242.39 280.917 242.084C281.358 241.939 281.77 241.714 282.131 241.42C282.197 241.36 282.255 241.29 282.302 241.214C282.307 241.191 282.307 241.168 282.302 241.145C282.304 241.119 282.304 241.092 282.302 241.065C282.271 240.997 282.229 240.935 282.176 240.882C281.635 240.37 280.991 239.979 280.287 239.737C279.376 239.365 278.421 239.111 277.446 238.981C275.971 238.799 274.517 238.473 273.105 238.007C272.141 237.69 271.258 237.167 270.517 236.472C270.224 236.178 269.988 235.832 269.818 235.453C269.66 235.092 269.582 234.702 269.589 234.308C269.629 233.556 269.91 232.837 270.391 232.258C271.403 231.053 272.714 230.136 274.194 229.6C274.786 229.368 275.4 229.191 276.026 229.074C276.179 229.063 276.332 229.063 276.484 229.074C277.297 229.074 278.718 229.074 278.408 230.219C278.133 231.089 277.595 231.066 276.748 231.204L276.415 231.261C275.924 231.354 275.441 231.488 274.972 231.662C273.852 232.034 272.846 232.689 272.052 233.563C271.84 233.793 271.701 234.08 271.651 234.388C271.628 234.486 271.628 234.588 271.651 234.686C271.709 234.836 271.799 234.973 271.914 235.087C272.438 235.562 273.054 235.925 273.724 236.152C276.152 237.068 278.488 237.045 280.928 238.087C281.906 238.46 282.779 239.065 283.471 239.851C283.62 240.047 283.739 240.263 283.826 240.492C283.926 240.739 283.965 241.006 283.94 241.271C283.925 241.547 283.842 241.814 283.7 242.05C283.558 242.29 283.376 242.503 283.161 242.68C282.639 243.088 282.05 243.402 281.421 243.608C280.504 243.909 279.566 244.143 278.614 244.306C276.792 244.607 274.99 245.024 273.22 245.555C272.317 245.818 271.465 246.232 270.7 246.78C270.516 246.927 270.364 247.11 270.254 247.319C270.186 247.47 270.159 247.635 270.173 247.8C270.2 248.012 270.266 248.218 270.368 248.407C270.515 248.672 270.683 248.925 270.872 249.163C272.122 250.492 273.453 251.743 274.858 252.908C275.408 253.469 278.534 256.642 278.179 257.592Z" fill="black"/>
<path opacity="0.08" d="M282.6 257.421C282.6 257.421 282.6 257.226 282.658 257.215C282.711 256.741 282.636 256.263 282.44 255.829C282.238 255.42 281.953 255.057 281.604 254.764C280.73 254.084 279.781 253.508 278.775 253.046C277.719 252.565 276.733 251.945 275.843 251.202C275.443 250.839 275.126 250.393 274.915 249.896C274.707 249.356 274.664 248.766 274.789 248.201C274.852 247.889 274.999 247.6 275.213 247.365C275.431 247.116 275.691 246.907 275.98 246.746C276.661 246.376 277.389 246.102 278.145 245.933C279.886 245.498 281.638 245.269 283.402 244.914C284.112 244.773 284.809 244.574 285.486 244.318C285.715 244.234 285.931 244.118 286.128 243.975C286.252 243.898 286.354 243.792 286.426 243.665C286.478 243.575 286.498 243.47 286.483 243.368C286.448 243.17 286.369 242.982 286.254 242.818C286.005 242.445 285.712 242.103 285.383 241.798C285.028 241.455 284.318 240.882 284.731 240.367C285.143 239.851 285.99 240.573 286.345 240.905C286.753 241.291 287.111 241.725 287.411 242.199C287.61 242.515 287.735 242.871 287.777 243.242C287.813 243.583 287.741 243.928 287.571 244.227C287.405 244.513 287.173 244.756 286.895 244.937C286.611 245.131 286.303 245.289 285.979 245.406C285.233 245.669 284.467 245.872 283.688 246.013C281.936 246.323 280.184 246.517 278.443 246.884C277.78 247.018 277.137 247.238 276.53 247.537C276.325 247.637 276.139 247.773 275.98 247.937C275.862 248.06 275.775 248.209 275.728 248.373C275.614 248.785 275.614 249.22 275.728 249.633C275.878 250.026 276.112 250.382 276.415 250.675C277.23 251.393 278.13 252.009 279.096 252.507C280.12 253.029 281.071 253.684 281.925 254.454C282.286 254.806 282.568 255.232 282.749 255.703C282.909 256.198 282.909 256.731 282.749 257.226V257.226C282.749 257.226 282.635 257.432 282.6 257.421Z" fill="black"/>
<g opacity="0.8" filter="url(#filter3_f)">
<path d="M237.041 306.101C237.041 304.005 241.817 302.31 247.727 302.31C253.637 302.31 258.413 304.005 258.413 306.101C258.413 308.197 253.625 309.892 247.727 309.892C241.828 309.892 237.041 308.185 237.041 306.101Z" fill="#D2DFE6"/>
</g>
<path d="M258.665 285.725C258.665 287.088 258.665 299.984 258.665 301.187C258.436 305.23 256.901 308.529 247.807 308.529C238.358 308.529 237.075 305.001 236.938 300.706C236.938 299.641 236.938 286.905 236.938 285.725C236.938 279.769 237.167 286.401 247.807 286.401C258.447 286.401 258.665 279.769 258.665 285.725Z" fill="#2CC3D5"/>
<path d="M258.562 283.789C258.562 285.908 253.74 287.638 247.784 287.638C241.828 287.638 237.006 285.908 237.006 283.789C237.006 281.671 241.828 279.93 247.784 279.93C253.74 279.93 258.562 281.659 258.562 283.789Z" fill="#2CC3D5"/>
<path d="M257.611 283.858C257.611 285.656 253.247 287.111 247.853 287.111C242.458 287.111 238.083 285.656 238.083 283.858C238.083 282.06 242.458 280.605 247.853 280.605C253.247 280.605 257.611 282.06 257.611 283.858Z" fill="#2498A8"/>
<mask id="mask0" mask-type="alpha" maskUnits="userSpaceOnUse" x="238" y="280" width="20" height="8">
<path d="M257.611 283.858C257.611 285.656 253.247 287.111 247.853 287.111C242.458 287.111 238.083 285.656 238.083 283.858C238.083 282.06 242.458 280.605 247.853 280.605C253.247 280.605 257.611 282.06 257.611 283.858Z" fill="#2498A8"/>
</mask>
<g mask="url(#mask0)">
<path d="M237.911 285.839C237.911 287.477 242.275 288.806 247.658 288.806C253.041 288.806 257.416 287.477 257.416 285.839C257.416 284.202 253.052 282.885 247.658 282.885C242.263 282.885 237.911 284.213 237.911 285.839Z" fill="#594339"/>
</g>
<path d="M251.231 265.808C251.388 265.731 251.564 265.701 251.737 265.723C251.91 265.745 252.073 265.817 252.206 265.93C252.339 266.043 252.436 266.193 252.484 266.361C252.533 266.528 252.531 266.706 252.48 266.873C251.678 269.416 250.189 274.547 250.189 276.288C250.258 278.647 246.284 277.17 246.284 277.17L244.05 274.604C244.05 274.604 247.532 267.583 251.231 265.808Z" fill="#8E9F20"/>
<path d="M238.622 268.225C240.992 274.89 242.057 284.133 244.646 285.496C245.883 286.126 249.995 285.851 249.995 285.851C250.246 285.853 250.494 285.799 250.723 285.695C250.952 285.591 251.155 285.438 251.318 285.247C251.482 285.056 251.602 284.832 251.67 284.591C251.738 284.349 251.753 284.095 251.713 283.847C251.151 280.273 248.895 272.68 239.824 267.159C239.67 267.071 239.492 267.033 239.316 267.051C239.139 267.069 238.973 267.142 238.84 267.26C238.707 267.378 238.615 267.534 238.576 267.707C238.536 267.88 238.552 268.061 238.622 268.225V268.225Z" fill="#B3C924"/>
<path d="M257.748 268.225C255.366 274.89 254.186 283.377 252.022 285.405C251.048 286.298 246.387 285.897 246.387 285.897C246.136 285.897 245.888 285.842 245.661 285.737C245.433 285.632 245.231 285.479 245.068 285.289C244.905 285.099 244.785 284.876 244.716 284.635C244.647 284.394 244.631 284.141 244.669 283.893C245.23 280.319 247.498 272.726 256.569 267.205C256.718 267.132 256.885 267.105 257.05 267.126C257.215 267.148 257.369 267.217 257.495 267.325C257.621 267.434 257.712 267.577 257.757 267.737C257.802 267.897 257.799 268.066 257.748 268.225V268.225Z" fill="#BED42B"/>
<path d="M256.592 277.009C255.63 279.163 254.404 283.881 253.534 285.118C252.972 285.909 251.701 285.943 249.754 285.943C249.021 285.943 249.869 280.216 255.996 276.483C256.072 276.433 256.161 276.41 256.251 276.417C256.342 276.423 256.427 276.459 256.495 276.519C256.562 276.579 256.608 276.659 256.626 276.748C256.643 276.836 256.631 276.928 256.592 277.009V277.009Z" fill="#C5DC2D"/>
<path d="M238.587 276.414C239.606 278.704 240.878 283.744 241.828 285.015C242.424 285.851 244.119 285.897 246.226 285.897C247.017 285.897 245.734 279.804 239.228 275.841C239.146 275.789 239.049 275.765 238.952 275.772C238.855 275.78 238.764 275.82 238.691 275.884C238.618 275.949 238.569 276.036 238.55 276.132C238.531 276.227 238.544 276.326 238.587 276.414V276.414Z" fill="#C5DC2D"/>
<path d="M76.7979 284.477H21.5129V269.427H76.7979C78.6205 269.427 80.3684 270.151 81.6572 271.44C82.9459 272.729 83.6699 274.477 83.6699 276.299V277.628C83.6639 279.447 82.9372 281.189 81.6491 282.472C80.361 283.756 78.6165 284.477 76.7979 284.477Z" fill="#F5F8F9"/>
<path d="M19.3254 270.103H77.9433C81.1044 270.103 83.6699 272.394 83.6699 275.131V278.315C83.6699 281.087 81.1158 283.343 77.9433 283.343H19.3254" stroke="#F99B45" stroke-width="4.03296" stroke-miterlimit="10"/>
<path d="M83.0285 268.167H27.7435V253.118H83.0285C84.8511 253.118 86.599 253.842 87.8878 255.13C89.1765 256.419 89.9005 258.167 89.9005 259.99V261.318C89.8944 263.137 89.1678 264.879 87.8797 266.163C86.5916 267.446 84.8471 268.167 83.0285 268.167V268.167Z" fill="#F5F8F9"/>
<path d="M25.556 253.793H84.1739C87.335 253.793 89.9005 256.084 89.9005 258.821V262.005C89.9005 264.777 87.3464 267.033 84.1739 267.033H25.556" stroke="#F66689" stroke-width="4.03296" stroke-miterlimit="10"/>
<path d="M80.0965 304.268H25.556V285.782H80.0965C82.1125 285.786 84.0451 286.588 85.4707 288.013C86.8962 289.439 87.6985 291.371 87.7015 293.387V296.663C87.7015 298.68 86.9003 300.614 85.474 302.041C84.0478 303.467 82.1135 304.268 80.0965 304.268V304.268Z" fill="#F5F8F9"/>
<path d="M23.3684 286.63H81.9863C83.5622 286.69 85.05 287.372 86.1235 288.527C87.1971 289.682 87.7687 291.216 87.713 292.792V296.709C87.7687 298.285 87.1971 299.818 86.1235 300.974C85.05 302.129 83.5622 302.811 81.9863 302.871H23.3684" stroke="#2CC3D5" stroke-width="4.03296" stroke-miterlimit="10"/>
<path d="M182.848 20.2095C181.27 18.2193 179.032 17.4202 177.174 15.6882L176.565 15.8266C178.39 17.474 180.09 19.2547 181.651 21.1541C182.42 22.1318 183.211 23.0215 183.848 24.12C184.536 25.1309 185.159 26.1838 185.715 27.2725C187.999 31.6294 188.772 36.6212 187.912 41.4646C186.797 46.3207 184.537 50.84 181.322 54.6461C184.837 50.9978 187.389 46.532 188.747 41.6513C189.796 36.5961 189.143 31.3359 186.891 26.6904C185.791 24.3853 184.435 22.2113 182.848 20.2095Z" fill="#2C2A46"/>
<path d="M163.286 46.0145C162.256 44.9405 161.01 44.0956 159.631 43.535C158.252 42.9744 156.77 42.7105 155.282 42.7606C152.298 42.7898 149.348 43.3978 146.596 44.5508C143.874 45.6955 141.366 47.2928 139.178 49.2749C136.963 51.2226 134.978 53.4164 133.261 55.8136C131.523 58.2043 130.06 60.7828 128.898 63.5005C127.744 66.1958 127.006 69.0508 126.709 71.9679C126.11 77.8136 127.764 83.6677 131.334 88.3353C132.196 89.499 133.155 90.5727 134.147 91.7952C135.109 92.996 135.983 94.2644 136.763 95.5904C138.298 98.2783 139.356 101.211 139.89 104.26C140.991 110.359 139.946 116.463 139.608 122.343C139.336 125.25 139.773 128.18 140.882 130.88C141.521 132.177 142.381 133.353 143.423 134.354C144.493 135.352 145.68 136.217 146.958 136.929C149.649 138.36 152.022 140.32 153.937 142.69C154.851 143.884 155.624 145.18 156.24 146.552C156.83 147.946 157.34 149.372 157.767 150.824C156.866 147.971 155.455 145.306 153.602 142.958C151.643 140.727 149.254 138.915 146.577 137.631C145.205 136.929 143.924 136.061 142.763 135.047C141.613 133.992 140.656 132.745 139.934 131.361C138.677 128.525 138.128 125.426 138.334 122.331C138.382 119.279 138.715 116.305 138.854 113.334C139.055 110.387 138.912 107.427 138.429 104.514C137.9 101.646 136.881 98.8902 135.416 96.3688C134.664 95.1184 133.826 93.9217 132.909 92.7871C131.998 91.684 130.941 90.537 130.019 89.2936C128.186 86.8078 126.819 84.0101 125.984 81.0363C125.156 78.0461 124.913 74.924 125.268 71.8416C125.595 68.7847 126.393 65.7968 127.634 62.9839C128.844 60.1657 130.403 57.5106 132.275 55.081C134.095 52.6457 136.191 50.4291 138.521 48.4756C140.829 46.4722 143.471 44.8884 146.326 43.7957C149.184 42.7426 152.22 42.2536 155.265 42.3559C156.787 42.4241 158.286 42.7586 159.693 43.3443C161.101 43.9092 162.339 44.8291 163.286 46.0145V46.0145Z" fill="#2C2A46"/>
<path d="M157.761 49.167C158.292 47.7761 159.109 46.5126 160.161 45.4588C161.212 44.405 162.474 43.5845 163.864 43.0507C166.623 41.9145 169.577 41.3245 172.561 41.3135C175.514 41.3069 178.446 41.8003 181.234 42.7727C184.032 43.7034 186.715 44.9499 189.231 46.4881C191.763 48.0125 194.116 49.8167 196.245 51.8668C198.358 53.8989 200.151 56.2404 201.561 58.8112C204.392 63.9609 205.15 69.9968 203.682 75.6867C203.341 77.0945 202.877 78.4569 202.439 79.9696C202.022 81.4502 201.711 82.9589 201.51 84.4841C201.144 87.5576 201.313 90.6712 202.009 93.6871C203.373 99.7326 206.714 104.947 209.317 110.23C210.701 112.801 211.44 115.669 211.471 118.589C211.388 120.032 211.055 121.45 210.485 122.778C209.889 124.114 209.133 125.373 208.233 126.527C206.313 128.894 204.891 131.623 204.051 134.553C203.676 136.009 203.469 137.504 203.437 139.007C203.436 140.52 203.522 142.033 203.695 143.536C203.413 140.558 203.673 137.554 204.465 134.669C205.399 131.851 206.893 129.251 208.858 127.025C209.848 125.844 210.689 124.545 211.363 123.159C212.011 121.739 212.406 120.217 212.532 118.662C212.584 115.56 211.882 112.492 210.486 109.722C209.252 106.93 207.786 104.322 206.499 101.639C205.166 99.004 204.144 96.2226 203.454 93.3511C202.822 90.5039 202.687 87.569 203.054 84.6757C203.259 83.2313 203.564 81.8028 203.966 80.4005C204.375 79.0295 204.901 77.5612 205.266 76.0568C205.985 73.0531 206.154 69.9437 205.763 66.8798C205.361 63.8032 204.368 60.8333 202.839 58.1332C201.346 55.4455 199.447 53.0049 197.208 50.898C194.995 48.7745 192.524 46.9372 189.853 45.4293C187.228 43.8959 184.434 42.6716 181.527 41.7806C178.62 40.8355 175.57 40.4065 172.515 40.5129C169.472 40.6573 166.486 41.3903 163.722 42.6712C162.347 43.3274 161.097 44.2196 160.03 45.3072C158.953 46.3763 158.171 47.7061 157.761 49.167V49.167Z" fill="#2C2A46"/>
<path d="M206.011 79.9522V117.21C206.011 133.95 193.424 147.933 176.638 151.354C174.001 151.883 171.317 152.147 168.628 152.144H166.671C163.981 152.147 161.297 151.879 158.661 151.343C141.875 147.91 129.299 133.939 129.299 117.21V79.9522C129.299 60.6599 146.029 45.0178 166.648 45.0178H168.639C189.293 45.0178 206.011 60.6599 206.011 79.9522Z" fill="#2C2A46"/>
<path d="M168.113 171.997C174.464 171.997 179.613 167.755 179.613 162.522C179.613 157.29 174.464 153.048 168.113 153.048C161.762 153.048 156.613 157.29 156.613 162.522C156.613 167.755 161.762 171.997 168.113 171.997Z" fill="#F3C29F"/>
<path d="M168.113 171.997C174.464 171.997 179.613 167.755 179.613 162.522C179.613 157.29 174.464 153.048 168.113 153.048C161.762 153.048 156.613 157.29 156.613 162.522C156.613 167.755 161.762 171.997 168.113 171.997Z" stroke="white" stroke-width="1.65321" stroke-miterlimit="10"/>
<path d="M169.04 140.495H167.175C164.647 140.499 162.126 140.227 159.657 139.683V161.424C159.655 162.42 159.85 163.406 160.23 164.326C160.61 165.247 161.168 166.083 161.871 166.788C162.575 167.492 163.411 168.051 164.33 168.433C165.25 168.814 166.236 169.01 167.232 169.01H168.983C169.978 169.01 170.964 168.814 171.884 168.433C172.804 168.051 173.639 167.492 174.343 166.788C175.047 166.083 175.604 165.247 175.984 164.326C176.364 163.406 176.559 162.42 176.558 161.424V139.671C174.088 140.214 171.568 140.49 169.04 140.495V140.495Z" fill="#F3C29F"/>
<path d="M159.68 145.576V151.835C159.68 151.835 161.499 148.734 168.136 148.7C174.773 148.665 176.58 152.132 176.58 152.132V144.615L159.68 144.306V145.576Z" fill="#E8AA7D"/>
<path d="M204.203 74.7235V111.248C204.203 127.646 192.371 141.354 176.558 144.707C174.086 145.228 171.566 145.489 169.04 145.485H167.175C164.648 145.49 162.128 145.225 159.657 144.695C143.855 141.354 132.011 127.634 132.011 111.248V74.7235C132.011 55.8087 147.757 40.4756 167.175 40.4756H169.04C188.47 40.4756 204.203 55.8202 204.203 74.7235Z" fill="#F3C29F"/>
<path d="M132.011 94.5535V110.642C130.575 110.618 129.205 110.029 128.199 109.004C127.192 107.978 126.63 106.598 126.633 105.161V100.034C126.633 98.5985 127.196 97.2198 128.202 96.1948C129.208 95.1698 130.576 94.5804 132.011 94.5535Z" fill="#F3C29F"/>
<path d="M209.581 100.034V105.161C209.584 106.598 209.022 107.978 208.016 109.004C207.009 110.029 205.64 110.618 204.203 110.642V94.5535C205.639 94.5804 207.007 95.1698 208.012 96.1948C209.018 97.2198 209.581 98.5985 209.581 100.034V100.034Z" fill="#F3C29F"/>
<path d="M203.356 83.9573C203.356 83.9573 204.02 95.48 203.356 99.9083C202.693 104.337 206.011 83.9573 206.011 83.9573H203.356Z" fill="#2C2A46"/>
<path d="M133.293 90.1472C133.293 90.1472 132.686 101.67 133.293 106.167C133.899 110.664 130.638 90.1472 130.638 90.1472H133.293Z" fill="#2C2A46"/>
<path d="M152.597 33.5525C152.128 29.976 152.791 26.3425 154.492 23.162C156.194 19.9815 158.849 17.4138 162.084 15.8193C165.32 14.2247 168.973 13.6835 172.532 14.2715C176.091 14.8596 179.376 16.5473 181.927 19.0979C184.477 21.6485 186.165 24.9338 186.753 28.4926C187.341 32.0514 186.8 35.705 185.205 38.9405C183.611 42.176 181.043 44.8309 177.863 46.5325C174.682 48.234 171.049 48.8969 167.472 48.4279C163.7 47.9333 160.197 46.207 157.507 43.5171C154.818 40.8272 153.091 37.3243 152.597 33.5525V33.5525Z" fill="#2C2A46"/>
<path d="M163.055 27.4528L169.715 41.779L181.512 14.0535" stroke="#F66689" stroke-width="3.30642" stroke-linecap="round" stroke-linejoin="round"/>
<path d="M132.961 96.2468C131.589 96.4076 130.208 96.0283 129.11 95.189C128.012 94.3497 127.284 93.1164 127.079 91.7498C126.702 89.2096 126.301 86.2688 126.175 84.4265C124.791 64.7452 140.696 41.7683 158.455 41.7683H183.091C204.34 44.423 212.465 69.8943 207.739 90.0563C207.639 90.4693 207.448 90.8548 207.18 91.1848C206.912 91.5147 206.574 91.7809 206.191 91.9639C205.807 92.1469 205.388 92.2421 204.963 92.2427C204.538 92.2433 204.118 92.1492 203.734 91.9672C202.258 91.2921 200.141 90.3538 197.166 89.1066C189.064 85.6738 183.663 73.7048 183.663 73.7048C183.663 73.7048 183.663 80.1699 164.44 89.1066C155.812 93.1229 140.799 95.3199 132.961 96.2468Z" fill="#2C2A46"/>
<path d="M186.452 62.3767C186.038 65.3072 185.369 68.1961 184.453 71.0106C183.565 73.8563 182.433 76.62 181.07 79.271C179.728 81.9651 178.089 84.5001 176.182 86.8283C175.217 87.9918 174.178 89.0925 173.073 90.1237C172.491 90.618 171.898 91.1013 171.304 91.5847C171.008 91.8263 170.722 92.079 170.404 92.2987L169.437 92.9138C164.267 96.0211 158.552 98.1127 152.598 99.0761C149.669 99.5981 146.706 99.9029 143.733 99.9878C140.775 100.091 137.813 99.9404 134.88 99.5375C140.724 99.3942 146.539 98.6582 152.235 97.3406C155.046 96.6991 157.81 95.866 160.507 94.8471C161.188 94.6054 161.836 94.3088 162.506 94.0232C163.176 93.7376 163.835 93.485 164.461 93.1445L166.383 92.1778C167.009 91.8373 167.57 91.4309 168.174 91.0794L169.075 90.5301C169.36 90.3324 169.624 90.1017 169.898 89.8821L171.59 88.487C172.59 87.4764 173.644 86.5318 174.545 85.4223C176.419 83.2388 178.075 80.8768 179.488 78.3702C180.963 75.8642 182.27 73.2624 183.398 70.5822C184.557 67.9014 185.576 65.1626 186.452 62.3767V62.3767Z" fill="#2C2A46"/>
<defs>
<filter id="filter0_f" x="262.716" y="286.913" width="32.0519" height="16.0173" filterUnits="userSpaceOnUse" color-interpolation-filters="sRGB">
<feFlood flood-opacity="0" result="BackgroundImageFix"/>
<feBlend mode="normal" in="SourceGraphic" in2="BackgroundImageFix" result="shape"/>
<feGaussianBlur stdDeviation="2" result="effect1_foregroundBlur"/>
</filter>
<filter id="filter1_f" x="86.3357" y="290.349" width="169.491" height="16.0173" filterUnits="userSpaceOnUse" color-interpolation-filters="sRGB">
<feFlood flood-opacity="0" result="BackgroundImageFix"/>
<feBlend mode="normal" in="SourceGraphic" in2="BackgroundImageFix" result="shape"/>
<feGaussianBlur stdDeviation="2" result="effect1_foregroundBlur"/>
</filter>
<filter id="filter2_f" x="9.59869" y="296.076" width="93.8996" height="14.872" filterUnits="userSpaceOnUse" color-interpolation-filters="sRGB">
<feFlood flood-opacity="0" result="BackgroundImageFix"/>
<feBlend mode="normal" in="SourceGraphic" in2="BackgroundImageFix" result="shape"/>
<feGaussianBlur stdDeviation="2" result="effect1_foregroundBlur"/>
</filter>
<filter id="filter3_f" x="233.041" y="298.31" width="29.3718" height="15.5821" filterUnits="userSpaceOnUse" color-interpolation-filters="sRGB">
<feFlood flood-opacity="0" result="BackgroundImageFix"/>
<feBlend mode="normal" in="SourceGraphic" in2="BackgroundImageFix" result="shape"/>
<feGaussianBlur stdDeviation="2" result="effect1_foregroundBlur"/>
</filter>
<linearGradient id="paint0_linear" x1="166.723" y1="310.606" x2="166.939" y2="157.475" gradientUnits="userSpaceOnUse">
<stop offset="0.108095" stop-color="#DAF2F4"/>
<stop offset="1" stop-color="#DAF2F4" stop-opacity="0"/>
</linearGradient>
</defs>
</svg>
