<svg width="552" height="270" viewBox="0 0 552 270" fill="none" xmlns="http://www.w3.org/2000/svg">
<rect x="459.859" y="0.782898" width="91.638" height="91.638" rx="9.79616" fill="#F5F8F9"/>
<ellipse cx="505.506" cy="46.4303" rx="30.8331" ry="30.8331" fill="#D2DFE6"/>
<circle cx="492.932" cy="46.6026" r="4.13404" fill="#738192"/>
<circle cx="518.079" cy="46.6024" r="4.13404" fill="#738192"/>
<path d="M145.908 137.588C158.721 118.442 215.6 87.5965 263.378 111.676C272.335 116.191 294.274 131.768 335.22 135.43C388.34 140.18 399.997 107.091 436.706 107.091" stroke="#D2DFE6" stroke-width="5.39145"/>
<path d="M158.438 251.544L155.1 232.903H113.898L110.548 251.544H158.438Z" fill="#DEE8EC"/>
<path d="M0 202.127H268.987V226.146C268.987 227.938 268.275 229.657 267.008 230.924C265.741 232.191 264.022 232.903 262.23 232.903H6.75685C4.96482 232.903 3.24619 232.191 1.97903 230.924C0.711871 229.657 0 227.938 0 226.146V202.127Z" fill="#E7EEF1"/>
<path d="M261.582 54H7.40733C5.44305 54 3.55922 54.7803 2.17026 56.1693C0.781304 57.5582 0.000991821 59.4421 0.000991821 61.4063V202.127H268.988V61.4063C268.988 59.4421 268.208 57.5582 266.819 56.1693C265.43 54.7803 263.546 54 261.582 54Z" fill="#191E27"/>
<path d="M258.646 63.2907H9.2911V193.836H258.646V63.2907Z" fill="#F5F8F9"/>
<rect x="105.19" y="250.497" width="59.0696" height="3.6165" fill="#E7EEF1"/>
<path d="M258.831 63.2908H9.29269V193.933H258.831V63.2908Z" fill="#F5F8F9"/>
<g filter="url(#filter0_d)">
<rect x="9.29169" y="79.7287" width="52.1724" height="15.7232" fill="#F8FBFB"/>
<path d="M18.5854 84.0168H39.3114" stroke="#8CA0B3" stroke-width="1.23918" stroke-linecap="round"/>
<path d="M18.5841 87.5902H52.1745" stroke="#D2DFE6" stroke-width="0.991347" stroke-linecap="round"/>
<path d="M18.5841 90.4491H27.8751" stroke="#D2DFE6" stroke-width="0.991347" stroke-linecap="round"/>
<rect x="9.29147" y="95.4521" width="52.1724" height="15.7232" fill="#F8FBFB"/>
<path d="M9.29147 95.4521H61.4639" stroke="#DEE8EC" stroke-width="0.495674"/>
<path d="M9.29147 111.175H61.4639" stroke="#DEE8EC" stroke-width="0.495674"/>
<path d="M17.1537 99.7403H40.078" stroke="#8CA0B3" stroke-width="1.23918" stroke-linecap="round"/>
<path d="M17.1533 103.314H54.3063" stroke="#D2DFE6" stroke-width="0.991347" stroke-linecap="round"/>
<path d="M17.1533 106.172H27.4297" stroke="#D2DFE6" stroke-width="0.991347" stroke-linecap="round"/>
<rect x="9.29253" y="111.175" width="52.1724" height="15.7232" fill="#DAF2F4"/>
<path d="M18.586 115.463H39.312" stroke="#2498A8" stroke-width="1.23918" stroke-linecap="round"/>
<path d="M18.5847 119.038H52.1752" stroke="#2CC3D5" stroke-width="0.991347" stroke-linecap="round"/>
<path d="M18.5847 121.896H27.8757" stroke="#2CC3D5" stroke-width="0.991347" stroke-linecap="round"/>
<rect x="9.2921" y="126.899" width="52.1724" height="15.7232" fill="#F8FBFB"/>
<path d="M9.2921 126.899H61.4645" stroke="#DEE8EC" stroke-width="0.495674"/>
<path d="M9.2921 142.621H61.4645" stroke="#DEE8EC" stroke-width="0.495674"/>
<path d="M17.1544 131.187H40.0786" stroke="#8CA0B3" stroke-width="1.23918" stroke-linecap="round"/>
<path d="M17.1539 134.76H54.307" stroke="#D2DFE6" stroke-width="0.991347" stroke-linecap="round"/>
<path d="M17.1539 137.619H27.4303" stroke="#D2DFE6" stroke-width="0.991347" stroke-linecap="round"/>
<rect x="9.29253" y="142.621" width="52.1724" height="15.7232" fill="#F8FBFB"/>
<path d="M18.586 146.91H39.312" stroke="#8CA0B3" stroke-width="1.23918" stroke-linecap="round"/>
<path d="M18.5847 150.483H52.1752" stroke="#D2DFE6" stroke-width="0.991347" stroke-linecap="round"/>
<path d="M18.5847 153.342H27.8757" stroke="#D2DFE6" stroke-width="0.991347" stroke-linecap="round"/>
<rect x="9.2921" y="158.344" width="52.1724" height="15.7232" fill="#F8FBFB"/>
<path d="M9.2921 158.344H61.4645" stroke="#DEE8EC" stroke-width="0.495674"/>
<path d="M9.2921 174.068H61.4645" stroke="#DEE8EC" stroke-width="0.495674"/>
<path d="M17.1544 162.633H40.0786" stroke="#8CA0B3" stroke-width="1.23918" stroke-linecap="round"/>
<path d="M17.1539 166.206H54.307" stroke="#D2DFE6" stroke-width="0.991347" stroke-linecap="round"/>
<path d="M17.1539 169.065H27.4303" stroke="#D2DFE6" stroke-width="0.991347" stroke-linecap="round"/>
<rect x="9.29214" y="174.068" width="52.1724" height="15.7232" fill="#F8FBFB"/>
<path d="M18.5841 178.356H39.3101" stroke="#8CA0B3" stroke-width="1.23918" stroke-linecap="round"/>
<path d="M18.5828 181.93H52.1733" stroke="#D2DFE6" stroke-width="0.991347" stroke-linecap="round"/>
<path d="M18.5828 184.788H27.8738" stroke="#D2DFE6" stroke-width="0.991347" stroke-linecap="round"/>
<rect x="9.29214" y="189.791" width="52.1724" height="4.28814" fill="#F8FBFB"/>
<path d="M9.29214 189.791H61.4645" stroke="#DEE8EC" stroke-width="0.495674"/>
</g>
<rect x="9.29297" y="63.2907" width="249.539" height="16.6359" fill="#202C44"/>
<rect x="15.9451" y="66.6179" width="45.7488" height="9.14976" rx="1.15378" fill="#1A2437"/>
<path d="M56.2861 71.851C56.218 71.8509 56.1521 71.8268 56.1001 71.7828L54.916 70.7887C54.888 70.7637 54.8709 70.7289 54.8683 70.6915C54.8656 70.6541 54.8776 70.6171 54.9016 70.5884C54.9257 70.5597 54.96 70.5414 54.9973 70.5375C55.0345 70.5336 55.0719 70.5444 55.1014 70.5675L56.2861 71.5616L57.4708 70.5692C57.4849 70.5547 57.5018 70.5433 57.5205 70.5357C57.5392 70.5281 57.5593 70.5246 57.5795 70.5252C57.5997 70.5259 57.6195 70.5308 57.6377 70.5396C57.6559 70.5484 57.672 70.5609 57.685 70.5764C57.6981 70.5918 57.7077 70.6098 57.7134 70.6292C57.719 70.6486 57.7205 70.6689 57.7178 70.6889C57.7151 70.709 57.7082 70.7282 57.6976 70.7454C57.687 70.7626 57.6729 70.7773 57.6563 70.7887L56.4721 71.7828C56.4201 71.8268 56.3542 71.8509 56.2861 71.851V71.851Z" fill="#8CA0B3"/>
<circle cx="21.3511" cy="71.1929" r="2.91129" fill="#2CC3D5"/>
<path d="M26.7592 69.9451H39.6521" stroke="#8CA0B3" stroke-width="0.576892" stroke-linecap="round"/>
<path d="M26.7589 72.8564H42.5631" stroke="#8CA0B3" stroke-width="1.15378" stroke-linecap="round"/>
<path d="M65.8537 71.6088H73.3398" stroke="#2CC3D5" stroke-width="1.15378" stroke-linecap="round"/>
<path d="M78.0044 71.7296H87.6484" stroke="#8CA0B3" stroke-width="1.15378" stroke-linecap="round"/>
<path d="M133.122 70.7215C133.024 70.2265 132.672 69.8805 132.156 69.7735C131.926 69.7276 131.693 69.7049 131.459 69.7058C131.15 69.7058 130.718 69.7457 130.408 69.938C129.888 70.2597 129.828 70.8975 129.839 71.2483C129.85 71.599 129.935 72.0926 130.272 72.4407C130.55 72.7305 131.094 72.8686 131.504 72.8788V73.239C131.504 73.2596 131.507 73.28 131.515 73.299C131.523 73.3181 131.534 73.3354 131.549 73.35C131.563 73.3645 131.581 73.3761 131.6 73.3839C131.619 73.3917 131.639 73.3956 131.66 73.3954H131.674C131.706 73.3928 131.736 73.38 131.761 73.3589C131.921 73.2234 132.132 73.0386 132.336 72.8476L132.427 72.7643C132.591 72.6246 132.739 72.4675 132.869 72.2958C133.146 71.9017 133.241 71.3126 133.122 70.7215Z" fill="#2CC3D5"/>
<path d="M134.755 71.5498L139.221 71.5498" stroke="#F5F8F9" stroke-width="0.844846" stroke-linecap="round"/>
<path d="M219.662 72.58C219.554 72.449 219.427 72.2667 219.411 72.205C219.38 72.0879 219.364 71.6505 219.361 71.4037C219.361 71.0821 219.246 70.7711 219.038 70.526C218.83 70.2808 218.542 70.1173 218.224 70.0645V70.0091C218.224 69.9355 218.195 69.865 218.143 69.813C218.091 69.761 218.021 69.7318 217.947 69.7318C217.874 69.7318 217.803 69.761 217.751 69.813C217.699 69.865 217.67 69.9355 217.67 70.0091V70.0645C217.353 70.1175 217.066 70.2809 216.858 70.5256C216.65 70.7703 216.535 71.0806 216.534 71.4016C216.534 71.6505 216.516 72.0879 216.485 72.205C216.469 72.2667 216.342 72.449 216.234 72.58C216.213 72.6054 216.2 72.6362 216.196 72.6688C216.192 72.7014 216.197 72.7345 216.211 72.7642C216.225 72.7939 216.248 72.819 216.275 72.8366C216.303 72.8542 216.335 72.8635 216.368 72.8635H217.395C217.394 72.8658 217.394 72.8682 217.395 72.8705C217.395 73.1671 217.628 73.382 217.949 73.382C218.271 73.382 218.504 73.1671 218.504 72.8705C218.504 72.8705 218.504 72.8663 218.504 72.8635H219.53C219.562 72.8635 219.595 72.8542 219.622 72.8367C219.65 72.8191 219.672 72.7941 219.686 72.7644C219.7 72.7345 219.705 72.7013 219.701 72.6687C219.696 72.6361 219.683 72.6053 219.662 72.58V72.58ZM218.157 72.8711C218.157 73.0285 217.984 73.0361 217.949 73.0361C217.915 73.0361 217.741 73.0285 217.741 72.8711C217.741 72.8711 217.741 72.867 217.741 72.8642H218.157C218.157 72.8642 218.157 72.8691 218.157 72.8711ZM216.71 72.5176C216.757 72.4489 216.794 72.3737 216.82 72.2944C216.871 72.1017 216.88 71.5209 216.88 71.4044C216.881 71.1361 216.988 70.8789 217.178 70.6892C217.367 70.4995 217.625 70.3928 217.893 70.3924H218.003C218.272 70.3928 218.529 70.4998 218.719 70.69C218.909 70.8801 219.015 71.1378 219.015 71.4065C219.015 71.5209 219.026 72.0997 219.076 72.2944C219.102 72.3736 219.14 72.4487 219.187 72.5176H216.71Z" fill="#8CA0B3"/>
<circle cx="226.245" cy="71.6092" r="2.49539" fill="#B97CE8"/>
<path d="M251.615 71.8513C251.547 71.8512 251.481 71.827 251.429 71.7831L250.245 70.789C250.217 70.764 250.2 70.7291 250.197 70.6917C250.195 70.6543 250.207 70.6174 250.231 70.5886C250.255 70.5599 250.289 70.5417 250.326 70.5378C250.364 70.5339 250.401 70.5446 250.43 70.5677L251.615 71.5619L252.8 70.5695C252.814 70.555 252.831 70.5435 252.85 70.5359C252.868 70.5284 252.888 70.5248 252.909 70.5255C252.929 70.5261 252.949 70.531 252.967 70.5399C252.985 70.5487 253.001 70.5612 253.014 70.5766C253.027 70.592 253.037 70.61 253.042 70.6294C253.048 70.6488 253.05 70.6692 253.047 70.6892C253.044 70.7092 253.037 70.7284 253.027 70.7456C253.016 70.7628 253.002 70.7776 252.985 70.789L251.801 71.7831C251.749 71.827 251.683 71.8512 251.615 71.8513V71.8513Z" fill="#8CA0B3"/>
<path d="M231.236 71.6094H247.04" stroke="#8CA0B3" stroke-width="1.15378" stroke-linecap="round"/>
<rect x="60.035" y="111.175" width="1.42938" height="15.7232" fill="#2CC3D5"/>
<path d="M69.3261 96.8815H247.284" stroke="#D2DFE6" stroke-width="0.495674" stroke-linecap="round"/>
<path d="M70.0405 88.3049H101.487" stroke="#8CA0B3" stroke-width="1.98269" stroke-linecap="round"/>
<path fill-rule="evenodd" clip-rule="evenodd" d="M218.915 89.4087L218.905 89.4016L217.968 88.5672C217.945 88.5482 217.925 88.5246 217.911 88.4979C217.897 88.4712 217.888 88.4418 217.886 88.4116C217.883 88.3815 217.887 88.3511 217.896 88.3223C217.906 88.2936 217.921 88.2671 217.941 88.2445C217.961 88.2219 217.986 88.2036 218.013 88.1907C218.041 88.1779 218.071 88.1708 218.101 88.1698C218.131 88.1688 218.161 88.174 218.189 88.185C218.218 88.196 218.243 88.2127 218.265 88.2339L218.83 88.7369V86.9859C218.83 86.9267 218.854 86.8699 218.896 86.828C218.938 86.7861 218.995 86.7626 219.054 86.7626C219.113 86.7626 219.17 86.7861 219.212 86.828C219.254 86.8699 219.277 86.9267 219.277 86.9859V88.7369L219.843 88.2339C219.887 88.1945 219.945 88.1742 220.004 88.1776C220.063 88.1809 220.119 88.2076 220.158 88.2518C220.197 88.296 220.218 88.354 220.214 88.4132C220.211 88.4723 220.184 88.5277 220.14 88.5672L219.202 89.4016L219.192 89.4087C219.189 89.4117 219.185 89.4144 219.182 89.4168L219.173 89.4221C219.167 89.4265 219.16 89.4304 219.153 89.4337L219.142 89.4391H219.137L219.111 89.4462H219.105H219.096C219.082 89.4476 219.068 89.4476 219.054 89.4462C219.04 89.4476 219.026 89.4476 219.012 89.4462H219.003H218.997L218.971 89.4391H218.965L218.955 89.4337C218.947 89.4304 218.941 89.4265 218.934 89.4221L218.926 89.4168C218.922 89.4144 218.919 89.4117 218.915 89.4087ZM220.915 89.1314C220.949 89.0979 220.994 89.0791 221.041 89.0791C221.089 89.0791 221.134 89.0979 221.168 89.1314C221.201 89.1649 221.22 89.2104 221.22 89.2578V90.3396C221.22 90.387 221.201 90.4325 221.168 90.466C221.134 90.4995 221.089 90.5183 221.041 90.5183H217.066C217.019 90.5183 216.973 90.4995 216.94 90.466C216.906 90.4325 216.887 90.387 216.887 90.3396V89.2578C216.887 89.2104 216.906 89.1649 216.94 89.1314C216.973 89.0979 217.019 89.0791 217.066 89.0791C217.113 89.0791 217.159 89.0979 217.192 89.1314C217.226 89.1649 217.245 89.2104 217.245 89.2578V90.1609H220.863V89.2578C220.863 89.2104 220.882 89.1649 220.915 89.1314Z" fill="#738192"/>
<g clip-path="url(#clip0)">
<path d="M227.104 88.4881C227.058 88.4881 227.014 88.5064 226.981 88.5389C226.949 88.5715 226.931 88.6157 226.931 88.6618C226.931 88.9997 226.812 89.3269 226.596 89.5864C226.379 89.8459 226.078 90.0211 225.746 90.0817C225.413 90.1422 225.07 90.0842 224.776 89.9177C224.482 89.7512 224.256 89.4868 224.137 89.1705C224.018 88.8543 224.013 88.5063 224.124 88.1872C224.236 87.8681 224.455 87.5981 224.745 87.4242C225.035 87.2504 225.376 87.1838 225.71 87.236C226.044 87.2882 226.349 87.4559 226.572 87.7099L226.364 87.696C226.318 87.6946 226.274 87.7107 226.24 87.741C226.207 87.7712 226.186 87.8133 226.182 87.8585C226.179 87.9045 226.195 87.9498 226.225 87.9843C226.256 88.0188 226.299 88.0398 226.345 88.0427L226.917 88.0802H226.928C226.939 88.0801 226.95 88.0789 226.96 88.0767H226.972L226.99 88.0712L227.003 88.0649C227.008 88.0628 227.013 88.0602 227.018 88.0573L227.03 88.0496L227.043 88.0392L227.053 88.0295L227.065 88.0163L227.072 88.0052C227.076 88.0006 227.079 87.9957 227.081 87.9906L227.088 87.9774C227.09 87.9724 227.092 87.9673 227.093 87.9621C227.095 87.9572 227.097 87.9521 227.097 87.9468V87.9405L227.201 87.3756C227.206 87.3527 227.207 87.3288 227.203 87.3055C227.199 87.2821 227.191 87.2599 227.178 87.24C227.165 87.2202 227.148 87.2032 227.128 87.1901C227.109 87.177 227.087 87.168 227.063 87.1637C227.04 87.1595 227.016 87.16 226.993 87.1653C226.97 87.1706 226.948 87.1805 226.929 87.1945C226.91 87.2085 226.894 87.2262 226.882 87.2466C226.87 87.267 226.863 87.2896 226.86 87.3131L226.829 87.4778C226.552 87.1639 226.173 86.9573 225.759 86.894C225.345 86.8306 224.922 86.9144 224.563 87.1309C224.204 87.3474 223.933 87.6828 223.796 88.0788C223.659 88.4747 223.666 88.9061 223.814 89.2978C223.963 89.6894 224.244 90.0166 224.609 90.2224C224.974 90.4281 225.399 90.4994 225.811 90.4237C226.223 90.3481 226.596 90.1303 226.864 89.8084C227.132 89.4864 227.278 89.0807 227.278 88.6618C227.278 88.6157 227.26 88.5715 227.227 88.5389C227.194 88.5064 227.15 88.4881 227.104 88.4881Z" fill="#738192"/>
</g>
<rect x="229.417" y="85.446" width="18.0962" height="6.02751" rx="1.00329" fill="#2CC3D5"/>
<path opacity="0.3" d="M246.231 103.314H70.3794C69.7977 103.314 69.3261 104.927 69.3261 106.917V181.9C69.3261 183.89 69.7977 185.503 70.3794 185.503H246.231C246.812 185.503 247.284 183.89 247.284 181.9V106.917C247.284 104.927 246.812 103.314 246.231 103.314Z" fill="#D2DFE6"/>
<path d="M246.231 185.503H70.3794C70.1 185.503 69.8321 185.124 69.6346 184.448C69.4371 183.772 69.3261 182.856 69.3261 181.901V106.916C69.3261 105.961 69.4371 105.045 69.6346 104.369C69.8321 103.693 70.1 103.314 70.3794 103.314H246.231C246.51 103.314 246.778 103.693 246.976 104.369C247.173 105.045 247.284 105.961 247.284 106.916V181.901C247.284 182.856 247.173 183.772 246.976 184.448C246.778 185.124 246.51 185.503 246.231 185.503Z" stroke="#D2DFE6" stroke-width="0.495674" stroke-linecap="round" stroke-linejoin="round" stroke-dasharray="2.95 3.93"/>
<g filter="url(#filter1_d)">
<circle cx="245.45" cy="181.525" r="6.02751" fill="#2CC3D5"/>
</g>
<path d="M247.726 180.319L247.726 180.32C247.898 181.172 247.759 182.008 247.373 182.558C247.186 182.805 246.972 183.031 246.737 183.232L246.737 183.232L246.733 183.235L246.598 183.359L246.598 183.359L246.598 183.36C246.296 183.642 245.985 183.915 245.748 184.114L245.748 184.114L245.746 184.116C245.732 184.129 245.713 184.137 245.694 184.139L245.679 184.139L245.678 184.139C245.664 184.139 245.65 184.137 245.638 184.131C245.625 184.126 245.613 184.118 245.604 184.109C245.594 184.099 245.586 184.087 245.581 184.074C245.576 184.062 245.573 184.048 245.573 184.034H245.573V184.032V183.498V183.375L245.451 183.372C245.158 183.365 244.816 183.312 244.499 183.209C244.18 183.105 243.896 182.955 243.709 182.76L243.709 182.76C243.242 182.277 243.117 181.583 243.102 181.073C243.086 180.557 243.178 179.677 243.887 179.239L243.887 179.239C244.315 178.973 244.927 178.913 245.381 178.913L245.381 178.913C245.72 178.912 246.058 178.945 246.391 179.011C247.11 179.16 247.592 179.637 247.726 180.319Z" stroke="#F8FBFB" stroke-width="0.250823"/>
<path d="M121.578 123.834C123.913 123.829 126.244 124.057 128.534 124.516C133.03 125.435 135.972 128.3 136.814 132.543C137.333 135.105 137.424 137.736 137.084 140.328C136.801 142.833 135.917 145.233 134.508 147.324C133.365 148.947 131.721 150.446 130.132 151.893L129.14 152.803C127.671 154.173 126.172 155.496 124.764 156.698V154.637C124.764 154.049 124.531 153.485 124.115 153.068C123.7 152.652 123.136 152.418 122.548 152.417C118.623 152.417 113.139 151.06 110.713 148.552C107.707 145.421 106.938 140.848 106.848 137.563C106.754 134.385 107.247 128.648 111.683 125.921C113.869 124.577 117.378 123.834 121.578 123.834ZM121.578 122C117.618 122 113.517 122.636 110.726 124.353C106.191 127.153 104.868 132.594 105.01 137.614C105.143 141.951 106.298 146.632 109.399 149.819C112.349 152.876 118.417 154.25 122.552 154.25C122.603 154.249 122.654 154.258 122.702 154.277C122.749 154.296 122.792 154.325 122.828 154.361C122.864 154.397 122.893 154.44 122.912 154.487C122.931 154.535 122.94 154.586 122.939 154.637V159.013C122.936 159.116 122.954 159.219 122.992 159.315C123.031 159.411 123.088 159.498 123.161 159.57C123.235 159.643 123.322 159.7 123.418 159.738C123.514 159.776 123.617 159.793 123.72 159.79H123.793C123.951 159.777 124.1 159.717 124.223 159.618C126.306 157.836 128.393 156.024 130.402 154.16C132.33 152.369 134.516 150.531 136.024 148.393C139.206 143.875 139.678 137.49 138.6 132.199C137.587 127.106 133.967 123.791 128.895 122.752C126.487 122.259 124.036 122.008 121.578 122" fill="#D2DFE6"/>
<path d="M149.087 128.983H155.619C156.735 128.975 157.849 129.084 158.942 129.309C159.855 129.491 160.728 129.836 161.519 130.327C162.22 130.772 162.795 131.39 163.189 132.122C163.61 132.948 163.816 133.866 163.791 134.793C163.814 136.011 163.408 137.198 162.644 138.148C161.881 139.097 160.807 139.747 159.612 139.985V140.131C161.356 140.397 162.711 141.001 163.679 141.943C164.647 142.885 165.13 144.18 165.13 145.829C165.154 146.883 164.929 147.928 164.473 148.878C164.046 149.742 163.417 150.49 162.64 151.06C161.786 151.663 160.826 152.1 159.81 152.348C158.617 152.648 157.39 152.792 156.16 152.777H149.087V128.983ZM155.099 139.147C157.134 139.147 158.593 138.797 159.475 138.095C159.921 137.728 160.273 137.26 160.503 136.73C160.733 136.2 160.834 135.623 160.797 135.046C160.797 133.758 160.334 132.8 159.402 132.233C158.47 131.667 157.083 131.375 155.245 131.375H152.123V139.147H155.099ZM155.717 150.403C157.776 150.403 159.36 150.022 160.471 149.26C161.582 148.499 162.139 147.306 162.142 145.683C162.142 144.21 161.6 143.107 160.51 142.437C159.419 141.767 157.821 141.402 155.717 141.402H152.123V150.42L155.717 150.403Z" fill="#D2DFE6"/>
<path d="M168.905 128.983H171.881V150.222H183.682V152.799H168.905V128.983Z" fill="#D2DFE6"/>
<path d="M179.602 135.841H190.785V152.799H187.804V138.275H179.602V135.841Z" fill="#D2DFE6"/>
<path d="M188.668 133.054C188.108 133.078 187.561 132.882 187.143 132.508C186.941 132.318 186.784 132.086 186.682 131.829C186.579 131.571 186.534 131.295 186.55 131.018C186.538 130.742 186.585 130.466 186.687 130.21C186.789 129.953 186.945 129.72 187.143 129.528C187.565 129.165 188.103 128.965 188.659 128.965C189.215 128.965 189.753 129.165 190.175 129.528C190.377 129.718 190.537 129.949 190.642 130.207C190.747 130.464 190.796 130.74 190.785 131.018C190.797 131.293 190.749 131.568 190.643 131.822C190.538 132.077 190.378 132.305 190.175 132.491C189.76 132.858 189.221 133.053 188.668 133.036" fill="#D2DFE6"/>
<path d="M194.916 128.983H202.216C203.424 128.971 204.629 129.094 205.81 129.348C206.806 129.549 207.751 129.949 208.589 130.524C209.357 131.074 209.97 131.814 210.367 132.671C210.82 133.713 211.037 134.842 211.002 135.978C211.03 137.101 210.813 138.216 210.367 139.246C209.963 140.142 209.347 140.927 208.572 141.531C207.744 142.162 206.8 142.625 205.793 142.892C204.627 143.208 203.424 143.361 202.216 143.347H197.922V152.795H194.916V128.983ZM201.812 140.895C203.922 140.895 205.478 140.501 206.48 139.714C207.482 138.927 207.985 137.687 207.988 135.995C207.988 134.277 207.472 133.085 206.442 132.418C205.411 131.751 203.868 131.419 201.812 131.422H197.948V140.895H201.812Z" fill="#D2DFE6"/>
<path d="M505.044 101.001C504.565 97.9142 501.674 95.8008 498.588 96.2804L461.123 102.101L462.859 113.278L500.324 107.458C503.411 106.978 505.524 104.087 505.044 101.001V101.001Z" fill="#738192"/>
<path d="M494.571 88.014C494.092 84.9275 491.201 82.8141 488.114 83.2936L450.649 89.1142L452.386 100.292L489.851 94.471C492.937 93.9914 495.051 91.1006 494.571 88.014V88.014Z" fill="#738192"/>
<path d="M472.706 132.141C474.297 108.567 467.188 83.3787 462.384 70.9888C461.746 69.3431 459.976 68.4759 458.263 68.904L453.502 70.0943C448.791 71.272 444.729 74.2478 442.186 78.3842L428.767 100.21L413.604 103.207C412.016 103.521 410.964 105.041 411.231 106.638L412.87 116.476C413.089 117.787 414.332 118.669 415.641 118.444L431.49 115.711L454.262 133.496C458.043 136.449 462.877 137.707 467.619 136.971L468.27 136.87C470.671 136.498 472.542 134.565 472.706 132.141Z" fill="#DEE8EC"/>
<path d="M273.059 110.377L262.722 105.883V117.967L268.977 120.469C269.694 120.756 270.507 120.408 270.793 119.691L273.799 112.177C274.079 111.476 273.751 110.679 273.059 110.377Z" fill="#191E27"/>
<g opacity="0.4" filter="url(#filter2_f)">
<ellipse cx="137.5" cy="254.5" rx="125.5" ry="6.5" fill="#D2DFE6"/>
</g>
<defs>
<filter id="filter0_d" x="3.34339" y="74.772" width="64.0696" height="126.247" filterUnits="userSpaceOnUse" color-interpolation-filters="sRGB">
<feFlood flood-opacity="0" result="BackgroundImageFix"/>
<feColorMatrix in="SourceAlpha" type="matrix" values="0 0 0 0 0 0 0 0 0 0 0 0 0 0 0 0 0 0 127 0"/>
<feOffset dy="0.991347"/>
<feGaussianBlur stdDeviation="2.97404"/>
<feColorMatrix type="matrix" values="0 0 0 0 0.374547 0 0 0 0 0.481553 0 0 0 0 0.601935 0 0 0 0.15 0"/>
<feBlend mode="normal" in2="BackgroundImageFix" result="effect1_dropShadow"/>
<feBlend mode="normal" in="SourceGraphic" in2="effect1_dropShadow" result="shape"/>
</filter>
<filter id="filter1_d" x="235.242" y="171.317" width="20.4158" height="20.4158" filterUnits="userSpaceOnUse" color-interpolation-filters="sRGB">
<feFlood flood-opacity="0" result="BackgroundImageFix"/>
<feColorMatrix in="SourceAlpha" type="matrix" values="0 0 0 0 0 0 0 0 0 0 0 0 0 0 0 0 0 0 127 0"/>
<feOffset/>
<feGaussianBlur stdDeviation="2.09019"/>
<feColorMatrix type="matrix" values="0 0 0 0 0.374547 0 0 0 0 0.481553 0 0 0 0 0.601935 0 0 0 0.3 0"/>
<feBlend mode="normal" in2="BackgroundImageFix" result="effect1_dropShadow"/>
<feBlend mode="normal" in="SourceGraphic" in2="effect1_dropShadow" result="shape"/>
</filter>
<filter id="filter2_f" x="3.44951" y="239.45" width="268.101" height="30.101" filterUnits="userSpaceOnUse" color-interpolation-filters="sRGB">
<feFlood flood-opacity="0" result="BackgroundImageFix"/>
<feBlend mode="normal" in="SourceGraphic" in2="BackgroundImageFix" result="shape"/>
<feGaussianBlur stdDeviation="4.27525" result="effect1_foregroundBlur"/>
</filter>
<clipPath id="clip0">
<path d="M222.986 86.1603H227.989V91.1632H222.986V86.1603Z" fill="white"/>
</clipPath>
</defs>
</svg>
