<svg width="70" height="70" viewBox="0 0 70 70" fill="none" xmlns="http://www.w3.org/2000/svg">
<path d="M5.99023 17.6983C9.46204 17.1918 12.9673 16.95 16.4758 16.9752C21.6413 16.9752 25.257 17.7499 27.7361 19.7126C29.8022 21.3654 30.9391 23.7932 30.9391 26.9957C30.9391 31.4377 27.7882 34.4855 24.7935 35.5701V35.7264C27.2215 36.7078 28.5645 39.0322 29.4423 42.2347C30.5272 46.1601 31.6118 50.7058 32.2834 52.0487H24.2235C23.6555 51.0672 22.829 48.2265 21.7959 43.9394C20.866 39.6007 19.3684 38.4127 16.1659 38.3609H13.79V52.049H5.99023V17.6983ZM13.79 32.6778H16.8888C20.8145 32.6778 23.1386 30.7148 23.1386 27.6673C23.1386 24.4642 20.9694 22.8635 17.3537 22.8119C16.1602 22.7896 14.9672 22.8761 13.7895 23.0703L13.79 32.6778Z" fill="#415B9C"/>
<path d="M35.1089 17.6981C38.6324 17.1879 42.1895 16.9461 45.7497 16.975C52.3612 16.975 56.648 18.1629 60.0057 20.6938C63.6215 23.38 65.8938 27.667 65.8938 33.8137C65.8938 40.4768 63.4663 45.074 60.1088 47.9148C56.4415 50.9616 50.863 52.4087 44.0448 52.4087C41.0581 52.4325 38.073 52.26 35.1089 51.8923V17.6981ZM43.0117 46.107C43.6833 46.2633 44.7682 46.2633 45.7497 46.2633C52.8776 46.3154 57.5264 42.3895 57.5264 34.0733C57.5784 26.8421 53.3424 23.0195 46.5759 23.0195C45.3801 22.9923 44.1849 23.0962 43.0117 23.3294V46.107Z" fill="#415B9C"/>
</svg>
