<svg id="Layer_1" data-name="Layer 1" xmlns="http://www.w3.org/2000/svg" viewBox="0 0 982.698 328.033"><defs><style>.cls-1{fill:#415b9c;}</style></defs><title>rd_station_horizontal_</title><path class="cls-1" d="M98.064,98.064a265.7,265.7,0,0,1,40.266-2.777c19.836,0,33.721,2.975,43.241,10.512,7.934,6.347,12.3,15.67,12.3,27.968,0,17.058-12.1,28.762-23.6,32.927v.6c9.324,3.769,14.481,12.695,17.852,24.993,4.166,15.074,8.331,32.53,10.91,37.687H168.082c-2.181-3.769-5.355-14.678-9.322-31.141-3.571-16.661-9.322-21.223-21.62-21.422h-9.124v52.564H98.064Zm29.952,57.523h11.9c15.075,0,24-7.538,24-19.241,0-12.3-8.33-18.447-22.215-18.645a75.438,75.438,0,0,0-13.687.992Z"/><path class="cls-1" d="M209.884,98.064a269.853,269.853,0,0,1,40.862-2.777c25.389,0,41.851,4.562,54.745,14.281,13.885,10.315,22.611,26.778,22.611,50.382,0,25.587-9.322,43.241-22.215,54.15-14.083,11.7-35.505,17.257-61.688,17.257a261.744,261.744,0,0,1-34.315-1.983Zm30.348,109.094c2.579.6,6.745.6,10.514.6,27.372.2,45.224-14.876,45.224-46.811.2-27.769-16.067-42.448-42.051-42.448a62.865,62.865,0,0,0-13.687,1.19Z"/><path class="cls-1" d="M369.316,209.148a60.611,60.611,0,0,0,30.667,8.65c17.5,0,27.719-9.24,27.719-22.608,0-12.385-7.076-19.462-24.966-26.343-21.626-7.667-34.993-18.873-34.993-37.549,0-20.642,17.1-35.976,42.856-35.976,13.565,0,23.393,3.145,29.291,6.487l-4.718,13.958a52.774,52.774,0,0,0-25.163-6.291c-18.086,0-24.966,10.813-24.966,19.856,0,12.385,8.06,18.479,26.342,25.557,22.411,8.649,33.814,19.462,33.814,38.924,0,20.446-15.137,38.139-46.4,38.139-12.778,0-26.736-3.735-33.812-8.453Z"/><path class="cls-1" d="M479.723,111.966v22h24.993v13.29H479.723v51.77c0,11.9,3.372,18.646,13.091,18.646a38.817,38.817,0,0,0,10.116-1.19l.794,13.091c-3.372,1.389-8.728,2.38-15.471,2.38-8.133,0-14.679-2.579-18.844-7.339-4.959-5.158-6.744-13.687-6.744-24.993V147.256H447.788v-13.29h14.877V116.528Z"/><path class="cls-1" d="M626.973,111.966v22h24.993v13.29H626.973v51.77c0,11.9,3.372,18.646,13.091,18.646a38.817,38.817,0,0,0,10.116-1.19l.794,13.091c-3.372,1.389-8.728,2.38-15.471,2.38-8.133,0-14.679-2.579-18.844-7.339-4.959-5.158-6.744-13.687-6.744-24.993V147.256H595.038v-13.29h14.877V116.528Z"/><path class="cls-1" d="M574.345,229.969l-1.388-12.1h-.594c-5.355,7.538-15.671,14.281-29.356,14.281-19.44,0-29.357-13.686-29.357-27.571,0-23.208,20.63-35.9,57.721-35.7v-1.983c0-7.934-2.182-22.216-21.819-22.216a47.832,47.832,0,0,0-24.993,7.141l-3.967-11.5c7.934-5.157,19.438-8.53,31.538-8.53,29.356,0,36.5,20.034,36.5,39.274v35.9a135.163,135.163,0,0,0,1.586,23.009Zm-2.579-48.993c-19.042-.4-40.662,2.976-40.662,21.62,0,11.306,7.538,16.661,16.463,16.661,12.5,0,20.43-7.934,23.207-16.066a18.2,18.2,0,0,0,.992-5.554Z"/><path class="cls-1" d="M686.371,106.99c.2,5.951-4.166,10.711-11.108,10.711a10.378,10.378,0,0,1-10.512-10.711,10.635,10.635,0,0,1,10.909-10.909C682.2,96.081,686.371,100.841,686.371,106.99Zm-19.44,122.979v-96h17.455v96Z"/><path class="cls-1" d="M791.348,181.174c0,35.505-24.6,50.976-47.8,50.976-25.984,0-46.018-19.042-46.018-49.389,0-32.133,21.025-50.977,47.6-50.977C772.7,131.784,791.348,151.818,791.348,181.174Zm-76.168.992c0,21.025,12.1,36.894,29.158,36.894,16.661,0,29.158-15.67,29.158-37.291,0-16.265-8.133-36.894-28.762-36.894S715.181,163.917,715.181,182.166Z"/><path class="cls-1" d="M802.911,159.95c0-9.918-.2-18.051-.793-25.984H817.59l.992,15.868h.4c4.761-9.125,15.869-18.051,31.736-18.051,13.29,0,33.919,7.934,33.919,40.861v57.324H867.178v-55.34c0-15.472-5.751-28.365-22.215-28.365-11.506,0-20.432,8.133-23.406,17.852a25.085,25.085,0,0,0-1.19,8.133v57.721H802.911Z"/></svg>