<svg width="258" height="258" viewBox="0 0 258 258" fill="none" xmlns="http://www.w3.org/2000/svg">
<rect x="69.3706" y="64.5414" width="114.883" height="133.942" fill="white"/>
<path fill-rule="evenodd" clip-rule="evenodd" d="M170.877 170.978C167.105 176.338 161.579 180.55 154.303 183.574C147.031 186.627 138.409 188.142 128.438 188.142C116.479 188.142 106.623 186.068 98.847 181.917C93.3477 178.93 88.8662 174.934 85.419 169.948C81.9814 164.967 80.259 160.113 80.259 155.395C80.259 152.667 81.2886 150.323 83.355 148.381C85.419 146.42 88.054 145.448 91.2455 145.448C93.8351 145.448 96.0328 146.203 97.8174 147.732C99.6138 149.253 101.143 151.496 102.402 154.49C103.95 158.032 105.612 160.999 107.409 163.374C109.193 165.756 111.721 167.724 114.96 169.265C118.216 170.801 122.49 171.582 127.776 171.582C135.046 171.582 140.958 170.034 145.504 166.91C150.046 163.806 152.329 159.91 152.329 155.249C152.329 151.556 151.097 148.546 148.648 146.255C146.192 143.945 143.025 142.187 139.14 140.973C135.256 139.753 130.065 138.46 123.558 137.096C114.853 135.233 107.566 133.028 101.704 130.527C95.8394 128.016 91.1762 124.602 87.7386 120.274C84.2915 115.935 82.5738 110.556 82.5738 104.132C82.5738 97.9972 84.3846 92.5577 88.0301 87.8015C91.6636 83.038 96.9191 79.3758 103.816 76.8173C110.703 74.2588 118.799 72.9856 128.111 72.9856C135.545 72.9856 141.981 73.8384 147.406 75.525C152.831 77.2235 157.327 79.481 160.91 82.2903C164.494 85.1044 167.117 88.0499 168.763 91.1411C170.418 94.218 171.245 97.2495 171.245 100.169C171.245 102.851 170.215 105.286 168.146 107.431C166.085 109.583 163.509 110.668 160.425 110.668C157.606 110.668 155.471 110.016 154.014 108.723C152.554 107.431 150.965 105.319 149.264 102.381C147.057 98.1812 144.422 94.8988 141.324 92.5506C138.237 90.188 133.288 89.015 126.451 89.015C120.125 89.015 115.01 90.2811 111.126 92.8468C107.239 95.3981 105.297 98.4822 105.297 102.077C105.297 104.294 105.966 106.232 107.285 107.851C108.596 109.478 110.421 110.857 112.741 112.025C115.046 113.186 117.39 114.098 119.757 114.767C122.127 115.424 126.037 116.382 131.503 117.648C138.326 119.117 144.506 120.744 150.046 122.51C155.583 124.287 160.294 126.439 164.178 128.96C168.063 131.499 171.097 134.707 173.27 138.584C175.444 142.45 176.538 147.201 176.538 152.822C176.538 159.554 174.642 165.605 170.877 170.978ZM221.999 129.242C221.999 76.3109 179.087 33.4017 126.154 33.4017C121.205 33.4017 116.384 33.8795 111.635 34.6081C102.082 26.4524 89.7071 21.4859 76.1549 21.4859C45.9761 21.4859 21.4995 45.9529 21.4995 76.1485C21.4995 88.4632 25.6299 99.7937 32.5123 108.934C31.1052 115.489 30.3145 122.266 30.3145 129.242C30.3145 182.184 73.2166 225.096 126.154 225.096C132.958 225.096 139.589 224.353 145.989 223.003C155.588 231.388 168.115 236.486 181.844 236.486C212.03 236.486 236.5 212.019 236.5 181.838C236.5 166.91 230.513 153.4 220.807 143.546C221.514 138.854 221.999 134.11 221.999 129.242Z" fill="#00AFF0"/>
</svg>
