<svg width="72" height="73" viewBox="0 0 72 73" fill="none" xmlns="http://www.w3.org/2000/svg">
<path fill-rule="evenodd" clip-rule="evenodd" d="M35.6602 4.98718C29.7267 4.98718 23.9265 6.74665 18.9931 10.0431C14.0596 13.3395 10.2144 18.0249 7.94378 23.5067C5.67315 28.9885 5.07905 35.0205 6.23661 40.8399C7.39417 46.6593 10.2514 52.0048 14.447 56.2004C18.6425 60.396 23.988 63.2532 29.8075 64.4107C35.6269 65.5683 41.6589 64.9742 47.1407 62.7036C52.6225 60.4329 57.3078 56.5878 60.6043 51.6543C63.9007 46.7208 65.6602 40.9206 65.6602 34.9872C65.6602 27.0307 62.4995 19.4001 56.8734 13.774C51.2473 8.14789 43.6167 4.98718 35.6602 4.98718ZM45.8202 49.1172C45.8202 49.6476 45.6095 50.1563 45.2344 50.5314C44.8593 50.9065 44.3506 51.1172 43.8202 51.1172H26.1502C25.6197 51.1172 25.111 50.9065 24.736 50.5314C24.3609 50.1563 24.1502 49.6476 24.1502 49.1172V27.1172C24.1502 26.5868 24.3609 26.078 24.736 25.703C25.111 25.3279 25.6197 25.1172 26.1502 25.1172H29.8102C30.0462 25.1172 30.2726 25.2109 30.4395 25.3779C30.6064 25.5448 30.7002 25.7711 30.7002 26.0072C30.7002 26.2432 30.6064 26.4696 30.4395 26.6365C30.2726 26.8034 30.0462 26.8972 29.8102 26.8972H26.1502C26.1013 26.9069 26.0582 26.9354 26.0302 26.9765C26.0021 27.0177 25.9914 27.0682 26.0002 27.1172V43.6472H44.0502V40.2672C44.0734 40.0487 44.1767 39.8465 44.3401 39.6996C44.5035 39.5527 44.7154 39.4714 44.9352 39.4714C45.1549 39.4714 45.3669 39.5527 45.5303 39.6996C45.6936 39.8465 45.7969 40.0487 45.8202 40.2672V49.1172ZM48.6402 31.4572C47.9904 32.3149 47.2494 33.0995 46.4302 33.7972L45.9802 34.2072C44.9802 35.1472 43.9802 36.0372 43.1702 36.7072C42.9728 36.8745 42.728 36.9759 42.4702 36.9972H42.3702C42.044 36.9972 41.7311 36.8676 41.5004 36.6369C41.2698 36.4063 41.1402 36.0934 41.1402 35.7672V34.4672C39.1402 34.3272 36.6302 33.6072 35.2902 32.2172C33.8355 30.5193 33.0436 28.3529 33.0602 26.1172C32.9702 22.9972 34.0602 20.5872 36.0602 19.3372C37.7067 18.4711 39.551 18.0505 41.4102 18.1172C42.5785 18.1159 43.7442 18.2298 44.8902 18.4572C46.1442 18.6719 47.302 19.2666 48.207 20.1609C49.112 21.0551 49.7205 22.2058 49.9502 23.4572C50.583 26.1923 50.1123 29.0667 48.6402 31.4572ZM38.3002 27.1672H42.0002C42.2187 27.1904 42.4208 27.2937 42.5678 27.4571C42.7147 27.6205 42.796 27.8325 42.796 28.0522C42.796 28.2719 42.7147 28.4839 42.5678 28.6473C42.4208 28.8107 42.2187 28.9139 42.0002 28.9372H38.3002C38.176 28.9504 38.0505 28.9373 37.9318 28.8989C37.813 28.8604 37.7037 28.7974 37.6109 28.714C37.5181 28.6305 37.4438 28.5285 37.393 28.4144C37.3422 28.3004 37.316 28.177 37.316 28.0522C37.316 27.9274 37.3422 27.8039 37.393 27.6899C37.4438 27.5759 37.5181 27.4738 37.6109 27.3904C37.7037 27.3069 37.813 27.2439 37.9318 27.2055C38.0505 27.167 38.176 27.154 38.3002 27.1672ZM34.4752 46.7807C34.6311 46.6786 34.8138 46.6252 35.0002 46.6272C35.2477 46.6298 35.4843 46.73 35.6584 46.906C35.8325 47.082 35.9302 47.3196 35.9302 47.5672C35.9302 47.7535 35.8748 47.9356 35.771 48.0904C35.6673 48.2452 35.5199 48.3657 35.3475 48.4365C35.1752 48.5074 34.9857 48.5254 34.8031 48.4883C34.6205 48.4512 34.453 48.3607 34.3219 48.2282C34.1909 48.0958 34.1022 47.9274 34.067 47.7444C34.0319 47.5614 34.0519 47.3721 34.1246 47.2005C34.1973 47.0289 34.3193 46.8828 34.4752 46.7807ZM38.2802 24.0572H45.6702C45.7943 24.044 45.9198 24.057 46.0386 24.0955C46.1573 24.1339 46.2666 24.1969 46.3595 24.2804C46.4523 24.3639 46.5265 24.4659 46.5773 24.5799C46.6281 24.6939 46.6544 24.8174 46.6544 24.9422C46.6544 25.067 46.6281 25.1904 46.5773 25.3044C46.5265 25.4185 46.4523 25.5205 46.3595 25.604C46.2666 25.6874 46.1573 25.7504 46.0386 25.7889C45.9198 25.8274 45.7943 25.8404 45.6702 25.8272H38.2802C38.156 25.8404 38.0305 25.8274 37.9118 25.7889C37.793 25.7504 37.6837 25.6874 37.5909 25.604C37.4981 25.5205 37.4238 25.4185 37.373 25.3044C37.3222 25.1904 37.296 25.067 37.296 24.9422C37.296 24.8174 37.3222 24.6939 37.373 24.5799C37.4238 24.4659 37.4981 24.3639 37.5909 24.2804C37.6837 24.1969 37.793 24.1339 37.9118 24.0955C38.0305 24.057 38.156 24.044 38.2802 24.0572Z" fill="url(#paint0_linear)"/>
<defs>
<linearGradient id="paint0_linear" x1="26.5455" y1="1.95584" x2="47.2867" y2="73.6104" gradientUnits="userSpaceOnUse">
<stop stop-color="#25DDE0"/>
<stop offset="1" stop-color="#28B4C3"/>
</linearGradient>
</defs>
</svg>
