<svg width="23.999999999999996" height="23.999999999999996" xmlns="http://www.w3.org/2000/svg">

 <g>
  <title>background</title>
  <rect fill="none" id="canvas_background" height="402" width="582" y="-1" x="-1"/>
 </g>
 <g>
  <title>Layer 1</title>
  <path id="svg_1" fill="#ffffff" d="m21.8999,9.7c-0.2,-0.7 -0.8,-1.1 -1.4,-1.2l-4.7,-0.7l-2.1,-4.3c-0.3,-0.6 -0.9,-1 -1.6,-1c-0.7,0 -1.3,0.4 -1.6,1l-2.19995,4.1l-4.7,0.7c-0.7,0.1 -1.2,0.6 -1.5,1.2c-0.2,0.7 0,1.4 0.4,1.9l3.4,3.3l-0.8,4.7c-0.1,0.7 0.1,1.4 0.7,1.8c0.6,0.4 1.3,0.5 1.9,0.2l4.19995,-2.2l4.2,2.2c0.3,0.1 0.6,0.2 0.9,0.2c0.4,0 0.7,-0.1 1,-0.3c0.6,-0.4 0.8,-1.1 0.7,-1.8l-0.7,-4.7l3.4,-3.3c0.5,-0.5 0.7,-1.2 0.5,-1.8z"/>
 </g>
</svg>