<svg width="274" height="321" viewBox="0 0 274 321" fill="none" xmlns="http://www.w3.org/2000/svg">
<path d="M0.679688 100.519C0.679688 100.519 2.34154 102.819 4.64184 105.786C15.7021 120.057 46.8171 139.192 130.999 149.764C244.08 163.96 264.444 159.904 268.782 157.791C269.721 157.322 271.646 156.552 271.646 156.552L271.89 153.613L272.453 132.404L247.976 79.8253L118.474 45.9404L56.3564 46.9451L16.1809 75.3279C16.1809 75.3279 5.23334 85.8061 2.9706 90.2377C1.76881 92.5849 0.679688 100.519 0.679688 100.519Z" fill="url(#paint0_linear)"/>
<path d="M166.865 1.23002C196.984 8.37504 222.138 30.5424 232.954 55.949C245.206 84.7544 241.019 116.677 241.019 116.677C241.019 116.677 274.34 122.367 271.674 156.552C271.674 156.552 283.11 96.6409 254.088 56.0898C225.067 15.5388 166.254 1.08919 166.865 1.23002Z" fill="url(#paint1_linear)"/>
<path d="M164.912 1.16455C173.261 10.6462 178.867 22.225 181.126 34.6551C183.958 51.383 183.578 68.4971 180.009 85.0833C180.009 85.0833 240.577 82.7736 240.972 116.677C241.037 116.677 257.374 21.2006 164.912 1.16455Z" fill="url(#paint2_linear)"/>
<path d="M152.856 0.760742C123.675 10.6473 99.2639 74.6708 99.2639 74.6708C99.2639 74.6708 141.965 61.8173 180.009 85.0832C180.009 85.0832 185.981 62.8595 182.751 39.6123C180.432 22.9845 173.728 4.87312 164.818 1.16447L152.856 0.760742Z" fill="url(#paint3_linear)"/>
<path d="M130.013 0C130.013 0 48.7605 29.2842 34.3015 77.3558C34.3015 77.3558 50.6665 57.9112 99.2357 74.6706C99.2357 74.6706 123.647 10.6471 152.837 0.760508L130.013 0Z" fill="url(#paint4_linear)"/>
<path d="M130.013 0C130.013 0 48.7607 29.2842 34.3016 77.3558C34.3016 77.3558 3.60905 72.6613 0.679688 100.518C0.679688 100.518 9.71188 9.68943 130.013 0Z" fill="url(#paint5_linear)"/>
<path d="M99.264 74.624C99.4988 87.4775 99.5645 100.331 99.7147 113.185L99.8743 151.745C99.9494 164.599 99.8743 177.452 99.8743 190.296L99.7241 228.857L96.9919 228.124L117.469 192.212C124.361 180.269 131.187 168.298 138.125 156.393L158.931 120.658L169.447 102.819L174.705 93.9184L180.009 85.0833L175.108 94.1813L170.16 103.279L160.236 121.419L140.162 157.566C133.477 169.594 126.68 181.583 119.92 193.601L99.5457 229.57L96.729 234.49V228.857L97.067 190.306C97.2172 177.452 97.3487 164.599 97.5834 151.745L98.2406 113.194C98.6256 100.322 98.8509 87.4775 99.264 74.624Z" fill="#8CA0B3"/>
<path d="M241.038 116.677C229.633 126.692 218.107 136.569 206.458 146.308C200.656 151.2 194.797 156.017 188.957 160.861L171.315 175.292L153.617 189.601C147.683 194.295 141.777 199.093 135.778 203.778C129.778 208.463 123.854 213.167 117.864 217.862C111.873 222.556 105.846 227.138 99.7522 231.673C105.386 226.622 111.216 221.721 116.943 216.745C122.671 211.768 128.511 206.905 134.332 202.041C140.153 197.178 146.021 192.286 151.842 187.432L169.447 173.011L187.154 158.674C193.088 153.979 198.994 149.181 204.993 144.496C216.861 135.089 228.876 125.815 241.038 116.677Z" fill="#8CA0B3"/>
<path d="M271.646 156.552C257.775 163.337 243.832 169.95 229.818 176.391C222.823 179.649 215.734 182.804 208.758 186.015L187.642 195.479L166.461 204.802C159.382 207.863 152.321 210.971 145.214 213.975C138.106 216.98 131.008 220.003 123.891 222.979C116.774 225.956 109.629 228.885 102.447 231.711C109.357 228.275 116.352 225.017 123.3 221.655C130.248 218.294 137.271 215.083 144.275 211.872C151.279 208.661 158.311 205.459 165.325 202.248L186.45 192.784L207.632 183.47C214.711 180.41 221.781 177.302 228.879 174.297C243.069 168.213 257.324 162.298 271.646 156.552Z" fill="#8CA0B3"/>
<path d="M97.4989 229.204C88.9737 218.82 80.5987 208.326 72.374 197.723C68.2334 192.437 64.1774 187.094 60.0744 181.761L47.8687 165.725L35.8696 149.614C31.8981 144.205 27.889 138.826 23.9644 133.38C20.0398 127.934 16.0964 122.508 12.2 117.034C8.30354 111.56 4.43528 106.096 0.679688 100.519C4.97984 105.682 9.12977 110.95 13.3642 116.17C17.5986 121.39 21.6922 126.695 25.8046 132C29.917 137.305 34.0012 142.619 38.1042 147.961L50.3099 163.997L62.3465 180.137C66.3181 185.545 70.3272 190.925 74.2518 196.371C82.1635 207.187 89.9126 218.131 97.4989 229.204Z" fill="#8CA0B3"/>
<path d="M34.3015 77.3555C40.2792 89.799 46.0878 102.318 51.7275 114.911C54.5442 121.193 57.3609 127.511 60.1775 133.802L68.4305 152.758L76.5425 171.78C79.1996 178.146 81.9037 184.484 84.5044 190.868C87.1051 197.253 89.7247 203.628 92.2973 210.031C94.8698 216.434 97.3955 222.847 99.8084 229.307C96.7758 223.11 93.9122 216.838 90.964 210.604C88.0159 204.37 85.1804 198.041 82.3637 191.751C79.547 185.46 76.7303 179.16 73.9136 172.86L65.6607 153.904L57.5768 134.882C54.9197 128.516 52.2251 122.178 49.6243 115.794C44.3415 103.069 39.2339 90.2559 34.3015 77.3555Z" fill="#8CA0B3"/>
<path d="M34.0105 220.538L16.1714 294.711L136.35 298.466L154.189 223.354L34.0105 220.538Z" fill="url(#paint6_linear)"/>
<path d="M83.0116 321L16.1714 294.711L136.35 298.467L175.784 321H83.0116Z" fill="url(#paint7_linear)"/>
<path d="M191.745 248.704L154.189 223.354L136.35 298.466L175.784 320.999L191.745 248.704Z" fill="url(#paint8_linear)"/>
<g opacity="0.3">
<path opacity="0.5" d="M27.2974 248.432L147.364 252.094L185.943 274.975L183.23 287.293L143.618 267.858L23.6357 263.68L27.2974 248.432Z" fill="black"/>
</g>
<path d="M81.5459 269.989C80.6763 269.736 79.9299 269.51 79.1767 269.304C69.0493 266.641 65.0983 259.65 68.0633 249.625C71.3569 238.47 77.5401 234.965 89.3657 236.046C103.882 237.368 105.683 245.612 102.657 256.185C101.458 260.382 99.404 263.963 95.9666 266.634C92.673 269.215 89.2493 271.701 85.7434 274.077C84.6409 274.817 83.1003 274.906 81.765 275.289C81.6897 274.002 81.6144 272.715 81.5459 271.427C81.5254 271.092 81.5459 270.749 81.5459 269.989Z" fill="#2CC3D5" stroke="white" stroke-width="3.31" stroke-linecap="round" stroke-linejoin="round"/>
<defs>
<linearGradient id="paint0_linear" x1="34.2348" y1="159.853" x2="63.1843" y2="52.1825" gradientUnits="userSpaceOnUse">
<stop stop-color="#F5F8F9"/>
<stop offset="0.312073" stop-color="#DDE8EC"/>
<stop offset="0.751178" stop-color="#B7C8D1"/>
<stop offset="0.911718" stop-color="#A2B6C1"/>
</linearGradient>
<linearGradient id="paint1_linear" x1="185.563" y1="23.2465" x2="257.197" y2="127.017" gradientUnits="userSpaceOnUse">
<stop stop-color="#FAFCFC"/>
<stop offset="0.535374" stop-color="#F5F8F9"/>
<stop offset="0.9999" stop-color="#E8EAEB"/>
<stop offset="1" stop-color="#E8EAEB"/>
</linearGradient>
<linearGradient id="paint2_linear" x1="253.934" y1="-6.41961" x2="124.884" y2="105.817" gradientUnits="userSpaceOnUse">
<stop stop-color="#87DDE8"/>
<stop offset="0.43888" stop-color="#2CC3D5"/>
<stop offset="1" stop-color="#2498A8"/>
</linearGradient>
<linearGradient id="paint3_linear" x1="196.624" y1="-4.77558" x2="104.737" y2="114.953" gradientUnits="userSpaceOnUse">
<stop stop-color="#FAFCFC"/>
<stop offset="0.43888" stop-color="#F5F8F9"/>
<stop offset="0.9999" stop-color="#E8EAEB"/>
<stop offset="1" stop-color="#E8EAEB"/>
</linearGradient>
<linearGradient id="paint4_linear" x1="170.966" y1="-5.07892" x2="101.024" y2="134.37" gradientUnits="userSpaceOnUse">
<stop stop-color="#87DDE8"/>
<stop offset="0.43888" stop-color="#2CC3D5"/>
<stop offset="1" stop-color="#2498A8"/>
</linearGradient>
<linearGradient id="paint5_linear" x1="-35.2667" y1="86.9276" x2="75.4253" y2="-45.4201" gradientUnits="userSpaceOnUse">
<stop stop-color="#FAFCFC"/>
<stop offset="0.681417" stop-color="#F5F8F9"/>
<stop offset="0.9999" stop-color="#E8EAEB"/>
<stop offset="1" stop-color="#E8EAEB"/>
</linearGradient>
<linearGradient id="paint6_linear" x1="175.298" y1="215.421" x2="111.091" y2="363.38" gradientUnits="userSpaceOnUse">
<stop stop-color="#E8B18C"/>
<stop offset="0.43888" stop-color="#D9A582"/>
<stop offset="1" stop-color="#D39D78"/>
</linearGradient>
<linearGradient id="paint7_linear" x1="31.8381" y1="331.381" x2="37.4592" y2="295.932" gradientUnits="userSpaceOnUse">
<stop stop-color="#C7926C"/>
<stop offset="0.43888" stop-color="#B0805F"/>
<stop offset="1" stop-color="#B0805F"/>
</linearGradient>
<linearGradient id="paint8_linear" x1="191.726" y1="235.517" x2="123.899" y2="280.043" gradientUnits="userSpaceOnUse">
<stop stop-color="#E8B18C"/>
<stop offset="0.439713" stop-color="#D9A582"/>
<stop offset="1" stop-color="#B78664"/>
</linearGradient>
</defs>
</svg>
