<svg width="372" height="298" xmlns="http://www.w3.org/2000/svg">

 <g>
  <title>background</title>
  <rect fill="none" id="canvas_background" height="402" width="582" y="-1" x="-1"/>
 </g>
 <g>
  <title>Layer 1</title>
  <path id="svg_2" fill="#D2DFE6" d="m94.1206,107.954c0,0 1.2026,1.664 2.8671,3.811c8.0033,10.327 30.5193,24.174 91.4353,31.824c81.828,10.273 96.565,7.338 99.704,5.809c0.679,-0.34 2.072,-0.897 2.072,-0.897l0.177,-2.127l0.407,-15.347l-17.712,-38.0475l-93.711,-24.52l-44.95,0.7269l-29.072,20.5387c0,0 -7.9222,7.5822 -9.5596,10.7889c-0.8697,1.699 -1.6578,7.44 -1.6578,7.44z"/>
  <path id="svg_3" fill="#F5F8F9" d="m214.376,36.1057c21.796,5.1703 39.997,21.2113 47.824,39.5962c8.867,20.8443 5.836,43.9441 5.836,43.9441c0,0 24.113,4.118 22.183,28.855c0,0 8.275,-43.353 -12.725,-72.6972c-21.001,-29.3438 -63.559,-39.8 -63.118,-39.6981z"/>
  <path id="svg_4" fill="#2CC3D5" d="m212.963,36.0581c6.042,6.8612 10.099,15.2399 11.734,24.2346c2.048,12.1049 1.774,24.4891 -0.809,36.4913c0,0 43.829,-1.6714 44.114,22.862c0.048,0 11.87,-69.0892 -55.039,-83.5879z"/>
  <path id="svg_5" fill="#F5F8F9" d="m204.24,35.7656c-21.117,7.1542 -38.781,53.4834 -38.781,53.4834c0,0 30.899,-9.3012 58.429,7.5346c0,0 4.321,-16.0816 1.984,-32.9039c-1.678,-12.0324 -6.529,-25.1382 -12.977,-27.8219l-8.655,-0.2922z"/>
  <path id="svg_6" fill="#2CC3D5" d="m187.709,35.2153c0,0 -58.796,21.1909 -69.259,55.9768c0,0 11.842,-14.0706 46.988,-1.9431c0,0 17.665,-46.3291 38.788,-53.4833l-16.517,-0.5504z"/>
  <path id="svg_7" fill="#F5F8F9" d="m187.71,35.2153c0,0 -58.796,21.1909 -69.259,55.9768c0,0 -22.2104,-3.397 -24.3302,16.7609c0,0 6.5362,-65.7261 93.5892,-72.7377z"/>
  <path id="svg_8" fill="#8CA0B3" d="m165.459,89.2153c0.17,9.3012 0.217,18.6027 0.326,27.9037l0.115,27.903c0.055,9.301 0,18.603 0,27.897l-0.108,27.903l-1.977,-0.53l14.817,-25.987c4.987,-8.642 9.927,-17.305 14.948,-25.92l15.055,-25.858l7.61,-12.909l3.804,-6.441l3.839,-6.393l-3.546,6.583l-3.581,6.584l-7.181,13.126l-14.526,26.158c-4.838,8.703 -9.756,17.379 -14.648,26.075l-14.743,26.029l-2.039,3.56l0,-4.077l0.245,-27.896c0.109,-9.301 0.204,-18.603 0.374,-27.904l0.475,-27.896c0.279,-9.315 0.442,-18.6095 0.741,-27.9107z"/>
  <path id="svg_9" fill="#8CA0B3" d="m268.05,119.646c-8.252,7.247 -16.593,14.394 -25.023,21.442c-4.198,3.54 -8.438,7.025 -12.664,10.531l-12.766,10.443l-12.807,10.354c-4.294,3.397 -8.567,6.869 -12.909,10.259c-4.341,3.39 -8.628,6.794 -12.963,10.191c-4.335,3.397 -8.696,6.713 -13.106,9.994c4.077,-3.655 8.296,-7.201 12.44,-10.802c4.145,-3.601 8.371,-7.12 12.583,-10.64c4.212,-3.519 8.459,-7.059 12.671,-10.571l12.739,-10.436l12.814,-10.375c4.294,-3.397 8.567,-6.869 12.909,-10.259c8.587,-6.808 17.282,-13.518 26.082,-20.131z"/>
  <path id="svg_10" fill="#8CA0B3" d="m290.199,148.501c-10.037,4.91 -20.127,9.695 -30.268,14.356c-5.062,2.358 -10.191,4.64 -15.239,6.964l-15.28,6.848l-15.328,6.747c-5.122,2.215 -10.232,4.464 -15.375,6.638c-5.143,2.174 -10.279,4.362 -15.429,6.515c-5.15,2.154 -10.321,4.274 -15.518,6.319c5,-2.487 10.062,-4.844 15.09,-7.277c5.027,-2.432 10.109,-4.755 15.178,-7.079c5.068,-2.324 10.157,-4.64 15.232,-6.964l15.287,-6.849l15.328,-6.739c5.122,-2.215 10.238,-4.464 15.375,-6.638c10.268,-4.403 20.584,-8.683 30.947,-12.841z"/>
  <path id="svg_11" fill="#8CA0B3" d="m164.182,201.073c-6.169,-7.514 -12.23,-15.107 -18.181,-22.78c-2.997,-3.825 -5.932,-7.691 -8.901,-11.55l-8.832,-11.605l-8.683,-11.658c-2.874,-3.914 -5.775,-7.807 -8.615,-11.747c-2.84,-3.941 -5.693,-7.868 -8.513,-11.829c-2.8196,-3.961 -5.6187,-7.915 -8.3364,-11.951c3.1117,3.737 6.1144,7.548 9.1784,11.326c3.065,3.777 6.027,7.616 9.003,11.455c2.976,3.838 5.931,7.684 8.9,11.55l8.832,11.604l8.71,11.679c2.874,3.914 5.775,7.807 8.615,11.747c5.726,7.827 11.333,15.747 16.823,23.759z"/>
  <path id="svg_12" fill="#8CA0B3" d="m118.45,91.1924c4.326,9.0046 8.529,18.0636 12.61,27.1766c2.038,4.545 4.077,9.118 6.115,13.67l5.972,13.717l5.87,13.765c1.923,4.606 3.879,9.192 5.761,13.812c1.882,4.62 3.778,9.234 5.639,13.867c1.862,4.634 3.69,9.274 5.436,13.948c-2.195,-4.484 -4.267,-9.022 -6.4,-13.533c-2.134,-4.512 -4.185,-9.091 -6.224,-13.643c-2.038,-4.552 -4.076,-9.111 -6.114,-13.67l-5.972,-13.717l-5.85,-13.765c-1.923,-4.606 -3.873,-9.192 -5.755,-13.812c-3.823,-9.209 -7.519,-18.48 -11.088,-27.8156z"/>
  <path id="svg_13" fill="#EDB58D" d="m118.24,194.802l-12.909,53.674l86.965,2.717l12.908,-54.353l-86.964,-2.038z"/>
  <path id="svg_14" fill="#D99564" d="m153.698,267.5l-48.367,-19.024l86.965,2.718l28.535,16.306l-67.133,0z"/>
  <path id="svg_15" fill="#F3C29F" d="m232.381,215.185l-27.177,-18.344l-12.909,54.353l28.536,16.306l11.55,-52.315z"/>
  <path id="svg_16" fill="black" d="m113.382,214.988l86.883,2.649l27.917,16.558l-1.963,8.914l-28.665,-14.064l-86.822,-3.024l2.65,-11.033z" opacity="0.2"/>
  <path id="svg_17" stroke-linejoin="round" stroke-linecap="round" stroke-width="2.11931" stroke="white" fill="#2CC3D5" d="m152.637,230.587c-0.629,-0.183 -1.169,-0.347 -1.714,-0.495c-7.328,-1.928 -10.188,-6.987 -8.042,-14.241c2.383,-8.072 6.858,-10.609 15.415,-9.826c10.505,0.956 11.808,6.922 9.618,14.573c-0.867,3.037 -2.354,5.629 -4.841,7.561c-2.384,1.868 -4.861,3.667 -7.398,5.386c-0.798,0.535 -1.913,0.6 -2.879,0.877c-0.055,-0.931 -0.109,-1.863 -0.159,-2.794c-0.014,-0.243 0,-0.491 0,-1.041z"/>
  <path id="svg_18" fill="#87DDE8" d="m280.497,183.783c2.844,-0.233 13.478,-16.671 25.705,-16.671c10.259,0 15.236,7.485 15.947,12.378c0,0 5.08,-5.491 14.937,-3.095c7.965,1.937 9.596,7.378 10.16,10.482l0,0.331c0,0 5.248,-3.527 13.375,-3.064c7.659,0.432 10.266,4.666 11.379,6.658l-103.084,0c0,0 0.979,-6.152 11.581,-7.019z"/>
  <path id="svg_19" fill="#87DDE8" d="m0.01009,233.589l85.11821,0c0,0 -0.4162,-18.773 -29.203,-17.108c0,0 -10.0139,-12.626 -27.1156,-11.525c-17.1018,1.102 -29.20938,19.868 -28.79961,28.633z"/>
  <path id="svg_20" fill="#87DDE8" d="m12.1653,73.6317l71.0706,0c0,0 -3.238,-7.9616 -10.839,-7.7439c-7.601,0.2176 -11.525,2.7286 -16.0903,1.1985c-4.5654,-1.53 -12.7392,-8.0686 -24.9331,-5.7786c-12.1938,2.29 -19.2082,12.324 -19.2082,12.324z"/>
 </g>
</svg>