<svg width="72" height="73" viewBox="0 0 72 73" fill="none" xmlns="http://www.w3.org/2000/svg">
<path d="M34.0643 31.4845C31.5725 35.6731 29.1853 39.7293 26.7482 43.755C26.1223 44.7885 25.8126 45.6304 26.3126 46.9441C27.693 50.5733 25.7456 54.1051 22.0857 55.0637C18.634 55.9681 15.2712 53.6998 14.5864 50.0046C13.9795 46.7339 16.5178 43.5276 20.1242 43.0164C20.4262 42.9732 20.7348 42.9682 21.2426 42.9302L26.7282 33.7319C23.278 30.3014 21.2245 26.2914 21.6789 21.3222C22.0002 17.8097 23.3816 14.7741 25.9063 12.2862C30.7419 7.52176 38.1191 6.75031 43.8128 10.4073C49.2811 13.92 51.7856 20.7623 49.6508 26.6186C48.0411 26.1822 46.4202 25.7422 44.6383 25.2589C45.3086 22.0028 44.8128 19.079 42.6167 16.5742C41.1658 14.9204 39.3039 14.0536 37.1869 13.7343C32.9427 13.0931 28.7757 15.8196 27.5392 19.9853C26.1357 24.7126 28.26 28.5746 34.0643 31.4847V31.4845Z" fill="#C73A63"/>
<path d="M41.1805 26.531C42.936 29.6279 44.7186 32.7714 46.4851 35.8861C55.4142 33.1237 62.1465 38.0664 64.5617 43.3581C67.4791 49.7502 65.4847 57.321 59.7555 61.2647C53.8748 65.3129 46.4377 64.6213 41.2275 59.421C42.5553 58.3095 43.8898 57.1931 45.3156 56.0003C50.4616 59.3332 54.9626 59.1763 58.3041 55.2295C61.1535 51.8626 61.0918 46.8424 58.1596 43.5462C54.7759 39.7425 50.2435 39.6265 44.7648 43.2778C42.4922 39.246 40.18 35.2464 37.9792 31.1856C37.2371 29.8169 36.4179 29.0227 34.7453 28.7331C31.9522 28.2489 30.149 25.8504 30.0407 23.1634C29.9344 20.5059 31.5001 18.1037 33.9473 17.1679C36.3714 16.2405 39.2162 16.9889 40.8468 19.0499C42.1793 20.7337 42.6028 22.6289 41.9015 24.7056C41.7066 25.2847 41.4541 25.845 41.1805 26.5312V26.531Z" fill="#4B4B4B"/>
<path d="M45.3764 51.8469H34.6272C33.5969 56.0844 31.3715 59.5055 27.537 61.6811C24.556 63.372 21.3433 63.9452 17.9238 63.3931C11.6279 62.3779 6.47989 56.7104 6.02663 50.3289C5.51371 43.0995 10.483 36.6736 17.1065 35.2302C17.5638 36.8908 18.026 38.5673 18.4832 40.2239C12.4062 43.3243 10.3028 47.2306 12.0036 52.1153C13.5008 56.4138 17.7538 58.77 22.3717 57.8588C27.0875 56.9284 29.4652 53.0094 29.1749 46.7198C33.6455 46.7198 38.12 46.6736 42.5911 46.7426C44.337 46.7701 45.6848 46.589 47 45.0499C49.1653 42.5173 53.151 42.7458 55.4831 45.1377C57.8664 47.5822 57.7522 51.5153 55.2302 53.8567C52.7968 56.1158 48.9525 55.9951 46.6759 53.5608C46.208 53.0591 45.8393 52.4633 45.3764 51.8469Z" fill="#4A4A4A"/>
</svg>
