<svg width="258" height="258" viewBox="0 0 258 258" fill="none" xmlns="http://www.w3.org/2000/svg">
<g clip-path="url(#clip0)">
<path d="M206.462 49.1607C186.503 29.0245 159.964 17.929 131.689 17.9167C73.423 17.9167 26.0062 65.7072 25.9829 124.449C25.9761 143.225 30.8424 161.554 40.0918 177.711L25.0955 232.917L81.1315 218.103C96.5704 226.592 113.954 231.065 131.644 231.072H131.688H131.689C189.946 231.072 237.369 183.273 237.394 124.535C237.404 96.0661 226.418 69.2983 206.462 49.1607ZM131.689 213.079H131.655C115.887 213.07 100.424 208.802 86.9374 200.734L83.7277 198.815L50.4748 207.605L59.3528 174.93L57.2616 171.58C48.4662 157.48 43.823 141.186 43.8296 124.455C43.8489 75.6315 83.2599 35.9111 131.722 35.9111C155.19 35.9209 177.247 45.1435 193.836 61.8801C210.424 78.6165 219.553 100.865 219.546 124.527C219.525 173.353 180.113 213.079 131.689 213.079Z" fill="#E0E0E0"/>
<path d="M29.9429 226.791L44.2542 174.107C35.425 158.688 30.7819 141.195 30.7875 123.28C30.8107 67.2228 76.0619 21.6167 131.661 21.6167C158.647 21.629 183.974 32.217 203.017 51.4339C222.063 70.6507 232.546 96.1939 232.535 123.359C232.512 179.418 187.258 225.028 131.665 225.028C131.661 225.028 131.668 225.028 131.665 225.028H131.621C114.739 225.022 98.1509 220.75 83.4182 212.654L29.9429 226.791Z" fill="url(#paint0_linear)"/>
<path fill-rule="evenodd" clip-rule="evenodd" d="M105.562 79.2205C103.607 74.8369 101.548 74.7491 99.6871 74.6724C98.1653 74.6066 96.4231 74.6106 94.6837 74.6106C92.9429 74.6106 90.1141 75.2702 87.7219 77.9042C85.3283 80.5382 78.5828 86.9059 78.5828 99.8564C78.5828 112.808 87.9395 125.323 89.2437 127.081C90.5493 128.836 107.306 156.262 133.843 166.813C155.898 175.581 160.387 173.837 165.174 173.398C169.961 172.96 180.62 167.032 182.796 160.885C184.972 154.739 184.972 149.472 184.32 148.37C183.667 147.274 181.926 146.615 179.315 145.299C176.704 143.983 163.868 137.614 161.475 136.736C159.081 135.859 157.34 135.42 155.599 138.055C153.859 140.688 148.858 146.615 147.335 148.37C145.811 150.13 144.288 150.349 141.677 149.033C139.066 147.712 130.657 144.936 120.681 135.968C112.92 128.992 107.68 120.375 106.157 117.74C104.633 115.108 105.993 113.682 107.303 112.369C108.475 111.19 109.914 109.296 111.22 107.759C112.523 106.222 112.958 105.125 113.828 103.37C114.699 101.612 114.263 100.075 113.611 98.7591C112.958 97.4428 107.884 84.4254 105.562 79.2205Z" fill="white"/>
<path d="M205.595 48.8221C185.866 28.9171 159.631 17.9492 131.681 17.9368C74.0835 17.9368 27.2111 65.1786 27.188 123.246C27.1812 141.807 31.9915 159.926 41.1347 175.897L26.3108 230.469L81.7035 215.825C96.9654 224.216 114.149 228.638 131.636 228.645H131.68H131.681C189.268 228.645 236.148 181.395 236.172 123.331C236.182 95.1891 225.322 68.7286 205.595 48.8221ZM131.681 210.858H131.647C116.06 210.85 100.775 206.631 87.4427 198.655L84.2698 196.759L51.3986 205.448L60.1747 173.148L58.1075 169.836C49.4131 155.898 44.8231 139.791 44.8299 123.253C44.8489 74.9893 83.8074 35.7249 131.713 35.7249C154.912 35.7345 176.716 44.8513 193.115 61.3957C209.512 77.9401 218.536 99.9334 218.529 123.324C218.508 171.589 179.548 210.858 131.681 210.858Z" fill="white"/>
</g>
<defs>
<linearGradient id="paint0_linear" x1="131.239" y1="226.791" x2="131.239" y2="21.617" gradientUnits="userSpaceOnUse">
<stop stop-color="#20B038"/>
<stop offset="1" stop-color="#60D66A"/>
</linearGradient>
<clipPath id="clip0">
<rect width="212.312" height="215" fill="white" transform="translate(25.0833 17.9167)"/>
</clipPath>
</defs>
</svg>
