<svg width="211" height="214" viewBox="0 0 211 214" fill="none" xmlns="http://www.w3.org/2000/svg">
<path d="M179.595 31.8221C159.866 11.9171 133.631 0.949229 105.681 0.936768C48.0835 0.936768 1.21113 48.1786 1.18798 106.246C1.18119 124.807 5.99154 142.926 15.1347 158.897L0.310791 213.469L55.7035 198.825C70.9654 207.216 88.149 211.638 105.636 211.645H105.68H105.681C163.268 211.645 210.148 164.395 210.172 106.331C210.182 78.1891 199.322 51.7286 179.595 31.8221ZM105.681 193.858H105.647C90.0599 193.85 74.7748 189.631 61.4427 181.655L58.2698 179.759L25.3986 188.448L34.1747 156.148L32.1075 152.836C23.4131 138.898 18.8231 122.791 18.8299 106.253C18.8489 57.9893 57.8074 18.7249 105.713 18.7249C128.912 18.7345 150.716 27.8513 167.115 44.3957C183.512 60.9401 192.536 82.9334 192.529 106.324C192.508 154.589 153.548 193.858 105.681 193.858Z" fill="white"/>
</svg>
