<svg width="258" height="258" viewBox="0 0 258 258" fill="none" xmlns="http://www.w3.org/2000/svg">
<path fill-rule="evenodd" clip-rule="evenodd" d="M70.8215 219.412L26.4995 231.5L36.1553 183.221C26.8391 167.303 21.4995 148.775 21.4995 129C21.4995 69.6294 69.6289 21.5 129 21.5C188.37 21.5 236.5 69.6294 236.5 129C236.5 188.371 188.37 236.5 129 236.5C107.562 236.5 87.591 230.225 70.8215 219.412Z" fill="url(#paint0_linear)"/>
<path fill-rule="evenodd" clip-rule="evenodd" d="M126.47 46.5001H138.536C160.666 48.5628 181.642 60.8765 193.419 79.8302C210.435 105.715 208.083 142.695 187.417 165.878C181.684 172.561 169.948 170.869 166.442 162.765C160.645 150.119 156.068 136.941 150.622 124.154C145.467 136.507 140.888 149.131 135.544 161.422C133.215 167.983 125.315 172.21 118.757 169.178C113.787 167.321 111.456 162.227 109.579 157.67C102.236 139.168 94.7081 120.73 87.2627 102.25C93.2847 102.229 99.3068 102.25 105.35 102.229C111.372 117.1 117.355 132.012 123.418 146.862C127.956 135.703 132.39 124.504 136.825 113.305C138.825 108.272 141.445 102.622 147.076 100.909C153.282 98.5784 160.007 102.993 162.358 108.726C168.319 122.215 173.289 136.137 179.084 149.689C184.942 139.704 188.633 128.299 187.996 116.605C187.376 90.9062 166.545 67.4754 141.073 63.9286C110.774 59.3496 79.9192 80.1194 71.1951 109.201C62.6354 134.941 72.3703 165.095 94.0276 181.306C109.681 193.907 131.194 197.972 150.458 192.38C150.437 198.135 150.415 203.89 150.437 209.625C146.827 210.263 143.238 210.943 139.629 211.5H127.295C106.525 209.521 86.4376 200.053 72.6185 184.276C60.3262 170.85 53.4166 153.214 51.4985 135.23V123.411C53.1898 105.179 60.2226 87.2969 72.6398 73.6848C86.2716 58.112 106.052 48.7896 126.47 46.5001Z" fill="white"/>
<defs>
<linearGradient id="paint0_linear" x1="129" y1="21.5" x2="129" y2="236.5" gradientUnits="userSpaceOnUse">
<stop stop-color="#01AEFF"/>
<stop offset="1" stop-color="#0171FF"/>
</linearGradient>
</defs>
</svg>
