<?xml version="1.0" encoding="UTF-8" standalone="no"?>
<!-- Created with Inkscape (http://www.inkscape.org/) -->

<svg
   xmlns:dc="http://purl.org/dc/elements/1.1/"
   xmlns:cc="http://creativecommons.org/ns#"
   xmlns:rdf="http://www.w3.org/1999/02/22-rdf-syntax-ns#"
   xmlns:svg="http://www.w3.org/2000/svg"
   xmlns="http://www.w3.org/2000/svg"
   xmlns:sodipodi="http://sodipodi.sourceforge.net/DTD/sodipodi-0.dtd"
   xmlns:inkscape="http://www.inkscape.org/namespaces/inkscape"
   width="159.41888mm"
   height="166.60976mm"
   viewBox="0 0 159.41888 166.60976"
   version="1.1"
   id="svg8017"
   inkscape:version="0.92pre1_64bit r15016"
   sodipodi:docname="Transmission 1.svg">
  <defs
     id="defs8011" />
  <sodipodi:namedview
     id="base"
     pagecolor="#ffffff"
     bordercolor="#666666"
     borderopacity="1.0"
     inkscape:pageopacity="0.0"
     inkscape:pageshadow="2"
     inkscape:zoom="0.94012101"
     inkscape:cx="301.26403"
     inkscape:cy="314.85308"
     inkscape:document-units="mm"
     inkscape:current-layer="layer1"
     showgrid="false"
     fit-margin-top="10"
     fit-margin-left="10"
     fit-margin-right="10"
     fit-margin-bottom="10"
     inkscape:window-width="1366"
     inkscape:window-height="745"
     inkscape:window-x="-8"
     inkscape:window-y="-8"
     inkscape:window-maximized="1" />
  <metadata
     id="metadata8014">
    <rdf:RDF>
      <cc:Work
         rdf:about="">
        <dc:format>image/svg+xml</dc:format>
        <dc:type
           rdf:resource="http://purl.org/dc/dcmitype/StillImage" />
        <dc:title></dc:title>
        <cc:license
           rdf:resource="http://creativecommons.org/publicdomain/zero/1.0/" />
      </cc:Work>
      <cc:License
         rdf:about="http://creativecommons.org/publicdomain/zero/1.0/">
        <cc:permits
           rdf:resource="http://creativecommons.org/ns#Reproduction" />
        <cc:permits
           rdf:resource="http://creativecommons.org/ns#Distribution" />
        <cc:permits
           rdf:resource="http://creativecommons.org/ns#DerivativeWorks" />
      </cc:License>
    </rdf:RDF>
  </metadata>
  <g
     inkscape:label="Layer 1"
     inkscape:groupmode="layer"
     id="layer1"
     transform="translate(-19.19253,-4.296312)">
    <g
       transform="matrix(2.8578343,0,0,2.8578343,-68.967215,-670.2115)"
       id="g2772">
      <path
         inkscape:connector-curvature="0"
         id="path2774"
         style="fill:#ffffff;fill-opacity:1;fill-rule:nonzero;stroke:#d40000;stroke-width:3.85880303;stroke-linecap:round;stroke-linejoin:round;stroke-miterlimit:4;stroke-dasharray:none;stroke-opacity:1"
         d="m 81.203,265.027 c 0,12.407 -10.055,22.461 -22.461,22.461 -12.406,0 -22.465,-10.054 -22.465,-22.461 0,-12.406 10.059,-22.465 22.465,-22.465 12.406,0 22.461,10.059 22.461,22.465 z" />
    </g>
    <g
       transform="matrix(2.8578343,0,0,2.8578343,-68.967215,-670.2115)"
       id="g2776">
      <path
         inkscape:connector-curvature="0"
         id="path2778"
         style="fill:#ffffff;fill-opacity:1;fill-rule:nonzero;stroke:#d40000;stroke-width:2.63123012;stroke-linecap:round;stroke-linejoin:round;stroke-miterlimit:4;stroke-dasharray:none;stroke-opacity:1"
         d="m 74.059,265.027 c 0,8.457 -6.86,15.317 -15.317,15.317 -8.461,0 -15.32,-6.86 -15.32,-15.317 0,-8.461 6.859,-15.32 15.32,-15.32 8.457,0 15.317,6.859 15.317,15.32 z" />
    </g>
    <g
       transform="matrix(2.8578343,0,0,2.8578343,-68.967215,-670.2115)"
       id="g2780">
      <path
         inkscape:connector-curvature="0"
         id="path2782"
         style="fill:#ffffff;fill-opacity:1;fill-rule:nonzero;stroke:#d40000;stroke-width:1.62502396;stroke-linecap:round;stroke-linejoin:round;stroke-miterlimit:4;stroke-dasharray:none;stroke-opacity:1"
         d="m 68.203,265.027 c 0,5.223 -4.238,9.461 -9.461,9.461 -5.226,0 -9.461,-4.238 -9.461,-9.461 0,-5.226 4.235,-9.461 9.461,-9.461 5.223,0 9.461,4.235 9.461,9.461 z" />
    </g>
    <g
       transform="matrix(2.8578343,0,0,2.8578343,-68.967215,-670.2115)"
       id="g2784">
      <path
         inkscape:connector-curvature="0"
         id="path2786"
         style="fill:#ffffff;fill-opacity:1;fill-rule:nonzero;stroke:#d40000;stroke-width:0.89049298;stroke-linecap:round;stroke-linejoin:round;stroke-miterlimit:4;stroke-dasharray:none;stroke-opacity:1"
         d="m 63.922,265.027 c 0,2.864 -2.317,5.184 -5.18,5.184 -2.863,0 -5.183,-2.32 -5.183,-5.184 0,-2.863 2.32,-5.187 5.183,-5.187 2.863,0 5.18,2.324 5.18,5.187 z" />
    </g>
    <path
       inkscape:connector-curvature="0"
       id="path2788"
       style="fill:#ffffff;fill-opacity:1;fill-rule:nonzero;stroke:none;stroke-width:2.8578341"
       d="m 98.98771,87.559753 48.0916,-73.263441 H 50.738869 Z" />
    <path
       inkscape:connector-curvature="0"
       id="path2790"
       style="fill:#ffffff;fill-opacity:1;fill-rule:nonzero;stroke:none;stroke-width:2.8578341"
       d="m 98.98771,87.639775 48.0916,73.266295 H 50.738869 Z" />
    <g
       transform="matrix(2.8578343,0,0,2.8578343,-68.967215,-670.2115)"
       id="g2792">
      <path
         inkscape:connector-curvature="0"
         id="path2794"
         style="fill:none;stroke:#000000;stroke-width:1.50937808;stroke-linecap:butt;stroke-linejoin:miter;stroke-miterlimit:10;stroke-dasharray:none;stroke-opacity:1"
         d="m 51.751406,289.34122 6.937388,-22.03064 8.023655,22.03064" />
    </g>
    <path
       inkscape:connector-curvature="0"
       id="path2796"
       style="fill:#d40000;fill-opacity:1;fill-rule:evenodd;stroke:none;stroke-width:2.8578341"
       d="m 106.298,87.639775 c 0,4.01811 -3.25795,7.278903 -7.27887,7.278903 -4.00672,0 -7.26751,-3.260793 -7.26751,-7.278903 0,-4.009548 3.26079,-7.267475 7.26751,-7.267475 4.02092,0 7.27887,3.257927 7.27887,7.267475 z" />
    <g
       transform="matrix(3.8950699,0,0,3.8950699,-130.39912,-941.2292)"
       id="g2798">
      <path
         inkscape:connector-curvature="0"
         id="path2800"
         style="fill:none;stroke:#000000;stroke-width:1.10743904;stroke-linecap:butt;stroke-linejoin:bevel;stroke-miterlimit:10;stroke-dasharray:none;stroke-opacity:1"
         d="m 57.715,270.371 3.223,0.945 -4.735,3.219 6.434,1.703 -7.949,3.223 9.464,0.945" />
    </g>
  </g>
</svg>
