<svg width="910" height="180" viewBox="0 0 910 180" fill="none" xmlns="http://www.w3.org/2000/svg">
<rect width="910" height="180" rx="8" fill="#2CC3D5"/>
<mask id="mask0" mask-type="alpha" maskUnits="userSpaceOnUse" x="0" y="0" width="910" height="180">
<rect width="910" height="180" fill="#C4C4C4"/>
</mask>
<g mask="url(#mask0)">
<path d="M112.433 160.101C112.433 161.173 112.115 162.22 111.52 163.111C110.925 164.002 110.079 164.696 109.089 165.106C108.099 165.516 107.01 165.623 105.959 165.414C104.909 165.205 103.943 164.689 103.186 163.932C102.428 163.174 101.912 162.209 101.703 161.158C101.494 160.107 101.602 159.018 102.012 158.028C102.422 157.038 103.116 156.192 104.007 155.597C104.897 155.002 105.945 154.684 107.016 154.684C108.453 154.684 109.831 155.255 110.846 156.271C111.862 157.287 112.433 158.665 112.433 160.101Z" fill="#BAE6F0"/>
<path d="M129.952 86.9472C150.465 117.75 164.681 155.304 134.758 162.23" stroke="#F3C29F" stroke-width="10.971" stroke-linecap="round" stroke-linejoin="round"/>
<path d="M129.952 86.9472C135.346 94.981 140.214 103.357 144.523 112.021" stroke="#DAF2F4" stroke-width="12.1916" stroke-linecap="round" stroke-linejoin="round"/>
<path d="M136.793 171.626C136.811 171.451 136.796 171.275 136.75 171.105L136.135 169.454C134.716 165.523 131.196 155.583 131.087 151.264C130.903 143.898 131.977 131.276 132.611 127.046C131.423 127.676 130.269 128.546 129.034 128.546H84.3836C83.1441 128.546 81.8715 127.817 80.684 127.188C81.3179 131.418 82.056 143.898 81.8715 151.264C81.7626 155.583 78.2665 165.523 76.8236 169.454L76.2085 171.105C76.1623 171.275 76.1478 171.451 76.166 171.626C76.1655 171.634 76.1655 171.642 76.166 171.649C76.166 173.84 89.7059 175.623 106.491 175.652C123.276 175.68 136.816 173.84 136.816 171.649C136.809 171.641 136.801 171.633 136.793 171.626Z" fill="#DAF2F4"/>
<path d="M85.7556 129.232C83.9155 129.171 82.1466 128.506 80.7219 127.34L81.8242 143.95C81.7532 139.881 84.1329 130.079 84.1329 130.079C84.3915 130.13 84.6545 130.156 84.9182 130.155C87.7567 130.022 95.9081 129.402 95.9081 129.402C90.7278 129.398 85.7556 129.232 85.7556 129.232Z" fill="#C64A79"/>
<path d="M107.238 128.338L80.6837 127.189L81.9138 148.875C82.4767 135.364 107.238 128.338 107.238 128.338Z" fill="#CEE8EA"/>
<path d="M137.048 112.381C134.881 103.075 129.583 81.2795 129.583 81.2795C129.583 80.2103 123.097 79.8318 108.544 79.548V79.477L106.43 79.5054L104.32 79.477V79.548C89.7672 79.8318 83.2811 80.2103 83.2811 81.2795C83.2811 81.2795 77.9825 103.075 75.8157 112.381C73.7247 121.369 79.8938 129.27 85.7507 129.27H127.113C132.965 129.284 139.158 121.35 137.048 112.381Z" fill="#DAF2F4"/>
<path d="M127.279 129.232C127.279 129.232 122.307 129.398 117.126 129.398C117.126 129.398 128.589 129.487 130.018 135.169C130.127 135.709 130.236 136.267 130.34 136.835C130.813 139.441 131.239 142.214 131.21 143.931L132.629 126.971C131.078 128.182 129.001 129.232 127.279 129.232Z" fill="#CEE8EA"/>
<path d="M84.0805 87.0465C63.5673 117.85 53.5044 156.487 79.2739 162.334" stroke="#F3C29F" stroke-width="10.971" stroke-linecap="round" stroke-linejoin="round"/>
<path d="M84.5712 87C79.1777 95.0344 74.3104 103.41 70 112.074" stroke="#DAF2F4" stroke-width="12.1916" stroke-linecap="round" stroke-linejoin="round"/>
<path d="M141.126 136.802H72.925C72.1653 136.801 71.4144 136.964 70.7235 137.28C70.0325 137.595 69.4176 138.056 68.9206 138.631C68.4237 139.205 68.0564 139.88 67.8437 140.61C67.6309 141.339 67.5778 142.105 67.6879 142.857L72.5513 176.324C72.6576 177.052 73.0214 177.719 73.5769 178.202C74.1324 178.686 74.8427 178.954 75.579 178.959H138.453C139.193 178.959 139.907 178.692 140.467 178.208C141.026 177.725 141.393 177.056 141.5 176.324L146.363 142.857C146.473 142.105 146.42 141.339 146.207 140.61C145.995 139.88 145.627 139.205 145.13 138.631C144.633 138.056 144.018 137.595 143.328 137.28C142.637 136.964 141.886 136.801 141.126 136.802Z" fill="url(#paint0_linear)"/>
<path opacity="0.8" d="M112.338 157.948C112.193 157.158 111.807 156.431 111.234 155.868C110.661 155.304 109.928 154.93 109.136 154.798C108.389 154.65 107.63 154.575 106.869 154.575C105.862 154.575 104.447 154.708 103.425 155.342C102.148 156.132 101.476 157.669 101.533 159.666C101.566 160.815 101.84 162.433 102.952 163.588C103.842 164.534 105.55 164.974 106.874 165.031V166.067C106.875 166.233 106.942 166.393 107.06 166.51C107.178 166.628 107.337 166.695 107.503 166.696H107.56C107.69 166.686 107.812 166.634 107.91 166.549C108.426 166.109 109.107 165.523 109.765 164.903L110.058 164.638C110.584 164.182 111.06 163.672 111.477 163.115C112.409 161.814 112.722 159.883 112.338 157.948Z" fill="#DAE5EA"/>
<path d="M107.016 177.275L106.69 177.403L106.217 176.967L107.016 177.275Z" fill="#564B5E"/>
<path d="M179.901 148.842C179.963 148.842 180.024 148.817 180.068 148.773C180.112 148.728 180.137 148.668 180.137 148.605C180.137 148.543 180.112 148.482 180.068 148.438C180.024 148.394 179.963 148.369 179.901 148.369C179.838 148.369 179.778 148.394 179.733 148.438C179.689 148.482 179.664 148.543 179.664 148.605C179.664 148.668 179.689 148.728 179.733 148.773C179.778 148.817 179.838 148.842 179.901 148.842Z" fill="#DF638D"/>
<path opacity="0.6" d="M69.0552 152.414C69.0552 152.414 76.2746 161.454 87.4207 166.696C93.2492 169.426 100.194 170.173 107.645 170.032C114.448 169.904 123.229 167.325 129.952 164.175C138.94 159.959 144.949 154.916 144.57 155.186L119.577 177.279L87.2362 178.405L70.7158 163.82L69.0552 152.414Z" fill="#DEE8EC"/>
<path d="M157.273 196.397C157.273 199.922 156.218 202.774 154.907 202.774L150.526 202.178C142.269 202.236 134.014 201.846 125.798 201.01C117.428 200.187 109.108 198.923 100.871 197.225C94.456 195.909 88.113 194.265 81.8666 192.3L112.977 179.569C118.082 181.462 123.281 183.127 128.537 184.636C136.126 186.828 143.828 188.608 151.61 189.968H151.652C151.738 189.968 151.823 190.01 151.908 190.029H154.907C156.218 190.025 157.273 192.877 157.273 196.397Z" fill="#121927"/>
<path d="M163.437 177.185L163.04 177.474C159.101 180.32 154.928 182.827 150.564 184.967C146.504 186.972 142.335 188.745 138.075 190.28C129.938 193.183 121.605 195.5 113.138 197.216C104.903 198.914 96.5838 200.178 88.2156 201C79.9984 201.837 71.7418 202.227 63.4823 202.169L59.1062 202.765C57.8052 202.765 56.7408 199.927 56.7408 196.388C56.7408 192.849 57.791 190.015 59.1062 190.015H62.1056C62.1908 190.015 62.2712 189.968 62.3611 189.954H62.4037C64.7692 189.547 67.1346 189.094 69.5001 188.596C69.8975 188.516 70.2949 188.435 70.6875 188.345C115.527 186.529 144.097 155.664 144.542 155.181C144.883 154.846 145.209 154.51 145.531 154.174C146.129 153.549 146.78 152.976 147.475 152.461C153.89 147.782 162.661 149.523 167.061 156.35C171.461 163.177 169.857 172.501 163.437 177.185Z" fill="#1A2437"/>
<path d="M94.1007 171.569C98.0416 173.504 102.886 175.605 107.016 177.275C101.644 178.551 96.2019 179.516 90.7181 180.165C76.8139 181.797 58.1031 182.27 55.4207 180.459C55.274 180.369 55.1274 180.279 54.9807 180.179L54.9003 180.132C53.6009 179.299 52.3046 178.413 51.0115 177.473L50.6141 177.185C44.1942 172.501 42.5715 163.172 46.9571 156.345C51.3427 149.518 60.1043 147.777 66.5242 152.466C67.2194 152.981 67.8699 153.554 68.4686 154.178C70.8437 156.634 73.4234 158.883 76.18 160.901C79.1509 163.086 82.2402 165.106 85.4337 166.952C88.2344 168.573 91.1234 170.112 94.1007 171.569Z" fill="#1A2437"/>
<path d="M107.016 177.275C100.114 180.023 92.6864 182.554 85.4812 184.626C80.8686 185.946 75.8349 187.214 71.1229 188.255L70.9431 188.345L70.8627 188.312L70.716 188.345L70.8201 188.293C68.3647 187.285 65.9188 186.188 63.4682 184.981C60.7131 183.615 58.0288 182.11 55.4257 180.473C59.8112 183.444 107.016 177.275 107.016 177.275Z" fill="#121927"/>
<path d="M144.57 155.181C144.126 155.655 115.556 186.529 70.7159 188.345L71.1086 188.26C75.9341 187.204 80.7218 185.992 85.4717 184.627C92.7682 182.537 99.9555 180.083 107.007 177.275L107.787 176.967C114.953 174.12 121.909 170.77 128.603 166.943C131.797 165.097 134.886 163.077 137.857 160.892C140.224 159.146 142.467 157.238 144.57 155.181Z" fill="#141E30"/>
<path d="M102.116 25.5915C103.025 25.445 112.964 18.4537 121.769 27.3341C127.999 33.6137 122.3 37.7635 127.633 42.0912C132.357 45.927 136.762 54.5929 129.953 64.4414C118.32 81.2603 119.389 76.9273 111.257 79.0519C96.8189 82.8354 99.0452 74.9859 99.0452 74.9859L102.116 25.5915Z" fill="#211F36"/>
<path d="M102.233 24.6019C105.475 23.2743 108.866 22.0057 112.507 21.9054C114.343 21.8171 116.172 22.1788 117.818 22.9557C119.459 23.7974 120.782 25.1031 121.602 26.6907C122.466 28.1935 123.167 29.7749 123.696 31.411C124.209 33.036 124.625 34.6867 124.943 36.3556C125.286 38.0077 125.566 39.6598 126.046 41.2529C126.444 42.8412 127.125 44.3537 128.06 45.7255C128.551 46.3939 129.112 47.0128 129.737 47.5723C130.379 48.1994 130.946 48.892 131.426 49.6375C132.389 51.1268 133.025 52.7843 133.296 54.5112C133.832 57.9571 132.972 61.4266 131.576 64.542C130.12 67.6429 128.233 70.546 125.965 73.1743C123.738 75.7993 121.311 78.2664 118.703 80.5558C121.19 78.1618 123.51 75.6173 125.648 72.9383C127.782 70.2782 129.558 67.3764 130.934 64.3001C132.237 61.2259 132.947 57.8745 132.417 54.641C132.153 53.032 131.546 51.4904 130.635 50.1095C130.18 49.424 129.652 48.7853 129.057 48.2037C128.39 47.6083 127.788 46.9499 127.262 46.2388C126.259 44.7935 125.524 43.1973 125.086 41.5185C124.625 39.8663 124.332 38.1965 123.996 36.5503C123.372 33.2696 122.499 30.0244 120.841 27.1096C120.121 25.6338 118.945 24.3994 117.469 23.5693C115.938 22.7913 114.219 22.403 112.482 22.4423C110.725 22.4612 108.977 22.6811 107.277 23.0973C105.581 23.4749 103.923 24.0886 102.233 24.6019Z" fill="#2C2A46"/>
<path d="M110.217 56.7297C110.062 55.9381 109.744 55.1875 109.282 54.5261C108.82 53.8646 108.226 53.3069 107.536 52.8886C106.176 52.0077 104.658 51.3982 103.067 51.0937C101.473 50.8187 99.8442 50.8187 98.2506 51.0937C95.0597 51.5763 92.0164 52.7638 89.3419 54.5698C88.0169 55.4589 86.8347 56.5443 85.8359 57.7886C83.8387 60.29 82.8714 63.4592 83.1316 66.6495C83.1854 67.4452 83.3051 68.217 83.3948 69.0427C83.4816 69.8773 83.5056 70.7173 83.4666 71.5555C83.3739 73.2378 82.9913 74.8915 82.3358 76.4436C81.0315 79.5608 78.746 82.0377 76.8494 84.6284C75.8705 85.8781 75.2075 87.3455 74.9169 88.9062C74.8231 89.6877 74.8676 90.4795 75.0485 91.2455C75.2455 92.0184 75.5326 92.7654 75.9041 93.4712C76.7122 94.9203 77.219 96.5179 77.3939 98.1679C77.4649 98.9899 77.4368 99.8175 77.3101 100.633C77.1599 101.442 76.9601 102.241 76.7118 103.026C77.1442 101.456 77.2882 99.8197 77.1366 98.1978C76.9051 96.5965 76.3537 95.0583 75.5152 93.6746C75.0998 92.9484 74.7782 92.1724 74.5579 91.3652C74.341 90.5423 74.2721 89.6874 74.3545 88.8404C74.6171 87.173 75.2802 85.5942 76.287 84.2395C77.2144 82.8634 78.2494 81.595 79.1888 80.2787C80.1465 78.9932 80.9497 77.5996 81.582 76.1265C82.1937 74.6593 82.5421 73.0958 82.611 71.5077C82.6434 70.7089 82.6154 69.9089 82.5273 69.1145C82.4375 68.3426 82.2999 67.505 82.2401 66.6674C82.1358 64.9797 82.3385 63.287 82.8384 61.6716C83.3453 60.0598 84.1579 58.5607 85.2316 57.2562C86.2888 55.9556 87.5399 54.8255 88.941 53.9057C90.3216 52.9836 91.8132 52.2398 93.3804 51.692C94.9383 51.1234 96.5563 50.736 98.2027 50.5373C99.8533 50.3057 101.531 50.3623 103.163 50.7048C104.781 51.0697 106.314 51.7464 107.674 52.6971C108.35 53.1743 108.935 53.7679 109.403 54.4501C109.863 55.1284 110.144 55.913 110.217 56.7297Z" fill="#2C2A46"/>
<path d="M111.413 26.7486C111.291 25.9609 110.97 25.2174 110.48 24.5887C110.017 23.9574 109.448 23.4108 108.799 22.9733C107.485 22.1036 106.016 21.4943 104.473 21.1784C102.977 20.7835 101.481 21.4297 100.117 22.1895C98.7716 23.0121 97.4769 23.9152 96.2402 24.8939C94.9718 25.8511 93.7034 26.8204 92.3273 27.664C90.9512 28.5076 89.4256 29.1119 88.0375 29.8059C87.358 30.135 86.7293 30.5602 86.1708 31.0683C85.6492 31.575 85.2413 32.1868 84.9742 32.8632C84.4987 34.321 84.3078 35.8565 84.4118 37.3863C84.5913 40.5334 84.6452 43.83 83.7417 46.9591C83.2974 48.539 82.5518 50.018 81.546 51.3148C80.5528 52.619 79.3203 53.6601 78.3331 54.8507C77.3273 56.0236 76.6611 57.449 76.4066 58.973C76.1643 60.5191 76.1643 62.0936 76.4066 63.6397C76.6506 65.2042 76.9801 66.7541 77.3938 68.2825C77.5852 69.0543 77.7767 69.8261 77.9023 70.6159C78.0664 71.4052 78.0664 72.2198 77.9023 73.0091C78.0213 72.2253 77.9806 71.4255 77.7827 70.6578C77.6211 69.886 77.3998 69.1201 77.1844 68.3603C76.7027 66.8372 76.3033 65.2894 75.9878 63.7235C75.6927 62.1324 75.6543 60.5044 75.8741 58.9012C76.1021 57.2654 76.7747 55.7237 77.8186 54.4439C78.8357 53.1695 80.0143 52.1045 80.9477 50.8541C81.8838 49.6261 82.5726 48.2282 82.9759 46.7378C83.3794 45.2317 83.6043 43.6835 83.646 42.1249C83.646 41.3411 83.646 40.5573 83.646 39.7736L83.5264 37.3804C83.4163 35.7297 83.638 34.0737 84.1785 32.5102C84.4968 31.7143 84.9824 30.9961 85.6025 30.4042C86.2242 29.8458 86.9235 29.3803 87.6785 29.0221C89.1384 28.3101 90.6102 27.7597 91.9325 26.946C93.2547 26.1323 94.541 25.2648 95.8573 24.3494C97.141 23.3897 98.4816 22.5085 99.8719 21.7109C100.582 21.3094 101.34 20.9978 102.127 20.7835C102.933 20.5563 103.787 20.5563 104.592 20.7835C106.161 21.1633 107.642 21.8418 108.954 22.7819C109.62 23.233 110.183 23.8195 110.607 24.503C111.03 25.1865 111.305 25.9517 111.413 26.7486Z" fill="#2C2A46"/>
<path d="M109.451 88.1897C112.771 88.1897 115.463 85.9717 115.463 83.2357C115.463 80.4998 112.771 78.2818 109.451 78.2818C106.13 78.2818 103.438 80.4998 103.438 83.2357C103.438 85.9717 106.13 88.1897 109.451 88.1897Z" fill="#EFB8C2"/>
<path d="M109.451 88.1897C112.771 88.1897 115.463 85.9717 115.463 83.2357C115.463 80.4998 112.771 78.2818 109.451 78.2818C106.13 78.2818 103.438 80.4998 103.438 83.2357C103.438 85.9717 106.13 88.1897 109.451 88.1897Z" fill="#F3C29F" stroke="white" stroke-width="0.709638" stroke-miterlimit="10"/>
<path d="M109.935 69.0018H108.96C107.638 69.0037 106.32 68.8613 105.029 68.577V79.9447C105.032 80.4658 105.137 80.9814 105.339 81.4618C105.541 81.9422 105.836 82.3781 106.206 82.7443C106.577 83.1106 107.016 83.4001 107.499 83.5963C107.982 83.7924 108.499 83.8914 109.02 83.8874H109.935C110.456 83.8874 110.972 83.7848 111.452 83.5854C111.933 83.386 112.37 83.0937 112.738 82.7253C113.106 82.3568 113.398 81.9195 113.596 81.4383C113.795 80.957 113.897 80.4414 113.896 79.9207V68.5829C112.595 68.8648 111.267 69.0052 109.935 69.0018Z" fill="#F3C29F"/>
<path d="M105.041 76.8743V80.147C105.041 80.147 105.993 78.5257 109.463 78.5137C112.933 78.5017 113.878 80.3086 113.878 80.3086V76.3718L105.029 76.2222L105.041 76.8743Z" fill="#E8AA7D"/>
<path d="M128.321 40.922V59.4692C128.321 67.7916 122.135 74.7438 113.866 76.443C112.573 76.7108 111.256 76.8451 109.935 76.8439H108.96C107.639 76.8458 106.322 76.7094 105.029 76.437C96.7667 74.7319 90.5743 67.7736 90.5743 59.4692V40.922C90.5743 31.3492 98.8069 23.5713 108.96 23.5713H109.935C120.094 23.5713 128.321 31.3492 128.321 40.922Z" fill="#F3C29F"/>
<path d="M91.0289 48.1217V56.5338C90.2777 56.5213 89.5617 56.2136 89.0355 55.6773C88.5093 55.1411 88.2152 54.4193 88.2169 53.668V50.9876C88.2168 50.2368 88.5113 49.5159 89.0372 48.9799C89.563 48.444 90.2782 48.1358 91.0289 48.1217Z" fill="#EFB8C2"/>
<path d="M129.96 56.1916V58.872C129.962 59.6233 129.668 60.3451 129.142 60.8813C128.616 61.4176 127.899 61.7253 127.148 61.7378V53.3257C127.899 53.3399 128.614 53.648 129.14 54.1839C129.666 54.7199 129.96 55.4408 129.96 56.1916Z" fill="#F3C29F"/>
<path d="M100.518 43.914C97.8376 47.9526 104.042 52.1287 98.7231 61.3904C96.1324 65.9075 96.5333 68.4443 97.8436 70.2392C99.2316 72.088 103.432 73.5538 105.298 76.5094C108.051 80.8889 109.445 87.8232 102.265 97.2105C93.3862 108.812 90.4306 108.907 87.1938 116.524C87.1458 116.695 87.0632 116.854 86.9512 116.992C86.8392 117.129 86.7001 117.243 86.5425 117.325C86.3849 117.407 86.2122 117.455 86.0351 117.468C85.8579 117.48 85.6801 117.456 85.5126 117.397C83.5898 115.526 82.0989 113.258 81.144 110.751C80.1891 108.244 79.7933 105.558 79.9843 102.882C80.6484 93.7584 74.0971 92.3165 74.48 88.4814C75.0783 82.4086 77.6988 84.5745 82.7365 76.8624C83.7416 75.3188 84.1246 73.0572 80.1878 69.8563C76.2509 66.6554 75.1561 58.5365 78.7159 55.7544C82.2758 52.9723 83.61 48.5269 81.5758 45.2483C80.8219 44.0517 76.0176 36.7763 86.3203 31.0386C88.1451 30.0275 92.0281 26.677 94.2837 23.5719C96.3598 20.706 106.441 18.0316 111.15 22.0163C115.858 26.001 131.157 31.3498 125.228 42.8371C121.835 49.4244 104.927 37.2909 100.518 43.914Z" fill="#2C2A46"/>
<path d="M123.553 25.5641C121.231 23.8948 121.195 19.5811 111.15 21.9743C105.269 23.4282 128.453 45.7088 128.321 53.6064C128.321 53.6064 135.674 47.6234 132.892 39.7677C131.217 35.0172 131.061 30.9667 123.553 25.5641Z" fill="#2C2A46"/>
<path d="M133.225 40.2099C133.269 39.1553 133.153 38.1001 132.882 37.0799C132.63 36.0817 132.249 35.1202 131.75 34.2194C130.711 32.4159 129.351 30.8174 127.737 29.5025C126.893 28.8369 126.076 28.1474 125.286 27.434C124.481 26.7084 123.754 25.9718 122.742 25.6988C121.718 25.4235 120.678 25.2082 119.629 25.0539L116.426 24.5004L119.625 24.8128C120.7 24.9086 121.767 25.0757 122.82 25.313C123.367 25.4419 123.882 25.6764 124.339 26.0035C124.795 26.3252 125.196 26.6792 125.609 27.0314C126.426 27.7189 127.256 28.3743 128.114 29.0077C129.984 30.1952 131.508 31.8543 132.533 33.8179C133.586 35.7776 133.834 38.0704 133.225 40.2099Z" fill="#2C2A46"/>
</g>
<path d="M214.08 106.792C214.315 106.867 214.523 106.989 214.704 107.16C214.885 107.341 215.072 107.587 215.264 107.896L216.336 109.624L215.232 110.2L213.904 108.04C213.531 107.432 212.933 107.128 212.112 107.128C211.067 107.128 210.155 106.893 209.376 106.424C208.608 105.955 208.016 105.288 207.6 104.424C207.184 103.56 206.976 102.541 206.976 101.368C206.976 100.184 207.179 99.16 207.584 98.296C208 97.4213 208.592 96.7547 209.36 96.296C210.139 95.8267 211.056 95.592 212.112 95.592C213.157 95.592 214.064 95.8267 214.832 96.296C215.611 96.7547 216.208 97.4213 216.624 98.296C217.04 99.16 217.248 100.179 217.248 101.352C217.248 102.717 216.971 103.875 216.416 104.824C215.872 105.763 215.093 106.419 214.08 106.792ZM208.32 101.352C208.32 102.835 208.651 103.981 209.312 104.792C209.984 105.603 210.917 106.008 212.112 106.008C213.307 106.008 214.235 105.608 214.896 104.808C215.568 103.997 215.904 102.845 215.904 101.352C215.904 99.8587 215.573 98.712 214.912 97.912C214.251 97.112 213.317 96.712 212.112 96.712C210.917 96.712 209.984 97.1173 209.312 97.928C208.651 98.728 208.32 99.8693 208.32 101.352ZM225.979 99.208V107H224.715V105.672C224.469 106.141 224.123 106.499 223.675 106.744C223.237 106.989 222.741 107.112 222.187 107.112C221.259 107.112 220.56 106.856 220.091 106.344C219.621 105.821 219.387 105.053 219.387 104.04V99.208H220.683V104.008C220.683 104.701 220.821 105.213 221.099 105.544C221.376 105.864 221.813 106.024 222.411 106.024C223.093 106.024 223.643 105.805 224.059 105.368C224.475 104.92 224.683 104.333 224.683 103.608V99.208H225.979ZM234.916 103.304H229.22C229.262 104.211 229.508 104.899 229.956 105.368C230.404 105.827 231.038 106.056 231.86 106.056C232.766 106.056 233.598 105.747 234.356 105.128L234.788 106.072C234.446 106.392 234.009 106.648 233.476 106.84C232.942 107.021 232.398 107.112 231.844 107.112C230.628 107.112 229.668 106.755 228.964 106.04C228.27 105.325 227.924 104.339 227.924 103.08C227.924 102.28 228.078 101.576 228.388 100.968C228.697 100.349 229.129 99.8693 229.684 99.528C230.249 99.1867 230.889 99.016 231.604 99.016C232.638 99.016 233.449 99.3573 234.036 100.04C234.622 100.712 234.916 101.64 234.916 102.824V103.304ZM231.62 100.024C230.937 100.024 230.388 100.237 229.972 100.664C229.566 101.091 229.326 101.693 229.252 102.472H233.78C233.758 101.683 233.561 101.08 233.188 100.664C232.814 100.237 232.292 100.024 231.62 100.024ZM241.241 100.136L240.393 100.216C239.593 100.291 239.012 100.541 238.649 100.968C238.297 101.395 238.121 101.923 238.121 102.552V107H236.825V99.208H238.089V100.568C238.526 99.6613 239.385 99.1547 240.665 99.048L241.129 99.016L241.241 100.136ZM253.151 99.208V107H251.887V105.672C251.641 106.141 251.295 106.499 250.847 106.744C250.409 106.989 249.913 107.112 249.359 107.112C248.431 107.112 247.732 106.856 247.263 106.344C246.793 105.821 246.559 105.053 246.559 104.04V99.208H247.855V104.008C247.855 104.701 247.993 105.213 248.271 105.544C248.548 105.864 248.985 106.024 249.583 106.024C250.265 106.024 250.815 105.805 251.231 105.368C251.647 104.92 251.855 104.333 251.855 103.608V99.208H253.151ZM258.983 106.072C259.218 106.072 259.453 106.056 259.687 106.024L259.623 107.048C259.378 107.091 259.111 107.112 258.823 107.112C257.885 107.112 257.175 106.867 256.695 106.376C256.226 105.885 255.991 105.203 255.991 104.328V100.232H254.471V99.208H255.991V96.84H257.287V99.208H259.495V100.232H257.287V104.232C257.287 105.459 257.853 106.072 258.983 106.072ZM260.997 107V99.208H262.293V107H260.997ZM260.869 95.832H262.437V97.288H260.869V95.832ZM264.716 107V95.72H266.012V107H264.716ZM268.434 107V99.208H269.73V107H268.434ZM268.306 95.832H269.874V97.288H268.306V95.832ZM273.321 105.976H278.329V107H271.721V106.104L276.585 100.232H271.881V99.208H278.153V100.152L273.321 105.976ZM283.29 99.016C284.282 99.016 285.018 99.272 285.498 99.784C285.989 100.285 286.234 101.053 286.234 102.088V107H284.97V105.672C284.767 106.131 284.458 106.488 284.042 106.744C283.626 106.989 283.146 107.112 282.602 107.112C282.101 107.112 281.637 107.011 281.21 106.808C280.794 106.605 280.463 106.323 280.218 105.96C279.973 105.597 279.85 105.197 279.85 104.76C279.85 104.173 279.999 103.72 280.298 103.4C280.597 103.069 281.087 102.835 281.77 102.696C282.453 102.547 283.402 102.472 284.618 102.472H284.97V101.944C284.97 101.293 284.837 100.824 284.57 100.536C284.303 100.237 283.871 100.088 283.274 100.088C282.378 100.088 281.487 100.365 280.602 100.92L280.17 99.976C280.575 99.688 281.061 99.4587 281.626 99.288C282.202 99.1067 282.757 99.016 283.29 99.016ZM282.778 106.088C283.418 106.088 283.941 105.875 284.346 105.448C284.762 105.011 284.97 104.451 284.97 103.768V103.304H284.682C283.743 103.304 283.029 103.347 282.538 103.432C282.047 103.507 281.695 103.64 281.482 103.832C281.279 104.013 281.178 104.285 281.178 104.648C281.178 105.064 281.327 105.411 281.626 105.688C281.935 105.955 282.319 106.088 282.778 106.088ZM293.022 100.136L292.174 100.216C291.374 100.291 290.793 100.541 290.43 100.968C290.078 101.395 289.902 101.923 289.902 102.552V107H288.606V99.208H289.87V100.568C290.308 99.6613 291.166 99.1547 292.446 99.048L292.91 99.016L293.022 100.136ZM304.9 103.304H299.204C299.247 104.211 299.492 104.899 299.94 105.368C300.388 105.827 301.023 106.056 301.844 106.056C302.751 106.056 303.583 105.747 304.34 105.128L304.772 106.072C304.431 106.392 303.993 106.648 303.46 106.84C302.927 107.021 302.383 107.112 301.828 107.112C300.612 107.112 299.652 106.755 298.948 106.04C298.255 105.325 297.908 104.339 297.908 103.08C297.908 102.28 298.063 101.576 298.372 100.968C298.681 100.349 299.113 99.8693 299.668 99.528C300.233 99.1867 300.873 99.016 301.588 99.016C302.623 99.016 303.433 99.3573 304.02 100.04C304.607 100.712 304.9 101.64 304.9 102.824V103.304ZM301.604 100.024C300.921 100.024 300.372 100.237 299.956 100.664C299.551 101.091 299.311 101.693 299.236 102.472H303.764C303.743 101.683 303.545 101.08 303.172 100.664C302.799 100.237 302.276 100.024 301.604 100.024ZM314.358 106.072C314.593 106.072 314.828 106.056 315.062 106.024L314.998 107.048C314.753 107.091 314.486 107.112 314.198 107.112C313.26 107.112 312.55 106.867 312.07 106.376C311.601 105.885 311.366 105.203 311.366 104.328V100.232H309.846V99.208H311.366V96.84H312.662V99.208H314.87V100.232H312.662V104.232C312.662 105.459 313.228 106.072 314.358 106.072ZM322.9 103.304H317.204C317.247 104.211 317.492 104.899 317.94 105.368C318.388 105.827 319.023 106.056 319.844 106.056C320.751 106.056 321.583 105.747 322.34 105.128L322.772 106.072C322.431 106.392 321.993 106.648 321.46 106.84C320.927 107.021 320.383 107.112 319.828 107.112C318.612 107.112 317.652 106.755 316.948 106.04C316.255 105.325 315.908 104.339 315.908 103.08C315.908 102.28 316.063 101.576 316.372 100.968C316.681 100.349 317.113 99.8693 317.668 99.528C318.233 99.1867 318.873 99.016 319.588 99.016C320.623 99.016 321.433 99.3573 322.02 100.04C322.607 100.712 322.9 101.64 322.9 102.824V103.304ZM319.604 100.024C318.921 100.024 318.372 100.237 317.956 100.664C317.551 101.091 317.311 101.693 317.236 102.472H321.764C321.743 101.683 321.545 101.08 321.172 100.664C320.799 100.237 320.276 100.024 319.604 100.024ZM327.449 107.112C326.137 107.112 325.097 106.776 324.329 106.104L324.761 105.144C325.177 105.475 325.599 105.715 326.025 105.864C326.463 106.003 326.953 106.072 327.497 106.072C328.073 106.072 328.511 105.976 328.809 105.784C329.119 105.581 329.273 105.293 329.273 104.92C329.273 104.611 329.172 104.365 328.969 104.184C328.767 104.003 328.431 103.859 327.961 103.752L326.649 103.448C325.988 103.299 325.481 103.043 325.129 102.68C324.777 102.317 324.601 101.869 324.601 101.336C324.601 100.643 324.873 100.083 325.417 99.656C325.961 99.2293 326.687 99.016 327.593 99.016C328.137 99.016 328.655 99.1067 329.145 99.288C329.636 99.4587 330.047 99.7093 330.377 100.04L329.945 100.984C329.231 100.376 328.447 100.072 327.593 100.072C327.049 100.072 326.623 100.179 326.313 100.392C326.015 100.595 325.865 100.883 325.865 101.256C325.865 101.565 325.956 101.816 326.137 102.008C326.329 102.189 326.633 102.328 327.049 102.424L328.377 102.744C329.103 102.915 329.641 103.176 329.993 103.528C330.345 103.869 330.521 104.317 330.521 104.872C330.521 105.555 330.244 106.099 329.689 106.504C329.145 106.909 328.399 107.112 327.449 107.112ZM335.843 106.072C336.077 106.072 336.312 106.056 336.547 106.024L336.483 107.048C336.237 107.091 335.971 107.112 335.683 107.112C334.744 107.112 334.035 106.867 333.555 106.376C333.085 105.885 332.851 105.203 332.851 104.328V100.232H331.331V99.208H332.851V96.84H334.147V99.208H336.355V100.232H334.147V104.232C334.147 105.459 334.712 106.072 335.843 106.072ZM341.024 99.016C342.016 99.016 342.752 99.272 343.232 99.784C343.723 100.285 343.968 101.053 343.968 102.088V107H342.704V105.672C342.502 106.131 342.192 106.488 341.776 106.744C341.36 106.989 340.88 107.112 340.336 107.112C339.835 107.112 339.371 107.011 338.944 106.808C338.528 106.605 338.198 106.323 337.952 105.96C337.707 105.597 337.584 105.197 337.584 104.76C337.584 104.173 337.734 103.72 338.032 103.4C338.331 103.069 338.822 102.835 339.504 102.696C340.187 102.547 341.136 102.472 342.352 102.472H342.704V101.944C342.704 101.293 342.571 100.824 342.304 100.536C342.038 100.237 341.606 100.088 341.008 100.088C340.112 100.088 339.222 100.365 338.336 100.92L337.904 99.976C338.31 99.688 338.795 99.4587 339.36 99.288C339.936 99.1067 340.491 99.016 341.024 99.016ZM340.512 106.088C341.152 106.088 341.675 105.875 342.08 105.448C342.496 105.011 342.704 104.451 342.704 103.768V103.304H342.416C341.478 103.304 340.763 103.347 340.272 103.432C339.782 103.507 339.43 103.64 339.216 103.832C339.014 104.013 338.912 104.285 338.912 104.648C338.912 105.064 339.062 105.411 339.36 105.688C339.67 105.955 340.054 106.088 340.512 106.088ZM350.757 100.136L349.909 100.216C349.109 100.291 348.527 100.541 348.165 100.968C347.813 101.395 347.637 101.923 347.637 102.552V107H346.341V99.208H347.605V100.568C348.042 99.6613 348.901 99.1547 350.181 99.048L350.645 99.016L350.757 100.136ZM359.274 99.016C360.266 99.016 361.002 99.272 361.482 99.784C361.973 100.285 362.218 101.053 362.218 102.088V107H360.954V105.672C360.752 106.131 360.442 106.488 360.026 106.744C359.61 106.989 359.13 107.112 358.586 107.112C358.085 107.112 357.621 107.011 357.194 106.808C356.778 106.605 356.448 106.323 356.202 105.96C355.957 105.597 355.834 105.197 355.834 104.76C355.834 104.173 355.984 103.72 356.282 103.4C356.581 103.069 357.072 102.835 357.754 102.696C358.437 102.547 359.386 102.472 360.602 102.472H360.954V101.944C360.954 101.293 360.821 100.824 360.554 100.536C360.288 100.237 359.856 100.088 359.258 100.088C358.362 100.088 357.472 100.365 356.586 100.92L356.154 99.976C356.56 99.688 357.045 99.4587 357.61 99.288C358.186 99.1067 358.741 99.016 359.274 99.016ZM358.762 106.088C359.402 106.088 359.925 105.875 360.33 105.448C360.746 105.011 360.954 104.451 360.954 103.768V103.304H360.666C359.728 103.304 359.013 103.347 358.522 103.432C358.032 103.507 357.68 103.64 357.466 103.832C357.264 104.013 357.162 104.285 357.162 104.648C357.162 105.064 357.312 105.411 357.61 105.688C357.92 105.955 358.304 106.088 358.762 106.088ZM367.231 107.112C365.919 107.112 364.879 106.776 364.111 106.104L364.543 105.144C364.959 105.475 365.38 105.715 365.807 105.864C366.244 106.003 366.735 106.072 367.279 106.072C367.855 106.072 368.292 105.976 368.591 105.784C368.9 105.581 369.055 105.293 369.055 104.92C369.055 104.611 368.953 104.365 368.751 104.184C368.548 104.003 368.212 103.859 367.743 103.752L366.431 103.448C365.769 103.299 365.263 103.043 364.911 102.68C364.559 102.317 364.383 101.869 364.383 101.336C364.383 100.643 364.655 100.083 365.199 99.656C365.743 99.2293 366.468 99.016 367.375 99.016C367.919 99.016 368.436 99.1067 368.927 99.288C369.417 99.4587 369.828 99.7093 370.159 100.04L369.727 100.984C369.012 100.376 368.228 100.072 367.375 100.072C366.831 100.072 366.404 100.179 366.095 100.392C365.796 100.595 365.647 100.883 365.647 101.256C365.647 101.565 365.737 101.816 365.919 102.008C366.111 102.189 366.415 102.328 366.831 102.424L368.159 102.744C368.884 102.915 369.423 103.176 369.775 103.528C370.127 103.869 370.303 104.317 370.303 104.872C370.303 105.555 370.025 106.099 369.471 106.504C368.927 106.909 368.18 107.112 367.231 107.112ZM378.131 99.208H380.339V100.232H378.131V107H376.835V100.232H375.315V99.208H376.835V98.952C376.835 97.9173 377.091 97.1333 377.603 96.6C378.126 96.0667 378.926 95.768 380.003 95.704L380.643 95.672L380.739 96.68L380.003 96.728C379.352 96.7707 378.878 96.9573 378.579 97.288C378.28 97.608 378.131 98.104 378.131 98.776V99.208ZM388.213 99.208V107H386.949V105.672C386.704 106.141 386.357 106.499 385.909 106.744C385.472 106.989 384.976 107.112 384.421 107.112C383.493 107.112 382.794 106.856 382.325 106.344C381.856 105.821 381.621 105.053 381.621 104.04V99.208H382.917V104.008C382.917 104.701 383.056 105.213 383.333 105.544C383.61 105.864 384.048 106.024 384.645 106.024C385.328 106.024 385.877 105.805 386.293 105.368C386.709 104.92 386.917 104.333 386.917 103.608V99.208H388.213ZM394.542 99.016C396.409 99.016 397.342 100.045 397.342 102.104V107H396.046V102.184C396.046 101.459 395.902 100.931 395.614 100.6C395.337 100.269 394.889 100.104 394.27 100.104C393.555 100.104 392.985 100.323 392.558 100.76C392.131 101.197 391.918 101.789 391.918 102.536V107H390.622V99.208H391.902V100.488C392.158 100.008 392.515 99.6453 392.974 99.4C393.433 99.144 393.955 99.016 394.542 99.016ZM403.012 107.112C402.244 107.112 401.577 106.947 401.012 106.616C400.446 106.285 400.009 105.821 399.7 105.224C399.401 104.616 399.252 103.907 399.252 103.096C399.252 102.285 399.406 101.576 399.716 100.968C400.036 100.349 400.478 99.8693 401.044 99.528C401.62 99.1867 402.292 99.016 403.06 99.016C403.582 99.016 404.094 99.112 404.596 99.304C405.097 99.4853 405.502 99.7307 405.812 100.04L405.38 101C404.644 100.403 403.897 100.104 403.14 100.104C402.34 100.104 401.716 100.365 401.268 100.888C400.82 101.411 400.596 102.147 400.596 103.096C400.596 104.035 400.82 104.76 401.268 105.272C401.716 105.784 402.34 106.04 403.14 106.04C403.897 106.04 404.644 105.741 405.38 105.144L405.812 106.104C405.481 106.413 405.065 106.659 404.564 106.84C404.062 107.021 403.545 107.112 403.012 107.112ZM407.372 107V99.208H408.668V107H407.372ZM407.244 95.832H408.812V97.288H407.244V95.832ZM414.323 107.112C413.587 107.112 412.936 106.947 412.371 106.616C411.816 106.285 411.384 105.816 411.075 105.208C410.776 104.589 410.627 103.875 410.627 103.064C410.627 102.253 410.776 101.544 411.075 100.936C411.384 100.317 411.816 99.8427 412.371 99.512C412.936 99.1813 413.587 99.016 414.323 99.016C415.059 99.016 415.709 99.1813 416.275 99.512C416.84 99.8427 417.272 100.317 417.571 100.936C417.88 101.544 418.035 102.253 418.035 103.064C418.035 103.875 417.88 104.589 417.571 105.208C417.272 105.816 416.84 106.285 416.275 106.616C415.709 106.947 415.059 107.112 414.323 107.112ZM414.323 106.04C415.091 106.04 415.677 105.789 416.083 105.288C416.499 104.776 416.707 104.035 416.707 103.064C416.707 102.115 416.499 101.384 416.083 100.872C415.667 100.349 415.08 100.088 414.323 100.088C413.565 100.088 412.979 100.349 412.563 100.872C412.147 101.384 411.939 102.115 411.939 103.064C411.939 104.024 412.141 104.76 412.547 105.272C412.963 105.784 413.555 106.04 414.323 106.04ZM423.886 99.016C425.752 99.016 426.686 100.045 426.686 102.104V107H425.39V102.184C425.39 101.459 425.246 100.931 424.958 100.6C424.68 100.269 424.232 100.104 423.614 100.104C422.899 100.104 422.328 100.323 421.902 100.76C421.475 101.197 421.262 101.789 421.262 102.536V107H419.966V99.208H421.246V100.488C421.502 100.008 421.859 99.6453 422.318 99.4C422.776 99.144 423.299 99.016 423.886 99.016ZM432.227 99.016C433.219 99.016 433.955 99.272 434.435 99.784C434.926 100.285 435.171 101.053 435.171 102.088V107H433.907V105.672C433.705 106.131 433.395 106.488 432.979 106.744C432.563 106.989 432.083 107.112 431.539 107.112C431.038 107.112 430.574 107.011 430.147 106.808C429.731 106.605 429.401 106.323 429.155 105.96C428.91 105.597 428.787 105.197 428.787 104.76C428.787 104.173 428.937 103.72 429.235 103.4C429.534 103.069 430.025 102.835 430.707 102.696C431.39 102.547 432.339 102.472 433.555 102.472H433.907V101.944C433.907 101.293 433.774 100.824 433.507 100.536C433.241 100.237 432.809 100.088 432.211 100.088C431.315 100.088 430.425 100.365 429.539 100.92L429.107 99.976C429.513 99.688 429.998 99.4587 430.563 99.288C431.139 99.1067 431.694 99.016 432.227 99.016ZM431.715 106.088C432.355 106.088 432.878 105.875 433.283 105.448C433.699 105.011 433.907 104.451 433.907 103.768V103.304H433.619C432.681 103.304 431.966 103.347 431.475 103.432C430.985 103.507 430.633 103.64 430.419 103.832C430.217 104.013 430.115 104.285 430.115 104.648C430.115 105.064 430.265 105.411 430.563 105.688C430.873 105.955 431.257 106.088 431.715 106.088ZM437.544 107V95.72H438.84V107H437.544ZM441.263 107V99.208H442.559V107H441.263ZM441.135 95.832H442.703V97.288H441.135V95.832ZM451.893 95.72V107H450.597V105.576C450.363 106.067 450.016 106.445 449.557 106.712C449.109 106.979 448.581 107.112 447.973 107.112C447.291 107.112 446.688 106.941 446.165 106.6C445.643 106.259 445.237 105.784 444.949 105.176C444.661 104.557 444.517 103.843 444.517 103.032C444.517 102.232 444.661 101.528 444.949 100.92C445.237 100.312 445.643 99.8427 446.165 99.512C446.688 99.1813 447.291 99.016 447.973 99.016C448.581 99.016 449.109 99.1493 449.557 99.416C450.016 99.6827 450.363 100.061 450.597 100.552V95.72H451.893ZM448.229 106.04C448.987 106.04 449.568 105.784 449.973 105.272C450.389 104.749 450.597 104.013 450.597 103.064C450.597 102.115 450.389 101.384 449.973 100.872C449.568 100.36 448.987 100.104 448.229 100.104C447.472 100.104 446.88 100.36 446.453 100.872C446.037 101.384 445.829 102.104 445.829 103.032C445.829 103.981 446.037 104.723 446.453 105.256C446.88 105.779 447.472 106.04 448.229 106.04ZM457.462 99.016C458.454 99.016 459.19 99.272 459.67 99.784C460.16 100.285 460.406 101.053 460.406 102.088V107H459.142V105.672C458.939 106.131 458.63 106.488 458.214 106.744C457.798 106.989 457.318 107.112 456.774 107.112C456.272 107.112 455.808 107.011 455.382 106.808C454.966 106.605 454.635 106.323 454.39 105.96C454.144 105.597 454.022 105.197 454.022 104.76C454.022 104.173 454.171 103.72 454.47 103.4C454.768 103.069 455.259 102.835 455.942 102.696C456.624 102.547 457.574 102.472 458.79 102.472H459.142V101.944C459.142 101.293 459.008 100.824 458.742 100.536C458.475 100.237 458.043 100.088 457.446 100.088C456.55 100.088 455.659 100.365 454.774 100.92L454.342 99.976C454.747 99.688 455.232 99.4587 455.798 99.288C456.374 99.1067 456.928 99.016 457.462 99.016ZM456.95 106.088C457.59 106.088 458.112 105.875 458.518 105.448C458.934 105.011 459.142 104.451 459.142 103.768V103.304H458.854C457.915 103.304 457.2 103.347 456.71 103.432C456.219 103.507 455.867 103.64 455.654 103.832C455.451 104.013 455.35 104.285 455.35 104.648C455.35 105.064 455.499 105.411 455.798 105.688C456.107 105.955 456.491 106.088 456.95 106.088ZM469.69 95.72V107H468.394V105.576C468.159 106.067 467.813 106.445 467.354 106.712C466.906 106.979 466.378 107.112 465.77 107.112C465.087 107.112 464.485 106.941 463.962 106.6C463.439 106.259 463.034 105.784 462.746 105.176C462.458 104.557 462.314 103.843 462.314 103.032C462.314 102.232 462.458 101.528 462.746 100.92C463.034 100.312 463.439 99.8427 463.962 99.512C464.485 99.1813 465.087 99.016 465.77 99.016C466.378 99.016 466.906 99.1493 467.354 99.416C467.813 99.6827 468.159 100.061 468.394 100.552V95.72H469.69ZM466.026 106.04C466.783 106.04 467.365 105.784 467.77 105.272C468.186 104.749 468.394 104.013 468.394 103.064C468.394 102.115 468.186 101.384 467.77 100.872C467.365 100.36 466.783 100.104 466.026 100.104C465.269 100.104 464.677 100.36 464.25 100.872C463.834 101.384 463.626 102.104 463.626 103.032C463.626 103.981 463.834 104.723 464.25 105.256C464.677 105.779 465.269 106.04 466.026 106.04ZM478.619 103.304H472.923C472.965 104.211 473.211 104.899 473.659 105.368C474.107 105.827 474.741 106.056 475.563 106.056C476.469 106.056 477.301 105.747 478.059 105.128L478.491 106.072C478.149 106.392 477.712 106.648 477.179 106.84C476.645 107.021 476.101 107.112 475.547 107.112C474.331 107.112 473.371 106.755 472.667 106.04C471.973 105.325 471.627 104.339 471.627 103.08C471.627 102.28 471.781 101.576 472.091 100.968C472.4 100.349 472.832 99.8693 473.387 99.528C473.952 99.1867 474.592 99.016 475.307 99.016C476.341 99.016 477.152 99.3573 477.739 100.04C478.325 100.712 478.619 101.64 478.619 102.824V103.304ZM475.323 100.024C474.64 100.024 474.091 100.237 473.675 100.664C473.269 101.091 473.029 101.693 472.955 102.472H477.483C477.461 101.683 477.264 101.08 476.891 100.664C476.517 100.237 475.995 100.024 475.323 100.024ZM483.168 107.112C481.856 107.112 480.816 106.776 480.048 106.104L480.48 105.144C480.896 105.475 481.317 105.715 481.744 105.864C482.181 106.003 482.672 106.072 483.216 106.072C483.792 106.072 484.229 105.976 484.528 105.784C484.837 105.581 484.992 105.293 484.992 104.92C484.992 104.611 484.891 104.365 484.688 104.184C484.485 104.003 484.149 103.859 483.68 103.752L482.368 103.448C481.707 103.299 481.2 103.043 480.848 102.68C480.496 102.317 480.32 101.869 480.32 101.336C480.32 100.643 480.592 100.083 481.136 99.656C481.68 99.2293 482.405 99.016 483.312 99.016C483.856 99.016 484.373 99.1067 484.864 99.288C485.355 99.4587 485.765 99.7093 486.096 100.04L485.664 100.984C484.949 100.376 484.165 100.072 483.312 100.072C482.768 100.072 482.341 100.179 482.032 100.392C481.733 100.595 481.584 100.883 481.584 101.256C481.584 101.565 481.675 101.816 481.856 102.008C482.048 102.189 482.352 102.328 482.768 102.424L484.096 102.744C484.821 102.915 485.36 103.176 485.712 103.528C486.064 103.869 486.24 104.317 486.24 104.872C486.24 105.555 485.963 106.099 485.408 106.504C484.864 106.909 484.117 107.112 483.168 107.112ZM495.509 99.016C496.501 99.016 497.237 99.272 497.717 99.784C498.207 100.285 498.453 101.053 498.453 102.088V107H497.189V105.672C496.986 106.131 496.677 106.488 496.261 106.744C495.845 106.989 495.365 107.112 494.821 107.112C494.319 107.112 493.855 107.011 493.429 106.808C493.013 106.605 492.682 106.323 492.437 105.96C492.191 105.597 492.069 105.197 492.069 104.76C492.069 104.173 492.218 103.72 492.517 103.4C492.815 103.069 493.306 102.835 493.989 102.696C494.671 102.547 495.621 102.472 496.837 102.472H497.189V101.944C497.189 101.293 497.055 100.824 496.789 100.536C496.522 100.237 496.09 100.088 495.493 100.088C494.597 100.088 493.706 100.365 492.821 100.92L492.389 99.976C492.794 99.688 493.279 99.4587 493.845 99.288C494.421 99.1067 494.975 99.016 495.509 99.016ZM494.997 106.088C495.637 106.088 496.159 105.875 496.565 105.448C496.981 105.011 497.189 104.451 497.189 103.768V103.304H496.901C495.962 103.304 495.247 103.347 494.757 103.432C494.266 103.507 493.914 103.64 493.701 103.832C493.498 104.013 493.397 104.285 493.397 104.648C493.397 105.064 493.546 105.411 493.845 105.688C494.154 105.955 494.538 106.088 494.997 106.088ZM500.825 107V99.208H502.121V107H500.825ZM500.697 95.832H502.265V97.288H500.697V95.832ZM508.464 99.016C510.33 99.016 511.264 100.045 511.264 102.104V107H509.968V102.184C509.968 101.459 509.824 100.931 509.536 100.6C509.258 100.269 508.81 100.104 508.192 100.104C507.477 100.104 506.906 100.323 506.48 100.76C506.053 101.197 505.84 101.789 505.84 102.536V107H504.544V99.208H505.824V100.488C506.08 100.008 506.437 99.6453 506.896 99.4C507.354 99.144 507.877 99.016 508.464 99.016ZM520.55 95.72V107H519.254V105.576C519.019 106.067 518.672 106.445 518.214 106.712C517.766 106.979 517.238 107.112 516.63 107.112C515.947 107.112 515.344 106.941 514.822 106.6C514.299 106.259 513.894 105.784 513.606 105.176C513.318 104.557 513.174 103.843 513.174 103.032C513.174 102.232 513.318 101.528 513.606 100.92C513.894 100.312 514.299 99.8427 514.822 99.512C515.344 99.1813 515.947 99.016 516.63 99.016C517.238 99.016 517.766 99.1493 518.214 99.416C518.672 99.6827 519.019 100.061 519.254 100.552V95.72H520.55ZM516.886 106.04C517.643 106.04 518.224 105.784 518.63 105.272C519.046 104.749 519.254 104.013 519.254 103.064C519.254 102.115 519.046 101.384 518.63 100.872C518.224 100.36 517.643 100.104 516.886 100.104C516.128 100.104 515.536 100.36 515.11 100.872C514.694 101.384 514.486 102.104 514.486 103.032C514.486 103.981 514.694 104.723 515.11 105.256C515.536 105.779 516.128 106.04 516.886 106.04ZM526.118 99.016C527.11 99.016 527.846 99.272 528.326 99.784C528.817 100.285 529.062 101.053 529.062 102.088V107H527.798V105.672C527.595 106.131 527.286 106.488 526.87 106.744C526.454 106.989 525.974 107.112 525.43 107.112C524.929 107.112 524.465 107.011 524.038 106.808C523.622 106.605 523.291 106.323 523.046 105.96C522.801 105.597 522.678 105.197 522.678 104.76C522.678 104.173 522.827 103.72 523.126 103.4C523.425 103.069 523.915 102.835 524.598 102.696C525.281 102.547 526.23 102.472 527.446 102.472H527.798V101.944C527.798 101.293 527.665 100.824 527.398 100.536C527.131 100.237 526.699 100.088 526.102 100.088C525.206 100.088 524.315 100.365 523.43 100.92L522.998 99.976C523.403 99.688 523.889 99.4587 524.454 99.288C525.03 99.1067 525.585 99.016 526.118 99.016ZM525.606 106.088C526.246 106.088 526.769 105.875 527.174 105.448C527.59 105.011 527.798 104.451 527.798 103.768V103.304H527.51C526.571 103.304 525.857 103.347 525.366 103.432C524.875 103.507 524.523 103.64 524.31 103.832C524.107 104.013 524.006 104.285 524.006 104.648C524.006 105.064 524.155 105.411 524.454 105.688C524.763 105.955 525.147 106.088 525.606 106.088ZM538.199 107.112C536.887 107.112 535.847 106.776 535.079 106.104L535.511 105.144C535.927 105.475 536.349 105.715 536.775 105.864C537.213 106.003 537.703 106.072 538.247 106.072C538.823 106.072 539.261 105.976 539.559 105.784C539.869 105.581 540.023 105.293 540.023 104.92C540.023 104.611 539.922 104.365 539.719 104.184C539.517 104.003 539.181 103.859 538.711 103.752L537.399 103.448C536.738 103.299 536.231 103.043 535.879 102.68C535.527 102.317 535.351 101.869 535.351 101.336C535.351 100.643 535.623 100.083 536.167 99.656C536.711 99.2293 537.437 99.016 538.343 99.016C538.887 99.016 539.405 99.1067 539.895 99.288C540.386 99.4587 540.797 99.7093 541.127 100.04L540.695 100.984C539.981 100.376 539.197 100.072 538.343 100.072C537.799 100.072 537.373 100.179 537.063 100.392C536.765 100.595 536.615 100.883 536.615 101.256C536.615 101.565 536.706 101.816 536.887 102.008C537.079 102.189 537.383 102.328 537.799 102.424L539.127 102.744C539.853 102.915 540.391 103.176 540.743 103.528C541.095 103.869 541.271 104.317 541.271 104.872C541.271 105.555 540.994 106.099 540.439 106.504C539.895 106.909 539.149 107.112 538.199 107.112ZM549.775 103.304H544.079C544.122 104.211 544.367 104.899 544.815 105.368C545.263 105.827 545.898 106.056 546.719 106.056C547.626 106.056 548.458 105.747 549.215 105.128L549.647 106.072C549.306 106.392 548.868 106.648 548.335 106.84C547.802 107.021 547.258 107.112 546.703 107.112C545.487 107.112 544.527 106.755 543.823 106.04C543.13 105.325 542.783 104.339 542.783 103.08C542.783 102.28 542.938 101.576 543.247 100.968C543.556 100.349 543.988 99.8693 544.543 99.528C545.108 99.1867 545.748 99.016 546.463 99.016C547.498 99.016 548.308 99.3573 548.895 100.04C549.482 100.712 549.775 101.64 549.775 102.824V103.304ZM546.479 100.024C545.796 100.024 545.247 100.237 544.831 100.664C544.426 101.091 544.186 101.693 544.111 102.472H548.639C548.618 101.683 548.42 101.08 548.047 100.664C547.674 100.237 547.151 100.024 546.479 100.024ZM556.1 100.136L555.252 100.216C554.452 100.291 553.871 100.541 553.508 100.968C553.156 101.395 552.98 101.923 552.98 102.552V107H551.684V99.208H552.948V100.568C553.386 99.6613 554.244 99.1547 555.524 99.048L555.988 99.016L556.1 100.136ZM560.431 99.016C561.423 99.016 562.159 99.272 562.639 99.784C563.129 100.285 563.375 101.053 563.375 102.088V107H562.111V105.672C561.908 106.131 561.599 106.488 561.183 106.744C560.767 106.989 560.287 107.112 559.743 107.112C559.241 107.112 558.777 107.011 558.351 106.808C557.935 106.605 557.604 106.323 557.359 105.96C557.113 105.597 556.991 105.197 556.991 104.76C556.991 104.173 557.14 103.72 557.439 103.4C557.737 103.069 558.228 102.835 558.911 102.696C559.593 102.547 560.543 102.472 561.759 102.472H562.111V101.944C562.111 101.293 561.977 100.824 561.711 100.536C561.444 100.237 561.012 100.088 560.415 100.088C559.519 100.088 558.628 100.365 557.743 100.92L557.311 99.976C557.716 99.688 558.201 99.4587 558.767 99.288C559.343 99.1067 559.897 99.016 560.431 99.016ZM559.919 106.088C560.559 106.088 561.081 105.875 561.487 105.448C561.903 105.011 562.111 104.451 562.111 103.768V103.304H561.823C560.884 103.304 560.169 103.347 559.679 103.432C559.188 103.507 558.836 103.64 558.623 103.832C558.42 104.013 558.319 104.285 558.319 104.648C558.319 105.064 558.468 105.411 558.767 105.688C559.076 105.955 559.46 106.088 559.919 106.088ZM557.871 97.432C557.871 96.856 557.999 96.408 558.255 96.088C558.521 95.768 558.868 95.608 559.295 95.608C559.519 95.608 559.732 95.656 559.935 95.752C560.137 95.8373 560.372 95.9653 560.639 96.136C560.884 96.2747 561.065 96.376 561.183 96.44C561.311 96.4933 561.439 96.52 561.567 96.52C561.801 96.52 561.983 96.44 562.111 96.28C562.239 96.1093 562.303 95.9013 562.303 95.656H563.023C563.023 96.232 562.889 96.68 562.623 97C562.367 97.32 562.025 97.48 561.599 97.48C561.375 97.48 561.161 97.4373 560.959 97.352C560.756 97.256 560.521 97.1227 560.255 96.952C560.009 96.8133 559.823 96.7173 559.695 96.664C559.577 96.6 559.455 96.568 559.327 96.568C559.092 96.568 558.911 96.6533 558.783 96.824C558.655 96.984 558.591 97.1867 558.591 97.432H557.871ZM568.979 107.112C568.243 107.112 567.592 106.947 567.027 106.616C566.472 106.285 566.04 105.816 565.731 105.208C565.432 104.589 565.283 103.875 565.283 103.064C565.283 102.253 565.432 101.544 565.731 100.936C566.04 100.317 566.472 99.8427 567.027 99.512C567.592 99.1813 568.243 99.016 568.979 99.016C569.715 99.016 570.366 99.1813 570.931 99.512C571.496 99.8427 571.928 100.317 572.227 100.936C572.536 101.544 572.691 102.253 572.691 103.064C572.691 103.875 572.536 104.589 572.227 105.208C571.928 105.816 571.496 106.285 570.931 106.616C570.366 106.947 569.715 107.112 568.979 107.112ZM568.979 106.04C569.747 106.04 570.334 105.789 570.739 105.288C571.155 104.776 571.363 104.035 571.363 103.064C571.363 102.115 571.155 101.384 570.739 100.872C570.323 100.349 569.736 100.088 568.979 100.088C568.222 100.088 567.635 100.349 567.219 100.872C566.803 101.384 566.595 102.115 566.595 103.064C566.595 104.024 566.798 104.76 567.203 105.272C567.619 105.784 568.211 106.04 568.979 106.04ZM578.747 107V99.208H580.043V107H578.747ZM578.619 95.832H580.187V97.288H578.619V95.832ZM591.138 99.016C592.866 99.016 593.73 100.045 593.73 102.104V107H592.434V102.168C592.434 101.453 592.306 100.931 592.05 100.6C591.804 100.269 591.404 100.104 590.85 100.104C590.199 100.104 589.687 100.323 589.314 100.76C588.94 101.197 588.754 101.795 588.754 102.552V107H587.458V102.168C587.458 101.443 587.33 100.92 587.074 100.6C586.818 100.269 586.412 100.104 585.858 100.104C585.207 100.104 584.695 100.323 584.322 100.76C583.948 101.197 583.762 101.795 583.762 102.552V107H582.466V99.208H583.746V100.44C583.98 99.9813 584.306 99.6293 584.722 99.384C585.138 99.1387 585.618 99.016 586.162 99.016C587.367 99.016 588.162 99.528 588.546 100.552C588.77 100.072 589.111 99.6987 589.57 99.432C590.028 99.1547 590.551 99.016 591.138 99.016ZM600.011 99.016C600.693 99.016 601.296 99.1867 601.819 99.528C602.341 99.8693 602.747 100.349 603.035 100.968C603.323 101.576 603.467 102.285 603.467 103.096C603.467 103.907 603.323 104.616 603.035 105.224C602.747 105.821 602.341 106.285 601.819 106.616C601.307 106.947 600.704 107.112 600.011 107.112C599.403 107.112 598.869 106.979 598.411 106.712C597.963 106.445 597.621 106.067 597.387 105.576V109.88H596.091V99.208H597.387V100.552C597.621 100.061 597.963 99.6827 598.411 99.416C598.869 99.1493 599.403 99.016 600.011 99.016ZM599.755 106.04C600.512 106.04 601.099 105.784 601.515 105.272C601.931 104.76 602.139 104.035 602.139 103.096C602.139 102.157 601.931 101.427 601.515 100.904C601.099 100.371 600.512 100.104 599.755 100.104C598.997 100.104 598.411 100.36 597.995 100.872C597.589 101.384 597.387 102.115 597.387 103.064C597.387 104.013 597.589 104.749 597.995 105.272C598.411 105.784 598.997 106.04 599.755 106.04ZM605.403 107V95.72H606.699V107H605.403ZM615.65 103.304H609.954C609.997 104.211 610.242 104.899 610.69 105.368C611.138 105.827 611.773 106.056 612.594 106.056C613.501 106.056 614.333 105.747 615.09 105.128L615.522 106.072C615.181 106.392 614.743 106.648 614.21 106.84C613.677 107.021 613.133 107.112 612.578 107.112C611.362 107.112 610.402 106.755 609.698 106.04C609.005 105.325 608.658 104.339 608.658 103.08C608.658 102.28 608.813 101.576 609.122 100.968C609.431 100.349 609.863 99.8693 610.418 99.528C610.983 99.1867 611.623 99.016 612.338 99.016C613.373 99.016 614.183 99.3573 614.77 100.04C615.357 100.712 615.65 101.64 615.65 102.824V103.304ZM612.354 100.024C611.671 100.024 611.122 100.237 610.706 100.664C610.301 101.091 610.061 101.693 609.986 102.472H614.514C614.493 101.683 614.295 101.08 613.922 100.664C613.549 100.237 613.026 100.024 612.354 100.024ZM626.231 99.016C627.959 99.016 628.823 100.045 628.823 102.104V107H627.527V102.168C627.527 101.453 627.399 100.931 627.143 100.6C626.898 100.269 626.498 100.104 625.943 100.104C625.293 100.104 624.781 100.323 624.407 100.76C624.034 101.197 623.847 101.795 623.847 102.552V107H622.551V102.168C622.551 101.443 622.423 100.92 622.167 100.6C621.911 100.269 621.506 100.104 620.951 100.104C620.301 100.104 619.789 100.323 619.415 100.76C619.042 101.197 618.855 101.795 618.855 102.552V107H617.559V99.208H618.839V100.44C619.074 99.9813 619.399 99.6293 619.815 99.384C620.231 99.1387 620.711 99.016 621.255 99.016C622.461 99.016 623.255 99.528 623.639 100.552C623.863 100.072 624.205 99.6987 624.663 99.432C625.122 99.1547 625.645 99.016 626.231 99.016ZM637.712 103.304H632.016C632.059 104.211 632.304 104.899 632.752 105.368C633.2 105.827 633.835 106.056 634.656 106.056C635.563 106.056 636.395 105.747 637.152 105.128L637.584 106.072C637.243 106.392 636.806 106.648 636.272 106.84C635.739 107.021 635.195 107.112 634.64 107.112C633.424 107.112 632.464 106.755 631.76 106.04C631.067 105.325 630.72 104.339 630.72 103.08C630.72 102.28 630.875 101.576 631.184 100.968C631.494 100.349 631.926 99.8693 632.48 99.528C633.046 99.1867 633.686 99.016 634.4 99.016C635.435 99.016 636.246 99.3573 636.832 100.04C637.419 100.712 637.712 101.64 637.712 102.824V103.304ZM634.416 100.024C633.734 100.024 633.184 100.237 632.768 100.664C632.363 101.091 632.123 101.693 632.048 102.472H636.576C636.555 101.683 636.358 101.08 635.984 100.664C635.611 100.237 635.088 100.024 634.416 100.024ZM643.542 99.016C645.409 99.016 646.342 100.045 646.342 102.104V107H645.046V102.184C645.046 101.459 644.902 100.931 644.614 100.6C644.337 100.269 643.889 100.104 643.27 100.104C642.555 100.104 641.985 100.323 641.558 100.76C641.131 101.197 640.918 101.789 640.918 102.536V107H639.622V99.208H640.902V100.488C641.158 100.008 641.515 99.6453 641.974 99.4C642.433 99.144 642.955 99.016 643.542 99.016ZM652.14 106.072C652.374 106.072 652.609 106.056 652.844 106.024L652.78 107.048C652.534 107.091 652.268 107.112 651.98 107.112C651.041 107.112 650.332 106.867 649.852 106.376C649.382 105.885 649.148 105.203 649.148 104.328V100.232H647.628V99.208H649.148V96.84H650.444V99.208H652.652V100.232H650.444V104.232C650.444 105.459 651.009 106.072 652.14 106.072ZM657.321 99.016C658.313 99.016 659.049 99.272 659.529 99.784C660.02 100.285 660.265 101.053 660.265 102.088V107H659.001V105.672C658.798 106.131 658.489 106.488 658.073 106.744C657.657 106.989 657.177 107.112 656.633 107.112C656.132 107.112 655.668 107.011 655.241 106.808C654.825 106.605 654.494 106.323 654.249 105.96C654.004 105.597 653.881 105.197 653.881 104.76C653.881 104.173 654.03 103.72 654.329 103.4C654.628 103.069 655.118 102.835 655.801 102.696C656.484 102.547 657.433 102.472 658.649 102.472H659.001V101.944C659.001 101.293 658.868 100.824 658.601 100.536C658.334 100.237 657.902 100.088 657.305 100.088C656.409 100.088 655.518 100.365 654.633 100.92L654.201 99.976C654.606 99.688 655.092 99.4587 655.657 99.288C656.233 99.1067 656.788 99.016 657.321 99.016ZM656.809 106.088C657.449 106.088 657.972 105.875 658.377 105.448C658.793 105.011 659.001 104.451 659.001 103.768V103.304H658.713C657.774 103.304 657.06 103.347 656.569 103.432C656.078 103.507 655.726 103.64 655.513 103.832C655.31 104.013 655.209 104.285 655.209 104.648C655.209 105.064 655.358 105.411 655.657 105.688C655.966 105.955 656.35 106.088 656.809 106.088ZM669.55 95.72V107H668.254V105.576C668.019 106.067 667.672 106.445 667.214 106.712C666.766 106.979 666.238 107.112 665.63 107.112C664.947 107.112 664.344 106.941 663.822 106.6C663.299 106.259 662.894 105.784 662.606 105.176C662.318 104.557 662.174 103.843 662.174 103.032C662.174 102.232 662.318 101.528 662.606 100.92C662.894 100.312 663.299 99.8427 663.822 99.512C664.344 99.1813 664.947 99.016 665.63 99.016C666.238 99.016 666.766 99.1493 667.214 99.416C667.672 99.6827 668.019 100.061 668.254 100.552V95.72H669.55ZM665.886 106.04C666.643 106.04 667.224 105.784 667.63 105.272C668.046 104.749 668.254 104.013 668.254 103.064C668.254 102.115 668.046 101.384 667.63 100.872C667.224 100.36 666.643 100.104 665.886 100.104C665.128 100.104 664.536 100.36 664.11 100.872C663.694 101.384 663.486 102.104 663.486 103.032C663.486 103.981 663.694 104.723 664.11 105.256C664.536 105.779 665.128 106.04 665.886 106.04ZM675.118 99.016C676.11 99.016 676.846 99.272 677.326 99.784C677.817 100.285 678.062 101.053 678.062 102.088V107H676.798V105.672C676.595 106.131 676.286 106.488 675.87 106.744C675.454 106.989 674.974 107.112 674.43 107.112C673.929 107.112 673.465 107.011 673.038 106.808C672.622 106.605 672.291 106.323 672.046 105.96C671.801 105.597 671.678 105.197 671.678 104.76C671.678 104.173 671.827 103.72 672.126 103.4C672.425 103.069 672.915 102.835 673.598 102.696C674.281 102.547 675.23 102.472 676.446 102.472H676.798V101.944C676.798 101.293 676.665 100.824 676.398 100.536C676.131 100.237 675.699 100.088 675.102 100.088C674.206 100.088 673.315 100.365 672.43 100.92L671.998 99.976C672.403 99.688 672.889 99.4587 673.454 99.288C674.03 99.1067 674.585 99.016 675.118 99.016ZM674.606 106.088C675.246 106.088 675.769 105.875 676.174 105.448C676.59 105.011 676.798 104.451 676.798 103.768V103.304H676.51C675.571 103.304 674.857 103.347 674.366 103.432C673.875 103.507 673.523 103.64 673.31 103.832C673.107 104.013 673.006 104.285 673.006 104.648C673.006 105.064 673.155 105.411 673.454 105.688C673.763 105.955 674.147 106.088 674.606 106.088ZM683.074 107.112C681.762 107.112 680.722 106.776 679.954 106.104L680.386 105.144C680.802 105.475 681.224 105.715 681.65 105.864C682.088 106.003 682.578 106.072 683.122 106.072C683.698 106.072 684.136 105.976 684.434 105.784C684.744 105.581 684.898 105.293 684.898 104.92C684.898 104.611 684.797 104.365 684.594 104.184C684.392 104.003 684.056 103.859 683.586 103.752L682.274 103.448C681.613 103.299 681.106 103.043 680.754 102.68C680.402 102.317 680.226 101.869 680.226 101.336C680.226 100.643 680.498 100.083 681.042 99.656C681.586 99.2293 682.312 99.016 683.218 99.016C683.762 99.016 684.28 99.1067 684.77 99.288C685.261 99.4587 685.672 99.7093 686.002 100.04L685.57 100.984C684.856 100.376 684.072 100.072 683.218 100.072C682.674 100.072 682.248 100.179 681.938 100.392C681.64 100.595 681.49 100.883 681.49 101.256C681.49 101.565 681.581 101.816 681.762 102.008C681.954 102.189 682.258 102.328 682.674 102.424L684.002 102.744C684.728 102.915 685.266 103.176 685.618 103.528C685.97 103.869 686.146 104.317 686.146 104.872C686.146 105.555 685.869 106.099 685.314 106.504C684.77 106.909 684.024 107.112 683.074 107.112ZM696.167 99.016C698.034 99.016 698.967 100.045 698.967 102.104V107H697.671V102.184C697.671 101.459 697.527 100.931 697.239 100.6C696.962 100.269 696.514 100.104 695.895 100.104C695.18 100.104 694.61 100.323 694.183 100.76C693.756 101.197 693.543 101.789 693.543 102.536V107H692.247V99.208H693.527V100.488C693.783 100.008 694.14 99.6453 694.599 99.4C695.058 99.144 695.58 99.016 696.167 99.016ZM704.573 107.112C703.837 107.112 703.186 106.947 702.621 106.616C702.066 106.285 701.634 105.816 701.325 105.208C701.026 104.589 700.877 103.875 700.877 103.064C700.877 102.253 701.026 101.544 701.325 100.936C701.634 100.317 702.066 99.8427 702.621 99.512C703.186 99.1813 703.837 99.016 704.573 99.016C705.309 99.016 705.959 99.1813 706.525 99.512C707.09 99.8427 707.522 100.317 707.821 100.936C708.13 101.544 708.285 102.253 708.285 103.064C708.285 103.875 708.13 104.589 707.821 105.208C707.522 105.816 707.09 106.285 706.525 106.616C705.959 106.947 705.309 107.112 704.573 107.112ZM704.573 106.04C705.341 106.04 705.927 105.789 706.333 105.288C706.749 104.776 706.957 104.035 706.957 103.064C706.957 102.115 706.749 101.384 706.333 100.872C705.917 100.349 705.33 100.088 704.573 100.088C703.815 100.088 703.229 100.349 702.813 100.872C702.397 101.384 702.189 102.115 702.189 103.064C702.189 104.024 702.391 104.76 702.797 105.272C703.213 105.784 703.805 106.04 704.573 106.04ZM720.933 101.208C721.583 101.379 722.085 101.699 722.437 102.168C722.799 102.637 722.981 103.224 722.981 103.928C722.981 104.92 722.655 105.683 722.005 106.216C721.354 106.739 720.431 107 719.237 107H714.533V95.72H719.061C720.223 95.72 721.125 95.976 721.765 96.488C722.405 97 722.725 97.7253 722.725 98.664C722.725 99.272 722.565 99.7947 722.245 100.232C721.935 100.669 721.498 100.995 720.933 101.208ZM715.829 100.728H718.869C719.711 100.728 720.346 100.557 720.773 100.216C721.21 99.8747 721.429 99.3787 721.429 98.728C721.429 97.448 720.575 96.808 718.869 96.808H715.829V100.728ZM719.109 105.912C719.994 105.912 720.645 105.752 721.061 105.432C721.487 105.101 721.701 104.589 721.701 103.896C721.701 102.509 720.837 101.816 719.109 101.816H715.829V105.912H719.109ZM725.314 107V95.72H726.626V105.88H732.274V107H725.314ZM733.763 107V99.208H735.059V107H733.763ZM733.635 95.832H735.203V97.288H733.635V95.832ZM737.673 95.72H742.137C743.321 95.72 744.239 96.008 744.889 96.584C745.551 97.16 745.881 97.976 745.881 99.032C745.881 100.088 745.551 100.909 744.889 101.496C744.228 102.083 743.311 102.376 742.137 102.376H738.985V107H737.673V95.72ZM742.009 101.288C743.727 101.288 744.585 100.536 744.585 99.032C744.585 97.5493 743.727 96.808 742.009 96.808H738.985V101.288H742.009ZM749.569 103.656C749.569 102.995 749.686 102.435 749.921 101.976C750.155 101.507 750.497 100.989 750.945 100.424C751.307 99.9653 751.574 99.576 751.745 99.256C751.926 98.936 752.017 98.5787 752.017 98.184C752.017 97.7253 751.857 97.368 751.537 97.112C751.217 96.8453 750.779 96.712 750.225 96.712C749.723 96.712 749.211 96.824 748.689 97.048C748.166 97.2613 747.654 97.576 747.153 97.992L746.641 96.984C747.099 96.5573 747.659 96.2213 748.321 95.976C748.982 95.72 749.638 95.592 750.289 95.592C751.195 95.592 751.931 95.8213 752.497 96.28C753.062 96.7387 753.345 97.3413 753.345 98.088C753.345 98.6533 753.222 99.144 752.977 99.56C752.731 99.976 752.363 100.461 751.873 101.016C751.414 101.539 751.062 101.997 750.817 102.392C750.571 102.787 750.422 103.245 750.369 103.768L750.337 104.056H749.569V103.656ZM749.153 107V105.368H750.785V107H749.153ZM207.216 131V119.72H209.28V131H207.216ZM216.084 122.984C217.023 122.984 217.721 123.251 218.18 123.784C218.639 124.317 218.868 125.123 218.868 126.2V131H216.868V126.312C216.868 125.704 216.751 125.261 216.516 124.984C216.292 124.707 215.935 124.568 215.444 124.568C214.868 124.568 214.404 124.749 214.052 125.112C213.711 125.475 213.54 125.96 213.54 126.568V131H211.54V123.176H213.492V124.344C213.759 123.907 214.116 123.571 214.564 123.336C215.012 123.101 215.519 122.984 216.084 122.984ZM223.779 131.128C223.086 131.128 222.446 131.043 221.859 130.872C221.283 130.701 220.793 130.456 220.387 130.136L220.947 128.744C221.779 129.352 222.734 129.656 223.811 129.656C224.27 129.656 224.617 129.581 224.851 129.432C225.097 129.283 225.219 129.069 225.219 128.792C225.219 128.557 225.134 128.376 224.963 128.248C224.803 128.12 224.51 128.003 224.083 127.896L222.803 127.608C222.078 127.448 221.539 127.187 221.187 126.824C220.835 126.461 220.659 125.992 220.659 125.416C220.659 124.936 220.793 124.515 221.059 124.152C221.337 123.779 221.715 123.491 222.195 123.288C222.686 123.085 223.251 122.984 223.891 122.984C224.446 122.984 224.979 123.069 225.491 123.24C226.014 123.411 226.473 123.651 226.867 123.96L226.307 125.32C225.497 124.733 224.686 124.44 223.875 124.44C223.438 124.44 223.097 124.52 222.851 124.68C222.606 124.84 222.483 125.064 222.483 125.352C222.483 125.565 222.558 125.741 222.707 125.88C222.867 126.019 223.118 126.125 223.459 126.2L224.787 126.504C225.566 126.675 226.137 126.947 226.499 127.32C226.862 127.683 227.043 128.163 227.043 128.76C227.043 129.485 226.75 130.061 226.163 130.488C225.577 130.915 224.782 131.128 223.779 131.128ZM232.233 131.128C231.412 131.128 230.697 130.963 230.089 130.632C229.492 130.301 229.033 129.832 228.713 129.224C228.393 128.616 228.233 127.907 228.233 127.096C228.233 126.285 228.398 125.571 228.729 124.952C229.07 124.323 229.55 123.837 230.169 123.496C230.788 123.155 231.502 122.984 232.313 122.984C232.868 122.984 233.406 123.075 233.929 123.256C234.462 123.427 234.889 123.661 235.209 123.96L234.633 125.368C234.302 125.101 233.95 124.899 233.577 124.76C233.214 124.621 232.852 124.552 232.489 124.552C231.796 124.552 231.257 124.771 230.873 125.208C230.489 125.635 230.297 126.253 230.297 127.064C230.297 127.864 230.489 128.483 230.873 128.92C231.257 129.347 231.796 129.56 232.489 129.56C232.852 129.56 233.214 129.491 233.577 129.352C233.95 129.213 234.302 129.011 234.633 128.744L235.209 130.136C234.868 130.445 234.43 130.691 233.897 130.872C233.364 131.043 232.809 131.128 232.233 131.128ZM241.63 124.648L240.462 124.76C239.139 124.899 238.478 125.571 238.478 126.776V131H236.478V123.176H238.382V124.552C238.787 123.613 239.624 123.101 240.894 123.016L241.502 122.968L241.63 124.648ZM249.31 127.448H243.982C244.046 128.173 244.265 128.712 244.638 129.064C245.012 129.416 245.545 129.592 246.238 129.592C247.102 129.592 247.892 129.315 248.606 128.76L249.182 130.136C248.82 130.435 248.361 130.675 247.806 130.856C247.262 131.037 246.713 131.128 246.158 131.128C244.878 131.128 243.865 130.765 243.118 130.04C242.382 129.315 242.014 128.323 242.014 127.064C242.014 126.264 242.174 125.555 242.494 124.936C242.814 124.317 243.262 123.837 243.838 123.496C244.425 123.155 245.086 122.984 245.822 122.984C246.9 122.984 247.748 123.331 248.366 124.024C248.996 124.717 249.31 125.672 249.31 126.888V127.448ZM245.87 124.392C245.337 124.392 244.905 124.563 244.574 124.904C244.254 125.245 244.057 125.736 243.982 126.376H247.598C247.577 125.725 247.417 125.235 247.118 124.904C246.82 124.563 246.404 124.392 245.87 124.392ZM256.309 123.192H258.277L254.853 131H253.109L249.717 123.192H251.829L254.037 128.712L256.309 123.192ZM262.494 122.984C263.592 122.984 264.408 123.251 264.942 123.784C265.475 124.317 265.742 125.139 265.742 126.248V131H263.838V129.8C263.656 130.216 263.368 130.541 262.974 130.776C262.59 131.011 262.142 131.128 261.63 131.128C261.107 131.128 260.632 131.021 260.206 130.808C259.779 130.595 259.443 130.301 259.198 129.928C258.952 129.555 258.83 129.139 258.83 128.68C258.83 128.104 258.974 127.651 259.262 127.32C259.56 126.989 260.04 126.749 260.702 126.6C261.363 126.451 262.275 126.376 263.438 126.376H263.838V126.008C263.838 125.475 263.72 125.091 263.486 124.856C263.262 124.621 262.883 124.504 262.35 124.504C261.934 124.504 261.496 124.579 261.038 124.728C260.59 124.867 260.147 125.064 259.71 125.32L259.15 123.944C259.587 123.667 260.115 123.437 260.734 123.256C261.352 123.075 261.939 122.984 262.494 122.984ZM262.03 129.688C262.563 129.688 262.995 129.512 263.326 129.16C263.667 128.797 263.838 128.333 263.838 127.768V127.432H263.55C262.835 127.432 262.28 127.464 261.886 127.528C261.491 127.592 261.208 127.704 261.038 127.864C260.867 128.024 260.782 128.243 260.782 128.52C260.782 128.861 260.899 129.144 261.134 129.368C261.368 129.581 261.667 129.688 262.03 129.688ZM267.822 127.512V125.928H272.59V127.512H267.822ZM277.701 131.128C277.008 131.128 276.368 131.043 275.781 130.872C275.205 130.701 274.715 130.456 274.309 130.136L274.869 128.744C275.701 129.352 276.656 129.656 277.733 129.656C278.192 129.656 278.539 129.581 278.773 129.432C279.019 129.283 279.141 129.069 279.141 128.792C279.141 128.557 279.056 128.376 278.885 128.248C278.725 128.12 278.432 128.003 278.005 127.896L276.725 127.608C276 127.448 275.461 127.187 275.109 126.824C274.757 126.461 274.581 125.992 274.581 125.416C274.581 124.936 274.715 124.515 274.981 124.152C275.259 123.779 275.637 123.491 276.117 123.288C276.608 123.085 277.173 122.984 277.813 122.984C278.368 122.984 278.901 123.069 279.413 123.24C279.936 123.411 280.395 123.651 280.789 123.96L280.229 125.32C279.419 124.733 278.608 124.44 277.797 124.44C277.36 124.44 277.019 124.52 276.773 124.68C276.528 124.84 276.405 125.064 276.405 125.352C276.405 125.565 276.48 125.741 276.629 125.88C276.789 126.019 277.04 126.125 277.381 126.2L278.709 126.504C279.488 126.675 280.059 126.947 280.421 127.32C280.784 127.683 280.965 128.163 280.965 128.76C280.965 129.485 280.672 130.061 280.085 130.488C279.499 130.915 278.704 131.128 277.701 131.128ZM289.451 127.448H284.123C284.187 128.173 284.406 128.712 284.779 129.064C285.152 129.416 285.686 129.592 286.379 129.592C287.243 129.592 288.032 129.315 288.747 128.76L289.323 130.136C288.96 130.435 288.502 130.675 287.947 130.856C287.403 131.037 286.854 131.128 286.299 131.128C285.019 131.128 284.006 130.765 283.259 130.04C282.523 129.315 282.155 128.323 282.155 127.064C282.155 126.264 282.315 125.555 282.635 124.936C282.955 124.317 283.403 123.837 283.979 123.496C284.566 123.155 285.227 122.984 285.963 122.984C287.04 122.984 287.888 123.331 288.507 124.024C289.136 124.717 289.451 125.672 289.451 126.888V127.448ZM286.011 124.392C285.478 124.392 285.046 124.563 284.715 124.904C284.395 125.245 284.198 125.736 284.123 126.376H287.739C287.718 125.725 287.558 125.235 287.259 124.904C286.96 124.563 286.544 124.392 286.011 124.392ZM302.295 127.448H296.967C297.031 128.173 297.249 128.712 297.623 129.064C297.996 129.416 298.529 129.592 299.223 129.592C300.087 129.592 300.876 129.315 301.591 128.76L302.167 130.136C301.804 130.435 301.345 130.675 300.791 130.856C300.247 131.037 299.697 131.128 299.143 131.128C297.863 131.128 296.849 130.765 296.103 130.04C295.367 129.315 294.999 128.323 294.999 127.064C294.999 126.264 295.159 125.555 295.479 124.936C295.799 124.317 296.247 123.837 296.823 123.496C297.409 123.155 298.071 122.984 298.807 122.984C299.884 122.984 300.732 123.331 301.351 124.024C301.98 124.717 302.295 125.672 302.295 126.888V127.448ZM298.855 124.392C298.321 124.392 297.889 124.563 297.559 124.904C297.239 125.245 297.041 125.736 296.967 126.376H300.583C300.561 125.725 300.401 125.235 300.103 124.904C299.804 124.563 299.388 124.392 298.855 124.392ZM313.227 122.984C314.112 122.984 314.773 123.251 315.211 123.784C315.648 124.307 315.867 125.112 315.867 126.2V131H313.867V126.28C313.867 125.683 313.765 125.251 313.563 124.984C313.36 124.707 313.035 124.568 312.587 124.568C312.053 124.568 311.637 124.749 311.339 125.112C311.04 125.475 310.891 125.981 310.891 126.632V131H308.891V126.28C308.891 125.683 308.789 125.251 308.587 124.984C308.395 124.707 308.069 124.568 307.611 124.568C307.088 124.568 306.677 124.749 306.379 125.112C306.08 125.475 305.931 125.981 305.931 126.632V131H303.931V123.176H305.883V124.28C306.117 123.853 306.443 123.533 306.859 123.32C307.275 123.096 307.749 122.984 308.283 122.984C309.467 122.984 310.251 123.475 310.635 124.456C310.88 123.997 311.232 123.64 311.691 123.384C312.149 123.117 312.661 122.984 313.227 122.984ZM326.787 122.984C327.726 122.984 328.424 123.251 328.883 123.784C329.342 124.317 329.571 125.123 329.571 126.2V131H327.571V126.312C327.571 125.704 327.454 125.261 327.219 124.984C326.995 124.707 326.638 124.568 326.147 124.568C325.571 124.568 325.107 124.749 324.755 125.112C324.414 125.475 324.243 125.96 324.243 126.568V131H322.243V123.176H324.195V124.344C324.462 123.907 324.819 123.571 325.267 123.336C325.715 123.101 326.222 122.984 326.787 122.984ZM335.171 131.128C334.371 131.128 333.667 130.963 333.059 130.632C332.461 130.301 331.997 129.827 331.667 129.208C331.336 128.589 331.171 127.869 331.171 127.048C331.171 126.227 331.336 125.512 331.667 124.904C331.997 124.285 332.461 123.811 333.059 123.48C333.667 123.149 334.371 122.984 335.171 122.984C335.971 122.984 336.669 123.149 337.267 123.48C337.875 123.811 338.339 124.285 338.659 124.904C338.989 125.512 339.155 126.227 339.155 127.048C339.155 127.869 338.989 128.589 338.659 129.208C338.339 129.827 337.875 130.301 337.267 130.632C336.669 130.963 335.971 131.128 335.171 131.128ZM335.155 129.576C335.805 129.576 336.301 129.363 336.643 128.936C336.984 128.509 337.155 127.88 337.155 127.048C337.155 126.227 336.984 125.603 336.643 125.176C336.301 124.739 335.811 124.52 335.171 124.52C334.531 124.52 334.035 124.739 333.683 125.176C333.341 125.603 333.171 126.227 333.171 127.048C333.171 127.88 333.341 128.509 333.683 128.936C334.024 129.363 334.515 129.576 335.155 129.576ZM343.686 131.128C342.992 131.128 342.352 131.043 341.766 130.872C341.19 130.701 340.699 130.456 340.294 130.136L340.854 128.744C341.686 129.352 342.64 129.656 343.718 129.656C344.176 129.656 344.523 129.581 344.758 129.432C345.003 129.283 345.126 129.069 345.126 128.792C345.126 128.557 345.04 128.376 344.87 128.248C344.71 128.12 344.416 128.003 343.99 127.896L342.71 127.608C341.984 127.448 341.446 127.187 341.094 126.824C340.742 126.461 340.566 125.992 340.566 125.416C340.566 124.936 340.699 124.515 340.966 124.152C341.243 123.779 341.622 123.491 342.102 123.288C342.592 123.085 343.158 122.984 343.798 122.984C344.352 122.984 344.886 123.069 345.398 123.24C345.92 123.411 346.379 123.651 346.774 123.96L346.214 125.32C345.403 124.733 344.592 124.44 343.782 124.44C343.344 124.44 343.003 124.52 342.758 124.68C342.512 124.84 342.39 125.064 342.39 125.352C342.39 125.565 342.464 125.741 342.614 125.88C342.774 126.019 343.024 126.125 343.366 126.2L344.694 126.504C345.472 126.675 346.043 126.947 346.406 127.32C346.768 127.683 346.95 128.163 346.95 128.76C346.95 129.485 346.656 130.061 346.07 130.488C345.483 130.915 344.688 131.128 343.686 131.128ZM351.451 131.128C350.758 131.128 350.118 131.043 349.531 130.872C348.955 130.701 348.465 130.456 348.059 130.136L348.619 128.744C349.451 129.352 350.406 129.656 351.483 129.656C351.942 129.656 352.289 129.581 352.523 129.432C352.769 129.283 352.891 129.069 352.891 128.792C352.891 128.557 352.806 128.376 352.635 128.248C352.475 128.12 352.182 128.003 351.755 127.896L350.475 127.608C349.75 127.448 349.211 127.187 348.859 126.824C348.507 126.461 348.331 125.992 348.331 125.416C348.331 124.936 348.465 124.515 348.731 124.152C349.009 123.779 349.387 123.491 349.867 123.288C350.358 123.085 350.923 122.984 351.563 122.984C352.118 122.984 352.651 123.069 353.163 123.24C353.686 123.411 354.145 123.651 354.539 123.96L353.979 125.32C353.169 124.733 352.358 124.44 351.547 124.44C351.11 124.44 350.769 124.52 350.523 124.68C350.278 124.84 350.155 125.064 350.155 125.352C350.155 125.565 350.23 125.741 350.379 125.88C350.539 126.019 350.79 126.125 351.131 126.2L352.459 126.504C353.238 126.675 353.809 126.947 354.171 127.32C354.534 127.683 354.715 128.163 354.715 128.76C354.715 129.485 354.422 130.061 353.835 130.488C353.249 130.915 352.454 131.128 351.451 131.128ZM359.905 131.128C359.105 131.128 358.401 130.963 357.793 130.632C357.196 130.301 356.732 129.827 356.401 129.208C356.07 128.589 355.905 127.869 355.905 127.048C355.905 126.227 356.07 125.512 356.401 124.904C356.732 124.285 357.196 123.811 357.793 123.48C358.401 123.149 359.105 122.984 359.905 122.984C360.705 122.984 361.404 123.149 362.001 123.48C362.609 123.811 363.073 124.285 363.393 124.904C363.724 125.512 363.889 126.227 363.889 127.048C363.889 127.869 363.724 128.589 363.393 129.208C363.073 129.827 362.609 130.301 362.001 130.632C361.404 130.963 360.705 131.128 359.905 131.128ZM359.889 129.576C360.54 129.576 361.036 129.363 361.377 128.936C361.718 128.509 361.889 127.88 361.889 127.048C361.889 126.227 361.718 125.603 361.377 125.176C361.036 124.739 360.545 124.52 359.905 124.52C359.265 124.52 358.769 124.739 358.417 125.176C358.076 125.603 357.905 126.227 357.905 127.048C357.905 127.88 358.076 128.509 358.417 128.936C358.758 129.363 359.249 129.576 359.889 129.576ZM374.38 122.984C375.052 122.984 375.649 123.155 376.172 123.496C376.705 123.837 377.116 124.323 377.404 124.952C377.702 125.571 377.852 126.285 377.852 127.096C377.852 127.907 377.702 128.616 377.404 129.224C377.116 129.832 376.71 130.301 376.188 130.632C375.665 130.963 375.062 131.128 374.38 131.128C373.825 131.128 373.329 131.011 372.892 130.776C372.454 130.541 372.118 130.216 371.884 129.8V133.88H369.884V123.176H371.852V124.36C372.086 123.923 372.422 123.587 372.86 123.352C373.308 123.107 373.814 122.984 374.38 122.984ZM373.852 129.576C374.481 129.576 374.972 129.363 375.324 128.936C375.676 128.499 375.852 127.885 375.852 127.096C375.852 126.285 375.676 125.656 375.324 125.208C374.972 124.76 374.481 124.536 373.852 124.536C373.212 124.536 372.716 124.755 372.364 125.192C372.022 125.629 371.852 126.253 371.852 127.064C371.852 127.864 372.022 128.483 372.364 128.92C372.716 129.357 373.212 129.576 373.852 129.576ZM384.645 124.648L383.477 124.76C382.154 124.899 381.493 125.571 381.493 126.776V131H379.493V123.176H381.397V124.552C381.802 123.613 382.64 123.101 383.909 123.016L384.517 122.968L384.645 124.648ZM389.03 131.128C388.23 131.128 387.526 130.963 386.918 130.632C386.321 130.301 385.857 129.827 385.526 129.208C385.195 128.589 385.03 127.869 385.03 127.048C385.03 126.227 385.195 125.512 385.526 124.904C385.857 124.285 386.321 123.811 386.918 123.48C387.526 123.149 388.23 122.984 389.03 122.984C389.83 122.984 390.529 123.149 391.126 123.48C391.734 123.811 392.198 124.285 392.518 124.904C392.849 125.512 393.014 126.227 393.014 127.048C393.014 127.869 392.849 128.589 392.518 129.208C392.198 129.827 391.734 130.301 391.126 130.632C390.529 130.963 389.83 131.128 389.03 131.128ZM389.014 129.576C389.665 129.576 390.161 129.363 390.502 128.936C390.843 128.509 391.014 127.88 391.014 127.048C391.014 126.227 390.843 125.603 390.502 125.176C390.161 124.739 389.67 124.52 389.03 124.52C388.39 124.52 387.894 124.739 387.542 125.176C387.201 125.603 387.03 126.227 387.03 127.048C387.03 127.88 387.201 128.509 387.542 128.936C387.883 129.363 388.374 129.576 389.014 129.576ZM402.281 123.176V130.28C402.281 131.507 401.94 132.435 401.257 133.064C400.585 133.693 399.588 134.008 398.265 134.008C397.582 134.008 396.926 133.917 396.297 133.736C395.668 133.565 395.118 133.32 394.649 133L395.209 131.592C396.18 132.179 397.182 132.472 398.217 132.472C399.604 132.472 400.297 131.789 400.297 130.424V129.4C400.062 129.837 399.721 130.179 399.273 130.424C398.825 130.659 398.313 130.776 397.737 130.776C397.054 130.776 396.446 130.616 395.913 130.296C395.39 129.965 394.98 129.507 394.681 128.92C394.382 128.333 394.233 127.656 394.233 126.888C394.233 126.12 394.377 125.443 394.665 124.856C394.964 124.259 395.38 123.8 395.913 123.48C396.446 123.149 397.054 122.984 397.737 122.984C398.313 122.984 398.825 123.107 399.273 123.352C399.721 123.587 400.062 123.923 400.297 124.36V123.176H402.281ZM398.265 129.224C398.905 129.224 399.401 129.016 399.753 128.6C400.116 128.184 400.297 127.613 400.297 126.888C400.297 126.152 400.116 125.576 399.753 125.16C399.401 124.744 398.905 124.536 398.265 124.536C397.636 124.536 397.14 124.744 396.777 125.16C396.414 125.576 396.233 126.152 396.233 126.888C396.233 127.603 396.414 128.173 396.777 128.6C397.14 129.016 397.636 129.224 398.265 129.224ZM409.505 124.648L408.337 124.76C407.014 124.899 406.353 125.571 406.353 126.776V131H404.353V123.176H406.257V124.552C406.662 123.613 407.499 123.101 408.769 123.016L409.377 122.968L409.505 124.648ZM413.806 122.984C414.905 122.984 415.721 123.251 416.254 123.784C416.788 124.317 417.054 125.139 417.054 126.248V131H415.15V129.8C414.969 130.216 414.681 130.541 414.286 130.776C413.902 131.011 413.454 131.128 412.942 131.128C412.42 131.128 411.945 131.021 411.518 130.808C411.092 130.595 410.756 130.301 410.51 129.928C410.265 129.555 410.142 129.139 410.142 128.68C410.142 128.104 410.286 127.651 410.574 127.32C410.873 126.989 411.353 126.749 412.014 126.6C412.676 126.451 413.588 126.376 414.75 126.376H415.15V126.008C415.15 125.475 415.033 125.091 414.798 124.856C414.574 124.621 414.196 124.504 413.662 124.504C413.246 124.504 412.809 124.579 412.35 124.728C411.902 124.867 411.46 125.064 411.022 125.32L410.462 123.944C410.9 123.667 411.428 123.437 412.046 123.256C412.665 123.075 413.252 122.984 413.806 122.984ZM413.342 129.688C413.876 129.688 414.308 129.512 414.638 129.16C414.98 128.797 415.15 128.333 415.15 127.768V127.432H414.862C414.148 127.432 413.593 127.464 413.198 127.528C412.804 127.592 412.521 127.704 412.35 127.864C412.18 128.024 412.094 128.243 412.094 128.52C412.094 128.861 412.212 129.144 412.446 129.368C412.681 129.581 412.98 129.688 413.342 129.688ZM428.383 122.984C429.268 122.984 429.93 123.251 430.367 123.784C430.804 124.307 431.023 125.112 431.023 126.2V131H429.023V126.28C429.023 125.683 428.922 125.251 428.719 124.984C428.516 124.707 428.191 124.568 427.743 124.568C427.21 124.568 426.794 124.749 426.495 125.112C426.196 125.475 426.047 125.981 426.047 126.632V131H424.047V126.28C424.047 125.683 423.946 125.251 423.743 124.984C423.551 124.707 423.226 124.568 422.767 124.568C422.244 124.568 421.834 124.749 421.535 125.112C421.236 125.475 421.087 125.981 421.087 126.632V131H419.087V123.176H421.039V124.28C421.274 123.853 421.599 123.533 422.015 123.32C422.431 123.096 422.906 122.984 423.439 122.984C424.623 122.984 425.407 123.475 425.791 124.456C426.036 123.997 426.388 123.64 426.847 123.384C427.306 123.117 427.818 122.984 428.383 122.984ZM436.416 122.984C437.514 122.984 438.33 123.251 438.864 123.784C439.397 124.317 439.664 125.139 439.664 126.248V131H437.76V129.8C437.578 130.216 437.29 130.541 436.896 130.776C436.512 131.011 436.064 131.128 435.552 131.128C435.029 131.128 434.554 131.021 434.128 130.808C433.701 130.595 433.365 130.301 433.12 129.928C432.874 129.555 432.752 129.139 432.752 128.68C432.752 128.104 432.896 127.651 433.184 127.32C433.482 126.989 433.962 126.749 434.624 126.6C435.285 126.451 436.197 126.376 437.36 126.376H437.76V126.008C437.76 125.475 437.642 125.091 437.408 124.856C437.184 124.621 436.805 124.504 436.272 124.504C435.856 124.504 435.418 124.579 434.96 124.728C434.512 124.867 434.069 125.064 433.632 125.32L433.072 123.944C433.509 123.667 434.037 123.437 434.656 123.256C435.274 123.075 435.861 122.984 436.416 122.984ZM435.952 129.688C436.485 129.688 436.917 129.512 437.248 129.16C437.589 128.797 437.76 128.333 437.76 127.768V127.432H437.472C436.757 127.432 436.202 127.464 435.808 127.528C435.413 127.592 435.13 127.704 434.96 127.864C434.789 128.024 434.704 128.243 434.704 128.52C434.704 128.861 434.821 129.144 435.056 129.368C435.29 129.581 435.589 129.688 435.952 129.688ZM450.536 122.984C451.219 122.984 451.821 123.149 452.344 123.48C452.867 123.811 453.272 124.28 453.56 124.888C453.859 125.496 454.008 126.205 454.008 127.016C454.008 127.827 453.859 128.547 453.56 129.176C453.272 129.795 452.861 130.275 452.328 130.616C451.805 130.957 451.208 131.128 450.536 131.128C449.971 131.128 449.464 131.005 449.016 130.76C448.579 130.515 448.243 130.173 448.008 129.736V131H446.04V119.72H448.04V124.312C448.275 123.885 448.611 123.56 449.048 123.336C449.485 123.101 449.981 122.984 450.536 122.984ZM450.008 129.576C450.637 129.576 451.128 129.352 451.48 128.904C451.832 128.456 452.008 127.827 452.008 127.016C452.008 126.216 451.832 125.603 451.48 125.176C451.139 124.749 450.648 124.536 450.008 124.536C449.368 124.536 448.872 124.755 448.52 125.192C448.179 125.619 448.008 126.237 448.008 127.048C448.008 127.859 448.179 128.483 448.52 128.92C448.872 129.357 449.368 129.576 450.008 129.576ZM462.513 127.448H457.185C457.249 128.173 457.468 128.712 457.841 129.064C458.215 129.416 458.748 129.592 459.441 129.592C460.305 129.592 461.095 129.315 461.809 128.76L462.385 130.136C462.023 130.435 461.564 130.675 461.009 130.856C460.465 131.037 459.916 131.128 459.361 131.128C458.081 131.128 457.068 130.765 456.321 130.04C455.585 129.315 455.217 128.323 455.217 127.064C455.217 126.264 455.377 125.555 455.697 124.936C456.017 124.317 456.465 123.837 457.041 123.496C457.628 123.155 458.289 122.984 459.025 122.984C460.103 122.984 460.951 123.331 461.569 124.024C462.199 124.717 462.513 125.672 462.513 126.888V127.448ZM459.073 124.392C458.54 124.392 458.108 124.563 457.777 124.904C457.457 125.245 457.26 125.736 457.185 126.376H460.801C460.78 125.725 460.62 125.235 460.321 124.904C460.023 124.563 459.607 124.392 459.073 124.392ZM468.04 129.624C468.275 129.624 468.52 129.608 468.776 129.576L468.68 131.064C468.36 131.096 468.067 131.112 467.8 131.112C466.701 131.112 465.891 130.861 465.368 130.36C464.845 129.848 464.584 129.091 464.584 128.088V124.68H463.08V123.176H464.584V120.84H466.584V123.176H468.648V124.68H466.584V128.056C466.584 129.101 467.069 129.624 468.04 129.624ZM473.306 122.984C474.405 122.984 475.221 123.251 475.754 123.784C476.288 124.317 476.554 125.139 476.554 126.248V131H474.65V129.8C474.469 130.216 474.181 130.541 473.786 130.776C473.402 131.011 472.954 131.128 472.442 131.128C471.92 131.128 471.445 131.021 471.018 130.808C470.592 130.595 470.256 130.301 470.01 129.928C469.765 129.555 469.642 129.139 469.642 128.68C469.642 128.104 469.786 127.651 470.074 127.32C470.373 126.989 470.853 126.749 471.514 126.6C472.176 126.451 473.088 126.376 474.25 126.376H474.65V126.008C474.65 125.475 474.533 125.091 474.298 124.856C474.074 124.621 473.696 124.504 473.162 124.504C472.746 124.504 472.309 124.579 471.85 124.728C471.402 124.867 470.96 125.064 470.522 125.32L469.962 123.944C470.4 123.667 470.928 123.437 471.546 123.256C472.165 123.075 472.752 122.984 473.306 122.984ZM472.842 129.688C473.376 129.688 473.808 129.512 474.138 129.16C474.48 128.797 474.65 128.333 474.65 127.768V127.432H474.362C473.648 127.432 473.093 127.464 472.698 127.528C472.304 127.592 472.021 127.704 471.85 127.864C471.68 128.024 471.594 128.243 471.594 128.52C471.594 128.861 471.712 129.144 471.946 129.368C472.181 129.581 472.48 129.688 472.842 129.688ZM478.923 127.608L478.299 119.704L480.763 119.72L480.139 127.608H478.923ZM478.411 128.792H480.651V131H478.411V128.792Z" fill="white"/>
<path d="M213.608 65.216C212.328 65.216 211.096 65.048 209.912 64.712C208.728 64.36 207.744 63.88 206.96 63.272L208.16 60.608C209.792 61.744 211.624 62.312 213.656 62.312C214.712 62.312 215.52 62.144 216.08 61.808C216.656 61.456 216.944 60.976 216.944 60.368C216.944 59.824 216.68 59.4 216.152 59.096C215.64 58.792 214.72 58.496 213.392 58.208C211.904 57.904 210.712 57.536 209.816 57.104C208.936 56.672 208.288 56.144 207.872 55.52C207.472 54.88 207.272 54.096 207.272 53.168C207.272 52.144 207.552 51.232 208.112 50.432C208.688 49.632 209.488 49.008 210.512 48.56C211.536 48.096 212.72 47.864 214.064 47.864C215.264 47.864 216.416 48.04 217.52 48.392C218.64 48.744 219.528 49.216 220.184 49.808L218.984 52.472C217.432 51.336 215.8 50.768 214.088 50.768C213.112 50.768 212.344 50.96 211.784 51.344C211.224 51.712 210.944 52.224 210.944 52.88C210.944 53.264 211.048 53.584 211.256 53.84C211.48 54.08 211.84 54.296 212.336 54.488C212.848 54.68 213.568 54.88 214.496 55.088C216.672 55.568 218.232 56.184 219.176 56.936C220.136 57.688 220.616 58.728 220.616 60.056C220.616 61.656 220 62.92 218.768 63.848C217.536 64.76 215.816 65.216 213.608 65.216ZM233.633 59.792H225.953C226.065 60.736 226.369 61.424 226.865 61.856C227.377 62.272 228.097 62.48 229.025 62.48C229.633 62.48 230.233 62.384 230.825 62.192C231.433 61.984 231.985 61.696 232.481 61.328L233.441 63.752C232.865 64.2 232.161 64.552 231.329 64.808C230.513 65.064 229.689 65.192 228.857 65.192C226.873 65.192 225.305 64.648 224.153 63.56C223.017 62.456 222.449 60.96 222.449 59.072C222.449 57.872 222.697 56.808 223.193 55.88C223.689 54.952 224.377 54.232 225.257 53.72C226.137 53.192 227.137 52.928 228.257 52.928C229.905 52.928 231.209 53.464 232.169 54.536C233.145 55.608 233.633 57.064 233.633 58.904V59.792ZM228.353 55.424C227.665 55.424 227.113 55.648 226.697 56.096C226.297 56.528 226.049 57.16 225.953 57.992H230.585C230.537 57.144 230.321 56.504 229.937 56.072C229.569 55.64 229.041 55.424 228.353 55.424ZM239.446 64.232C239.446 65.432 239.27 66.392 238.918 67.112C238.566 67.832 237.998 68.368 237.214 68.72C236.446 69.088 235.398 69.312 234.07 69.392L232.942 69.464L232.678 66.872L233.902 66.776C234.59 66.728 235.078 66.56 235.366 66.272C235.67 65.984 235.822 65.528 235.822 64.904V53.216H239.446V64.232ZM235.678 47.552H239.566V50.936H235.678V47.552ZM247.452 52.928C249.212 52.928 250.508 53.344 251.34 54.176C252.188 55.008 252.612 56.296 252.612 58.04V65H249.18V63.248C248.94 63.856 248.54 64.336 247.98 64.688C247.42 65.024 246.764 65.192 246.012 65.192C245.212 65.192 244.484 65.032 243.828 64.712C243.188 64.392 242.676 63.944 242.292 63.368C241.924 62.792 241.74 62.152 241.74 61.448C241.74 60.584 241.956 59.904 242.388 59.408C242.836 58.912 243.548 58.552 244.524 58.328C245.5 58.104 246.836 57.992 248.532 57.992H249.156V57.56C249.156 56.856 249.004 56.36 248.7 56.072C248.396 55.784 247.868 55.64 247.116 55.64C246.54 55.64 245.9 55.744 245.196 55.952C244.492 56.16 243.82 56.448 243.18 56.816L242.22 54.392C242.892 53.976 243.716 53.632 244.692 53.36C245.684 53.072 246.604 52.928 247.452 52.928ZM246.804 62.696C247.508 62.696 248.076 62.464 248.508 62C248.94 61.52 249.156 60.904 249.156 60.152V59.744H248.748C247.452 59.744 246.54 59.848 246.012 60.056C245.5 60.264 245.244 60.64 245.244 61.184C245.244 61.616 245.388 61.976 245.676 62.264C245.98 62.552 246.356 62.696 246.804 62.696ZM273.185 56.24C274.161 56.528 274.913 57.032 275.441 57.752C275.985 58.456 276.257 59.328 276.257 60.368C276.257 61.792 275.729 62.92 274.673 63.752C273.633 64.584 272.193 65 270.353 65H262.313V48.08H270.113C271.873 48.08 273.265 48.472 274.289 49.256C275.329 50.04 275.849 51.112 275.849 52.472C275.849 53.352 275.609 54.128 275.129 54.8C274.665 55.456 274.017 55.936 273.185 56.24ZM265.961 54.968H269.489C270.449 54.968 271.153 54.808 271.601 54.488C272.065 54.152 272.297 53.648 272.297 52.976C272.297 52.272 272.065 51.76 271.601 51.44C271.153 51.104 270.449 50.936 269.489 50.936H265.961V54.968ZM269.921 62.144C270.913 62.144 271.633 61.976 272.081 61.64C272.529 61.304 272.753 60.76 272.753 60.008C272.753 59.256 272.529 58.704 272.081 58.352C271.633 58 270.913 57.824 269.921 57.824H265.961V62.144H269.921ZM289.18 59.792H281.5C281.612 60.736 281.916 61.424 282.412 61.856C282.924 62.272 283.644 62.48 284.572 62.48C285.18 62.48 285.78 62.384 286.372 62.192C286.98 61.984 287.532 61.696 288.028 61.328L288.988 63.752C288.412 64.2 287.708 64.552 286.876 64.808C286.06 65.064 285.236 65.192 284.404 65.192C282.42 65.192 280.852 64.648 279.7 63.56C278.564 62.456 277.996 60.96 277.996 59.072C277.996 57.872 278.244 56.808 278.74 55.88C279.236 54.952 279.924 54.232 280.804 53.72C281.684 53.192 282.684 52.928 283.804 52.928C285.452 52.928 286.756 53.464 287.716 54.536C288.692 55.608 289.18 57.064 289.18 58.904V59.792ZM283.9 55.424C283.212 55.424 282.66 55.648 282.244 56.096C281.844 56.528 281.596 57.16 281.5 57.992H286.132C286.084 57.144 285.868 56.504 285.484 56.072C285.116 55.64 284.588 55.424 283.9 55.424ZM297.662 62.528C298.03 62.528 298.414 62.504 298.814 62.456L298.622 65.096C298.158 65.16 297.694 65.192 297.23 65.192C295.438 65.192 294.126 64.8 293.294 64.016C292.478 63.232 292.07 62.04 292.07 60.44V55.928H289.838V53.216H292.07V49.76H295.694V53.216H298.646V55.928H295.694V60.416C295.694 61.824 296.35 62.528 297.662 62.528ZM305.647 52.928C307.407 52.928 308.703 53.344 309.535 54.176C310.383 55.008 310.807 56.296 310.807 58.04V65H307.375V63.248C307.135 63.856 306.735 64.336 306.175 64.688C305.615 65.024 304.959 65.192 304.207 65.192C303.407 65.192 302.679 65.032 302.023 64.712C301.383 64.392 300.871 63.944 300.487 63.368C300.119 62.792 299.935 62.152 299.935 61.448C299.935 60.584 300.151 59.904 300.583 59.408C301.031 58.912 301.743 58.552 302.719 58.328C303.695 58.104 305.031 57.992 306.727 57.992H307.351V57.56C307.351 56.856 307.199 56.36 306.895 56.072C306.591 55.784 306.063 55.64 305.311 55.64C304.735 55.64 304.095 55.744 303.391 55.952C302.687 56.16 302.015 56.448 301.375 56.816L300.415 54.392C301.087 53.976 301.911 53.632 302.887 53.36C303.879 53.072 304.799 52.928 305.647 52.928ZM304.999 62.696C305.703 62.696 306.271 62.464 306.703 62C307.135 61.52 307.351 60.904 307.351 60.152V59.744H306.943C305.647 59.744 304.735 59.848 304.207 60.056C303.695 60.264 303.439 60.64 303.439 61.184C303.439 61.616 303.583 61.976 303.871 62.264C304.175 62.552 304.551 62.696 304.999 62.696ZM314.141 59.528L313.013 48.056L317.477 48.08L316.325 59.528H314.141ZM313.301 61.16H317.189V65H313.301V61.16Z" fill="white"/>
<defs>
<linearGradient id="paint0_linear" x1="107.016" y1="178.959" x2="107.016" y2="136.802" gradientUnits="userSpaceOnUse">
<stop offset="0.21" stop-color="#F5F8F9"/>
<stop offset="1" stop-color="white"/>
</linearGradient>
</defs>
</svg>
